<?xml version="1.0" encoding="utf-8"?>
<!-- Generator: Adobe Illustrator 15.1.0, SVG Export Plug-In  -->
<!DOCTYPE svg PUBLIC "-//W3C//DTD SVG 1.1//EN" "http://www.w3.org/Graphics/SVG/1.1/DTD/svg11.dtd" [
	<!ENTITY ns_flows "http://ns.adobe.com/Flows/1.0/">
]>
<svg version="1.1"
	 xmlns="http://www.w3.org/2000/svg" xmlns:xlink="http://www.w3.org/1999/xlink" xmlns:a="http://ns.adobe.com/AdobeSVGViewerExtensions/3.0/"
	 x="0px" y="0px" width="219px" height="53px" viewBox="0 0 219 53" overflow="visible" enable-background="new 0 0 219 53"
	 xml:space="preserve">
<defs>
</defs>
<polygon fill="#FFFFFF" points="12.395,17.107 12.395,34.558 8.229,34.558 8.229,17.107 0,17.107 0,13.915 20.656,13.915 
	20.656,17.107 "/>
<path fill="#FFFFFF" d="M24.592,34.558V18.729H38.15c2.373,0,3.561,1.022,3.561,3.066v3.713c0,2.045-1.188,3.068-3.561,3.068h-2.084
	l7.299,5.981H38.09l-6.381-5.981h-3.498v5.981H24.592z M36.494,21.427h-8.283v4.449h8.283c0.572,0,0.972-0.063,1.195-0.185
	c0.309-0.187,0.461-0.547,0.461-1.082v-1.916c0-0.534-0.152-0.895-0.461-1.081C37.466,21.49,37.066,21.427,36.494,21.427"/>
<path fill="#FFFFFF" d="M46.441,34.558l8.955-15.829h3.559l9.079,15.829h-4.142l-1.899-3.467H51.959l-1.838,3.467H46.441z
	 M53.525,28.237h6.932l-3.404-6.442L53.525,28.237z"/>
<path fill="#FFFFFF" d="M85.922,21.551h-9.94v10.03h9.94v-3.404l3.68,0.003v2.635c0,1.472-0.275,2.464-0.826,2.976
	c-0.554,0.511-1.586,0.768-3.1,0.768h-9.448c-1.515,0-2.546-0.257-3.097-0.768c-0.555-0.512-0.83-1.504-0.83-2.976V22.47
	c0-1.472,0.275-2.463,0.83-2.975c0.551-0.51,1.582-0.766,3.097-0.766h9.448c1.514,0,2.546,0.256,3.1,0.766
	c0.551,0.512,0.826,1.503,0.826,2.975v2.08l-3.68,0.006V21.551z"/>
<polygon fill="#FFFFFF" points="103.998,34.569 92.068,13.915 97.554,13.915 105.92,28.845 113.885,13.915 118.689,13.915 
	107.32,34.569 "/>
<rect x="121.919" y="18.729" fill="#FFFFFF" width="3.683" height="15.829"/>
<path fill="#FFFFFF" d="M146.979,21.49H136.58v3.404h9.9c1.516,0,2.557,0.257,3.121,0.768c0.562,0.512,0.843,1.503,0.843,2.975v2.18
	c0,1.471-0.28,2.463-0.843,2.975c-0.562,0.511-1.602,0.768-3.113,0.768h-9.786c-1.513,0-2.551-0.257-3.114-0.768
	c-0.56-0.512-0.844-1.504-0.844-2.975v-1.11l3.254,0.005v1.871h11.196v-3.62h-9.878c-1.513,0-2.547-0.255-3.098-0.766
	c-0.553-0.513-0.828-1.502-0.828-2.976V22.47c0-1.472,0.275-2.463,0.828-2.975c0.551-0.51,1.585-0.767,3.098-0.767h8.987
	c1.452,0,2.472,0.245,3.052,0.736c0.586,0.491,0.875,1.401,0.875,2.729v1.102l-3.251,0.005V21.49z"/>
<rect x="157.227" y="18.729" fill="#FFFFFF" width="3.682" height="15.829"/>
<path fill="#FFFFFF" d="M167.809,22.471c0-1.474,0.273-2.464,0.828-2.977c0.553-0.51,1.582-0.765,3.099-0.765h11.655
	c1.513,0,2.547,0.255,3.099,0.765c0.552,0.513,0.828,1.503,0.828,2.977v8.345c0,1.47-0.276,2.463-0.828,2.974
	c-0.552,0.512-1.586,0.769-3.099,0.769h-11.655c-1.517,0-2.546-0.257-3.099-0.769c-0.555-0.511-0.828-1.504-0.828-2.974V22.471z
	 M171.488,31.58h12.148V21.551h-12.148V31.58z"/>
<path fill="#FFFFFF" d="M194.619,34.558V18.729h2.514l11.137,9.326c0.795,0.674,1.4,1.246,1.811,1.716
	c-0.104-1.472-0.156-2.38-0.156-2.729v-8.313h3.316v15.829h-2.518l-11.625-9.787c-0.492-0.408-0.931-0.837-1.32-1.288
	c0.104,1.024,0.154,1.861,0.154,2.516v8.56H194.619z"/>
<path fill="#FFFFFF" d="M57.238,41.802c0,0-4.409,3.483-2.791,7.219c0,0,2.24,4.73,14.811,3.732c0,0,25.019-0.869,50.41-12.072
	c0,0-37.563,12.211-57.334,8.663C62.334,49.344,56.199,48.115,57.238,41.802"/>
<path fill="#FFFFFF" d="M125.601,39.188c0,1.017-0.823,1.841-1.841,1.841c-1.017,0-1.842-0.824-1.842-1.841
	c0-1.019,0.825-1.843,1.842-1.843C124.777,37.345,125.601,38.169,125.601,39.188"/>
<path fill="#FFFFFF" d="M165.218,11.091c0,0,4.409-3.484,2.79-7.218c0,0-2.24-4.731-14.812-3.735c0,0-25.018,0.871-50.409,12.073
	c0,0,37.563-12.21,57.334-8.662C160.121,3.549,166.256,4.777,165.218,11.091"/>
<path fill="#FFFFFF" d="M160.908,14.051c0-1.016-0.824-1.84-1.841-1.84s-1.841,0.824-1.841,1.84c0,1.019,0.824,1.842,1.841,1.842
	S160.908,15.07,160.908,14.051"/>
<path fill="#FFFFFF" d="M218.104,19.903c0.073-0.091,0.111-0.199,0.111-0.325c0-0.185-0.068-0.321-0.203-0.413
	c-0.137-0.092-0.341-0.138-0.613-0.138h-0.748v1.911h0.464v-0.782h0.228l0.365,0.782h0.518l-0.427-0.853
	C217.927,20.053,218.028,19.993,218.104,19.903 M217.641,19.81c-0.062,0.044-0.162,0.067-0.299,0.067h-0.228v-0.556h0.204
	c0.143,0,0.248,0.023,0.314,0.069c0.069,0.046,0.104,0.118,0.104,0.217C217.736,19.698,217.704,19.766,217.641,19.81
	 M217.371,18.189c-1.01,0-1.828,0.818-1.828,1.827c0,1.009,0.818,1.826,1.828,1.826c1.008,0,1.825-0.817,1.825-1.826
	C219.196,19.007,218.379,18.189,217.371,18.189 M217.365,21.447c-0.791,0-1.432-0.641-1.432-1.431s0.641-1.431,1.432-1.431
	s1.432,0.641,1.432,1.431S218.156,21.447,217.365,21.447"/>
</svg>
