<?xml version="1.0" encoding="utf-8"?>
<!-- Generator: Adobe Illustrator 15.1.0, SVG Export Plug-In  -->
<!DOCTYPE svg PUBLIC "-//W3C//DTD SVG 1.1//EN" "http://www.w3.org/Graphics/SVG/1.1/DTD/svg11.dtd" [
	<!ENTITY ns_flows "http://ns.adobe.com/Flows/1.0/">
]>
<svg version="1.1"
	 xmlns="http://www.w3.org/2000/svg" xmlns:xlink="http://www.w3.org/1999/xlink" xmlns:a="http://ns.adobe.com/AdobeSVGViewerExtensions/3.0/"
	 x="0px" y="0px" width="74px" height="74px" viewBox="0 0 74 74" overflow="visible" enable-background="new 0 0 74 74"
	 xml:space="preserve">
<defs>
</defs>
<path fill="#bac7da" d="M17.753,74.175C7.964,74.175,0,66.212,0,56.421V17.753C0,7.964,7.964,0,17.753,0h38.666
	c9.789,0,17.753,7.964,17.753,17.753v38.668c0,9.791-7.964,17.754-17.753,17.754H17.753z M17.753,3.654
	c-7.774,0-14.099,6.325-14.099,14.099v38.668c0,7.775,6.325,14.1,14.099,14.1h38.666c7.773,0,14.1-6.324,14.1-14.1V17.753
	c0-7.774-6.326-14.099-14.1-14.099H17.753z"/>
<path fill="#bac7da" d="M56.419,73.232H17.753c-9.269,0-16.81-7.541-16.81-16.81v-38.67c0-9.27,7.541-16.81,16.81-16.81h38.666
	c9.27,0,16.812,7.54,16.812,16.81v38.67C73.231,65.691,65.688,73.232,56.419,73.232 M17.753,2.711
	c-8.294,0-15.042,6.747-15.042,15.041v38.67c0,8.293,6.748,15.041,15.042,15.041h38.666c8.294,0,15.041-6.748,15.041-15.041v-38.67
	c0-8.294-6.747-15.041-15.041-15.041H17.753z"/>
<rect x="36.186" y="6.543" fill="#bac7da" width="1.771" height="5.531"/>
<rect x="6.438" y="36.292" fill="#bac7da" width="5.529" height="1.771"/>
<rect x="62.177" y="36.292" fill="#bac7da" width="5.529" height="1.771"/>
<rect x="14.599" y="16.588" transform="matrix(0.7071 0.7071 -0.7071 0.7071 17.4406 -7.1609)" fill="#bac7da" width="5.53" height="1.768"/>
<rect x="54.012" y="56.001" transform="matrix(0.7069 0.7073 -0.7073 0.7069 56.8743 -23.4857)" fill="#bac7da" width="5.53" height="1.77"/>
<rect x="16.479" y="54.122" transform="matrix(0.7063 0.7079 -0.7079 0.7063 45.3719 4.416)" fill="#bac7da" width="1.77" height="5.529"/>
<rect x="55.891" y="14.709" transform="matrix(0.7071 0.7071 -0.7071 0.7071 28.9841 -35.0295)" fill="#bac7da" width="1.771" height="5.527"/>
<path fill="#bac7da" d="M50.052,26.913c2.203,2.8,3.516,6.334,3.516,10.174c0,9.104-7.378,16.48-16.481,16.48
	s-16.482-7.377-16.482-16.48c0-9.104,7.379-16.483,16.482-16.483c3.983,0,7.635,1.412,10.483,3.765l-5.672,5.586l2.504,2.503
	L50.052,26.913z"/>
</svg>
