<?xml version="1.0" encoding="utf-8"?>
<!-- Generator: Adobe Illustrator 15.1.0, SVG Export Plug-In  -->
<!DOCTYPE svg PUBLIC "-//W3C//DTD SVG 1.1//EN" "http://www.w3.org/Graphics/SVG/1.1/DTD/svg11.dtd" [
	<!ENTITY ns_flows "http://ns.adobe.com/Flows/1.0/">
]>
<svg version="1.1"
	 xmlns="http://www.w3.org/2000/svg" xmlns:xlink="http://www.w3.org/1999/xlink" xmlns:a="http://ns.adobe.com/AdobeSVGViewerExtensions/3.0/"
	 x="0px" y="0px" width="51px" height="37px" viewBox="0 0 51 37" overflow="visible" enable-background="new 0 0 51 37"
	 xml:space="preserve">
<defs>
</defs>
<path fill="#fff" d="M50.903,16.342c0.135-0.763,0.208-1.547,0.208-2.347C51.111,6.266,44.602,0,36.574,0
	c-4.408,0-8.354,1.891-11.021,4.871C22.889,1.891,18.943,0,14.537,0C6.508,0,0,6.266,0,13.995c0,0.8,0.073,1.584,0.207,2.347
	l-0.003,0.001c0,0-0.947,10.986,25.175,20.855h0.002h0.001c0.057,0.021,0.114,0.045,0.171,0.065c0,0,0-0.053-0.004-0.147
	l0.013-0.007c-0.004,0.099-0.009,0.154-0.009,0.154c26.308-9.884,25.354-20.921,25.354-20.921L50.903,16.342z"/>
</svg>
