<?xml version="1.0" encoding="utf-8"?>
<!-- Generator: Adobe Illustrator 15.1.0, SVG Export Plug-In . SVG Version: 6.00 Build 0)  -->
<!DOCTYPE svg PUBLIC "-//W3C//DTD SVG 1.1//EN" "http://www.w3.org/Graphics/SVG/1.1/DTD/svg11.dtd">
<svg version="1.1" id="Layer_1" xmlns="http://www.w3.org/2000/svg" xmlns:xlink="http://www.w3.org/1999/xlink" x="0px" y="0px"
	 width="317.77px" height="317.77px" viewBox="128.873 234.173 317.77 317.77"
	 enable-background="new 128.873 234.173 317.77 317.77" xml:space="preserve">
<path fill="#fff" d="M287.758,234.173c-87.681,0-158.885,71.204-158.885,158.885s71.204,158.885,158.885,158.885
	s158.885-71.204,158.885-158.885S375.438,234.173,287.758,234.173z M287.758,542.527c-82.973,0-150.058-67.085-150.058-150.058
	C137.7,310.084,204.785,243,287.758,243c82.973,0,150.058,67.084,150.058,150.058C437.815,475.442,370.73,542.527,287.758,542.527z"
	/>
<g>
	<path d="M245.389,303.611c10.592-7.062,24.127-10.592,40.015-10.592c20.596,0,38.25,4.708,51.785,14.711
		c13.534,10.004,20.596,24.716,20.596,44.135c0,11.77-2.941,21.773-8.826,30.012c-3.531,4.708-10.004,11.181-20.008,18.831
		l-10.004,7.649c-5.296,4.119-8.827,8.827-10.593,14.712c-1.177,3.53-1.765,8.827-1.765,16.477h-37.662
		c0.588-15.3,1.766-26.48,4.119-32.365c2.354-5.885,8.239-12.946,18.243-20.596l10.004-7.65c3.531-2.354,5.884-5.296,8.239-8.238
		c3.53-5.296,5.296-10.592,5.296-16.477c0-7.062-1.766-13.535-5.885-18.831c-4.119-5.884-11.77-8.827-22.362-8.827
		s-18.242,3.531-22.361,10.592c-4.708,7.062-6.473,14.711-6.473,21.773h-40.015C218.908,333.035,228.323,314.792,245.389,303.611z
		 M268.338,458.965h41.193v40.016h-41.193V458.965z"/>
</g>
</svg>
