<?xml version="1.0" encoding="utf-8"?>
<!-- Generator: Adobe Illustrator 19.1.0, SVG Export Plug-In . SVG Version: 6.00 Build 0)  -->
<!DOCTYPE svg PUBLIC "-//W3C//DTD SVG 1.1//EN" "http://www.w3.org/Graphics/SVG/1.1/DTD/svg11.dtd">
<svg version="1.1" id="Layer_1" xmlns="http://www.w3.org/2000/svg" xmlns:xlink="http://www.w3.org/1999/xlink" x="0px" y="0px"
	 viewBox="0 0 50 50" enable-background="new 0 0 50 50" xml:space="preserve">
<g>
	<path fill="#FFFFFF" d="M25,46.3c11.8,0,21.3-9.6,21.3-21.3S36.8,3.7,25,3.7S3.7,13.2,3.7,25S13.2,46.3,25,46.3 M25,50
		C11.2,50,0,38.8,0,25C0,11.2,11.2,0,25,0c13.8,0,25,11.2,25,25C50,38.8,38.8,50,25,50L25,50L25,50z"/>
	<g>
		<path fill="#FFFFFF" d="M22.3,30.5c0-7.1,8.1-6,8.1-10.6c0-2.1-2.2-3.3-4.5-3.3c-2.7,0-4.9,1.4-5.2,4.8h-6.5
			c0.2-6.9,5.8-9.4,11.1-9.4c7.1,0,11.9,2.7,11.9,8.1c0,6.6-8.1,6.4-8.7,10.4H22.3z M21.9,32.8h6.7v6.3h-6.7V32.8z"/>
	</g>
</g>
</svg>
