<?xml version="1.0" encoding="utf-8"?>
<!-- Generator: Adobe Illustrator 15.1.0, SVG Export Plug-In . SVG Version: 6.00 Build 0)  -->
<!DOCTYPE svg PUBLIC "-//W3C//DTD SVG 1.1//EN" "http://www.w3.org/Graphics/SVG/1.1/DTD/svg11.dtd">
<svg version="1.1" id="Layer_1" xmlns="http://www.w3.org/2000/svg" xmlns:xlink="http://www.w3.org/1999/xlink" x="0px" y="0px"
	 width="317.77px" height="317.77px" viewBox="0 0 317.77 317.77" enable-background="new 0 0 317.77 317.77" xml:space="preserve">
<circle stroke="#FFFFFF" stroke-width="20" cx="158.885" cy="158.885" r="148.885" fill="transparent"/>
<g>
	<path fill="#FFFFFF" d="M118.645,71.139c10.059-6.708,22.914-10.06,38.004-10.06c19.561,0,36.327,4.471,49.183,13.972
		c12.853,9.501,19.56,23.474,19.56,41.917c0,11.178-2.793,20.677-8.382,28.503c-3.354,4.472-9.501,10.619-19.002,17.885
		l-9.502,7.265c-5.03,3.91-8.383,8.382-10.061,13.973c-1.118,3.351-1.677,8.382-1.677,15.648h-35.768
		c0.558-14.53,1.677-25.147,3.91-30.738c2.236-5.59,7.826-12.295,17.326-19.561l9.501-7.266c3.354-2.235,5.589-5.03,7.826-7.823
		c3.352-5.03,5.029-10.06,5.029-15.649c0-6.706-1.678-12.855-5.59-17.884c-3.911-5.588-11.179-8.383-21.238-8.383
		c-10.058,0-17.325,3.353-21.236,10.06c-4.472,6.707-6.148,13.973-6.148,20.678H92.378C93.495,99.085,102.437,81.759,118.645,71.139
		z M140.44,218.685h39.122v38.006H140.44V218.685L140.44,218.685z"/>
</g>
</svg>
