<?xml version="1.0" encoding="utf-8"?>
<!-- Generator: Adobe Illustrator 15.1.0, SVG Export Plug-In  -->
<!DOCTYPE svg PUBLIC "-//W3C//DTD SVG 1.1//EN" "http://www.w3.org/Graphics/SVG/1.1/DTD/svg11.dtd" [
	<!ENTITY ns_flows "http://ns.adobe.com/Flows/1.0/">
]>
<svg version="1.1"
	 xmlns="http://www.w3.org/2000/svg" xmlns:xlink="http://www.w3.org/1999/xlink" xmlns:a="http://ns.adobe.com/AdobeSVGViewerExtensions/3.0/"
	 x="0px" y="0px" width="136px" height="75px" viewBox="0 0 136 75" overflow="visible" enable-background="new 0 0 136 75"
	 xml:space="preserve">
<defs>
</defs>
<g>
	<defs>
		<rect id="SVGID_1_" x="0" width="135.949" height="74.771"/>
	</defs>
	<clipPath id="SVGID_2_">
		<use xlink:href="#SVGID_1_"  overflow="visible"/>
	</clipPath>
	<path clip-path="url(#SVGID_2_)" fill="#fff" d="M57.077,68.519h-0.002c-3.01,0-5.841-1.174-7.972-3.304l-1.307,1.307
		c2.48,2.48,5.775,3.846,9.279,3.846h0.003c3.505-0.001,6.802-1.366,9.282-3.848c1.404-1.404,2.408-3.053,3.041-4.808l-1.465-1.466
		c-0.5,1.82-1.456,3.539-2.883,4.967C62.922,67.344,60.089,68.518,57.077,68.519 M52.34,61.98l-1.307,1.307
		c1.665,1.666,3.853,2.499,6.043,2.498c2.189,0,4.38-0.832,6.048-2.498c1.499-1.499,2.318-3.42,2.469-5.383l-1.938-1.937
		c0.406,2.11-0.206,4.381-1.837,6.012C59.202,64.59,54.949,64.589,52.34,61.98 M71.36,63.67c-0.757,1.688-1.81,3.273-3.193,4.657
		c-2.963,2.963-6.9,4.595-11.088,4.595s-8.126-1.632-11.088-4.595l-1.306,1.307c3.31,3.312,7.713,5.137,12.394,5.137
		s9.083-1.824,12.395-5.137c1.373-1.373,2.457-2.924,3.278-4.573L71.36,63.67z M54.073,55.543c-0.747,1.319-0.573,3.021,0.554,4.147
		c1.352,1.356,3.549,1.356,4.903,0c1.354-1.354,1.354-3.548,0-4.9c-1.126-1.128-2.828-1.303-4.15-0.555l-2.332-2.331l11.843-11.842
		c-4.909-1.836-10.405-1.605-15.17,0.67L38.367,29.379l1.878-1.878l7.229,7.23L66.52,15.688L50.832,0L31.788,19.044l7.231,7.231
		l-3.184,3.183l-8.915-8.914c-1.236-1.237-3.237-1.237-4.473,0l-2.064,2.063c-1.236,1.237-1.236,3.239,0,4.474l8.915,8.916
		l-3.023,3.023l-7.23-7.231L0,50.833l15.687,15.686l19.044-19.041l-7.23-7.231l2.043-2.043l11.241,11.242
		c-2.475,4.864-2.778,10.55-0.887,15.609l11.844-11.842L54.073,55.543z"/>
	<path clip-path="url(#SVGID_2_)" fill="#fff" d="M113.692,61.98l-1.307,1.307c1.665,1.666,3.853,2.499,6.042,2.498
		c2.189,0,4.38-0.832,6.048-2.498c3.335-3.334,3.335-8.759,0-12.092l-1.306,1.307c2.612,2.613,2.612,6.866,0,9.478
		C120.553,64.59,116.301,64.589,113.692,61.98 M115.424,55.543c-0.747,1.319-0.572,3.021,0.555,4.147
		c1.352,1.355,3.549,1.355,4.902,0c1.354-1.355,1.354-3.548,0-4.9c-1.126-1.127-2.828-1.303-4.149-0.555l-2.332-2.331l11.843-11.842
		c-4.909-1.836-10.405-1.604-15.17,0.67L99.718,29.379l1.878-1.878l7.23,7.23l19.045-19.043L112.185,0L93.139,19.044l7.231,7.231
		l-3.183,3.183l-8.916-8.914c-1.236-1.237-3.237-1.237-4.474,0l-2.063,2.062c-1.236,1.238-1.236,3.24,0,4.474l8.915,8.916
		l-3.023,3.023l-7.229-7.231L61.352,50.833L77.04,66.518l19.043-19.041l-7.229-7.23l2.043-2.043l11.24,11.241
		c-2.475,4.864-2.777,10.551-0.887,15.609l11.844-11.842L115.424,55.543z M109.148,66.522c2.479,2.48,5.774,3.847,9.279,3.847h0.002
		c3.506-0.001,6.803-1.368,9.282-3.849c5.116-5.116,5.116-13.442,0.001-18.562l-1.309,1.307c4.396,4.398,4.396,11.553,0.001,15.948
		c-2.131,2.131-4.964,3.305-7.977,3.306h-0.001c-3.011,0-5.842-1.174-7.973-3.304L109.148,66.522z M130.824,44.847l-1.308,1.307
		c6.113,6.113,6.113,16.061,0.002,22.174c-2.964,2.963-6.9,4.595-11.089,4.595c-4.188,0-8.126-1.632-11.087-4.595l-1.307,1.307
		c3.31,3.312,7.713,5.137,12.394,5.137c4.682,0,9.083-1.824,12.396-5.137C137.658,62.801,137.658,51.681,130.824,44.847"/>
</g>
</svg>
