<?xml version="1.0" encoding="utf-8"?>
<!-- Generator: Adobe Illustrator 15.1.0, SVG Export Plug-In  -->
<!DOCTYPE svg PUBLIC "-//W3C//DTD SVG 1.1//EN" "http://www.w3.org/Graphics/SVG/1.1/DTD/svg11.dtd" [
	<!ENTITY ns_flows "http://ns.adobe.com/Flows/1.0/">
]>
<svg version="1.1"
	 xmlns="http://www.w3.org/2000/svg" xmlns:xlink="http://www.w3.org/1999/xlink" xmlns:a="http://ns.adobe.com/AdobeSVGViewerExtensions/3.0/"
	 x="0px" y="0px" width="75px" height="75px" viewBox="0 0 75 75" overflow="visible" enable-background="new 0 0 75 75"
	 xml:space="preserve">
<defs>
</defs>
<rect x="35.688" y="6.273" transform="matrix(0.7071 -0.7071 0.7071 0.7071 2.1161 39.841)" fill="#bac7da" width="26.932" height="22.185"/>
<rect x="3.9" y="38.062" transform="matrix(0.7072 -0.7071 0.7071 0.7072 -29.6694 26.6726)" fill="#bac7da" width="26.93" height="22.184"/>
<rect x="34.497" y="29.248" transform="matrix(0.7071 -0.7071 0.7071 0.7071 -16.7581 40.6857)" fill="#bac7da" width="12.479" height="22.65"/>
<path fill="#bac7da" d="M39.898,65.054c-2.582-6.904-1.093-14.982,4.457-20.535c5.555-5.554,13.629-7.039,20.536-4.455
	L39.898,65.054z"/>
<path fill="#bac7da" d="M35.841,29.464c1.235,1.236,1.235,3.237,0,4.473l-2.065,2.064c-1.235,1.237-3.238,1.237-4.474,0l-8.92-8.921
	c-1.236-1.235-1.236-3.237,0-4.474l2.064-2.062c1.236-1.238,3.237-1.238,4.474,0L35.841,29.464z"/>
<rect x="0.545" y="32.004" transform="matrix(0.7071 -0.7071 0.7071 0.7071 -13.3873 33.4229)" fill="#bac7da" width="66.208" height="1.734"/>
<path fill="#bac7da" d="M59.53,54.791c1.354,1.352,1.354,3.545,0,4.9c-1.354,1.355-3.552,1.355-4.902,0
	c-1.356-1.355-1.354-3.549,0-4.9C55.981,53.435,58.175,53.435,59.53,54.791"/>
<line fill="none" stroke="#bac7da" stroke-width="1.849" stroke-miterlimit="10" x1="57.078" y1="57.242" x2="47.887" y2="48.05"/>
<path fill="none" stroke="#bac7da" stroke-width="1.849" stroke-miterlimit="10" d="M62.47,51.848c2.979,2.979,2.979,7.806,0,10.785
	c-2.979,2.974-7.808,2.979-10.784,0"/>
<path fill="none" stroke="#bac7da" stroke-width="1.849" stroke-miterlimit="10" d="M65.706,48.612
	c4.766,4.769,4.765,12.491,0,17.255c-4.767,4.768-12.49,4.77-17.256,0.002"/>
<path fill="none" stroke="#bac7da" stroke-width="1.849" stroke-miterlimit="10" d="M68.818,45.5
	c6.485,6.485,6.483,16.997,0.001,23.479c-6.486,6.488-16.997,6.488-23.482,0"/>
</svg>
