<?xml version="1.0" encoding="utf-8"?>
<!-- Generator: Adobe Illustrator 15.1.0, SVG Export Plug-In  -->
<!DOCTYPE svg PUBLIC "-//W3C//DTD SVG 1.1//EN" "http://www.w3.org/Graphics/SVG/1.1/DTD/svg11.dtd" [
	<!ENTITY ns_flows "http://ns.adobe.com/Flows/1.0/">
]>
<svg version="1.1"
	 xmlns="http://www.w3.org/2000/svg" xmlns:xlink="http://www.w3.org/1999/xlink" xmlns:a="http://ns.adobe.com/AdobeSVGViewerExtensions/3.0/"
	 x="0px" y="0px" width="77px" height="72px" viewBox="0 0 77 72" overflow="visible" enable-background="new 0 0 77 72"
	 xml:space="preserve">
<defs>
</defs>
<path fill="#bac7da" d="M62.23,14.421l-2.383,7.006l1.025,0.758c1.074,0.796,2.086,1.686,3,2.643l0.886,0.925l6.649-3.273
	l5.195,10.551l-6.64,3.271l0.188,1.264c0.197,1.315,0.283,2.656,0.256,3.986l-0.026,1.279l7.015,2.387l-3.789,11.137l-7.004-2.383
	l-0.761,1.025c-0.785,1.063-1.675,2.072-2.644,3.005l-0.924,0.882l3.272,6.648l-10.551,5.194l-3.269-6.642l-1.265,0.19
	c-1.31,0.198-2.651,0.284-3.99,0.257l-1.28-0.028l-2.385,7.015l-11.135-3.787l2.385-7.01l-1.03-0.76
	c-1.058-0.78-2.069-1.671-3.003-2.642l-0.885-0.923l-6.646,3.273l-5.193-10.551l6.642-3.27l-0.192-1.264
	c-0.197-1.297-0.283-2.641-0.255-3.993l0.025-1.277l-7.011-2.385l3.788-11.137l7.009,2.384l0.759-1.028
	c0.788-1.067,1.675-2.077,2.637-2.999l0.924-0.886l-3.272-6.647l10.55-5.195l3.271,6.645l1.265-0.191
	c1.314-0.199,2.657-0.287,3.99-0.257l1.279,0.027l2.385-7.014L62.23,14.421z M42.295,54.731c4.815,1.638,10.015,0.669,13.913-2.591
	c2.955-2.471,4.77-5.947,5.109-9.787c0.342-3.839-0.832-7.58-3.304-10.533c-1.698-2.028-3.913-3.549-6.407-4.398
	c-4.815-1.637-10.017-0.67-13.912,2.589c-6.101,5.107-6.911,14.225-1.805,20.322C37.586,52.363,39.802,53.882,42.295,54.731"/>
<path fill="#bac7da" d="M15.802,0.287l-0.18,3.065l0.495,0.191c0.517,0.199,1.019,0.443,1.49,0.724l0.458,0.275l2.298-2.046
	l3.242,3.646L21.31,8.185l0.216,0.484c0.225,0.505,0.406,1.033,0.544,1.567l0.129,0.514l3.069,0.18l-0.286,4.874l-3.066-0.179
	l-0.191,0.494c-0.197,0.512-0.441,1.013-0.725,1.493l-0.272,0.455l2.042,2.297l-3.646,3.242l-2.041-2.296l-0.485,0.218
	c-0.502,0.224-1.029,0.405-1.568,0.542l-0.515,0.131l-0.179,3.068l-4.872-0.286l0.18-3.065l-0.496-0.192
	C8.639,21.531,8.135,21.287,7.656,21l-0.457-0.271l-2.297,2.043l-3.241-3.646l2.296-2.04L3.741,16.6
	c-0.222-0.499-0.404-1.025-0.543-1.568l-0.131-0.515L0,14.338l0.286-4.875l3.066,0.181l0.19-0.494
	c0.197-0.514,0.442-1.018,0.724-1.49l0.272-0.457L2.495,4.904l3.647-3.243l2.042,2.298l0.484-0.215
	C9.174,3.518,9.7,3.336,10.236,3.2l0.515-0.13L10.931,0L15.802,0.287z M12.277,18.61c2.107,0.124,4.081-0.837,5.279-2.57
	c0.91-1.316,1.252-2.908,0.964-4.48c-0.286-1.574-1.169-2.939-2.483-3.849c-0.904-0.623-1.958-0.987-3.049-1.051
	c-2.106-0.123-4.079,0.838-5.279,2.572c-1.876,2.716-1.194,6.451,1.521,8.326C10.133,18.183,11.186,18.546,12.277,18.61"/>
</svg>
