<?xml version="1.0" encoding="utf-8"?>
<!-- Generator: Adobe Illustrator 16.0.0, SVG Export Plug-In . SVG Version: 6.00 Build 0)  -->
<!DOCTYPE svg PUBLIC "-//W3C//DTD SVG 1.1//EN" "http://www.w3.org/Graphics/SVG/1.1/DTD/svg11.dtd">
<svg version="1.1" id="Layer_1" xmlns="http://www.w3.org/2000/svg" xmlns:xlink="http://www.w3.org/1999/xlink" x="0px" y="0px"
	 width="90px" height="89.436px" viewBox="110 0 90 89.436" enable-background="new 110 0 90 89.436" xml:space="preserve">
<g>
	<g>
		<path fill="#FFFFFF" d="M50.828,51.097c-2.97,3.25-8.016,3.479-11.267,0.508s-3.479-8.015-0.508-11.267L50.828,51.097z"/>
		<path fill="#FFFFFF" d="M44.036,44.959c0.438-0.48,1.185-0.514,1.665-0.076c0.48,0.439,0.515,1.185,0.076,1.667L44.036,44.959z"/>
	</g>
</g>
<g>
	<g>
		<path fill="#FFFFFF" d="M50.813,40.086c3.104,3.123,3.089,8.173-0.035,11.279c-3.123,3.104-8.172,3.088-11.278-0.035
			L50.813,40.086z"/>
		<path fill="#FFFFFF" d="M44.356,46.575c-0.459-0.461-0.455-1.209,0.004-1.667c0.462-0.458,1.209-0.456,1.668,0.005L44.356,46.575z
			"/>
	</g>
</g>
<path fill="#4C5269" d="M46.152,45.769h6.807c0,4.402-3.57,7.975-7.975,7.975c-4.404,0-7.974-3.57-7.974-7.975h6.805
	c0.021-0.455,0.293-0.84,0.685-1.019V32.625c-6.954,0.265-12.514,5.972-12.514,12.99c0,7.188,5.826,13.014,13.014,13.014
	c7.188,0,13.014-5.826,13.014-13.014c0-7.024-5.568-12.734-12.53-12.991v12.138C45.866,44.943,46.132,45.322,46.152,45.769z"/>
<path fill="#C51313" d="M44.5,10.443v0.029c0-0.011,0.005-0.02,0.006-0.029H44.5z"/>
<path fill="#C51313" d="M45.479,10.443c0,0.007,0.004,0.013,0.004,0.02v-0.02H45.479z"/>
<path fill="#FFFFFF" d="M43.72,7.246l-0.002-1.455l0.41-0.002l0.004,2.262c-0.737,0.242-1.34,0.785-1.656,1.484l5.03-0.008
	c-0.313-0.678-0.889-1.207-1.598-1.457l-0.004-2.283l0.379-0.002l0.002,1.455l3.832-0.006l-0.006-3.156l-3.832,0.006l0.002,1.455
	l-0.641,0.002l-0.002-1.793c0-0.25-0.202-0.451-0.451-0.451l-0.416,0.002c-0.249,0-0.449,0.201-0.449,0.451l0.003,1.793h-0.197
	h-0.41L43.716,4.09l-3.832,0.006l0.005,3.156L43.72,7.246z"/>
<path fill="#FFFFFF" d="M44.992,9.98c-0.262,0.002-0.472,0.208-0.486,0.463h0.974C45.464,10.186,45.254,9.98,44.992,9.98z"/>
<polygon fill="#FFFFFF" points="45.485,10.472 45.483,10.463 45.483,10.482 "/>
<path fill="#FFFFFF" d="M44.505,10.443c-0.001,0.01-0.006,0.019-0.006,0.029c0,0.273,0.222,0.494,0.494,0.494
	c0.269-0.002,0.485-0.218,0.49-0.484v-0.02c0-0.007-0.004-0.013-0.004-0.02H44.505z"/>
<path fill="#AEB6C2" d="M38.078,6.418V5.822c-6.106,1.059-11.742,3.499-16.585,6.979l0.418,0.421
	C26.639,9.842,32.131,7.465,38.078,6.418z"/>
<path fill="#AEB6C2" d="M4.612,45.615c0,22.27,18.118,40.387,40.388,40.387c22.27,0,40.389-18.117,40.389-40.387
	c-0.001-9.603-3.376-18.428-8.993-25.367l-0.388,0.455c5.494,6.824,8.791,15.488,8.791,24.912c0,21.943-17.854,39.799-39.799,39.799
	c-21.946,0-39.799-17.855-39.799-39.799c0-8.847,2.908-17.023,7.81-23.637l-0.418-0.425C7.585,28.278,4.612,36.603,4.612,45.615z"/>
<path fill="#AEB6C2" d="M51.381,5.732v0.596c5.694,0.922,10.981,3.063,15.6,6.134l0.385-0.451C62.64,8.855,57.22,6.663,51.381,5.732
	z"/>
<path fill="#FFFFFF" d="M43.805,45.82h2.357c0-0.018-0.009-0.033-0.01-0.051h-2.337C43.815,45.786,43.805,45.802,43.805,45.82z"/>
<rect x="56.551" y="15.09" transform="matrix(-0.7387 -0.6741 0.6741 -0.7387 77.2817 94.9286)" fill="#ACD038" width="0.982" height="34.789"/>
<rect x="32.031" y="15.589" transform="matrix(-0.7086 0.7056 -0.7056 -0.7086 78.8406 33.4079)" fill="#ACD038" width="0.981" height="34.789"/>
<path fill="#ACD038" d="M44.983,44.64c0.181,0,0.347,0.048,0.5,0.121V32.624V10.482c-0.005,0.267-0.221,0.482-0.49,0.484
	c-0.272,0-0.494-0.221-0.494-0.494v22.152V44.75C44.648,44.682,44.81,44.64,44.983,44.64z"/>
<path fill="#FFFFFF" d="M43.805,45.82c0-0.018,0.01-0.033,0.01-0.051H37.01c0,4.404,3.569,7.975,7.974,7.975
	c4.405,0,7.975-3.572,7.975-7.975h-6.807c0.001,0.018,0.01,0.033,0.01,0.051H43.805z"/>
<path fill="#FFFFFF" d="M43.815,45.769h2.337c-0.021-0.447-0.286-0.826-0.669-1.007v0.47H44.5V44.75
	C44.108,44.928,43.835,45.314,43.815,45.769z"/>
<path fill="#FFFFFF" d="M45.483,45.232v-0.47c-0.154-0.073-0.32-0.121-0.5-0.121c-0.173,0-0.335,0.042-0.483,0.109v0.482H45.483z"/>
<path fill="#FFFFFF" d="M19.239,18.317l-1.613-1.618l0.27-0.268l1.025,1.031l2.715-2.706l-2.229-2.234l-2.715,2.705l1.027,1.031
	l-0.455,0.453L16,15.44c-0.176-0.176-0.461-0.177-0.637-0.001l-0.295,0.294c-0.174,0.176-0.176,0.459,0,0.636l1.266,1.271
	l-0.139,0.139l0,0l-0.293,0.289l-1.023-1.028l-2.715,2.705l2.229,2.233l2.711-2.704l-1.025-1.03l0.289-0.29l1.6,1.603
	c-0.352,0.69-0.398,1.5-0.131,2.219l3.563-3.552C20.7,17.964,19.917,17.994,19.239,18.317z M20.631,21.015
	c0.191-0.192,0.193-0.505,0-0.696c-0.189-0.193-0.504-0.193-0.695-0.001c-0.193,0.192-0.193,0.506-0.002,0.696
	C20.125,21.207,20.44,21.209,20.631,21.015z"/>
<path fill="#FFFFFF" d="M71.053,18.511l1.538-1.689l0.28,0.256l-0.979,1.074l2.833,2.582l2.124-2.334l-2.832-2.582l-0.98,1.076
	l-0.475-0.432l1.209-1.324c0.168-0.184,0.154-0.469-0.03-0.637l-0.308-0.279c-0.184-0.166-0.467-0.154-0.635,0.029l-1.208,1.326
	l-0.146-0.133l0,0l-0.303-0.277l0.979-1.072l-2.832-2.582l-2.124,2.334l2.831,2.578l0.98-1.074l0.303,0.275l-1.523,1.674
	c-0.706-0.318-1.518-0.326-2.223-0.023l3.719,3.387C71.477,19.953,71.408,19.174,71.053,18.511z M68.425,20.033
	c0.201,0.182,0.514,0.168,0.695-0.035c0.185-0.197,0.169-0.512-0.032-0.693c-0.201-0.184-0.515-0.17-0.695,0.031
	C68.209,19.537,68.222,19.849,68.425,20.033z"/>
<text transform="matrix(1 0 0 1 795 512.0002)" font-family="'MyriadPro-Regular'" font-size="12">c51313</text>
<circle fill="#4C5269" cx="265" cy="45.683" r="13.014"/>
<rect x="264.5" y="10.511" fill="#E76D24" width="0.982" height="34.789"/>
<g>
	<g>
		<path fill="#FFFFFF" d="M265.908,8.139l-0.004-2.284l0.379-0.001l0.002,1.455l3.832-0.006l-0.006-3.156l-3.832,0.006l0.002,1.455
			l-0.641,0.002l-0.002-1.794c0-0.249-0.201-0.45-0.451-0.45l-0.416,0.001c-0.248,0.001-0.449,0.202-0.449,0.451l0.004,1.794h-0.197
			l0,0h-0.41l-0.002-1.454l-3.832,0.006l0.004,3.156l3.832-0.006l-0.002-1.455l0.41-0.001l0.004,2.262
			c-0.738,0.242-1.34,0.784-1.656,1.483l5.029-0.008C267.193,8.918,266.617,8.388,265.908,8.139z M264.994,11.035
			c0.271-0.001,0.492-0.222,0.49-0.494c0.002-0.271-0.221-0.492-0.492-0.491c-0.273,0.001-0.494,0.222-0.492,0.492
			C264.5,10.815,264.721,11.036,264.994,11.035z"/>
		<path fill="#AEB6C2" d="M271.381,5.801v0.597c18.922,3.062,33.418,19.512,33.418,39.286c0,21.943-17.854,39.799-39.799,39.799
			c-21.947,0-39.799-17.855-39.799-39.799c0-19.585,14.221-35.911,32.877-39.196V5.89c-18.982,3.292-33.467,19.882-33.467,39.792
			c0,22.27,18.119,40.387,40.389,40.387s40.389-18.117,40.389-40.387C305.387,25.584,290.629,8.869,271.381,5.801z"/>
	</g>
</g>
<g>
	<g>
		<path fill="#FFFFFF" d="M272.959,45.837c0,4.402-3.57,7.975-7.975,7.975s-7.975-3.57-7.975-7.975H272.959z"/>
		<path fill="#FFFFFF" d="M263.805,45.888c0-0.65,0.529-1.179,1.178-1.179c0.65,0,1.18,0.529,1.18,1.179H263.805z"/>
	</g>
</g>
<g>
	<circle fill="#4C5269" cx="375" cy="45.683" r="13.014"/>
	<rect x="374.5" y="10.511" fill="#C51313" width="0.982" height="34.789"/>
	<path fill="#FFFFFF" d="M375.908,8.139l-0.004-2.284l0.379-0.001l0.002,1.455l3.832-0.006l-0.006-3.156l-3.832,0.006l0.002,1.455
		l-0.641,0.002l-0.002-1.794c0-0.249-0.201-0.449-0.451-0.449l-0.416,0.001c-0.248,0.001-0.448,0.201-0.448,0.45l0.003,1.794h-0.197
		l0,0h-0.41l-0.002-1.453l-3.832,0.006l0.006,3.155l3.83-0.006l-0.002-1.455l0.41-0.001l0.004,2.263
		c-0.736,0.241-1.34,0.783-1.656,1.482l5.03-0.008C377.193,8.918,376.617,8.388,375.908,8.139z M374.994,11.035
		c0.271-0.001,0.492-0.223,0.49-0.494c0.002-0.271-0.221-0.492-0.492-0.491s-0.494,0.222-0.492,0.492
		C374.5,10.815,374.721,11.036,374.994,11.035z"/>
	
		<rect x="369.003" y="11.329" transform="matrix(-0.9512 0.3085 -0.3085 -0.9512 729.831 -57.9275)" fill="#C51313" width="0.981" height="34.789"/>
	<path fill="#FFFFFF" d="M364.259,9.64l-0.711-2.171l0.361-0.118l0.451,1.384l3.643-1.19l-0.98-3l-3.644,1.19l0.452,1.384
		l-0.608,0.199l-0.557-1.705c-0.077-0.237-0.33-0.365-0.568-0.288l-0.395,0.13c-0.235,0.077-0.364,0.33-0.287,0.566l0.557,1.705
		l-0.188,0.061l0,0l-0.391,0.127l-0.45-1.381l-3.643,1.189l0.98,2.999l3.641-1.189l-0.451-1.384l0.39-0.127l0.703,2.15
		c-0.627,0.457-1.032,1.159-1.118,1.922l4.782-1.562C365.721,9.985,365.01,9.658,364.259,9.64z M364.284,12.677
		c0.258-0.084,0.399-0.363,0.313-0.621c-0.082-0.258-0.362-0.399-0.62-0.314c-0.258,0.084-0.401,0.363-0.315,0.619
		C363.746,12.62,364.024,12.763,364.284,12.677z"/>
	
		<rect x="379.842" y="11.256" transform="matrix(-0.9562 -0.2928 0.2928 -0.9562 735.6031 167.4145)" fill="#C51313" width="0.98" height="34.788"/>
	<path fill="#FFFFFF" d="M386.988,10.015l0.662-2.188l0.365,0.111l-0.424,1.393l3.665,1.114l0.92-3.02l-3.669-1.114l-0.424,1.392
		l-0.613-0.186l0.523-1.716c0.072-0.238-0.061-0.488-0.3-0.562l-0.398-0.12c-0.238-0.072-0.487,0.061-0.56,0.299l-0.522,1.717
		l-0.188-0.059l0,0l-0.394-0.119l0.425-1.39l-3.668-1.116l-0.917,3.02l3.666,1.114l0.425-1.392l0.391,0.119l-0.657,2.164
		c-0.776,0.016-1.51,0.357-2.019,0.934l4.813,1.463C387.989,11.136,387.594,10.46,386.988,10.015z M385.269,12.518
		c0.258,0.077,0.535-0.069,0.612-0.329c0.079-0.26-0.069-0.535-0.328-0.615c-0.259-0.077-0.536,0.068-0.614,0.328
		C384.859,12.161,385.007,12.439,385.269,12.518z"/>
	<g>
		<g>
			<path fill="#FFFFFF" d="M382.959,45.837c0,4.402-3.57,7.975-7.975,7.975s-7.975-3.569-7.975-7.975H382.959z"/>
			<path fill="#FFFFFF" d="M373.805,45.888c0-0.65,0.528-1.179,1.178-1.179c0.65,0,1.18,0.528,1.18,1.179H373.805z"/>
		</g>
	</g>
	<path fill="#AEB6C2" d="M392.413,9.258l-0.175,0.569c13.334,6.437,22.561,20.085,22.561,35.856
		c0,21.943-17.854,39.799-39.799,39.799s-39.799-17.854-39.799-39.799c0-15.622,9.053-29.163,22.183-35.673l-0.192-0.563
		c-13.361,6.594-22.58,20.354-22.58,36.234c0,22.27,18.119,40.387,40.389,40.387s40.389-18.116,40.389-40.387
		C415.387,29.647,405.987,15.773,392.413,9.258z"/>
</g>
<circle fill="#4C5269" cx="375" cy="45.683" r="13.014"/>
<rect x="374.5" y="10.511" fill="#C51313" width="0.982" height="34.789"/>
<path fill="#FFFFFF" d="M375.908,8.139l-0.004-2.284l0.379-0.001l0.002,1.455l3.832-0.006l-0.006-3.156l-3.832,0.006l0.002,1.455
	l-0.641,0.002l-0.002-1.794c0-0.249-0.201-0.449-0.451-0.449l-0.416,0.001c-0.248,0.001-0.448,0.201-0.448,0.45l0.003,1.794h-0.197
	l0,0h-0.41l-0.002-1.453l-3.832,0.006l0.006,3.155l3.83-0.006l-0.002-1.455l0.41-0.001l0.004,2.263
	c-0.736,0.241-1.34,0.783-1.656,1.482l5.03-0.008C377.193,8.918,376.617,8.388,375.908,8.139z M374.994,11.035
	c0.271-0.001,0.492-0.223,0.49-0.494c0.002-0.271-0.221-0.492-0.492-0.491s-0.494,0.222-0.492,0.492
	C374.5,10.815,374.721,11.036,374.994,11.035z"/>
<rect x="369.003" y="11.329" transform="matrix(-0.9512 0.3085 -0.3085 -0.9512 729.831 -57.9275)" fill="#C51313" width="0.981" height="34.789"/>
<path fill="#FFFFFF" d="M364.259,9.64l-0.711-2.171l0.361-0.118l0.451,1.384l3.643-1.19l-0.98-3l-3.644,1.19l0.452,1.384
	l-0.608,0.199l-0.557-1.705c-0.077-0.237-0.33-0.365-0.568-0.288l-0.395,0.13c-0.235,0.077-0.364,0.33-0.287,0.566l0.557,1.705
	l-0.188,0.061l0,0l-0.391,0.127l-0.45-1.381l-3.643,1.189l0.98,2.999l3.641-1.189l-0.451-1.384l0.39-0.127l0.703,2.15
	c-0.627,0.457-1.032,1.159-1.118,1.922l4.782-1.562C365.721,9.985,365.01,9.658,364.259,9.64z M364.284,12.677
	c0.258-0.084,0.399-0.363,0.313-0.621c-0.082-0.258-0.362-0.399-0.62-0.314c-0.258,0.084-0.401,0.363-0.315,0.619
	C363.746,12.62,364.024,12.763,364.284,12.677z"/>
<rect x="379.842" y="11.256" transform="matrix(-0.9562 -0.2928 0.2928 -0.9562 735.6031 167.4145)" fill="#C51313" width="0.98" height="34.788"/>
<path fill="#FFFFFF" d="M386.988,10.015l0.662-2.188l0.365,0.111l-0.424,1.393l3.665,1.114l0.92-3.02l-3.669-1.114l-0.424,1.392
	l-0.613-0.186l0.523-1.716c0.072-0.238-0.061-0.488-0.3-0.562l-0.398-0.12c-0.238-0.072-0.487,0.061-0.56,0.299l-0.522,1.717
	l-0.188-0.059l0,0l-0.394-0.119l0.425-1.39l-3.668-1.116l-0.917,3.02l3.666,1.114l0.425-1.392l0.391,0.119l-0.657,2.164
	c-0.776,0.016-1.51,0.357-2.019,0.934l4.813,1.463C387.989,11.136,387.594,10.46,386.988,10.015z M385.269,12.518
	c0.258,0.077,0.535-0.069,0.612-0.329c0.079-0.26-0.069-0.535-0.328-0.615c-0.259-0.077-0.536,0.068-0.614,0.328
	C384.859,12.161,385.007,12.439,385.269,12.518z"/>
<g>
	<g>
		<path fill="#FFFFFF" d="M382.959,45.837c0,4.402-3.57,7.975-7.975,7.975s-7.975-3.569-7.975-7.975H382.959z"/>
		<path fill="#FFFFFF" d="M373.805,45.888c0-0.65,0.528-1.179,1.178-1.179c0.65,0,1.18,0.528,1.18,1.179H373.805z"/>
	</g>
</g>
<path fill="#AEB6C2" d="M392.413,9.258l-0.175,0.569c13.334,6.437,22.561,20.085,22.561,35.856
	c0,21.943-17.854,39.799-39.799,39.799s-39.799-17.854-39.799-39.799c0-15.622,9.053-29.163,22.183-35.673l-0.192-0.563
	c-13.361,6.594-22.58,20.354-22.58,36.234c0,22.27,18.119,40.387,40.389,40.387s40.389-18.116,40.389-40.387
	C415.387,29.647,405.987,15.773,392.413,9.258z"/>
<g>
	<circle fill="#4C5269" cx="485" cy="45.683" r="13.014"/>
	<rect x="484.5" y="10.511" fill="#E76D24" width="0.982" height="34.789"/>
	<path fill="#FFFFFF" d="M485.908,8.139l-0.004-2.284l0.379-0.001l0.002,1.455l3.832-0.006l-0.006-3.156l-3.832,0.006l0.002,1.455
		l-0.641,0.002l-0.002-1.794c0-0.249-0.201-0.449-0.451-0.449l-0.416,0.001c-0.248,0.001-0.448,0.201-0.448,0.45l0.003,1.794h-0.197
		l0,0h-0.41l-0.002-1.453l-3.832,0.006l0.006,3.155l3.83-0.006l-0.002-1.455l0.41-0.001l0.004,2.263
		c-0.736,0.241-1.34,0.783-1.656,1.482l5.03-0.008C487.193,8.918,486.617,8.388,485.908,8.139z M484.994,11.035
		c0.271-0.001,0.492-0.223,0.49-0.494c0.002-0.271-0.221-0.492-0.492-0.491s-0.494,0.222-0.492,0.492
		C484.5,10.815,484.721,11.036,484.994,11.035z"/>
	
		<rect x="479.003" y="11.329" transform="matrix(-0.9512 0.3085 -0.3085 -0.9512 944.4672 -91.8576)" fill="#E76D24" width="0.981" height="34.789"/>
	<path fill="#FFFFFF" d="M474.259,9.64l-0.711-2.171l0.361-0.118l0.451,1.384l3.643-1.19l-0.98-3l-3.644,1.19l0.452,1.384
		l-0.608,0.199l-0.557-1.705c-0.077-0.237-0.33-0.365-0.568-0.288l-0.395,0.13c-0.235,0.077-0.364,0.33-0.287,0.566l0.557,1.705
		l-0.188,0.061l0,0l-0.391,0.127l-0.45-1.381l-3.643,1.189l0.98,2.999l3.641-1.189l-0.451-1.384l0.39-0.127l0.703,2.15
		c-0.627,0.457-1.032,1.159-1.118,1.922l4.782-1.562C475.721,9.985,475.01,9.658,474.259,9.64z M474.284,12.677
		c0.258-0.084,0.399-0.363,0.313-0.621c-0.082-0.258-0.362-0.399-0.62-0.314c-0.258,0.084-0.401,0.363-0.315,0.619
		C473.746,12.62,474.024,12.763,474.284,12.677z"/>
	
		<rect x="489.842" y="11.256" transform="matrix(-0.9562 -0.2928 0.2928 -0.9562 950.7814 199.6253)" fill="#E76D24" width="0.98" height="34.788"/>
	<path fill="#FFFFFF" d="M496.988,10.015l0.662-2.188l0.365,0.111l-0.424,1.393l3.665,1.114l0.92-3.02l-3.669-1.114l-0.424,1.392
		l-0.613-0.186l0.523-1.716c0.072-0.238-0.061-0.488-0.3-0.562l-0.398-0.12c-0.238-0.072-0.487,0.061-0.56,0.299l-0.522,1.717
		l-0.188-0.059l0,0l-0.394-0.119l0.425-1.39l-3.668-1.116l-0.917,3.02l3.666,1.114l0.425-1.392l0.391,0.119l-0.657,2.164
		c-0.776,0.016-1.51,0.357-2.019,0.934l4.813,1.463C497.989,11.136,497.594,10.46,496.988,10.015z M495.269,12.518
		c0.258,0.077,0.535-0.069,0.612-0.329c0.079-0.26-0.069-0.535-0.328-0.615c-0.259-0.077-0.536,0.068-0.614,0.328
		C494.859,12.161,495.007,12.439,495.269,12.518z"/>
	<g>
		<g>
			<path fill="#FFFFFF" d="M492.959,45.837c0,4.402-3.57,7.975-7.975,7.975s-7.975-3.569-7.975-7.975H492.959z"/>
			<path fill="#FFFFFF" d="M483.805,45.888c0-0.65,0.528-1.179,1.178-1.179c0.65,0,1.18,0.528,1.18,1.179H483.805z"/>
		</g>
	</g>
	<path fill="#AEB6C2" d="M502.413,9.258l-0.175,0.569c13.334,6.437,22.561,20.085,22.561,35.856
		c0,21.943-17.854,39.799-39.799,39.799s-39.799-17.854-39.799-39.799c0-15.622,9.053-29.163,22.183-35.673l-0.192-0.563
		c-13.361,6.594-22.58,20.354-22.58,36.234c0,22.27,18.119,40.387,40.389,40.387s40.389-18.116,40.389-40.387
		C525.387,29.647,515.987,15.773,502.413,9.258z"/>
</g>
<circle fill="#4C5269" cx="155" cy="45.683" r="13.014"/>
<rect x="154.5" y="10.511" fill="#ACD038" width="0.982" height="34.789"/>
<path fill="#FFFFFF" d="M155.908,8.139l-0.004-2.284l0.379-0.001l0.002,1.455l3.832-0.006l-0.006-3.156l-3.832,0.006l0.002,1.455
	l-0.641,0.002l-0.002-1.794c0-0.249-0.201-0.449-0.451-0.449l-0.416,0.001c-0.248,0.001-0.448,0.201-0.448,0.45l0.003,1.794h-0.197
	l0,0h-0.41l-0.002-1.453l-3.832,0.006l0.006,3.155l3.83-0.006l-0.002-1.455l0.41-0.001l0.004,2.263
	c-0.736,0.241-1.34,0.783-1.656,1.482l5.03-0.008C157.193,8.918,156.617,8.388,155.908,8.139z M154.994,11.035
	c0.271-0.001,0.492-0.223,0.49-0.494c0.002-0.271-0.221-0.492-0.492-0.491s-0.494,0.222-0.492,0.492
	C154.5,10.815,154.721,11.036,154.994,11.035z"/>
<path fill="#AEB6C2" d="M174.386,10.291l-0.204,0.559c12.274,6.785,20.617,19.844,20.617,34.833
	c0,21.943-17.854,39.799-39.799,39.799s-39.799-17.854-39.799-39.799c0-15.015,8.375-28.089,20.684-34.864l-0.204-0.559
	c-12.534,6.863-21.069,20.152-21.069,35.422c0,22.27,18.119,40.387,40.389,40.387s40.389-18.116,40.389-40.387
	C195.387,30.439,186.885,17.163,174.386,10.291z"/>
<rect x="149.415" y="11.274" transform="matrix(-0.9563 0.2923 -0.2923 -0.9563 301.645 12.2723)" fill="#ACD038" width="0.982" height="34.789"/>
<path fill="#FFFFFF" d="M145.004,9.497l-0.672-2.183l0.362-0.112l0.427,1.391l3.663-1.126l-0.928-3.017l-3.663,1.126l0.427,1.391
	l-0.611,0.189l-0.526-1.715c-0.073-0.238-0.324-0.371-0.563-0.298l-0.397,0.123c-0.236,0.073-0.37,0.323-0.297,0.562l0.527,1.715
	l-0.188,0.058l0,0l-0.393,0.12l-0.427-1.389l-3.663,1.126l0.929,3.016l3.661-1.125l-0.428-1.391l0.392-0.121l0.666,2.163
	c-0.634,0.446-1.053,1.141-1.15,1.902l4.808-1.478C146.461,9.867,145.755,9.528,145.004,9.497z M144.977,12.534
	c0.259-0.08,0.405-0.356,0.324-0.616c-0.077-0.26-0.354-0.406-0.614-0.326c-0.26,0.08-0.408,0.356-0.327,0.614
	C144.439,12.468,144.715,12.615,144.977,12.534z"/>
<rect x="159.586" y="11.268" transform="matrix(-0.9563 -0.2923 0.2923 -0.9563 304.7875 102.8593)" fill="#ACD038" width="0.982" height="34.789"/>
<path fill="#FFFFFF" d="M166.733,10.028l0.664-2.186l0.362,0.11l-0.423,1.392l3.666,1.115l0.917-3.02l-3.666-1.115l-0.424,1.392
	l-0.613-0.186l0.522-1.716c0.073-0.238-0.061-0.488-0.3-0.562l-0.398-0.121c-0.237-0.072-0.487,0.062-0.56,0.299l-0.522,1.717
	l-0.188-0.058l0,0l-0.392-0.12l0.423-1.39l-3.667-1.115l-0.916,3.019l3.664,1.114l0.424-1.392l0.393,0.119l-0.658,2.165
	c-0.774,0.016-1.511,0.357-2.018,0.934l4.813,1.463C167.734,11.149,167.339,10.473,166.733,10.028z M165.013,12.531
	c0.26,0.079,0.535-0.069,0.613-0.329c0.081-0.259-0.067-0.535-0.327-0.614c-0.26-0.078-0.537,0.067-0.614,0.327
	C164.604,12.175,164.751,12.451,165.013,12.531z"/>
<g>
	<g>
		<path fill="#FFFFFF" d="M162.959,45.837c0,4.402-3.57,7.975-7.975,7.975s-7.975-3.569-7.975-7.975H162.959z"/>
		<path fill="#FFFFFF" d="M153.805,45.888c0-0.65,0.528-1.179,1.178-1.179c0.65,0,1.18,0.528,1.18,1.179H153.805z"/>
	</g>
</g>
</svg>
