<?xml version="1.0" encoding="utf-8"?>
<!-- Generator: Adobe Illustrator 15.1.0, SVG Export Plug-In . SVG Version: 6.00 Build 0)  -->
<!DOCTYPE svg PUBLIC "-//W3C//DTD SVG 1.1//EN" "http://www.w3.org/Graphics/SVG/1.1/DTD/svg11.dtd">
<svg version="1.1" id="Layer_1" xmlns="http://www.w3.org/2000/svg" xmlns:xlink="http://www.w3.org/1999/xlink" x="0px" y="0px"
	 width="90px" height="89.436px" viewBox="205.063 418.943 90 89.436" enable-background="new 205.063 418.943 90 89.436"
	 xml:space="preserve">
<g>
	<circle fill="#4C5269" cx="250.063" cy="463.409" r="13.014"/>
	<rect x="249.562" y="428.237" fill="#C51313" width="0.984" height="34.788"/>
	<g>
		<g>
			<path fill="#FFFFFF" d="M250.971,425.865l-0.003-2.284l0.378-0.001l0.002,1.455l3.832-0.006l-0.005-3.156l-3.832,0.006
				l0.002,1.455l-0.641,0.002l-0.002-1.794c0-0.249-0.202-0.45-0.451-0.45l-0.416,0.001c-0.249,0.001-0.449,0.202-0.449,0.451
				l0.003,1.794h-0.197l0,0h-0.411l-0.002-1.454l-3.832,0.006l0.005,3.156l3.831-0.006l-0.002-1.455l0.411-0.001l0.004,2.262
				c-0.738,0.242-1.34,0.784-1.657,1.483l5.029-0.008C252.257,426.644,251.68,426.114,250.971,425.865z M250.056,428.761
				c0.273-0.001,0.493-0.222,0.492-0.494c0.001-0.272-0.221-0.493-0.494-0.492c-0.272,0.001-0.493,0.222-0.492,0.493
				C249.562,428.541,249.784,428.762,250.056,428.761z"/>
			<path fill="#AEB6C2" d="M256.443,423.526v0.597c18.923,3.062,33.419,19.512,33.419,39.285c0,21.945-17.854,39.799-39.8,39.799
				s-39.799-17.854-39.799-39.799c0-19.585,14.221-35.91,32.878-39.195v-0.597c-18.983,3.292-33.466,19.882-33.466,39.792
				c0,22.27,18.118,40.388,40.388,40.388c22.27,0,40.388-18.118,40.388-40.388C290.45,443.31,275.692,426.595,256.443,423.526z"/>
		</g>
	</g>
	<g>
		<g>
			<path fill="#FFFFFF" d="M258.021,463.562c0,4.404-3.57,7.975-7.974,7.975s-7.974-3.57-7.974-7.975H258.021z"/>
			<path fill="#FFFFFF" d="M248.868,463.614c0-0.65,0.528-1.179,1.178-1.179s1.178,0.528,1.178,1.179H248.868z"/>
		</g>
	</g>
</g>
</svg>
