<?xml version="1.0" encoding="utf-8"?>
<!-- Generator: Adobe Illustrator 15.1.0, SVG Export Plug-In . SVG Version: 6.00 Build 0)  -->
<!DOCTYPE svg PUBLIC "-//W3C//DTD SVG 1.1//EN" "http://www.w3.org/Graphics/SVG/1.1/DTD/svg11.dtd">
<svg version="1.1" id="Layer_1" xmlns="http://www.w3.org/2000/svg" xmlns:xlink="http://www.w3.org/1999/xlink" x="0px" y="0px"
	 width="38.755px" height="87.552px" viewBox="286.74 351.799 38.755 87.552" enable-background="new 286.74 351.799 38.755 87.552"
	 xml:space="preserve">
<path fill="#2A3047" d="M302.814,352.483c0,0-16.292,7.578-15.862,31.836v50.924c0,0,0.734,2.752,13.658,3.315
	c0,0,19.877,2.036,23.711-2.825l0.211-0.758l0.761-53.614c0,0-1.259-14.429-7.068-20.385c0,0-4.739-7.873-9.422-8.81
	L302.814,352.483z"/>
<g>
	<path fill="#AEB6C2" d="M306.117,439.351c-12.578,0-17.093-1.602-18.667-2.946c-0.68-0.581-0.711-1.038-0.71-1.125v-51.822
		c0-12.491,4.315-20.411,7.934-24.856c3.94-4.839,7.836-6.684,8-6.76l0.09-0.042h6.706l0.09,0.042c0.163,0.076,4.06,1.921,8,6.76
		c3.619,4.445,7.934,12.366,7.934,24.856v51.813c0.008,0.127-0.015,0.562-0.592,1.104
		C323.458,437.732,319.025,439.351,306.117,439.351z M302.975,352.48c-0.591,0.299-4.153,2.21-7.671,6.545
		c-3.541,4.363-7.762,12.143-7.762,24.432v51.825c0.003,0.022,0.512,3.388,18.575,3.388c13.052,0,16.948-1.679,18.108-2.679
		c0.467-0.402,0.467-0.686,0.467-0.688l-0.001-51.845c0-12.29-4.221-20.07-7.762-24.432c-3.519-4.335-7.079-6.247-7.67-6.545
		H302.975L302.975,352.48z"/>
</g>
</svg>
