<?xml version="1.0" encoding="utf-8"?>
<!-- Generator: Adobe Illustrator 17.1.0, SVG Export Plug-In . SVG Version: 6.00 Build 0)  -->
<!DOCTYPE svg PUBLIC "-//W3C//DTD SVG 1.1//EN" "http://www.w3.org/Graphics/SVG/1.1/DTD/svg11.dtd">
<svg version="1.1" id="Layer_1" xmlns="http://www.w3.org/2000/svg" xmlns:xlink="http://www.w3.org/1999/xlink" x="0px" y="0px"
	 viewBox="0 0 104 90" enable-background="new 0 0 104 90" xml:space="preserve">
<line fill="none" x1="24.2" y1="20.7" x2="51.4" y2="20.7"/>
<rect x="26.8" y="20.4" fill="#FFFFFF" width="57.9" height="0.6"/>
<line fill="none" x1="71.6" y1="46.2" x2="71.6" y2="37.5"/>
<rect x="75.3" y="42.8" fill="#FFFFFF" width="0.6" height="29.1"/>
<line fill="none" x1="25.5" y1="71.7" x2="75.6" y2="71.7"/>
<rect x="25.5" y="71.4" fill="#FFFFFF" width="50.1" height="0.6"/>
<path fill="#FFFFFF" d="M18.5,71.7"/>
<rect x="25.5" y="71.4" fill="#FFFFFF" width="0.6" height="8.8"/>
<rect x="87" y="30.9" fill="#FFFFFF" width="0.6" height="49.2"/>
<text transform="matrix(0 -1 1 0 96.5498 75.7451)" fill="#FFFFFF" font-family="'Helvetica-Light'" font-size="3.3736">IP AutoSwitch</text>
<text transform="matrix(1 0 0 1 46.0116 68.4083)" fill="#FFFFFF" font-family="'Helvetica-Light'" font-size="3.3736">IP AutoSwitch</text>
<g>
	<g>
		<g id="XMLID_262_">
			<g>
				<rect x="43.5" y="71.1" fill="#3C4855" width="1.8" height="1.4"/>
			</g>
			<g>
				<rect x="43.5" y="71.1" fill="none" stroke="#FFFFFF" stroke-width="0.25" stroke-miterlimit="10" width="1.8" height="1.4"/>
			</g>
		</g>
		<g>
			<polygon fill="#FFFFFF" points="45,72.4 45.2,71.1 45.2,71.1 			"/>
		</g>
		<g>
			<polygon fill="#FFFFFF" points="44.5,72.5 44.7,71.1 44.7,71.1 			"/>
		</g>
		<g>
			<polygon fill="#FFFFFF" points="44.1,72.5 44.3,71.1 44.3,71.1 			"/>
		</g>
		<g>
			<polygon fill="#FFFFFF" points="43.7,72.5 43.9,71.1 43.9,71.1 			"/>
		</g>
		<g>
			<polygon fill="#FFFFFF" points="45.3,72.6 45.3,71.1 45.3,71.1 			"/>
		</g>
		<path fill="#3C4855" stroke="#FFFFFF" stroke-width="0.25" stroke-miterlimit="10" d="M42.8,72.9c0,0.1,0.1,0.2,0.2,0.2h0.3
			c0.1,0,0.2-0.1,0.2-0.2v-2.2c0-0.1-0.1-0.2-0.2-0.2H43c-0.1,0-0.2,0.1-0.2,0.2C42.8,70.7,42.8,72.9,42.8,72.9z"/>
	</g>
	<g>
		<g id="XMLID_261_">
			<g>
				<rect x="31.2" y="71.1" fill="#3C4855" width="1.8" height="1.4"/>
			</g>
			<g>
				<rect x="31.2" y="71.1" fill="none" stroke="#FFFFFF" stroke-width="0.25" stroke-miterlimit="10" width="1.8" height="1.4"/>
			</g>
		</g>
		<g>
			<polygon fill="#FFFFFF" points="31.6,72.5 31.4,71.1 31.4,71.1 			"/>
		</g>
		<g>
			<polygon fill="#FFFFFF" points="32,72.5 31.8,71.1 31.8,71.1 			"/>
		</g>
		<g>
			<polygon fill="#FFFFFF" points="32.4,72.5 32.2,71.1 32.2,71.1 			"/>
		</g>
		<g>
			<polygon fill="#FFFFFF" points="32.8,72.5 32.6,71.2 32.6,71.2 			"/>
		</g>
		<g>
			<polygon fill="#FFFFFF" points="31.3,72.6 31.3,71.1 31.3,71.1 			"/>
		</g>
		<path fill="#3C4855" stroke="#FFFFFF" stroke-width="0.25" stroke-miterlimit="10" d="M33.7,72.9c0,0.1-0.1,0.2-0.2,0.2h-0.3
			c-0.1,0-0.2-0.1-0.2-0.2v-2.2c0-0.1,0.1-0.2,0.2-0.2h0.3c0.1,0,0.2,0.1,0.2,0.2V72.9z"/>
	</g>
	<path fill="#3C4855" stroke="#FFFFFF" stroke-width="0.25" stroke-miterlimit="10" d="M33.6,68.4l-0.5,0.3h-0.2
		c0,0-0.1,0.4-0.1,0.7s0.1,0.7,0.1,0.7h0.2l0.6,0.4L33.6,68.4z"/>
	<rect x="33.8" y="67.4" fill="#3C4855" stroke="#FFFFFF" stroke-width="0.25" stroke-miterlimit="10" width="8.9" height="6.5"/>
	<path fill="#3C4855" stroke="#FFFFFF" stroke-width="0.25" stroke-miterlimit="10" d="M33.9,74C34,74,34,74,33.9,74l0.1-6.6
		c0-0.1-0.1-0.1-0.1-0.1h-0.3c-0.1,0-0.1,0.1-0.1,0.1v6.5c0,0.1,0.1,0.1,0.1,0.1H33.9z"/>
	<path fill="#3C4855" stroke="#FFFFFF" stroke-width="0.25" stroke-miterlimit="10" d="M43,74C43.1,74,43.1,73.9,43,74l0.1-6.6
		c0-0.1-0.1-0.1-0.1-0.1h-0.3c-0.1,0-0.1,0.1-0.1,0.1v6.5c0,0.1,0.1,0.1,0.1,0.1H43z"/>
</g>
<g>
	<g>
		<g>
			<g id="XMLID_305_">
				<g>
					<rect x="86.6" y="39.5" fill="#3C4855" width="1.2" height="1.5"/>
				</g>
				<g>
					<rect x="86.6" y="39.5" fill="none" stroke="#FFFFFF" stroke-width="0.25" stroke-miterlimit="10" width="1.2" height="1.5"/>
				</g>
			</g>
			<g>
				<polygon fill="#FFFFFF" points="87.7,39.7 86.6,39.6 86.6,39.6 				"/>
			</g>
			<g>
				<polygon fill="#FFFFFF" points="87.7,40.1 86.6,40 86.6,40 				"/>
			</g>
			<g>
				<polygon fill="#FFFFFF" points="87.7,40.5 86.6,40.3 86.6,40.3 				"/>
			</g>
			<g>
				<polygon fill="#FFFFFF" points="87.7,40.8 86.6,40.7 86.6,40.7 				"/>
			</g>
			<g>
				<polygon fill="#FFFFFF" points="87.9,39.5 86.6,39.5 86.6,39.5 				"/>
			</g>
			<path fill="#3C4855" stroke="#FFFFFF" stroke-width="0.25" stroke-miterlimit="10" d="M88.1,41.5c0.1,0,0.2-0.1,0.2-0.2V41
				c0-0.1-0.1-0.2-0.2-0.2h-1.9c-0.1,0-0.2,0.1-0.2,0.2v0.3c0,0.1,0.1,0.2,0.2,0.2H88.1z"/>
		</g>
		<g>
			<g id="XMLID_304_">
				<g>
					<rect x="82.7" y="39.5" fill="#3C4855" width="1.2" height="1.5"/>
				</g>
				<g>
					<rect x="82.7" y="39.5" fill="none" stroke="#FFFFFF" stroke-width="0.25" stroke-miterlimit="10" width="1.2" height="1.5"/>
				</g>
			</g>
			<g>
				<polygon fill="#FFFFFF" points="83.8,39.7 82.7,39.6 82.7,39.6 				"/>
			</g>
			<g>
				<polygon fill="#FFFFFF" points="83.8,40.1 82.7,40 82.7,40 				"/>
			</g>
			<g>
				<polygon fill="#FFFFFF" points="83.8,40.5 82.7,40.3 82.7,40.3 				"/>
			</g>
			<g>
				<polygon fill="#FFFFFF" points="83.8,40.8 82.7,40.7 82.7,40.7 				"/>
			</g>
			<g>
				<polygon fill="#FFFFFF" points="83.9,39.5 82.6,39.5 82.6,39.5 				"/>
			</g>
			<path fill="#3C4855" stroke="#FFFFFF" stroke-width="0.25" stroke-miterlimit="10" d="M84.2,41.5c0.1,0,0.2-0.1,0.2-0.2V41
				c0-0.1-0.1-0.2-0.2-0.2h-1.9c-0.1,0-0.2,0.1-0.2,0.2v0.3c0,0.1,0.1,0.2,0.2,0.2H84.2z"/>
		</g>
		<g>
			<g id="XMLID_303_">
				<g>
					<rect x="78.8" y="39.5" fill="#3C4855" width="1.2" height="1.5"/>
				</g>
				<g>
					<rect x="78.8" y="39.5" fill="none" stroke="#FFFFFF" stroke-width="0.25" stroke-miterlimit="10" width="1.2" height="1.5"/>
				</g>
			</g>
			<g>
				<polygon fill="#FFFFFF" points="79.9,39.7 78.8,39.6 78.8,39.6 				"/>
			</g>
			<g>
				<polygon fill="#FFFFFF" points="79.9,40.1 78.8,40 78.8,40 				"/>
			</g>
			<g>
				<polygon fill="#FFFFFF" points="79.9,40.5 78.8,40.3 78.8,40.3 				"/>
			</g>
			<g>
				<polygon fill="#FFFFFF" points="79.9,40.8 78.8,40.7 78.8,40.7 				"/>
			</g>
			<g>
				<polygon fill="#FFFFFF" points="80,39.5 78.7,39.5 78.7,39.5 				"/>
			</g>
			<path fill="#3C4855" stroke="#FFFFFF" stroke-width="0.25" stroke-miterlimit="10" d="M80.3,41.5c0.1,0,0.2-0.1,0.2-0.2V41
				c0-0.1-0.1-0.2-0.2-0.2h-1.9c-0.1,0-0.2,0.1-0.2,0.2v0.3c0,0.1,0.1,0.2,0.2,0.2H80.3z"/>
		</g>
		<g>
			<g id="XMLID_296_">
				<g>
					<rect x="74.9" y="39.5" fill="#3C4855" width="1.2" height="1.5"/>
				</g>
				<g>
					<rect x="74.9" y="39.5" fill="none" stroke="#FFFFFF" stroke-width="0.25" stroke-miterlimit="10" width="1.2" height="1.5"/>
				</g>
			</g>
			<g>
				<polygon fill="#FFFFFF" points="76,39.7 74.9,39.6 74.9,39.6 				"/>
			</g>
			<g>
				<polygon fill="#FFFFFF" points="76,40.1 74.9,40 74.9,40 				"/>
			</g>
			<g>
				<polygon fill="#FFFFFF" points="76,40.5 74.9,40.3 74.9,40.3 				"/>
			</g>
			<g>
				<polygon fill="#FFFFFF" points="76,40.8 74.9,40.7 74.9,40.7 				"/>
			</g>
			<g>
				<polygon fill="#FFFFFF" points="76.1,39.5 74.8,39.5 74.8,39.5 				"/>
			</g>
			<path fill="#3C4855" stroke="#FFFFFF" stroke-width="0.25" stroke-miterlimit="10" d="M76.4,41.5c0.1,0,0.2-0.1,0.2-0.2V41
				c0-0.1-0.1-0.2-0.2-0.2h-1.9c-0.1,0-0.2,0.1-0.2,0.2v0.3c0,0.1,0.1,0.2,0.2,0.2H76.4z"/>
		</g>
		<g>
			<g id="XMLID_295_">
				<g>
					<rect x="71" y="39.5" fill="#3C4855" width="1.2" height="1.5"/>
				</g>
				<g>
					<rect x="71" y="39.5" fill="none" stroke="#FFFFFF" stroke-width="0.25" stroke-miterlimit="10" width="1.2" height="1.5"/>
				</g>
			</g>
			<g>
				<polygon fill="#FFFFFF" points="72.1,39.7 71,39.6 71,39.6 				"/>
			</g>
			<g>
				<polygon fill="#FFFFFF" points="72.1,40.1 71,40 71,40 				"/>
			</g>
			<g>
				<polygon fill="#FFFFFF" points="72.1,40.5 71,40.3 71,40.3 				"/>
			</g>
			<g>
				<polygon fill="#FFFFFF" points="72.1,40.8 71,40.7 71,40.7 				"/>
			</g>
			<g>
				<polygon fill="#FFFFFF" points="72.2,39.5 70.9,39.5 70.9,39.5 				"/>
			</g>
			<path fill="#3C4855" stroke="#FFFFFF" stroke-width="0.25" stroke-miterlimit="10" d="M72.5,41.5c0.1,0,0.2-0.1,0.2-0.2V41
				c0-0.1-0.1-0.2-0.2-0.2h-1.9c-0.1,0-0.2,0.1-0.2,0.2v0.3c0,0.1,0.1,0.2,0.2,0.2H72.5z"/>
		</g>
		<g>
			<g id="XMLID_294_">
				<g>
					<rect x="67" y="39.5" fill="#3C4855" width="1.2" height="1.5"/>
				</g>
				<g>
					<rect x="67" y="39.5" fill="none" stroke="#FFFFFF" stroke-width="0.25" stroke-miterlimit="10" width="1.2" height="1.5"/>
				</g>
			</g>
			<g>
				<polygon fill="#FFFFFF" points="68.1,39.8 67.1,39.6 67.1,39.6 				"/>
			</g>
			<g>
				<polygon fill="#FFFFFF" points="68.1,40.1 67.1,40 67.1,40 				"/>
			</g>
			<g>
				<polygon fill="#FFFFFF" points="68.1,40.5 67.1,40.3 67.1,40.3 				"/>
			</g>
			<g>
				<polygon fill="#FFFFFF" points="68.1,40.8 67.1,40.7 67.1,40.7 				"/>
			</g>
			<g>
				<polygon fill="#FFFFFF" points="68.2,39.5 66.9,39.5 66.9,39.5 				"/>
			</g>
			<path fill="#3C4855" stroke="#FFFFFF" stroke-width="0.25" stroke-miterlimit="10" d="M68.5,41.5c0.1,0,0.2-0.1,0.2-0.2V41
				c0-0.1-0.1-0.2-0.2-0.2h-1.9c-0.1,0-0.2,0.1-0.2,0.2v0.3c0,0.1,0.1,0.2,0.2,0.2H68.5z"/>
		</g>
		<g>
			<g id="XMLID_293_">
				<g>
					<rect x="63.1" y="39.5" fill="#3C4855" width="1.2" height="1.5"/>
				</g>
				<g>
					<rect x="63.1" y="39.5" fill="none" stroke="#FFFFFF" stroke-width="0.25" stroke-miterlimit="10" width="1.2" height="1.5"/>
				</g>
			</g>
			<g>
				<polygon fill="#FFFFFF" points="64.3,39.8 63.2,39.6 63.2,39.6 				"/>
			</g>
			<g>
				<polygon fill="#FFFFFF" points="64.3,40.1 63.2,40 63.2,40 				"/>
			</g>
			<g>
				<polygon fill="#FFFFFF" points="64.3,40.5 63.2,40.3 63.2,40.3 				"/>
			</g>
			<g>
				<polygon fill="#FFFFFF" points="64.3,40.8 63.2,40.7 63.2,40.7 				"/>
			</g>
			<g>
				<polygon fill="#FFFFFF" points="64.4,39.5 63.1,39.5 63.1,39.5 				"/>
			</g>
			<path fill="#3C4855" stroke="#FFFFFF" stroke-width="0.25" stroke-miterlimit="10" d="M64.6,41.5c0.1,0,0.2-0.1,0.2-0.2V41
				c0-0.1-0.1-0.2-0.2-0.2h-1.9c-0.1,0-0.2,0.1-0.2,0.2v0.3c0,0.1,0.1,0.2,0.2,0.2H64.6z"/>
		</g>
		<g>
			<g id="XMLID_292_">
				<g>
					<rect x="59.2" y="39.5" fill="#3C4855" width="1.2" height="1.5"/>
				</g>
				<g>
					<rect x="59.2" y="39.5" fill="none" stroke="#FFFFFF" stroke-width="0.25" stroke-miterlimit="10" width="1.2" height="1.5"/>
				</g>
			</g>
			<g>
				<polygon fill="#FFFFFF" points="60.4,39.8 59.3,39.6 59.3,39.6 				"/>
			</g>
			<g>
				<polygon fill="#FFFFFF" points="60.4,40.1 59.3,40 59.3,40 				"/>
			</g>
			<g>
				<polygon fill="#FFFFFF" points="60.4,40.5 59.3,40.3 59.3,40.3 				"/>
			</g>
			<g>
				<polygon fill="#FFFFFF" points="60.4,40.8 59.3,40.7 59.3,40.7 				"/>
			</g>
			<g>
				<polygon fill="#FFFFFF" points="60.5,39.5 59.2,39.5 59.2,39.5 				"/>
			</g>
			<path fill="#3C4855" stroke="#FFFFFF" stroke-width="0.25" stroke-miterlimit="10" d="M60.7,41.5c0.1,0,0.2-0.1,0.2-0.2V41
				c0-0.1-0.1-0.2-0.2-0.2h-1.9c-0.1,0-0.2,0.1-0.2,0.2v0.3c0,0.1,0.1,0.2,0.2,0.2H60.7z"/>
		</g>
	</g>
	<g>
		<g>
			<g id="XMLID_291_">
				<g>
					<rect x="86.6" y="51.8" fill="#3C4855" width="1.2" height="1.5"/>
				</g>
				<g>
					<rect x="86.6" y="51.8" fill="none" stroke="#FFFFFF" stroke-width="0.25" stroke-miterlimit="10" width="1.2" height="1.5"/>
				</g>
			</g>
			<g>
				<polygon fill="#FFFFFF" points="87.7,53 86.6,53.1 86.6,53.1 				"/>
			</g>
			<g>
				<polygon fill="#FFFFFF" points="87.7,52.7 86.6,52.9 86.6,52.9 				"/>
			</g>
			<g>
				<polygon fill="#FFFFFF" points="87.7,52.3 86.6,52.4 86.6,52.4 				"/>
			</g>
			<g>
				<polygon fill="#FFFFFF" points="87.7,52 86.6,52.2 86.6,52.2 				"/>
			</g>
			<g>
				<polygon fill="#FFFFFF" points="87.9,53.3 86.6,53.3 86.6,53.3 				"/>
			</g>
			<path fill="#3C4855" stroke="#FFFFFF" stroke-width="0.25" stroke-miterlimit="10" d="M88.1,51.2c0.1,0,0.2,0.1,0.2,0.2v0.3
				c0,0.1-0.1,0.2-0.2,0.2h-1.9c-0.1,0-0.2-0.1-0.2-0.2v-0.3c0-0.1,0.1-0.2,0.2-0.2H88.1z"/>
		</g>
		<g>
			<g id="XMLID_290_">
				<g>
					<rect x="82.7" y="51.8" fill="#3C4855" width="1.2" height="1.5"/>
				</g>
				<g>
					<rect x="82.7" y="51.8" fill="none" stroke="#FFFFFF" stroke-width="0.25" stroke-miterlimit="10" width="1.2" height="1.5"/>
				</g>
			</g>
			<g>
				<polygon fill="#FFFFFF" points="83.8,53 82.7,53.1 82.7,53.1 				"/>
			</g>
			<g>
				<polygon fill="#FFFFFF" points="83.8,52.7 82.7,52.9 82.7,52.9 				"/>
			</g>
			<g>
				<polygon fill="#FFFFFF" points="83.8,52.3 82.7,52.4 82.7,52.4 				"/>
			</g>
			<g>
				<polygon fill="#FFFFFF" points="83.8,52 82.7,52.2 82.7,52.2 				"/>
			</g>
			<g>
				<polygon fill="#FFFFFF" points="83.9,53.3 82.6,53.3 82.6,53.3 				"/>
			</g>
			<path fill="#3C4855" stroke="#FFFFFF" stroke-width="0.25" stroke-miterlimit="10" d="M84.2,51.2c0.1,0,0.2,0.1,0.2,0.2v0.3
				c0,0.1-0.1,0.2-0.2,0.2h-1.9c-0.1,0-0.2-0.1-0.2-0.2v-0.3c0-0.1,0.1-0.2,0.2-0.2H84.2z"/>
		</g>
		<g>
			<g id="XMLID_289_">
				<g>
					<rect x="78.8" y="51.8" fill="#3C4855" width="1.2" height="1.5"/>
				</g>
				<g>
					<rect x="78.8" y="51.8" fill="none" stroke="#FFFFFF" stroke-width="0.25" stroke-miterlimit="10" width="1.2" height="1.5"/>
				</g>
			</g>
			<g>
				<polygon fill="#FFFFFF" points="79.9,53 78.8,53.1 78.8,53.1 				"/>
			</g>
			<g>
				<polygon fill="#FFFFFF" points="79.9,52.7 78.8,52.9 78.8,52.9 				"/>
			</g>
			<g>
				<polygon fill="#FFFFFF" points="79.9,52.3 78.8,52.4 78.8,52.4 				"/>
			</g>
			<g>
				<polygon fill="#FFFFFF" points="79.9,52 78.8,52.2 78.8,52.2 				"/>
			</g>
			<g>
				<polygon fill="#FFFFFF" points="80,53.3 78.7,53.3 78.7,53.3 				"/>
			</g>
			<path fill="#3C4855" stroke="#FFFFFF" stroke-width="0.25" stroke-miterlimit="10" d="M80.3,51.2c0.1,0,0.2,0.1,0.2,0.2v0.3
				c0,0.1-0.1,0.2-0.2,0.2h-1.9c-0.1,0-0.2-0.1-0.2-0.2v-0.3c0-0.1,0.1-0.2,0.2-0.2H80.3z"/>
		</g>
		<g>
			<g id="XMLID_288_">
				<g>
					<rect x="74.9" y="51.8" fill="#3C4855" width="1.2" height="1.5"/>
				</g>
				<g>
					<rect x="74.9" y="51.8" fill="none" stroke="#FFFFFF" stroke-width="0.25" stroke-miterlimit="10" width="1.2" height="1.5"/>
				</g>
			</g>
			<g>
				<polygon fill="#FFFFFF" points="76,53 74.9,53.1 74.9,53.1 				"/>
			</g>
			<g>
				<polygon fill="#FFFFFF" points="76,52.7 74.9,52.9 74.9,52.9 				"/>
			</g>
			<g>
				<polygon fill="#FFFFFF" points="76,52.3 74.9,52.4 74.9,52.4 				"/>
			</g>
			<g>
				<polygon fill="#FFFFFF" points="76,52 74.9,52.2 74.9,52.2 				"/>
			</g>
			<g>
				<polygon fill="#FFFFFF" points="76.1,53.3 74.8,53.3 74.8,53.3 				"/>
			</g>
			<path fill="#3C4855" stroke="#FFFFFF" stroke-width="0.25" stroke-miterlimit="10" d="M76.4,51.2c0.1,0,0.2,0.1,0.2,0.2v0.3
				c0,0.1-0.1,0.2-0.2,0.2h-1.9c-0.1,0-0.2-0.1-0.2-0.2v-0.3c0-0.1,0.1-0.2,0.2-0.2H76.4z"/>
		</g>
		<g>
			<g id="XMLID_287_">
				<g>
					<rect x="71" y="51.8" fill="#3C4855" width="1.2" height="1.5"/>
				</g>
				<g>
					<rect x="71" y="51.8" fill="none" stroke="#FFFFFF" stroke-width="0.25" stroke-miterlimit="10" width="1.2" height="1.5"/>
				</g>
			</g>
			<g>
				<polygon fill="#FFFFFF" points="72.1,53 71,53.1 71,53.1 				"/>
			</g>
			<g>
				<polygon fill="#FFFFFF" points="72.1,52.7 71,52.9 71,52.9 				"/>
			</g>
			<g>
				<polygon fill="#FFFFFF" points="72.1,52.3 71,52.4 71,52.4 				"/>
			</g>
			<g>
				<polygon fill="#FFFFFF" points="72.1,52 71,52.2 71,52.2 				"/>
			</g>
			<g>
				<polygon fill="#FFFFFF" points="72.2,53.3 70.9,53.3 70.9,53.3 				"/>
			</g>
			<path fill="#3C4855" stroke="#FFFFFF" stroke-width="0.25" stroke-miterlimit="10" d="M72.5,51.2c0.1,0,0.2,0.1,0.2,0.2v0.3
				c0,0.1-0.1,0.2-0.2,0.2h-1.9c-0.1,0-0.2-0.1-0.2-0.2v-0.3c0-0.1,0.1-0.2,0.2-0.2H72.5z"/>
		</g>
		<g>
			<g id="XMLID_286_">
				<g>
					<rect x="67" y="51.8" fill="#3C4855" width="1.2" height="1.5"/>
				</g>
				<g>
					<rect x="67" y="51.8" fill="none" stroke="#FFFFFF" stroke-width="0.25" stroke-miterlimit="10" width="1.2" height="1.5"/>
				</g>
			</g>
			<g>
				<polygon fill="#FFFFFF" points="68.2,53 67.1,53.1 67.1,53.1 				"/>
			</g>
			<g>
				<polygon fill="#FFFFFF" points="68.2,52.7 67.1,52.9 67.1,52.9 				"/>
			</g>
			<g>
				<polygon fill="#FFFFFF" points="68.2,52.3 67.1,52.4 67.1,52.4 				"/>
			</g>
			<g>
				<polygon fill="#FFFFFF" points="68.1,52 67.1,52.1 67.1,52.1 				"/>
			</g>
			<g>
				<polygon fill="#FFFFFF" points="68.2,53.3 66.9,53.3 66.9,53.3 				"/>
			</g>
			<path fill="#3C4855" stroke="#FFFFFF" stroke-width="0.25" stroke-miterlimit="10" d="M68.5,51.2c0.1,0,0.2,0.1,0.2,0.2v0.3
				c0,0.1-0.1,0.2-0.2,0.2h-1.9c-0.1,0-0.2-0.1-0.2-0.2v-0.3c0-0.1,0.1-0.2,0.2-0.2H68.5z"/>
		</g>
		<g>
			<g id="XMLID_285_">
				<g>
					<rect x="63.1" y="51.8" fill="#3C4855" width="1.2" height="1.5"/>
				</g>
				<g>
					<rect x="63.1" y="51.8" fill="none" stroke="#FFFFFF" stroke-width="0.25" stroke-miterlimit="10" width="1.2" height="1.5"/>
				</g>
			</g>
			<g>
				<polygon fill="#FFFFFF" points="64.3,53 63.2,53.1 63.2,53.1 				"/>
			</g>
			<g>
				<polygon fill="#FFFFFF" points="64.3,52.7 63.2,52.9 63.2,52.9 				"/>
			</g>
			<g>
				<polygon fill="#FFFFFF" points="64.3,52.3 63.2,52.4 63.2,52.4 				"/>
			</g>
			<g>
				<polygon fill="#FFFFFF" points="64.3,52 63.2,52.1 63.2,52.1 				"/>
			</g>
			<g>
				<polygon fill="#FFFFFF" points="64.4,53.3 63.1,53.3 63.1,53.3 				"/>
			</g>
			<path fill="#3C4855" stroke="#FFFFFF" stroke-width="0.25" stroke-miterlimit="10" d="M64.6,51.2c0.1,0,0.2,0.1,0.2,0.2v0.3
				c0,0.1-0.1,0.2-0.2,0.2h-1.9c-0.1,0-0.2-0.1-0.2-0.2v-0.3c0-0.1,0.1-0.2,0.2-0.2H64.6z"/>
		</g>
		<g>
			<g id="XMLID_284_">
				<g>
					<rect x="59.2" y="51.8" fill="#3C4855" width="1.2" height="1.5"/>
				</g>
				<g>
					<rect x="59.2" y="51.8" fill="none" stroke="#FFFFFF" stroke-width="0.25" stroke-miterlimit="10" width="1.2" height="1.5"/>
				</g>
			</g>
			<g>
				<polygon fill="#FFFFFF" points="60.3,53 59.3,53.1 59.3,53.1 				"/>
			</g>
			<g>
				<polygon fill="#FFFFFF" points="60.4,52.7 59.3,52.9 59.3,52.9 				"/>
			</g>
			<g>
				<polygon fill="#FFFFFF" points="60.3,52.3 59.3,52.4 59.3,52.4 				"/>
			</g>
			<g>
				<polygon fill="#FFFFFF" points="60.4,52 59.3,52.1 59.3,52.1 				"/>
			</g>
			<g>
				<polygon fill="#FFFFFF" points="60.5,53.3 59.2,53.3 59.2,53.3 				"/>
			</g>
			<path fill="#3C4855" stroke="#FFFFFF" stroke-width="0.25" stroke-miterlimit="10" d="M60.7,51.2c0.1,0,0.2,0.1,0.2,0.2v0.3
				c0,0.1-0.1,0.2-0.2,0.2h-1.9c-0.1,0-0.2-0.1-0.2-0.2v-0.3c0-0.1,0.1-0.2,0.2-0.2H60.7z"/>
		</g>
	</g>
	<rect x="57.4" y="41.3" fill="#3C4855" stroke="#FFFFFF" stroke-width="0.25" stroke-miterlimit="10" width="32.7" height="10"/>
	
		<path fill="#808080" stroke="#FFFFFF" stroke-width="0.25" stroke-linecap="round" stroke-linejoin="round" stroke-miterlimit="10" d="
		M89.8,51.6c-0.1,0-0.2-0.1-0.2-0.2v-10c0-0.1,0.1-0.2,0.2-0.2h0.5c0.1,0,0.2,0.1,0.2,0.2v10c0,0.1-0.1,0.2-0.2,0.2H89.8z"/>
	
		<path fill="#808080" stroke="#FFFFFF" stroke-width="0.25" stroke-linecap="round" stroke-linejoin="round" stroke-miterlimit="10" d="
		M56.9,51.6c-0.1,0-0.2-0.1-0.2-0.2v-10c0-0.1,0.1-0.2,0.2-0.2h0.5c0.1,0,0.2,0.1,0.2,0.2v10c0,0.1-0.1,0.2-0.2,0.2H56.9z"/>
	<text transform="matrix(1 0 0 1 62.0183 48.0821)" fill="#FFFFFF" font-family="'Helvetica-Light'" font-size="4.6806">Multiswitch</text>
</g>
<g>
	<g>
		<g id="XMLID_282_">
			<g>
				<rect x="86.6" y="69.8" fill="#3C4855" width="1.4" height="1.8"/>
			</g>
			<g>
				<rect x="86.6" y="69.8" fill="none" stroke="#FFFFFF" stroke-width="0.25" stroke-miterlimit="10" width="1.4" height="1.8"/>
			</g>
		</g>
		<g>
			<polygon fill="#FFFFFF" points="86.6,71.2 88,71.4 88,71.4 			"/>
		</g>
		<g>
			<polygon fill="#FFFFFF" points="86.6,70.8 88,71 88,71 			"/>
		</g>
		<g>
			<polygon fill="#FFFFFF" points="86.6,70.3 88,70.5 88,70.5 			"/>
		</g>
		<g>
			<polygon fill="#FFFFFF" points="86.6,69.9 88,70.1 88,70.1 			"/>
		</g>
		<g>
			<polygon fill="#FFFFFF" points="86.5,71.5 88,71.5 88,71.5 			"/>
		</g>
		<path fill="#3C4855" stroke="#FFFFFF" stroke-width="0.25" stroke-miterlimit="10" d="M86.2,69.1c-0.1,0-0.2,0.1-0.2,0.2v0.3
			c0,0.1,0.1,0.2,0.2,0.2h2.2c0.1,0,0.2-0.1,0.2-0.2v-0.3c0-0.1-0.1-0.2-0.2-0.2H86.2z"/>
	</g>
	<g>
		<g id="XMLID_281_">
			<g>
				<rect x="86.6" y="57.5" fill="#3C4855" width="1.4" height="1.8"/>
			</g>
			<g>
				<rect x="86.6" y="57.5" fill="none" stroke="#FFFFFF" stroke-width="0.25" stroke-miterlimit="10" width="1.4" height="1.8"/>
			</g>
		</g>
		<g>
			<polygon fill="#FFFFFF" points="86.6,57.8 88,57.6 88,57.6 			"/>
		</g>
		<g>
			<polygon fill="#FFFFFF" points="86.6,58.2 88,58 88,58 			"/>
		</g>
		<g>
			<polygon fill="#FFFFFF" points="86.6,58.7 88,58.5 88,58.5 			"/>
		</g>
		<g>
			<polygon fill="#FFFFFF" points="86.6,59.1 88,58.9 88,58.9 			"/>
		</g>
		<g>
			<polygon fill="#FFFFFF" points="86.5,57.5 88,57.5 88,57.5 			"/>
		</g>
		<path fill="#3C4855" stroke="#FFFFFF" stroke-width="0.25" stroke-miterlimit="10" d="M86.2,60c-0.1,0-0.2-0.1-0.2-0.2v-0.3
			c0-0.1,0.1-0.2,0.2-0.2h2.2c0.1,0,0.2,0.1,0.2,0.2v0.3c0,0.1-0.1,0.2-0.2,0.2H86.2z"/>
	</g>
	<path fill="#3C4855" stroke="#FFFFFF" stroke-width="0.25" stroke-miterlimit="10" d="M90.7,59.8l-0.3-0.5v-0.2
		c0,0-0.4-0.1-0.7-0.1S89,59.1,89,59.1v0.2l-0.4,0.6L90.7,59.8z"/>
	<rect x="85.1" y="60.1" fill="#3C4855" stroke="#FFFFFF" stroke-width="0.25" stroke-miterlimit="10" width="6.5" height="8.9"/>
	<path fill="#3C4855" stroke="#FFFFFF" stroke-width="0.25" stroke-miterlimit="10" d="M85,60.1C85,60.2,85.1,60.2,85,60.1l6.6,0.1
		c0.1,0,0.1-0.1,0.1-0.1v-0.3c0-0.1-0.1-0.1-0.1-0.1h-6.5c-0.1,0-0.1,0.1-0.1,0.1V60.1z"/>
	<path fill="#3C4855" stroke="#FFFFFF" stroke-width="0.25" stroke-miterlimit="10" d="M85,69.2C85,69.3,85.1,69.3,85,69.2l6.6,0.1
		c0.1,0,0.1-0.1,0.1-0.1v-0.3c0-0.1-0.1-0.1-0.1-0.1h-6.5c-0.1,0-0.1,0.1-0.1,0.1C85,68.9,85,69.2,85,69.2z"/>
</g>
<g>
	<line fill="none" x1="84.4" y1="20.4" x2="84.4" y2="29.6"/>
	<rect x="84.1" y="20.4" fill="#FFFFFF" width="0.6" height="9.2"/>
</g>
<rect x="30.1" y="35.1" fill="#FFFFFF" width="51.3" height="0.6"/>
<g>
	<line fill="none" x1="81.4" y1="35.7" x2="81.4" y2="26.5"/>
	<rect x="81.1" y="26.5" fill="#FFFFFF" width="0.6" height="9.2"/>
</g>
<g>
	<line fill="none" x1="30.3" y1="44.5" x2="30.3" y2="35.4"/>
	<rect x="30.1" y="35.4" fill="#FFFFFF" width="0.6" height="9.2"/>
</g>
<text transform="matrix(1 0 0 1 91.5175 29.5506)" fill="#FFFFFF" font-family="'Helvetica-Light'" font-size="3.5104">Splitter</text>
<g>
	<g>
		<g id="XMLID_299_">
			<g>
				<rect x="86.6" y="30.9" fill="#3C4855" width="1.5" height="2"/>
			</g>
			<g>
				<rect x="86.6" y="30.9" fill="none" stroke="#FFFFFF" stroke-width="0.25" stroke-miterlimit="10" width="1.5" height="2"/>
			</g>
		</g>
		<g>
			<polygon fill="#FFFFFF" points="86.6,32.5 88.1,32.7 88.1,32.7 			"/>
		</g>
		<g>
			<polygon fill="#FFFFFF" points="86.6,32.1 88.1,32.3 88.1,32.3 			"/>
		</g>
		<g>
			<polygon fill="#FFFFFF" points="86.6,31.6 88.1,31.8 88.1,31.8 			"/>
		</g>
		<g>
			<polygon fill="#FFFFFF" points="86.6,31.1 88.1,31.3 88.1,31.3 			"/>
		</g>
		<g>
			<polygon fill="#FFFFFF" points="86.5,32.8 88.3,32.8 88.3,32.8 			"/>
		</g>
		<path fill="#3C4855" stroke="#FFFFFF" stroke-width="0.25" stroke-miterlimit="10" d="M86.1,30.1c-0.1,0-0.2,0.1-0.2,0.2v0.4
			c0,0.1,0.1,0.2,0.2,0.2h2.5c0.1,0,0.2-0.1,0.2-0.2v-0.4c0-0.1-0.1-0.2-0.2-0.2H86.1z"/>
	</g>
	<g>
		<g id="XMLID_298_">
			<g>
				<rect x="83.6" y="23.7" fill="#3C4855" width="1.5" height="2"/>
			</g>
			<g>
				<rect x="83.6" y="23.7" fill="none" stroke="#FFFFFF" stroke-width="0.25" stroke-miterlimit="10" width="1.5" height="2"/>
			</g>
		</g>
		<g>
			<polygon fill="#FFFFFF" points="83.6,24 85.1,23.8 85.1,23.8 			"/>
		</g>
		<g>
			<polygon fill="#FFFFFF" points="83.6,24.5 85.1,24.3 85.1,24.3 			"/>
		</g>
		<g>
			<polygon fill="#FFFFFF" points="83.6,25 85.1,24.8 85.1,24.8 			"/>
		</g>
		<g>
			<polygon fill="#FFFFFF" points="83.6,25.4 85.1,25.2 85.1,25.2 			"/>
		</g>
		<g>
			<polygon fill="#FFFFFF" points="83.5,23.7 85.3,23.7 85.3,23.7 			"/>
		</g>
		<path fill="#3C4855" stroke="#FFFFFF" stroke-width="0.25" stroke-miterlimit="10" d="M83.1,26.5c-0.1,0-0.2-0.1-0.2-0.2v-0.4
			c0-0.1,0.1-0.2,0.2-0.2h2.5c0.1,0,0.2,0.1,0.2,0.2v0.4c0,0.1-0.1,0.2-0.2,0.2H83.1z"/>
	</g>
	<g>
		<g id="XMLID_297_">
			<g>
				<rect x="80.5" y="30.9" fill="#3C4855" width="1.5" height="2"/>
			</g>
			<g>
				<rect x="80.5" y="30.9" fill="none" stroke="#FFFFFF" stroke-width="0.25" stroke-miterlimit="10" width="1.5" height="2"/>
			</g>
		</g>
		<g>
			<polygon fill="#FFFFFF" points="80.5,32.5 82,32.7 82,32.7 			"/>
		</g>
		<g>
			<polygon fill="#FFFFFF" points="80.5,32.1 82,32.3 82,32.3 			"/>
		</g>
		<g>
			<polygon fill="#FFFFFF" points="80.5,31.6 82,31.8 82,31.8 			"/>
		</g>
		<g>
			<polygon fill="#FFFFFF" points="80.5,31.1 82,31.3 82,31.3 			"/>
		</g>
		<g>
			<polygon fill="#FFFFFF" points="80.4,32.8 82.2,32.8 82.2,32.8 			"/>
		</g>
		<path fill="#3C4855" stroke="#FFFFFF" stroke-width="0.25" stroke-miterlimit="10" d="M80.1,30.1c-0.1,0-0.2,0.1-0.2,0.2v0.4
			c0,0.1,0.1,0.2,0.2,0.2h2.5c0.1,0,0.2-0.1,0.2-0.2v-0.4c0-0.1-0.1-0.2-0.2-0.2H80.1z"/>
	</g>
	<rect x="79.5" y="26.1" fill="#3C4855" stroke="#FFFFFF" stroke-width="0.25" stroke-miterlimit="10" width="9.7" height="4.4"/>
	<path fill="#3C4855" stroke="#FFFFFF" stroke-width="0.25" stroke-miterlimit="10" d="M79.6,30.6c0.1,0,0.1,0,0.1-0.1v-4.4
		c0-0.1,0-0.1-0.1-0.1h-0.2c-0.1,0-0.1,0-0.1,0.1v4.4c0,0.1,0,0.1,0.1,0.1H79.6z"/>
	<path fill="#3C4855" stroke="#FFFFFF" stroke-width="0.25" stroke-miterlimit="10" d="M89.4,30.6c0.1,0,0.1,0,0.1-0.1v-4.4
		c0-0.1,0-0.1-0.1-0.1h-0.2c-0.1,0-0.1,0-0.1,0.1v4.4c0,0.1,0,0.1,0.1,0.1H89.4z"/>
</g>
<text transform="matrix(1 0 0 1 4.3999 38.6152)" fill="#FFFFFF" font-family="'Helvetica-Light'" font-size="2.6943">* Master</text>
<text transform="matrix(1 0 0 1 0.1308 77.0087)" fill="#FFFFFF" font-family="'Helvetica-Light'" font-size="2.6943">* Can Be Master</text>
<text transform="matrix(1 0 0 1 59.1934 77.0087)" fill="#FFFFFF" font-family="'Helvetica-Light'" font-size="2.6943">* Can Be Master</text>
<g>
	<g>
		<path fill="#808080" d="M20.9,47.9h15.8c0.1-0.7,0.3-2.1,0.3-2.6c0-0.7-0.1-3.2-0.1-3.2h-16h-0.2h-16c0,0-0.1,2.5-0.1,3.2
			c0,0.5,0.2,1.9,0.3,2.6h15.8H20.9z"/>
		<path fill="#FFFFFF" d="M36.7,47.9H4.8l0,0c-0.2-1.3-0.3-2.2-0.3-2.6c0-0.7,0.1-3.2,0.1-3.2l0,0h32.3l0,0c0,0,0.1,2.5,0.1,3.2
			C37,45.7,36.9,46.6,36.7,47.9L36.7,47.9z M4.8,47.9h31.9c0.2-1.3,0.3-2.2,0.3-2.6c0-0.7-0.1-2.9-0.1-3.2H4.6
			c0,0.3-0.1,2.5-0.1,3.2C4.5,45.7,4.6,46.6,4.8,47.9z"/>
	</g>
	<g>
		<path fill="#3C4754" d="M9.9,42.2c0,0,2,4.6,2.2,5h17.4c0,0,1.7-3.5,2.3-5H9.9z"/>
		<path fill="#FFFFFF" d="M29.5,47.2H12.1l0,0c-0.3-0.4-2.2-4.8-2.2-5v-0.1h22v0.1C31.2,43.6,29.5,47.1,29.5,47.2L29.5,47.2z
			 M12.1,47.1h17.3c0.2-0.3,1.7-3.5,2.2-4.9H9.9C10.2,42.8,11.8,46.6,12.1,47.1z"/>
	</g>
	<g>
		<path fill="#221F1F" d="M28.4,47.9H9.9l0,0l0,0H28.4C28.5,47.9,28.5,47.9,28.4,47.9C28.5,47.9,28.5,47.9,28.4,47.9z"/>
	</g>
	<g>
		<ellipse fill="#3C4754" cx="32.5" cy="45.2" rx="0.4" ry="0.3"/>
		<path fill="#FFFFFF" d="M32.5,45.6c-0.3,0-0.5-0.2-0.5-0.4s0.2-0.4,0.5-0.4S33,45,33,45.2S32.8,45.6,32.5,45.6z M32.5,45
			c-0.2,0-0.4,0.1-0.4,0.3s0.2,0.3,0.4,0.3s0.4-0.1,0.4-0.3S32.7,45,32.5,45z"/>
	</g>
	<g>
		<ellipse fill="#3C4754" cx="35.5" cy="45.2" rx="0.4" ry="0.3"/>
		<path fill="#FFFFFF" d="M35.5,45.6c-0.3,0-0.5-0.2-0.5-0.4s0.2-0.4,0.5-0.4S36,45,36,45.2S35.8,45.6,35.5,45.6z M35.5,45
			c-0.2,0-0.4,0.1-0.4,0.3s0.2,0.3,0.4,0.3s0.4-0.1,0.4-0.3S35.7,45,35.5,45z"/>
	</g>
	<g>
		<ellipse fill="#3C4754" cx="34.1" cy="44.1" rx="0.3" ry="0.4"/>
		<path fill="#FFFFFF" d="M34.1,44.5c-0.2,0-0.4-0.2-0.4-0.5s0.2-0.5,0.4-0.5s0.4,0.2,0.4,0.5S34.3,44.5,34.1,44.5z M34.1,43.7
			c-0.1,0-0.3,0.2-0.3,0.4s0.1,0.4,0.3,0.4c0.1,0,0.3-0.2,0.3-0.4C34.4,43.9,34.2,43.7,34.1,43.7z"/>
	</g>
	<g>
		<ellipse fill="#3C4754" cx="34" cy="46.5" rx="0.3" ry="0.4"/>
		<path fill="#FFFFFF" d="M34,46.9c-0.2,0-0.4-0.2-0.4-0.5s0.2-0.5,0.4-0.5s0.4,0.2,0.4,0.5S34.2,46.9,34,46.9z M34,46.1
			c-0.1,0-0.3,0.2-0.3,0.4s0.1,0.4,0.3,0.4c0.1,0,0.3-0.2,0.3-0.4C34.3,46.2,34.2,46.1,34,46.1z"/>
	</g>
	<g>
		<circle fill="#3C4754" cx="34" cy="45.3" r="0.5"/>
		<path fill="#FFFFFF" d="M34,45.8c-0.3,0-0.5-0.2-0.5-0.5s0.2-0.5,0.5-0.5s0.5,0.2,0.5,0.5S34.3,45.8,34,45.8z M34,44.9
			c-0.2,0-0.4,0.2-0.4,0.4s0.2,0.4,0.4,0.4s0.4-0.2,0.4-0.4C34.5,45.1,34.3,44.9,34,44.9z"/>
	</g>
	<g>
		<path fill="#FFFFFF" d="M36.9,48H4.7v-0.1c-0.2-1.3-0.3-2.2-0.3-2.6c0-0.7,0.1-3.1,0.1-3.2V42h32.6v0.1c0,0.1,0.1,2.5,0.1,3.2
			C37.2,45.7,37.1,46.6,36.9,48L36.9,48z M5,47.8h31.7c0.2-1.2,0.3-2.1,0.3-2.4c0-0.6-0.1-2.5-0.1-3.1h-32c0,0.5-0.1,2.4-0.1,3.1
			C4.7,45.7,4.8,46.5,5,47.8z"/>
	</g>
	<g>
		<path fill="#3C4754" d="M5.8,46.2C5.8,46.1,6,46,6.1,46h3.7c0.2,0,0.3,0.1,0.3,0.2v0.7c0,0.1-0.1,0.2-0.3,0.2H6.1
			c-0.2,0-0.3-0.1-0.3-0.2C5.8,46.9,5.8,46.2,5.8,46.2z"/>
		<path fill="#FFFFFF" d="M9.8,47.2H6.1c-0.2,0-0.3-0.1-0.3-0.3v-0.7c0-0.1,0.1-0.3,0.3-0.3h3.7c0.2,0,0.3,0.1,0.3,0.3v0.7
			C10.1,47.1,10,47.2,9.8,47.2z M6.1,46.1c-0.1,0-0.2,0.1-0.2,0.2V47c0,0.1,0.1,0.2,0.2,0.2h3.7c0.1,0,0.2-0.1,0.2-0.2v-0.7
			c0-0.1-0.1-0.2-0.2-0.2H6.1z"/>
	</g>
</g>
<g>
	<g>
		<path fill="#FFFFFF" d="M63,16.6L62.9,6.2c0,0,0-0.7-0.6-0.7l0,0c-0.6,0-0.6,0.7-0.6,0.7l-0.1,10.3H63V16.6z"/>
	</g>
	<g>
		<path fill="#2B3A46" d="M51.9,22.8h18.6v-5.1c0,0,0.1-0.7-2-0.9c0,0-6.6-0.7-16.5-0.8h-0.1c-10,0.1-16.5,0.8-16.5,0.8
			c-2.1,0.2-2,0.9-2,0.9v5.1H51.9L51.9,22.8z"/>
		<path fill="#FFFFFF" d="M70.6,23H33.2v-5.3c0-0.1,0-0.2,0.1-0.4c0.3-0.4,1-0.6,2-0.7c0.1,0,6.7-0.7,16.5-0.8h0.1
			c9.8,0.1,16.5,0.8,16.5,0.8c1.1,0.1,1.7,0.3,2,0.7c0.1,0.2,0.1,0.3,0.1,0.4V23H70.6z M33.5,22.6h36.8v-5l0,0c0,0,0-0.5-1.8-0.7
			c-0.1,0-6.7-0.7-16.5-0.8h-0.1C42,16.3,35.4,17,35.3,17c-1.8,0.2-1.8,0.7-1.8,0.7l0,0l0,0V22.6z"/>
	</g>
	<g>
		<path fill="#808080" d="M50.3,18.4c0,0.2-0.2,0.4-0.4,0.4l0,0c-0.2,0-0.4-0.2-0.4-0.4v-2.2h0.7v2.2H50.3z"/>
		<path fill="#FFFFFF" d="M49.9,18.8c-0.2,0-0.4-0.2-0.4-0.4v-2.2c0,0,0-0.1,0.1-0.1h0.7c0,0,0.1,0,0.1,0.1v2.2
			C50.3,18.6,50.1,18.8,49.9,18.8z M49.6,16.2v2.2c0,0.2,0.1,0.3,0.3,0.3s0.3-0.1,0.3-0.3v-2.2H49.6z"/>
	</g>
	<g>
		<path fill="#808080" d="M52.2,18.4c0,0.2-0.2,0.4-0.4,0.4l0,0c-0.2,0-0.4-0.2-0.4-0.4v-2.3h0.7v2.3H52.2z"/>
		<path fill="#FFFFFF" d="M51.9,18.8c-0.2,0-0.4-0.2-0.4-0.4v-2.3c0,0,0-0.1,0.1-0.1h0.7c0,0,0.1,0,0.1,0.1v2.3
			C52.3,18.6,52.1,18.8,51.9,18.8z M51.6,16.2v2.2c0,0.2,0.1,0.3,0.3,0.3s0.3-0.1,0.3-0.3v-2.2H51.6z"/>
	</g>
	<g>
		<path fill="#808080" d="M54.2,18.4c0,0.2-0.2,0.4-0.4,0.4l0,0c-0.2,0-0.4-0.2-0.4-0.4v-2.3h0.7v2.3H54.2z"/>
		<path fill="#FFFFFF" d="M53.9,18.8c-0.2,0-0.4-0.2-0.4-0.4v-2.3c0,0,0-0.1,0.1-0.1h0.7c0,0,0.1,0,0.1,0.1v2.3
			C54.3,18.6,54.1,18.8,53.9,18.8z M53.6,16.2v2.2c0,0.2,0.1,0.3,0.3,0.3s0.3-0.1,0.3-0.3v-2.2H53.6z"/>
	</g>
</g>
<g>
	<g>
		<path fill="#FFFFFF" d="M24,30.7H5l0,0c-0.1,0-2.1-0.7-3-2.9l0,0v-2.2l0.3-10.7l0,0c0.9-4.4,3.1-7.5,6.6-9.2
			c2.7-1.4,5.2-1.4,5.5-1.4l0,0c0,0,0.1,0,0.2,0c1.7,0,10,0.5,12,10.6l0,0L27,25.6v2.2l0,0c-1,1.4-1.3,2-1.9,2.4S24,30.7,24,30.7
			L24,30.7z M5.1,30.4H24c0.2,0,1.9-0.5,2.8-2.7v-2.2l-0.4-10.7C24.4,5,16.2,4.5,14.6,4.5c-0.1,0-0.2,0-0.2,0l0,0l0,0
			c-0.3,0-2.7,0-5.3,1.4c-3.4,1.7-5.5,4.7-6.4,9L2.3,25.6v2.2C3.1,29.6,4.8,30.3,5.1,30.4z"/>
	</g>
	<g>
		<path fill="#2B3A46" d="M2.1,25.6v2.2C2.8,29.7,5,30.5,5,30.5h19c1.8-0.4,2.8-2.7,2.8-2.7v-2.2C26.8,25.6,2.1,25.6,2.1,25.6z"/>
	</g>
	<g>
		<path d="M26.9,25.6H2.1l0,0l0,0H26.9C26.9,25.5,26.9,25.5,26.9,25.6L26.9,25.6z"/>
	</g>
	<g>
		<path d="M26.9,27.8H2.1l0,0l0,0H26.9C26.9,27.7,26.9,27.8,26.9,27.8L26.9,27.8z"/>
	</g>
	<g>
		<path d="M26.9,27.9H2.1l0,0v-2.2l0,0h24.8l0,0V27.9L26.9,27.9z M2.2,27.8h24.7v-2.2H2.2V27.8z"/>
	</g>
	<g>
		<path d="M24.1,30.6h-19l0,0c0,0-2.2-0.8-3-2.7l0,0l0,0h24.8l0,0l0,0C26.9,27.9,25.9,30.2,24.1,30.6L24.1,30.6z M5.1,30.5h19
			c1.7-0.3,2.6-2.4,2.8-2.7H2.2C2.9,29.7,5,30.5,5.1,30.5z"/>
	</g>
	<g>
		<path fill="#FFFFFF" d="M26.7,27.9H2.1c-0.1,0-0.1,0-0.1-0.1s0.1-0.2,0.2-0.2h24.6c0.1,0,0.2,0.1,0.2,0.2
			C26.9,27.9,26.8,27.9,26.7,27.9z"/>
	</g>
	<g>
		<path fill="#FFFFFF" d="M26.7,25.7H2.1c-0.1,0-0.1,0-0.1-0.1s0.1-0.2,0.2-0.2h24.6c0.1,0,0.2,0.1,0.2,0.2
			C26.9,25.7,26.8,25.7,26.7,25.7z"/>
	</g>
	<g>
		<path fill="#FFFFFF" d="M24.1,30.7h-19c0,0,0,0-0.1,0S2.9,30,2,27.8c0,0,0,0,0-0.1v-2.2l0.3-10.7l0,0c0.9-4.4,3.1-7.5,6.6-9.2
			c2.7-1.4,5.2-1.4,5.5-1.4l0,0c0,0,0.1,0,0.2,0c1.7,0,10,0.5,12,10.6l0,0L27,25.5v2.2c0,0,0,0,0,0.1c-0.5,1.3-1.3,2-1.9,2.4
			C24.6,30.6,24.1,30.7,24.1,30.7L24.1,30.7z M5.2,30.4h18.9c0.2,0,1.9-0.5,2.8-2.7v-2.2l-0.4-10.7C24.5,5,16.3,4.5,14.7,4.5
			c-0.1,0-0.2,0-0.2,0l0,0l0,0c-0.3,0-2.7,0-5.3,1.4c-3.4,1.7-5.5,4.7-6.4,9L2.4,25.6v2.2C3.2,29.6,4.9,30.3,5.2,30.4z"/>
	</g>
</g>
<text transform="matrix(1 0 0 1 13.9999 46.0998)" fill="#FFFFFF" font-family="'Helvetica-Light'" font-size="3.5104">Reciever</text>
<g>
	<g>
		<g>
			<path fill="#808080" d="M16.6,84.8h15.8c0.1-0.7,0.3-2.1,0.3-2.6c0-0.7-0.1-3.2-0.1-3.2h-16h-0.2h-16c0,0-0.1,2.5-0.1,3.2
				c0,0.5,0.2,1.9,0.3,2.6h15.8H16.6z"/>
			<path fill="#FFFFFF" d="M32.4,84.8H0.5l0,0c-0.2-1.3-0.3-2.2-0.3-2.6c0-0.7,0.1-3.2,0.1-3.2l0,0h32.3l0,0c0,0,0.1,2.5,0.1,3.2
				C32.7,82.6,32.6,83.5,32.4,84.8L32.4,84.8z M0.5,84.8h31.9c0.2-1.3,0.3-2.2,0.3-2.6c0-0.7-0.1-2.9-0.1-3.2H0.3
				c0,0.3-0.1,2.5-0.1,3.2C0.2,82.6,0.3,83.5,0.5,84.8z"/>
		</g>
		<g>
			<path fill="#3C4754" d="M5.6,79.1c0,0,2,4.6,2.2,5h17.4c0,0,1.7-3.5,2.3-5H5.6z"/>
			<path fill="#FFFFFF" d="M25.2,84.1H7.8l0,0c-0.3-0.4-2.2-4.8-2.2-5V79h22v0.1C26.9,80.5,25.2,84,25.2,84.1L25.2,84.1z M7.8,84
				h17.3c0.2-0.3,1.7-3.5,2.2-4.9H5.6C5.9,79.7,7.5,83.5,7.8,84z"/>
		</g>
		<g>
			<path fill="#221F1F" d="M24.1,84.8H5.6l0,0l0,0H24.1C24.2,84.8,24.2,84.8,24.1,84.8C24.2,84.8,24.2,84.8,24.1,84.8z"/>
		</g>
		<g>
			<ellipse fill="#3C4754" cx="28.2" cy="82.1" rx="0.4" ry="0.3"/>
			<path fill="#FFFFFF" d="M28.2,82.5c-0.3,0-0.5-0.2-0.5-0.4c0-0.2,0.2-0.4,0.5-0.4s0.5,0.2,0.5,0.4S28.5,82.5,28.2,82.5z
				 M28.2,81.9c-0.2,0-0.4,0.1-0.4,0.3s0.2,0.3,0.4,0.3s0.4-0.1,0.4-0.3S28.4,81.9,28.2,81.9z"/>
		</g>
		<g>
			<ellipse fill="#3C4754" cx="31.2" cy="82.1" rx="0.4" ry="0.3"/>
			<path fill="#FFFFFF" d="M31.2,82.5c-0.3,0-0.5-0.2-0.5-0.4c0-0.2,0.2-0.4,0.5-0.4s0.5,0.2,0.5,0.4S31.5,82.5,31.2,82.5z
				 M31.2,81.9c-0.2,0-0.4,0.1-0.4,0.3s0.2,0.3,0.4,0.3s0.4-0.1,0.4-0.3S31.4,81.9,31.2,81.9z"/>
		</g>
		<g>
			<ellipse fill="#3C4754" cx="29.8" cy="81" rx="0.3" ry="0.4"/>
			<path fill="#FFFFFF" d="M29.8,81.4c-0.2,0-0.4-0.2-0.4-0.5s0.2-0.5,0.4-0.5s0.4,0.2,0.4,0.5C30.2,81.2,30,81.4,29.8,81.4z
				 M29.8,80.6c-0.1,0-0.3,0.2-0.3,0.4s0.1,0.4,0.3,0.4c0.1,0,0.3-0.2,0.3-0.4C30.1,80.8,29.9,80.6,29.8,80.6z"/>
		</g>
		<g>
			<ellipse fill="#3C4754" cx="29.7" cy="83.4" rx="0.3" ry="0.4"/>
			<path fill="#FFFFFF" d="M29.7,83.8c-0.2,0-0.4-0.2-0.4-0.5s0.2-0.5,0.4-0.5s0.4,0.2,0.4,0.5C30.1,83.6,29.9,83.8,29.7,83.8z
				 M29.7,83c-0.1,0-0.3,0.2-0.3,0.4c0,0.2,0.1,0.4,0.3,0.4c0.1,0,0.3-0.2,0.3-0.4C30,83.1,29.9,83,29.7,83z"/>
		</g>
		<g>
			<circle fill="#3C4754" cx="29.7" cy="82.2" r="0.5"/>
			<path fill="#FFFFFF" d="M29.7,82.7c-0.3,0-0.5-0.2-0.5-0.5s0.2-0.5,0.5-0.5s0.5,0.2,0.5,0.5S30,82.7,29.7,82.7z M29.7,81.8
				c-0.2,0-0.4,0.2-0.4,0.4c0,0.2,0.2,0.4,0.4,0.4s0.4-0.2,0.4-0.4C30.2,82,30,81.8,29.7,81.8z"/>
		</g>
		<g>
			<path fill="#FFFFFF" d="M32.6,84.9H0.4v-0.1c-0.2-1.3-0.3-2.2-0.3-2.6c0-0.7,0.1-3.1,0.1-3.2v-0.1h32.6V79c0,0.1,0.1,2.5,0.1,3.2
				c0,0.4-0.1,1.3-0.3,2.6V84.9z M0.7,84.7h31.7c0.2-1.2,0.3-2.1,0.3-2.4c0-0.6-0.1-2.5-0.1-3.1h-32c0,0.5-0.1,2.4-0.1,3.1
				C0.4,82.6,0.5,83.4,0.7,84.7z"/>
		</g>
		<g>
			<path fill="#3C4754" d="M1.5,83.1c0-0.1,0.2-0.2,0.3-0.2h3.7c0.2,0,0.3,0.1,0.3,0.2v0.7c0,0.1-0.1,0.2-0.3,0.2H1.8
				c-0.2,0-0.3-0.1-0.3-0.2C1.5,83.8,1.5,83.1,1.5,83.1z"/>
			<path fill="#FFFFFF" d="M5.5,84.1H1.8c-0.2,0-0.3-0.1-0.3-0.3v-0.7c0-0.1,0.1-0.3,0.3-0.3h3.7c0.2,0,0.3,0.1,0.3,0.3v0.7
				C5.8,84,5.7,84.1,5.5,84.1z M1.8,83c-0.1,0-0.2,0.1-0.2,0.2v0.7c0,0.1,0.1,0.2,0.2,0.2h3.7c0.1,0,0.2-0.1,0.2-0.2v-0.7
				c0-0.1-0.1-0.2-0.2-0.2H1.8z"/>
		</g>
	</g>
	<text transform="matrix(1 0 0 1 9.7307 83.0165)" fill="#FFFFFF" font-family="'Helvetica-Light'" font-size="3.5104">Reciever</text>
</g>
<g>
	<g>
		<path fill="#808080" d="M75.7,84.8h15.8c0.1-0.7,0.3-2.1,0.3-2.6c0-0.7-0.1-3.2-0.1-3.2h-16h-0.2h-16c0,0-0.1,2.5-0.1,3.2
			c0,0.5,0.2,1.9,0.3,2.6h15.8H75.7z"/>
		<path fill="#FFFFFF" d="M91.5,84.8H59.6l0,0c-0.2-1.3-0.3-2.2-0.3-2.6c0-0.7,0.1-3.2,0.1-3.2l0,0h32.3l0,0c0,0,0.1,2.5,0.1,3.2
			C91.8,82.6,91.7,83.5,91.5,84.8L91.5,84.8z M59.6,84.8h31.9c0.2-1.3,0.3-2.2,0.3-2.6c0-0.7-0.1-2.9-0.1-3.2H59.4
			c0,0.3-0.1,2.5-0.1,3.2C59.3,82.6,59.4,83.5,59.6,84.8z"/>
	</g>
	<g>
		<path fill="#3C4754" d="M64.7,79.1c0,0,2,4.6,2.2,5h17.4c0,0,1.7-3.5,2.3-5H64.7z"/>
		<path fill="#FFFFFF" d="M84.3,84.1H66.9l0,0c-0.3-0.4-2.2-4.8-2.2-5V79h22v0.1C86,80.5,84.3,84,84.3,84.1L84.3,84.1z M66.9,84
			h17.3c0.2-0.3,1.7-3.5,2.2-4.9H64.7C65,79.7,66.6,83.5,66.9,84z"/>
	</g>
	<g>
		<path fill="#221F1F" d="M83.2,84.8H64.7l0,0l0,0H83.2C83.3,84.8,83.3,84.8,83.2,84.8C83.3,84.8,83.3,84.8,83.2,84.8z"/>
	</g>
	<g>
		<ellipse fill="#3C4754" cx="87.3" cy="82.1" rx="0.4" ry="0.3"/>
		<path fill="#FFFFFF" d="M87.3,82.5c-0.3,0-0.5-0.2-0.5-0.4c0-0.2,0.2-0.4,0.5-0.4s0.5,0.2,0.5,0.4S87.6,82.5,87.3,82.5z
			 M87.3,81.9c-0.2,0-0.4,0.1-0.4,0.3s0.2,0.3,0.4,0.3s0.4-0.1,0.4-0.3S87.5,81.9,87.3,81.9z"/>
	</g>
	<g>
		<ellipse fill="#3C4754" cx="90.3" cy="82.1" rx="0.4" ry="0.3"/>
		<path fill="#FFFFFF" d="M90.3,82.5c-0.3,0-0.5-0.2-0.5-0.4c0-0.2,0.2-0.4,0.5-0.4s0.5,0.2,0.5,0.4S90.6,82.5,90.3,82.5z
			 M90.3,81.9c-0.2,0-0.4,0.1-0.4,0.3s0.2,0.3,0.4,0.3s0.4-0.1,0.4-0.3S90.5,81.9,90.3,81.9z"/>
	</g>
	<g>
		<ellipse fill="#3C4754" cx="88.9" cy="81" rx="0.3" ry="0.4"/>
		<path fill="#FFFFFF" d="M88.9,81.4c-0.2,0-0.4-0.2-0.4-0.5s0.2-0.5,0.4-0.5s0.4,0.2,0.4,0.5C89.3,81.2,89.1,81.4,88.9,81.4z
			 M88.9,80.6c-0.1,0-0.3,0.2-0.3,0.4s0.1,0.4,0.3,0.4c0.1,0,0.3-0.2,0.3-0.4C89.2,80.8,89,80.6,88.9,80.6z"/>
	</g>
	<g>
		<ellipse fill="#3C4754" cx="88.8" cy="83.4" rx="0.3" ry="0.4"/>
		<path fill="#FFFFFF" d="M88.8,83.8c-0.2,0-0.4-0.2-0.4-0.5s0.2-0.5,0.4-0.5s0.4,0.2,0.4,0.5C89.2,83.6,89,83.8,88.8,83.8z
			 M88.8,83c-0.1,0-0.3,0.2-0.3,0.4c0,0.2,0.1,0.4,0.3,0.4c0.1,0,0.3-0.2,0.3-0.4C89.1,83.1,89,83,88.8,83z"/>
	</g>
	<g>
		<circle fill="#3C4754" cx="88.8" cy="82.2" r="0.5"/>
		<path fill="#FFFFFF" d="M88.8,82.7c-0.3,0-0.5-0.2-0.5-0.5s0.2-0.5,0.5-0.5s0.5,0.2,0.5,0.5S89.1,82.7,88.8,82.7z M88.8,81.8
			c-0.2,0-0.4,0.2-0.4,0.4c0,0.2,0.2,0.4,0.4,0.4s0.4-0.2,0.4-0.4C89.3,82,89.1,81.8,88.8,81.8z"/>
	</g>
	<g>
		<path fill="#FFFFFF" d="M91.7,84.9H59.5v-0.1c-0.2-1.3-0.3-2.2-0.3-2.6c0-0.7,0.1-3.1,0.1-3.2v-0.1h32.6V79c0,0.1,0.1,2.5,0.1,3.2
			c0,0.4-0.1,1.3-0.3,2.6L91.7,84.9z M59.8,84.7h31.7c0.2-1.2,0.3-2.1,0.3-2.4c0-0.6-0.1-2.5-0.1-3.1h-32c0,0.5-0.1,2.4-0.1,3.1
			C59.5,82.6,59.6,83.4,59.8,84.7z"/>
	</g>
	<g>
		<path fill="#3C4754" d="M60.6,83.1c0-0.1,0.2-0.2,0.3-0.2h3.7c0.2,0,0.3,0.1,0.3,0.2v0.7c0,0.1-0.1,0.2-0.3,0.2h-3.7
			c-0.2,0-0.3-0.1-0.3-0.2C60.6,83.8,60.6,83.1,60.6,83.1z"/>
		<path fill="#FFFFFF" d="M64.6,84.1h-3.7c-0.2,0-0.3-0.1-0.3-0.3v-0.7c0-0.1,0.1-0.3,0.3-0.3h3.7c0.2,0,0.3,0.1,0.3,0.3v0.7
			C64.9,84,64.8,84.1,64.6,84.1z M60.9,83c-0.1,0-0.2,0.1-0.2,0.2v0.7c0,0.1,0.1,0.2,0.2,0.2h3.7c0.1,0,0.2-0.1,0.2-0.2v-0.7
			c0-0.1-0.1-0.2-0.2-0.2H60.9z"/>
	</g>
</g>
<text transform="matrix(1 0 0 1 68.7999 83.0165)" fill="#FFFFFF" font-family="'Helvetica-Light'" font-size="3.5104">Reciever</text>
<text transform="matrix(1 0 0 1 34.4999 20.9998)" fill="#FFFFFF" font-family="'Helvetica-Light'" font-size="3.5104">TV-Hub</text>
<text transform="matrix(1 0 0 1 8.4999 22.6998)" fill="#FFFFFF" font-family="'Helvetica-Light'" font-size="3.5104">Antenna</text>
</svg>
