<?xml version="1.0" encoding="utf-8"?>
<!-- Generator: Adobe Illustrator 17.1.0, SVG Export Plug-In . SVG Version: 6.00 Build 0)  -->
<!DOCTYPE svg PUBLIC "-//W3C//DTD SVG 1.1//EN" "http://www.w3.org/Graphics/SVG/1.1/DTD/svg11.dtd">
<svg version="1.1" id="Layer_1" xmlns="http://www.w3.org/2000/svg" xmlns:xlink="http://www.w3.org/1999/xlink" x="0px" y="0px"
	 viewBox="0 0 104 90" enable-background="new 0 0 104 90" xml:space="preserve">
<polyline fill="none" stroke="#0CBC18" stroke-width="0.25" stroke-miterlimit="10" points="40.5,55 47.4,55 47.4,38 70.5,38 
	70.5,26.1 "/>
<polyline fill="none" stroke="#FFFFFF" stroke-width="0.25" stroke-miterlimit="10" points="19.4,15.6 53.2,15.6 53.2,8.7 91.8,8.7 
	91.8,16.7 "/>
<g>
	<path fill="#FFFFFF" d="M18.3,18.9h-7.8l0,0c0,0-0.9-0.3-1.2-1.2l0,0v-0.9l0.1-4.4l0,0c0.4-1.8,1.3-3,2.7-3.8C13.1,8,14.2,8,14.3,8
		l0,0c0,0,0,0,0.1,0c0.7,0,4.1,0.2,5,4.4l0,0l0.2,4.4v0.9l0,0c-0.2,0.5-0.5,0.8-0.8,1C18.5,18.9,18.3,18.9,18.3,18.9L18.3,18.9z
		 M10.5,18.8h7.7c0.1,0,0.8-0.2,1.1-1.1v-0.9l-0.1-4.4c-0.8-4-4.1-4.2-4.8-4.2c0,0-0.1,0-0.1,0l0,0l0,0c-0.1,0-1.1,0-2.2,0.5
		c-1.4,0.7-2.3,1.9-2.6,3.7l-0.1,4.4v0.9C9.7,18.4,10.4,18.7,10.5,18.8z"/>
	<path fill="#B5C0C9" d="M9.3,16.8v0.9c0.3,0.8,1.2,1.1,1.2,1.1h7.8c0.8-0.2,1.1-1.1,1.1-1.1v-0.9H9.3z"/>
	<path fill="#FFFFFF" d="M19.4,16.9H9.3c0,0-0.1,0-0.1-0.1c0,0,0-0.1,0.1-0.1h10.2C19.5,16.7,19.5,16.7,19.4,16.9
		C19.5,16.8,19.5,16.9,19.4,16.9z"/>
	<path fill="#FFFFFF" d="M18.3,18.9h-7.8c0,0,0,0,0,0c0,0-0.9-0.3-1.2-1.2c0,0,0,0,0,0v-0.9l0.1-4.4l0,0c0.4-1.8,1.3-3,2.7-3.8
		C13.1,8,14.2,8,14.3,8l0,0c0,0,0,0,0.1,0c0.7,0,4.1,0.2,5,4.4l0,0l0.2,4.4v0.9c0,0,0,0,0,0c-0.2,0.5-0.5,0.8-0.8,1
		C18.5,18.9,18.3,18.9,18.3,18.9L18.3,18.9z M10.5,18.8h7.7c0.1,0,0.8-0.2,1.1-1.1v-0.9l-0.1-4.4c-0.8-4-4.1-4.2-4.8-4.2
		c0,0-0.1,0-0.1,0l0,0l0,0c-0.1,0-1.1,0-2.2,0.5c-1.4,0.7-2.3,1.9-2.6,3.7l-0.1,4.4v0.9C9.7,18.4,10.4,18.7,10.5,18.8z"/>
</g>
<rect x="6.8" y="21.3" fill="none" width="15" height="4.4"/>
<text transform="matrix(1 0 0 1 8.0454 23.6977)" fill="#FFFFFF" font-family="'Helvetica'" font-size="3.3833">Antenna</text>
<g>
	<path fill="#FFFFFF" d="M46.3,13.9l0-4.9c0,0,0-0.3-0.3-0.3l0,0c-0.3,0-0.3,0.3-0.3,0.3l0,4.9H46.3z"/>
	<path fill="#B5C0C9" d="M41.1,16.8h8.7v-2.4c0,0,0-0.3-0.9-0.4c0,0-3.1-0.3-7.7-0.4h0c-4.7,0-7.7,0.4-7.7,0.4
		c-1,0.1-0.9,0.4-0.9,0.4v2.4H41.1L41.1,16.8z"/>
	<path fill="#8A9AA5" d="M40.3,14.7c0,0.1-0.1,0.2-0.2,0.2l0,0c-0.1,0-0.2-0.1-0.2-0.2v-1.1h0.3C40.3,13.7,40.3,14.7,40.3,14.7z"/>
	<path fill="#8A9AA5" d="M41.2,14.7c0,0.1-0.1,0.2-0.2,0.2l0,0c-0.1,0-0.2-0.1-0.2-0.2v-1.1h0.3C41.2,13.7,41.2,14.7,41.2,14.7z"/>
	<path fill="#8A9AA5" d="M42.1,14.7c0,0.1-0.1,0.2-0.2,0.2l0,0c-0.1,0-0.2-0.1-0.2-0.2v-1.1h0.3C42.1,13.7,42.1,14.7,42.1,14.7z"/>
	<path fill="#FFFFFF" d="M49.8,16.9H32.3v-2.5c0,0,0-0.1,0-0.2c0.1-0.2,0.5-0.3,0.9-0.3c0,0,3.1-0.3,7.7-0.4h0
		c4.6,0,7.7,0.4,7.7,0.4c0.5,0,0.8,0.2,0.9,0.3c0,0.1,0,0.1,0,0.2L49.8,16.9L49.8,16.9z M32.4,16.7h17.3v-2.3l0,0c0,0,0-0.3-0.8-0.3
		c0,0-3.1-0.3-7.7-0.4h0c-4.6,0-7.7,0.4-7.7,0.4c-0.8,0.1-0.8,0.3-0.8,0.3l0,0l0,0L32.4,16.7L32.4,16.7z"/>
</g>
<rect x="24.9" y="21.3" fill="none" width="17.4" height="4.4"/>
<text transform="matrix(1 0 0 1 35.3116 23.6977)" fill="#FFFFFF" font-family="'Helvetica'" font-size="3.3833">TV-Hub</text>
<line fill="none" stroke="#0CBC18" stroke-width="0.25" stroke-miterlimit="10" x1="86.1" y1="27.7" x2="86.1" y2="31.9"/>
<polygon fill="#0CBC18" points="85.4,31.4 86.1,31.7 86.8,31.4 86.1,33.1 "/>
<line fill="none" stroke="#0CBC18" stroke-width="0.25" stroke-miterlimit="10" x1="90" y1="27.7" x2="90" y2="31.9"/>
<polygon fill="#0CBC18" points="89.3,31.4 90,31.7 90.7,31.4 90,33.1 "/>
<line fill="none" stroke="#0CBC18" stroke-width="0.25" stroke-miterlimit="10" x1="93.8" y1="27.7" x2="93.8" y2="31.9"/>
<polygon fill="#0CBC18" points="93.1,31.4 93.8,31.7 94.5,31.4 93.8,33.1 "/>
<line fill="none" stroke="#0CBC18" stroke-width="0.25" stroke-miterlimit="10" x1="82.2" y1="25.9" x2="82.2" y2="52.3"/>
<polyline fill="none" stroke="#FFFFFF" stroke-width="0.25" stroke-miterlimit="10" points="9.3,15.6 2.8,15.6 2.8,27.4 59,27.4 
	59,12 84.2,12 84.2,17.4 "/>
<line fill="none" stroke="#FFFFFF" stroke-width="0.25" stroke-miterlimit="10" x1="69.1" y1="19.5" x2="69.1" y2="12"/>
<line fill="none" stroke="#FFFFFF" stroke-width="0.25" stroke-miterlimit="10" x1="76.6" y1="19.5" x2="76.6" y2="12"/>
<text transform="matrix(1 0 0 1 85.293 36.8604)" fill="#0CBC18" font-family="'Helvetica-Light'" font-size="2.5374">Optional</text>
<text transform="matrix(1 0 0 1 86.2978 46.8812)" fill="#0CBC18" font-family="'Helvetica-Light'" font-size="2.5374">IP AutoSwitch</text>
<g>
	<rect x="82" y="42.8" fill="#B5C0C9" width="0.6" height="1.1"/>
	<rect x="82" y="42.8" fill="none" stroke="#FFFFFF" stroke-width="0.15" stroke-miterlimit="10" width="0.6" height="1.1"/>
	<rect x="82" y="48.2" fill="#B5C0C9" width="0.6" height="1.1"/>
	<rect x="82" y="48.2" fill="none" stroke="#FFFFFF" stroke-width="0.15" stroke-miterlimit="10" width="0.6" height="1.1"/>
	<path fill="#B5C0C9" d="M83.9,43.9l-0.1-0.2v-0.1c0,0-0.2,0-0.3,0c-0.1,0-0.3,0-0.3,0v0.1L83,44L83.9,43.9z"/>
	<path fill="#FFFFFF" d="M82.9,44.1l0.2-0.3v-0.1h0c0,0,0.2,0,0.3,0c0.1,0,0.3,0,0.3,0h0v0.1l0.2,0.3L82.9,44.1z M83.2,43.6
		L83.2,43.6l-0.1,0.3l0.8,0l-0.1-0.2v-0.1c0,0-0.2,0-0.3,0C83.4,43.6,83.3,43.6,83.2,43.6z"/>
	<rect x="81.3" y="44.1" fill="#B5C0C9" width="3.1" height="4.2"/>
	<path fill="#FFFFFF" d="M84.4,48.3h-3.2V44h3.2V48.3z M81.3,48.2h3v-4.1h-3V48.2z"/>
	<path fill="#B5C0C9" d="M81.2,44.1C81.2,44.1,81.3,44.2,81.2,44.1l3.1,0.1c0,0,0.1,0,0.1-0.1v-0.2c0,0,0-0.1-0.1-0.1h-3
		c0,0-0.1,0-0.1,0.1V44.1z"/>
	<path fill="#FFFFFF" d="M84.4,44.2h-3c0,0-0.1,0-0.1-0.1v-0.2c0,0,0-0.1,0.1-0.1h3c0,0,0.1,0,0.1,0.1v0.2
		C84.5,44.1,84.4,44.2,84.4,44.2z M81.3,43.9C81.3,43.9,81.3,43.9,81.3,43.9l0,0.2c0,0,0,0,0,0h3c0,0,0,0,0,0v-0.2l0,0H81.3z"/>
	<path fill="#B5C0C9" d="M81.2,48.4C81.2,48.4,81.3,48.5,81.2,48.4l3.1,0.1c0,0,0.1,0,0.1-0.1v-0.2c0,0,0-0.1-0.1-0.1h-3
		c0,0-0.1,0-0.1,0.1V48.4z"/>
	<path fill="#FFFFFF" d="M84.4,48.4h-3c0,0-0.1,0-0.1-0.1v-0.2c0,0,0-0.1,0.1-0.1h3c0,0,0.1,0,0.1,0.1v0.2
		C84.5,48.4,84.4,48.4,84.4,48.4z M81.3,48.2C81.3,48.2,81.3,48.2,81.3,48.2l0,0.2c0,0,0,0,0,0h3c0,0,0,0,0,0v-0.2l0,0H81.3z"/>
</g>
<text transform="matrix(4.489659e-11 -1 1 4.489659e-11 53.1162 58.5603)" fill="#0CBC18" font-family="'Helvetica-Light'" font-size="2.5374">IP AutoSwitch</text>
<g>
	<rect x="47.1" y="47.5" fill="#B5C0C9" width="0.6" height="1.1"/>
	<rect x="47.1" y="47.5" fill="none" stroke="#FFFFFF" stroke-width="0.15" stroke-miterlimit="10" width="0.6" height="1.1"/>
	<rect x="47.1" y="52.8" fill="#B5C0C9" width="0.6" height="1.1"/>
	<rect x="47.1" y="52.8" fill="none" stroke="#FFFFFF" stroke-width="0.15" stroke-miterlimit="10" width="0.6" height="1.1"/>
	<path fill="#B5C0C9" d="M49,48.6l-0.1-0.2v-0.1c0,0-0.2,0-0.3,0c-0.1,0-0.3,0-0.3,0v0.1l-0.2,0.3L49,48.6z"/>
	<path fill="#FFFFFF" d="M48.1,48.7l0.2-0.3v-0.1h0c0,0,0.2,0,0.3,0c0.1,0,0.3,0,0.3,0h0v0.1l0.2,0.3L48.1,48.7z M48.3,48.3
		L48.3,48.3l-0.1,0.3l0.8,0l-0.1-0.2v-0.1c0,0-0.2,0-0.3,0C48.5,48.2,48.4,48.3,48.3,48.3z"/>
	<rect x="46.4" y="48.7" fill="#B5C0C9" width="3.1" height="4.2"/>
	<path fill="#FFFFFF" d="M49.5,52.9h-3.2v-4.3h3.2V52.9z M46.4,52.9h3v-4.1h-3V52.9z"/>
	<path fill="#B5C0C9" d="M46.4,48.8C46.4,48.8,46.4,48.8,46.4,48.8l3.1,0.1c0,0,0.1,0,0.1-0.1v-0.2c0,0,0-0.1-0.1-0.1h-3
		c0,0-0.1,0-0.1,0.1V48.8z"/>
	<path fill="#FFFFFF" d="M49.5,48.8h-3c0,0-0.1,0-0.1-0.1v-0.2c0,0,0-0.1,0.1-0.1h3c0,0,0.1,0,0.1,0.1v0.2
		C49.6,48.8,49.5,48.8,49.5,48.8z M46.4,48.6C46.4,48.6,46.4,48.6,46.4,48.6l0,0.2c0,0,0,0,0,0h3c0,0,0,0,0,0v-0.2l0,0H46.4z"/>
	<path fill="#B5C0C9" d="M46.4,53C46.4,53.1,46.4,53.1,46.4,53l3.1,0.1c0,0,0.1,0,0.1-0.1v-0.2c0,0,0-0.1-0.1-0.1h-3
		c0,0-0.1,0-0.1,0.1V53z"/>
	<path fill="#FFFFFF" d="M49.5,53.1h-3c0,0-0.1,0-0.1-0.1v-0.2c0,0,0-0.1,0.1-0.1h3c0,0,0.1,0,0.1,0.1V53
		C49.6,53.1,49.5,53.1,49.5,53.1z M46.4,52.9C46.4,52.9,46.4,52.9,46.4,52.9l0,0.2c0,0,0,0,0,0h3c0,0,0,0,0,0v-0.2l0,0H46.4z"/>
</g>
<polyline fill="none" stroke="#0CBC18" stroke-width="0.25" stroke-miterlimit="10" points="78.4,25.9 78.4,46.6 61.5,46.6 
	61.5,70.7 66.2,70.7 "/>
<text transform="matrix(1 0 0 1 61.1357 43.2988)" fill="#0CBC18" font-family="'Helvetica-Light'" font-size="2.5374">IP AutoSwitch</text>
<g>
	<rect x="70.7" y="46.3" fill="#B5C0C9" width="1.1" height="0.6"/>
	<rect x="70.7" y="46.3" fill="none" stroke="#FFFFFF" stroke-width="0.15" stroke-miterlimit="10" width="1.1" height="0.6"/>
	<rect x="65.4" y="46.3" fill="#B5C0C9" width="1.1" height="0.6"/>
	<rect x="65.4" y="46.3" fill="none" stroke="#FFFFFF" stroke-width="0.15" stroke-miterlimit="10" width="1.1" height="0.6"/>
	<path fill="#B5C0C9" d="M70.7,48.2l0.2-0.1h0.1c0,0,0-0.2,0-0.3s0-0.3,0-0.3h-0.1l-0.3-0.2L70.7,48.2z"/>
	<path fill="#FFFFFF" d="M70.6,47.3l0.3,0.2h0.1v0c0,0,0,0.2,0,0.3c0,0.1,0,0.3,0,0.3v0h-0.1l-0.3,0.2L70.6,47.3z M71,47.6L71,47.6
		l-0.3-0.1l0,0.8l0.2-0.1H71c0,0,0-0.2,0-0.3C71.1,47.7,71,47.6,71,47.6z"/>
	<rect x="66.4" y="45.6" fill="#B5C0C9" width="4.2" height="3.1"/>
	<path fill="#FFFFFF" d="M66.4,48.7v-3.2h4.3v3.2H66.4z M66.5,45.7v3h4.1v-3H66.5z"/>
	<path fill="#B5C0C9" d="M70.6,45.6C70.5,45.6,70.5,45.6,70.6,45.6l-0.1,3.1c0,0,0,0.1,0.1,0.1h0.2c0,0,0.1,0,0.1-0.1v-3
		c0,0,0-0.1-0.1-0.1H70.6z"/>
	<path fill="#FFFFFF" d="M70.5,48.7v-3c0,0,0-0.1,0.1-0.1h0.2c0,0,0.1,0,0.1,0.1v3c0,0,0,0.1-0.1,0.1h-0.2
		C70.5,48.8,70.5,48.7,70.5,48.7z M70.7,45.7C70.7,45.6,70.7,45.6,70.7,45.7l-0.2,0c0,0,0,0,0,0v3c0,0,0,0,0,0h0.2l0,0V45.7z"/>
	<path fill="#B5C0C9" d="M66.3,45.6C66.2,45.6,66.2,45.6,66.3,45.6l-0.1,3.1c0,0,0,0.1,0.1,0.1h0.2c0,0,0.1,0,0.1-0.1v-3
		c0,0,0-0.1-0.1-0.1H66.3z"/>
	<path fill="#FFFFFF" d="M66.2,48.7v-3c0,0,0-0.1,0.1-0.1h0.2c0,0,0.1,0,0.1,0.1v3c0,0,0,0.1-0.1,0.1h-0.2
		C66.2,48.8,66.2,48.7,66.2,48.7z M66.5,45.7C66.5,45.6,66.5,45.6,66.5,45.7l-0.2,0c0,0,0,0,0,0v3c0,0,0,0,0,0h0.2l0,0V45.7z"/>
</g>
<path fill="#B5C0C9" d="M84.3,58.2h17.4c0.1-0.8,0.4-2.2,0.4-2.8c0-0.8-0.1-3.5-0.1-3.5H84.3H84H66.5c0,0-0.1,2.7-0.1,3.5
	c0,0.6,0.3,2.1,0.4,2.8h17.4H84.3z"/>
<path fill="#B5C0C9" d="M101.7,58.2h-35c0,0,0,0,0,0c-0.3-1.4-0.4-2.4-0.4-2.8c0-0.8,0.1-3.5,0.1-3.5c0,0,0,0,0,0h35.5c0,0,0,0,0,0
	c0,0,0.1,2.7,0.1,3.5C102.1,55.8,101.9,56.8,101.7,58.2C101.7,58.2,101.7,58.2,101.7,58.2z M66.7,58.2h35c0.3-1.4,0.4-2.4,0.4-2.8
	c0-0.8-0.1-3.2-0.1-3.5H66.5c0,0.3-0.1,2.7-0.1,3.5C66.3,55.8,66.5,56.8,66.7,58.2z"/>
<path fill="#8A9AA5" d="M72.3,51.9c0,0,2.5,5.7,2.8,6.1h18.4c0,0,2.2-4.5,2.8-6.2L72.3,51.9z"/>
<path fill="#231F20" d="M92.6,58.2H72.3c0,0,0,0,0,0c0,0,0,0,0,0L92.6,58.2C92.7,58.2,92.7,58.2,92.6,58.2
	C92.7,58.2,92.7,58.2,92.6,58.2z"/>
<g>
	<g>
		<g>
			<path fill="#8A9AA5" d="M98.1,55.1c0,0.2-0.3,0.3-0.5,0.3c-0.3,0-0.5-0.1-0.5-0.3s0.3-0.3,0.5-0.3C97.8,54.8,98.1,54.9,98.1,55.1
				z"/>
			<path fill="#8A9AA5" d="M101.2,55c0,0.2-0.3,0.3-0.5,0.3c-0.3,0-0.5-0.1-0.5-0.3s0.3-0.3,0.5-0.3C101,54.8,101.2,54.9,101.2,55z"
				/>
		</g>
		<g>
			<path fill="#8A9AA5" d="M99.1,56.1c0.2,0,0.3,0.3,0.3,0.5c0,0.3-0.1,0.5-0.3,0.5s-0.3-0.3-0.3-0.5C98.8,56.3,98.9,56.1,99.1,56.1
				z"/>
			<path fill="#8A9AA5" d="M99.1,52.9c0.2,0,0.3,0.3,0.3,0.5c0,0.3-0.1,0.5-0.3,0.5s-0.3-0.3-0.3-0.5C98.8,53.2,98.9,52.9,99.1,52.9
				z"/>
		</g>
	</g>
	<path fill="#8A9AA5" d="M99.7,55.1c0,0.3-0.3,0.6-0.6,0.6c-0.3,0-0.6-0.3-0.6-0.6c0-0.3,0.3-0.6,0.6-0.6
		C99.4,54.5,99.7,54.7,99.7,55.1z"/>
</g>
<path fill="#0CBC18" d="M101.9,58.4H66.6l0-0.1c-0.3-1.5-0.4-2.4-0.4-2.9c0-0.8,0.1-3.4,0.1-3.5v-0.2h35.8v0.2
	c0,0.1,0.1,2.7,0.1,3.5c0,0.4-0.1,1.4-0.4,2.9L101.9,58.4L101.9,58.4z M66.9,58.1h34.8c0.2-1.4,0.3-2.3,0.3-2.7
	c0-0.7-0.1-2.8-0.1-3.3H66.7c0,0.6-0.1,2.7-0.1,3.3C66.5,55.8,66.7,56.7,66.9,58.1z"/>
<path fill="#8A9AA5" d="M67.8,56.4c0-0.1,0.1-0.2,0.3-0.2h4.1c0.2,0,0.3,0.1,0.3,0.2v0.8c0,0.1-0.1,0.2-0.3,0.2h-4.1
	c-0.2,0-0.3-0.1-0.3-0.2V56.4z"/>
<rect x="67" y="53.3" fill="none" width="34.3" height="4.4"/>
<text transform="matrix(1 0 0 1 75.7922 56.3411)" fill="#0F1F30" font-family="'Helvetica-Light'" font-size="4.2291">Receiver</text>
<text transform="matrix(1 0 0 1 71.8069 62.9662)" fill="#DEF93D" font-family="'Helvetica'" font-size="3.3833">Can Be Master *</text>
<path fill="#B5C0C9" d="M84.3,73.6h17.4c0.1-0.8,0.4-2.2,0.4-2.8c0-0.8-0.1-3.5-0.1-3.5H84.3H84H66.5c0,0-0.1,2.7-0.1,3.5
	c0,0.6,0.3,2.1,0.4,2.8h17.4H84.3z"/>
<path fill="#B5C0C9" d="M101.7,73.6h-35c0,0,0,0,0,0c-0.3-1.4-0.4-2.4-0.4-2.8c0-0.8,0.1-3.5,0.1-3.5c0,0,0,0,0,0h35.5c0,0,0,0,0,0
	c0,0,0.1,2.7,0.1,3.5C102.1,71.2,101.9,72.2,101.7,73.6C101.7,73.6,101.7,73.6,101.7,73.6z M66.7,73.6h35c0.3-1.4,0.4-2.4,0.4-2.8
	c0-0.8-0.1-3.2-0.1-3.5H66.5c0,0.3-0.1,2.7-0.1,3.5C66.3,71.2,66.5,72.1,66.7,73.6z"/>
<path fill="#8A9AA5" d="M72.3,67.3c0,0,2.5,5.7,2.8,6.1h18.4c0,0,2.2-4.5,2.8-6.2L72.3,67.3z"/>
<path fill="#231F20" d="M92.6,73.6H72.3c0,0,0,0,0,0c0,0,0,0,0,0L92.6,73.6C92.7,73.6,92.7,73.6,92.6,73.6
	C92.7,73.6,92.7,73.6,92.6,73.6z"/>
<g>
	<g>
		<g>
			<path fill="#8A9AA5" d="M98.1,70.5c0,0.2-0.3,0.3-0.5,0.3c-0.3,0-0.5-0.1-0.5-0.3s0.3-0.3,0.5-0.3C97.8,70.2,98.1,70.3,98.1,70.5
				z"/>
			<path fill="#8A9AA5" d="M101.2,70.4c0,0.2-0.3,0.3-0.5,0.3c-0.3,0-0.5-0.1-0.5-0.3s0.3-0.3,0.5-0.3
				C101,70.2,101.2,70.3,101.2,70.4z"/>
		</g>
		<g>
			<path fill="#8A9AA5" d="M99.1,71.5c0.2,0,0.3,0.3,0.3,0.5c0,0.3-0.1,0.5-0.3,0.5s-0.3-0.3-0.3-0.5C98.8,71.7,98.9,71.5,99.1,71.5
				z"/>
			<path fill="#8A9AA5" d="M99.1,68.3c0.2,0,0.3,0.3,0.3,0.5c0,0.3-0.1,0.5-0.3,0.5s-0.3-0.3-0.3-0.5C98.8,68.6,98.9,68.3,99.1,68.3
				z"/>
		</g>
	</g>
	<path fill="#8A9AA5" d="M99.7,70.5c0,0.3-0.3,0.6-0.6,0.6c-0.3,0-0.6-0.3-0.6-0.6c0-0.3,0.3-0.6,0.6-0.6
		C99.4,69.9,99.7,70.1,99.7,70.5z"/>
</g>
<path fill="#0CBC18" d="M101.9,73.8H66.6l0-0.1c-0.3-1.5-0.4-2.4-0.4-2.9c0-0.8,0.1-3.4,0.1-3.5v-0.2h35.8v0.2
	c0,0.1,0.1,2.7,0.1,3.5c0,0.4-0.1,1.4-0.4,2.9L101.9,73.8L101.9,73.8z M66.9,73.5h34.8c0.2-1.4,0.3-2.3,0.3-2.7
	c0-0.7-0.1-2.8-0.1-3.3H66.7c0,0.6-0.1,2.7-0.1,3.3C66.5,71.2,66.7,72.1,66.9,73.5z"/>
<path fill="#8A9AA5" d="M67.8,71.8c0-0.1,0.1-0.2,0.3-0.2h4.1c0.2,0,0.3,0.1,0.3,0.2v0.8c0,0.1-0.1,0.2-0.3,0.2h-4.1
	c-0.2,0-0.3-0.1-0.3-0.2V71.8z"/>
<rect x="67" y="68.7" fill="none" width="34.3" height="4.4"/>
<text transform="matrix(1 0 0 1 75.7922 71.7179)" fill="#0F1F30" font-family="'Helvetica-Light'" font-size="4.2291">Receiver</text>
<text transform="matrix(1 0 0 1 71.8069 78.343)" fill="#DEF93D" font-family="'Helvetica'" font-size="3.3833">Can Be Master *</text>
<path fill="#B5C0C9" d="M22.9,58.2h17.4c0.1-0.8,0.4-2.2,0.4-2.8c0-0.8-0.1-3.5-0.1-3.5H22.9h-0.3H5.1c0,0-0.1,2.7-0.1,3.5
	c0,0.6,0.3,2.1,0.4,2.8h17.4H22.9z"/>
<path fill="#B5C0C9" d="M40.3,58.2h-35c0,0,0,0,0,0c-0.3-1.4-0.4-2.4-0.4-2.8c0-0.8,0.1-3.5,0.1-3.5c0,0,0,0,0,0h35.5c0,0,0,0,0,0
	c0,0,0.1,2.7,0.1,3.5C40.7,55.8,40.6,56.8,40.3,58.2C40.4,58.2,40.3,58.2,40.3,58.2z M5.3,58.2h35c0.3-1.4,0.4-2.4,0.4-2.8
	c0-0.8-0.1-3.2-0.1-3.5H5.1c0,0.3-0.1,2.7-0.1,3.5C5,55.8,5.1,56.8,5.3,58.2z"/>
<path fill="#8A9AA5" d="M10.9,51.9c0,0,2.5,5.7,2.8,6.1h18.4c0,0,2.2-4.5,2.8-6.2L10.9,51.9z"/>
<path fill="#231F20" d="M31.3,58.2H10.9c0,0,0,0,0,0c0,0,0,0,0,0L31.3,58.2C31.3,58.2,31.3,58.2,31.3,58.2
	C31.3,58.2,31.3,58.2,31.3,58.2z"/>
<g>
	<g>
		<g>
			<path fill="#8A9AA5" d="M36.7,55.1c0,0.2-0.3,0.3-0.5,0.3c-0.3,0-0.5-0.1-0.5-0.3s0.3-0.3,0.5-0.3C36.5,54.8,36.7,54.9,36.7,55.1
				z"/>
			<path fill="#8A9AA5" d="M39.8,55c0,0.2-0.3,0.3-0.5,0.3c-0.3,0-0.5-0.1-0.5-0.3s0.3-0.3,0.5-0.3C39.6,54.8,39.8,54.9,39.8,55z"/>
		</g>
		<g>
			<path fill="#8A9AA5" d="M37.7,56.1c0.2,0,0.3,0.3,0.3,0.5c0,0.3-0.1,0.5-0.3,0.5s-0.3-0.3-0.3-0.5C37.4,56.3,37.6,56.1,37.7,56.1
				z"/>
			<path fill="#8A9AA5" d="M37.7,52.9c0.2,0,0.3,0.3,0.3,0.5c0,0.3-0.1,0.5-0.3,0.5s-0.3-0.3-0.3-0.5C37.4,53.2,37.6,52.9,37.7,52.9
				z"/>
		</g>
	</g>
	<path fill="#8A9AA5" d="M38.3,55.1c0,0.3-0.3,0.6-0.6,0.6c-0.3,0-0.6-0.3-0.6-0.6c0-0.3,0.3-0.6,0.6-0.6
		C38.1,54.5,38.3,54.7,38.3,55.1z"/>
</g>
<path fill="#0CBC18" d="M40.5,58.4H5.3l0-0.1c-0.3-1.5-0.4-2.4-0.4-2.9c0-0.8,0.1-3.4,0.1-3.5v-0.2h35.8v0.2c0,0.1,0.1,2.7,0.1,3.5
	c0,0.4-0.1,1.4-0.4,2.9L40.5,58.4L40.5,58.4z M5.5,58.1h34.8c0.2-1.4,0.3-2.3,0.3-2.7c0-0.7-0.1-2.8-0.1-3.3H5.3
	c0,0.6-0.1,2.7-0.1,3.3C5.2,55.8,5.3,56.7,5.5,58.1z"/>
<path fill="#8A9AA5" d="M6.4,56.4c0-0.1,0.1-0.2,0.3-0.2h4.1c0.2,0,0.3,0.1,0.3,0.2v0.8c0,0.1-0.1,0.2-0.3,0.2H6.7
	c-0.2,0-0.3-0.1-0.3-0.2L6.4,56.4L6.4,56.4z"/>
<rect x="5.6" y="53.3" fill="none" width="34.3" height="4.4"/>
<text transform="matrix(1 0 0 1 14.4151 56.3411)" fill="#0F1F30" font-family="'Helvetica-Light'" font-size="4.2291">Receiver</text>
<text transform="matrix(1 0 0 1 10.4297 62.9662)" fill="#DEF93D" font-family="'Helvetica'" font-size="3.3833">Can Be Master *</text>
<path fill="#B5C0C9" d="M22.8,73.6h17.4c0.1-0.8,0.4-2.2,0.4-2.8c0-0.8-0.1-3.5-0.1-3.5H22.8h-0.3H5c0,0-0.1,2.7-0.1,3.5
	c0,0.6,0.3,2.1,0.4,2.8h17.4H22.8z"/>
<path fill="#B5C0C9" d="M40.2,73.6h-35c0,0,0,0,0,0c-0.3-1.4-0.4-2.4-0.4-2.8c0-0.8,0.1-3.5,0.1-3.5c0,0,0,0,0,0h35.5c0,0,0,0,0,0
	c0,0,0.1,2.7,0.1,3.5C40.6,71.2,40.5,72.2,40.2,73.6C40.3,73.6,40.2,73.6,40.2,73.6z M5.2,73.6h35c0.3-1.4,0.4-2.4,0.4-2.8
	c0-0.8-0.1-3.2-0.1-3.5H5c0,0.3-0.1,2.7-0.1,3.5C4.9,71.2,5,72.1,5.2,73.6z"/>
<path fill="#8A9AA5" d="M10.8,67.3c0,0,2.5,5.7,2.8,6.1H32c0,0,2.2-4.5,2.8-6.2L10.8,67.3z"/>
<path fill="#231F20" d="M31.2,73.6H10.8c0,0,0,0,0,0c0,0,0,0,0,0L31.2,73.6C31.2,73.6,31.2,73.6,31.2,73.6
	C31.2,73.6,31.2,73.6,31.2,73.6z"/>
<g>
	<g>
		<g>
			<path fill="#8A9AA5" d="M36.6,70.5c0,0.2-0.3,0.3-0.5,0.3c-0.3,0-0.5-0.1-0.5-0.3s0.3-0.3,0.5-0.3C36.4,70.2,36.6,70.3,36.6,70.5
				z"/>
			<path fill="#8A9AA5" d="M39.8,70.4c0,0.2-0.3,0.3-0.5,0.3c-0.3,0-0.5-0.1-0.5-0.3s0.3-0.3,0.5-0.3C39.5,70.2,39.8,70.3,39.8,70.4
				z"/>
		</g>
		<g>
			<path fill="#8A9AA5" d="M37.6,71.5c0.2,0,0.3,0.3,0.3,0.5c0,0.3-0.1,0.5-0.3,0.5s-0.3-0.3-0.3-0.5C37.3,71.7,37.5,71.5,37.6,71.5
				z"/>
			<path fill="#8A9AA5" d="M37.6,68.3c0.2,0,0.3,0.3,0.3,0.5c0,0.3-0.1,0.5-0.3,0.5s-0.3-0.3-0.3-0.5C37.3,68.6,37.5,68.3,37.6,68.3
				z"/>
		</g>
	</g>
	<path fill="#8A9AA5" d="M38.2,70.5c0,0.3-0.3,0.6-0.6,0.6S37,70.8,37,70.5c0-0.3,0.3-0.6,0.6-0.6C38,69.9,38.2,70.1,38.2,70.5z"/>
</g>
<path fill="#0CBC18" d="M40.4,73.8H5.2l0-0.1c-0.3-1.5-0.4-2.4-0.4-2.9c0-0.8,0.1-3.4,0.1-3.5v-0.2h35.8v0.2c0,0.1,0.1,2.7,0.1,3.5
	c0,0.4-0.1,1.4-0.4,2.9L40.4,73.8L40.4,73.8z M5.4,73.5h34.8c0.2-1.4,0.3-2.3,0.3-2.7c0-0.7-0.1-2.8-0.1-3.3H5.2
	c0,0.6-0.1,2.7-0.1,3.3C5.1,71.2,5.2,72.1,5.4,73.5z"/>
<path fill="#8A9AA5" d="M6.3,71.8c0-0.1,0.1-0.2,0.3-0.2h4.1c0.2,0,0.3,0.1,0.3,0.2v0.8c0,0.1-0.1,0.2-0.3,0.2H6.6
	c-0.2,0-0.3-0.1-0.3-0.2V71.8z"/>
<rect x="5.5" y="68.7" fill="none" width="34.3" height="4.4"/>
<text transform="matrix(1 0 0 1 14.3305 71.7179)" fill="#0F1F30" font-family="'Helvetica-Light'" font-size="4.2291">Receiver</text>
<text transform="matrix(1 0 0 1 10.3451 78.343)" fill="#DEF93D" font-family="'Helvetica'" font-size="3.3833">Can Be Master *</text>
<polyline fill="none" stroke="#FFFFFF" stroke-width="0.25" stroke-miterlimit="10" points="37.9,34.5 66.7,34.5 66.7,27.2 "/>
<g>
	<g>
		<path fill="#B5C0C9" d="M22.9,39.6h17.4c0.1-0.8,0.4-2.2,0.4-2.8c0-0.8-0.1-3.5-0.1-3.5H22.9h-0.3H5.1c0,0-0.1,2.7-0.1,3.5
			c0,0.6,0.3,2.1,0.4,2.8h17.4H22.9z"/>
		<path fill="#B5C0C9" d="M40.3,39.6h-35c0,0,0,0,0,0c-0.3-1.4-0.4-2.4-0.4-2.8C4.9,36,5,33.3,5,33.2c0,0,0,0,0,0h35.5c0,0,0,0,0,0
			s0.1,2.7,0.1,3.5C40.7,37.2,40.6,38.2,40.3,39.6C40.4,39.6,40.3,39.6,40.3,39.6z M5.3,39.6h35c0.3-1.4,0.4-2.4,0.4-2.8
			c0-0.8-0.1-3.2-0.1-3.5H5.1C5.1,33.6,5,36,5,36.8C5,37.2,5.1,38.2,5.3,39.6z"/>
		<path fill="#8A9AA5" d="M10.9,33.3c0,0,2.5,5.7,2.8,6.1h18.4c0,0,2.2-4.5,2.8-6.2L10.9,33.3z"/>
		<path fill="#231F20" d="M31.3,39.6H10.9c0,0,0,0,0,0s0,0,0,0L31.3,39.6C31.3,39.6,31.3,39.6,31.3,39.6
			C31.3,39.6,31.3,39.6,31.3,39.6z"/>
		<g>
			<g>
				<g>
					<path fill="#8A9AA5" d="M36.7,36.5c0,0.2-0.3,0.3-0.5,0.3c-0.3,0-0.5-0.1-0.5-0.3c0-0.2,0.3-0.3,0.5-0.3
						C36.5,36.2,36.7,36.3,36.7,36.5z"/>
					<path fill="#8A9AA5" d="M39.9,36.4c0,0.2-0.3,0.3-0.5,0.3c-0.3,0-0.5-0.1-0.5-0.3c0-0.2,0.3-0.3,0.5-0.3
						C39.6,36.2,39.9,36.3,39.9,36.4z"/>
				</g>
				<g>
					<path fill="#8A9AA5" d="M37.8,37.5c0.2,0,0.3,0.3,0.3,0.5c0,0.3-0.1,0.5-0.3,0.5s-0.3-0.3-0.3-0.5
						C37.5,37.7,37.6,37.5,37.8,37.5z"/>
					<path fill="#8A9AA5" d="M37.8,34.3c0.2,0,0.3,0.3,0.3,0.5c0,0.3-0.1,0.5-0.3,0.5s-0.3-0.3-0.3-0.5
						C37.5,34.6,37.6,34.3,37.8,34.3z"/>
				</g>
			</g>
			<path fill="#8A9AA5" d="M38.3,36.5c0,0.3-0.3,0.6-0.6,0.6s-0.6-0.3-0.6-0.6s0.3-0.6,0.6-0.6S38.3,36.1,38.3,36.5z"/>
		</g>
		<path fill="#FFFFFF" d="M40.5,39.8H5.3l0-0.1c-0.3-1.5-0.4-2.4-0.4-2.9C4.8,36,5,33.3,5,33.2v-0.2h35.8v0.2c0,0.1,0.1,2.7,0.1,3.5
			c0,0.4-0.1,1.4-0.4,2.9L40.5,39.8L40.5,39.8z M5.5,39.5h34.8c0.2-1.4,0.3-2.3,0.3-2.7c0-0.7-0.1-2.8-0.1-3.3H5.3
			c0,0.6-0.1,2.7-0.1,3.3C5.2,37.2,5.3,38.1,5.5,39.5z"/>
		<path fill="#8A9AA5" d="M6.4,37.8c0-0.1,0.1-0.2,0.3-0.2h4.1c0.2,0,0.3,0.1,0.3,0.2v0.8c0,0.1-0.1,0.2-0.3,0.2H6.7
			c-0.2,0-0.3-0.1-0.3-0.2C6.4,38.6,6.4,37.8,6.4,37.8z"/>
	</g>
	<rect x="5.7" y="34.7" fill="none" width="34.3" height="4.4"/>
	<text transform="matrix(1 0 0 1 14.4367 37.7246)" fill="#0F1F30" font-family="'Helvetica-Light'" font-size="4.2291">Receiver</text>
</g>
<text transform="matrix(1 0 0 1 11.5784 44.3501)" fill="#DEF93D" font-family="'Helvetica'" font-size="3.3833">Can Be Master</text>
<g>
	<text transform="matrix(1 0 0 1 44.1781 31.1564)" fill="#FFFFFF" font-family="'Helvetica-Light'" font-size="2.5374">IP AutoSwitch</text>
	<g>
		<rect x="53.8" y="34.2" fill="#B5C0C9" width="1.1" height="0.6"/>
		<rect x="53.8" y="34.2" fill="none" stroke="#FFFFFF" stroke-width="0.15" stroke-miterlimit="10" width="1.1" height="0.6"/>
		<rect x="48.4" y="34.2" fill="#B5C0C9" width="1.1" height="0.6"/>
		<rect x="48.4" y="34.2" fill="none" stroke="#FFFFFF" stroke-width="0.15" stroke-miterlimit="10" width="1.1" height="0.6"/>
		<path fill="#B5C0C9" d="M53.8,36.1L54,36h0.1c0,0,0-0.2,0-0.3c0-0.1,0-0.3,0-0.3H54l-0.3-0.2L53.8,36.1z"/>
		<path fill="#FFFFFF" d="M53.6,35.1l0.3,0.2h0.1v0c0,0,0,0.2,0,0.3c0,0.1,0,0.3,0,0.3v0H54l-0.3,0.2L53.6,35.1z M54.1,35.4
			L54.1,35.4l-0.3-0.1l0,0.8L54,36h0.1c0,0,0-0.2,0-0.3C54.1,35.6,54.1,35.5,54.1,35.4z"/>
		<rect x="49.5" y="33.5" fill="#B5C0C9" width="4.2" height="3.1"/>
		<path fill="#FFFFFF" d="M49.4,36.6v-3.2h4.3v3.2H49.4z M49.5,33.5v3h4.1v-3H49.5z"/>
		<path fill="#B5C0C9" d="M53.6,33.4C53.6,33.4,53.5,33.5,53.6,33.4l-0.1,3.1c0,0,0,0.1,0.1,0.1h0.2c0,0,0.1,0,0.1-0.1v-3
			c0,0,0-0.1-0.1-0.1H53.6z"/>
		<path fill="#FFFFFF" d="M53.5,36.6v-3c0,0,0-0.1,0.1-0.1h0.2c0,0,0.1,0,0.1,0.1v3c0,0,0,0.1-0.1,0.1h-0.2
			C53.6,36.6,53.5,36.6,53.5,36.6z M53.8,33.5C53.8,33.5,53.8,33.5,53.8,33.5l-0.2,0c0,0,0,0,0,0v3c0,0,0,0,0,0h0.2l0,0V33.5z"/>
		<path fill="#B5C0C9" d="M49.3,33.4C49.3,33.4,49.2,33.5,49.3,33.4l-0.1,3.1c0,0,0,0.1,0.1,0.1h0.2c0,0,0.1,0,0.1-0.1v-3
			c0,0,0-0.1-0.1-0.1H49.3z"/>
		<path fill="#FFFFFF" d="M49.2,36.6v-3c0,0,0-0.1,0.1-0.1h0.2c0,0,0.1,0,0.1,0.1v3c0,0,0,0.1-0.1,0.1h-0.2
			C49.3,36.6,49.2,36.6,49.2,36.6z M49.5,33.5C49.5,33.5,49.5,33.5,49.5,33.5l-0.2,0c0,0,0,0,0,0v3c0,0,0,0,0,0h0.2l0,0V33.5z"/>
	</g>
</g>
<polyline fill="none" stroke="#0CBC18" stroke-width="0.25" stroke-miterlimit="10" points="74.5,28.7 74.5,39.7 56.5,39.7 
	56.5,70.7 40.8,70.7 "/>
<text transform="matrix(1 0 0 1 47.1272 76.434)" fill="#0CBC18" font-family="'Helvetica-Light'" font-size="2.5374">IP AutoSwitch</text>
<g>
	<rect x="52.4" y="70.4" fill="#B5C0C9" width="1.1" height="0.6"/>
	<rect x="52.4" y="70.4" fill="none" stroke="#FFFFFF" stroke-width="0.15" stroke-miterlimit="10" width="1.1" height="0.6"/>
	<rect x="47.1" y="70.4" fill="#B5C0C9" width="1.1" height="0.6"/>
	<rect x="47.1" y="70.4" fill="none" stroke="#FFFFFF" stroke-width="0.15" stroke-miterlimit="10" width="1.1" height="0.6"/>
	<path fill="#B5C0C9" d="M52.4,72.4l0.2-0.1h0.1c0,0,0-0.2,0-0.3c0-0.1,0-0.3,0-0.3h-0.1l-0.3-0.2L52.4,72.4z"/>
	<path fill="#FFFFFF" d="M52.3,71.4l0.3,0.2h0.1v0c0,0,0,0.2,0,0.3c0,0.1,0,0.3,0,0.3v0h-0.1l-0.3,0.2L52.3,71.4z M52.7,71.7
		L52.7,71.7l-0.3-0.1l0,0.8l0.2-0.1h0.1c0,0,0-0.2,0-0.3C52.8,71.8,52.7,71.7,52.7,71.7z"/>
	<rect x="48.1" y="69.7" fill="#B5C0C9" width="4.2" height="3.1"/>
	<path fill="#FFFFFF" d="M48.1,72.9v-3.2h4.3v3.2H48.1z M48.2,69.8v3h4.1v-3C52.3,69.8,48.2,69.8,48.2,69.8z"/>
	<path fill="#B5C0C9" d="M52.2,69.7C52.2,69.7,52.2,69.7,52.2,69.7l-0.1,3.1c0,0,0,0.1,0.1,0.1h0.2c0,0,0.1,0,0.1-0.1v-3
		c0,0,0-0.1-0.1-0.1H52.2z"/>
	<path fill="#FFFFFF" d="M52.2,72.8v-3c0,0,0-0.1,0.1-0.1h0.2c0,0,0.1,0,0.1,0.1v3c0,0,0,0.1-0.1,0.1h-0.2
		C52.2,72.9,52.2,72.9,52.2,72.8z M52.4,69.8C52.4,69.7,52.4,69.7,52.4,69.8l-0.2,0c0,0,0,0,0,0v3c0,0,0,0,0,0h0.2l0,0V69.8z"/>
	<path fill="#B5C0C9" d="M48,69.7C47.9,69.7,47.9,69.7,48,69.7l-0.1,3.1c0,0,0,0.1,0.1,0.1h0.2c0,0,0.1,0,0.1-0.1v-3
		c0,0,0-0.1-0.1-0.1H48z"/>
	<path fill="#FFFFFF" d="M47.9,72.8v-3c0,0,0-0.1,0.1-0.1h0.2c0,0,0.1,0,0.1,0.1v3c0,0,0,0.1-0.1,0.1H48
		C47.9,72.9,47.9,72.9,47.9,72.8z M48.2,69.8C48.2,69.7,48.2,69.7,48.2,69.8l-0.2,0c0,0,0,0,0,0v3c0,0,0,0,0,0h0.2l0,0V69.8z"/>
</g>
<g>
	<g>
		<g>
			<g>
				<rect x="91.2" y="15.6" fill="#B5C0C9" width="1.1" height="1.4"/>
				<rect x="91.2" y="15.6" fill="none" stroke="#FFFFFF" stroke-width="0.25" stroke-miterlimit="10" width="1.1" height="1.4"/>
				<path fill="#B5C0C9" d="M92.7,17.7c0.1,0,0.2-0.1,0.2-0.2v-0.3c0-0.1-0.1-0.2-0.2-0.2h-1.9c-0.1,0-0.2,0.1-0.2,0.2v0.3
					c0,0.1,0.1,0.2,0.2,0.2H92.7z"/>
				<path fill="#FFFFFF" d="M92.7,17.7h-1.9c-0.1,0-0.2-0.1-0.2-0.2v-0.3c0-0.1,0.1-0.2,0.2-0.2h1.9c0.1,0,0.2,0.1,0.2,0.2v0.3
					C92.9,17.6,92.8,17.7,92.7,17.7z M90.8,17.1c-0.1,0-0.1,0-0.1,0.1v0.3c0,0.1,0,0.1,0.1,0.1h1.9c0.1,0,0.1,0,0.1-0.1v-0.3
					c0-0.1,0-0.1-0.1-0.1H90.8z"/>
			</g>
		</g>
		<g>
			<g>
				<rect x="83.7" y="15.6" fill="#B5C0C9" width="1.1" height="1.4"/>
				<rect x="83.7" y="15.6" fill="none" stroke="#FFFFFF" stroke-width="0.25" stroke-miterlimit="10" width="1.1" height="1.4"/>
				<path fill="#B5C0C9" d="M85.1,17.7c0.1,0,0.2-0.1,0.2-0.2v-0.3c0-0.1-0.1-0.2-0.2-0.2h-1.9c-0.1,0-0.2,0.1-0.2,0.2v0.3
					c0,0.1,0.1,0.2,0.2,0.2H85.1z"/>
				<path fill="#FFFFFF" d="M85.1,17.7h-1.9c-0.1,0-0.2-0.1-0.2-0.2v-0.3c0-0.1,0.1-0.2,0.2-0.2h1.9c0.1,0,0.2,0.1,0.2,0.2v0.3
					C85.4,17.6,85.3,17.7,85.1,17.7z M83.3,17.1c-0.1,0-0.1,0-0.1,0.1v0.3c0,0.1,0,0.1,0.1,0.1h1.9c0.1,0,0.1,0,0.1-0.1v-0.3
					c0-0.1,0-0.1-0.1-0.1H83.3z"/>
			</g>
		</g>
		<g>
			<g>
				<rect x="76.1" y="15.6" fill="#B5C0C9" width="1.1" height="1.4"/>
				<rect x="76.1" y="15.6" fill="none" stroke="#FFFFFF" stroke-width="0.25" stroke-miterlimit="10" width="1.1" height="1.4"/>
				<path fill="#B5C0C9" d="M77.6,17.7c0.1,0,0.2-0.1,0.2-0.2v-0.3c0-0.1-0.1-0.2-0.2-0.2h-1.9c-0.1,0-0.2,0.1-0.2,0.2v0.3
					c0,0.1,0.1,0.2,0.2,0.2H77.6z"/>
				<path fill="#FFFFFF" d="M77.6,17.7h-1.9c-0.1,0-0.2-0.1-0.2-0.2v-0.3c0-0.1,0.1-0.2,0.2-0.2h1.9c0.1,0,0.2,0.1,0.2,0.2v0.3
					C77.8,17.6,77.8,17.7,77.6,17.7z M75.8,17.1c-0.1,0-0.1,0-0.1,0.1v0.3c0,0.1,0,0.1,0.1,0.1h1.9c0.1,0,0.1,0,0.1-0.1v-0.3
					c0-0.1,0-0.1-0.1-0.1H75.8z"/>
			</g>
		</g>
		<g>
			<g>
				<rect x="68.6" y="15.6" fill="#B5C0C9" width="1.1" height="1.4"/>
				<rect x="68.6" y="15.6" fill="none" stroke="#FFFFFF" stroke-width="0.25" stroke-miterlimit="10" width="1.1" height="1.4"/>
				<path fill="#B5C0C9" d="M70.1,17.7c0.1,0,0.2-0.1,0.2-0.2v-0.3c0-0.1-0.1-0.2-0.2-0.2h-1.9c-0.1,0-0.2,0.1-0.2,0.2v0.3
					c0,0.1,0.1,0.2,0.2,0.2H70.1z"/>
				<path fill="#FFFFFF" d="M70.1,17.7h-1.9c-0.1,0-0.2-0.1-0.2-0.2v-0.3c0-0.1,0.1-0.2,0.2-0.2h1.9c0.1,0,0.2,0.1,0.2,0.2v0.3
					C70.3,17.6,70.2,17.7,70.1,17.7z M68.2,17.1c-0.1,0-0.1,0-0.1,0.1v0.3c0,0.1,0,0.1,0.1,0.1h1.9c0.1,0,0.1,0,0.1-0.1v-0.3
					c0-0.1,0-0.1-0.1-0.1H68.2z"/>
			</g>
		</g>
		<g>
			<g>
				<rect x="93.2" y="27.7" fill="#B5C0C9" width="1.1" height="1.4"/>
				<rect x="93.2" y="27.7" fill="none" stroke="#FFFFFF" stroke-width="0.25" stroke-miterlimit="10" width="1.1" height="1.4"/>
				<path fill="#B5C0C9" d="M94.7,27c0.1,0,0.2,0.1,0.2,0.2v0.3c0,0.1-0.1,0.2-0.2,0.2h-1.9c-0.1,0-0.2-0.1-0.2-0.2v-0.3
					c0-0.1,0.1-0.2,0.2-0.2H94.7z"/>
				<path fill="#FFFFFF" d="M94.9,27.2v0.3c0,0.1-0.1,0.2-0.2,0.2h-1.9c-0.1,0-0.2-0.1-0.2-0.2v-0.3c0-0.1,0.1-0.2,0.2-0.2h1.9
					C94.8,27,94.9,27.1,94.9,27.2z M94.7,27.6c0.1,0,0.1,0,0.1-0.1v-0.3c0-0.1,0-0.1-0.1-0.1h-1.9c-0.1,0-0.1,0-0.1,0.1v0.3
					c0,0.1,0,0.1,0.1,0.1H94.7z"/>
			</g>
			<g>
				<rect x="89.4" y="27.7" fill="#B5C0C9" width="1.1" height="1.4"/>
				<rect x="89.4" y="27.7" fill="none" stroke="#FFFFFF" stroke-width="0.25" stroke-miterlimit="10" width="1.1" height="1.4"/>
				<path fill="#B5C0C9" d="M90.9,27c0.1,0,0.2,0.1,0.2,0.2v0.3c0,0.1-0.1,0.2-0.2,0.2H89c-0.1,0-0.2-0.1-0.2-0.2v-0.3
					c0-0.1,0.1-0.2,0.2-0.2H90.9z"/>
				<path fill="#FFFFFF" d="M91.1,27.2v0.3c0,0.1-0.1,0.2-0.2,0.2H89c-0.1,0-0.2-0.1-0.2-0.2v-0.3c0-0.1,0.1-0.2,0.2-0.2h1.9
					C91,27,91.1,27.1,91.1,27.2z M90.9,27.6c0.1,0,0.1,0,0.1-0.1v-0.3c0-0.1,0-0.1-0.1-0.1H89c-0.1,0-0.1,0-0.1,0.1v0.3
					c0,0.1,0,0.1,0.1,0.1H90.9z"/>
			</g>
			<g>
				<rect x="85.5" y="27.7" fill="#B5C0C9" width="1.1" height="1.4"/>
				<rect x="85.5" y="27.7" fill="none" stroke="#FFFFFF" stroke-width="0.25" stroke-miterlimit="10" width="1.1" height="1.4"/>
				<path fill="#B5C0C9" d="M87,27c0.1,0,0.2,0.1,0.2,0.2v0.3c0,0.1-0.1,0.2-0.2,0.2h-1.9c-0.1,0-0.2-0.1-0.2-0.2v-0.3
					c0-0.1,0.1-0.2,0.2-0.2H87z"/>
				<path fill="#FFFFFF" d="M87.2,27.2v0.3c0,0.1-0.1,0.2-0.2,0.2h-1.9c-0.1,0-0.2-0.1-0.2-0.2v-0.3c0-0.1,0.1-0.2,0.2-0.2H87
					C87.1,27,87.2,27.1,87.2,27.2z M87,27.6c0.1,0,0.1,0,0.1-0.1v-0.3c0-0.1,0-0.1-0.1-0.1h-1.9c-0.1,0-0.1,0-0.1,0.1v0.3
					c0,0.1,0,0.1,0.1,0.1H87z"/>
			</g>
			<g>
				<rect x="81.7" y="27.7" fill="#B5C0C9" width="1.1" height="1.4"/>
				<rect x="81.7" y="27.7" fill="none" stroke="#FFFFFF" stroke-width="0.25" stroke-miterlimit="10" width="1.1" height="1.4"/>
				<path fill="#B5C0C9" d="M83.1,27c0.1,0,0.2,0.1,0.2,0.2v0.3c0,0.1-0.1,0.2-0.2,0.2h-1.9c-0.1,0-0.2-0.1-0.2-0.2v-0.3
					c0-0.1,0.1-0.2,0.2-0.2H83.1z"/>
				<path fill="#FFFFFF" d="M83.4,27.2v0.3c0,0.1-0.1,0.2-0.2,0.2h-1.9c-0.1,0-0.2-0.1-0.2-0.2v-0.3c0-0.1,0.1-0.2,0.2-0.2h1.9
					C83.3,27,83.4,27.1,83.4,27.2z M83.1,27.6c0.1,0,0.1,0,0.1-0.1v-0.3c0-0.1,0-0.1-0.1-0.1h-1.9c-0.1,0-0.1,0-0.1,0.1v0.3
					c0,0.1,0,0.1,0.1,0.1H83.1z"/>
			</g>
			<g>
				<rect x="77.8" y="27.7" fill="#B5C0C9" width="1.1" height="1.4"/>
				<rect x="77.8" y="27.7" fill="none" stroke="#FFFFFF" stroke-width="0.25" stroke-miterlimit="10" width="1.1" height="1.4"/>
				<path fill="#B5C0C9" d="M79.2,27c0.1,0,0.2,0.1,0.2,0.2v0.3c0,0.1-0.1,0.2-0.2,0.2h-1.9c-0.1,0-0.2-0.1-0.2-0.2v-0.3
					c0-0.1,0.1-0.2,0.2-0.2H79.2z"/>
				<path fill="#FFFFFF" d="M79.5,27.2v0.3c0,0.1-0.1,0.2-0.2,0.2h-1.9c-0.1,0-0.2-0.1-0.2-0.2v-0.3c0-0.1,0.1-0.2,0.2-0.2h1.9
					C79.4,27,79.5,27.1,79.5,27.2z M79.2,27.6c0.1,0,0.1,0,0.1-0.1v-0.3c0-0.1,0-0.1-0.1-0.1h-1.9c-0.1,0-0.1,0-0.1,0.1v0.3
					c0,0.1,0,0.1,0.1,0.1H79.2z"/>
			</g>
			<g>
				<rect x="73.9" y="27.7" fill="#B5C0C9" width="1.1" height="1.4"/>
				<rect x="73.9" y="27.7" fill="none" stroke="#FFFFFF" stroke-width="0.25" stroke-miterlimit="10" width="1.1" height="1.4"/>
				<path fill="#B5C0C9" d="M75.4,27c0.1,0,0.2,0.1,0.2,0.2v0.3c0,0.1-0.1,0.2-0.2,0.2h-1.9c-0.1,0-0.2-0.1-0.2-0.2v-0.3
					c0-0.1,0.1-0.2,0.2-0.2H75.4z"/>
				<path fill="#FFFFFF" d="M75.6,27.2v0.3c0,0.1-0.1,0.2-0.2,0.2h-1.9c-0.1,0-0.2-0.1-0.2-0.2v-0.3c0-0.1,0.1-0.2,0.2-0.2h1.9
					C75.5,27,75.6,27.1,75.6,27.2z M75.4,27.6c0.1,0,0.1,0,0.1-0.1v-0.3c0-0.1,0-0.1-0.1-0.1h-1.9c-0.1,0-0.1,0-0.1,0.1v0.3
					c0,0.1,0,0.1,0.1,0.1H75.4z"/>
			</g>
			<g>
				<rect x="70" y="27.7" fill="#B5C0C9" width="1.1" height="1.4"/>
				<rect x="70" y="27.7" fill="none" stroke="#FFFFFF" stroke-width="0.25" stroke-miterlimit="10" width="1.1" height="1.4"/>
				<path fill="#B5C0C9" d="M71.5,27c0.1,0,0.2,0.1,0.2,0.2v0.3c0,0.1-0.1,0.2-0.2,0.2h-1.9c-0.1,0-0.2-0.1-0.2-0.2v-0.3
					c0-0.1,0.1-0.2,0.2-0.2H71.5z"/>
				<path fill="#FFFFFF" d="M71.7,27.2v0.3c0,0.1-0.1,0.2-0.2,0.2h-1.9c-0.1,0-0.2-0.1-0.2-0.2v-0.3c0-0.1,0.1-0.2,0.2-0.2h1.9
					C71.6,27,71.7,27.1,71.7,27.2z M71.5,27.6c0.1,0,0.1,0,0.1-0.1v-0.3c0-0.1,0-0.1-0.1-0.1h-1.9c-0.1,0-0.1,0-0.1,0.1v0.3
					c0,0.1,0,0.1,0.1,0.1H71.5z"/>
			</g>
			<g>
				<rect x="66.1" y="27.7" fill="#B5C0C9" width="1.1" height="1.4"/>
				<rect x="66.1" y="27.7" fill="none" stroke="#FFFFFF" stroke-width="0.25" stroke-miterlimit="10" width="1.1" height="1.4"/>
				<path fill="#B5C0C9" d="M67.6,27c0.1,0,0.2,0.1,0.2,0.2v0.3c0,0.1-0.1,0.2-0.2,0.2h-1.9c-0.1,0-0.2-0.1-0.2-0.2v-0.3
					c0-0.1,0.1-0.2,0.2-0.2H67.6z"/>
				<path fill="#FFFFFF" d="M67.9,27.2v0.3c0,0.1-0.1,0.2-0.2,0.2h-1.9c-0.1,0-0.2-0.1-0.2-0.2v-0.3c0-0.1,0.1-0.2,0.2-0.2h1.9
					C67.7,27,67.9,27.1,67.9,27.2z M67.6,27.6c0.1,0,0.1,0,0.1-0.1v-0.3c0-0.1,0-0.1-0.1-0.1h-1.9c-0.1,0-0.1,0-0.1,0.1v0.3
					c0,0.1,0,0.1,0.1,0.1H67.6z"/>
			</g>
		</g>
		<rect x="64.4" y="17.5" fill="#B5C0C9" width="32.1" height="9.9"/>
		<path fill="#FFFFFF" d="M96.6,27.4H64.4v-9.9h32.2V27.4z M64.4,27.3h32v-9.8h-32V27.3z"/>
		<path fill="#B5C0C9" d="M96.3,27.5c-0.1,0-0.2-0.1-0.2-0.2v-9.8c0-0.1,0.1-0.2,0.2-0.2h0.5c0.1,0,0.2,0.1,0.2,0.2v9.8
			c0,0.1-0.1,0.2-0.2,0.2H96.3z"/>
		<path fill="#FFFFFF" d="M96.8,27.6h-0.5c-0.1,0-0.3-0.1-0.3-0.3v-9.8c0-0.1,0.1-0.3,0.3-0.3h0.5c0.1,0,0.3,0.1,0.3,0.3v9.8
			C97,27.4,96.9,27.6,96.8,27.6z M96.3,17.3c-0.1,0-0.2,0.1-0.2,0.2v9.8c0,0.1,0.1,0.2,0.2,0.2h0.5c0.1,0,0.2-0.1,0.2-0.2v-9.8
			c0-0.1-0.1-0.2-0.2-0.2H96.3z"/>
		<path fill="#B5C0C9" d="M63.9,27.5c-0.1,0-0.2-0.1-0.2-0.2v-9.8c0-0.1,0.1-0.2,0.2-0.2h0.5c0.1,0,0.2,0.1,0.2,0.2v9.8
			c0,0.1-0.1,0.2-0.2,0.2H63.9z"/>
		<path fill="#FFFFFF" d="M64.4,27.6h-0.5c-0.1,0-0.3-0.1-0.3-0.3v-9.8c0-0.1,0.1-0.3,0.3-0.3h0.5c0.1,0,0.3,0.1,0.3,0.3v9.8
			C64.7,27.4,64.5,27.6,64.4,27.6z M63.9,17.3c-0.1,0-0.2,0.1-0.2,0.2v9.8c0,0.1,0.1,0.2,0.2,0.2h0.5c0.1,0,0.2-0.1,0.2-0.2v-9.8
			c0-0.1-0.1-0.2-0.2-0.2H63.9z"/>
	</g>
	<rect x="63.6" y="20.9" fill="none" width="33.2" height="4.4"/>
	<text transform="matrix(1 0 0 1 69.809 23.8984)" fill="#0F1F30" font-family="'Helvetica-Light'" font-size="4.2291">Multiswitch</text>
</g>
<text transform="matrix(1 0 0 1 66.8773 82.1107)" fill="#FFFFFF" font-family="'Helvetica-LightOblique'" font-size="2.08">* If optional IP Autoswitch is installed</text>
</svg>
