<?xml version="1.0" encoding="utf-8"?>
<!-- Generator: Adobe Illustrator 17.1.0, SVG Export Plug-In . SVG Version: 6.00 Build 0)  -->
<!DOCTYPE svg PUBLIC "-//W3C//DTD SVG 1.1//EN" "http://www.w3.org/Graphics/SVG/1.1/DTD/svg11.dtd">
<svg version="1.1" id="Layer_1" xmlns="http://www.w3.org/2000/svg" xmlns:xlink="http://www.w3.org/1999/xlink" x="0px" y="0px"
	 viewBox="0 0 1744.4 1012.4" enable-background="new 0 0 1744.4 1012.4" xml:space="preserve">
<g>
	<g>
		<line fill="#FFFFFF" x1="788.5" y1="313.5" x2="788.5" y2="372.4"/>
		<rect x="786" y="313.5" fill="#FFFFFF" width="5" height="58.9"/>
	</g>
	<g>
		<line fill="#FFFFFF" x1="615.4" y1="224.5" x2="615.4" y2="314.2"/>
		<rect x="612.9" y="224.5" fill="#FFFFFF" width="5" height="89.7"/>
	</g>
	<g>
		<line fill="#FFFFFF" x1="787.3" y1="314.2" x2="614" y2="314.2"/>
		<rect x="614" y="311.7" fill="#FFFFFF" width="173.3" height="5"/>
	</g>
	<g>
		<line fill="#FFFFFF" x1="848" y1="314.2" x2="674.7" y2="314.2"/>
		<rect x="674.7" y="311.7" fill="#FFFFFF" width="173.3" height="5"/>
	</g>
	<g>
		<line fill="#FFFFFF" x1="895.5" y1="314.2" x2="736.5" y2="314.2"/>
		<rect x="736.5" y="311.7" fill="#FFFFFF" width="158.9" height="5"/>
	</g>
	<g>
		<line fill="#FFFFFF" x1="960.9" y1="313.5" x2="960.9" y2="372.4"/>
		<rect x="958.4" y="313.5" fill="#FFFFFF" width="5" height="58.9"/>
	</g>
	<g>
		<line fill="#FFFFFF" x1="1135.9" y1="180.4" x2="1135.9" y2="314.2"/>
		<rect x="1133.4" y="180.4" fill="#FFFFFF" width="5" height="133.8"/>
	</g>
	<g>
		<line fill="#FFFFFF" x1="958.4" y1="314.2" x2="1138.4" y2="314.2"/>
		<rect x="958.4" y="311.7" fill="#FFFFFF" width="180" height="5"/>
	</g>
	<g>
		<line fill="#FFFFFF" x1="756.4" y1="456.8" x2="756.4" y2="519.7"/>
		<rect x="753.8" y="456.8" fill="#FFFFFF" width="5" height="62.9"/>
	</g>
	<g>
		<line fill="#FFFFFF" x1="340.7" y1="517.2" x2="758.9" y2="517.2"/>
		<rect x="340.7" y="514.7" fill="#FFFFFF" width="418.2" height="5"/>
	</g>
	<g>
		<line fill="#FFFFFF" x1="1516.7" y1="514.7" x2="1516.7" y2="983.3"/>
		<rect x="1514.2" y="514.7" fill="#FFFFFF" width="5" height="468.7"/>
	</g>
	<g>
		<line fill="#FFFFFF" x1="892.9" y1="315.6" x2="892.9" y2="400.4"/>
		<rect x="890.4" y="315.6" fill="#FFFFFF" width="5" height="84.8"/>
	</g>
	<g>
		<line fill="#FFFFFF" x1="996.3" y1="427" x2="996.3" y2="516.1"/>
		<rect x="993.7" y="427" fill="#FFFFFF" width="5" height="89.1"/>
	</g>
	<g>
		<line fill="#FFFFFF" x1="1519.2" y1="517.2" x2="993.7" y2="517.2"/>
		<rect x="993.7" y="514.7" fill="#FFFFFF" width="525.5" height="5"/>
	</g>
	<g>
		<line fill="#FFFFFF" x1="472" y1="651.6" x2="472" y2="975.1"/>
		<rect x="469.5" y="651.6" fill="#FFFFFF" width="5" height="323.5"/>
	</g>
	<g>
		<line fill="#FFFFFF" x1="790.7" y1="433.9" x2="790.7" y2="655.6"/>
		<rect x="788.2" y="433.9" fill="#FFFFFF" width="5" height="221.7"/>
	</g>
	<g>
		<line fill="#FFFFFF" x1="859" y1="400" x2="859" y2="714.4"/>
		<rect x="856.5" y="439.3" fill="#FFFFFF" width="5" height="338.5"/>
	</g>
	<g>
		<line fill="#FFFFFF" x1="469.5" y1="653.1" x2="793.2" y2="653.1"/>
		<rect x="469.5" y="650.6" fill="#FFFFFF" width="323.7" height="5"/>
	</g>
	<g>
		<line fill="#FFFFFF" x1="1237.4" y1="722.3" x2="1237.4" y2="790.9"/>
		<rect x="1234.9" y="722.3" fill="#FFFFFF" width="5" height="68.6"/>
	</g>
	<g>
		<line fill="#FFFFFF" x1="960.9" y1="433.9" x2="960.9" y2="724.2"/>
		<rect x="958.4" y="433.9" fill="#FFFFFF" width="5" height="290.3"/>
	</g>
	<g>
		<line fill="#FFFFFF" x1="1239.9" y1="723" x2="958.4" y2="723"/>
		<rect x="958.4" y="720.5" fill="#FFFFFF" width="281.5" height="5"/>
	</g>
	<g>
		<line fill="#FFFFFF" x1="470.9" y1="972.6" x2="872.6" y2="972.6"/>
		<rect x="470.9" y="970.1" fill="#FFFFFF" width="401.7" height="5"/>
	</g>
	<line fill="#FFFFFF" x1="721.8" y1="157.4" x2="962.4" y2="157.4"/>
	<rect x="721.8" y="154.9" fill="#FFFFFF" width="240.6" height="5"/>
	<g>
		<g>
			<path fill="#FFFFFF" d="M697,228.4H533.6l-0.2-0.1c-0.7-0.3-18.3-6.4-25.8-24.9l-0.1-0.3V184l2.8-92.3l0-0.1
				c7.7-37.5,26.8-64.2,56.6-79.4C589.9,0.4,611.6,0,614,0l0.3,0c0.2,0,0.9,0,2.1,0c14.2,0,86.2,4.4,103.5,91.4l0,0.2l3.3,92.3
				l0,19.3l-0.1,0.3c-4.4,10.9-11.2,17-16.1,20.3c-5.4,3.6-9.7,4.6-9.8,4.6L697,228.4z M534.1,225.6h162.6c1.6-0.4,16.2-4.7,23.8-23
				V184l-3.3-92.2c-17-84.7-86.9-89-100.8-89c-1.2,0-1.9,0-1.9,0l-0.1,0l-0.4,0c-2.3,0-23.4,0.3-45.9,11.8
				c-29,14.8-47.6,40.8-55.1,77.4l-2.8,92l0,18.7C516.9,218.7,532.1,224.9,534.1,225.6z"/>
		</g>
		<g>
			<path fill="#2C3B47" d="M508.8,184.6v19c6.2,16.6,25.3,23.3,25.3,23.3h163.5c15.7-3.2,24.3-23.3,24.3-23.3v-19H508.8z"/>
		</g>
		<g>
			<path d="M721.8,203.2h-213c-0.1,0-0.2-0.1-0.2-0.2s0.1-0.2,0.2-0.2h213c0.1,0,0.2,0.1,0.2,0.2S721.9,203.2,721.8,203.2z"/>
		</g>
		<g>
			<path d="M721.8,203.8h-213c-0.1,0-0.2-0.1-0.2-0.2v-19c0-0.1,0.1-0.2,0.2-0.2h213c0.1,0,0.2,0.1,0.2,0.2v19
				C722.1,203.7,721.9,203.8,721.8,203.8z M509,203.3h212.6v-18.5H509V203.3z"/>
		</g>
		<g>
			<path d="M697.5,227.1H534.1c0,0-0.1,0-0.1,0c-0.2-0.1-19.2-6.9-25.4-23.4c0-0.1,0-0.2,0-0.2c0-0.1,0.1-0.1,0.2-0.1h213
				c0.1,0,0.2,0,0.2,0.1c0,0.1,0.1,0.1,0,0.2C721.9,203.9,713.3,223.8,697.5,227.1C697.6,227.1,697.6,227.1,697.5,227.1z
				 M534.1,226.6h163.4c14.3-3,22.8-20.2,23.9-22.8H509.1C515.2,219.5,533.2,226.3,534.1,226.6z"/>
		</g>
		<g>
			<path fill="#FFFFFF" d="M721.8,204.3h-213c-0.8,0-1.4-0.6-1.4-1.4s0.6-1.4,1.4-1.4h213c0.8,0,1.4,0.6,1.4,1.4
				S722.6,204.3,721.8,204.3z"/>
		</g>
		<g>
			<path fill="#FFFFFF" d="M721.8,185.4h-213c-0.8,0-1.4-0.6-1.4-1.4c0-0.8,0.6-1.4,1.4-1.4h213c0.8,0,1.4,0.6,1.4,1.4
				C723.2,184.7,722.6,185.4,721.8,185.4z"/>
		</g>
		<g>
			<g>
				<path fill="#FFFFFF" d="M538.9,166.3l11.7-29.8h3.2l11.4,29.8h-2.9l-3.4-9.4h-13.6l-3.5,9.4H538.9z M546.3,154.5H558l-5.8-15.7
					L546.3,154.5z"/>
			</g>
			<g>
				<path fill="#FFFFFF" d="M571.4,166.3h-2.5v-21.5h2.5v3c1-1,2-1.9,3.1-2.6s2.3-1,3.8-1c1.3,0,2.6,0.2,3.7,0.7
					c1.1,0.5,2.1,1.2,2.9,2.4c0.5,0.8,0.8,1.6,0.9,2.4c0.1,0.8,0.1,1.7,0.1,2.5v14h-2.5v-14c0-1.9-0.4-3.4-1.3-4.3
					c-0.9-1-2.3-1.4-4.3-1.4c-0.8,0-1.5,0.1-2.1,0.4c-0.6,0.2-1.2,0.5-1.7,0.9c-0.5,0.4-0.9,0.8-1.3,1.3c-0.4,0.5-0.6,1-0.8,1.6
					c-0.2,0.7-0.4,1.4-0.5,2c-0.1,0.6-0.1,1.3-0.1,2.1V166.3z"/>
			</g>
			<g>
				<path fill="#FFFFFF" d="M599.5,166.4c-0.3,0.1-0.7,0.2-1.2,0.3c-0.5,0.1-1,0.2-1.7,0.2c-1.2,0-2.2-0.3-2.8-0.9
					c-0.6-0.6-1-1.7-1-3.3v-15.7h-3v-2.1h3v-6h2.5v6h4v2.1h-4v14.7c0,0.5,0,1,0,1.4c0,0.4,0.1,0.7,0.2,1c0.1,0.2,0.4,0.4,0.6,0.5
					c0.3,0.1,0.7,0.2,1.2,0.2c0.3,0,0.7,0,1-0.1c0.3-0.1,0.7-0.1,1-0.2V166.4z"/>
			</g>
			<g>
				<path fill="#FFFFFF" d="M605,156.1c0,1.2,0.2,2.3,0.5,3.3s0.8,1.9,1.3,2.7c0.6,0.8,1.3,1.4,2.3,1.8c0.9,0.5,2,0.7,3.1,0.7
					c1.6,0,3-0.4,4.2-1.3c1.2-0.9,1.9-2.1,2.3-3.6h2.8c-0.3,1-0.7,2-1.2,2.8c-0.5,0.9-1.1,1.6-1.9,2.3c-0.7,0.6-1.6,1.2-2.6,1.5
					c-1,0.4-2.2,0.5-3.6,0.5c-1.7,0-3.2-0.3-4.4-0.9c-1.2-0.6-2.3-1.4-3.1-2.4c-0.8-1-1.4-2.2-1.8-3.6c-0.4-1.4-0.6-2.8-0.6-4.4
					c0-1.6,0.2-3.1,0.7-4.4c0.5-1.4,1.1-2.6,1.9-3.6c0.8-1,1.9-1.8,3.1-2.4c1.2-0.6,2.6-0.9,4.1-0.9c3,0,5.3,1,7,3
					c1.7,2,2.5,5,2.5,8.8H605z M619,154.1c0-1-0.1-2-0.4-3c-0.3-0.9-0.7-1.7-1.3-2.4c-0.6-0.7-1.3-1.2-2.1-1.6
					c-0.9-0.4-1.8-0.6-2.9-0.6s-2.1,0.2-2.9,0.6c-0.8,0.4-1.6,1-2.2,1.7c-0.6,0.7-1.1,1.5-1.4,2.4c-0.4,0.9-0.6,1.9-0.7,2.9H619z"/>
			</g>
			<g>
				<path fill="#FFFFFF" d="M629,166.3h-2.5v-21.5h2.5v3c1-1,2-1.9,3.1-2.6s2.3-1,3.8-1c1.3,0,2.6,0.2,3.7,0.7
					c1.1,0.5,2.1,1.2,2.9,2.4c0.5,0.8,0.8,1.6,0.9,2.4c0.1,0.8,0.1,1.7,0.1,2.5v14H641v-14c0-1.9-0.4-3.4-1.3-4.3
					c-0.9-1-2.3-1.4-4.3-1.4c-0.8,0-1.5,0.1-2.1,0.4c-0.6,0.2-1.2,0.5-1.7,0.9c-0.5,0.4-0.9,0.8-1.3,1.3c-0.4,0.5-0.6,1-0.8,1.6
					c-0.2,0.7-0.4,1.4-0.5,2c-0.1,0.6-0.1,1.3-0.1,2.1V166.3z"/>
			</g>
			<g>
				<path fill="#FFFFFF" d="M652,166.3h-2.5v-21.5h2.5v3c1-1,2-1.9,3.1-2.6s2.3-1,3.8-1c1.3,0,2.6,0.2,3.7,0.7
					c1.1,0.5,2.1,1.2,2.9,2.4c0.5,0.8,0.8,1.6,0.9,2.4c0.1,0.8,0.1,1.7,0.1,2.5v14h-2.5v-14c0-1.9-0.4-3.4-1.3-4.3
					c-0.9-1-2.3-1.4-4.3-1.4c-0.8,0-1.5,0.1-2.1,0.4c-0.6,0.2-1.2,0.5-1.7,0.9c-0.5,0.4-0.9,0.8-1.3,1.3c-0.4,0.5-0.6,1-0.8,1.6
					c-0.2,0.7-0.4,1.4-0.5,2c-0.1,0.6-0.1,1.3-0.1,2.1V166.3z"/>
			</g>
			<g>
				<path fill="#FFFFFF" d="M682.4,153.8c0.5-0.1,1-0.1,1.7-0.2c0.6-0.1,1.2-0.3,1.6-0.5c0.4-0.2,0.7-0.5,0.8-1
					c0.1-0.5,0.1-0.9,0.1-1.3c0-1.3-0.4-2.3-1.2-3.1c-0.8-0.8-2.2-1.2-4.1-1.2c-0.9,0-1.6,0.1-2.4,0.2c-0.7,0.2-1.3,0.4-1.9,0.8
					c-0.5,0.4-1,0.9-1.3,1.5c-0.3,0.6-0.6,1.4-0.7,2.3h-2.5c0.1-1.3,0.4-2.4,0.9-3.3c0.5-0.9,1.1-1.6,1.9-2.2c0.8-0.6,1.7-1,2.7-1.2
					c1-0.3,2.1-0.4,3.3-0.4c1.1,0,2.1,0.1,3,0.4c1,0.2,1.8,0.6,2.5,1.1c0.7,0.5,1.3,1.2,1.7,2c0.4,0.9,0.6,1.9,0.6,3.1v11.7
					c0,1,0.2,1.6,0.5,1.8c0.3,0.3,1,0.2,2.1-0.2v1.9c-0.2,0.1-0.5,0.1-0.8,0.2c-0.4,0.1-0.7,0.2-1.1,0.2c-0.4,0-0.8,0-1.1-0.1
					c-0.4-0.1-0.7-0.2-1-0.4c-0.2-0.2-0.4-0.5-0.6-0.7c-0.2-0.3-0.3-0.6-0.3-1c-0.1-0.3-0.1-0.7-0.1-1.1c-1,1.2-2.3,2-3.6,2.6
					c-1.4,0.6-2.8,0.9-4.4,0.9c-0.9,0-1.8-0.1-2.7-0.4c-0.9-0.2-1.6-0.6-2.3-1.2c-0.7-0.5-1.2-1.2-1.6-1.9c-0.4-0.8-0.6-1.7-0.6-2.7
					c0-3.6,2.5-5.8,7.5-6.5L682.4,153.8z M686.6,155c-1,0.4-2.1,0.7-3.2,0.9c-1.1,0.1-2.2,0.2-3.2,0.3c-1.9,0.1-3.4,0.6-4.5,1.3
					c-1.1,0.7-1.6,1.8-1.6,3.3c0,0.7,0.1,1.2,0.4,1.7c0.3,0.5,0.6,0.9,1,1.2c0.4,0.3,0.9,0.6,1.5,0.7c0.6,0.2,1.1,0.2,1.7,0.2
					c1,0,2-0.1,2.9-0.4c0.9-0.2,1.8-0.6,2.5-1.1c0.7-0.5,1.3-1.2,1.8-1.9c0.4-0.8,0.7-1.7,0.7-2.8V155z"/>
			</g>
		</g>
		<g>
			<path fill="#FFFFFF" d="M696.8,228.4h-163c-0.2,0-0.3,0-0.4-0.1c-0.7-0.3-18.3-6.4-25.8-24.9c-0.1-0.2-0.1-0.3-0.1-0.5v-19
				l2.8-92.2c0-0.1,0-0.2,0-0.2c7.7-37.5,26.8-64.2,56.6-79.4C589.9,0.4,611.6,0,614,0l0.3,0c0.2,0,0.9,0,2.1,0
				c14.2,0,86.2,4.4,103.5,91.4c0,0.1,0,0.1,0,0.2l3.3,92.3l0,19c0,0.2,0,0.4-0.1,0.5c-4.4,10.9-11.2,17-16.1,20.3
				c-5.4,3.6-9.7,4.6-9.8,4.6C697,228.4,696.9,228.4,696.8,228.4z M534.1,225.6h162.6c1.6-0.4,16.2-4.7,23.8-23V184l-3.3-92.2
				c-17-84.7-86.9-89-100.8-89c-1.2,0-1.9,0-1.9,0c0,0-0.1,0-0.1,0l-0.3,0c-2.3,0-23.4,0.3-45.9,11.8c-29,14.8-47.6,40.8-55.1,77.4
				l-2.8,92l0,18.7C516.9,218.7,532.1,224.9,534.1,225.6z"/>
		</g>
	</g>
	<g>
		<g>
			<path fill="#FFFFFF" d="M1247,116.9L1246,15.3c0,0-0.1-7-6.2-7h0.1c-6.1,0-6.2,7-6.2,7l-1.1,101.6H1247z"/>
		</g>
		<g>
			<path fill="#2C3B47" d="M1137.3,178.4h182.5v-50.5c0,0,1.2-6.6-19.6-8.5c0,0-64.5-6.9-162.4-8.2h-1.2
				c-97.9,1.3-162.4,8.2-162.4,8.2c-20.8,1.9-19.6,8.5-19.6,8.5v50.5H1137.3L1137.3,178.4z"/>
			<path fill="#FFFFFF" d="M1321.5,180.1H953V128c0-0.5,0-1.9,1.2-3.4c2.7-3.5,9.4-5.8,19.9-6.8c0.6-0.1,65.7-7,162.5-8.2h1.2
				c96.9,1.3,161.9,8.1,162.6,8.2c10.5,1,17.2,3.2,19.9,6.8c1.2,1.6,1.2,2.9,1.2,3.4V180.1z M956.3,176.8h361.9v-49.1l0,0
				c0,0-0.5-4.9-18.1-6.6c-0.7-0.1-65.6-6.9-162.3-8.2h-1.2c-96.7,1.3-161.6,8.1-162.2,8.2c-17.8,1.6-18.1,6.6-18.1,6.7l0.1,0.2
				l-0.1-0.1V176.8z"/>
		</g>
		<g>
			<path fill="#808080" d="M1121.4,135.1c0,2-1.6,3.6-3.6,3.6l0,0c-2,0-3.6-1.6-3.6-3.6v-21.9h7.1V135.1z"/>
			<path fill="#FFFFFF" d="M1117.8,139.2c-2.3,0-4.1-1.8-4.1-4.1v-21.9c0-0.3,0.2-0.6,0.6-0.6h7.1c0.3,0,0.6,0.2,0.6,0.6v21.9
				C1121.9,137.3,1120.1,139.2,1117.8,139.2z M1114.8,113.7v21.3c0,1.7,1.3,3,3,3c1.7,0,3-1.3,3-3v-21.3H1114.8z"/>
		</g>
		<g>
			<path fill="#808080" d="M1140.8,135.1c0,2-1.6,3.6-3.6,3.6l0,0c-2,0-3.6-1.6-3.6-3.6v-22.3h7.1V135.1z"/>
			<path fill="#FFFFFF" d="M1137.3,139.2c-2.3,0-4.1-1.8-4.1-4.1v-22.3c0-0.3,0.2-0.6,0.6-0.6h7.1c0.3,0,0.6,0.2,0.6,0.6v22.3
				C1141.4,137.3,1139.5,139.2,1137.3,139.2z M1134.3,113.4v21.7c0,1.7,1.3,3,3,3c1.7,0,3-1.3,3-3v-21.7H1134.3z"/>
		</g>
		<g>
			<path fill="#808080" d="M1160.2,135.1c0,2-1.6,3.6-3.6,3.6l0,0c-2,0-3.6-1.6-3.6-3.6v-22.3h7.1V135.1z"/>
			<path fill="#FFFFFF" d="M1156.7,139.2c-2.3,0-4.1-1.8-4.1-4.1v-22.3c0-0.3,0.2-0.6,0.6-0.6h7.1c0.3,0,0.6,0.2,0.6,0.6v22.3
				C1160.8,137.3,1158.9,139.2,1156.7,139.2z M1153.7,113.4v21.7c0,1.7,1.3,3,3,3c1.7,0,3-1.3,3-3v-21.7H1153.7z"/>
		</g>
		<g>
			<g>
				<path fill="#FFFFFF" d="M966.9,132.6h21.7v2.4h-9.4v27.4h-2.8V135h-9.4V132.6z"/>
			</g>
			<g>
				<path fill="#FFFFFF" d="M990,132.6h2.9l9,26.5l8.9-26.5h2.9l-10.4,29.8h-3.1L990,132.6z"/>
			</g>
			<g>
				<path fill="#FFFFFF" d="M1026.7,150.4v2.6h-10.5v-2.6H1026.7z"/>
			</g>
			<g>
				<path fill="#FFFFFF" d="M1031.7,162.4v-29.8h2.8v12.8h17.6v-12.8h2.8v29.8h-2.8v-14.6h-17.6v14.6H1031.7z"/>
			</g>
			<g>
				<path fill="#FFFFFF" d="M1075.8,141h2.5v21.5h-2.5v-3c-0.3,0.4-0.7,0.8-1.1,1.2c-0.4,0.4-0.9,0.8-1.4,1.1
					c-0.5,0.3-1.2,0.6-1.9,0.9s-1.5,0.4-2.5,0.4c-1.4,0-2.6-0.2-3.6-0.6c-1-0.4-1.7-1-2.3-1.7c-0.6-0.7-1-1.6-1.3-2.5
					c-0.3-1-0.4-2-0.4-3.1V141h2.5v14.1c0,1.8,0.4,3.3,1.3,4.2c0.9,1,2.3,1.5,4.2,1.5c1,0,1.9-0.2,2.8-0.6c0.8-0.4,1.5-1,2-1.7
					c0.6-0.7,1-1.6,1.3-2.6c0.3-1,0.5-2.1,0.5-3.3V141z"/>
			</g>
			<g>
				<path fill="#FFFFFF" d="M1087.1,162.4h-2.5v-29.8h2.5v11.8c0.8-1.3,1.9-2.3,3.3-3c1.4-0.7,2.8-1,4.4-1c1.6,0,3,0.3,4.2,0.9
					c1.2,0.6,2.2,1.4,3,2.5c0.8,1,1.4,2.2,1.8,3.6c0.4,1.4,0.6,2.8,0.6,4.3c0,1.6-0.2,3.1-0.5,4.4c-0.4,1.4-0.9,2.6-1.7,3.6
					c-0.8,1-1.8,1.8-3,2.4c-1.2,0.6-2.7,0.9-4.4,0.9c-0.7,0-1.4-0.1-2.1-0.3c-0.7-0.2-1.4-0.5-2.1-0.8c-0.7-0.4-1.3-0.8-1.9-1.3
					c-0.6-0.5-1-1.2-1.4-1.9h-0.1V162.4z M1087.1,151.6c0,1.3,0.2,2.5,0.5,3.6c0.3,1.1,0.8,2.1,1.4,2.9c0.6,0.8,1.4,1.5,2.3,1.9
					c0.9,0.5,1.9,0.7,3.1,0.7c1,0,2-0.2,2.9-0.6c0.9-0.4,1.7-0.9,2.3-1.6c0.7-0.7,1.2-1.6,1.6-2.6c0.4-1,0.6-2.2,0.6-3.6
					c0.1-1.4-0.1-2.6-0.3-3.8c-0.3-1.2-0.7-2.2-1.3-3.1c-0.6-0.9-1.4-1.6-2.3-2.1c-1-0.5-2.1-0.8-3.3-0.8c-1.1,0-2.1,0.2-3,0.7
					c-0.9,0.5-1.7,1.1-2.3,1.9c-0.6,0.8-1.1,1.8-1.4,2.9C1087.2,149.2,1087.1,150.4,1087.1,151.6z"/>
			</g>
		</g>
	</g>
	<g>
		<g>
			<g>
				<g id="XMLID_238_">
					<g>
						<rect x="991" y="347.3" fill="#3C4855" width="10.3" height="13"/>
					</g>
					<g>
						<rect x="991" y="347.3" fill="none" stroke="#FFFFFF" stroke-miterlimit="10" width="10.3" height="13"/>
					</g>
				</g>
				<g>
					
						<rect x="991.1" y="348.9" transform="matrix(0.9925 0.1219 -0.1219 0.9925 50.0005 -118.8735)" fill="#FFFFFF" width="10.3" height="0.3"/>
				</g>
				<g>
					
						<rect x="991.1" y="352.1" transform="matrix(0.9925 0.1219 -0.1219 0.9925 50.3819 -118.8502)" fill="#FFFFFF" width="10.3" height="0.3"/>
				</g>
				<g>
					
						<rect x="991.1" y="355.2" transform="matrix(0.9925 0.1219 -0.1219 0.9925 50.7634 -118.8268)" fill="#FFFFFF" width="10.3" height="0.3"/>
				</g>
				<g>
					
						<rect x="991.1" y="358.3" transform="matrix(0.9925 0.1219 -0.1219 0.9925 51.1449 -118.8035)" fill="#FFFFFF" width="10.3" height="0.3"/>
				</g>
				<g>
					
						<rect x="990.4" y="347.5" transform="matrix(0.9997 2.517704e-02 -2.517704e-02 0.9997 9.0677 -24.9715)" fill="#FFFFFF" width="11.5" height="0.3"/>
				</g>
				<path fill="#3C4855" stroke="#FFFFFF" stroke-miterlimit="10" d="M1004.5,365.8c0.9,0,1.6-0.7,1.6-1.6v-2.4
					c0-0.9-0.7-1.6-1.6-1.6h-16.6c-0.9,0-1.6,0.7-1.6,1.6v2.4c0,0.9,0.7,1.6,1.6,1.6H1004.5z"/>
			</g>
			<g>
				<g id="XMLID_237_">
					<g>
						<rect x="956.4" y="347.3" fill="#3C4855" width="10.3" height="13"/>
					</g>
					<g>
						<rect x="956.4" y="347.3" fill="none" stroke="#FFFFFF" stroke-miterlimit="10" width="10.3" height="13"/>
					</g>
				</g>
				<g>
					
						<rect x="956.5" y="348.9" transform="matrix(0.9925 0.1219 -0.1219 0.9925 49.7421 -114.6525)" fill="#FFFFFF" width="10.3" height="0.3"/>
				</g>
				<g>
					
						<rect x="956.5" y="352.1" transform="matrix(0.9925 0.1219 -0.1219 0.9925 50.1236 -114.6291)" fill="#FFFFFF" width="10.3" height="0.3"/>
				</g>
				<g>
					
						<rect x="956.5" y="355.2" transform="matrix(0.9925 0.1219 -0.1219 0.9925 50.5051 -114.6058)" fill="#FFFFFF" width="10.3" height="0.3"/>
				</g>
				<g>
					
						<rect x="956.5" y="358.3" transform="matrix(0.9925 0.1219 -0.1219 0.9925 50.8866 -114.5824)" fill="#FFFFFF" width="10.3" height="0.3"/>
				</g>
				<g>
					
						<rect x="955.8" y="347.5" transform="matrix(0.9997 2.517704e-02 -2.517704e-02 0.9997 9.0568 -24.0999)" fill="#FFFFFF" width="11.5" height="0.3"/>
				</g>
				<path fill="#3C4855" stroke="#FFFFFF" stroke-miterlimit="10" d="M969.8,365.8c0.9,0,1.6-0.7,1.6-1.6v-2.4
					c0-0.9-0.7-1.6-1.6-1.6h-16.6c-0.9,0-1.6,0.7-1.6,1.6v2.4c0,0.9,0.7,1.6,1.6,1.6H969.8z"/>
			</g>
			<g>
				<g id="XMLID_236_">
					<g>
						<rect x="921.8" y="347.3" fill="#3C4855" width="10.3" height="13"/>
					</g>
					<g>
						<rect x="921.8" y="347.3" fill="none" stroke="#FFFFFF" stroke-miterlimit="10" width="10.3" height="13"/>
					</g>
				</g>
				<g>
					
						<rect x="921.9" y="348.9" transform="matrix(0.9925 0.1219 -0.1219 0.9925 49.4838 -110.4314)" fill="#FFFFFF" width="10.3" height="0.3"/>
				</g>
				<g>
					
						<rect x="921.9" y="352.1" transform="matrix(0.9925 0.1219 -0.1219 0.9925 49.8653 -110.4081)" fill="#FFFFFF" width="10.3" height="0.3"/>
				</g>
				<g>
					
						<rect x="921.9" y="355.2" transform="matrix(0.9925 0.1219 -0.1219 0.9925 50.2468 -110.3848)" fill="#FFFFFF" width="10.3" height="0.3"/>
				</g>
				<g>
					
						<rect x="921.9" y="358.3" transform="matrix(0.9925 0.1219 -0.1219 0.9925 50.6283 -110.3614)" fill="#FFFFFF" width="10.3" height="0.3"/>
				</g>
				<g>
					
						<rect x="921.2" y="347.5" transform="matrix(0.9997 2.517704e-02 -2.517704e-02 0.9997 9.0458 -23.2284)" fill="#FFFFFF" width="11.5" height="0.3"/>
				</g>
				<path fill="#3C4855" stroke="#FFFFFF" stroke-miterlimit="10" d="M935.2,365.8c0.9,0,1.6-0.7,1.6-1.6v-2.4
					c0-0.9-0.7-1.6-1.6-1.6h-16.6c-0.9,0-1.6,0.7-1.6,1.6v2.4c0,0.9,0.7,1.6,1.6,1.6H935.2z"/>
			</g>
			<g>
				<g id="XMLID_235_">
					<g>
						<rect x="887.2" y="347.3" fill="#3C4855" width="10.3" height="13"/>
					</g>
					<g>
						<rect x="887.2" y="347.3" fill="none" stroke="#FFFFFF" stroke-miterlimit="10" width="10.3" height="13"/>
					</g>
				</g>
				<g>
					
						<rect x="887.3" y="348.9" transform="matrix(0.9925 0.1219 -0.1219 0.9925 49.2255 -106.2104)" fill="#FFFFFF" width="10.3" height="0.3"/>
				</g>
				<g>
					
						<rect x="887.3" y="352.1" transform="matrix(0.9925 0.1219 -0.1219 0.9925 49.607 -106.1871)" fill="#FFFFFF" width="10.3" height="0.3"/>
				</g>
				<g>
					
						<rect x="887.3" y="355.2" transform="matrix(0.9925 0.1219 -0.1219 0.9925 49.9885 -106.1637)" fill="#FFFFFF" width="10.3" height="0.3"/>
				</g>
				<g>
					
						<rect x="887.3" y="358.3" transform="matrix(0.9925 0.1219 -0.1219 0.9925 50.3699 -106.1404)" fill="#FFFFFF" width="10.3" height="0.3"/>
				</g>
				<g>
					
						<rect x="886.6" y="347.5" transform="matrix(0.9997 2.517704e-02 -2.517704e-02 0.9997 9.0348 -22.3568)" fill="#FFFFFF" width="11.5" height="0.3"/>
				</g>
				<path fill="#3C4855" stroke="#FFFFFF" stroke-miterlimit="10" d="M900.6,365.8c0.9,0,1.6-0.7,1.6-1.6v-2.4
					c0-0.9-0.7-1.6-1.6-1.6H884c-0.9,0-1.6,0.7-1.6,1.6v2.4c0,0.9,0.7,1.6,1.6,1.6H900.6z"/>
			</g>
			<g>
				<g id="XMLID_234_">
					<g>
						<rect x="852.6" y="347.3" fill="#3C4855" width="10.3" height="13"/>
					</g>
					<g>
						<rect x="852.6" y="347.3" fill="none" stroke="#FFFFFF" stroke-miterlimit="10" width="10.3" height="13"/>
					</g>
				</g>
				<g>
					
						<rect x="852.7" y="348.9" transform="matrix(0.9925 0.1219 -0.1219 0.9925 48.9672 -101.9894)" fill="#FFFFFF" width="10.3" height="0.3"/>
				</g>
				<g>
					
						<rect x="852.7" y="352.1" transform="matrix(0.9925 0.1219 -0.1219 0.9925 49.3487 -101.9661)" fill="#FFFFFF" width="10.3" height="0.3"/>
				</g>
				<g>
					
						<rect x="852.7" y="355.2" transform="matrix(0.9925 0.1219 -0.1219 0.9925 49.7302 -101.9427)" fill="#FFFFFF" width="10.3" height="0.3"/>
				</g>
				<g>
					
						<rect x="852.7" y="358.3" transform="matrix(0.9925 0.1219 -0.1219 0.9925 50.1116 -101.9194)" fill="#FFFFFF" width="10.3" height="0.3"/>
				</g>
				<g>
					
						<rect x="852" y="347.5" transform="matrix(0.9997 2.517704e-02 -2.517704e-02 0.9997 9.0239 -21.4852)" fill="#FFFFFF" width="11.5" height="0.3"/>
				</g>
				<path fill="#3C4855" stroke="#FFFFFF" stroke-miterlimit="10" d="M866,365.8c0.9,0,1.6-0.7,1.6-1.6v-2.4c0-0.9-0.7-1.6-1.6-1.6
					h-16.6c-0.9,0-1.6,0.7-1.6,1.6v2.4c0,0.9,0.7,1.6,1.6,1.6H866z"/>
			</g>
			<g>
				<g id="XMLID_233_">
					<g>
						<rect x="818" y="347.3" fill="#3C4855" width="10.3" height="13"/>
					</g>
					<g>
						<rect x="818" y="347.3" fill="none" stroke="#FFFFFF" stroke-miterlimit="10" width="10.3" height="13"/>
					</g>
				</g>
				<g>
					
						<rect x="818" y="348.9" transform="matrix(0.9925 0.1219 -0.1219 0.9925 48.7089 -97.7684)" fill="#FFFFFF" width="10.3" height="0.3"/>
				</g>
				<g>
					
						<rect x="818" y="352.1" transform="matrix(0.9925 0.1219 -0.1219 0.9925 49.0904 -97.745)" fill="#FFFFFF" width="10.3" height="0.3"/>
				</g>
				<g>
					
						<rect x="818" y="355.2" transform="matrix(0.9925 0.1219 -0.1219 0.9925 49.4719 -97.7217)" fill="#FFFFFF" width="10.3" height="0.3"/>
				</g>
				<g>
					
						<rect x="818" y="358.3" transform="matrix(0.9925 0.1219 -0.1219 0.9925 49.8533 -97.6983)" fill="#FFFFFF" width="10.3" height="0.3"/>
				</g>
				<g>
					
						<rect x="817.4" y="347.5" transform="matrix(0.9997 2.517704e-02 -2.517704e-02 0.9997 9.0129 -20.6137)" fill="#FFFFFF" width="11.5" height="0.3"/>
				</g>
				<path fill="#3C4855" stroke="#FFFFFF" stroke-miterlimit="10" d="M831.4,365.8c0.9,0,1.6-0.7,1.6-1.6v-2.4
					c0-0.9-0.7-1.6-1.6-1.6h-16.6c-0.9,0-1.6,0.7-1.6,1.6v2.4c0,0.9,0.7,1.6,1.6,1.6H831.4z"/>
			</g>
			<g>
				<g id="XMLID_232_">
					<g>
						<rect x="783.3" y="347.3" fill="#3C4855" width="10.3" height="13"/>
					</g>
					<g>
						<rect x="783.3" y="347.3" fill="none" stroke="#FFFFFF" stroke-miterlimit="10" width="10.3" height="13"/>
					</g>
				</g>
				<g>
					
						<rect x="783.4" y="348.9" transform="matrix(0.9925 0.1219 -0.1219 0.9925 48.4506 -93.5473)" fill="#FFFFFF" width="10.3" height="0.3"/>
				</g>
				<g>
					
						<rect x="783.4" y="352.1" transform="matrix(0.9925 0.1219 -0.1219 0.9925 48.8321 -93.524)" fill="#FFFFFF" width="10.3" height="0.3"/>
				</g>
				<g>
					
						<rect x="783.4" y="355.2" transform="matrix(0.9925 0.1219 -0.1219 0.9925 49.2135 -93.5007)" fill="#FFFFFF" width="10.3" height="0.3"/>
				</g>
				<g>
					
						<rect x="783.4" y="358.3" transform="matrix(0.9925 0.1219 -0.1219 0.9925 49.595 -93.4773)" fill="#FFFFFF" width="10.3" height="0.3"/>
				</g>
				<g>
					
						<rect x="782.7" y="347.5" transform="matrix(0.9997 2.517704e-02 -2.517704e-02 0.9997 9.0019 -19.7421)" fill="#FFFFFF" width="11.5" height="0.3"/>
				</g>
				<path fill="#3C4855" stroke="#FFFFFF" stroke-miterlimit="10" d="M796.7,365.8c0.9,0,1.6-0.7,1.6-1.6v-2.4
					c0-0.9-0.7-1.6-1.6-1.6h-16.6c-0.9,0-1.6,0.7-1.6,1.6v2.4c0,0.9,0.7,1.6,1.6,1.6H796.7z"/>
			</g>
			<g>
				<g id="XMLID_231_">
					<g>
						<rect x="748.7" y="347.3" fill="#3C4855" width="10.3" height="13"/>
					</g>
					<g>
						<rect x="748.7" y="347.3" fill="none" stroke="#FFFFFF" stroke-miterlimit="10" width="10.3" height="13"/>
					</g>
				</g>
				<g>
					
						<rect x="748.8" y="348.9" transform="matrix(0.9925 0.1219 -0.1219 0.9925 48.1923 -89.3263)" fill="#FFFFFF" width="10.3" height="0.3"/>
				</g>
				<g>
					
						<rect x="748.8" y="352.1" transform="matrix(0.9925 0.1219 -0.1219 0.9925 48.5738 -89.303)" fill="#FFFFFF" width="10.3" height="0.3"/>
				</g>
				<g>
					
						<rect x="748.8" y="355.2" transform="matrix(0.9925 0.1219 -0.1219 0.9925 48.9552 -89.2796)" fill="#FFFFFF" width="10.3" height="0.3"/>
				</g>
				<g>
					
						<rect x="748.8" y="358.3" transform="matrix(0.9925 0.1219 -0.1219 0.9925 49.3367 -89.2563)" fill="#FFFFFF" width="10.3" height="0.3"/>
				</g>
				<g>
					
						<rect x="748.1" y="347.5" transform="matrix(0.9997 2.517704e-02 -2.517704e-02 0.9997 8.9909 -18.8706)" fill="#FFFFFF" width="11.5" height="0.3"/>
				</g>
				<path fill="#3C4855" stroke="#FFFFFF" stroke-miterlimit="10" d="M762.1,365.8c0.9,0,1.6-0.7,1.6-1.6v-2.4
					c0-0.9-0.7-1.6-1.6-1.6h-16.6c-0.9,0-1.6,0.7-1.6,1.6v2.4c0,0.9,0.7,1.6,1.6,1.6H762.1z"/>
			</g>
		</g>
		<g>
			<g>
				<g id="XMLID_230_">
					<g>
						<rect x="991" y="456.7" fill="#3C4855" width="10.3" height="13"/>
					</g>
					<g>
						<rect x="991" y="456.7" fill="none" stroke="#FFFFFF" stroke-miterlimit="10" width="10.3" height="13"/>
					</g>
				</g>
				<g>
					
						<rect x="991.1" y="467.8" transform="matrix(0.9925 -0.1219 0.1219 0.9925 -49.626 124.9702)" fill="#FFFFFF" width="10.3" height="0.3"/>
				</g>
				<g>
					
						<rect x="991.1" y="464.7" transform="matrix(0.9925 -0.1219 0.1219 0.9925 -49.2445 124.9469)" fill="#FFFFFF" width="10.3" height="0.3"/>
				</g>
				<g>
					
						<rect x="991.1" y="461.5" transform="matrix(0.9925 -0.1219 0.1219 0.9925 -48.863 124.9235)" fill="#FFFFFF" width="10.3" height="0.3"/>
				</g>
				<g>
					
						<rect x="991.1" y="458.4" transform="matrix(0.9925 -0.1219 0.1219 0.9925 -48.4815 124.9002)" fill="#FFFFFF" width="10.3" height="0.3"/>
				</g>
				<g>
					
						<rect x="990.4" y="469.3" transform="matrix(0.9997 -2.517704e-02 2.517704e-02 0.9997 -11.5031 25.2305)" fill="#FFFFFF" width="11.5" height="0.3"/>
				</g>
				<path fill="#3C4855" stroke="#FFFFFF" stroke-miterlimit="10" d="M1004.5,451.3c0.9,0,1.6,0.7,1.6,1.6v2.4
					c0,0.9-0.7,1.6-1.6,1.6h-16.6c-0.9,0-1.6-0.7-1.6-1.6v-2.4c0-0.9,0.7-1.6,1.6-1.6H1004.5z"/>
			</g>
			<g>
				<g id="XMLID_229_">
					<g>
						<rect x="956.4" y="456.7" fill="#3C4855" width="10.3" height="13"/>
					</g>
					<g>
						<rect x="956.4" y="456.7" fill="none" stroke="#FFFFFF" stroke-miterlimit="10" width="10.3" height="13"/>
					</g>
				</g>
				<g>
					
						<rect x="956.5" y="467.8" transform="matrix(0.9925 -0.1219 0.1219 0.9925 -49.8843 120.7492)" fill="#FFFFFF" width="10.3" height="0.3"/>
				</g>
				<g>
					
						<rect x="956.5" y="464.7" transform="matrix(0.9925 -0.1219 0.1219 0.9925 -49.5028 120.7258)" fill="#FFFFFF" width="10.3" height="0.3"/>
				</g>
				<g>
					
						<rect x="956.5" y="461.5" transform="matrix(0.9925 -0.1219 0.1219 0.9925 -49.1213 120.7025)" fill="#FFFFFF" width="10.3" height="0.3"/>
				</g>
				<g>
					
						<rect x="956.5" y="458.4" transform="matrix(0.9925 -0.1219 0.1219 0.9925 -48.7398 120.6791)" fill="#FFFFFF" width="10.3" height="0.3"/>
				</g>
				<g>
					
						<rect x="955.8" y="469.3" transform="matrix(0.9997 -2.517704e-02 2.517704e-02 0.9997 -11.5141 24.3589)" fill="#FFFFFF" width="11.5" height="0.3"/>
				</g>
				<path fill="#3C4855" stroke="#FFFFFF" stroke-miterlimit="10" d="M969.8,451.3c0.9,0,1.6,0.7,1.6,1.6v2.4c0,0.9-0.7,1.6-1.6,1.6
					h-16.6c-0.9,0-1.6-0.7-1.6-1.6v-2.4c0-0.9,0.7-1.6,1.6-1.6H969.8z"/>
			</g>
			<g>
				<g id="XMLID_228_">
					<g>
						<rect x="921.8" y="456.7" fill="#3C4855" width="10.3" height="13"/>
					</g>
					<g>
						<rect x="921.8" y="456.7" fill="none" stroke="#FFFFFF" stroke-miterlimit="10" width="10.3" height="13"/>
					</g>
				</g>
				<g>
					
						<rect x="921.9" y="467.8" transform="matrix(0.9925 -0.1219 0.1219 0.9925 -50.1426 116.5281)" fill="#FFFFFF" width="10.3" height="0.3"/>
				</g>
				<g>
					
						<rect x="921.9" y="464.7" transform="matrix(0.9925 -0.1219 0.1219 0.9925 -49.7611 116.5048)" fill="#FFFFFF" width="10.3" height="0.3"/>
				</g>
				<g>
					
						<rect x="921.9" y="461.5" transform="matrix(0.9925 -0.1219 0.1219 0.9925 -49.3796 116.4815)" fill="#FFFFFF" width="10.3" height="0.3"/>
				</g>
				<g>
					
						<rect x="921.9" y="458.4" transform="matrix(0.9925 -0.1219 0.1219 0.9925 -48.9981 116.4581)" fill="#FFFFFF" width="10.3" height="0.3"/>
				</g>
				<g>
					
						<rect x="921.2" y="469.3" transform="matrix(0.9997 -2.517704e-02 2.517704e-02 0.9997 -11.5251 23.4874)" fill="#FFFFFF" width="11.5" height="0.3"/>
				</g>
				<path fill="#3C4855" stroke="#FFFFFF" stroke-miterlimit="10" d="M935.2,451.3c0.9,0,1.6,0.7,1.6,1.6v2.4c0,0.9-0.7,1.6-1.6,1.6
					h-16.6c-0.9,0-1.6-0.7-1.6-1.6v-2.4c0-0.9,0.7-1.6,1.6-1.6H935.2z"/>
			</g>
			<g>
				<g id="XMLID_227_">
					<g>
						<rect x="887.2" y="456.7" fill="#3C4855" width="10.3" height="13"/>
					</g>
					<g>
						<rect x="887.2" y="456.7" fill="none" stroke="#FFFFFF" stroke-miterlimit="10" width="10.3" height="13"/>
					</g>
				</g>
				<g>
					
						<rect x="887.3" y="467.8" transform="matrix(0.9925 -0.1219 0.1219 0.9925 -50.4009 112.3071)" fill="#FFFFFF" width="10.3" height="0.3"/>
				</g>
				<g>
					
						<rect x="887.3" y="464.7" transform="matrix(0.9925 -0.1219 0.1219 0.9925 -50.0194 112.2838)" fill="#FFFFFF" width="10.3" height="0.3"/>
				</g>
				<g>
					
						<rect x="887.3" y="461.5" transform="matrix(0.9925 -0.1219 0.1219 0.9925 -49.6379 112.2604)" fill="#FFFFFF" width="10.3" height="0.3"/>
				</g>
				<g>
					
						<rect x="887.3" y="458.4" transform="matrix(0.9925 -0.1219 0.1219 0.9925 -49.2565 112.2371)" fill="#FFFFFF" width="10.3" height="0.3"/>
				</g>
				<g>
					
						<rect x="886.6" y="469.3" transform="matrix(0.9997 -2.517704e-02 2.517704e-02 0.9997 -11.5361 22.6158)" fill="#FFFFFF" width="11.5" height="0.3"/>
				</g>
				<path fill="#3C4855" stroke="#FFFFFF" stroke-miterlimit="10" d="M900.6,451.3c0.9,0,1.6,0.7,1.6,1.6v2.4c0,0.9-0.7,1.6-1.6,1.6
					H884c-0.9,0-1.6-0.7-1.6-1.6v-2.4c0-0.9,0.7-1.6,1.6-1.6H900.6z"/>
			</g>
			<g>
				<g id="XMLID_226_">
					<g>
						<rect x="852.6" y="456.7" fill="#3C4855" width="10.3" height="13"/>
					</g>
					<g>
						<rect x="852.6" y="456.7" fill="none" stroke="#FFFFFF" stroke-miterlimit="10" width="10.3" height="13"/>
					</g>
				</g>
				<g>
					
						<rect x="852.7" y="467.8" transform="matrix(0.9925 -0.1219 0.1219 0.9925 -50.6592 108.0861)" fill="#FFFFFF" width="10.3" height="0.3"/>
				</g>
				<g>
					
						<rect x="852.7" y="464.7" transform="matrix(0.9925 -0.1219 0.1219 0.9925 -50.2777 108.0627)" fill="#FFFFFF" width="10.3" height="0.3"/>
				</g>
				<g>
					
						<rect x="852.7" y="461.5" transform="matrix(0.9925 -0.1219 0.1219 0.9925 -49.8962 108.0394)" fill="#FFFFFF" width="10.3" height="0.3"/>
				</g>
				<g>
					
						<rect x="852.7" y="458.4" transform="matrix(0.9925 -0.1219 0.1219 0.9925 -49.5148 108.0161)" fill="#FFFFFF" width="10.3" height="0.3"/>
				</g>
				<g>
					
						<rect x="852" y="469.3" transform="matrix(0.9997 -2.517704e-02 2.517704e-02 0.9997 -11.547 21.7442)" fill="#FFFFFF" width="11.5" height="0.3"/>
				</g>
				<path fill="#3C4855" stroke="#FFFFFF" stroke-miterlimit="10" d="M866,451.3c0.9,0,1.6,0.7,1.6,1.6v2.4c0,0.9-0.7,1.6-1.6,1.6
					h-16.6c-0.9,0-1.6-0.7-1.6-1.6v-2.4c0-0.9,0.7-1.6,1.6-1.6H866z"/>
			</g>
			<g>
				<g id="XMLID_225_">
					<g>
						<rect x="818" y="456.7" fill="#3C4855" width="10.3" height="13"/>
					</g>
					<g>
						<rect x="818" y="456.7" fill="none" stroke="#FFFFFF" stroke-miterlimit="10" width="10.3" height="13"/>
					</g>
				</g>
				<g>
					
						<rect x="818" y="467.8" transform="matrix(0.9925 -0.1219 0.1219 0.9925 -50.9175 103.8651)" fill="#FFFFFF" width="10.3" height="0.3"/>
				</g>
				<g>
					
						<rect x="818" y="464.7" transform="matrix(0.9925 -0.1219 0.1219 0.9925 -50.536 103.8417)" fill="#FFFFFF" width="10.3" height="0.3"/>
				</g>
				<g>
					
						<rect x="818" y="461.5" transform="matrix(0.9925 -0.1219 0.1219 0.9925 -50.1546 103.8184)" fill="#FFFFFF" width="10.3" height="0.3"/>
				</g>
				<g>
					
						<rect x="818" y="458.4" transform="matrix(0.9925 -0.1219 0.1219 0.9925 -49.7731 103.795)" fill="#FFFFFF" width="10.3" height="0.3"/>
				</g>
				<g>
					
						<rect x="817.4" y="469.3" transform="matrix(0.9997 -2.517704e-02 2.517704e-02 0.9997 -11.558 20.8727)" fill="#FFFFFF" width="11.5" height="0.3"/>
				</g>
				<path fill="#3C4855" stroke="#FFFFFF" stroke-miterlimit="10" d="M831.4,451.3c0.9,0,1.6,0.7,1.6,1.6v2.4c0,0.9-0.7,1.6-1.6,1.6
					h-16.6c-0.9,0-1.6-0.7-1.6-1.6v-2.4c0-0.9,0.7-1.6,1.6-1.6H831.4z"/>
			</g>
			<g>
				<g id="XMLID_224_">
					<g>
						<rect x="783.3" y="456.7" fill="#3C4855" width="10.3" height="13"/>
					</g>
					<g>
						<rect x="783.3" y="456.7" fill="none" stroke="#FFFFFF" stroke-miterlimit="10" width="10.3" height="13"/>
					</g>
				</g>
				<g>
					
						<rect x="783.4" y="467.8" transform="matrix(0.9925 -0.1219 0.1219 0.9925 -51.1758 99.644)" fill="#FFFFFF" width="10.3" height="0.3"/>
				</g>
				<g>
					
						<rect x="783.4" y="464.7" transform="matrix(0.9925 -0.1219 0.1219 0.9925 -50.7943 99.6207)" fill="#FFFFFF" width="10.3" height="0.3"/>
				</g>
				<g>
					
						<rect x="783.4" y="461.5" transform="matrix(0.9925 -0.1219 0.1219 0.9925 -50.4129 99.5973)" fill="#FFFFFF" width="10.3" height="0.3"/>
				</g>
				<g>
					
						<rect x="783.4" y="458.4" transform="matrix(0.9925 -0.1219 0.1219 0.9925 -50.0314 99.574)" fill="#FFFFFF" width="10.3" height="0.3"/>
				</g>
				<g>
					
						<rect x="782.7" y="469.3" transform="matrix(0.9997 -2.517704e-02 2.517704e-02 0.9997 -11.569 20.0011)" fill="#FFFFFF" width="11.5" height="0.3"/>
				</g>
				<path fill="#3C4855" stroke="#FFFFFF" stroke-miterlimit="10" d="M796.7,451.3c0.9,0,1.6,0.7,1.6,1.6v2.4c0,0.9-0.7,1.6-1.6,1.6
					h-16.6c-0.9,0-1.6-0.7-1.6-1.6v-2.4c0-0.9,0.7-1.6,1.6-1.6H796.7z"/>
			</g>
			<g>
				<g id="XMLID_223_">
					<g>
						<rect x="748.7" y="456.7" fill="#3C4855" width="10.3" height="13"/>
					</g>
					<g>
						<rect x="748.7" y="456.7" fill="none" stroke="#FFFFFF" stroke-miterlimit="10" width="10.3" height="13"/>
					</g>
				</g>
				<g>
					
						<rect x="748.8" y="467.8" transform="matrix(0.9925 -0.1219 0.1219 0.9925 -51.4341 95.423)" fill="#FFFFFF" width="10.3" height="0.3"/>
				</g>
				<g>
					
						<rect x="748.8" y="464.7" transform="matrix(0.9925 -0.1219 0.1219 0.9925 -51.0526 95.3997)" fill="#FFFFFF" width="10.3" height="0.3"/>
				</g>
				<g>
					
						<rect x="748.8" y="461.5" transform="matrix(0.9925 -0.1219 0.1219 0.9925 -50.6712 95.3763)" fill="#FFFFFF" width="10.3" height="0.3"/>
				</g>
				<g>
					
						<rect x="748.8" y="458.4" transform="matrix(0.9925 -0.1219 0.1219 0.9925 -50.2897 95.353)" fill="#FFFFFF" width="10.3" height="0.3"/>
				</g>
				<g>
					
						<rect x="748.1" y="469.3" transform="matrix(0.9997 -2.517704e-02 2.517704e-02 0.9997 -11.5799 19.1296)" fill="#FFFFFF" width="11.5" height="0.3"/>
				</g>
				<path fill="#3C4855" stroke="#FFFFFF" stroke-miterlimit="10" d="M762.1,451.3c0.9,0,1.6,0.7,1.6,1.6v2.4c0,0.9-0.7,1.6-1.6,1.6
					h-16.6c-0.9,0-1.6-0.7-1.6-1.6v-2.4c0-0.9,0.7-1.6,1.6-1.6H762.1z"/>
			</g>
		</g>
		<rect x="732.3" y="364" fill="#3C4855" stroke="#FFFFFF" stroke-miterlimit="10" width="289" height="88.7"/>
		
			<path fill="#808080" stroke="#FFFFFF" stroke-width="2" stroke-linecap="round" stroke-linejoin="round" stroke-miterlimit="10" d="
			M1019.4,454.4c-1,0-1.9-0.8-1.9-1.9v-88.3c0-1,0.8-1.9,1.9-1.9h4.4c1,0,1.9,0.8,1.9,1.9v88.3c0,1-0.8,1.9-1.9,1.9H1019.4z"/>
		
			<path fill="#808080" stroke="#FFFFFF" stroke-width="2" stroke-linecap="round" stroke-linejoin="round" stroke-miterlimit="10" d="
			M728.3,454.4c-1,0-1.9-0.8-1.9-1.9v-88.3c0-1,0.8-1.9,1.9-1.9h4.4c1,0,1.9,0.8,1.9,1.9v88.3c0,1-0.8,1.9-1.9,1.9H728.3z"/>
		<text transform="matrix(1 0 0 1 773.601 423.5874)" fill="#FFFFFF" font-family="'Helvetica-Light'" font-size="41.4115">Multiswitch</text>
	</g>
	<g>
		<g>
			<path fill="#808080" d="M1514.7,1010.5h207.2c1.5-9.1,4.4-26.9,4.4-34c0-9.7-1.7-41.9-1.7-41.9h-210.1h-3h-210.1
				c0,0-1.7,32.2-1.7,41.9c0,7.1,2.9,24.9,4.4,34h207.2H1514.7z"/>
			<path fill="#FFFFFF" d="M1721.9,1010.9h-417.9c-0.2,0-0.3-0.1-0.3-0.3c-2.9-17.2-4.4-28.9-4.4-34c0-9.6,1.7-41.6,1.7-41.9
				c0-0.2,0.1-0.3,0.3-0.3h423.2c0.2,0,0.3,0.1,0.3,0.3c0,0.3,1.7,32.3,1.7,41.9c0,5.1-1.5,16.9-4.4,34
				C1722.2,1010.7,1722.1,1010.9,1721.9,1010.9z M1304.3,1010.2h417.3c2.8-17,4.3-28.6,4.3-33.7c0-9.1-1.5-38.3-1.7-41.6h-422.6
				c-0.2,3.3-1.7,32.5-1.7,41.6C1300,981.6,1301.5,993.2,1304.3,1010.2z"/>
		</g>
		<g>
			<path fill="#3C4855" d="M1370.9,935.3c0,0,25.6,59.6,29.3,65.4h227.3c0,0,22.6-46,29.7-65.6L1370.9,935.3z"/>
			<path fill="#FFFFFF" d="M1627.9,1001.3h-228.1l-0.2-0.3c-3.7-5.7-28.3-63-29.3-65.5l-0.4-0.9l288.1-0.2l-0.3,0.8
				c-7.1,19.5-29.5,65.2-29.7,65.7L1627.9,1001.3z M1400.5,1000.1h226.6c2.1-4.2,22.2-45.4,29.2-64.3l-284.4,0.2
				C1375,943.3,1396.6,993.5,1400.5,1000.1z"/>
		</g>
		<g>
			<g>
				<path fill="#FFFFFF" d="M1442,970.1v13.5h-2.8v-29.8h11.7c3.3,0,5.8,0.6,7.5,1.8c1.7,1.2,2.6,3.2,2.6,6c0,1.9-0.4,3.4-1.1,4.5
					c-0.8,1.1-2,2-3.7,2.8c0.9,0.3,1.6,0.7,2.1,1.3c0.5,0.6,0.9,1.2,1.1,2c0.2,0.7,0.4,1.5,0.5,2.4c0.1,0.8,0.1,1.6,0.1,2.4
					c0,1.1,0.1,2.1,0.1,2.8c0.1,0.7,0.2,1.4,0.2,1.8c0.1,0.5,0.2,0.8,0.4,1.1c0.1,0.3,0.3,0.5,0.5,0.6v0.3h-3.1
					c-0.3-0.5-0.5-1.2-0.6-2.1c-0.1-0.9-0.2-1.8-0.3-2.8c-0.1-1-0.1-1.9-0.2-2.8c0-0.9-0.1-1.7-0.2-2.2c-0.2-0.8-0.4-1.4-0.8-1.9
					c-0.4-0.5-0.8-0.8-1.3-1.1c-0.5-0.2-1.1-0.4-1.8-0.5c-0.6-0.1-1.3-0.1-2-0.1H1442z M1450.8,967.7c1,0,2-0.1,2.9-0.3
					c0.9-0.2,1.7-0.6,2.3-1.1c0.7-0.5,1.2-1.1,1.6-1.8c0.4-0.7,0.6-1.6,0.6-2.7c0-1.1-0.2-2-0.6-2.7c-0.4-0.7-0.9-1.3-1.6-1.7
					c-0.7-0.4-1.4-0.7-2.3-0.9c-0.9-0.2-1.8-0.2-2.7-0.2h-8.9v11.5H1450.8z"/>
			</g>
			<g>
				<path fill="#FFFFFF" d="M1468,973.5c0,1.2,0.2,2.3,0.5,3.3c0.3,1,0.8,1.9,1.3,2.7c0.6,0.8,1.3,1.4,2.3,1.8
					c0.9,0.5,2,0.7,3.1,0.7c1.6,0,3-0.4,4.2-1.3c1.2-0.9,1.9-2.1,2.3-3.6h2.8c-0.3,1-0.7,2-1.2,2.8c-0.5,0.9-1.1,1.6-1.9,2.3
					c-0.7,0.6-1.6,1.2-2.6,1.5c-1,0.4-2.2,0.5-3.6,0.5c-1.7,0-3.2-0.3-4.4-0.9c-1.2-0.6-2.3-1.4-3.1-2.4c-0.8-1-1.4-2.2-1.8-3.6
					c-0.4-1.4-0.6-2.8-0.6-4.4s0.2-3.1,0.7-4.4c0.5-1.4,1.1-2.6,1.9-3.6c0.8-1,1.9-1.8,3.1-2.4c1.2-0.6,2.6-0.9,4.1-0.9
					c3,0,5.3,1,7,3c1.7,2,2.5,5,2.5,8.8H1468z M1482,971.4c0-1-0.1-2-0.4-3c-0.3-0.9-0.7-1.7-1.3-2.4c-0.6-0.7-1.3-1.2-2.1-1.6
					s-1.8-0.6-2.9-0.6c-1.1,0-2.1,0.2-2.9,0.6c-0.8,0.4-1.6,1-2.2,1.7c-0.6,0.7-1.1,1.5-1.4,2.4c-0.4,0.9-0.6,1.9-0.7,2.9H1482z"/>
			</g>
			<g>
				<path fill="#FFFFFF" d="M1504.7,968.9c-0.4-1.6-1.2-2.8-2.3-3.7c-1.1-0.9-2.4-1.3-4.1-1.3c-1.3,0-2.4,0.3-3.3,0.8
					c-0.9,0.5-1.7,1.2-2.2,2.1c-0.6,0.9-1,1.8-1.3,2.9c-0.3,1.1-0.4,2.2-0.4,3.3c0,1.1,0.1,2.2,0.4,3.3c0.3,1.1,0.7,2,1.3,2.9
					c0.6,0.9,1.3,1.5,2.2,2.1c0.9,0.5,2,0.8,3.3,0.8c1.8,0,3.3-0.5,4.5-1.5c1.1-1,1.8-2.4,2.1-4.2h2.7c-0.2,1.2-0.6,2.3-1.1,3.3
					c-0.5,1-1.1,1.8-1.9,2.5c-0.8,0.7-1.7,1.2-2.7,1.6c-1,0.4-2.3,0.6-3.6,0.6c-1.7,0-3.2-0.3-4.4-0.9c-1.2-0.6-2.3-1.4-3.1-2.4
					c-0.8-1-1.4-2.2-1.8-3.6c-0.4-1.4-0.6-2.9-0.6-4.4c0-1.5,0.2-2.9,0.6-4.3c0.4-1.4,1.1-2.6,1.9-3.6c0.8-1,1.9-1.9,3.1-2.5
					c1.2-0.6,2.6-0.9,4.2-0.9c2.5,0,4.5,0.6,6,1.8c1.5,1.2,2.5,3,2.9,5.5H1504.7z"/>
			</g>
			<g>
				<path fill="#FFFFFF" d="M1514,973.5c0,1.2,0.2,2.3,0.5,3.3c0.3,1,0.8,1.9,1.3,2.7c0.6,0.8,1.3,1.4,2.3,1.8
					c0.9,0.5,2,0.7,3.1,0.7c1.6,0,3-0.4,4.2-1.3c1.2-0.9,1.9-2.1,2.3-3.6h2.8c-0.3,1-0.7,2-1.2,2.8c-0.5,0.9-1.1,1.6-1.9,2.3
					c-0.7,0.6-1.6,1.2-2.7,1.5c-1,0.4-2.2,0.5-3.6,0.5c-1.7,0-3.2-0.3-4.4-0.9c-1.2-0.6-2.3-1.4-3.1-2.4c-0.8-1-1.4-2.2-1.8-3.6
					c-0.4-1.4-0.6-2.8-0.6-4.4s0.2-3.1,0.7-4.4c0.5-1.4,1.1-2.6,1.9-3.6c0.8-1,1.9-1.8,3.1-2.4c1.2-0.6,2.6-0.9,4.1-0.9
					c3,0,5.3,1,7,3c1.7,2,2.5,5,2.5,8.8H1514z M1528,971.4c0-1-0.1-2-0.4-3c-0.3-0.9-0.7-1.7-1.3-2.4c-0.6-0.7-1.3-1.2-2.1-1.6
					c-0.9-0.4-1.8-0.6-2.9-0.6s-2.1,0.2-2.9,0.6c-0.8,0.4-1.6,1-2.2,1.7c-0.6,0.7-1.1,1.5-1.4,2.4c-0.4,0.9-0.6,1.9-0.7,2.9H1528z"
					/>
			</g>
			<g>
				<path fill="#FFFFFF" d="M1535.8,957.5v-3.7h2.7v3.7H1535.8z M1535.9,983.6v-21.5h2.5v21.5H1535.9z"/>
			</g>
			<g>
				<path fill="#FFFFFF" d="M1542.5,962.2h2.7l7,18.4l7-18.4h2.7l-8.3,21.5h-2.8L1542.5,962.2z"/>
			</g>
			<g>
				<path fill="#FFFFFF" d="M1567,973.5c0,1.2,0.2,2.3,0.5,3.3c0.3,1,0.8,1.9,1.3,2.7c0.6,0.8,1.3,1.4,2.3,1.8
					c0.9,0.5,2,0.7,3.1,0.7c1.6,0,3-0.4,4.2-1.3c1.2-0.9,1.9-2.1,2.3-3.6h2.8c-0.3,1-0.7,2-1.2,2.8c-0.5,0.9-1.1,1.6-1.9,2.3
					c-0.7,0.6-1.6,1.2-2.6,1.5c-1,0.4-2.2,0.5-3.6,0.5c-1.7,0-3.2-0.3-4.4-0.9c-1.2-0.6-2.3-1.4-3.1-2.4c-0.8-1-1.4-2.2-1.8-3.6
					c-0.4-1.4-0.6-2.8-0.6-4.4s0.2-3.1,0.7-4.4c0.5-1.4,1.1-2.6,1.9-3.6c0.8-1,1.9-1.8,3.1-2.4c1.2-0.6,2.6-0.9,4.1-0.9
					c3,0,5.3,1,7,3c1.7,2,2.5,5,2.5,8.8H1567z M1581,971.4c0-1-0.1-2-0.4-3c-0.3-0.9-0.7-1.7-1.3-2.4c-0.6-0.7-1.3-1.2-2.1-1.6
					s-1.8-0.6-2.9-0.6c-1.1,0-2.1,0.2-2.9,0.6c-0.8,0.4-1.6,1-2.2,1.7c-0.6,0.7-1.1,1.5-1.4,2.4c-0.4,0.9-0.6,1.9-0.7,2.9H1581z"/>
			</g>
			<g>
				<path fill="#FFFFFF" d="M1591.1,983.6h-2.5v-21.5h2.5v4h0.1c0.7-1.7,1.6-2.9,2.7-3.6c1.1-0.7,2.5-1,4.3-1v2.7
					c-1.4,0-2.6,0.2-3.5,0.7c-0.9,0.5-1.6,1.1-2.2,1.9c-0.5,0.8-0.9,1.7-1.1,2.8c-0.2,1.1-0.3,2.2-0.3,3.4V983.6z"/>
			</g>
		</g>
		<g>
			<path fill="#231F20" d="M1614.1,1011.1h-242.7c-0.2,0-0.3-0.1-0.3-0.3c0-0.2,0.1-0.3,0.3-0.3h242.7c0.2,0,0.3,0.1,0.3,0.3
				C1614.4,1010.9,1614.3,1011.1,1614.1,1011.1z"/>
		</g>
		<g>
			<path fill="#3C4855" d="M1673.4,975.5c0,2.3-2.5,4.2-5.5,4.2c-3,0-5.5-1.9-5.5-4.2c0-2.3,2.5-4.2,5.5-4.2
				C1670.9,971.4,1673.4,973.2,1673.4,975.5z"/>
			<path fill="#FFFFFF" d="M1667.9,980.4c-3.4,0-6.1-2.2-6.1-4.8c0-2.6,2.7-4.8,6.1-4.8c3.4,0,6.2,2.2,6.2,4.8
				C1674,978.2,1671.3,980.4,1667.9,980.4z M1667.9,972c-2.7,0-4.9,1.6-4.9,3.5c0,2,2.2,3.6,4.9,3.6c2.7,0,4.9-1.6,4.9-3.6
				C1672.8,973.6,1670.6,972,1667.9,972z"/>
		</g>
		<g>
			<path fill="#3C4855" d="M1701.1,975.5c0-2.3,2.5-4.2,5.5-4.2c3,0,5.5,1.9,5.5,4.2c0,2.3-2.5,4.2-5.5,4.2
				C1703.6,979.7,1701.1,977.9,1701.1,975.5z"/>
			<path fill="#FFFFFF" d="M1706.6,980.4c-3.4,0-6.1-2.2-6.1-4.8c0-2.6,2.7-4.8,6.1-4.8c3.4,0,6.1,2.2,6.1,4.8
				C1712.7,978.2,1710,980.4,1706.6,980.4z M1706.6,972c-2.7,0-4.9,1.6-4.9,3.5c0,2,2.2,3.6,4.9,3.6c2.7,0,4.9-1.6,4.9-3.6
				C1711.5,973.6,1709.3,972,1706.6,972z"/>
		</g>
		<g>
			<path fill="#3C4855" d="M1688.2,965.8c-2.3,0-4.2-2.5-4.2-5.5c0-3,1.9-5.5,4.2-5.5c2.3,0,4.2,2.5,4.2,5.5
				C1692.4,963.3,1690.5,965.8,1688.2,965.8z"/>
			<path fill="#FFFFFF" d="M1688.2,966.4c-2.6,0-4.8-2.7-4.8-6.1c0-3.4,2.2-6.1,4.8-6.1c2.6,0,4.8,2.8,4.8,6.1
				C1693,963.7,1690.9,966.4,1688.2,966.4z M1688.2,955.4c-2,0-3.5,2.2-3.5,4.9c0,2.7,1.6,4.9,3.5,4.9c2,0,3.5-2.2,3.5-4.9
				C1691.8,957.6,1690.2,955.4,1688.2,955.4z"/>
		</g>
		<g>
			<path fill="#3C4855" d="M1687.4,986.2c2.3,0,4.2,2.5,4.2,5.5c0,3-1.9,5.5-4.2,5.5c-2.3,0-4.2-2.5-4.2-5.5
				C1683.2,988.6,1685.1,986.2,1687.4,986.2z"/>
			<path fill="#FFFFFF" d="M1687.4,997.8c-2.6,0-4.8-2.7-4.8-6.1c0-3.4,2.2-6.1,4.8-6.1c2.6,0,4.8,2.8,4.8,6.1
				C1692.2,995,1690,997.8,1687.4,997.8z M1687.4,986.8c-2,0-3.5,2.2-3.5,4.9c0,2.7,1.6,4.9,3.5,4.9c2,0,3.5-2.2,3.5-4.9
				C1690.9,989,1689.3,986.8,1687.4,986.8z"/>
		</g>
		<g>
			<path fill="#3C4855" d="M1693.5,976.3c0,3.3-2.6,5.9-5.9,5.9c-3.3,0-5.9-2.7-5.9-5.9c0-3.3,2.7-5.9,5.9-5.9
				C1690.9,970.4,1693.5,973,1693.5,976.3z"/>
			<path fill="#FFFFFF" d="M1687.6,982.9c-3.6,0-6.6-2.9-6.6-6.6s2.9-6.6,6.6-6.6c3.6,0,6.6,2.9,6.6,6.6S1691.2,982.9,1687.6,982.9z
				 M1687.6,971c-2.9,0-5.3,2.4-5.3,5.3c0,2.9,2.4,5.3,5.3,5.3c2.9,0,5.3-2.4,5.3-5.3C1692.9,973.4,1690.5,971,1687.6,971z"/>
		</g>
		<g>
			<path fill="#FFFFFF" d="M1724.6,1012.4h-421.1l-0.3-1.6c-2.9-17.5-4.4-29-4.4-34.3c0-9.6,1.7-40.7,1.7-42l0.1-1.8h426.8l0.1,1.8
				c0.1,1.3,1.7,32.4,1.7,42c0,5.3-1.5,16.8-4.4,34.3L1724.6,1012.4z M1306.7,1008.7h414.7c2.7-16.2,4.1-27.2,4.1-32.1
				c0-8.2-1.3-33.1-1.6-40h-419.6c-0.4,6.9-1.6,31.8-1.6,40C1302.6,981.4,1304,992.5,1306.7,1008.7z"/>
		</g>
		<g>
			<path fill="#3C4855" d="M1317.9,988.6c0-1.5,1.6-2.7,3.6-2.7h48.3c2,0,3.6,1.2,3.6,2.7v9.4c0,1.5-1.6,2.7-3.6,2.7h-48.3
				c-2,0-3.6-1.2-3.6-2.7V988.6z"/>
			<path fill="#FFFFFF" d="M1369.9,1001.3h-48.3c-2.3,0-4.3-1.5-4.3-3.4v-9.4c0-1.9,1.9-3.4,4.3-3.4h48.3c2.3,0,4.3,1.5,4.3,3.4v9.4
				C1374.1,999.8,1372.2,1001.3,1369.9,1001.3z M1321.6,986.5c-1.7,0-3,0.9-3,2.1v9.4c0,1.2,1.3,2.1,3,2.1h48.3c1.7,0,3-0.9,3-2.1
				v-9.4c0-1.2-1.3-2.1-3-2.1H1321.6z"/>
		</g>
	</g>
	<g>
		<line fill="#FFFFFF" x1="343.2" y1="514.7" x2="343.2" y2="969.2"/>
		<rect x="340.7" y="514.7" fill="#FFFFFF" width="5" height="454.5"/>
	</g>
	<g>
		<g>
			<path fill="#808080" d="M215.9,1010.5h207.2c1.5-9.1,4.4-26.9,4.4-34c0-9.7-1.7-41.9-1.7-41.9H215.6h-3H2.5
				c0,0-1.7,32.2-1.7,41.9c0,7.1,2.9,24.9,4.4,34h207.2H215.9z"/>
			<path fill="#FFFFFF" d="M423.1,1010.9H5.2c-0.2,0-0.3-0.1-0.3-0.3c-2.9-17.2-4.4-28.9-4.4-34c0-9.6,1.7-41.6,1.7-41.9
				c0-0.2,0.1-0.3,0.3-0.3h423.2c0.2,0,0.3,0.1,0.3,0.3c0,0.3,1.7,32.3,1.7,41.9c0,5.1-1.5,16.9-4.4,34
				C423.4,1010.7,423.2,1010.9,423.1,1010.9z M5.5,1010.2h417.3c2.8-17,4.3-28.6,4.3-33.7c0-9.1-1.5-38.3-1.7-41.6H2.8
				c-0.2,3.3-1.7,32.5-1.7,41.6C1.1,981.6,2.6,993.2,5.5,1010.2z"/>
		</g>
		<g>
			<path fill="#3C4855" d="M72.1,935.3c0,0,25.6,59.6,29.3,65.4h227.3c0,0,22.6-46,29.7-65.6L72.1,935.3z"/>
			<path fill="#FFFFFF" d="M329.1,1001.3H101l-0.2-0.3c-3.7-5.7-28.3-63-29.3-65.5l-0.4-0.9l288.1-0.2l-0.3,0.8
				c-7.1,19.5-29.5,65.2-29.7,65.7L329.1,1001.3z M101.7,1000.1h226.6c2.1-4.2,22.2-45.4,29.2-64.3L73,936
				C76.2,943.3,97.8,993.5,101.7,1000.1z"/>
		</g>
		<g>
			<g>
				<path fill="#FFFFFF" d="M143.1,970.1v13.5h-2.8v-29.8H152c3.3,0,5.8,0.6,7.5,1.8c1.7,1.2,2.6,3.2,2.6,6c0,1.9-0.4,3.4-1.1,4.5
					c-0.8,1.1-2,2-3.7,2.8c0.9,0.3,1.6,0.7,2.1,1.3c0.5,0.6,0.9,1.2,1.1,2c0.2,0.7,0.4,1.5,0.5,2.4c0.1,0.8,0.1,1.6,0.1,2.4
					c0,1.1,0.1,2.1,0.1,2.8c0.1,0.7,0.2,1.4,0.2,1.8c0.1,0.5,0.2,0.8,0.4,1.1c0.1,0.3,0.3,0.5,0.5,0.6v0.3h-3.1
					c-0.3-0.5-0.5-1.2-0.6-2.1c-0.1-0.9-0.2-1.8-0.3-2.8c-0.1-1-0.1-1.9-0.2-2.8c0-0.9-0.1-1.7-0.2-2.2c-0.2-0.8-0.4-1.4-0.8-1.9
					c-0.4-0.5-0.8-0.8-1.3-1.1c-0.5-0.2-1.1-0.4-1.8-0.5c-0.6-0.1-1.3-0.1-2-0.1H143.1z M151.9,967.7c1,0,2-0.1,2.9-0.3
					c0.9-0.2,1.7-0.6,2.3-1.1c0.7-0.5,1.2-1.1,1.6-1.8c0.4-0.7,0.6-1.6,0.6-2.7c0-1.1-0.2-2-0.6-2.7c-0.4-0.7-0.9-1.3-1.6-1.7
					c-0.7-0.4-1.4-0.7-2.3-0.9c-0.9-0.2-1.8-0.2-2.7-0.2h-8.9v11.5H151.9z"/>
			</g>
			<g>
				<path fill="#FFFFFF" d="M169.2,973.5c0,1.2,0.2,2.3,0.5,3.3c0.3,1,0.8,1.9,1.3,2.7c0.6,0.8,1.3,1.4,2.3,1.8
					c0.9,0.5,2,0.7,3.1,0.7c1.6,0,3-0.4,4.2-1.3c1.2-0.9,1.9-2.1,2.3-3.6h2.8c-0.3,1-0.7,2-1.2,2.8c-0.5,0.9-1.1,1.6-1.9,2.3
					c-0.7,0.6-1.6,1.2-2.6,1.5c-1,0.4-2.2,0.5-3.6,0.5c-1.7,0-3.2-0.3-4.4-0.9c-1.2-0.6-2.3-1.4-3.1-2.4c-0.8-1-1.4-2.2-1.8-3.6
					c-0.4-1.4-0.6-2.8-0.6-4.4s0.2-3.1,0.7-4.4c0.5-1.4,1.1-2.6,1.9-3.6c0.8-1,1.9-1.8,3.1-2.4c1.2-0.6,2.6-0.9,4.1-0.9
					c3,0,5.3,1,7,3c1.7,2,2.5,5,2.5,8.8H169.2z M183.2,971.4c0-1-0.1-2-0.4-3c-0.3-0.9-0.7-1.7-1.3-2.4c-0.6-0.7-1.3-1.2-2.1-1.6
					c-0.9-0.4-1.8-0.6-2.9-0.6c-1.1,0-2.1,0.2-2.9,0.6c-0.8,0.4-1.6,1-2.2,1.7c-0.6,0.7-1.1,1.5-1.4,2.4c-0.4,0.9-0.6,1.9-0.7,2.9
					H183.2z"/>
			</g>
			<g>
				<path fill="#FFFFFF" d="M205.8,968.9c-0.4-1.6-1.2-2.8-2.3-3.7c-1.1-0.9-2.4-1.3-4.1-1.3c-1.3,0-2.4,0.3-3.3,0.8
					c-0.9,0.5-1.7,1.2-2.2,2.1c-0.6,0.9-1,1.8-1.3,2.9c-0.3,1.1-0.4,2.2-0.4,3.3c0,1.1,0.1,2.2,0.4,3.3c0.3,1.1,0.7,2,1.3,2.9
					c0.6,0.9,1.3,1.5,2.2,2.1c0.9,0.5,2,0.8,3.3,0.8c1.8,0,3.3-0.5,4.5-1.5c1.1-1,1.8-2.4,2.1-4.2h2.7c-0.2,1.2-0.6,2.3-1.1,3.3
					c-0.5,1-1.1,1.8-1.9,2.5c-0.8,0.7-1.7,1.2-2.7,1.6c-1,0.4-2.3,0.6-3.6,0.6c-1.7,0-3.2-0.3-4.4-0.9c-1.2-0.6-2.3-1.4-3.1-2.4
					c-0.8-1-1.4-2.2-1.8-3.6c-0.4-1.4-0.6-2.9-0.6-4.4c0-1.5,0.2-2.9,0.6-4.3c0.4-1.4,1.1-2.6,1.9-3.6c0.8-1,1.9-1.9,3.1-2.5
					c1.2-0.6,2.6-0.9,4.2-0.9c2.5,0,4.5,0.6,6,1.8c1.5,1.2,2.5,3,2.9,5.5H205.8z"/>
			</g>
			<g>
				<path fill="#FFFFFF" d="M215.2,973.5c0,1.2,0.2,2.3,0.5,3.3c0.3,1,0.8,1.9,1.3,2.7c0.6,0.8,1.3,1.4,2.3,1.8
					c0.9,0.5,2,0.7,3.1,0.7c1.6,0,3-0.4,4.2-1.3c1.2-0.9,1.9-2.1,2.3-3.6h2.8c-0.3,1-0.7,2-1.2,2.8c-0.5,0.9-1.1,1.6-1.9,2.3
					c-0.7,0.6-1.6,1.2-2.6,1.5c-1,0.4-2.2,0.5-3.6,0.5c-1.7,0-3.2-0.3-4.4-0.9c-1.2-0.6-2.3-1.4-3.1-2.4c-0.8-1-1.4-2.2-1.8-3.6
					c-0.4-1.4-0.6-2.8-0.6-4.4s0.2-3.1,0.7-4.4c0.5-1.4,1.1-2.6,1.9-3.6c0.8-1,1.9-1.8,3.1-2.4c1.2-0.6,2.6-0.9,4.1-0.9
					c3,0,5.3,1,7,3c1.7,2,2.5,5,2.5,8.8H215.2z M229.2,971.4c0-1-0.1-2-0.4-3c-0.3-0.9-0.7-1.7-1.3-2.4c-0.6-0.7-1.3-1.2-2.1-1.6
					s-1.8-0.6-2.9-0.6c-1.1,0-2.1,0.2-2.9,0.6c-0.8,0.4-1.6,1-2.2,1.7c-0.6,0.7-1.1,1.5-1.4,2.4c-0.4,0.9-0.6,1.9-0.7,2.9H229.2z"/>
			</g>
			<g>
				<path fill="#FFFFFF" d="M236.9,957.5v-3.7h2.7v3.7H236.9z M237.1,983.6v-21.5h2.5v21.5H237.1z"/>
			</g>
			<g>
				<path fill="#FFFFFF" d="M243.6,962.2h2.7l7,18.4l7-18.4h2.7l-8.3,21.5h-2.8L243.6,962.2z"/>
			</g>
			<g>
				<path fill="#FFFFFF" d="M268.1,973.5c0,1.2,0.2,2.3,0.5,3.3c0.3,1,0.8,1.9,1.3,2.7c0.6,0.8,1.3,1.4,2.3,1.8
					c0.9,0.5,2,0.7,3.1,0.7c1.6,0,3-0.4,4.2-1.3c1.2-0.9,1.9-2.1,2.3-3.6h2.8c-0.3,1-0.7,2-1.2,2.8c-0.5,0.9-1.1,1.6-1.9,2.3
					c-0.7,0.6-1.6,1.2-2.6,1.5c-1,0.4-2.2,0.5-3.6,0.5c-1.7,0-3.2-0.3-4.4-0.9c-1.2-0.6-2.3-1.4-3.1-2.4c-0.8-1-1.4-2.2-1.8-3.6
					c-0.4-1.4-0.6-2.8-0.6-4.4s0.2-3.1,0.7-4.4c0.5-1.4,1.1-2.6,1.9-3.6c0.8-1,1.9-1.8,3.1-2.4c1.2-0.6,2.6-0.9,4.1-0.9
					c3,0,5.3,1,7,3c1.7,2,2.5,5,2.5,8.8H268.1z M282.1,971.4c0-1-0.1-2-0.4-3c-0.3-0.9-0.7-1.7-1.3-2.4c-0.6-0.7-1.3-1.2-2.1-1.6
					s-1.8-0.6-2.9-0.6c-1.1,0-2.1,0.2-2.9,0.6c-0.8,0.4-1.6,1-2.2,1.7c-0.6,0.7-1.1,1.5-1.4,2.4c-0.4,0.9-0.6,1.9-0.7,2.9H282.1z"/>
			</g>
			<g>
				<path fill="#FFFFFF" d="M292.2,983.6h-2.5v-21.5h2.5v4h0.1c0.7-1.7,1.6-2.9,2.7-3.6c1.1-0.7,2.5-1,4.3-1v2.7
					c-1.4,0-2.6,0.2-3.5,0.7c-0.9,0.5-1.6,1.1-2.2,1.9c-0.5,0.8-0.9,1.7-1.1,2.8c-0.2,1.1-0.3,2.2-0.3,3.4V983.6z"/>
			</g>
		</g>
		<g>
			<path fill="#231F20" d="M315.3,1011.1H72.6c-0.2,0-0.3-0.1-0.3-0.3c0-0.2,0.1-0.3,0.3-0.3h242.7c0.2,0,0.3,0.1,0.3,0.3
				C315.6,1010.9,315.4,1011.1,315.3,1011.1z"/>
		</g>
		<g>
			<path fill="#3C4855" d="M374.5,975.5c0,2.3-2.5,4.2-5.5,4.2c-3,0-5.5-1.9-5.5-4.2c0-2.3,2.5-4.2,5.5-4.2
				C372.1,971.4,374.5,973.2,374.5,975.5z"/>
			<path fill="#FFFFFF" d="M369,980.4c-3.4,0-6.1-2.2-6.1-4.8c0-2.6,2.7-4.8,6.1-4.8c3.4,0,6.2,2.2,6.2,4.8
				C375.2,978.2,372.4,980.4,369,980.4z M369,972c-2.7,0-4.9,1.6-4.9,3.5c0,2,2.2,3.6,4.9,3.6c2.7,0,4.9-1.6,4.9-3.6
				C373.9,973.6,371.7,972,369,972z"/>
		</g>
		<g>
			<path fill="#3C4855" d="M402.3,975.5c0-2.3,2.5-4.2,5.5-4.2c3,0,5.5,1.9,5.5,4.2c0,2.3-2.5,4.2-5.5,4.2
				C404.7,979.7,402.3,977.9,402.3,975.5z"/>
			<path fill="#FFFFFF" d="M407.8,980.4c-3.4,0-6.1-2.2-6.1-4.8c0-2.6,2.7-4.8,6.1-4.8s6.1,2.2,6.1,4.8
				C413.9,978.2,411.2,980.4,407.8,980.4z M407.8,972c-2.7,0-4.9,1.6-4.9,3.5c0,2,2.2,3.6,4.9,3.6c2.7,0,4.9-1.6,4.9-3.6
				C412.6,973.6,410.5,972,407.8,972z"/>
		</g>
		<g>
			<path fill="#3C4855" d="M389.4,965.8c-2.3,0-4.2-2.5-4.2-5.5c0-3,1.9-5.5,4.2-5.5c2.3,0,4.2,2.5,4.2,5.5
				C393.6,963.3,391.7,965.8,389.4,965.8z"/>
			<path fill="#FFFFFF" d="M389.4,966.4c-2.6,0-4.8-2.7-4.8-6.1c0-3.4,2.2-6.1,4.8-6.1c2.6,0,4.8,2.8,4.8,6.1
				C394.2,963.7,392,966.4,389.4,966.4z M389.4,955.4c-2,0-3.5,2.2-3.5,4.9c0,2.7,1.6,4.9,3.5,4.9c2,0,3.5-2.2,3.5-4.9
				C392.9,957.6,391.3,955.4,389.4,955.4z"/>
		</g>
		<g>
			<path fill="#3C4855" d="M388.5,986.2c2.3,0,4.2,2.5,4.2,5.5c0,3-1.9,5.5-4.2,5.5c-2.3,0-4.2-2.5-4.2-5.5
				C384.3,988.6,386.2,986.2,388.5,986.2z"/>
			<path fill="#FFFFFF" d="M388.5,997.8c-2.6,0-4.8-2.7-4.8-6.1c0-3.4,2.2-6.1,4.8-6.1c2.6,0,4.8,2.8,4.8,6.1
				C393.3,995,391.2,997.8,388.5,997.8z M388.5,986.8c-2,0-3.5,2.2-3.5,4.9c0,2.7,1.6,4.9,3.5,4.9c2,0,3.5-2.2,3.5-4.9
				C392.1,989,390.5,986.8,388.5,986.8z"/>
		</g>
		<g>
			<path fill="#3C4855" d="M394.6,976.3c0,3.3-2.6,5.9-5.9,5.9c-3.3,0-5.9-2.7-5.9-5.9c0-3.3,2.7-5.9,5.9-5.9
				C392,970.4,394.6,973,394.6,976.3z"/>
			<path fill="#FFFFFF" d="M388.7,982.9c-3.6,0-6.6-2.9-6.6-6.6s2.9-6.6,6.6-6.6c3.6,0,6.6,2.9,6.6,6.6S392.3,982.9,388.7,982.9z
				 M388.7,971c-2.9,0-5.3,2.4-5.3,5.3c0,2.9,2.4,5.3,5.3,5.3c2.9,0,5.3-2.4,5.3-5.3C394,973.4,391.6,971,388.7,971z"/>
		</g>
		<g>
			<path fill="#FFFFFF" d="M425.7,1012.4H4.7l-0.3-1.6c-2.9-17.5-4.4-29-4.4-34.3c0-9.6,1.7-40.7,1.7-42l0.1-1.8h426.8l0.1,1.8
				c0.1,1.3,1.7,32.4,1.7,42c0,5.3-1.5,16.8-4.4,34.3L425.7,1012.4z M7.9,1008.7h414.7c2.7-16.2,4.1-27.2,4.1-32.1
				c0-8.2-1.3-33.1-1.6-40H5.4c-0.4,6.9-1.6,31.8-1.6,40C3.8,981.4,5.2,992.5,7.9,1008.7z"/>
		</g>
		<g>
			<path fill="#3C4855" d="M19.1,988.6c0-1.5,1.6-2.7,3.6-2.7H71c2,0,3.6,1.2,3.6,2.7v9.4c0,1.5-1.6,2.7-3.6,2.7H22.7
				c-2,0-3.6-1.2-3.6-2.7V988.6z"/>
			<path fill="#FFFFFF" d="M71,1001.3H22.7c-2.3,0-4.3-1.5-4.3-3.4v-9.4c0-1.9,1.9-3.4,4.3-3.4H71c2.3,0,4.3,1.5,4.3,3.4v9.4
				C75.3,999.8,73.4,1001.3,71,1001.3z M22.7,986.5c-1.7,0-3,0.9-3,2.1v9.4c0,1.2,1.3,2.1,3,2.1H71c1.7,0,3-0.9,3-2.1v-9.4
				c0-1.2-1.3-2.1-3-2.1H22.7z"/>
		</g>
	</g>
	<g>
		<g>
			<path fill="#808080" d="M1002.6,1010.5h207.2c1.5-9.1,4.4-26.9,4.4-34c0-9.7-1.7-41.9-1.7-41.9h-210.1h-3H789.3
				c0,0-1.7,32.2-1.7,41.9c0,7.1,2.9,24.9,4.4,34h207.2H1002.6z"/>
			<path fill="#FFFFFF" d="M1209.8,1010.9H792c-0.2,0-0.3-0.1-0.3-0.3c-2.9-17.2-4.4-28.9-4.4-34c0-9.6,1.7-41.6,1.7-41.9
				c0-0.2,0.1-0.3,0.3-0.3h423.2c0.2,0,0.3,0.1,0.3,0.3c0,0.3,1.7,32.3,1.7,41.9c0,5.1-1.5,16.9-4.4,34
				C1210.1,1010.7,1210,1010.9,1209.8,1010.9z M792.2,1010.2h417.3c2.8-17,4.3-28.6,4.3-33.7c0-9.1-1.5-38.3-1.7-41.6H789.6
				c-0.2,3.3-1.7,32.5-1.7,41.6C787.9,981.6,789.4,993.2,792.2,1010.2z"/>
		</g>
		<g>
			<path fill="#3C4855" d="M858.8,935.3c0,0,25.6,59.6,29.3,65.4h227.3c0,0,22.6-46,29.7-65.6L858.8,935.3z"/>
			<path fill="#FFFFFF" d="M1115.8,1001.3H887.8l-0.2-0.3c-3.7-5.7-28.3-63-29.3-65.5l-0.4-0.9l288.1-0.2l-0.3,0.8
				c-7.1,19.5-29.5,65.2-29.7,65.7L1115.8,1001.3z M888.5,1000.1H1115c2.1-4.2,22.2-45.4,29.2-64.3L859.8,936
				C862.9,943.3,884.5,993.5,888.5,1000.1z"/>
		</g>
		<g>
			<g>
				<path fill="#FFFFFF" d="M929.9,970.1v13.5h-2.8v-29.8h11.7c3.3,0,5.8,0.6,7.5,1.8c1.7,1.2,2.6,3.2,2.6,6c0,1.9-0.4,3.4-1.1,4.5
					c-0.8,1.1-2,2-3.7,2.8c0.9,0.3,1.6,0.7,2.1,1.3c0.5,0.6,0.9,1.2,1.1,2c0.2,0.7,0.4,1.5,0.5,2.4c0.1,0.8,0.1,1.6,0.1,2.4
					c0,1.1,0.1,2.1,0.1,2.8c0.1,0.7,0.2,1.4,0.2,1.8c0.1,0.5,0.2,0.8,0.4,1.1c0.1,0.3,0.3,0.5,0.5,0.6v0.3H946
					c-0.3-0.5-0.5-1.2-0.6-2.1c-0.1-0.9-0.2-1.8-0.3-2.8c-0.1-1-0.1-1.9-0.2-2.8c0-0.9-0.1-1.7-0.2-2.2c-0.2-0.8-0.4-1.4-0.8-1.9
					c-0.4-0.5-0.8-0.8-1.3-1.1c-0.5-0.2-1.1-0.4-1.8-0.5c-0.6-0.1-1.3-0.1-2-0.1H929.9z M938.7,967.7c1,0,2-0.1,2.9-0.3
					c0.9-0.2,1.7-0.6,2.3-1.1c0.7-0.5,1.2-1.1,1.6-1.8c0.4-0.7,0.6-1.6,0.6-2.7c0-1.1-0.2-2-0.6-2.7c-0.4-0.7-0.9-1.3-1.6-1.7
					c-0.7-0.4-1.4-0.7-2.3-0.9c-0.9-0.2-1.8-0.2-2.7-0.2h-8.9v11.5H938.7z"/>
			</g>
			<g>
				<path fill="#FFFFFF" d="M955.9,973.5c0,1.2,0.2,2.3,0.5,3.3c0.3,1,0.8,1.9,1.3,2.7c0.6,0.8,1.3,1.4,2.3,1.8
					c0.9,0.5,2,0.7,3.1,0.7c1.6,0,3-0.4,4.2-1.3c1.2-0.9,1.9-2.1,2.3-3.6h2.8c-0.3,1-0.7,2-1.2,2.8c-0.5,0.9-1.1,1.6-1.9,2.3
					c-0.7,0.6-1.6,1.2-2.6,1.5c-1,0.4-2.2,0.5-3.6,0.5c-1.7,0-3.2-0.3-4.4-0.9c-1.2-0.6-2.3-1.4-3.1-2.4c-0.8-1-1.4-2.2-1.8-3.6
					c-0.4-1.4-0.6-2.8-0.6-4.4s0.2-3.1,0.7-4.4c0.5-1.4,1.1-2.6,1.9-3.6c0.8-1,1.9-1.8,3.1-2.4c1.2-0.6,2.6-0.9,4.1-0.9
					c3,0,5.3,1,7,3c1.7,2,2.5,5,2.5,8.8H955.9z M969.9,971.4c0-1-0.1-2-0.4-3c-0.3-0.9-0.7-1.7-1.3-2.4c-0.6-0.7-1.3-1.2-2.1-1.6
					c-0.9-0.4-1.8-0.6-2.9-0.6c-1.1,0-2.1,0.2-2.9,0.6c-0.8,0.4-1.6,1-2.2,1.7c-0.6,0.7-1.1,1.5-1.4,2.4c-0.4,0.9-0.6,1.9-0.7,2.9
					H969.9z"/>
			</g>
			<g>
				<path fill="#FFFFFF" d="M992.6,968.9c-0.4-1.6-1.2-2.8-2.3-3.7c-1.1-0.9-2.4-1.3-4.1-1.3c-1.3,0-2.4,0.3-3.3,0.8
					c-0.9,0.5-1.7,1.2-2.2,2.1c-0.6,0.9-1,1.8-1.3,2.9c-0.3,1.1-0.4,2.2-0.4,3.3c0,1.1,0.1,2.2,0.4,3.3c0.3,1.1,0.7,2,1.3,2.9
					c0.6,0.9,1.3,1.5,2.2,2.1c0.9,0.5,2,0.8,3.3,0.8c1.8,0,3.3-0.5,4.5-1.5c1.1-1,1.8-2.4,2.1-4.2h2.7c-0.2,1.2-0.6,2.3-1.1,3.3
					c-0.5,1-1.1,1.8-1.9,2.5c-0.8,0.7-1.7,1.2-2.7,1.6c-1,0.4-2.3,0.6-3.6,0.6c-1.7,0-3.2-0.3-4.4-0.9c-1.2-0.6-2.3-1.4-3.1-2.4
					c-0.8-1-1.4-2.2-1.8-3.6c-0.4-1.4-0.6-2.9-0.6-4.4c0-1.5,0.2-2.9,0.6-4.3c0.4-1.4,1.1-2.6,1.9-3.6c0.8-1,1.9-1.9,3.1-2.5
					c1.2-0.6,2.6-0.9,4.2-0.9c2.5,0,4.5,0.6,6,1.8c1.5,1.2,2.5,3,2.9,5.5H992.6z"/>
			</g>
			<g>
				<path fill="#FFFFFF" d="M1002,973.5c0,1.2,0.2,2.3,0.5,3.3c0.3,1,0.8,1.9,1.3,2.7c0.6,0.8,1.3,1.4,2.3,1.8
					c0.9,0.5,2,0.7,3.1,0.7c1.6,0,3-0.4,4.2-1.3c1.2-0.9,1.9-2.1,2.3-3.6h2.8c-0.3,1-0.7,2-1.2,2.8c-0.5,0.9-1.1,1.6-1.9,2.3
					c-0.7,0.6-1.6,1.2-2.6,1.5c-1,0.4-2.2,0.5-3.6,0.5c-1.7,0-3.2-0.3-4.4-0.9c-1.2-0.6-2.3-1.4-3.1-2.4c-0.8-1-1.4-2.2-1.8-3.6
					c-0.4-1.4-0.6-2.8-0.6-4.4s0.2-3.1,0.7-4.4c0.5-1.4,1.1-2.6,1.9-3.6c0.8-1,1.9-1.8,3.1-2.4c1.2-0.6,2.6-0.9,4.1-0.9
					c3,0,5.3,1,7,3c1.7,2,2.5,5,2.5,8.8H1002z M1016,971.4c0-1-0.1-2-0.4-3c-0.3-0.9-0.7-1.7-1.3-2.4c-0.6-0.7-1.3-1.2-2.1-1.6
					c-0.9-0.4-1.8-0.6-2.9-0.6s-2.1,0.2-2.9,0.6c-0.8,0.4-1.6,1-2.2,1.7c-0.6,0.7-1.1,1.5-1.4,2.4c-0.4,0.9-0.6,1.9-0.7,2.9H1016z"
					/>
			</g>
			<g>
				<path fill="#FFFFFF" d="M1023.7,957.5v-3.7h2.7v3.7H1023.7z M1023.8,983.6v-21.5h2.5v21.5H1023.8z"/>
			</g>
			<g>
				<path fill="#FFFFFF" d="M1030.4,962.2h2.7l7,18.4l7-18.4h2.7l-8.3,21.5h-2.8L1030.4,962.2z"/>
			</g>
			<g>
				<path fill="#FFFFFF" d="M1054.9,973.5c0,1.2,0.2,2.3,0.5,3.3c0.3,1,0.8,1.9,1.3,2.7c0.6,0.8,1.3,1.4,2.3,1.8
					c0.9,0.5,2,0.7,3.1,0.7c1.6,0,3-0.4,4.2-1.3c1.2-0.9,1.9-2.1,2.3-3.6h2.8c-0.3,1-0.7,2-1.2,2.8c-0.5,0.9-1.1,1.6-1.9,2.3
					c-0.7,0.6-1.6,1.2-2.6,1.5c-1,0.4-2.2,0.5-3.6,0.5c-1.7,0-3.2-0.3-4.4-0.9c-1.2-0.6-2.3-1.4-3.1-2.4c-0.8-1-1.4-2.2-1.8-3.6
					c-0.4-1.4-0.6-2.8-0.6-4.4s0.2-3.1,0.7-4.4c0.5-1.4,1.1-2.6,1.9-3.6c0.8-1,1.9-1.8,3.1-2.4c1.2-0.6,2.6-0.9,4.1-0.9
					c3,0,5.3,1,7,3c1.7,2,2.5,5,2.5,8.8H1054.9z M1068.9,971.4c0-1-0.1-2-0.4-3c-0.3-0.9-0.7-1.7-1.3-2.4c-0.6-0.7-1.3-1.2-2.1-1.6
					s-1.8-0.6-2.9-0.6c-1.1,0-2.1,0.2-2.9,0.6c-0.8,0.4-1.6,1-2.2,1.7c-0.6,0.7-1.1,1.5-1.4,2.4c-0.4,0.9-0.6,1.9-0.7,2.9H1068.9z"
					/>
			</g>
			<g>
				<path fill="#FFFFFF" d="M1079,983.6h-2.5v-21.5h2.5v4h0.1c0.7-1.7,1.6-2.9,2.7-3.6c1.1-0.7,2.5-1,4.3-1v2.7
					c-1.4,0-2.6,0.2-3.5,0.7c-0.9,0.5-1.6,1.1-2.2,1.9c-0.5,0.8-0.9,1.7-1.1,2.8c-0.2,1.1-0.3,2.2-0.3,3.4V983.6z"/>
			</g>
		</g>
		<g>
			<path fill="#231F20" d="M1102,1011.1H859.3c-0.2,0-0.3-0.1-0.3-0.3c0-0.2,0.1-0.3,0.3-0.3H1102c0.2,0,0.3,0.1,0.3,0.3
				C1102.3,1010.9,1102.2,1011.1,1102,1011.1z"/>
		</g>
		<g>
			<path fill="#3C4855" d="M1161.3,975.5c0,2.3-2.5,4.2-5.5,4.2c-3,0-5.5-1.9-5.5-4.2c0-2.3,2.5-4.2,5.5-4.2
				C1158.8,971.4,1161.3,973.2,1161.3,975.5z"/>
			<path fill="#FFFFFF" d="M1155.8,980.4c-3.4,0-6.1-2.2-6.1-4.8c0-2.6,2.7-4.8,6.1-4.8c3.4,0,6.2,2.2,6.2,4.8
				C1161.9,978.2,1159.2,980.4,1155.8,980.4z M1155.8,972c-2.7,0-4.9,1.6-4.9,3.5c0,2,2.2,3.6,4.9,3.6c2.7,0,4.9-1.6,4.9-3.6
				C1160.7,973.6,1158.5,972,1155.8,972z"/>
		</g>
		<g>
			<path fill="#3C4855" d="M1189,975.5c0-2.3,2.5-4.2,5.5-4.2c3,0,5.5,1.9,5.5,4.2c0,2.3-2.5,4.2-5.5,4.2
				C1191.5,979.7,1189,977.9,1189,975.5z"/>
			<path fill="#FFFFFF" d="M1194.5,980.4c-3.4,0-6.1-2.2-6.1-4.8c0-2.6,2.7-4.8,6.1-4.8s6.1,2.2,6.1,4.8
				C1200.7,978.2,1197.9,980.4,1194.5,980.4z M1194.5,972c-2.7,0-4.9,1.6-4.9,3.5c0,2,2.2,3.6,4.9,3.6c2.7,0,4.9-1.6,4.9-3.6
				C1199.4,973.6,1197.2,972,1194.5,972z"/>
		</g>
		<g>
			<path fill="#3C4855" d="M1176.2,965.8c-2.3,0-4.2-2.5-4.2-5.5c0-3,1.9-5.5,4.2-5.5c2.3,0,4.2,2.5,4.2,5.5
				C1180.3,963.3,1178.5,965.8,1176.2,965.8z"/>
			<path fill="#FFFFFF" d="M1176.2,966.4c-2.6,0-4.8-2.7-4.8-6.1c0-3.4,2.2-6.1,4.8-6.1c2.6,0,4.8,2.8,4.8,6.1
				C1181,963.7,1178.8,966.4,1176.2,966.4z M1176.2,955.4c-2,0-3.5,2.2-3.5,4.9c0,2.7,1.6,4.9,3.5,4.9c2,0,3.5-2.2,3.5-4.9
				C1179.7,957.6,1178.1,955.4,1176.2,955.4z"/>
		</g>
		<g>
			<path fill="#3C4855" d="M1175.3,986.2c2.3,0,4.2,2.5,4.2,5.5c0,3-1.9,5.5-4.2,5.5c-2.3,0-4.2-2.5-4.2-5.5
				C1171.1,988.6,1173,986.2,1175.3,986.2z"/>
			<path fill="#FFFFFF" d="M1175.3,997.8c-2.6,0-4.8-2.7-4.8-6.1c0-3.4,2.2-6.1,4.8-6.1c2.6,0,4.8,2.8,4.8,6.1
				C1180.1,995,1177.9,997.8,1175.3,997.8z M1175.3,986.8c-2,0-3.5,2.2-3.5,4.9c0,2.7,1.6,4.9,3.5,4.9c2,0,3.5-2.2,3.5-4.9
				C1178.8,989,1177.2,986.8,1175.3,986.8z"/>
		</g>
		<g>
			<path fill="#3C4855" d="M1181.4,976.3c0,3.3-2.6,5.9-5.9,5.9c-3.3,0-5.9-2.7-5.9-5.9c0-3.3,2.7-5.9,5.9-5.9
				C1178.8,970.4,1181.4,973,1181.4,976.3z"/>
			<path fill="#FFFFFF" d="M1175.5,982.9c-3.6,0-6.6-2.9-6.6-6.6s2.9-6.6,6.6-6.6c3.6,0,6.6,2.9,6.6,6.6S1179.1,982.9,1175.5,982.9z
				 M1175.5,971c-2.9,0-5.3,2.4-5.3,5.3c0,2.9,2.4,5.3,5.3,5.3c2.9,0,5.3-2.4,5.3-5.3C1180.8,973.4,1178.4,971,1175.5,971z"/>
		</g>
		<g>
			<path fill="#FFFFFF" d="M1212.5,1012.4H791.4l-0.3-1.6c-2.9-17.5-4.4-29-4.4-34.3c0-9.6,1.7-40.7,1.7-42l0.1-1.8h426.8l0.1,1.8
				c0.1,1.3,1.7,32.4,1.7,42c0,5.3-1.5,16.8-4.4,34.3L1212.5,1012.4z M794.6,1008.7h414.7c2.7-16.2,4.1-27.2,4.1-32.1
				c0-8.2-1.3-33.1-1.6-40H792.2c-0.4,6.9-1.6,31.8-1.6,40C790.5,981.4,792,992.5,794.6,1008.7z"/>
		</g>
		<g>
			<path fill="#3C4855" d="M805.9,988.6c0-1.5,1.6-2.7,3.6-2.7h48.3c2,0,3.6,1.2,3.6,2.7v9.4c0,1.5-1.6,2.7-3.6,2.7h-48.3
				c-2,0-3.6-1.2-3.6-2.7V988.6z"/>
			<path fill="#FFFFFF" d="M857.8,1001.3h-48.3c-2.3,0-4.3-1.5-4.3-3.4v-9.4c0-1.9,1.9-3.4,4.3-3.4h48.3c2.3,0,4.3,1.5,4.3,3.4v9.4
				C862,999.8,860.1,1001.3,857.8,1001.3z M809.5,986.5c-1.7,0-3,0.9-3,2.1v9.4c0,1.2,1.3,2.1,3,2.1h48.3c1.7,0,3-0.9,3-2.1v-9.4
				c0-1.2-1.3-2.1-3-2.1H809.5z"/>
		</g>
	</g>
	<g>
		<g>
			<path fill="#808080" d="M1237.5,855.3h207.2c1.5-9.1,4.4-26.9,4.4-34c0-9.7-1.7-41.9-1.7-41.9h-210.1h-3h-210.1
				c0,0-1.7,32.2-1.7,41.9c0,7.1,2.9,24.9,4.4,34h207.2H1237.5z"/>
			<path fill="#FFFFFF" d="M1444.7,855.6h-417.9c-0.2,0-0.3-0.1-0.3-0.3c-2.9-17.2-4.4-28.9-4.4-34c0-9.6,1.7-41.6,1.7-41.9
				c0-0.2,0.1-0.3,0.3-0.3h423.2c0.2,0,0.3,0.1,0.3,0.3c0,0.3,1.7,32.3,1.7,41.9c0,5.1-1.5,16.9-4.4,34
				C1445,855.5,1444.9,855.6,1444.7,855.6z M1027.1,855h417.3c2.8-17,4.3-28.6,4.3-33.7c0-9.1-1.5-38.3-1.7-41.6h-422.6
				c-0.2,3.3-1.7,32.5-1.7,41.6C1022.8,826.4,1024.3,838,1027.1,855z"/>
		</g>
		<g>
			<path fill="#3C4855" d="M1093.7,780.1c0,0,25.6,59.6,29.3,65.4h227.3c0,0,22.6-46,29.7-65.6L1093.7,780.1z"/>
			<path fill="#FFFFFF" d="M1350.7,846.1h-228.1l-0.2-0.3c-3.7-5.7-28.3-63-29.3-65.5l-0.4-0.9l288.1-0.2l-0.3,0.8
				c-7.1,19.5-29.5,65.2-29.7,65.7L1350.7,846.1z M1123.3,844.8h226.6c2.1-4.2,22.2-45.4,29.2-64.3l-284.4,0.2
				C1097.8,788,1119.4,838.2,1123.3,844.8z"/>
		</g>
		<g>
			<g>
				<path fill="#FFFFFF" d="M1164.8,814.8v13.5h-2.8v-29.8h11.7c3.3,0,5.8,0.6,7.5,1.8c1.7,1.2,2.6,3.2,2.6,6c0,1.9-0.4,3.4-1.1,4.5
					c-0.8,1.1-2,2-3.7,2.8c0.9,0.3,1.6,0.7,2.1,1.3c0.5,0.6,0.9,1.2,1.1,2c0.2,0.7,0.4,1.5,0.5,2.4c0.1,0.8,0.1,1.6,0.1,2.4
					c0,1.1,0.1,2.1,0.1,2.8c0.1,0.7,0.2,1.4,0.2,1.8c0.1,0.5,0.2,0.8,0.4,1.1c0.1,0.3,0.3,0.5,0.5,0.6v0.3h-3.1
					c-0.3-0.5-0.5-1.2-0.6-2.1c-0.1-0.9-0.2-1.8-0.3-2.8c-0.1-1-0.1-1.9-0.2-2.8c0-0.9-0.1-1.7-0.2-2.2c-0.2-0.8-0.4-1.4-0.8-1.9
					c-0.4-0.5-0.8-0.8-1.3-1.1c-0.5-0.2-1.1-0.4-1.8-0.5c-0.6-0.1-1.3-0.1-2-0.1H1164.8z M1173.6,812.4c1,0,2-0.1,2.9-0.3
					c0.9-0.2,1.7-0.6,2.3-1.1c0.7-0.5,1.2-1.1,1.6-1.8c0.4-0.7,0.6-1.6,0.6-2.7c0-1.1-0.2-2-0.6-2.7c-0.4-0.7-0.9-1.3-1.6-1.7
					c-0.7-0.4-1.4-0.7-2.3-0.9s-1.8-0.2-2.7-0.2h-8.9v11.5H1173.6z"/>
			</g>
			<g>
				<path fill="#FFFFFF" d="M1190.8,818.2c0,1.2,0.2,2.3,0.5,3.3c0.3,1,0.8,1.9,1.3,2.7c0.6,0.8,1.3,1.4,2.3,1.8
					c0.9,0.5,2,0.7,3.1,0.7c1.6,0,3-0.4,4.2-1.3c1.2-0.9,1.9-2.1,2.3-3.6h2.8c-0.3,1-0.7,2-1.2,2.8c-0.5,0.9-1.1,1.6-1.9,2.3
					c-0.7,0.6-1.6,1.2-2.7,1.5c-1,0.4-2.2,0.5-3.6,0.5c-1.7,0-3.2-0.3-4.4-0.9c-1.2-0.6-2.3-1.4-3.1-2.4c-0.8-1-1.4-2.2-1.8-3.6
					c-0.4-1.4-0.6-2.8-0.6-4.4c0-1.6,0.2-3.1,0.7-4.4c0.5-1.4,1.1-2.6,1.9-3.6c0.8-1,1.9-1.8,3.1-2.4c1.2-0.6,2.6-0.9,4.1-0.9
					c3,0,5.3,1,7,3c1.7,2,2.5,5,2.5,8.8H1190.8z M1204.8,816.2c0-1-0.1-2-0.4-3c-0.3-0.9-0.7-1.7-1.3-2.4c-0.6-0.7-1.3-1.2-2.1-1.6
					c-0.9-0.4-1.8-0.6-2.9-0.6s-2.1,0.2-2.9,0.6c-0.8,0.4-1.6,1-2.2,1.7c-0.6,0.7-1.1,1.5-1.4,2.4c-0.4,0.9-0.6,1.9-0.7,2.9H1204.8z
					"/>
			</g>
			<g>
				<path fill="#FFFFFF" d="M1227.5,813.7c-0.4-1.6-1.2-2.9-2.3-3.7c-1.1-0.9-2.4-1.3-4.1-1.3c-1.3,0-2.4,0.3-3.3,0.8
					c-0.9,0.5-1.7,1.2-2.2,2.1c-0.6,0.9-1,1.8-1.3,2.9c-0.3,1.1-0.4,2.2-0.4,3.3c0,1.1,0.1,2.2,0.4,3.3c0.3,1.1,0.7,2,1.3,2.9
					c0.6,0.9,1.3,1.5,2.2,2.1c0.9,0.5,2,0.8,3.3,0.8c1.8,0,3.3-0.5,4.5-1.5c1.1-1,1.8-2.4,2.1-4.2h2.7c-0.2,1.2-0.6,2.3-1.1,3.3
					c-0.5,1-1.1,1.8-1.9,2.5c-0.8,0.7-1.7,1.2-2.7,1.6c-1,0.4-2.3,0.6-3.6,0.6c-1.7,0-3.2-0.3-4.4-0.9c-1.2-0.6-2.3-1.4-3.1-2.4
					c-0.8-1-1.4-2.2-1.8-3.6c-0.4-1.4-0.6-2.9-0.6-4.4c0-1.5,0.2-2.9,0.6-4.3c0.4-1.4,1.1-2.6,1.9-3.6c0.8-1,1.9-1.9,3.1-2.5
					c1.2-0.6,2.6-0.9,4.2-0.9c2.5,0,4.5,0.6,6,1.8c1.5,1.2,2.5,3,2.9,5.5H1227.5z"/>
			</g>
			<g>
				<path fill="#FFFFFF" d="M1236.9,818.2c0,1.2,0.2,2.3,0.5,3.3c0.3,1,0.8,1.9,1.3,2.7c0.6,0.8,1.3,1.4,2.3,1.8
					c0.9,0.5,2,0.7,3.1,0.7c1.6,0,3-0.4,4.2-1.3c1.2-0.9,1.9-2.1,2.3-3.6h2.8c-0.3,1-0.7,2-1.2,2.8c-0.5,0.9-1.1,1.6-1.9,2.3
					c-0.7,0.6-1.6,1.2-2.6,1.5c-1,0.4-2.2,0.5-3.6,0.5c-1.7,0-3.2-0.3-4.4-0.9c-1.2-0.6-2.3-1.4-3.1-2.4c-0.8-1-1.4-2.2-1.8-3.6
					c-0.4-1.4-0.6-2.8-0.6-4.4c0-1.6,0.2-3.1,0.7-4.4c0.5-1.4,1.1-2.6,1.9-3.6c0.8-1,1.9-1.8,3.1-2.4c1.2-0.6,2.6-0.9,4.1-0.9
					c3,0,5.3,1,7,3c1.7,2,2.5,5,2.5,8.8H1236.9z M1250.9,816.2c0-1-0.1-2-0.4-3c-0.3-0.9-0.7-1.7-1.3-2.4c-0.6-0.7-1.3-1.2-2.1-1.6
					c-0.9-0.4-1.8-0.6-2.9-0.6c-1.1,0-2.1,0.2-2.9,0.6c-0.8,0.4-1.6,1-2.2,1.7c-0.6,0.7-1.1,1.5-1.4,2.4c-0.4,0.9-0.6,1.9-0.7,2.9
					H1250.9z"/>
			</g>
			<g>
				<path fill="#FFFFFF" d="M1258.6,802.3v-3.7h2.7v3.7H1258.6z M1258.7,828.4v-21.5h2.5v21.5H1258.7z"/>
			</g>
			<g>
				<path fill="#FFFFFF" d="M1265.3,806.9h2.7l7,18.4l7-18.4h2.7l-8.3,21.5h-2.8L1265.3,806.9z"/>
			</g>
			<g>
				<path fill="#FFFFFF" d="M1289.8,818.2c0,1.2,0.2,2.3,0.5,3.3c0.3,1,0.8,1.9,1.3,2.7c0.6,0.8,1.3,1.4,2.3,1.8
					c0.9,0.5,2,0.7,3.1,0.7c1.6,0,3-0.4,4.2-1.3c1.2-0.9,1.9-2.1,2.3-3.6h2.8c-0.3,1-0.7,2-1.2,2.8c-0.5,0.9-1.1,1.6-1.9,2.3
					c-0.7,0.6-1.6,1.2-2.6,1.5c-1,0.4-2.2,0.5-3.6,0.5c-1.7,0-3.2-0.3-4.4-0.9c-1.2-0.6-2.3-1.4-3.1-2.4c-0.8-1-1.4-2.2-1.8-3.6
					c-0.4-1.4-0.6-2.8-0.6-4.4c0-1.6,0.2-3.1,0.7-4.4c0.5-1.4,1.1-2.6,1.9-3.6c0.8-1,1.9-1.8,3.1-2.4c1.2-0.6,2.6-0.9,4.1-0.9
					c3,0,5.3,1,7,3c1.7,2,2.5,5,2.5,8.8H1289.8z M1303.8,816.2c0-1-0.1-2-0.4-3c-0.3-0.9-0.7-1.7-1.3-2.4c-0.6-0.7-1.3-1.2-2.1-1.6
					c-0.9-0.4-1.8-0.6-2.9-0.6c-1.1,0-2.1,0.2-2.9,0.6c-0.8,0.4-1.6,1-2.2,1.7c-0.6,0.7-1.1,1.5-1.4,2.4c-0.4,0.9-0.6,1.9-0.7,2.9
					H1303.8z"/>
			</g>
			<g>
				<path fill="#FFFFFF" d="M1313.9,828.4h-2.5v-21.5h2.5v4h0.1c0.7-1.7,1.6-2.9,2.7-3.6c1.1-0.7,2.5-1,4.3-1v2.7
					c-1.4,0-2.6,0.2-3.5,0.7c-0.9,0.5-1.6,1.1-2.2,1.9c-0.5,0.8-0.9,1.7-1.1,2.8c-0.2,1.1-0.3,2.2-0.3,3.4V828.4z"/>
			</g>
		</g>
		<g>
			<path fill="#231F20" d="M1336.9,855.8h-242.7c-0.2,0-0.3-0.1-0.3-0.3c0-0.2,0.1-0.3,0.3-0.3h242.7c0.2,0,0.3,0.1,0.3,0.3
				C1337.2,855.7,1337.1,855.8,1336.9,855.8z"/>
		</g>
		<g>
			<path fill="#3C4855" d="M1396.2,820.3c0,2.3-2.5,4.2-5.5,4.2c-3,0-5.5-1.9-5.5-4.2c0-2.3,2.5-4.2,5.5-4.2
				C1393.7,816.1,1396.2,818,1396.2,820.3z"/>
			<path fill="#FFFFFF" d="M1390.7,825.1c-3.4,0-6.1-2.2-6.1-4.8c0-2.6,2.7-4.8,6.1-4.8c3.4,0,6.2,2.2,6.2,4.8
				C1396.8,822.9,1394.1,825.1,1390.7,825.1z M1390.7,816.7c-2.7,0-4.9,1.6-4.9,3.5c0,2,2.2,3.6,4.9,3.6c2.7,0,4.9-1.6,4.9-3.6
				C1395.6,818.3,1393.4,816.7,1390.7,816.7z"/>
		</g>
		<g>
			<path fill="#3C4855" d="M1423.9,820.3c0-2.3,2.5-4.2,5.5-4.2c3,0,5.5,1.9,5.5,4.2c0,2.3-2.5,4.2-5.5,4.2
				C1426.4,824.5,1423.9,822.6,1423.9,820.3z"/>
			<path fill="#FFFFFF" d="M1429.4,825.1c-3.4,0-6.1-2.2-6.1-4.8c0-2.6,2.7-4.8,6.1-4.8c3.4,0,6.1,2.2,6.1,4.8
				C1435.6,822.9,1432.8,825.1,1429.4,825.1z M1429.4,816.7c-2.7,0-4.9,1.6-4.9,3.5c0,2,2.2,3.6,4.9,3.6c2.7,0,4.9-1.6,4.9-3.6
				C1434.3,818.3,1432.1,816.7,1429.4,816.7z"/>
		</g>
		<g>
			<path fill="#3C4855" d="M1411,810.5c-2.3,0-4.2-2.5-4.2-5.5c0-3,1.9-5.5,4.2-5.5c2.3,0,4.2,2.5,4.2,5.5
				C1415.2,808.1,1413.3,810.5,1411,810.5z"/>
			<path fill="#FFFFFF" d="M1411,811.2c-2.6,0-4.8-2.7-4.8-6.1c0-3.4,2.2-6.1,4.8-6.1c2.6,0,4.8,2.8,4.8,6.1
				C1415.9,808.4,1413.7,811.2,1411,811.2z M1411,800.1c-2,0-3.5,2.2-3.5,4.9c0,2.7,1.6,4.9,3.5,4.9c2,0,3.5-2.2,3.5-4.9
				C1414.6,802.3,1413,800.1,1411,800.1z"/>
		</g>
		<g>
			<path fill="#3C4855" d="M1410.2,830.9c2.3,0,4.2,2.5,4.2,5.5c0,3-1.9,5.5-4.2,5.5c-2.3,0-4.2-2.5-4.2-5.5
				C1406,833.4,1407.9,830.9,1410.2,830.9z"/>
			<path fill="#FFFFFF" d="M1410.2,842.5c-2.6,0-4.8-2.7-4.8-6.1c0-3.4,2.2-6.1,4.8-6.1c2.6,0,4.8,2.8,4.8,6.1
				C1415,839.8,1412.8,842.5,1410.2,842.5z M1410.2,831.5c-2,0-3.5,2.2-3.5,4.9c0,2.7,1.6,4.9,3.5,4.9c2,0,3.5-2.2,3.5-4.9
				C1413.7,833.7,1412.1,831.5,1410.2,831.5z"/>
		</g>
		<g>
			<path fill="#3C4855" d="M1416.3,821c0,3.3-2.6,5.9-5.9,5.9c-3.3,0-5.9-2.7-5.9-5.9c0-3.3,2.7-5.9,5.9-5.9
				C1413.7,815.1,1416.3,817.7,1416.3,821z"/>
			<path fill="#FFFFFF" d="M1410.4,827.6c-3.6,0-6.6-2.9-6.6-6.6c0-3.6,2.9-6.6,6.6-6.6c3.6,0,6.6,2.9,6.6,6.6
				C1416.9,824.7,1414,827.6,1410.4,827.6z M1410.4,815.7c-2.9,0-5.3,2.4-5.3,5.3c0,2.9,2.4,5.3,5.3,5.3c2.9,0,5.3-2.4,5.3-5.3
				C1415.7,818.1,1413.3,815.7,1410.4,815.7z"/>
		</g>
		<g>
			<path fill="#FFFFFF" d="M1447.4,857.2h-421.1l-0.3-1.6c-2.9-17.5-4.4-29-4.4-34.3c0-9.6,1.7-40.7,1.7-42l0.1-1.8h426.8l0.1,1.8
				c0.1,1.3,1.7,32.4,1.7,42c0,5.3-1.5,16.8-4.4,34.3L1447.4,857.2z M1029.5,853.4h414.7c2.7-16.2,4.1-27.2,4.1-32.1
				c0-8.2-1.3-33.1-1.6-40H1027c-0.4,6.9-1.6,31.8-1.6,40C1025.4,826.2,1026.8,837.2,1029.5,853.4z"/>
		</g>
		<g>
			<path fill="#3C4855" d="M1040.8,833.3c0-1.5,1.6-2.7,3.6-2.7h48.3c2,0,3.6,1.2,3.6,2.7v9.4c0,1.5-1.6,2.7-3.6,2.7h-48.3
				c-2,0-3.6-1.2-3.6-2.7V833.3z"/>
			<path fill="#FFFFFF" d="M1092.7,846.1h-48.3c-2.3,0-4.3-1.5-4.3-3.4v-9.4c0-1.9,1.9-3.4,4.3-3.4h48.3c2.3,0,4.3,1.5,4.3,3.4v9.4
				C1096.9,844.6,1095,846.1,1092.7,846.1z M1044.4,831.2c-1.7,0-3,0.9-3,2.1v9.4c0,1.2,1.3,2.1,3,2.1h48.3c1.7,0,3-0.9,3-2.1v-9.4
				c0-1.2-1.3-2.1-3-2.1H1044.4z"/>
		</g>
	</g>
	<g>
		<g>
			<path fill="#808080" d="M744.6,855.3h207.2c1.5-9.1,4.4-26.9,4.4-34c0-9.7-1.7-41.9-1.7-41.9H744.3h-3H531.2
				c0,0-1.7,32.2-1.7,41.9c0,7.1,2.9,24.9,4.4,34h207.2H744.6z"/>
			<path fill="#FFFFFF" d="M951.8,855.6H533.9c-0.2,0-0.3-0.1-0.3-0.3c-2.9-17.2-4.4-28.9-4.4-34c0-9.6,1.7-41.6,1.7-41.9
				c0-0.2,0.1-0.3,0.3-0.3h423.2c0.2,0,0.3,0.1,0.3,0.3c0,0.3,1.7,32.3,1.7,41.9c0,5.1-1.5,16.9-4.4,34
				C952.1,855.5,951.9,855.6,951.8,855.6z M534.2,855h417.3c2.8-17,4.3-28.6,4.3-33.7c0-9.1-1.5-38.3-1.7-41.6H531.5
				c-0.2,3.3-1.7,32.5-1.7,41.6C529.8,826.4,531.3,838,534.2,855z"/>
		</g>
		<g>
			<path fill="#3C4855" d="M600.8,780.1c0,0,25.6,59.6,29.3,65.4h227.3c0,0,22.6-46,29.7-65.6L600.8,780.1z"/>
			<path fill="#FFFFFF" d="M857.7,846.1H629.7l-0.2-0.3c-3.7-5.7-28.3-63-29.3-65.5l-0.4-0.9l288.1-0.2l-0.3,0.8
				c-7.1,19.5-29.5,65.2-29.7,65.7L857.7,846.1z M630.4,844.8H857c2.1-4.2,22.2-45.4,29.2-64.3l-284.4,0.2
				C604.8,788,626.5,838.2,630.4,844.8z"/>
		</g>
		<g>
			<g>
				<path fill="#FFFFFF" d="M671.8,814.8v13.5H669v-29.8h11.7c3.3,0,5.8,0.6,7.5,1.8c1.7,1.2,2.6,3.2,2.6,6c0,1.9-0.4,3.4-1.1,4.5
					c-0.8,1.1-2,2-3.7,2.8c0.9,0.3,1.6,0.7,2.1,1.3c0.5,0.6,0.9,1.2,1.1,2c0.2,0.7,0.4,1.5,0.5,2.4c0.1,0.8,0.1,1.6,0.1,2.4
					c0,1.1,0.1,2.1,0.1,2.8c0.1,0.7,0.2,1.4,0.2,1.8c0.1,0.5,0.2,0.8,0.4,1.1c0.1,0.3,0.3,0.5,0.5,0.6v0.3h-3.1
					c-0.3-0.5-0.5-1.2-0.6-2.1c-0.1-0.9-0.2-1.8-0.3-2.8c-0.1-1-0.1-1.9-0.2-2.8c0-0.9-0.1-1.7-0.2-2.2c-0.2-0.8-0.4-1.4-0.8-1.9
					s-0.8-0.8-1.3-1.1c-0.5-0.2-1.1-0.4-1.8-0.5c-0.6-0.1-1.3-0.1-2-0.1H671.8z M680.6,812.4c1,0,2-0.1,2.9-0.3
					c0.9-0.2,1.7-0.6,2.3-1.1c0.7-0.5,1.2-1.1,1.6-1.8c0.4-0.7,0.6-1.6,0.6-2.7c0-1.1-0.2-2-0.6-2.7c-0.4-0.7-0.9-1.3-1.6-1.7
					c-0.7-0.4-1.4-0.7-2.3-0.9c-0.9-0.2-1.8-0.2-2.7-0.2h-8.9v11.5H680.6z"/>
			</g>
			<g>
				<path fill="#FFFFFF" d="M697.8,818.2c0,1.2,0.2,2.3,0.5,3.3c0.3,1,0.8,1.9,1.3,2.7c0.6,0.8,1.3,1.4,2.3,1.8
					c0.9,0.5,2,0.7,3.1,0.7c1.6,0,3-0.4,4.2-1.3c1.2-0.9,1.9-2.1,2.3-3.6h2.8c-0.3,1-0.7,2-1.2,2.8c-0.5,0.9-1.1,1.6-1.9,2.3
					c-0.7,0.6-1.6,1.2-2.6,1.5c-1,0.4-2.2,0.5-3.6,0.5c-1.7,0-3.2-0.3-4.4-0.9c-1.2-0.6-2.3-1.4-3.1-2.4c-0.8-1-1.4-2.2-1.8-3.6
					c-0.4-1.4-0.6-2.8-0.6-4.4c0-1.6,0.2-3.1,0.7-4.4c0.5-1.4,1.1-2.6,1.9-3.6c0.8-1,1.9-1.8,3.1-2.4c1.2-0.6,2.6-0.9,4.1-0.9
					c3,0,5.3,1,7,3c1.7,2,2.5,5,2.5,8.8H697.8z M711.8,816.2c0-1-0.1-2-0.4-3c-0.3-0.9-0.7-1.7-1.3-2.4c-0.6-0.7-1.3-1.2-2.1-1.6
					c-0.9-0.4-1.8-0.6-2.9-0.6c-1.1,0-2.1,0.2-2.9,0.6c-0.8,0.4-1.6,1-2.2,1.7c-0.6,0.7-1.1,1.5-1.4,2.4c-0.4,0.9-0.6,1.9-0.7,2.9
					H711.8z"/>
			</g>
			<g>
				<path fill="#FFFFFF" d="M734.5,813.7c-0.4-1.6-1.2-2.9-2.3-3.7c-1.1-0.9-2.4-1.3-4.1-1.3c-1.3,0-2.4,0.3-3.3,0.8
					c-0.9,0.5-1.7,1.2-2.2,2.1c-0.6,0.9-1,1.8-1.3,2.9c-0.3,1.1-0.4,2.2-0.4,3.3c0,1.1,0.1,2.2,0.4,3.3c0.3,1.1,0.7,2,1.3,2.9
					c0.6,0.9,1.3,1.5,2.2,2.1c0.9,0.5,2,0.8,3.3,0.8c1.8,0,3.3-0.5,4.5-1.5c1.1-1,1.8-2.4,2.1-4.2h2.7c-0.2,1.2-0.6,2.3-1.1,3.3
					c-0.5,1-1.1,1.8-1.9,2.5c-0.8,0.7-1.7,1.2-2.7,1.6c-1,0.4-2.3,0.6-3.6,0.6c-1.7,0-3.2-0.3-4.4-0.9c-1.2-0.6-2.3-1.4-3.1-2.4
					c-0.8-1-1.4-2.2-1.8-3.6c-0.4-1.4-0.6-2.9-0.6-4.4c0-1.5,0.2-2.9,0.6-4.3c0.4-1.4,1.1-2.6,1.9-3.6c0.8-1,1.9-1.9,3.1-2.5
					c1.2-0.6,2.6-0.9,4.2-0.9c2.5,0,4.5,0.6,6,1.8c1.5,1.2,2.5,3,2.9,5.5H734.5z"/>
			</g>
			<g>
				<path fill="#FFFFFF" d="M743.9,818.2c0,1.2,0.2,2.3,0.5,3.3c0.3,1,0.8,1.9,1.3,2.7c0.6,0.8,1.3,1.4,2.3,1.8
					c0.9,0.5,2,0.7,3.1,0.7c1.6,0,3-0.4,4.2-1.3c1.2-0.9,1.9-2.1,2.3-3.6h2.8c-0.3,1-0.7,2-1.2,2.8c-0.5,0.9-1.1,1.6-1.9,2.3
					c-0.7,0.6-1.6,1.2-2.6,1.5c-1,0.4-2.2,0.5-3.6,0.5c-1.7,0-3.2-0.3-4.4-0.9c-1.2-0.6-2.3-1.4-3.1-2.4c-0.8-1-1.4-2.2-1.8-3.6
					c-0.4-1.4-0.6-2.8-0.6-4.4c0-1.6,0.2-3.1,0.7-4.4c0.5-1.4,1.1-2.6,1.9-3.6c0.8-1,1.9-1.8,3.1-2.4c1.2-0.6,2.6-0.9,4.1-0.9
					c3,0,5.3,1,7,3c1.7,2,2.5,5,2.5,8.8H743.9z M757.9,816.2c0-1-0.1-2-0.4-3c-0.3-0.9-0.7-1.7-1.3-2.4c-0.6-0.7-1.3-1.2-2.1-1.6
					c-0.9-0.4-1.8-0.6-2.9-0.6s-2.1,0.2-2.9,0.6c-0.8,0.4-1.6,1-2.2,1.7c-0.6,0.7-1.1,1.5-1.4,2.4c-0.4,0.9-0.6,1.9-0.7,2.9H757.9z"
					/>
			</g>
			<g>
				<path fill="#FFFFFF" d="M765.6,802.3v-3.7h2.7v3.7H765.6z M765.8,828.4v-21.5h2.5v21.5H765.8z"/>
			</g>
			<g>
				<path fill="#FFFFFF" d="M772.3,806.9h2.7l7,18.4l7-18.4h2.7l-8.3,21.5h-2.8L772.3,806.9z"/>
			</g>
			<g>
				<path fill="#FFFFFF" d="M796.8,818.2c0,1.2,0.2,2.3,0.5,3.3c0.3,1,0.8,1.9,1.3,2.7c0.6,0.8,1.3,1.4,2.3,1.8
					c0.9,0.5,2,0.7,3.1,0.7c1.6,0,3-0.4,4.2-1.3c1.2-0.9,1.9-2.1,2.3-3.6h2.8c-0.3,1-0.7,2-1.2,2.8c-0.5,0.9-1.1,1.6-1.9,2.3
					c-0.7,0.6-1.6,1.2-2.6,1.5c-1,0.4-2.2,0.5-3.6,0.5c-1.7,0-3.2-0.3-4.4-0.9c-1.2-0.6-2.3-1.4-3.1-2.4c-0.8-1-1.4-2.2-1.8-3.6
					c-0.4-1.4-0.6-2.8-0.6-4.4c0-1.6,0.2-3.1,0.7-4.4c0.5-1.4,1.1-2.6,1.9-3.6c0.8-1,1.9-1.8,3.1-2.4c1.2-0.6,2.6-0.9,4.1-0.9
					c3,0,5.3,1,7,3c1.7,2,2.5,5,2.5,8.8H796.8z M810.8,816.2c0-1-0.1-2-0.4-3c-0.3-0.9-0.7-1.7-1.3-2.4c-0.6-0.7-1.3-1.2-2.1-1.6
					c-0.9-0.4-1.8-0.6-2.9-0.6s-2.1,0.2-2.9,0.6c-0.8,0.4-1.6,1-2.2,1.7c-0.6,0.7-1.1,1.5-1.4,2.4c-0.4,0.9-0.6,1.9-0.7,2.9H810.8z"
					/>
			</g>
			<g>
				<path fill="#FFFFFF" d="M820.9,828.4h-2.5v-21.5h2.5v4h0.1c0.7-1.7,1.6-2.9,2.7-3.6c1.1-0.7,2.5-1,4.3-1v2.7
					c-1.4,0-2.6,0.2-3.5,0.7c-0.9,0.5-1.6,1.1-2.2,1.9c-0.5,0.8-0.9,1.7-1.1,2.8c-0.2,1.1-0.3,2.2-0.3,3.4V828.4z"/>
			</g>
		</g>
		<g>
			<path fill="#231F20" d="M843.9,855.8H601.2c-0.2,0-0.3-0.1-0.3-0.3c0-0.2,0.1-0.3,0.3-0.3h242.7c0.2,0,0.3,0.1,0.3,0.3
				C844.3,855.7,844.1,855.8,843.9,855.8z"/>
		</g>
		<g>
			<path fill="#3C4855" d="M903.2,820.3c0,2.3-2.5,4.2-5.5,4.2c-3,0-5.5-1.9-5.5-4.2c0-2.3,2.5-4.2,5.5-4.2
				C900.7,816.1,903.2,818,903.2,820.3z"/>
			<path fill="#FFFFFF" d="M897.7,825.1c-3.4,0-6.1-2.2-6.1-4.8c0-2.6,2.7-4.8,6.1-4.8c3.4,0,6.2,2.2,6.2,4.8
				C903.9,822.9,901.1,825.1,897.7,825.1z M897.7,816.7c-2.7,0-4.9,1.6-4.9,3.5c0,2,2.2,3.6,4.9,3.6c2.7,0,4.9-1.6,4.9-3.6
				C902.6,818.3,900.4,816.7,897.7,816.7z"/>
		</g>
		<g>
			<path fill="#3C4855" d="M931,820.3c0-2.3,2.5-4.2,5.5-4.2c3,0,5.5,1.9,5.5,4.2c0,2.3-2.5,4.2-5.5,4.2
				C933.4,824.5,931,822.6,931,820.3z"/>
			<path fill="#FFFFFF" d="M936.5,825.1c-3.4,0-6.1-2.2-6.1-4.8c0-2.6,2.7-4.8,6.1-4.8c3.4,0,6.1,2.2,6.1,4.8
				C942.6,822.9,939.8,825.1,936.5,825.1z M936.5,816.7c-2.7,0-4.9,1.6-4.9,3.5c0,2,2.2,3.6,4.9,3.6c2.7,0,4.9-1.6,4.9-3.6
				C941.3,818.3,939.1,816.7,936.5,816.7z"/>
		</g>
		<g>
			<path fill="#3C4855" d="M918.1,810.5c-2.3,0-4.2-2.5-4.2-5.5c0-3,1.9-5.5,4.2-5.5c2.3,0,4.2,2.5,4.2,5.5
				C922.3,808.1,920.4,810.5,918.1,810.5z"/>
			<path fill="#FFFFFF" d="M918.1,811.2c-2.6,0-4.8-2.7-4.8-6.1c0-3.4,2.2-6.1,4.8-6.1c2.6,0,4.8,2.8,4.8,6.1
				C922.9,808.4,920.7,811.2,918.1,811.2z M918.1,800.1c-2,0-3.5,2.2-3.5,4.9c0,2.7,1.6,4.9,3.5,4.9c2,0,3.5-2.2,3.5-4.9
				C921.6,802.3,920,800.1,918.1,800.1z"/>
		</g>
		<g>
			<path fill="#3C4855" d="M917.2,830.9c2.3,0,4.2,2.5,4.2,5.5c0,3-1.9,5.5-4.2,5.5c-2.3,0-4.2-2.5-4.2-5.5
				C913,833.4,914.9,830.9,917.2,830.9z"/>
			<path fill="#FFFFFF" d="M917.2,842.5c-2.6,0-4.8-2.7-4.8-6.1c0-3.4,2.2-6.1,4.8-6.1c2.6,0,4.8,2.8,4.8,6.1
				C922,839.8,919.9,842.5,917.2,842.5z M917.2,831.5c-2,0-3.5,2.2-3.5,4.9c0,2.7,1.6,4.9,3.5,4.9c2,0,3.5-2.2,3.5-4.9
				C920.8,833.7,919.2,831.5,917.2,831.5z"/>
		</g>
		<g>
			<path fill="#3C4855" d="M923.3,821c0,3.3-2.6,5.9-5.9,5.9c-3.3,0-5.9-2.7-5.9-5.9c0-3.3,2.7-5.9,5.9-5.9
				C920.7,815.1,923.3,817.7,923.3,821z"/>
			<path fill="#FFFFFF" d="M917.4,827.6c-3.6,0-6.6-2.9-6.6-6.6c0-3.6,2.9-6.6,6.6-6.6c3.6,0,6.6,2.9,6.6,6.6
				C924,824.7,921,827.6,917.4,827.6z M917.4,815.7c-2.9,0-5.3,2.4-5.3,5.3c0,2.9,2.4,5.3,5.3,5.3c2.9,0,5.3-2.4,5.3-5.3
				C922.7,818.1,920.3,815.7,917.4,815.7z"/>
		</g>
		<g>
			<path fill="#FFFFFF" d="M954.4,857.2H533.4l-0.3-1.6c-2.9-17.5-4.4-29-4.4-34.3c0-9.6,1.7-40.7,1.7-42l0.1-1.8h426.8l0.1,1.8
				c0.1,1.3,1.7,32.4,1.7,42c0,5.3-1.5,16.8-4.4,34.3L954.4,857.2z M536.6,853.4h414.7c2.7-16.2,4.1-27.2,4.1-32.1
				c0-8.2-1.3-33.1-1.6-40H534.1c-0.4,6.9-1.6,31.8-1.6,40C532.5,826.2,533.9,837.2,536.6,853.4z"/>
		</g>
		<g>
			<path fill="#3C4855" d="M547.8,833.3c0-1.5,1.6-2.7,3.6-2.7h48.3c2,0,3.6,1.2,3.6,2.7v9.4c0,1.5-1.6,2.7-3.6,2.7h-48.3
				c-2,0-3.6-1.2-3.6-2.7V833.3z"/>
			<path fill="#FFFFFF" d="M599.7,846.1h-48.3c-2.3,0-4.3-1.5-4.3-3.4v-9.4c0-1.9,1.9-3.4,4.3-3.4h48.3c2.3,0,4.3,1.5,4.3,3.4v9.4
				C604,844.6,602,846.1,599.7,846.1z M551.4,831.2c-1.7,0-3,0.9-3,2.1v9.4c0,1.2,1.3,2.1,3,2.1h48.3c1.7,0,3-0.9,3-2.1v-9.4
				c0-1.2-1.3-2.1-3-2.1H551.4z"/>
		</g>
	</g>
	<g>
		<text transform="matrix(1 0 0 1 1552.806 662.4287)" fill="#FFFFFF" font-family="'Helvetica-Light'" font-size="31.0586">IP AutoSwitch</text>
		<g>
			<g id="XMLID_240_">
				<g>
					<rect x="1511.4" y="597.6" fill="#3C4855" width="10.3" height="13"/>
				</g>
				<g>
					<rect x="1511.4" y="597.6" fill="none" stroke="#FFFFFF" stroke-miterlimit="10" width="10.3" height="13"/>
				</g>
			</g>
			<g>
				
					<rect x="1511.5" y="599.3" transform="matrix(0.9925 0.1219 -0.1219 0.9925 84.4121 -180.4551)" fill="#FFFFFF" width="10.3" height="0.3"/>
			</g>
			<g>
				
					<rect x="1511.5" y="602.4" transform="matrix(0.9925 0.1219 -0.1219 0.9925 84.7936 -180.4317)" fill="#FFFFFF" width="10.3" height="0.3"/>
			</g>
			<g>
				
					<rect x="1511.5" y="605.6" transform="matrix(0.9925 0.1219 -0.1219 0.9925 85.1751 -180.4084)" fill="#FFFFFF" width="10.3" height="0.3"/>
			</g>
			<g>
				
					<rect x="1511.5" y="608.7" transform="matrix(0.9925 0.1219 -0.1219 0.9925 85.5566 -180.3851)" fill="#FFFFFF" width="10.3" height="0.3"/>
			</g>
			<g>
				
					<rect x="1510.8" y="597.8" transform="matrix(0.9997 2.517704e-02 -2.517704e-02 0.9997 15.5363 -37.9932)" fill="#FFFFFF" width="11.5" height="0.3"/>
			</g>
			<path fill="#3C4855" stroke="#FFFFFF" stroke-miterlimit="10" d="M1524.8,616.1c0.9,0,1.6-0.7,1.6-1.6v-2.4
				c0-0.9-0.7-1.6-1.6-1.6h-16.6c-0.9,0-1.6,0.7-1.6,1.6v2.4c0,0.9,0.7,1.6,1.6,1.6H1524.8z"/>
		</g>
		<g>
			<g id="XMLID_239_">
				<g>
					<rect x="1511.4" y="689.3" fill="#3C4855" width="10.3" height="13"/>
				</g>
				<g>
					<rect x="1511.4" y="689.3" fill="none" stroke="#FFFFFF" stroke-miterlimit="10" width="10.3" height="13"/>
				</g>
			</g>
			<g>
				
					<rect x="1511.5" y="700.3" transform="matrix(0.9925 -0.1219 0.1219 0.9925 -74.0982 190.1552)" fill="#FFFFFF" width="10.3" height="0.3"/>
			</g>
			<g>
				
					<rect x="1511.5" y="697.2" transform="matrix(0.9925 -0.1219 0.1219 0.9925 -73.7167 190.1319)" fill="#FFFFFF" width="10.3" height="0.3"/>
			</g>
			<g>
				
					<rect x="1511.5" y="694.1" transform="matrix(0.9925 -0.1219 0.1219 0.9925 -73.3352 190.1085)" fill="#FFFFFF" width="10.3" height="0.3"/>
			</g>
			<g>
				
					<rect x="1511.5" y="691" transform="matrix(0.9925 -0.1219 0.1219 0.9925 -72.9538 190.0852)" fill="#FFFFFF" width="10.3" height="0.3"/>
			</g>
			<g>
				
					<rect x="1510.8" y="701.8" transform="matrix(0.9997 -2.517704e-02 2.517704e-02 0.9997 -17.1929 38.4053)" fill="#FFFFFF" width="11.5" height="0.3"/>
			</g>
			<path fill="#3C4855" stroke="#FFFFFF" stroke-miterlimit="10" d="M1524.8,683.8c0.9,0,1.6,0.7,1.6,1.6v2.4c0,0.9-0.7,1.6-1.6,1.6
				h-16.6c-0.9,0-1.6-0.7-1.6-1.6v-2.4c0-0.9,0.7-1.6,1.6-1.6H1524.8z"/>
		</g>
		<path fill="#3C4855" stroke="#FFFFFF" stroke-miterlimit="10" d="M1491.1,684.8l2,3.4v1.8c0,0,2.8,0.7,4.9,0.7
			c2.2,0,4.9-0.7,4.9-0.7v-1.8l2.8-4.4L1491.1,684.8z"/>
		<rect x="1484.1" y="616.6" fill="#3C4855" stroke="#FFFFFF" stroke-miterlimit="10" width="48.4" height="66.3"/>
		<path fill="#3C4855" stroke="#FFFFFF" stroke-miterlimit="10" d="M1533.4,682.4c0-0.6-0.5-1-1-1h-48.2c-0.6,0-1,0.5-1,1v2.4
			c0,0.6,0.5,1,1,1h48.2c0.6,0,1-0.5,1-1V682.4z"/>
		<path fill="#3C4855" stroke="#FFFFFF" stroke-miterlimit="10" d="M1533.4,614.9c0-0.6-0.5-1-1-1h-48.2c-0.6,0-1,0.5-1,1v2.4
			c0,0.6,0.5,1,1,1h48.2c0.6,0,1-0.5,1-1V614.9z"/>
	</g>
	<g>
		<g>
			<g id="XMLID_256_">
				<g>
					<rect x="853.8" y="566.2" fill="#3C4855" width="10.3" height="13"/>
				</g>
				<g>
					<rect x="853.8" y="566.2" fill="none" stroke="#FFFFFF" stroke-miterlimit="10" width="10.3" height="13"/>
				</g>
			</g>
			<g>
				
					<rect x="853.9" y="567.9" transform="matrix(0.9925 0.1219 -0.1219 0.9925 75.674 -100.5072)" fill="#FFFFFF" width="10.3" height="0.3"/>
			</g>
			<g>
				
					<rect x="853.9" y="571" transform="matrix(0.9925 0.1219 -0.1219 0.9925 76.0555 -100.4838)" fill="#FFFFFF" width="10.3" height="0.3"/>
			</g>
			<g>
				
					<rect x="853.9" y="574.1" transform="matrix(0.9925 0.1219 -0.1219 0.9925 76.4369 -100.4605)" fill="#FFFFFF" width="10.3" height="0.3"/>
			</g>
			<g>
				
					<rect x="853.9" y="577.3" transform="matrix(0.9925 0.1219 -0.1219 0.9925 76.8184 -100.4371)" fill="#FFFFFF" width="10.3" height="0.3"/>
			</g>
			<g>
				
					<rect x="853.2" y="566.4" transform="matrix(0.9997 2.517704e-02 -2.517704e-02 0.9997 14.5368 -21.4471)" fill="#FFFFFF" width="11.5" height="0.3"/>
			</g>
			<path fill="#3C4855" stroke="#FFFFFF" stroke-miterlimit="10" d="M867.2,584.7c0.9,0,1.6-0.7,1.6-1.6v-2.4c0-0.9-0.7-1.6-1.6-1.6
				h-16.6c-0.9,0-1.6,0.7-1.6,1.6v2.4c0,0.9,0.7,1.6,1.6,1.6H867.2z"/>
		</g>
		<g>
			<g id="XMLID_255_">
				<g>
					<rect x="853.8" y="657.9" fill="#3C4855" width="10.3" height="13"/>
				</g>
				<g>
					<rect x="853.8" y="657.9" fill="none" stroke="#FFFFFF" stroke-miterlimit="10" width="10.3" height="13"/>
				</g>
			</g>
			<g>
				
					<rect x="853.9" y="668.9" transform="matrix(0.9925 -0.1219 0.1219 0.9925 -75.1736 109.7384)" fill="#FFFFFF" width="10.3" height="0.3"/>
			</g>
			<g>
				
					<rect x="853.9" y="665.8" transform="matrix(0.9925 -0.1219 0.1219 0.9925 -74.7922 109.715)" fill="#FFFFFF" width="10.3" height="0.3"/>
			</g>
			<g>
				
					<rect x="853.9" y="662.7" transform="matrix(0.9925 -0.1219 0.1219 0.9925 -74.4107 109.6917)" fill="#FFFFFF" width="10.3" height="0.3"/>
			</g>
			<g>
				
					<rect x="853.9" y="659.5" transform="matrix(0.9925 -0.1219 0.1219 0.9925 -74.0292 109.6683)" fill="#FFFFFF" width="10.3" height="0.3"/>
			</g>
			<g>
				
					<rect x="853.2" y="670.4" transform="matrix(0.9997 -2.517704e-02 2.517704e-02 0.9997 -16.6103 21.8393)" fill="#FFFFFF" width="11.5" height="0.3"/>
			</g>
			<path fill="#3C4855" stroke="#FFFFFF" stroke-miterlimit="10" d="M867.2,652.4c0.9,0,1.6,0.7,1.6,1.6v2.4c0,0.9-0.7,1.6-1.6,1.6
				h-16.6c-0.9,0-1.6-0.7-1.6-1.6V654c0-0.9,0.7-1.6,1.6-1.6H867.2z"/>
		</g>
		<path fill="#3C4855" stroke="#FFFFFF" stroke-miterlimit="10" d="M833.5,653.4l2,3.4v1.8c0,0,2.8,0.7,4.9,0.7
			c2.2,0,4.9-0.7,4.9-0.7v-1.8l2.8-4.4L833.5,653.4z"/>
		<rect x="826.5" y="585.2" fill="#3C4855" stroke="#FFFFFF" stroke-miterlimit="10" width="48.4" height="66.3"/>
		<path fill="#3C4855" stroke="#FFFFFF" stroke-miterlimit="10" d="M875.8,651c0-0.6-0.5-1-1-1h-48.2c-0.6,0-1,0.5-1,1v2.4
			c0,0.6,0.5,1,1,1h48.2c0.6,0,1-0.5,1-1V651z"/>
		<path fill="#3C4855" stroke="#FFFFFF" stroke-miterlimit="10" d="M875.8,583.5c0-0.6-0.5-1-1-1h-48.2c-0.6,0-1,0.5-1,1v2.4
			c0,0.6,0.5,1,1,1h48.2c0.6,0,1-0.5,1-1V583.5z"/>
	</g>
	<g>
		<text transform="matrix(1 0 0 1 95.2455 662.6724)" fill="#FFFFFF" font-family="'Helvetica-Light'" font-size="31.0586">IP AutoSwitch</text>
		<g>
			<g id="XMLID_242_">
				<g>
					<rect x="337.9" y="597.9" fill="#3C4855" width="10.3" height="13"/>
				</g>
				<g>
					<rect x="337.9" y="597.9" fill="none" stroke="#FFFFFF" stroke-miterlimit="10" width="10.3" height="13"/>
				</g>
			</g>
			<g>
				
					<rect x="338" y="599.6" transform="matrix(0.9925 0.1219 -0.1219 0.9925 75.6853 -37.3619)" fill="#FFFFFF" width="10.3" height="0.3"/>
			</g>
			<g>
				
					<rect x="338" y="602.7" transform="matrix(0.9925 0.1219 -0.1219 0.9925 76.0668 -37.3386)" fill="#FFFFFF" width="10.3" height="0.3"/>
			</g>
			<g>
				
					<rect x="338" y="605.8" transform="matrix(0.9925 0.1219 -0.1219 0.9925 76.4482 -37.3153)" fill="#FFFFFF" width="10.3" height="0.3"/>
			</g>
			<g>
				
					<rect x="338" y="608.9" transform="matrix(0.9925 0.1219 -0.1219 0.9925 76.8297 -37.2919)" fill="#FFFFFF" width="10.3" height="0.3"/>
			</g>
			<g>
				
					<rect x="337.3" y="598.1" transform="matrix(0.9997 2.517704e-02 -2.517704e-02 0.9997 15.1704 -8.4476)" fill="#FFFFFF" width="11.5" height="0.3"/>
			</g>
			<path fill="#3C4855" stroke="#FFFFFF" stroke-miterlimit="10" d="M351.3,616.4c0.9,0,1.6-0.7,1.6-1.6v-2.4c0-0.9-0.7-1.6-1.6-1.6
				h-16.6c-0.9,0-1.6,0.7-1.6,1.6v2.4c0,0.9,0.7,1.6,1.6,1.6H351.3z"/>
		</g>
		<g>
			<g id="XMLID_241_">
				<g>
					<rect x="337.9" y="689.5" fill="#3C4855" width="10.3" height="13"/>
				</g>
				<g>
					<rect x="337.9" y="689.5" fill="none" stroke="#FFFFFF" stroke-miterlimit="10" width="10.3" height="13"/>
				</g>
			</g>
			<g>
				
					<rect x="338" y="700.6" transform="matrix(0.9925 -0.1219 0.1219 0.9925 -82.8844 47.0657)" fill="#FFFFFF" width="10.3" height="0.3"/>
			</g>
			<g>
				
					<rect x="338" y="697.5" transform="matrix(0.9925 -0.1219 0.1219 0.9925 -82.503 47.0424)" fill="#FFFFFF" width="10.3" height="0.3"/>
			</g>
			<g>
				
					<rect x="338" y="694.3" transform="matrix(0.9925 -0.1219 0.1219 0.9925 -82.1215 47.019)" fill="#FFFFFF" width="10.3" height="0.3"/>
			</g>
			<g>
				
					<rect x="338" y="691.2" transform="matrix(0.9925 -0.1219 0.1219 0.9925 -81.74 46.9957)" fill="#FFFFFF" width="10.3" height="0.3"/>
			</g>
			<g>
				
					<rect x="337.3" y="702.1" transform="matrix(0.9997 -2.517704e-02 2.517704e-02 0.9997 -17.5711 8.8599)" fill="#FFFFFF" width="11.5" height="0.3"/>
			</g>
			<path fill="#3C4855" stroke="#FFFFFF" stroke-miterlimit="10" d="M351.3,684.1c0.9,0,1.6,0.7,1.6,1.6v2.4c0,0.9-0.7,1.6-1.6,1.6
				h-16.6c-0.9,0-1.6-0.7-1.6-1.6v-2.4c0-0.9,0.7-1.6,1.6-1.6H351.3z"/>
		</g>
		<path fill="#3C4855" stroke="#FFFFFF" stroke-miterlimit="10" d="M317.6,685l2,3.4v1.8c0,0,2.8,0.7,4.9,0.7c2.2,0,4.9-0.7,4.9-0.7
			v-1.8l2.8-4.4L317.6,685z"/>
		<rect x="310.6" y="616.8" fill="#3C4855" stroke="#FFFFFF" stroke-miterlimit="10" width="48.4" height="66.3"/>
		<path fill="#3C4855" stroke="#FFFFFF" stroke-miterlimit="10" d="M359.9,682.6c0-0.6-0.5-1-1-1h-48.2c-0.6,0-1,0.5-1,1v2.4
			c0,0.6,0.5,1,1,1h48.2c0.6,0,1-0.5,1-1V682.6z"/>
		<path fill="#3C4855" stroke="#FFFFFF" stroke-miterlimit="10" d="M359.9,615.1c0-0.6-0.5-1-1-1h-48.2c-0.6,0-1,0.5-1,1v2.4
			c0,0.6,0.5,1,1,1h48.2c0.6,0,1-0.5,1-1V615.1z"/>
	</g>
	<text transform="matrix(1 0 0 1 495.8637 591.7963)" fill="#FFFFFF" font-family="'Helvetica-Light'" font-size="31.0586">IP AutoSwitch</text>
	<g>
		<g>
			<g id="XMLID_248_">
				<g>
					<rect x="586.5" y="647.9" fill="#3C4855" width="13" height="10.3"/>
				</g>
				<g>
					<rect x="586.5" y="647.9" fill="none" stroke="#FFFFFF" stroke-miterlimit="10" width="13" height="10.3"/>
				</g>
			</g>
			<g>
				
					<rect x="592.5" y="652.9" transform="matrix(-0.1219 0.9925 -0.9925 -0.1219 1318.7667 139.4937)" fill="#FFFFFF" width="10.3" height="0.3"/>
			</g>
			<g>
				
					<rect x="589.4" y="652.9" transform="matrix(-0.1219 0.9925 -0.9925 -0.1219 1315.2567 142.5989)" fill="#FFFFFF" width="10.3" height="0.3"/>
			</g>
			<g>
				
					<rect x="586.3" y="652.9" transform="matrix(-0.1219 0.9925 -0.9925 -0.1219 1311.7468 145.704)" fill="#FFFFFF" width="10.3" height="0.3"/>
			</g>
			<g>
				
					<rect x="583.2" y="652.9" transform="matrix(-0.1219 0.9925 -0.9925 -0.1219 1308.2368 148.8092)" fill="#FFFFFF" width="10.3" height="0.3"/>
			</g>
			<g>
				
					<rect x="593.4" y="652.9" transform="matrix(-2.517701e-02 0.9997 -0.9997 -2.517701e-02 1267.0687 70.5068)" fill="#FFFFFF" width="11.5" height="0.3"/>
			</g>
			<path fill="#3C4855" stroke="#FFFFFF" stroke-miterlimit="10" d="M581,661.3c0,0.9,0.7,1.6,1.6,1.6h2.4c0.9,0,1.6-0.7,1.6-1.6
				v-16.6c0-0.9-0.7-1.6-1.6-1.6h-2.4c-0.9,0-1.6,0.7-1.6,1.6V661.3z"/>
		</g>
		<g>
			<g id="XMLID_247_">
				<g>
					<rect x="494.8" y="647.9" fill="#3C4855" width="13" height="10.3"/>
				</g>
				<g>
					<rect x="494.8" y="647.9" fill="none" stroke="#FFFFFF" stroke-miterlimit="10" width="13" height="10.3"/>
				</g>
			</g>
			<g>
				
					<rect x="491.5" y="652.9" transform="matrix(0.1219 0.9925 -0.9925 0.1219 1084.296 80.5082)" fill="#FFFFFF" width="10.3" height="0.3"/>
			</g>
			<g>
				
					<rect x="494.6" y="652.9" transform="matrix(0.1219 0.9925 -0.9925 0.1219 1087.0431 77.403)" fill="#FFFFFF" width="10.3" height="0.3"/>
			</g>
			<g>
				
					<rect x="497.8" y="652.9" transform="matrix(0.1219 0.9925 -0.9925 0.1219 1089.7902 74.2978)" fill="#FFFFFF" width="10.3" height="0.3"/>
			</g>
			<g>
				
					<rect x="500.9" y="652.9" transform="matrix(0.1219 0.9925 -0.9925 0.1219 1092.5371 71.1926)" fill="#FFFFFF" width="10.3" height="0.3"/>
			</g>
			<g>
				
					<rect x="489.4" y="652.9" transform="matrix(2.517704e-02 0.9997 -0.9997 2.517704e-02 1135.5283 141.5796)" fill="#FFFFFF" width="11.5" height="0.3"/>
			</g>
			<path fill="#3C4855" stroke="#FFFFFF" stroke-miterlimit="10" d="M513.3,661.3c0,0.9-0.7,1.6-1.6,1.6h-2.4
				c-0.9,0-1.6-0.7-1.6-1.6v-16.6c0-0.9,0.7-1.6,1.6-1.6h2.4c0.9,0,1.6,0.7,1.6,1.6V661.3z"/>
		</g>
		<path fill="#3C4855" stroke="#FFFFFF" stroke-miterlimit="10" d="M512.3,627.6l-3.4,2h-1.8c0,0-0.7,2.8-0.7,4.9
			c0,2.2,0.7,4.9,0.7,4.9h1.8l4.4,2.8L512.3,627.6z"/>
		<rect x="514.3" y="620.5" fill="#3C4855" stroke="#FFFFFF" stroke-miterlimit="10" width="66.3" height="48.4"/>
		<path fill="#3C4855" stroke="#FFFFFF" stroke-miterlimit="10" d="M514.7,669.8c0.6,0,1-0.5,1-1v-48.2c0-0.6-0.5-1-1-1h-2.4
			c-0.6,0-1,0.5-1,1v48.2c0,0.6,0.5,1,1,1H514.7z"/>
		<path fill="#3C4855" stroke="#FFFFFF" stroke-miterlimit="10" d="M582.3,669.8c0.6,0,1-0.5,1-1v-48.2c0-0.6-0.5-1-1-1h-2.4
			c-0.6,0-1,0.5-1,1v48.2c0,0.6,0.5,1,1,1H582.3z"/>
	</g>
	<text transform="matrix(1 0 0 1 1114.1869 660.7178)" fill="#FFFFFF" font-family="'Helvetica-Light'" font-size="31.0586">IP AutoSwitch</text>
	<text transform="matrix(0 -1 1 0 918.0766 711.1016)" fill="#FFFFFF" font-family="'Helvetica-Light'" font-size="31.0586">IP AutoSwitch</text>
	<g>
		<g>
			<g id="XMLID_250_">
				<g>
					<rect x="1204.8" y="716.8" fill="#3C4855" width="13" height="10.3"/>
				</g>
				<g>
					<rect x="1204.8" y="716.8" fill="none" stroke="#FFFFFF" stroke-miterlimit="10" width="13" height="10.3"/>
				</g>
			</g>
			<g>
				
					<rect x="1210.9" y="721.8" transform="matrix(-0.1219 0.9925 -0.9925 -0.1219 2080.8916 -396.8897)" fill="#FFFFFF" width="10.3" height="0.3"/>
			</g>
			<g>
				
					<rect x="1207.7" y="721.8" transform="matrix(-0.1219 0.9925 -0.9925 -0.1219 2077.3816 -393.7845)" fill="#FFFFFF" width="10.3" height="0.3"/>
			</g>
			<g>
				
					<rect x="1204.6" y="721.8" transform="matrix(-0.1219 0.9925 -0.9925 -0.1219 2073.8716 -390.6793)" fill="#FFFFFF" width="10.3" height="0.3"/>
			</g>
			<g>
				
					<rect x="1201.5" y="721.8" transform="matrix(-0.1219 0.9925 -0.9925 -0.1219 2070.3616 -387.5742)" fill="#FFFFFF" width="10.3" height="0.3"/>
			</g>
			<g>
				
					<rect x="1211.7" y="721.8" transform="matrix(-2.517701e-02 0.9997 -0.9997 -2.517701e-02 1969.8588 -476.9631)" fill="#FFFFFF" width="11.5" height="0.3"/>
			</g>
			<path fill="#3C4855" stroke="#FFFFFF" stroke-miterlimit="10" d="M1199.3,730.2c0,0.9,0.7,1.6,1.6,1.6h2.4c0.9,0,1.6-0.7,1.6-1.6
				v-16.6c0-0.9-0.7-1.6-1.6-1.6h-2.4c-0.9,0-1.6,0.7-1.6,1.6V730.2z"/>
		</g>
		<g>
			<g id="XMLID_249_">
				<g>
					<rect x="1113.1" y="716.8" fill="#3C4855" width="13" height="10.3"/>
				</g>
				<g>
					<rect x="1113.1" y="716.8" fill="none" stroke="#FFFFFF" stroke-miterlimit="10" width="13" height="10.3"/>
				</g>
			</g>
			<g>
				
					<rect x="1109.8" y="721.8" transform="matrix(0.1219 0.9925 -0.9925 0.1219 1695.6311 -472.683)" fill="#FFFFFF" width="10.3" height="0.3"/>
			</g>
			<g>
				
					<rect x="1113" y="721.8" transform="matrix(0.1219 0.9925 -0.9925 0.1219 1698.3782 -475.7882)" fill="#FFFFFF" width="10.3" height="0.3"/>
			</g>
			<g>
				
					<rect x="1116.1" y="721.8" transform="matrix(0.1219 0.9925 -0.9925 0.1219 1701.1252 -478.8934)" fill="#FFFFFF" width="10.3" height="0.3"/>
			</g>
			<g>
				
					<rect x="1119.2" y="721.8" transform="matrix(0.1219 0.9925 -0.9925 0.1219 1703.8723 -481.9986)" fill="#FFFFFF" width="10.3" height="0.3"/>
			</g>
			<g>
				
					<rect x="1107.7" y="721.8" transform="matrix(2.517704e-02 0.9997 -0.9997 2.517704e-02 1807.1832 -409.3608)" fill="#FFFFFF" width="11.5" height="0.3"/>
			</g>
			<path fill="#3C4855" stroke="#FFFFFF" stroke-miterlimit="10" d="M1131.6,730.2c0,0.9-0.7,1.6-1.6,1.6h-2.4
				c-0.9,0-1.6-0.7-1.6-1.6v-16.6c0-0.9,0.7-1.6,1.6-1.6h2.4c0.9,0,1.6,0.7,1.6,1.6V730.2z"/>
		</g>
		<path fill="#3C4855" stroke="#FFFFFF" stroke-miterlimit="10" d="M1130.7,696.5l-3.4,2h-1.8c0,0-0.7,2.8-0.7,4.9
			c0,2.2,0.7,4.9,0.7,4.9h1.8l4.4,2.8L1130.7,696.5z"/>
		<rect x="1132.6" y="689.5" fill="#3C4855" stroke="#FFFFFF" stroke-miterlimit="10" width="66.3" height="48.4"/>
		<path fill="#3C4855" stroke="#FFFFFF" stroke-miterlimit="10" d="M1133.1,738.8c0.6,0,1-0.5,1-1v-48.2c0-0.6-0.5-1-1-1h-2.4
			c-0.6,0-1,0.5-1,1v48.2c0,0.6,0.5,1,1,1H1133.1z"/>
		<path fill="#3C4855" stroke="#FFFFFF" stroke-miterlimit="10" d="M1200.6,738.8c0.6,0,1-0.5,1-1v-48.2c0-0.6-0.5-1-1-1h-2.4
			c-0.6,0-1,0.5-1,1v48.2c0,0.6,0.5,1,1,1H1200.6z"/>
	</g>
</g>
<text transform="matrix(1 0 0 1 1306.4303 911.8573)" fill="#FFFFFF" font-family="'Helvetica-Light'" font-size="24">* Can Be Master</text>
<text transform="matrix(1 0 0 1 788.5563 911.8573)" fill="#FFFFFF" font-family="'Helvetica-Light'" font-size="24">* Can Be Master</text>
<text transform="matrix(1 0 0 1 0.8132 911.8573)" fill="#FFFFFF" font-family="'Helvetica-Light'" font-size="24">* Can Be Master</text>
<text transform="matrix(1 0 0 1 1265.2662 761.8573)" fill="#FFFFFF" font-family="'Helvetica-Light'" font-size="24">* Can Be Master</text>
<text transform="matrix(1 0 0 1 538.9479 761.8573)" fill="#FFFFFF" font-family="'Helvetica-Light'" font-size="24">* Can Be Master</text>
</svg>
