<?xml version="1.0" encoding="utf-8"?>
<!-- Generator: Adobe Illustrator 17.1.0, SVG Export Plug-In . SVG Version: 6.00 Build 0)  -->
<!DOCTYPE svg PUBLIC "-//W3C//DTD SVG 1.1//EN" "http://www.w3.org/Graphics/SVG/1.1/DTD/svg11.dtd">
<svg version="1.1" id="Layer_1" xmlns="http://www.w3.org/2000/svg" xmlns:xlink="http://www.w3.org/1999/xlink" x="0px" y="0px"
	 viewBox="0 0 104 90" enable-background="new 0 0 104 90" xml:space="preserve">
<polyline fill="none" stroke="#0CBC18" stroke-width="0.25" stroke-miterlimit="10" points="18.7,18.2 18.7,47.4 18.7,58.2 
	34.2,58.2 49.1,58.2 "/>
<path fill="#B5C0C9" d="M53.6,60.8H71c0.1-0.8,0.4-2.2,0.4-2.8c0-0.8-0.1-3.5-0.1-3.5H53.6h-0.3H35.7c0,0-0.1,2.7-0.1,3.5
	c0,0.6,0.3,2.1,0.4,2.8h17.4H53.6z"/>
<path fill="#B5C0C9" d="M71,60.8h-35c0,0,0,0,0,0c-0.3-1.4-0.4-2.4-0.4-2.8c0-0.8,0.1-3.5,0.1-3.5c0,0,0,0,0,0h35.5c0,0,0,0,0,0
	c0,0,0.1,2.7,0.1,3.5C71.3,58.4,71.2,59.4,71,60.8C71,60.8,71,60.8,71,60.8z M35.9,60.8h35c0.3-1.4,0.4-2.4,0.4-2.8
	c0-0.8-0.1-3.2-0.1-3.5H35.7c0,0.3-0.1,2.7-0.1,3.5C35.6,58.4,35.7,59.3,35.9,60.8z"/>
<path fill="#8A9AA5" d="M41.5,54.5c0,0,2.5,5.7,2.8,6.1h18.4c0,0,2.2-4.5,2.8-6.2L41.5,54.5z"/>
<path fill="#231F20" d="M61.9,60.8H41.6c0,0,0,0,0,0s0,0,0,0L61.9,60.8C61.9,60.8,61.9,60.8,61.9,60.8
	C61.9,60.8,61.9,60.8,61.9,60.8z"/>
<g>
	<g>
		<g>
			<path fill="#8A9AA5" d="M67.4,57.6c0,0.2-0.3,0.3-0.5,0.3c-0.3,0-0.5-0.1-0.5-0.3c0-0.2,0.3-0.3,0.5-0.3
				C67.1,57.3,67.4,57.5,67.4,57.6z"/>
			<path fill="#8A9AA5" d="M70.5,57.6c0,0.2-0.3,0.3-0.5,0.3c-0.3,0-0.5-0.1-0.5-0.3s0.3-0.3,0.5-0.3C70.2,57.3,70.5,57.5,70.5,57.6
				z"/>
		</g>
		<g>
			<path fill="#8A9AA5" d="M68.4,58.6c0.2,0,0.3,0.3,0.3,0.5c0,0.3-0.1,0.5-0.3,0.5c-0.2,0-0.3-0.3-0.3-0.5
				C68.1,58.9,68.2,58.6,68.4,58.6z"/>
			<path fill="#8A9AA5" d="M68.4,55.5c0.2,0,0.3,0.3,0.3,0.5c0,0.3-0.1,0.5-0.3,0.5c-0.2,0-0.3-0.3-0.3-0.5
				C68.1,55.7,68.2,55.5,68.4,55.5z"/>
		</g>
	</g>
	<path fill="#8A9AA5" d="M69,57.6c0,0.3-0.3,0.6-0.6,0.6c-0.3,0-0.6-0.3-0.6-0.6c0-0.3,0.3-0.6,0.6-0.6C68.7,57,69,57.3,69,57.6z"/>
</g>
<path fill="#0CBC18" d="M71.2,60.9H35.9l0-0.1c-0.3-1.5-0.4-2.4-0.4-2.9c0-0.8,0.1-3.4,0.1-3.5v-0.2h35.8v0.2c0,0.1,0.1,2.7,0.1,3.5
	c0,0.4-0.1,1.4-0.4,2.9L71.2,60.9L71.2,60.9z M36.1,60.6h34.8c0.2-1.4,0.3-2.3,0.3-2.7c0-0.7-0.1-2.8-0.1-3.3H35.9
	c0,0.6-0.1,2.7-0.1,3.3C35.8,58.4,35.9,59.3,36.1,60.6z"/>
<path fill="#8A9AA5" d="M37.1,58.9c0-0.1,0.1-0.2,0.3-0.2h4.1c0.2,0,0.3,0.1,0.3,0.2v0.8c0,0.1-0.1,0.2-0.3,0.2h-4.1
	c-0.2,0-0.3-0.1-0.3-0.2V58.9z"/>
<rect x="36.3" y="55.9" fill="none" width="34.3" height="4.4"/>
<g>
	<text transform="matrix(1 0 0 1 45.0597 58.8867)" fill="#0F1F30" font-family="'Helvetica-Light'" font-size="4.2291">Receiver</text>
</g>
<polyline fill="none" stroke="#0CBC18" stroke-width="0.25" stroke-miterlimit="10" points="14.8,18.2 14.8,59.9 14.8,67.5 
	30.3,67.5 47.7,67.5 "/>
<path fill="#B5C0C9" d="M53.6,70H71c0.1-0.8,0.4-2.2,0.4-2.8c0-0.8-0.1-3.5-0.1-3.5H53.6h-0.3H35.7c0,0-0.1,2.7-0.1,3.5
	c0,0.6,0.3,2.1,0.4,2.8h17.4H53.6z"/>
<path fill="#B5C0C9" d="M71,70h-35c0,0,0,0,0,0c-0.3-1.4-0.4-2.4-0.4-2.8c0-0.8,0.1-3.5,0.1-3.5c0,0,0,0,0,0h35.5c0,0,0,0,0,0
	s0.1,2.7,0.1,3.5C71.3,67.6,71.2,68.6,71,70C71,70,71,70,71,70z M35.9,70h35c0.3-1.4,0.4-2.4,0.4-2.8c0-0.8-0.1-3.2-0.1-3.5H35.7
	c0,0.3-0.1,2.7-0.1,3.5C35.6,67.6,35.7,68.6,35.9,70z"/>
<path fill="#8A9AA5" d="M41.5,63.7c0,0,2.5,5.7,2.8,6.1h18.4c0,0,2.2-4.5,2.8-6.2L41.5,63.7z"/>
<path fill="#231F20" d="M61.9,70.1H41.6c0,0,0,0,0,0c0,0,0,0,0,0L61.9,70.1C61.9,70,61.9,70,61.9,70.1C61.9,70,61.9,70.1,61.9,70.1z
	"/>
<g>
	<g>
		<g>
			<path fill="#8A9AA5" d="M67.4,66.9c0,0.2-0.3,0.3-0.5,0.3c-0.3,0-0.5-0.1-0.5-0.3s0.3-0.3,0.5-0.3S67.4,66.7,67.4,66.9z"/>
			<path fill="#8A9AA5" d="M70.5,66.9c0,0.2-0.3,0.3-0.5,0.3c-0.3,0-0.5-0.1-0.5-0.3s0.3-0.3,0.5-0.3C70.2,66.6,70.5,66.7,70.5,66.9
				z"/>
		</g>
		<g>
			<path fill="#8A9AA5" d="M68.4,67.9c0.2,0,0.3,0.3,0.3,0.5c0,0.3-0.1,0.5-0.3,0.5c-0.2,0-0.3-0.3-0.3-0.5
				C68.1,68.1,68.2,67.9,68.4,67.9z"/>
			<path fill="#8A9AA5" d="M68.4,64.8c0.2,0,0.3,0.3,0.3,0.5s-0.1,0.5-0.3,0.5c-0.2,0-0.3-0.3-0.3-0.5C68.1,65,68.2,64.8,68.4,64.8z
				"/>
		</g>
	</g>
	<path fill="#8A9AA5" d="M69,66.9c0,0.3-0.3,0.6-0.6,0.6c-0.3,0-0.6-0.3-0.6-0.6c0-0.3,0.3-0.6,0.6-0.6C68.7,66.3,69,66.5,69,66.9z"
		/>
</g>
<path fill="#0CBC18" d="M71.2,70.2H35.9l0-0.1c-0.3-1.5-0.4-2.4-0.4-2.9c0-0.8,0.1-3.4,0.1-3.5v-0.2h35.8v0.2c0,0.1,0.1,2.7,0.1,3.5
	c0,0.4-0.1,1.4-0.4,2.9L71.2,70.2L71.2,70.2z M36.1,69.9h34.8c0.2-1.4,0.3-2.3,0.3-2.7c0-0.7-0.1-2.8-0.1-3.3H35.9
	c0,0.6-0.1,2.7-0.1,3.3C35.8,67.6,35.9,68.5,36.1,69.9z"/>
<path fill="#8A9AA5" d="M37.1,68.2c0-0.1,0.1-0.2,0.3-0.2h4.1c0.2,0,0.3,0.1,0.3,0.2V69c0,0.1-0.1,0.2-0.3,0.2h-4.1
	c-0.2,0-0.3-0.1-0.3-0.2V68.2z"/>
<rect x="36.3" y="65.1" fill="none" width="34.3" height="4.4"/>
<g>
	<text transform="matrix(1 0 0 1 45.0607 68.1369)" fill="#0F1F30" font-family="'Helvetica-Light'" font-size="4.2291">Receiver</text>
</g>
<polyline fill="none" stroke="#0CBC18" stroke-width="0.25" stroke-miterlimit="10" points="36.4,18.2 10.9,18.2 10.9,69.1 
	10.9,76.7 26.4,76.6 52.2,76.6 "/>
<path fill="#B5C0C9" d="M53.6,79.2H71c0.1-0.8,0.4-2.2,0.4-2.8c0-0.8-0.1-3.5-0.1-3.5H53.6h-0.3H35.7c0,0-0.1,2.7-0.1,3.5
	c0,0.6,0.3,2.1,0.4,2.8h17.4H53.6z"/>
<path fill="#B5C0C9" d="M71,79.3h-35c0,0,0,0,0,0c-0.3-1.4-0.4-2.4-0.4-2.8c0-0.8,0.1-3.5,0.1-3.5c0,0,0,0,0,0h35.5c0,0,0,0,0,0
	c0,0,0.1,2.7,0.1,3.5C71.3,76.8,71.2,77.8,71,79.3C71,79.2,71,79.3,71,79.3z M35.9,79.2h35c0.3-1.4,0.4-2.4,0.4-2.8
	c0-0.8-0.1-3.2-0.1-3.5H35.7c0,0.3-0.1,2.7-0.1,3.5C35.6,76.8,35.7,77.8,35.9,79.2z"/>
<path fill="#8A9AA5" d="M41.5,72.9c0,0,2.5,5.7,2.8,6.1h18.4c0,0,2.2-4.5,2.8-6.2L41.5,72.9z"/>
<path fill="#231F20" d="M61.9,79.3H41.6c0,0,0,0,0,0c0,0,0,0,0,0L61.9,79.3C61.9,79.2,61.9,79.2,61.9,79.3
	C61.9,79.3,61.9,79.3,61.9,79.3z"/>
<g>
	<g>
		<g>
			<path fill="#8A9AA5" d="M67.4,76c0,0.2-0.3,0.3-0.5,0.3c-0.3,0-0.5-0.1-0.5-0.3s0.3-0.3,0.5-0.3S67.4,75.9,67.4,76z"/>
			<path fill="#8A9AA5" d="M70.5,76c0,0.2-0.3,0.3-0.5,0.3c-0.3,0-0.5-0.1-0.5-0.3s0.3-0.3,0.5-0.3C70.2,75.7,70.5,75.9,70.5,76z"/>
		</g>
		<g>
			<path fill="#8A9AA5" d="M68.4,77.1c0.2,0,0.3,0.3,0.3,0.5c0,0.3-0.1,0.5-0.3,0.5c-0.2,0-0.3-0.3-0.3-0.5
				C68.1,77.3,68.2,77.1,68.4,77.1z"/>
			<path fill="#8A9AA5" d="M68.4,73.9c0.2,0,0.3,0.3,0.3,0.5S68.5,75,68.4,75c-0.2,0-0.3-0.3-0.3-0.5C68.1,74.2,68.2,73.9,68.4,73.9
				z"/>
		</g>
	</g>
	<path fill="#8A9AA5" d="M69,76c0,0.3-0.3,0.6-0.6,0.6c-0.3,0-0.6-0.3-0.6-0.6s0.3-0.6,0.6-0.6C68.7,75.4,69,75.7,69,76z"/>
</g>
<path fill="#0CBC18" d="M71.2,79.4H35.9l0-0.1c-0.3-1.5-0.4-2.4-0.4-2.9c0-0.8,0.1-3.4,0.1-3.5v-0.2h35.8v0.2c0,0.1,0.1,2.7,0.1,3.5
	c0,0.4-0.1,1.4-0.4,2.9L71.2,79.4L71.2,79.4z M36.1,79h34.8c0.2-1.4,0.3-2.3,0.3-2.7c0-0.7-0.1-2.8-0.1-3.3H35.9
	c0,0.6-0.1,2.7-0.1,3.3C35.8,76.8,35.9,77.7,36.1,79z"/>
<path fill="#8A9AA5" d="M37.1,77.3c0-0.1,0.1-0.2,0.3-0.2h4.1c0.2,0,0.3,0.1,0.3,0.2v0.8c0,0.1-0.1,0.2-0.3,0.2h-4.1
	c-0.2,0-0.3-0.1-0.3-0.2V77.3z"/>
<rect x="36.3" y="74.3" fill="none" width="34.3" height="4.4"/>
<g>
	<text transform="matrix(1 0 0 1 45.0607 77.3166)" fill="#0F1F30" font-family="'Helvetica-Light'" font-size="4.2291">Receiver</text>
</g>
<g>
	<text transform="matrix(0 -1 1 0 7.7431 50.124)" fill="#0CBC18" font-family="'Helvetica-Light'" font-size="2.5374">Optional</text>
</g>
<polyline fill="none" stroke="#FFFFFF" stroke-width="0.25" stroke-miterlimit="10" points="71.5,18.2 98.4,18.2 98.4,38.7 98.4,39 
	70.6,39 "/>
<g>
	<g>
		<path fill="#B5C0C9" d="M53.6,41.8H71c0.1-0.8,0.4-2.2,0.4-2.8c0-0.8-0.1-3.5-0.1-3.5H53.6h-0.3H35.8c0,0-0.1,2.7-0.1,3.5
			c0,0.6,0.3,2.1,0.4,2.8h17.4H53.6z"/>
		<path fill="#B5C0C9" d="M71,41.9H36c0,0,0,0,0,0c-0.3-1.4-0.4-2.4-0.4-2.8c0-0.8,0.1-3.5,0.1-3.5c0,0,0,0,0,0h35.5c0,0,0,0,0,0
			c0,0,0.1,2.7,0.1,3.5C71.4,39.4,71.2,40.4,71,41.9C71,41.9,71,41.9,71,41.9z M36,41.8h35c0.3-1.4,0.4-2.4,0.4-2.8
			c0-0.8-0.1-3.2-0.1-3.5H35.8c0,0.3-0.1,2.7-0.1,3.5C35.6,39.4,35.8,40.4,36,41.8z"/>
		<path fill="#8A9AA5" d="M41.5,35.5c0,0,2.5,5.7,2.8,6.1h18.4c0,0,2.2-4.5,2.8-6.2L41.5,35.5z"/>
		<path fill="#231F20" d="M61.9,41.9H41.6c0,0,0,0,0,0c0,0,0,0,0,0L61.9,41.9C62,41.8,62,41.8,61.9,41.9C62,41.9,62,41.9,61.9,41.9z
			"/>
		<g>
			<g>
				<g>
					<path fill="#8A9AA5" d="M67.4,38.7c0,0.2-0.3,0.3-0.5,0.3s-0.5-0.1-0.5-0.3c0-0.2,0.3-0.3,0.5-0.3
						C67.1,38.4,67.4,38.5,67.4,38.7z"/>
					<path fill="#8A9AA5" d="M70.5,38.7c0,0.2-0.3,0.3-0.5,0.3c-0.3,0-0.5-0.1-0.5-0.3s0.3-0.3,0.5-0.3
						C70.3,38.4,70.5,38.5,70.5,38.7z"/>
				</g>
				<g>
					<path fill="#8A9AA5" d="M68.4,39.7c0.2,0,0.3,0.3,0.3,0.5c0,0.3-0.1,0.5-0.3,0.5s-0.3-0.3-0.3-0.5C68.1,40,68.2,39.7,68.4,39.7
						z"/>
					<path fill="#8A9AA5" d="M68.4,36.6c0.2,0,0.3,0.3,0.3,0.5c0,0.3-0.1,0.5-0.3,0.5s-0.3-0.3-0.3-0.5
						C68.1,36.8,68.2,36.6,68.4,36.6z"/>
				</g>
			</g>
			<path fill="#8A9AA5" d="M69,38.7c0,0.3-0.3,0.6-0.6,0.6s-0.6-0.3-0.6-0.6s0.3-0.6,0.6-0.6S69,38.4,69,38.7z"/>
		</g>
		<path fill="#FFFFFF" d="M71.2,42H35.9l0-0.1c-0.3-1.5-0.4-2.4-0.4-2.9c0-0.8,0.1-3.4,0.1-3.5v-0.2h35.8v0.2c0,0.1,0.1,2.7,0.1,3.5
			c0,0.4-0.1,1.4-0.4,2.9L71.2,42z M36.2,41.7h34.8c0.2-1.4,0.3-2.3,0.3-2.7c0-0.7-0.1-2.8-0.1-3.3H36c0,0.6-0.1,2.7-0.1,3.3
			C35.8,39.4,36,40.3,36.2,41.7z"/>
		<path fill="#8A9AA5" d="M37.1,40c0-0.1,0.1-0.2,0.3-0.2h4.1c0.2,0,0.3,0.1,0.3,0.2v0.8c0,0.1-0.1,0.2-0.3,0.2h-4.1
			c-0.2,0-0.3-0.1-0.3-0.2C37.1,40.8,37.1,40,37.1,40z"/>
	</g>
	<rect x="36.3" y="36.9" fill="none" width="34.3" height="4.4"/>
	<g>
		<text transform="matrix(1 0 0 1 45.0804 39.9627)" fill="#0F1F30" font-family="'Helvetica-Light'" font-size="4.2291">Receiver</text>
	</g>
</g>
<g>
	<text transform="matrix(1 0 0 1 48.336 46.6564)" fill="#DEF93D" font-family="'Helvetica'" font-size="3.3833">Master</text>
</g>
<line fill="none" stroke="#FFFFFF" stroke-width="0.25" stroke-miterlimit="10" x1="46.5" y1="18.2" x2="65.4" y2="18.2"/>
<g>
	<path fill="#FFFFFF" d="M45.3,21.5h-7.8l0,0c0,0-0.9-0.3-1.2-1.2l0,0v-0.9l0.1-4.4l0,0c0.4-1.8,1.3-3,2.7-3.8
		c1.1-0.5,2.1-0.6,2.2-0.6l0,0c0,0,0,0,0.1,0c0.7,0,4.1,0.2,5,4.4l0,0l0.2,4.4v0.9l0,0c-0.2,0.5-0.5,0.8-0.8,1
		C45.6,21.5,45.3,21.5,45.3,21.5L45.3,21.5z M37.6,21.4h7.7c0.1,0,0.8-0.2,1.1-1.1v-0.9L46.3,15c-0.8-4-4.1-4.2-4.8-4.2
		c0,0-0.1,0-0.1,0l0,0l0,0c-0.1,0-1.1,0-2.2,0.5c-1.4,0.7-2.3,1.9-2.6,3.7l-0.1,4.4v0.9C36.8,21.1,37.5,21.4,37.6,21.4z"/>
	<path fill="#B5C0C9" d="M36.4,19.5v0.9c0.3,0.8,1.2,1.1,1.2,1.1h7.8c0.8-0.2,1.1-1.1,1.1-1.1v-0.9H36.4z"/>
	<path fill="#FFFFFF" d="M46.5,19.5H36.4c0,0-0.1,0-0.1-0.1c0,0,0-0.1,0.1-0.1h10.2C46.6,19.3,46.6,19.4,46.5,19.5
		C46.6,19.5,46.6,19.5,46.5,19.5z"/>
	<path fill="#FFFFFF" d="M45.3,21.5h-7.8c0,0,0,0,0,0c0,0-0.9-0.3-1.2-1.2c0,0,0,0,0,0v-0.9l0.1-4.4l0,0c0.4-1.8,1.3-3,2.7-3.8
		c1.1-0.5,2.1-0.6,2.2-0.6l0,0c0,0,0,0,0.1,0c0.7,0,4.1,0.2,5,4.4l0,0l0.2,4.4v0.9c0,0,0,0,0,0c-0.2,0.5-0.5,0.8-0.8,1
		C45.6,21.5,45.3,21.5,45.3,21.5L45.3,21.5z M37.6,21.4h7.7c0.1,0,0.8-0.2,1.1-1.1v-0.9L46.3,15c-0.8-4-4.1-4.2-4.8-4.2
		c0,0-0.1,0-0.1,0l0,0l0,0c-0.1,0-1.1,0-2.2,0.5c-1.4,0.7-2.3,1.9-2.6,3.7l-0.1,4.4v0.9C36.8,21.1,37.5,21.4,37.6,21.4z"/>
</g>
<rect x="33.9" y="23.9" fill="none" width="15" height="4.4"/>
<text transform="matrix(1 0 0 1 35.139 26.3237)" fill="#FFFFFF" font-family="'Helvetica'" font-size="3.3833">Antenna</text>
<g>
	<path fill="#FFFFFF" d="M69.5,16.5l0-4.9c0,0,0-0.3-0.3-0.3l0,0c-0.3,0-0.3,0.3-0.3,0.3l0,4.9H69.5z"/>
	<path fill="#B5C0C9" d="M64.3,19.4H73V17c0,0,0-0.3-0.9-0.4c0,0-3.1-0.3-7.7-0.4h0c-4.7,0-7.7,0.4-7.7,0.4c-1,0.1-0.9,0.4-0.9,0.4
		v2.4H64.3L64.3,19.4z"/>
	<path fill="#8A9AA5" d="M63.6,17.3c0,0.1-0.1,0.2-0.2,0.2l0,0c-0.1,0-0.2-0.1-0.2-0.2v-1.1h0.3C63.6,16.3,63.6,17.3,63.6,17.3z"/>
	<path fill="#8A9AA5" d="M64.5,17.3c0,0.1-0.1,0.2-0.2,0.2l0,0c-0.1,0-0.2-0.1-0.2-0.2v-1.1h0.3C64.5,16.3,64.5,17.3,64.5,17.3z"/>
	<path fill="#8A9AA5" d="M65.4,17.3c0,0.1-0.1,0.2-0.2,0.2l0,0c-0.1,0-0.2-0.1-0.2-0.2v-1.1h0.3C65.4,16.3,65.4,17.3,65.4,17.3z"/>
	<path fill="#FFFFFF" d="M73.1,19.5H55.5V17c0,0,0-0.1,0-0.2c0.1-0.2,0.5-0.3,0.9-0.3c0,0,3.1-0.3,7.7-0.4h0c4.6,0,7.7,0.4,7.7,0.4
		c0.5,0,0.8,0.2,0.9,0.3c0,0.1,0,0.1,0,0.2L73.1,19.5C73,19.5,73.1,19.5,73.1,19.5z M55.7,19.3h17.3V17l0,0c0,0,0-0.3-0.8-0.3
		c0,0-3.1-0.3-7.7-0.4h0c-4.6,0-7.7,0.4-7.7,0.4c-0.8,0.1-0.8,0.3-0.8,0.3l0,0l0,0L55.7,19.3C55.7,19.3,55.7,19.3,55.7,19.3z"/>
</g>
<rect x="55.7" y="23.9" fill="none" width="17.4" height="4.4"/>
<text transform="matrix(1 0 0 1 58.5628 26.3237)" fill="#FFFFFF" font-family="'Helvetica'" font-size="3.3833">TV-Hub</text>
</svg>
