<?xml version="1.0" encoding="utf-8"?>
<!-- Generator: Adobe Illustrator 17.1.0, SVG Export Plug-In . SVG Version: 6.00 Build 0)  -->
<!DOCTYPE svg PUBLIC "-//W3C//DTD SVG 1.1//EN" "http://www.w3.org/Graphics/SVG/1.1/DTD/svg11.dtd">
<svg version="1.1" id="Layer_1" xmlns="http://www.w3.org/2000/svg" xmlns:xlink="http://www.w3.org/1999/xlink" x="0px" y="0px"
	 viewBox="0 0 104 90" enable-background="new 0 0 104 90" xml:space="preserve">
<g>
	<g>
		<line fill="none" x1="48.1" y1="58.6" x2="48.1" y2="85.1"/>
		<rect x="47.7" y="58.6" fill="#FFFFFF" width="0.8" height="26.4"/>
	</g>
	<g>
		<line fill="none" x1="36.4" y1="33.6" x2="36.4" y2="60"/>
		<rect x="36" y="33.6" fill="#FFFFFF" width="0.8" height="26.4"/>
	</g>
	<g>
		<g>
			<path fill="#FFFFFF" d="M49.5,35.3H24.3h0c-0.1,0-2.8-1-4-3.8v0v-3l0.4-14.3l0,0c1.2-5.8,4.1-9.9,8.7-12.3
				C32.9,0.1,36.3,0,36.6,0h0c0,0,0.1,0,0.3,0c2.2,0,13.3,0.7,16,14.1v0l0.5,14.3v3v0c-0.7,1.7-1.7,2.6-2.5,3.1
				C50.2,35.1,49.5,35.3,49.5,35.3L49.5,35.3z M24.3,34.8h25.1c0.2,0,2.5-0.7,3.7-3.5v-2.9l-0.5-14.2C50,1.1,39.2,0.4,37,0.4
				c-0.2,0-0.3,0-0.3,0l0,0h0c-0.4,0-3.6,0-7.1,1.8c-4.5,2.3-7.4,6.3-8.5,12l-0.4,14.3v2.9C21.7,33.8,24,34.8,24.3,34.8z"/>
		</g>
		<g>
			<path fill="#2C3B47" d="M20.4,28.5v2.9c1,2.6,3.9,3.6,3.9,3.6h25.3c2.4-0.5,3.7-3.6,3.7-3.6v-2.9H20.4z"/>
		</g>
		<g>
			<path d="M53.3,31.4H20.4c0,0,0,0,0,0c0,0,0,0,0,0L53.3,31.4C53.4,31.3,53.4,31.4,53.3,31.4C53.4,31.4,53.4,31.4,53.3,31.4z"/>
		</g>
		<g>
			<path d="M53.3,31.5H20.4c0,0,0,0,0,0v-2.9c0,0,0,0,0,0h32.9c0,0,0,0,0,0L53.3,31.5C53.4,31.5,53.4,31.5,53.3,31.5z M20.4,31.4
				h32.8v-2.9H20.4V31.4z"/>
		</g>
		<g>
			<path d="M49.6,35.1H24.3l0,0c0,0-3-1.1-3.9-3.6v0c0,0,0,0,0,0h32.9h0c0,0,0,0,0,0C53.4,31.5,52,34.6,49.6,35.1L49.6,35.1z
				 M24.3,35h25.2c2.2-0.5,3.5-3.1,3.7-3.5H20.5C21.4,33.9,24.2,34.9,24.3,35z"/>
		</g>
		<g>
			<path fill="#FFFFFF" d="M53.3,31.6H20.4c-0.1,0-0.2-0.1-0.2-0.2c0-0.1,0.1-0.2,0.2-0.2h32.9c0.1,0,0.2,0.1,0.2,0.2
				C53.5,31.5,53.5,31.6,53.3,31.6z"/>
		</g>
		<g>
			<path fill="#FFFFFF" d="M53.3,28.6H20.4c-0.1,0-0.2-0.1-0.2-0.2s0.1-0.2,0.2-0.2h32.9c0.1,0,0.2,0.1,0.2,0.2S53.5,28.6,53.3,28.6
				z"/>
		</g>
		<g>
			<g>
				<path fill="#FFFFFF" d="M25.1,25.7l1.8-4.6h0.5l1.7,4.6h-0.5l-0.6-1.4H26l-0.6,1.4H25.1z M26.2,23.9H28l-0.9-2.4L26.2,23.9z"/>
			</g>
			<g>
				<path fill="#FFFFFF" d="M30.1,25.7h-0.4v-3.3h0.4v0.5c0.1-0.2,0.3-0.3,0.5-0.4s0.4-0.1,0.6-0.1c0.2,0,0.4,0,0.6,0.1
					c0.2,0.1,0.3,0.2,0.5,0.4c0.1,0.1,0.1,0.2,0.1,0.4c0,0.1,0,0.3,0,0.4v2.2H32v-2.2c0-0.3,0-0.5-0.2-0.7c-0.1-0.1-0.4-0.2-0.6-0.2
					c-0.1,0-0.2,0-0.3,0c-0.1,0-0.2,0.1-0.3,0.1s-0.1,0.1-0.2,0.2c0,0.1-0.1,0.1-0.1,0.2c0,0.1,0,0.2-0.1,0.3c0,0.1,0,0.2,0,0.3
					V25.7z"/>
			</g>
			<g>
				<path fill="#FFFFFF" d="M34.4,25.7c0,0-0.1,0-0.2,0c-0.1,0-0.2,0-0.3,0c-0.2,0-0.3,0-0.5-0.1c-0.1-0.1-0.1-0.3-0.1-0.5v-2.4
					h-0.5v-0.3h0.5v-0.9h0.4v0.9h0.6v0.3h-0.6V25c0,0.1,0,0.1,0,0.2c0,0,0,0.1,0,0.1c0,0,0,0,0.1,0.1c0,0,0.1,0,0.2,0
					c0,0,0.1,0,0.1,0c0,0,0.1,0,0.1,0L34.4,25.7L34.4,25.7z"/>
			</g>
			<g>
				<path fill="#FFFFFF" d="M35.3,24.1c0,0.2,0,0.4,0.1,0.5s0.1,0.3,0.2,0.4s0.2,0.2,0.4,0.3c0.1,0.1,0.3,0.1,0.5,0.1
					c0.2,0,0.5,0,0.6-0.2c0.2-0.1,0.3-0.3,0.4-0.6h0.4c0,0.1-0.1,0.3-0.2,0.5s-0.2,0.2-0.3,0.4c-0.1,0.1-0.2,0.2-0.4,0.2
					c-0.2,0-0.4,0-0.6,0c-0.3,0-0.5,0-0.7-0.1c-0.2-0.1-0.4-0.2-0.5-0.4c-0.1-0.1-0.2-0.3-0.3-0.6c0-0.2-0.1-0.5-0.1-0.7
					s0-0.5,0.1-0.7c0.1-0.2,0.2-0.4,0.3-0.6s0.3-0.3,0.5-0.4s0.4-0.1,0.6-0.1c0.5,0,0.8,0.1,1.1,0.5c0.3,0.3,0.4,0.8,0.4,1.4H35.3z
					 M37.4,23.8c0-0.2,0-0.3,0-0.5c0-0.1-0.1-0.3-0.2-0.4c-0.1-0.1-0.2-0.2-0.3-0.2c-0.1,0-0.3-0.1-0.5-0.1s-0.3,0-0.5,0.1
					s-0.2,0.1-0.3,0.3c-0.1,0.1-0.2,0.2-0.2,0.4c0,0.1-0.1,0.3-0.1,0.5L37.4,23.8L37.4,23.8z"/>
			</g>
			<g>
				<path fill="#FFFFFF" d="M39,25.7h-0.4v-3.3H39v0.5c0.1-0.2,0.3-0.3,0.5-0.4c0.1-0.1,0.4-0.1,0.6-0.1c0.2,0,0.4,0,0.6,0.1
					c0.2,0.1,0.3,0.2,0.5,0.4c0.1,0.1,0.1,0.2,0.1,0.4c0,0.1,0,0.3,0,0.4v2.2h-0.4v-2.2c0-0.3,0-0.5-0.2-0.7
					c-0.1-0.1-0.4-0.2-0.6-0.2c-0.1,0-0.2,0-0.3,0c-0.1,0-0.2,0.1-0.3,0.1s-0.1,0.1-0.2,0.2c0,0.1-0.1,0.1-0.1,0.2
					c0,0.1,0,0.2-0.1,0.3c0,0.1,0,0.2,0,0.3C39,23.8,39,25.7,39,25.7z"/>
			</g>
			<g>
				<path fill="#FFFFFF" d="M42.5,25.7h-0.4v-3.3h0.4v0.5c0.1-0.2,0.3-0.3,0.5-0.4s0.4-0.1,0.6-0.1c0.2,0,0.4,0,0.6,0.1
					c0.2,0.1,0.3,0.2,0.5,0.4c0.1,0.1,0.1,0.2,0.1,0.4c0,0.1,0,0.3,0,0.4v2.2h-0.4v-2.2c0-0.3,0-0.5-0.2-0.7
					c-0.1-0.1-0.4-0.2-0.6-0.2c-0.1,0-0.2,0-0.3,0c-0.1,0-0.2,0.1-0.3,0.1s-0.1,0.1-0.2,0.2c0,0.1-0.1,0.1-0.1,0.2
					c0,0.1,0,0.2-0.1,0.3c0,0.1,0,0.2,0,0.3C42.5,23.8,42.5,25.7,42.5,25.7z"/>
			</g>
			<g>
				<path fill="#FFFFFF" d="M47.2,23.8c0.1,0,0.1,0,0.3,0c0.1,0,0.2,0,0.2-0.1c0,0,0.1-0.1,0.1-0.1c0-0.1,0-0.1,0-0.2
					c0-0.2,0-0.4-0.2-0.5c-0.1-0.1-0.3-0.2-0.6-0.2c-0.1,0-0.3,0-0.4,0s-0.2,0-0.3,0.1c-0.1,0-0.1,0.1-0.2,0.2s-0.1,0.2-0.1,0.4
					h-0.4c0-0.2,0-0.4,0.1-0.5c0.1-0.1,0.2-0.2,0.3-0.3c0.1-0.1,0.3-0.1,0.4-0.2c0.1,0,0.3,0,0.5,0c0.2,0,0.3,0,0.5,0
					c0.1,0,0.3,0.1,0.4,0.2c0.1,0.1,0.2,0.2,0.3,0.3c0,0.1,0.1,0.3,0.1,0.5v1.8c0,0.1,0,0.2,0.1,0.3c0,0,0.1,0,0.3,0v0.3
					c0,0-0.1,0-0.1,0c0,0-0.1,0-0.2,0c0,0-0.1,0-0.2,0s-0.1,0-0.1,0c0,0-0.1-0.1-0.1-0.1c0,0,0-0.1,0-0.1c0,0,0-0.1,0-0.2
					c-0.2,0.2-0.4,0.3-0.6,0.4c-0.2,0-0.5,0-0.7,0c-0.1,0-0.3,0-0.4,0c-0.1,0-0.2-0.1-0.4-0.2c-0.1-0.1-0.2-0.2-0.2-0.3
					c0-0.1-0.1-0.3-0.1-0.4c0-0.6,0.4-0.9,1.2-1L47.2,23.8z M47.9,23.9c-0.2,0-0.3,0.1-0.5,0.1c-0.2,0-0.3,0-0.5,0
					c-0.3,0-0.5,0.1-0.7,0.2c-0.2,0.1-0.2,0.3-0.2,0.5c0,0.1,0,0.2,0,0.3c0,0.1,0.1,0.1,0.1,0.2c0,0,0.1,0.1,0.2,0.1
					c0.1,0,0.2,0,0.3,0c0.1,0,0.3,0,0.5,0c0.1,0,0.3-0.1,0.4-0.2c0.1-0.1,0.2-0.2,0.3-0.3c0-0.1,0.1-0.3,0.1-0.4L47.9,23.9
					L47.9,23.9z"/>
			</g>
		</g>
		<g>
			<path fill="#FFFFFF" d="M49.4,35.3H24.3c0,0,0,0-0.1,0c-0.1,0-2.8-1-4-3.8c0,0,0,0,0-0.1v-2.9l0.4-14.2v0
				c1.2-5.8,4.1-9.9,8.7-12.3C32.9,0.1,36.2,0,36.6,0h0c0,0,0.1,0,0.3,0c2.2,0,13.3,0.7,16,14.1c0,0,0,0,0,0l0.5,14.3v2.9
				c0,0,0,0,0,0.1c-0.7,1.7-1.7,2.6-2.5,3.1C50.1,35.2,49.5,35.4,49.4,35.3C49.5,35.3,49.5,35.3,49.4,35.3z M24.3,34.8h25.1
				c0.2,0,2.5-0.7,3.7-3.5v-2.9l-0.5-14.2C50,1.1,39.2,0.4,37,0.4c-0.2,0-0.3,0-0.3,0l0,0h0c-0.4,0-3.6,0-7.1,1.8
				c-4.5,2.3-7.4,6.3-8.5,12l-0.4,14.3v2.9C21.7,33.8,24,34.8,24.3,34.8z"/>
		</g>
	</g>
	<g>
		<g>
			<path fill="#FFFFFF" d="M64.3,55.2l-0.2-15.7c0,0,0-1.1-1-1.1l0,0c-1,0-1,1.1-1,1.1L62,55.2H64.3z"/>
		</g>
		<g>
			<path fill="#2C3B47" d="M47.3,64.7h28.2v-7.8c0,0,0.2-1-3-1.3c0,0-9.9-1.1-25.1-1.3h-0.2c-15.1,0.2-25.1,1.3-25.1,1.3
				c-3.2,0.3-3,1.3-3,1.3v7.8H47.3L47.3,64.7z"/>
			<path fill="#FFFFFF" d="M75.8,65H18.8v-8.1c0-0.1,0-0.3,0.2-0.6c0.4-0.6,1.5-0.9,3.1-1.1c0.1,0,10.1-1.1,25.1-1.3h0.2
				c15,0.2,25,1.2,25.1,1.3c1.6,0.1,2.7,0.5,3.1,1.1c0.2,0.2,0.2,0.5,0.2,0.6V65z M19.3,64.5h55.9v-7.6l0,0c0,0-0.1-0.8-2.8-1
				c-0.1,0-10.1-1.1-25.1-1.3h-0.2c-14.9,0.2-25,1.2-25,1.3c-2.8,0.2-2.8,1-2.8,1v0l0,0L19.3,64.5L19.3,64.5z"/>
		</g>
		<g>
			<path fill="#808080" d="M44.8,58c0,0.3-0.2,0.6-0.6,0.6l0,0c-0.3,0-0.6-0.2-0.6-0.6v-3.4h1.1V58z"/>
			<path fill="#FFFFFF" d="M44.3,58.6c-0.4,0-0.6-0.3-0.6-0.6v-3.4c0,0,0-0.1,0.1-0.1h1.1c0,0,0.1,0,0.1,0.1V58
				C44.9,58.4,44.7,58.6,44.3,58.6z M43.8,54.7v3.3c0,0.3,0.2,0.5,0.5,0.5c0.3,0,0.5-0.2,0.5-0.5v-3.3H43.8z"/>
		</g>
		<g>
			<path fill="#808080" d="M47.8,58c0,0.3-0.2,0.6-0.6,0.6l0,0c-0.3,0-0.6-0.2-0.6-0.6v-3.5h1.1V58z"/>
			<path fill="#FFFFFF" d="M47.3,58.6c-0.4,0-0.6-0.3-0.6-0.6v-3.5c0,0,0-0.1,0.1-0.1h1.1c0,0,0.1,0,0.1,0.1V58
				C47.9,58.4,47.6,58.6,47.3,58.6z M46.8,54.7v3.4c0,0.3,0.2,0.5,0.5,0.5c0.3,0,0.5-0.2,0.5-0.5v-3.4H46.8z"/>
		</g>
		<g>
			<path fill="#808080" d="M50.8,58c0,0.3-0.2,0.6-0.6,0.6l0,0c-0.3,0-0.6-0.2-0.6-0.6v-3.5h1.1C50.8,54.6,50.8,58,50.8,58z"/>
			<path fill="#FFFFFF" d="M50.3,58.6c-0.4,0-0.6-0.3-0.6-0.6v-3.5c0,0,0-0.1,0.1-0.1h1.1c0,0,0.1,0,0.1,0.1V58
				C50.9,58.4,50.6,58.6,50.3,58.6z M49.8,54.7v3.4c0,0.3,0.2,0.5,0.5,0.5c0.3,0,0.5-0.2,0.5-0.5v-3.4H49.8z"/>
		</g>
		<g>
			<g>
				<path fill="#FFFFFF" d="M21,57.6h3.4V58h-1.5v4.2h-0.5V58H21V57.6z"/>
			</g>
			<g>
				<path fill="#FFFFFF" d="M24.5,57.6H25l1.4,4.1l1.4-4.1h0.5l-1.6,4.6h-0.5L24.5,57.6z"/>
			</g>
			<g>
				<path fill="#FFFFFF" d="M30.2,60.4v0.4h-1.6v-0.4H30.2z"/>
			</g>
			<g>
				<path fill="#FFFFFF" d="M31,62.2v-4.6h0.4v2h2.7v-2h0.4v4.6h-0.4V60h-2.7v2.3H31z"/>
			</g>
			<g>
				<path fill="#FFFFFF" d="M37.8,58.9h0.4v3.3h-0.4v-0.5c0,0-0.1,0.1-0.2,0.2c0,0-0.1,0.1-0.2,0.2c-0.1,0-0.2,0.1-0.3,0.1
					c-0.1,0-0.2,0-0.4,0c-0.2,0-0.4,0-0.6-0.1c-0.1,0-0.3-0.1-0.4-0.3c-0.1-0.1-0.1-0.2-0.2-0.4c0-0.1,0-0.3,0-0.5v-2.2H36v2.2
					c0,0.3,0,0.5,0.2,0.6c0.1,0.1,0.4,0.2,0.6,0.2c0.1,0,0.3,0,0.4-0.1c0.1,0,0.2-0.1,0.3-0.3c0.1-0.1,0.1-0.2,0.2-0.4
					c0-0.1,0.1-0.3,0.1-0.5C37.8,60.7,37.8,58.9,37.8,58.9z"/>
			</g>
			<g>
				<path fill="#FFFFFF" d="M39.5,62.2h-0.4v-4.6h0.4v1.8c0.1-0.2,0.3-0.4,0.5-0.5c0.2-0.1,0.5-0.1,0.7-0.1s0.5,0,0.6,0.1
					c0.2,0.1,0.3,0.2,0.5,0.4c0.1,0.1,0.2,0.4,0.3,0.6c0,0.2,0.1,0.4,0.1,0.6s0,0.5-0.1,0.7s-0.1,0.4-0.3,0.6
					c-0.1,0.1-0.3,0.3-0.5,0.4c-0.2,0.1-0.4,0.1-0.7,0.1c-0.1,0-0.2,0-0.3,0c-0.1,0-0.2-0.1-0.3-0.1c-0.1,0-0.2-0.1-0.3-0.2
					c-0.1-0.1-0.1-0.2-0.2-0.3l0,0V62.2z M39.5,60.6c0,0.2,0,0.4,0.1,0.6c0,0.2,0.1,0.3,0.2,0.5s0.2,0.2,0.4,0.3
					c0.1,0.1,0.3,0.1,0.5,0.1c0.2,0,0.3,0,0.5-0.1c0.1,0,0.3-0.1,0.4-0.2c0.1-0.1,0.2-0.2,0.2-0.4c0-0.1,0.1-0.3,0.1-0.6
					s0-0.4,0-0.6c0-0.2-0.1-0.3-0.2-0.5s-0.2-0.2-0.4-0.3c-0.1-0.1-0.3-0.1-0.5-0.1s-0.3,0-0.5,0.1c-0.1,0.1-0.3,0.2-0.4,0.3
					c-0.1,0.1-0.2,0.3-0.2,0.5C39.5,60.2,39.5,60.4,39.5,60.6z"/>
			</g>
		</g>
	</g>
	<g>
		<g>
			<g>
				<path fill="#808080" d="M47.1,89.7h24.5c0.2-1.1,0.5-3.2,0.5-4c0-1.2-0.2-5-0.2-5H47.1h-0.4H21.8c0,0-0.2,3.8-0.2,5
					c0,0.8,0.3,2.9,0.5,4h24.5H47.1z"/>
				<path fill="#FFFFFF" d="M71.6,89.8H22.2c0,0,0,0,0,0c-0.3-2-0.5-3.4-0.5-4c0-1.2,0.2-4.9,0.2-5c0,0,0,0,0,0h50c0,0,0,0,0,0
					c0,0,0.2,3.8,0.2,5C72.2,86.3,72,87.7,71.6,89.8C71.6,89.7,71.6,89.8,71.6,89.8z M22.2,89.7h49.4c0.3-2,0.5-3.4,0.5-4
					c0-1.1-0.2-4.5-0.2-4.9h-50c0,0.4-0.2,3.9-0.2,4.9C21.7,86.3,21.9,87.7,22.2,89.7z"/>
			</g>
			<g>
				<path fill="#3C4855" d="M30.1,80.8c0,0,3,7,3.5,7.7h26.9c0,0,2.7-5.4,3.5-7.8L30.1,80.8z"/>
				<path fill="#FFFFFF" d="M60.5,88.6h-27v0c-0.4-0.7-3.4-7.5-3.5-7.7l0-0.1l34.1,0l0,0.1C63.2,83.1,60.5,88.5,60.5,88.6L60.5,88.6
					z M33.6,88.5h26.8c0.2-0.5,2.6-5.4,3.5-7.6l-33.7,0C30.6,81.8,33.1,87.7,33.6,88.5z"/>
			</g>
			<g>
				<path fill="#231F20" d="M58.9,89.8H30.2c0,0,0,0,0,0c0,0,0,0,0,0L58.9,89.8C58.9,89.7,58.9,89.7,58.9,89.8L58.9,89.8z"/>
			</g>
			<g>
				<path fill="#3C4855" d="M65.9,85.6c0,0.3-0.3,0.5-0.6,0.5s-0.6-0.2-0.6-0.5s0.3-0.5,0.6-0.5C65.6,85.1,65.9,85.3,65.9,85.6z"/>
				<path fill="#FFFFFF" d="M65.2,86.1c-0.4,0-0.7-0.3-0.7-0.6c0-0.3,0.3-0.6,0.7-0.6s0.7,0.3,0.7,0.6
					C65.9,85.9,65.6,86.1,65.2,86.1z M65.2,85.2c-0.3,0-0.6,0.2-0.6,0.4S65,86,65.2,86c0.3,0,0.6-0.2,0.6-0.4
					C65.8,85.4,65.6,85.2,65.2,85.2z"/>
			</g>
			<g>
				<path fill="#3C4855" d="M69.1,85.6c0-0.3,0.3-0.5,0.6-0.5s0.6,0.2,0.6,0.5s-0.3,0.5-0.6,0.5S69.1,85.9,69.1,85.6z"/>
				<path fill="#FFFFFF" d="M69.8,86.1c-0.4,0-0.7-0.3-0.7-0.6c0-0.3,0.3-0.6,0.7-0.6c0.4,0,0.7,0.3,0.7,0.6
					C70.5,85.9,70.2,86.1,69.8,86.1z M69.8,85.2c-0.3,0-0.6,0.2-0.6,0.4s0.3,0.4,0.6,0.4c0.3,0,0.6-0.2,0.6-0.4
					C70.4,85.4,70.1,85.2,69.8,85.2z"/>
			</g>
			<g>
				<ellipse fill="#3C4855" cx="67.6" cy="83.8" rx="0.5" ry="0.6"/>
				<path fill="#FFFFFF" d="M67.6,84.5c-0.3,0-0.6-0.3-0.6-0.7s0.3-0.7,0.6-0.7c0.3,0,0.6,0.3,0.6,0.7C68.2,84.2,68,84.5,67.6,84.5z
					 M67.6,83.2c-0.2,0-0.4,0.3-0.4,0.6s0.2,0.6,0.4,0.6s0.4-0.3,0.4-0.6S67.9,83.2,67.6,83.2z"/>
			</g>
			<g>
				<path fill="#3C4855" d="M67.5,86.8c0.3,0,0.5,0.3,0.5,0.6s-0.2,0.6-0.5,0.6c-0.3,0-0.5-0.3-0.5-0.6C67,87.1,67.3,86.8,67.5,86.8
					z"/>
				<path fill="#FFFFFF" d="M67.5,88.2c-0.3,0-0.6-0.3-0.6-0.7s0.3-0.7,0.6-0.7c0.3,0,0.6,0.3,0.6,0.7
					C68.1,87.9,67.9,88.2,67.5,88.2z M67.5,86.9c-0.2,0-0.4,0.3-0.4,0.6s0.2,0.6,0.4,0.6s0.4-0.3,0.4-0.6
					C68,87.1,67.8,86.9,67.5,86.9z"/>
			</g>
			<g>
				<path fill="#3C4855" d="M68.2,85.7c0,0.4-0.3,0.7-0.7,0.7c-0.4,0-0.7-0.3-0.7-0.7s0.3-0.7,0.7-0.7C68,85,68.2,85.3,68.2,85.7z"
					/>
				<path fill="#FFFFFF" d="M67.5,86.5c-0.4,0-0.8-0.4-0.8-0.8c0-0.4,0.4-0.8,0.8-0.8s0.8,0.4,0.8,0.8C68.3,86.1,68,86.5,67.5,86.5z
					 M67.5,85c-0.4,0-0.6,0.3-0.6,0.6c0,0.4,0.3,0.6,0.6,0.6c0.4,0,0.6-0.3,0.6-0.6C68.2,85.3,67.9,85,67.5,85z"/>
			</g>
			<g>
				<path fill="#FFFFFF" d="M71.9,90H22.1l0-0.2c-0.4-2.1-0.5-3.5-0.5-4.1c0-1.2,0.2-4.8,0.2-5v-0.2h50.5v0.2c0,0.1,0.2,3.8,0.2,5
					c0,0.6-0.2,2-0.5,4.1V90z M22.5,89.5h49c0.3-1.9,0.5-3.2,0.5-3.8c0-1-0.1-3.9-0.2-4.7H22.2c0,0.8-0.2,3.8-0.2,4.7
					C22,86.3,22.2,87.6,22.5,89.5z"/>
			</g>
			<g>
				<path fill="#3C4855" d="M23.8,87.1c0-0.2,0.2-0.3,0.4-0.3H30c0.2,0,0.4,0.1,0.4,0.3v1.1c0,0.2-0.2,0.3-0.4,0.3h-5.7
					c-0.2,0-0.4-0.1-0.4-0.3C23.8,88.2,23.8,87.1,23.8,87.1z"/>
				<path fill="#FFFFFF" d="M30,88.6h-5.7c-0.3,0-0.5-0.2-0.5-0.4v-1.1c0-0.2,0.2-0.4,0.5-0.4H30c0.3,0,0.5,0.2,0.5,0.4v1.1
					C30.5,88.4,30.2,88.6,30,88.6z M24.3,86.9c-0.2,0-0.4,0.1-0.4,0.2v1.1c0,0.1,0.1,0.2,0.4,0.2H30c0.2,0,0.4-0.1,0.4-0.2v-1.1
					c0-0.1-0.1-0.2-0.4-0.2H24.3z"/>
			</g>
		</g>
		<g>
			<g>
				<path fill="#FFFFFF" d="M35.9,84.8v2.1h-0.4v-4.6h1.7c0.5,0,0.9,0.1,1.2,0.3c0.3,0.2,0.4,0.5,0.4,0.9c0,0.3,0,0.5-0.2,0.7
					c-0.1,0.2-0.3,0.3-0.6,0.4c0.1,0,0.2,0.1,0.3,0.2c0.1,0.1,0.1,0.2,0.2,0.3c0,0.1,0,0.2,0.1,0.4c0,0.1,0,0.2,0,0.4
					c0,0.2,0,0.3,0,0.4c0,0.1,0,0.2,0,0.3c0,0.1,0,0.1,0,0.2c0,0,0,0.1,0.1,0.1v0h-0.5c0-0.1-0.1-0.2-0.1-0.3c0-0.1,0-0.3,0-0.4
					c0-0.1,0-0.3,0-0.4c0-0.1,0-0.3,0-0.4c0-0.1,0-0.2-0.1-0.3c0-0.1-0.1-0.1-0.2-0.2c-0.1,0-0.2,0-0.3-0.1c-0.1,0-0.2,0-0.3,0
					L35.9,84.8L35.9,84.8z M37.2,84.5c0.2,0,0.3,0,0.5,0s0.3-0.1,0.4-0.2s0.2-0.2,0.2-0.3c0-0.1,0.1-0.3,0.1-0.4
					c0-0.2,0-0.3-0.1-0.4c0-0.1-0.1-0.2-0.2-0.3c-0.1,0-0.2-0.1-0.4-0.1s-0.3,0-0.4,0h-1.4v1.7L37.2,84.5L37.2,84.5z"/>
			</g>
			<g>
				<path fill="#FFFFFF" d="M39.9,85.4c0,0.2,0,0.4,0.1,0.5c0,0.1,0.1,0.3,0.2,0.4c0.1,0.1,0.2,0.2,0.4,0.3c0.1,0.1,0.3,0.1,0.5,0.1
					c0.2,0,0.5,0,0.6-0.2c0.2-0.1,0.3-0.3,0.4-0.6h0.4c0,0.1-0.1,0.3-0.2,0.5s-0.2,0.2-0.3,0.4c-0.1,0.1-0.2,0.2-0.4,0.2
					c-0.1,0-0.3,0.1-0.6,0.1c-0.3,0-0.5,0-0.7-0.1c-0.2-0.1-0.4-0.2-0.5-0.4c-0.1-0.1-0.2-0.3-0.3-0.6c0-0.2-0.1-0.5-0.1-0.7
					s0-0.5,0.1-0.7c0.1-0.2,0.2-0.4,0.3-0.6c0.1-0.1,0.3-0.3,0.5-0.4c0.2-0.1,0.4-0.1,0.6-0.1c0.5,0,0.8,0.1,1.1,0.5
					c0.3,0.3,0.4,0.8,0.4,1.4L39.9,85.4L39.9,85.4z M42.1,85c0-0.2,0-0.3,0-0.5s-0.1-0.3-0.2-0.4S41.7,84,41.5,84s-0.3-0.1-0.5-0.1
					s-0.3,0-0.5,0.1s-0.2,0.1-0.3,0.3c-0.1,0.1-0.2,0.2-0.2,0.4c0,0.1-0.1,0.3-0.1,0.5L42.1,85L42.1,85z"/>
			</g>
			<g>
				<path fill="#FFFFFF" d="M45.6,84.7c0-0.2-0.2-0.5-0.4-0.6c-0.2-0.1-0.4-0.2-0.6-0.2c-0.2,0-0.4,0-0.5,0.1
					c-0.1,0.1-0.3,0.2-0.4,0.3c-0.1,0.1-0.1,0.3-0.2,0.5c0,0.2,0,0.3,0,0.5s0,0.4,0,0.5c0,0.2,0.1,0.3,0.2,0.5
					c0.1,0.1,0.2,0.2,0.4,0.3c0.1,0.1,0.3,0.1,0.5,0.1c0.3,0,0.5-0.1,0.7-0.2c0.2-0.1,0.3-0.4,0.3-0.6H46c0,0.2-0.1,0.4-0.2,0.5
					c-0.1,0.1-0.2,0.3-0.3,0.4c-0.1,0.1-0.3,0.2-0.4,0.2c-0.2,0-0.4,0.1-0.6,0.1c-0.3,0-0.5,0-0.7-0.1s-0.4-0.2-0.5-0.4
					c-0.1-0.1-0.2-0.3-0.3-0.6S43,85.5,43,85.3s0-0.5,0.1-0.6c0-0.2,0.2-0.4,0.3-0.6c0.1-0.2,0.3-0.3,0.5-0.4
					c0.2-0.1,0.4-0.1,0.6-0.1c0.4,0,0.7,0.1,0.9,0.3c0.2,0.2,0.4,0.5,0.5,0.9L45.6,84.7L45.6,84.7z"/>
			</g>
			<g>
				<path fill="#FFFFFF" d="M47,85.4c0,0.2,0,0.4,0.1,0.5c0,0.1,0.1,0.3,0.2,0.4c0.1,0.1,0.2,0.2,0.4,0.3c0.1,0.1,0.3,0.1,0.5,0.1
					c0.2,0,0.5,0,0.6-0.2c0.2-0.1,0.3-0.3,0.4-0.6h0.4c0,0.1-0.1,0.3-0.2,0.5s-0.2,0.2-0.3,0.4c-0.1,0.1-0.2,0.2-0.4,0.2
					c-0.1,0-0.3,0.1-0.6,0.1c-0.3,0-0.5,0-0.7-0.1s-0.4-0.2-0.5-0.4c-0.1-0.1-0.2-0.3-0.3-0.6s-0.1-0.5-0.1-0.7s0-0.5,0.1-0.7
					c0.1-0.2,0.2-0.4,0.3-0.6c0.1-0.1,0.3-0.3,0.5-0.4c0.2-0.1,0.4-0.1,0.6-0.1c0.5,0,0.8,0.1,1.1,0.5c0.3,0.3,0.4,0.8,0.4,1.4
					L47,85.4L47,85.4z M49.2,85c0-0.2,0-0.3,0-0.5s-0.1-0.3-0.2-0.4S48.8,84,48.6,84s-0.3-0.1-0.5-0.1s-0.3,0-0.5,0.1
					s-0.2,0.1-0.3,0.3c-0.1,0.1-0.2,0.2-0.2,0.4c0,0.1-0.1,0.3-0.1,0.5L49.2,85L49.2,85z"/>
			</g>
			<g>
				<path fill="#FFFFFF" d="M50.4,82.9v-0.6h0.4v0.6H50.4z M50.4,86.9v-3.3h0.4v3.3H50.4z"/>
			</g>
			<g>
				<path fill="#FFFFFF" d="M51.4,83.6h0.4l1.1,2.9l1.1-2.9h0.4l-1.3,3.3h-0.4L51.4,83.6z"/>
			</g>
			<g>
				<path fill="#FFFFFF" d="M55.2,85.4c0,0.2,0,0.4,0.1,0.5c0,0.1,0.1,0.3,0.2,0.4c0.1,0.1,0.2,0.2,0.4,0.3c0.1,0.1,0.3,0.1,0.5,0.1
					c0.2,0,0.5,0,0.6-0.2c0.2-0.1,0.3-0.3,0.4-0.6h0.4c0,0.1-0.1,0.3-0.2,0.5c-0.1,0.1-0.2,0.2-0.3,0.4c-0.1,0.1-0.2,0.2-0.4,0.2
					c-0.1,0-0.3,0.1-0.6,0.1c-0.3,0-0.5,0-0.7-0.1s-0.4-0.2-0.5-0.4C55.1,86.4,55,86.2,55,86s-0.1-0.5-0.1-0.7s0-0.5,0.1-0.7
					c0.1-0.2,0.2-0.4,0.3-0.6c0.1-0.1,0.3-0.3,0.5-0.4c0.2-0.1,0.4-0.1,0.6-0.1c0.5,0,0.8,0.1,1.1,0.5c0.3,0.3,0.4,0.8,0.4,1.4
					L55.2,85.4L55.2,85.4z M57.4,85c0-0.2,0-0.3,0-0.5s-0.1-0.3-0.2-0.4C57,84.1,56.9,84,56.8,84s-0.3-0.1-0.5-0.1
					c-0.2,0-0.3,0-0.5,0.1c-0.1,0-0.2,0.1-0.3,0.3c-0.1,0.1-0.2,0.2-0.2,0.4c0,0.1-0.1,0.3-0.1,0.5L57.4,85L57.4,85z"/>
			</g>
			<g>
				<path fill="#FFFFFF" d="M58.9,86.9h-0.4v-3.3h0.4v0.6l0,0c0.1-0.3,0.2-0.5,0.4-0.6s0.4-0.1,0.7-0.1v0.4c-0.2,0-0.4,0-0.6,0.1
					c-0.1,0.1-0.2,0.2-0.3,0.3c-0.1,0.1-0.1,0.3-0.2,0.5c0,0.2,0,0.3,0,0.5C58.9,85.3,58.9,86.9,58.9,86.9z"/>
			</g>
		</g>
	</g>
	<text transform="matrix(1 0 0 1 21.6396 78.3194)" fill="#FFFFFF" font-family="'Helvetica-Light'" font-size="2.8988">* Can Be Master</text>
</g>
</svg>
