<?xml version="1.0" encoding="utf-8"?>
<!-- Generator: Adobe Illustrator 17.1.0, SVG Export Plug-In . SVG Version: 6.00 Build 0)  -->
<!DOCTYPE svg PUBLIC "-//W3C//DTD SVG 1.1//EN" "http://www.w3.org/Graphics/SVG/1.1/DTD/svg11.dtd">
<svg version="1.1" id="Layer_1" xmlns="http://www.w3.org/2000/svg" xmlns:xlink="http://www.w3.org/1999/xlink" x="0px" y="0px"
	 viewBox="0 0 104 90" enable-background="new 0 0 104 90" xml:space="preserve">
<g>
	<line fill="none" stroke="#FFFFFF" stroke-width="0.25" stroke-miterlimit="10" x1="12.9" y1="10.1" x2="87" y2="10.1"/>
	<line fill="none" stroke="#FFFFFF" stroke-width="0.25" stroke-miterlimit="10" x1="86.8" y1="10.3" x2="86.8" y2="16.8"/>
	<polyline fill="none" stroke="#FFFFFF" stroke-width="0.25" stroke-miterlimit="10" points="83.2,25 50.6,25 50.6,32.3 36.2,32.3 	
		"/>
	<line fill="none" stroke="#FFFFFF" stroke-width="0.25" stroke-miterlimit="10" x1="83.1" y1="24.9" x2="83.1" y2="18.4"/>
	<line fill="none" stroke="#FFFFFF" stroke-width="0.25" stroke-miterlimit="10" x1="90.3" y1="21.9" x2="90.3" y2="30.9"/>
	<g>
		<path fill="#FFFFFF" d="M11.8,13.4H4.3l0,0c0,0-0.9-0.3-1.2-1.1l0,0v-0.9l0.1-4.2l0,0c0.4-1.7,1.2-2.9,2.6-3.7
			c1.1-0.5,2-0.6,2.2-0.6l0,0c0,0,0,0,0.1,0c0.7,0,4,0.2,4.8,4.2l0,0l0.2,4.2v0.9l0,0c-0.2,0.5-0.5,0.8-0.7,0.9
			C12,13.3,11.8,13.4,11.8,13.4L11.8,13.4z M4.3,13.2h7.5c0.1,0,0.7-0.2,1.1-1.1v-0.9l-0.1-4.2C11.9,3.2,8.7,3,8.1,3C8.1,3,8,3,8,3
			l0,0l0,0C7.9,3,7,3,5.9,3.5C4.5,4.2,3.7,5.4,3.4,7.1l-0.1,4.2v0.9C3.5,12.9,4.2,13.2,4.3,13.2z"/>
		<path fill="#B5C0C9" d="M3.2,11.4v0.9c0.3,0.8,1.1,1.1,1.1,1.1h7.5c0.7-0.2,1.1-1.1,1.1-1.1v-0.9H3.2z"/>
		<path fill="#FFFFFF" d="M12.9,11.4H3.2c0,0-0.1,0-0.1-0.1c0,0,0-0.1,0.1-0.1h9.8C13,11.3,13,11.3,12.9,11.4
			C13,11.4,13,11.4,12.9,11.4z"/>
		<path fill="#FFFFFF" d="M11.8,13.4H4.3c0,0,0,0,0,0c0,0-0.9-0.3-1.2-1.1c0,0,0,0,0,0v-0.9l0.1-4.2l0,0c0.4-1.7,1.2-2.9,2.6-3.7
			c1.1-0.5,2-0.6,2.2-0.6l0,0c0,0,0,0,0.1,0c0.7,0,4,0.2,4.8,4.2l0,0l0.2,4.2v0.9c0,0,0,0,0,0c-0.2,0.5-0.5,0.8-0.7,0.9
			C12,13.3,11.8,13.4,11.8,13.4L11.8,13.4z M4.3,13.2h7.5c0.1,0,0.7-0.2,1.1-1.1v-0.9l-0.1-4.2C11.9,3.2,8.7,3,8.1,3C8.1,3,8,3,8,3
			l0,0l0,0C7.9,3,7,3,5.9,3.5C4.5,4.2,3.7,5.4,3.4,7.1l-0.1,4.2v0.9C3.5,12.9,4.2,13.2,4.3,13.2z"/>
	</g>
	<g>
		<path fill="#FFFFFF" d="M35.1,8.5l0-4.7c0,0,0-0.3-0.3-0.3l0,0c-0.3,0-0.3,0.3-0.3,0.3l0,4.7H35.1z"/>
		<path fill="#B5C0C9" d="M30.1,11.3h8.4V9c0,0,0-0.3-0.9-0.4c0,0-3-0.3-7.5-0.4h0c-4.5,0-7.5,0.4-7.5,0.4C21.7,8.7,21.8,9,21.8,9
			v2.3H30.1L30.1,11.3z"/>
		<path fill="#8999A5" d="M29.4,9.3c0,0.1-0.1,0.2-0.2,0.2l0,0c-0.1,0-0.2-0.1-0.2-0.2v-1h0.3V9.3z"/>
		<path fill="#8999A5" d="M30.3,9.3c0,0.1-0.1,0.2-0.2,0.2l0,0C30,9.5,30,9.4,30,9.3v-1h0.3V9.3z"/>
		<path fill="#8999A5" d="M31.1,9.3c0,0.1-0.1,0.2-0.2,0.2l0,0c-0.1,0-0.2-0.1-0.2-0.2v-1h0.3V9.3z"/>
		<path fill="#FFFFFF" d="M38.6,11.4H21.6V9c0,0,0-0.1,0-0.2c0.1-0.2,0.4-0.3,0.9-0.3c0,0,3-0.3,7.5-0.4h0c4.4,0,7.5,0.4,7.5,0.4
			c0.5,0,0.8,0.2,0.9,0.3c0,0.1,0,0.1,0,0.2L38.6,11.4L38.6,11.4z M21.8,11.3h16.6V9l0,0c0,0,0-0.2-0.8-0.3c0,0-3-0.3-7.5-0.4h0
			c-4.4,0-7.4,0.4-7.5,0.4C21.8,8.8,21.8,9,21.8,9l0,0l0,0L21.8,11.3L21.8,11.3z"/>
	</g>
	<g>
		<g>
			<path fill="#B5C0C9" d="M20.5,34.7h16.8c0.1-0.7,0.4-2.2,0.4-2.7c0-0.8-0.1-3.4-0.1-3.4h-17h-0.2h-17c0,0-0.1,2.6-0.1,3.4
				c0,0.6,0.2,2,0.4,2.7h16.8H20.5z"/>
			<path fill="#B5C0C9" d="M37.2,34.7H3.4c0,0,0,0,0,0C3.2,33.3,3,32.4,3,32c0-0.8,0.1-3.3,0.1-3.4c0,0,0,0,0,0h34.2c0,0,0,0,0,0
				c0,0,0.1,2.6,0.1,3.4C37.6,32.4,37.5,33.4,37.2,34.7C37.3,34.7,37.2,34.7,37.2,34.7z M3.4,34.7h33.7c0.2-1.4,0.4-2.3,0.4-2.7
				c0-0.7-0.1-3.1-0.1-3.3H3.2c0,0.3-0.1,2.6-0.1,3.3C3.1,32.4,3.2,33.3,3.4,34.7z"/>
			<path fill="#8999A5" d="M8.8,28.6c0,0,2.4,5.5,2.7,5.9h17.7c0,0,2.2-4.4,2.7-6L8.8,28.6z"/>
			<path fill="#231F20" d="M28.5,34.7H8.9c0,0,0,0,0,0c0,0,0,0,0,0L28.5,34.7C28.5,34.7,28.5,34.7,28.5,34.7
				C28.5,34.7,28.5,34.7,28.5,34.7z"/>
			<g>
				<g>
					<g>
						<path fill="#8999A5" d="M33.7,31.7c0,0.2-0.2,0.3-0.5,0.3c-0.3,0-0.5-0.1-0.5-0.3c0-0.2,0.2-0.3,0.5-0.3
							C33.5,31.4,33.7,31.5,33.7,31.7z"/>
						<path fill="#8999A5" d="M36.8,31.6c0,0.2-0.2,0.3-0.5,0.3c-0.3,0-0.5-0.1-0.5-0.3c0-0.2,0.2-0.3,0.5-0.3
							C36.5,31.4,36.8,31.5,36.8,31.6z"/>
					</g>
					<g>
						<path fill="#8999A5" d="M34.7,32.7c0.2,0,0.3,0.2,0.3,0.5c0,0.3-0.1,0.5-0.3,0.5c-0.2,0-0.3-0.2-0.3-0.5
							C34.4,32.9,34.6,32.7,34.7,32.7z"/>
						<path fill="#8999A5" d="M34.7,29.6c0.2,0,0.3,0.2,0.3,0.5c0,0.3-0.1,0.5-0.3,0.5c-0.2,0-0.3-0.2-0.3-0.5
							C34.4,29.8,34.6,29.6,34.7,29.6z"/>
					</g>
				</g>
				<path fill="#8999A5" d="M35.3,31.7c0,0.3-0.2,0.6-0.6,0.6s-0.6-0.2-0.6-0.6s0.2-0.6,0.6-0.6S35.3,31.4,35.3,31.7z"/>
			</g>
			<path fill="#FFFFFF" d="M37.4,34.9h-34l0-0.1C3.1,33.3,3,32.4,3,32c0-0.8,0.1-3.3,0.1-3.4v-0.2h34.5v0.2c0,0.1,0.1,2.6,0.1,3.4
				c0,0.4-0.1,1.3-0.4,2.8L37.4,34.9z M3.6,34.6h33.5c0.2-1.3,0.3-2.2,0.3-2.6c0-0.7-0.1-2.7-0.1-3.2H3.4c0,0.6-0.1,2.6-0.1,3.2
				C3.3,32.4,3.4,33.3,3.6,34.6z"/>
			<path fill="#8999A5" d="M4.5,32.9c0-0.1,0.1-0.2,0.3-0.2h3.9c0.2,0,0.3,0.1,0.3,0.2v0.8c0,0.1-0.1,0.2-0.3,0.2H4.8
				c-0.2,0-0.3-0.1-0.3-0.2C4.5,33.7,4.5,32.9,4.5,32.9z"/>
		</g>
		<rect x="3.8" y="30" fill="none" width="33.1" height="4.2"/>
		<g>
			<text transform="matrix(1 0 0 1 12.2441 32.9013)" fill="#0F1F30" font-family="'Helvetica-Light'" font-size="4.2291">Receiver</text>
		</g>
	</g>
	<polyline fill="none" stroke="#0CBC18" stroke-width="0.25" stroke-miterlimit="10" points="43.7,51.3 58.1,51.3 73,51.3 73,44 
		73,36.2 	"/>
	<path fill="#B5C0C9" d="M27.9,53.7h16.8C44.8,53,45,51.5,45,51c0-0.8-0.1-3.4-0.1-3.4h-17h-0.2h-17c0,0-0.1,2.6-0.1,3.4
		c0,0.6,0.2,2,0.4,2.7h16.8H27.9z"/>
	<path fill="#B5C0C9" d="M44.7,53.7H10.9c0,0,0,0,0,0c-0.2-1.4-0.4-2.3-0.4-2.7c0-0.8,0.1-3.3,0.1-3.4c0,0,0,0,0,0h34.2c0,0,0,0,0,0
		S45,50.2,45,51C45,51.4,44.9,52.4,44.7,53.7C44.7,53.7,44.7,53.7,44.7,53.7z M10.9,53.7h33.7c0.2-1.4,0.4-2.3,0.4-2.7
		c0-0.7-0.1-3.1-0.1-3.3H10.7c0,0.3-0.1,2.6-0.1,3.3C10.6,51.4,10.7,52.3,10.9,53.7z"/>
	<path fill="#8999A5" d="M16.3,47.6c0,0,2.4,5.5,2.7,5.9h17.7c0,0,2.2-4.4,2.7-6L16.3,47.6z"/>
	<path fill="#231F20" d="M35.9,53.7H16.3c0,0,0,0,0,0s0,0,0,0L35.9,53.7C36,53.7,36,53.7,35.9,53.7C36,53.7,36,53.7,35.9,53.7z"/>
	<g>
		<g>
			<g>
				<path fill="#8999A5" d="M41.2,50.7c0,0.2-0.2,0.3-0.5,0.3c-0.3,0-0.5-0.1-0.5-0.3s0.2-0.3,0.5-0.3C41,50.4,41.2,50.5,41.2,50.7z
					"/>
				<path fill="#8999A5" d="M44.2,50.6c0,0.2-0.2,0.3-0.5,0.3c-0.3,0-0.5-0.1-0.5-0.3c0-0.2,0.2-0.3,0.5-0.3
					C44,50.4,44.2,50.5,44.2,50.6z"/>
			</g>
			<g>
				<path fill="#8999A5" d="M42.2,51.7c0.2,0,0.3,0.2,0.3,0.5c0,0.3-0.1,0.5-0.3,0.5c-0.2,0-0.3-0.2-0.3-0.5
					C41.9,51.9,42,51.7,42.2,51.7z"/>
				<path fill="#8999A5" d="M42.2,48.6c0.2,0,0.3,0.2,0.3,0.5c0,0.3-0.1,0.5-0.3,0.5c-0.2,0-0.3-0.2-0.3-0.5
					C41.9,48.9,42,48.6,42.2,48.6z"/>
			</g>
		</g>
		<path fill="#8999A5" d="M42.8,50.7c0,0.3-0.2,0.6-0.6,0.6s-0.6-0.2-0.6-0.6s0.2-0.6,0.6-0.6S42.8,50.4,42.8,50.7z"/>
	</g>
	<path fill="#0CBC18" d="M44.9,53.9h-34l0-0.1c-0.2-1.4-0.4-2.3-0.4-2.8c0-0.8,0.1-3.3,0.1-3.4v-0.2h34.5v0.2c0,0.1,0.1,2.6,0.1,3.4
		c0,0.4-0.1,1.3-0.4,2.8V53.9z M11.1,53.6h33.5c0.2-1.3,0.3-2.2,0.3-2.6c0-0.7-0.1-2.7-0.1-3.2H10.9c0,0.6-0.1,2.6-0.1,3.2
		C10.8,51.4,10.9,52.3,11.1,53.6z"/>
	<path fill="#8999A5" d="M12,52c0-0.1,0.1-0.2,0.3-0.2h3.9c0.2,0,0.3,0.1,0.3,0.2v0.8c0,0.1-0.1,0.2-0.3,0.2h-3.9
		c-0.2,0-0.3-0.1-0.3-0.2V52z"/>
	<rect x="11.2" y="49" fill="none" width="33.1" height="4.2"/>
	<g>
		<text transform="matrix(1 0 0 1 19.708 51.9043)" fill="#0F1F30" font-family="'Helvetica-Light'" font-size="4.2291">Receiver</text>
	</g>
	<polyline fill="none" stroke="#0CBC18" stroke-width="0.25" stroke-miterlimit="10" points="45,65.1 61.8,65.1 76.7,65.1 
		76.7,57.9 76.7,37.9 	"/>
	<path fill="#B5C0C9" d="M27.9,67.6h16.8c0.1-0.7,0.4-2.2,0.4-2.7c0-0.8-0.1-3.4-0.1-3.4h-17h-0.2h-17c0,0-0.1,2.6-0.1,3.4
		c0,0.6,0.2,2,0.4,2.7h16.8H27.9z"/>
	<path fill="#B5C0C9" d="M44.7,67.6H10.9c0,0,0,0,0,0c-0.2-1.4-0.4-2.3-0.4-2.7c0-0.8,0.1-3.3,0.1-3.4c0,0,0,0,0,0h34.2c0,0,0,0,0,0
		s0.1,2.6,0.1,3.4C45,65.2,44.9,66.2,44.7,67.6C44.7,67.6,44.7,67.6,44.7,67.6z M10.9,67.6h33.7c0.2-1.4,0.4-2.3,0.4-2.7
		c0-0.7-0.1-3.1-0.1-3.3H10.7c0,0.3-0.1,2.6-0.1,3.3C10.6,65.2,10.7,66.2,10.9,67.6z"/>
	<path fill="#8999A5" d="M16.3,61.5c0,0,2.4,5.5,2.7,5.9h17.7c0,0,2.2-4.4,2.7-6L16.3,61.5z"/>
	<path fill="#231F20" d="M35.9,67.7H16.3c0,0,0,0,0,0s0,0,0,0L35.9,67.7C36,67.6,36,67.6,35.9,67.7C36,67.6,36,67.7,35.9,67.7z"/>
	<g>
		<g>
			<g>
				<path fill="#8999A5" d="M41.2,64.6c0,0.2-0.2,0.3-0.5,0.3c-0.3,0-0.5-0.1-0.5-0.3s0.2-0.3,0.5-0.3S41.2,64.4,41.2,64.6z"/>
				<path fill="#8999A5" d="M44.2,64.6c0,0.2-0.2,0.3-0.5,0.3c-0.3,0-0.5-0.1-0.5-0.3s0.2-0.3,0.5-0.3C44,64.3,44.2,64.4,44.2,64.6z
					"/>
			</g>
			<g>
				<path fill="#8999A5" d="M42.2,65.5c0.2,0,0.3,0.2,0.3,0.5c0,0.3-0.1,0.5-0.3,0.5c-0.2,0-0.3-0.2-0.3-0.5
					C41.9,65.8,42,65.5,42.2,65.5z"/>
				<path fill="#8999A5" d="M42.2,62.5c0.2,0,0.3,0.2,0.3,0.5s-0.1,0.5-0.3,0.5c-0.2,0-0.3-0.2-0.3-0.5C41.9,62.7,42,62.5,42.2,62.5
					z"/>
			</g>
		</g>
		<path fill="#8999A5" d="M42.8,64.6c0,0.3-0.2,0.6-0.6,0.6s-0.6-0.2-0.6-0.6c0-0.3,0.2-0.6,0.6-0.6S42.8,64.2,42.8,64.6z"/>
	</g>
	<path fill="#0CBC18" d="M44.9,67.7h-34l0-0.1c-0.2-1.4-0.4-2.3-0.4-2.8c0-0.8,0.1-3.3,0.1-3.4v-0.2h34.5v0.2c0,0.1,0.1,2.6,0.1,3.4
		c0,0.4-0.1,1.3-0.4,2.8V67.7z M11.1,67.5h33.5c0.2-1.3,0.3-2.2,0.3-2.6c0-0.7-0.1-2.7-0.1-3.2H10.9c0,0.6-0.1,2.6-0.1,3.2
		C10.8,65.2,10.9,66.1,11.1,67.5z"/>
	<path fill="#8999A5" d="M12,65.8c0-0.1,0.1-0.2,0.3-0.2h3.9c0.2,0,0.3,0.1,0.3,0.2v0.8c0,0.1-0.1,0.2-0.3,0.2h-3.9
		c-0.2,0-0.3-0.1-0.3-0.2V65.8z"/>
	<rect x="11.2" y="62.8" fill="none" width="33.1" height="4.2"/>
	<g>
		<text transform="matrix(1 0 0 1 19.7086 65.7784)" fill="#0F1F30" font-family="'Helvetica-Light'" font-size="4.2291">Receiver</text>
	</g>
	<polyline fill="none" stroke="#0CBC18" stroke-width="0.25" stroke-miterlimit="10" points="40.7,79 65.5,79 80.5,79.1 80.5,71.8 
		80.5,41.4 	"/>
	<path fill="#B5C0C9" d="M27.9,81.5h16.8c0.1-0.7,0.4-2.2,0.4-2.7c0-0.8-0.1-3.4-0.1-3.4h-17h-0.2h-17c0,0-0.1,2.6-0.1,3.4
		c0,0.6,0.2,2,0.4,2.7h16.8H27.9z"/>
	<path fill="#B5C0C9" d="M44.7,81.6H10.9c0,0,0,0,0,0c-0.2-1.4-0.4-2.3-0.4-2.7c0-0.8,0.1-3.3,0.1-3.4c0,0,0,0,0,0h34.2c0,0,0,0,0,0
		S45,78,45,78.8C45,79.2,44.9,80.1,44.7,81.6C44.7,81.5,44.7,81.6,44.7,81.6z M10.9,81.5h33.7c0.2-1.4,0.4-2.3,0.4-2.7
		c0-0.7-0.1-3.1-0.1-3.3H10.7c0,0.3-0.1,2.6-0.1,3.3C10.6,79.2,10.7,80.1,10.9,81.5z"/>
	<path fill="#8999A5" d="M16.3,75.4c0,0,2.4,5.5,2.7,5.9h17.7c0,0,2.2-4.4,2.7-6L16.3,75.4z"/>
	<path fill="#231F20" d="M35.9,81.6H16.3c0,0,0,0,0,0s0,0,0,0L35.9,81.6C36,81.5,36,81.5,35.9,81.6C36,81.6,36,81.6,35.9,81.6z"/>
	<g>
		<g>
			<g>
				<path fill="#8999A5" d="M41.2,78.5c0,0.2-0.2,0.3-0.5,0.3c-0.3,0-0.5-0.1-0.5-0.3c0-0.2,0.2-0.3,0.5-0.3S41.2,78.3,41.2,78.5z"
					/>
				<path fill="#8999A5" d="M44.2,78.5c0,0.2-0.2,0.3-0.5,0.3c-0.3,0-0.5-0.1-0.5-0.3c0-0.2,0.2-0.3,0.5-0.3
					C44,78.2,44.2,78.3,44.2,78.5z"/>
			</g>
			<g>
				<path fill="#8999A5" d="M42.2,79.4c0.2,0,0.3,0.2,0.3,0.5c0,0.3-0.1,0.5-0.3,0.5c-0.2,0-0.3-0.2-0.3-0.5
					C41.9,79.7,42,79.4,42.2,79.4z"/>
				<path fill="#8999A5" d="M42.2,76.4c0.2,0,0.3,0.2,0.3,0.5c0,0.3-0.1,0.5-0.3,0.5c-0.2,0-0.3-0.2-0.3-0.5
					C41.9,76.7,42,76.4,42.2,76.4z"/>
			</g>
		</g>
		<path fill="#8999A5" d="M42.8,78.5c0,0.3-0.2,0.6-0.6,0.6s-0.6-0.2-0.6-0.6c0-0.3,0.2-0.6,0.6-0.6S42.8,78.1,42.8,78.5z"/>
	</g>
	<path fill="#0CBC18" d="M44.9,81.7h-34l0-0.1c-0.2-1.4-0.4-2.3-0.4-2.8c0-0.8,0.1-3.3,0.1-3.4v-0.2h34.5v0.2c0,0.1,0.1,2.6,0.1,3.4
		c0,0.4-0.1,1.3-0.4,2.8V81.7z M11.1,81.4h33.5c0.2-1.3,0.3-2.2,0.3-2.6c0-0.7-0.1-2.7-0.1-3.2H10.9c0,0.6-0.1,2.6-0.1,3.2
		C10.8,79.2,10.9,80.1,11.1,81.4z"/>
	<path fill="#8999A5" d="M12,79.7c0-0.1,0.1-0.2,0.3-0.2h3.9c0.2,0,0.3,0.1,0.3,0.2v0.8c0,0.1-0.1,0.2-0.3,0.2h-3.9
		c-0.2,0-0.3-0.1-0.3-0.2V79.7z"/>
	<rect x="11.2" y="76.8" fill="none" width="33.1" height="4.2"/>
	<g>
		<text transform="matrix(1 0 0 1 19.7086 79.6982)" fill="#0F1F30" font-family="'Helvetica-Light'" font-size="4.2291">Receiver</text>
	</g>
	<rect x="0.8" y="15.7" fill="none" width="14.5" height="4.2"/>
	<text transform="matrix(1 0 0 1 1.9641 17.9911)" fill="#FFFFFF" font-family="'Helvetica'" font-size="3.2627">Antenna</text>
	<rect x="21.8" y="15.7" fill="none" width="16.8" height="4.2"/>
	<text transform="matrix(1 0 0 1 24.5527 17.9911)" fill="#FFFFFF" font-family="'Helvetica'" font-size="3.2627">TV-Hub</text>
	<rect x="65.3" y="15.6" fill="none" width="16.8" height="4.2"/>
	<text transform="matrix(1 0 0 1 68.5891 17.9685)" fill="#FFFFFF" font-family="'Helvetica'" font-size="3.2627">Splitter</text>
	<g>
		<text transform="matrix(1 0 0 1 9.3057 39.2703)" fill="#DEF93D" font-family="'Helvetica'" font-size="3.3833">Can Be Master</text>
	</g>
	<rect x="10.6" y="55.7" fill="none" width="34.3" height="4.2"/>
	<g>
		<text transform="matrix(1 0 0 1 16.8744 58.0183)" fill="#DEF93D" font-family="'Helvetica'" font-size="3.3833">Can Be Master</text>
	</g>
	<rect x="10.6" y="69.4" fill="none" width="34.3" height="4.2"/>
	<g>
		<text transform="matrix(1 0 0 1 16.8744 71.7461)" fill="#DEF93D" font-family="'Helvetica'" font-size="3.3833">Can Be Master</text>
	</g>
	<rect x="10.6" y="82.9" fill="none" width="34.3" height="4.2"/>
	<g>
		<text transform="matrix(1 0 0 1 16.8744 85.2881)" fill="#DEF93D" font-family="'Helvetica'" font-size="3.3833">Can Be Master</text>
	</g>
	<g>
		<text transform="matrix(0 1 -1 0 84.7172 57.3965)" fill="#0CBC18" font-family="'Helvetica-Light'" font-size="2.5374">Optional</text>
	</g>
	<g>
		<rect x="89.5" y="20" fill="#B5C0C9" width="1.9" height="2.4"/>
		<rect x="89.5" y="20" fill="none" width="1.9" height="2.4"/>
		
			<rect x="89.4" y="22.1" transform="matrix(0.9925 0.1219 -0.1219 0.9925 3.3651 -10.8523)" fill="#FFFFFF" width="1.9" height="0"/>
		
			<rect x="89.4" y="21.5" transform="matrix(0.9925 0.1219 -0.1219 0.9925 3.2952 -10.8566)" fill="#FFFFFF" width="1.9" height="0"/>
		
			<rect x="89.4" y="20.9" transform="matrix(0.9925 0.1219 -0.1219 0.9925 3.2253 -10.8609)" fill="#FFFFFF" width="1.9" height="0"/>
		
			<rect x="89.4" y="20.3" transform="matrix(0.9925 0.1219 -0.1219 0.9925 3.1554 -10.8652)" fill="#FFFFFF" width="1.9" height="0"/>
		<path fill="#B5C0C9" d="M88.9,19c-0.2,0-0.3,0.1-0.3,0.3v0.4c0,0.2,0.1,0.3,0.3,0.3H92c0.2,0,0.3-0.1,0.3-0.3v-0.4
			c0-0.2-0.1-0.3-0.3-0.3H88.9z"/>
		<path fill="#FFFFFF" d="M91.9,20.1h-3.1c-0.2,0-0.3-0.2-0.3-0.3v-0.4c0-0.2,0.2-0.3,0.3-0.3h3.1c0.2,0,0.3,0.2,0.3,0.3v0.4
			C92.3,19.9,92.1,20.1,91.9,20.1z M88.9,19.1c-0.1,0-0.2,0.1-0.2,0.2v0.4c0,0.1,0.1,0.2,0.2,0.2H92c0.1,0,0.2-0.1,0.2-0.2v-0.4
			c0-0.1-0.1-0.2-0.2-0.2H88.9z"/>
		<rect x="85.9" y="11.2" fill="#B5C0C9" width="1.9" height="2.4"/>
		<rect x="85.9" y="11.2" fill="none" width="1.9" height="2.4"/>
		
			<rect x="85.9" y="11.5" transform="matrix(0.9925 -0.1219 0.1219 0.9925 -0.7588 10.6698)" fill="#FFFFFF" width="1.9" height="0"/>
		
			<rect x="85.9" y="12.1" transform="matrix(0.9925 -0.1219 0.1219 0.9925 -0.8287 10.6741)" fill="#FFFFFF" width="1.9" height="0"/>
		
			<rect x="85.9" y="12.7" transform="matrix(0.9925 -0.1219 0.1219 0.9925 -0.8986 10.6783)" fill="#FFFFFF" width="1.9" height="0"/>
		
			<rect x="85.9" y="13.2" transform="matrix(0.9925 -0.1219 0.1219 0.9925 -0.9685 10.6826)" fill="#FFFFFF" width="1.9" height="0"/>
		<path fill="#B5C0C9" d="M85.3,14.6c-0.2,0-0.3-0.1-0.3-0.3v-0.4c0-0.2,0.1-0.3,0.3-0.3h3.1c0.2,0,0.3,0.1,0.3,0.3v0.4
			c0,0.2-0.1,0.3-0.3,0.3H85.3z"/>
		<path fill="#FFFFFF" d="M88.3,14.6h-3.1c-0.2,0-0.3-0.2-0.3-0.3v-0.4c0-0.2,0.2-0.3,0.3-0.3h3.1c0.2,0,0.3,0.2,0.3,0.3v0.4
			C88.7,14.5,88.5,14.6,88.3,14.6z M85.3,13.6c-0.1,0-0.2,0.1-0.2,0.2v0.4c0,0.1,0.1,0.2,0.2,0.2h3.1c0.1,0,0.2-0.1,0.2-0.2v-0.4
			c0-0.1-0.1-0.2-0.2-0.2H85.3z"/>
		<rect x="82.1" y="20" fill="#B5C0C9" width="1.9" height="2.4"/>
		<rect x="82.1" y="20" fill="none" width="1.9" height="2.4"/>
		
			<rect x="82.1" y="22.1" transform="matrix(0.9925 0.1219 -0.1219 0.9925 3.3108 -9.9615)" fill="#FFFFFF" width="1.9" height="0"/>
		
			<rect x="82.1" y="21.5" transform="matrix(0.9925 0.1219 -0.1219 0.9925 3.2409 -9.9658)" fill="#FFFFFF" width="1.9" height="0"/>
		<rect x="82.1" y="20.9" transform="matrix(0.9925 0.1219 -0.1219 0.9925 3.171 -9.97)" fill="#FFFFFF" width="1.9" height="0"/>
		
			<rect x="82.1" y="20.3" transform="matrix(0.9925 0.1219 -0.1219 0.9925 3.1011 -9.9743)" fill="#FFFFFF" width="1.9" height="0"/>
		<path fill="#B5C0C9" d="M81.6,19c-0.2,0-0.3,0.1-0.3,0.3v0.4c0,0.2,0.1,0.3,0.3,0.3h3.1c0.2,0,0.3-0.1,0.3-0.3v-0.4
			c0-0.2-0.1-0.3-0.3-0.3H81.6z"/>
		<path fill="#FFFFFF" d="M84.6,20.1h-3.1c-0.2,0-0.3-0.2-0.3-0.3v-0.4c0-0.2,0.2-0.3,0.3-0.3h3.1c0.2,0,0.3,0.2,0.3,0.3v0.4
			C84.9,19.9,84.8,20.1,84.6,20.1z M81.6,19.1c-0.1,0-0.2,0.1-0.2,0.2v0.4c0,0.1,0.1,0.2,0.2,0.2h3.1c0.1,0,0.2-0.1,0.2-0.2v-0.4
			c0-0.1-0.1-0.2-0.2-0.2H81.6z"/>
		<rect x="80.9" y="14.1" fill="#B5C0C9" width="11.7" height="5.3"/>
		<path fill="#FFFFFF" d="M92.7,19.5H80.9v-5.4h11.8V19.5z M81,19.4h11.6v-5.3H81V19.4z"/>
		<path fill="#B5C0C9" d="M81,19.6c0.1,0,0.1,0,0.1-0.1v-5.3c0-0.1,0-0.1-0.1-0.1h-0.2c-0.1,0-0.1,0-0.1,0.1v5.3
			c0,0.1,0,0.1,0.1,0.1H81z"/>
		<path fill="#FFFFFF" d="M81,19.7h-0.2c-0.1,0-0.2-0.1-0.2-0.2v-5.3c0-0.1,0.1-0.2,0.2-0.2H81c0.1,0,0.2,0.1,0.2,0.2v5.3
			C81.2,19.6,81.1,19.7,81,19.7z M80.7,14.1C80.7,14.1,80.7,14.1,80.7,14.1l0,5.3c0,0,0,0,0,0H81c0,0,0,0,0,0v-5.3c0,0,0,0,0,0H80.7
			z"/>
		<path fill="#B5C0C9" d="M92.9,19.6c0.1,0,0.1,0,0.1-0.1v-5.3c0-0.1,0-0.1-0.1-0.1h-0.2c-0.1,0-0.1,0-0.1,0.1v5.3
			c0,0.1,0,0.1,0.1,0.1H92.9z"/>
		<path fill="#FFFFFF" d="M92.9,19.7h-0.2c-0.1,0-0.2-0.1-0.2-0.2v-5.3c0-0.1,0.1-0.2,0.2-0.2h0.2c0.1,0,0.2,0.1,0.2,0.2v5.3
			C93,19.6,93,19.7,92.9,19.7z M92.6,14.1C92.6,14.1,92.6,14.1,92.6,14.1l0,5.3c0,0,0,0,0,0h0.2c0,0,0,0,0,0v-5.3c0,0,0,0,0,0H92.6z
			"/>
	</g>
	<g>
		<rect x="59.2" y="82.9" fill="none" width="16.4" height="2.9"/>
		<text transform="matrix(1 0 0 1 59.1407 84.7039)" fill="#FFFFFF" font-family="'Helvetica-Light'" font-size="2.4471">IP AutoSwitch</text>
		<g>
			<rect x="63.5" y="78.7" fill="#B5C0C9" width="1.1" height="0.6"/>
			<rect x="63.5" y="78.7" fill="none" stroke="#FFFFFF" stroke-width="0.15" stroke-miterlimit="10" width="1.1" height="0.6"/>
			<rect x="58.3" y="78.7" fill="#B5C0C9" width="1.1" height="0.6"/>
			<rect x="58.3" y="78.7" fill="none" stroke="#FFFFFF" stroke-width="0.15" stroke-miterlimit="10" width="1.1" height="0.6"/>
			<path fill="#B5C0C9" d="M63.5,80.6l0.2-0.1h0.1c0,0,0-0.2,0-0.3s0-0.3,0-0.3h-0.1l-0.3-0.2L63.5,80.6z"/>
			<path fill="#FFFFFF" d="M63.4,79.6l0.3,0.2h0.1v0c0,0,0,0.2,0,0.3c0,0.1,0,0.3,0,0.3v0h-0.1l-0.2,0.2L63.4,79.6z M63.8,79.9
				L63.8,79.9l-0.3-0.1l0,0.7l0.2-0.1h0.1c0,0,0-0.2,0-0.2C63.8,80.1,63.8,79.9,63.8,79.9z"/>
			<rect x="59.3" y="78.1" fill="#B5C0C9" width="4" height="3"/>
			<path fill="#FFFFFF" d="M59.3,81V78h4.1V81H59.3z M59.4,78.1V81h4v-2.9H59.4z"/>
			<path fill="#B5C0C9" d="M63.3,78C63.3,78,63.2,78,63.3,78l-0.1,3c0,0,0,0.1,0.1,0.1h0.2c0,0,0.1,0,0.1-0.1v-2.9
				c0,0,0-0.1-0.1-0.1H63.3z"/>
			<path fill="#FFFFFF" d="M63.2,81v-2.9c0,0,0-0.1,0.1-0.1h0.2c0,0,0.1,0,0.1,0.1V81c0,0,0,0.1-0.1,0.1h-0.2
				C63.3,81.1,63.2,81,63.2,81z M63.5,78.1C63.5,78.1,63.5,78,63.5,78.1l-0.2,0c0,0,0,0,0,0V81c0,0,0,0,0,0h0.2l0,0V78.1z"/>
			<path fill="#B5C0C9" d="M59.2,78C59.2,78,59.1,78,59.2,78l-0.1,3c0,0,0,0.1,0.1,0.1h0.2c0,0,0.1,0,0.1-0.1v-2.9
				c0,0,0-0.1-0.1-0.1H59.2z"/>
			<path fill="#FFFFFF" d="M59.1,81v-2.9c0,0,0-0.1,0.1-0.1h0.2c0,0,0.1,0,0.1,0.1V81c0,0,0,0.1-0.1,0.1h-0.2
				C59.2,81.1,59.1,81,59.1,81z M59.4,78.1C59.4,78.1,59.4,78,59.4,78.1l-0.2,0c0,0,0,0,0,0V81c0,0,0,0,0,0h0.2l0,0V78.1z"/>
		</g>
	</g>
	<g>
		<rect x="59.2" y="69" fill="none" width="16.4" height="2.9"/>
		<text transform="matrix(1 0 0 1 59.1407 70.7852)" fill="#FFFFFF" font-family="'Helvetica-Light'" font-size="2.4471">IP AutoSwitch</text>
		<g>
			<rect x="63.5" y="64.8" fill="#B5C0C9" width="1.1" height="0.6"/>
			<rect x="63.5" y="64.8" fill="none" stroke="#FFFFFF" stroke-width="0.15" stroke-miterlimit="10" width="1.1" height="0.6"/>
			<rect x="58.3" y="64.8" fill="#B5C0C9" width="1.1" height="0.6"/>
			<rect x="58.3" y="64.8" fill="none" stroke="#FFFFFF" stroke-width="0.15" stroke-miterlimit="10" width="1.1" height="0.6"/>
			<path fill="#B5C0C9" d="M63.5,66.6l0.2-0.1h0.1c0,0,0-0.2,0-0.3s0-0.3,0-0.3h-0.1l-0.3-0.2L63.5,66.6z"/>
			<path fill="#FFFFFF" d="M63.4,65.7l0.3,0.2h0.1v0c0,0,0,0.2,0,0.3c0,0.1,0,0.3,0,0.3v0h-0.1l-0.2,0.2L63.4,65.7z M63.8,66
				L63.8,66l-0.3-0.2l0,0.7l0.2-0.1h0.1c0,0,0-0.2,0-0.2C63.8,66.1,63.8,66,63.8,66z"/>
			<rect x="59.3" y="64.1" fill="#B5C0C9" width="4" height="3"/>
			<path fill="#FFFFFF" d="M59.3,67.1v-3.1h4.1v3.1H59.3z M59.4,64.1V67h4v-2.9H59.4z"/>
			<path fill="#B5C0C9" d="M63.3,64.1C63.3,64.1,63.2,64.1,63.3,64.1l-0.1,3c0,0,0,0.1,0.1,0.1h0.2c0,0,0.1,0,0.1-0.1v-2.9
				c0,0,0-0.1-0.1-0.1H63.3z"/>
			<path fill="#FFFFFF" d="M63.2,67.1v-2.9c0,0,0-0.1,0.1-0.1h0.2c0,0,0.1,0,0.1,0.1v2.9c0,0,0,0.1-0.1,0.1h-0.2
				C63.3,67.2,63.2,67.1,63.2,67.1z M63.5,64.1C63.5,64.1,63.5,64.1,63.5,64.1l-0.2,0c0,0,0,0,0,0v2.9c0,0,0,0,0,0h0.2l0,0V64.1z"/>
			<path fill="#B5C0C9" d="M59.2,64.1C59.2,64.1,59.1,64.1,59.2,64.1l-0.1,3c0,0,0,0.1,0.1,0.1h0.2c0,0,0.1,0,0.1-0.1v-2.9
				c0,0,0-0.1-0.1-0.1H59.2z"/>
			<path fill="#FFFFFF" d="M59.1,67.1v-2.9c0,0,0-0.1,0.1-0.1h0.2c0,0,0.1,0,0.1,0.1v2.9c0,0,0,0.1-0.1,0.1h-0.2
				C59.2,67.2,59.1,67.1,59.1,67.1z M59.4,64.1C59.4,64.1,59.4,64.1,59.4,64.1l-0.2,0c0,0,0,0,0,0v2.9c0,0,0,0,0,0h0.2l0,0V64.1z"/>
		</g>
	</g>
	<g>
		<rect x="59.2" y="55.2" fill="none" width="16.4" height="2.9"/>
		<text transform="matrix(1 0 0 1 59.1407 56.961)" fill="#FFFFFF" font-family="'Helvetica-Light'" font-size="2.4471">IP AutoSwitch</text>
		<g>
			<rect x="63.5" y="51" fill="#B5C0C9" width="1.1" height="0.6"/>
			<rect x="63.5" y="51" fill="none" stroke="#FFFFFF" stroke-width="0.15" stroke-miterlimit="10" width="1.1" height="0.6"/>
			<rect x="58.3" y="51" fill="#B5C0C9" width="1.1" height="0.6"/>
			<rect x="58.3" y="51" fill="none" stroke="#FFFFFF" stroke-width="0.15" stroke-miterlimit="10" width="1.1" height="0.6"/>
			<path fill="#B5C0C9" d="M63.5,52.8l0.2-0.1h0.1c0,0,0-0.2,0-0.3s0-0.3,0-0.3h-0.1L63.4,52L63.5,52.8z"/>
			<path fill="#FFFFFF" d="M63.4,51.9l0.3,0.2h0.1v0c0,0,0,0.2,0,0.3c0,0.1,0,0.3,0,0.3v0h-0.1L63.4,53L63.4,51.9z M63.8,52.2
				L63.8,52.2L63.5,52l0,0.7l0.2-0.1h0.1c0,0,0-0.2,0-0.2C63.8,52.3,63.8,52.2,63.8,52.2z"/>
			<rect x="59.3" y="50.3" fill="#B5C0C9" width="4" height="3"/>
			<path fill="#FFFFFF" d="M59.3,53.3v-3.1h4.1v3.1H59.3z M59.4,50.3v2.9h4v-2.9H59.4z"/>
			<path fill="#B5C0C9" d="M63.3,50.2C63.3,50.2,63.2,50.3,63.3,50.2l-0.1,3c0,0,0,0.1,0.1,0.1h0.2c0,0,0.1,0,0.1-0.1v-2.9
				c0,0,0-0.1-0.1-0.1H63.3z"/>
			<path fill="#FFFFFF" d="M63.2,53.3v-2.9c0,0,0-0.1,0.1-0.1h0.2c0,0,0.1,0,0.1,0.1v2.9c0,0,0,0.1-0.1,0.1h-0.2
				C63.3,53.3,63.2,53.3,63.2,53.3z M63.5,50.3C63.5,50.3,63.5,50.3,63.5,50.3l-0.2,0c0,0,0,0,0,0v2.9c0,0,0,0,0,0h0.2l0,0V50.3z"/>
			<path fill="#B5C0C9" d="M59.2,50.2C59.2,50.2,59.1,50.3,59.2,50.2l-0.1,3c0,0,0,0.1,0.1,0.1h0.2c0,0,0.1,0,0.1-0.1v-2.9
				c0,0,0-0.1-0.1-0.1H59.2z"/>
			<path fill="#FFFFFF" d="M59.1,53.3v-2.9c0,0,0-0.1,0.1-0.1h0.2c0,0,0.1,0,0.1,0.1v2.9c0,0,0,0.1-0.1,0.1h-0.2
				C59.2,53.3,59.1,53.3,59.1,53.3z M59.4,50.3C59.4,50.3,59.4,50.3,59.4,50.3l-0.2,0c0,0,0,0,0,0v2.9c0,0,0,0,0,0h0.2l0,0V50.3z"/>
		</g>
	</g>
	<g>
		<g>
			<g>
				<g>
					<rect x="97.4" y="28.1" fill="#B5C0C9" width="1.1" height="1.4"/>
					<rect x="97.4" y="28.1" fill="none" stroke="#FFFFFF" stroke-width="0.25" stroke-miterlimit="10" width="1.1" height="1.4"/>
					<path fill="#B5C0C9" d="M98.9,30.1c0.1,0,0.2-0.1,0.2-0.2v-0.3c0-0.1-0.1-0.2-0.2-0.2H97c-0.1,0-0.2,0.1-0.2,0.2V30
						c0,0.1,0.1,0.2,0.2,0.2H98.9z"/>
					<path fill="#FFFFFF" d="M98.9,30.2H97c-0.1,0-0.2-0.1-0.2-0.2v-0.3c0-0.1,0.1-0.2,0.2-0.2h1.9c0.1,0,0.2,0.1,0.2,0.2V30
						C99.1,30.1,99,30.2,98.9,30.2z M97,29.6c-0.1,0-0.1,0-0.1,0.1V30c0,0.1,0,0.1,0.1,0.1h1.9c0.1,0,0.1,0,0.1-0.1v-0.3
						c0-0.1,0-0.1-0.1-0.1H97z"/>
				</g>
			</g>
			<g>
				<g>
					<rect x="89.9" y="28.1" fill="#B5C0C9" width="1.1" height="1.4"/>
					<rect x="89.9" y="28.1" fill="none" stroke="#FFFFFF" stroke-width="0.25" stroke-miterlimit="10" width="1.1" height="1.4"/>
					<path fill="#B5C0C9" d="M91.3,30.1c0.1,0,0.2-0.1,0.2-0.2v-0.3c0-0.1-0.1-0.2-0.2-0.2h-1.9c-0.1,0-0.2,0.1-0.2,0.2V30
						c0,0.1,0.1,0.2,0.2,0.2H91.3z"/>
					<path fill="#FFFFFF" d="M91.3,30.2h-1.9c-0.1,0-0.2-0.1-0.2-0.2v-0.3c0-0.1,0.1-0.2,0.2-0.2h1.9c0.1,0,0.2,0.1,0.2,0.2V30
						C91.5,30.1,91.5,30.2,91.3,30.2z M89.5,29.6c-0.1,0-0.1,0-0.1,0.1V30c0,0.1,0,0.1,0.1,0.1h1.9c0.1,0,0.1,0,0.1-0.1v-0.3
						c0-0.1,0-0.1-0.1-0.1H89.5z"/>
				</g>
			</g>
			<g>
				<g>
					<rect x="82.3" y="28.1" fill="#B5C0C9" width="1.1" height="1.4"/>
					<rect x="82.3" y="28.1" fill="none" stroke="#FFFFFF" stroke-width="0.25" stroke-miterlimit="10" width="1.1" height="1.4"/>
					<path fill="#B5C0C9" d="M83.8,30.1c0.1,0,0.2-0.1,0.2-0.2v-0.3c0-0.1-0.1-0.2-0.2-0.2H82c-0.1,0-0.2,0.1-0.2,0.2V30
						c0,0.1,0.1,0.2,0.2,0.2H83.8z"/>
					<path fill="#FFFFFF" d="M83.8,30.2H82c-0.1,0-0.2-0.1-0.2-0.2v-0.3c0-0.1,0.1-0.2,0.2-0.2h1.9c0.1,0,0.2,0.1,0.2,0.2V30
						C84,30.1,83.9,30.2,83.8,30.2z M82,29.6c-0.1,0-0.1,0-0.1,0.1V30c0,0.1,0,0.1,0.1,0.1h1.9c0.1,0,0.1,0,0.1-0.1v-0.3
						c0-0.1,0-0.1-0.1-0.1H82z"/>
				</g>
			</g>
			<g>
				<g>
					<rect x="74.8" y="28.1" fill="#B5C0C9" width="1.1" height="1.4"/>
					<rect x="74.8" y="28.1" fill="none" stroke="#FFFFFF" stroke-width="0.25" stroke-miterlimit="10" width="1.1" height="1.4"/>
					<path fill="#B5C0C9" d="M76.3,30.1c0.1,0,0.2-0.1,0.2-0.2v-0.3c0-0.1-0.1-0.2-0.2-0.2h-1.9c-0.1,0-0.2,0.1-0.2,0.2V30
						c0,0.1,0.1,0.2,0.2,0.2H76.3z"/>
					<path fill="#FFFFFF" d="M76.3,30.2h-1.9c-0.1,0-0.2-0.1-0.2-0.2v-0.3c0-0.1,0.1-0.2,0.2-0.2h1.9c0.1,0,0.2,0.1,0.2,0.2V30
						C76.5,30.1,76.4,30.2,76.3,30.2z M74.4,29.6c-0.1,0-0.1,0-0.1,0.1V30c0,0.1,0,0.1,0.1,0.1h1.9c0.1,0,0.1,0,0.1-0.1v-0.3
						c0-0.1,0-0.1-0.1-0.1H74.4z"/>
				</g>
			</g>
			<g>
				<g>
					<rect x="99.4" y="40.2" fill="#B5C0C9" width="1.1" height="1.4"/>
					<rect x="99.4" y="40.2" fill="none" stroke="#FFFFFF" stroke-width="0.25" stroke-miterlimit="10" width="1.1" height="1.4"/>
					<path fill="#B5C0C9" d="M100.9,39.5c0.1,0,0.2,0.1,0.2,0.2V40c0,0.1-0.1,0.2-0.2,0.2h-1.9c-0.1,0-0.2-0.1-0.2-0.2v-0.3
						c0-0.1,0.1-0.2,0.2-0.2H100.9z"/>
					<path fill="#FFFFFF" d="M101.1,39.7V40c0,0.1-0.1,0.2-0.2,0.2h-1.9c-0.1,0-0.2-0.1-0.2-0.2v-0.3c0-0.1,0.1-0.2,0.2-0.2h1.9
						C101,39.5,101.1,39.6,101.1,39.7z M100.9,40.1c0.1,0,0.1,0,0.1-0.1v-0.3c0-0.1,0-0.1-0.1-0.1h-1.9c-0.1,0-0.1,0-0.1,0.1V40
						c0,0.1,0,0.1,0.1,0.1H100.9z"/>
				</g>
				<g>
					<rect x="95.6" y="40.2" fill="#B5C0C9" width="1.1" height="1.4"/>
					<rect x="95.6" y="40.2" fill="none" stroke="#FFFFFF" stroke-width="0.25" stroke-miterlimit="10" width="1.1" height="1.4"/>
					<path fill="#B5C0C9" d="M97.1,39.5c0.1,0,0.2,0.1,0.2,0.2V40c0,0.1-0.1,0.2-0.2,0.2h-1.9C95.1,40.1,95,40,95,40v-0.3
						c0-0.1,0.1-0.2,0.2-0.2H97.1z"/>
					<path fill="#FFFFFF" d="M97.3,39.7V40c0,0.1-0.1,0.2-0.2,0.2h-1.9c-0.1,0-0.2-0.1-0.2-0.2v-0.3c0-0.1,0.1-0.2,0.2-0.2h1.9
						C97.2,39.5,97.3,39.6,97.3,39.7z M97.1,40.1c0.1,0,0.1,0,0.1-0.1v-0.3c0-0.1,0-0.1-0.1-0.1h-1.9c-0.1,0-0.1,0-0.1,0.1V40
						c0,0.1,0,0.1,0.1,0.1H97.1z"/>
				</g>
				<g>
					<rect x="91.7" y="40.2" fill="#B5C0C9" width="1.1" height="1.4"/>
					<rect x="91.7" y="40.2" fill="none" stroke="#FFFFFF" stroke-width="0.25" stroke-miterlimit="10" width="1.1" height="1.4"/>
					<path fill="#B5C0C9" d="M93.2,39.5c0.1,0,0.2,0.1,0.2,0.2V40c0,0.1-0.1,0.2-0.2,0.2h-1.9c-0.1,0-0.2-0.1-0.2-0.2v-0.3
						c0-0.1,0.1-0.2,0.2-0.2H93.2z"/>
					<path fill="#FFFFFF" d="M93.4,39.7V40c0,0.1-0.1,0.2-0.2,0.2h-1.9c-0.1,0-0.2-0.1-0.2-0.2v-0.3c0-0.1,0.1-0.2,0.2-0.2h1.9
						C93.3,39.5,93.4,39.6,93.4,39.7z M93.2,40.1c0.1,0,0.1,0,0.1-0.1v-0.3c0-0.1,0-0.1-0.1-0.1h-1.9c-0.1,0-0.1,0-0.1,0.1V40
						c0,0.1,0,0.1,0.1,0.1H93.2z"/>
				</g>
				<g>
					<rect x="87.8" y="40.2" fill="#B5C0C9" width="1.1" height="1.4"/>
					<rect x="87.8" y="40.2" fill="none" stroke="#FFFFFF" stroke-width="0.25" stroke-miterlimit="10" width="1.1" height="1.4"/>
					<path fill="#B5C0C9" d="M89.3,39.5c0.1,0,0.2,0.1,0.2,0.2V40c0,0.1-0.1,0.2-0.2,0.2h-1.9c-0.1,0-0.2-0.1-0.2-0.2v-0.3
						c0-0.1,0.1-0.2,0.2-0.2H89.3z"/>
					<path fill="#FFFFFF" d="M89.5,39.7V40c0,0.1-0.1,0.2-0.2,0.2h-1.9c-0.1,0-0.2-0.1-0.2-0.2v-0.3c0-0.1,0.1-0.2,0.2-0.2h1.9
						C89.5,39.5,89.5,39.6,89.5,39.7z M89.3,40.1c0.1,0,0.1,0,0.1-0.1v-0.3c0-0.1,0-0.1-0.1-0.1h-1.9c-0.1,0-0.1,0-0.1,0.1V40
						c0,0.1,0,0.1,0.1,0.1H89.3z"/>
				</g>
				<g>
					<rect x="84" y="40.2" fill="#B5C0C9" width="1.1" height="1.4"/>
					<rect x="84" y="40.2" fill="none" stroke="#FFFFFF" stroke-width="0.25" stroke-miterlimit="10" width="1.1" height="1.4"/>
					<path fill="#B5C0C9" d="M85.4,39.5c0.1,0,0.2,0.1,0.2,0.2V40c0,0.1-0.1,0.2-0.2,0.2h-1.9c-0.1,0-0.2-0.1-0.2-0.2v-0.3
						c0-0.1,0.1-0.2,0.2-0.2H85.4z"/>
					<path fill="#FFFFFF" d="M85.6,39.7V40c0,0.1-0.1,0.2-0.2,0.2h-1.9c-0.1,0-0.2-0.1-0.2-0.2v-0.3c0-0.1,0.1-0.2,0.2-0.2h1.9
						C85.6,39.5,85.6,39.6,85.6,39.7z M85.4,40.1c0.1,0,0.1,0,0.1-0.1v-0.3c0-0.1,0-0.1-0.1-0.1h-1.9c-0.1,0-0.1,0-0.1,0.1V40
						c0,0.1,0,0.1,0.1,0.1H85.4z"/>
				</g>
				<g>
					<rect x="80.1" y="40.2" fill="#B5C0C9" width="1.1" height="1.4"/>
					<rect x="80.1" y="40.2" fill="none" stroke="#FFFFFF" stroke-width="0.25" stroke-miterlimit="10" width="1.1" height="1.4"/>
					<path fill="#B5C0C9" d="M81.6,39.5c0.1,0,0.2,0.1,0.2,0.2V40c0,0.1-0.1,0.2-0.2,0.2h-1.9c-0.1,0-0.2-0.1-0.2-0.2v-0.3
						c0-0.1,0.1-0.2,0.2-0.2H81.6z"/>
					<path fill="#FFFFFF" d="M81.8,39.7V40c0,0.1-0.1,0.2-0.2,0.2h-1.9c-0.1,0-0.2-0.1-0.2-0.2v-0.3c0-0.1,0.1-0.2,0.2-0.2h1.9
						C81.7,39.5,81.8,39.6,81.8,39.7z M81.6,40.1c0.1,0,0.1,0,0.1-0.1v-0.3c0-0.1,0-0.1-0.1-0.1h-1.9c-0.1,0-0.1,0-0.1,0.1V40
						c0,0.1,0,0.1,0.1,0.1H81.6z"/>
				</g>
				<g>
					<rect x="76.2" y="40.2" fill="#B5C0C9" width="1.1" height="1.4"/>
					<rect x="76.2" y="40.2" fill="none" stroke="#FFFFFF" stroke-width="0.25" stroke-miterlimit="10" width="1.1" height="1.4"/>
					<path fill="#B5C0C9" d="M77.7,39.5c0.1,0,0.2,0.1,0.2,0.2V40c0,0.1-0.1,0.2-0.2,0.2h-1.9c-0.1,0-0.2-0.1-0.2-0.2v-0.3
						c0-0.1,0.1-0.2,0.2-0.2H77.7z"/>
					<path fill="#FFFFFF" d="M77.9,39.7V40c0,0.1-0.1,0.2-0.2,0.2h-1.9c-0.1,0-0.2-0.1-0.2-0.2v-0.3c0-0.1,0.1-0.2,0.2-0.2h1.9
						C77.8,39.5,77.9,39.6,77.9,39.7z M77.7,40.1c0.1,0,0.1,0,0.1-0.1v-0.3c0-0.1,0-0.1-0.1-0.1h-1.9c-0.1,0-0.1,0-0.1,0.1V40
						c0,0.1,0,0.1,0.1,0.1H77.7z"/>
				</g>
				<g>
					<rect x="72.3" y="40.2" fill="#B5C0C9" width="1.1" height="1.4"/>
					<rect x="72.3" y="40.2" fill="none" stroke="#FFFFFF" stroke-width="0.25" stroke-miterlimit="10" width="1.1" height="1.4"/>
					<path fill="#B5C0C9" d="M73.8,39.5c0.1,0,0.2,0.1,0.2,0.2V40c0,0.1-0.1,0.2-0.2,0.2h-1.9c-0.1,0-0.2-0.1-0.2-0.2v-0.3
						c0-0.1,0.1-0.2,0.2-0.2H73.8z"/>
					<path fill="#FFFFFF" d="M74.1,39.7V40c0,0.1-0.1,0.2-0.2,0.2H72c-0.1,0-0.2-0.1-0.2-0.2v-0.3c0-0.1,0.1-0.2,0.2-0.2h1.9
						C73.9,39.5,74.1,39.6,74.1,39.7z M73.8,40.1c0.1,0,0.1,0,0.1-0.1v-0.3c0-0.1,0-0.1-0.1-0.1h-1.9c-0.1,0-0.1,0-0.1,0.1V40
						c0,0.1,0,0.1,0.1,0.1H73.8z"/>
				</g>
			</g>
			<rect x="70.6" y="30" fill="#B5C0C9" width="32.1" height="9.9"/>
			<path fill="#FFFFFF" d="M102.7,39.9H70.6v-9.9h32.2V39.9z M70.6,39.8h32V30h-32V39.8z"/>
			<path fill="#B5C0C9" d="M102.5,40c-0.1,0-0.2-0.1-0.2-0.2V30c0-0.1,0.1-0.2,0.2-0.2h0.5c0.1,0,0.2,0.1,0.2,0.2v9.8
				c0,0.1-0.1,0.2-0.2,0.2H102.5z"/>
			<path fill="#FFFFFF" d="M102.9,40h-0.5c-0.1,0-0.3-0.1-0.3-0.3V30c0-0.1,0.1-0.3,0.3-0.3h0.5c0.1,0,0.3,0.1,0.3,0.3v9.8
				C103.2,39.9,103.1,40,102.9,40z M102.5,29.8c-0.1,0-0.2,0.1-0.2,0.2v9.8c0,0.1,0.1,0.2,0.2,0.2h0.5c0.1,0,0.2-0.1,0.2-0.2V30
				c0-0.1-0.1-0.2-0.2-0.2H102.5z"/>
			<path fill="#B5C0C9" d="M70.1,40c-0.1,0-0.2-0.1-0.2-0.2V30c0-0.1,0.1-0.2,0.2-0.2h0.5c0.1,0,0.2,0.1,0.2,0.2v9.8
				c0,0.1-0.1,0.2-0.2,0.2H70.1z"/>
			<path fill="#FFFFFF" d="M70.6,40h-0.5c-0.1,0-0.3-0.1-0.3-0.3V30c0-0.1,0.1-0.3,0.3-0.3h0.5c0.1,0,0.3,0.1,0.3,0.3v9.8
				C70.9,39.9,70.7,40,70.6,40z M70.1,29.8c-0.1,0-0.2,0.1-0.2,0.2v9.8c0,0.1,0.1,0.2,0.2,0.2h0.5c0.1,0,0.2-0.1,0.2-0.2V30
				c0-0.1-0.1-0.2-0.2-0.2H70.1z"/>
		</g>
		<rect x="69.8" y="33.4" fill="none" width="33.2" height="4.4"/>
		<text transform="matrix(1 0 0 1 75.9971 36.3835)" fill="#0F1F30" font-family="'Helvetica-Light'" font-size="4.2291">Multiswitch</text>
	</g>
</g>
</svg>
