<?xml version="1.0" encoding="utf-8"?>
<!-- Generator: Adobe Illustrator 17.1.0, SVG Export Plug-In . SVG Version: 6.00 Build 0)  -->
<!DOCTYPE svg PUBLIC "-//W3C//DTD SVG 1.1//EN" "http://www.w3.org/Graphics/SVG/1.1/DTD/svg11.dtd">
<svg version="1.1" id="Layer_1" xmlns="http://www.w3.org/2000/svg" xmlns:xlink="http://www.w3.org/1999/xlink" x="0px" y="0px"
	 viewBox="0 0 800 600" enable-background="new 0 0 800 600" xml:space="preserve">
<polyline fill="none" stroke="#FFFFFF" stroke-width="2" stroke-miterlimit="10" points="295.5,96 196.4,96 196.4,250.6 
	196.4,307.5 315.8,307.5 430.3,307.5 "/>
<polyline fill="none" stroke="#010101" stroke-width="2" stroke-miterlimit="10" points="140.5,79 140.5,364.1 140.5,415.6 
	259.9,415.6 393.2,415.6 "/>
<polyline fill="none" stroke="#010101" stroke-width="2" stroke-miterlimit="10" points="279.8,79 84,79 84,465.9 84,523.5 
	203.4,523.1 401.5,523.1 "/>
<text transform="matrix(0 -1 1 0 59.5618 324.3847)" fill="#010101" font-family="'Helvetica-Light'" font-size="19.5188">Optional</text>
<polyline fill="none" stroke="#FFFFFF" stroke-width="2" stroke-miterlimit="10" points="549.9,79 757.2,79 757.2,200.1 
	757.2,201.7 543,201.7 "/>
<g>
	<g>
		<g>
			<path fill="#B5C0C9" d="M412.2,225.6h133.7c1-5.9,2.9-17.2,2.9-21.8c0-6.2-1-27-1-27H412.2h-2H275c0,0-1,20.8-1,27
				c0,4.6,2,15.9,2.9,21.8h133.7H412.2z"/>
			<path fill="#B5C0C9" d="M545.9,225.9H276.6c0,0-0.3,0-0.3-0.3c-2-11.1-2.9-18.5-2.9-21.8c0-6.2,1-26.7,1-27c0,0,0-0.3,0.3-0.3
				h272.9c0,0,0.3,0,0.3,0.3c0,0.3,1,20.8,1,27C548.9,207,547.9,214.8,545.9,225.9C546.3,225.9,545.9,225.9,545.9,225.9z
				 M276.6,225.6h269c2-11.1,2.9-18.5,2.9-21.8c0-5.9-1-24.7-1-26.7H275c0,2.3-1,20.8-1,26.7C274,207,275,214.5,276.6,225.6z"/>
			<path fill="#8A9AA5" d="M319.5,177.1c0,0,19.2,43.6,21.5,47.2h141.5c0,0,17.2-34.8,21.8-47.5L319.5,177.1z"/>
			<path fill="#231F20" d="M476.3,225.9H319.8c0,0-0.3,0-0.3-0.3c0,0,0-0.3,0.3-0.3h156.5C476.6,225.6,476.6,225.6,476.3,225.9
				C476.6,225.9,476.6,225.9,476.3,225.9z"/>
			<g>
				<g>
					<g>
						<path fill="#8A9AA5" d="M518.3,201.5c0,1.3-2,2.3-4.2,2.3c-2.3,0-4.2-1-4.2-2.3c0-1.3,2-2.3,4.2-2.3
							C516.3,199.2,518.3,200.2,518.3,201.5z"/>
						<path fill="#8A9AA5" d="M542.4,201.2c0,1.3-2,2.3-4.2,2.3s-4.2-1-4.2-2.3c0-1.3,2-2.3,4.2-2.3
							C540.4,199.2,542.4,200.2,542.4,201.2z"/>
					</g>
					<g>
						<path fill="#8A9AA5" d="M526.1,209.3c1.3,0,2.3,2,2.3,4.2c0,2.3-1,4.2-2.3,4.2c-1.3,0-2.3-2-2.3-4.2
							C523.8,211.3,524.8,209.3,526.1,209.3z"/>
						<path fill="#8A9AA5" d="M526.1,185.2c1.3,0,2.3,2,2.3,4.2c0,2.3-1,4.2-2.3,4.2c-1.3,0-2.3-2-2.3-4.2
							C523.8,186.9,524.8,185.2,526.1,185.2z"/>
					</g>
				</g>
				<path fill="#8A9AA5" d="M530.6,201.5c0,2.6-2,4.6-4.6,4.6s-4.6-2-4.6-4.6s2-4.6,4.6-4.6S530.6,198.9,530.6,201.5z"/>
			</g>
			<path fill="#FFFFFF" d="M547.6,226.9H276.3l-0.3-1c-2-11.4-2.9-18.5-2.9-22.1c0-6.2,1-26.4,1-27v-1.3h275.2v1.3c0,1,1,20.8,1,27
				c0,3.3-1,10.7-2.9,22.1L547.6,226.9z M278.2,224.6h267.4c1.6-10.4,2.6-17.6,2.6-20.8c0-5.2-1-21.5-1-25.7H276.6
				c-0.3,4.6-1,20.5-1,25.7C275.6,207,276.6,214.2,278.2,224.6z"/>
			<path fill="#8A9AA5" d="M285.4,211.6c0-1,1-1.6,2.3-1.6h31.2c1.3,0,2.3,0.7,2.3,1.6v6.2c0,1-1,1.6-2.3,1.6h-31.2
				c-1.3,0-2.3-0.7-2.3-1.6C285.4,217.8,285.4,211.6,285.4,211.6z"/>
		</g>
		<rect x="279.2" y="187.8" fill="none" width="263.8" height="33.5"/>
		<text transform="matrix(1 0 0 1 346.7746 211.2083)" fill="#FFFFFF" font-family="'Helvetica-Light'" font-size="32.5314">Receiver</text>
	</g>
	<rect x="272.3" y="244" fill="none" width="277.2" height="31.3"/>
	<text transform="matrix(1 0 0 1 324.1455 262.6981)" fill="#FFFFFF" font-family="'Helvetica'" font-size="26.0251">Can Be Master</text>
</g>
<g>
	<g>
		<g>
			<path fill="#B5C0C9" d="M412.1,437.7h133.7c1-5.9,2.9-17.2,2.9-21.8c0-6.2-1-27-1-27H412.1h-2H274.8c0,0-1,20.8-1,27
				c0,4.6,2,15.9,2.9,21.8h133.7H412.1z"/>
			<path fill="#B5C0C9" d="M545.8,437.7H276.4c0,0-0.3,0-0.3-0.3c-2-11.1-2.9-18.5-2.9-21.8c0-6.2,1-26.7,1-27c0,0,0-0.3,0.3-0.3
				h272.9c0,0,0.3,0,0.3,0.3c0,0.3,1,20.8,1,27C548.7,418.8,547.7,426.6,545.8,437.7C546.1,437.7,545.8,437.7,545.8,437.7z
				 M276.4,437.4h269c2-11.1,2.9-18.5,2.9-21.8c0-5.9-1-24.7-1-26.7H274.8c0,2.3-1,20.8-1,26.7C273.8,418.8,274.8,426.3,276.4,437.4
				z"/>
			<path fill="#8A9AA5" d="M319.4,389.2c0,0,19.2,43.6,21.5,47.2h141.5c0,0,17.2-34.8,21.8-47.5L319.4,389.2z"/>
			<path fill="#231F20" d="M476.2,438H319.7c0,0-0.3,0-0.3-0.3c0-0.3,0-0.3,0.3-0.3h156.5C476.5,437.4,476.5,437.7,476.2,438
				C476.5,437.7,476.5,438,476.2,438z"/>
			<g>
				<g>
					<g>
						<path fill="#8A9AA5" d="M518.1,413.3c0,1.3-2,2.3-4.2,2.3s-4.2-1-4.2-2.3c0-1.3,2-2.3,4.2-2.3S518.1,412,518.1,413.3z"/>
						<path fill="#8A9AA5" d="M542.2,413.3c0,1.3-2,2.3-4.2,2.3s-4.2-1-4.2-2.3c0-1.3,2-2.3,4.2-2.3
							C540.2,411,542.2,412,542.2,413.3z"/>
					</g>
					<g>
						<path fill="#8A9AA5" d="M525.9,421.1c1.3,0,2.3,2,2.3,4.2s-1,4.2-2.3,4.2c-1.3,0-2.3-2-2.3-4.2
							C523.7,423.1,524.6,421.1,525.9,421.1z"/>
						<path fill="#8A9AA5" d="M525.9,397c1.3,0,2.3,2,2.3,4.2s-1,4.2-2.3,4.2c-1.3,0-2.3-2-2.3-4.2C523.7,398.7,524.6,397,525.9,397
							z"/>
					</g>
				</g>
				<path fill="#8A9AA5" d="M530.5,413.3c0,2.6-2,4.6-4.6,4.6c-2.6,0-4.6-2-4.6-4.6c0-2.6,2-4.6,4.6-4.6
					C528.5,408.7,530.5,410.7,530.5,413.3z"/>
			</g>
			<path fill="#010101" d="M547.4,438.7H276.1l-0.3-1c-2-11.4-2.9-18.5-2.9-22.1c0-6.2,1-26.4,1-27v-1.3h275.5v1.3c0,1,1,20.8,1,27
				c0,3.3-1,10.7-2.9,22.1V438.7z M278,436.4h267.4c1.6-10.4,2.6-17.6,2.6-20.8c0-5.2-1-21.5-1-25.7H276.4c-0.3,4.6-1,20.5-1,25.7
				C275.4,418.8,276.4,426,278,436.4z"/>
			<path fill="#8A9AA5" d="M285.2,423.4c0-1,1-1.6,2.3-1.6h31.2c1.3,0,2.3,0.7,2.3,1.6v6.2c0,1-1,1.6-2.3,1.6h-31.2
				c-1.3,0-2.3-0.7-2.3-1.6V423.4z"/>
		</g>
		<rect x="279" y="399.6" fill="none" width="263.8" height="33.5"/>
		<text transform="matrix(1 0 0 1 346.6185 423.052)" fill="#FFFFFF" font-family="'Helvetica-Light'" font-size="32.5314">Receiver</text>
	</g>
	<rect x="272.3" y="454.7" fill="none" width="277.2" height="31.3"/>
	<text transform="matrix(1 0 0 1 324.1455 473.3879)" fill="#FFFFFF" font-family="'Helvetica'" font-size="26.0251">Can Be Master</text>
</g>
<g>
	<g>
		<g>
			<path fill="#B5C0C9" d="M412.1,543h133.7c1-5.9,2.9-17.2,2.9-21.8c0-6.2-1-27-1-27H412.1h-2H274.8c0,0-1,20.8-1,27
				c0,4.6,2,15.9,2.9,21.8h133.7H412.1z"/>
			<path fill="#B5C0C9" d="M545.8,543.3H276.4c0,0-0.3,0-0.3-0.3c-2-11.1-2.9-18.5-2.9-21.8c0-6.2,1-26.7,1-27c0,0,0-0.3,0.3-0.3
				h272.9c0,0,0.3,0,0.3,0.3c0,0.3,1,20.8,1,27C548.7,524.4,547.7,531.9,545.8,543.3C546.1,543,545.8,543.3,545.8,543.3z
				 M276.4,542.7h269c2-11.1,2.9-18.5,2.9-21.8c0-5.9-1-24.7-1-26.7H274.8c0,2.3-1,20.8-1,26.7C273.8,524.4,274.8,531.9,276.4,542.7
				z"/>
			<path fill="#8A9AA5" d="M319.4,494.5c0,0,19.2,43.6,21.5,47.2h141.5c0,0,17.2-34.8,21.8-47.5L319.4,494.5z"/>
			<path fill="#231F20" d="M476.2,543.3H319.7c0,0-0.3,0-0.3-0.3c0-0.3,0-0.3,0.3-0.3h156.5C476.5,543,476.5,543,476.2,543.3
				C476.5,543.3,476.5,543.3,476.2,543.3z"/>
			<g>
				<g>
					<g>
						<path fill="#8A9AA5" d="M518.1,518.6c0,1.3-2,2.3-4.2,2.3s-4.2-1-4.2-2.3c0-1.3,2-2.3,4.2-2.3S518.1,517.3,518.1,518.6z"/>
						<path fill="#8A9AA5" d="M542.2,518.6c0,1.3-2,2.3-4.2,2.3s-4.2-1-4.2-2.3c0-1.3,2-2.3,4.2-2.3
							C540.2,516.3,542.2,517.3,542.2,518.6z"/>
					</g>
					<g>
						<path fill="#8A9AA5" d="M525.9,526.4c1.3,0,2.3,2,2.3,4.2c0,2.3-1,4.2-2.3,4.2c-1.3,0-2.3-2-2.3-4.2
							C523.7,528.3,524.6,526.4,525.9,526.4z"/>
						<path fill="#8A9AA5" d="M525.9,502.3c1.3,0,2.3,2,2.3,4.2s-1,4.2-2.3,4.2c-1.3,0-2.3-2-2.3-4.2S524.6,502.3,525.9,502.3z"/>
					</g>
				</g>
				<path fill="#8A9AA5" d="M530.5,518.6c0,2.6-2,4.6-4.6,4.6c-2.6,0-4.6-2-4.6-4.6s2-4.6,4.6-4.6C528.5,514,530.5,516,530.5,518.6z
					"/>
			</g>
			<path fill="#010101" d="M547.4,544.3H276.1l-0.3-1c-2-11.4-2.9-18.5-2.9-22.1c0-6.2,1-26.4,1-27v-1.3h275.5v1.3c0,1,1,20.8,1,27
				c0,3.3-1,10.7-2.9,22.1V544.3z M278,541.7h267.4c1.6-10.4,2.6-17.6,2.6-20.8c0-5.2-1-21.5-1-25.7H276.4c-0.3,4.6-1,20.5-1,25.7
				C275.4,524.1,276.4,531.3,278,541.7z"/>
			<path fill="#8A9AA5" d="M285.2,528.7c0-1,1-1.6,2.3-1.6h31.2c1.3,0,2.3,0.7,2.3,1.6v6.2c0,1-1,1.6-2.3,1.6h-31.2
				c-1.3,0-2.3-0.7-2.3-1.6V528.7z"/>
		</g>
		<rect x="279" y="504.9" fill="none" width="263.8" height="33.5"/>
		<text transform="matrix(1 0 0 1 346.6185 528.4335)" fill="#FFFFFF" font-family="'Helvetica-Light'" font-size="32.5314">Receiver</text>
	</g>
	<rect x="272.3" y="560.3" fill="none" width="277.2" height="31.5"/>
	<text transform="matrix(1 0 0 1 324.1455 579.0015)" fill="#FFFFFF" font-family="'Helvetica'" font-size="26.0251">Can Be Master</text>
</g>
<line fill="none" stroke="#FFFFFF" stroke-width="2" stroke-miterlimit="10" x1="357.6" y1="78.8" x2="503" y2="78.8"/>
<g>
	<path fill="#FFFFFF" d="M348.8,104.5h-59.9l0,0c-0.3,0-6.8-2.3-9.4-9.1l0,0v-7.2l0.7-33.8l0,0c2.9-13.7,9.8-23.4,20.8-29.3
		c8.5-4.2,16.3-4.6,17.2-4.6l0,0c0,0,0.3,0,0.7,0c5.2,0,31.6,1.6,38.1,33.5l0,0l1.3,33.8V95l0,0c-1.6,3.9-4.2,6.2-5.9,7.5
		C350.4,104.1,348.8,104.5,348.8,104.5L348.8,104.5z M288.9,103.5h59.5c0.7,0,5.9-1.6,8.8-8.5v-6.8l-1-33.8
		c-6.5-30.9-31.9-32.5-37.1-32.5c-0.3,0-0.7,0-0.7,0l0,0l0,0c-1,0-8.5,0-16.9,4.2c-10.7,5.5-17.6,15-20.2,28.3l-1,33.8V95
		C282.8,100.9,288.3,103.2,288.9,103.5z"/>
	<path fill="#B5C0C9" d="M279.8,88.5v6.8c2.3,6.2,9.1,8.5,9.1,8.5h59.9c5.9-1.3,8.8-8.5,8.8-8.5v-6.8H279.8z"/>
	<path fill="#FFFFFF" d="M357.9,88.8h-78.1c-0.3,0-0.7-0.3-0.7-0.7s0.3-0.7,0.7-0.7h78.1c0.3,0,0.7,0.3,0.7,0.7
		C358.2,88.5,358.2,88.8,357.9,88.8z"/>
	<path fill="#FFFFFF" d="M348.8,104.5h-59.9c0,0,0,0-0.3,0c-0.3,0-6.8-2.3-9.4-9.1c0,0,0,0,0-0.3v-6.8l1-33.8l0,0
		c2.9-13.7,9.8-23.4,20.8-29.3c8.5-4.2,16.3-4.6,17.2-4.6l0,0c0,0,0.3,0,0.7,0c5.2,0,31.6,1.6,38.1,33.5l0,0l1.3,33.8v6.8
		c0,0,0,0,0,0.3c-1.6,3.9-4.2,6.2-5.9,7.5C350.4,104.1,348.8,104.5,348.8,104.5L348.8,104.5z M288.9,103.5h59.5
		c0.7,0,5.9-1.6,8.8-8.5v-6.8l-1-33.8c-6.5-30.9-31.9-32.5-37.1-32.5c-0.3,0-0.7,0-0.7,0l0,0l0,0c-1,0-8.5,0-16.9,4.2
		c-10.7,5.5-17.6,15-20.2,28.3l-1,33.8V95C282.8,100.9,288.3,103.2,288.9,103.5z"/>
</g>
<rect x="261" y="122.7" fill="none" width="115.5" height="33.5"/>
<text transform="matrix(1 0 0 1 270.3049 141.2989)" fill="#FFFFFF" font-family="'Helvetica'" font-size="26.0251">Antenna</text>
<g>
	<path fill="#FFFFFF" d="M534.9,65.7l-0.3-37.4c0,0,0-2.6-2.3-2.6l0,0c-2.3,0-2.3,2.6-2.3,2.6l-0.3,37.4H534.9z"/>
	<path fill="#B5C0C9" d="M494.9,88.2h67V69.6c0,0,0.3-2.3-7.2-3.3c0,0-23.7-2.6-59.5-2.9h-0.3c-35.8,0.3-59.5,2.9-59.5,2.9
		c-7.5,0.7-7.2,3.3-7.2,3.3v18.5L494.9,88.2L494.9,88.2z"/>
	<path fill="#8A9AA5" d="M489,72.2c0,0.7-0.7,1.3-1.3,1.3l0,0c-0.7,0-1.3-0.7-1.3-1.3v-8.1h2.6V72.2z"/>
	<path fill="#8A9AA5" d="M496.2,72.2c0,0.7-0.7,1.3-1.3,1.3l0,0c-0.7,0-1.3-0.7-1.3-1.3v-8.1h2.6V72.2z"/>
	<path fill="#8A9AA5" d="M503,72.2c0,0.7-0.7,1.3-1.3,1.3l0,0c-0.7,0-1.3-0.7-1.3-1.3v-8.1h2.6V72.2z"/>
	<path fill="#FFFFFF" d="M562.2,88.8h-135V69.6c0-0.3,0-0.7,0.3-1.3c1-1.3,3.6-2.3,7.2-2.6c0.3,0,24.1-2.6,59.5-2.9h0.3
		c35.5,0.3,59.5,2.9,59.5,2.9c3.9,0.3,6.2,1.3,7.2,2.6c0.3,0.7,0.3,1,0.3,1.3v19.2H562.2z M428.2,87.5h132.7V69.6l0,0
		c0,0-0.3-2-6.5-2.3c-0.3,0-24.1-2.6-59.5-2.9h-0.3c-35.5,0.3-59.2,2.9-59.5,2.9c-6.5,0.7-6.5,2.3-6.5,2.6l0,0l0,0v17.6H428.2z"/>
</g>
<rect x="428.5" y="122.7" fill="none" width="133.7" height="33.5"/>
<text transform="matrix(1 0 0 1 450.4846 141.2989)" fill="#FFFFFF" font-family="'Helvetica'" font-size="26.0251">TV-Hub</text>
<g>
	
		<text transform="matrix(-1.346898e-10 -1 1 -1.346898e-10 179.8438 264.9984)" fill="#FFFFFF" font-family="'Helvetica-Light'" font-size="19.5188">IP AutoSwitch</text>
	<g>
		<rect x="194.1" y="221.9" fill="#B5C0C9" width="4.9" height="8.5"/>
		<rect x="194.1" y="221.9" fill="none" stroke="#FFFFFF" stroke-width="0.15" stroke-miterlimit="10" width="4.9" height="8.5"/>
		<rect x="194.1" y="262.9" fill="#B5C0C9" width="4.9" height="8.5"/>
		<rect x="194.1" y="262.9" fill="none" stroke="#FFFFFF" stroke-width="0.15" stroke-miterlimit="10" width="4.9" height="8.5"/>
		<path fill="#B5C0C9" d="M208.7,230.4l-1-1.6v-1c0,0-1.3-0.3-2.3-0.3s-2.3,0.3-2.3,0.3v1l-1.3,2.3L208.7,230.4z"/>
		<path fill="#FFFFFF" d="M201.3,231.4l1.6-2.6v-1h0.3c0,0,1.3-0.3,2.6-0.3c1,0,2.3,0.3,2.6,0.3h0.3v1l1.3,2L201.3,231.4z
			 M203.5,228.1v0.7l-1,1.6l5.9-0.3l-0.7-1.3v-0.7c-0.3,0-1.3-0.3-2-0.3C204.8,227.8,203.9,228.1,203.5,228.1z"/>
		<rect x="188.6" y="231.4" fill="#B5C0C9" width="23.7" height="32.2"/>
		<path fill="#FFFFFF" d="M212.6,263.9h-24.4V231h24.4V263.9z M188.9,263.3H212v-31.6h-23.1V263.3z"/>
		<path fill="#B5C0C9" d="M188.2,231.7c0,0.3,0.3,0.7,0.7,0.7h23.4c0.3,0,0.7-0.3,0.7-0.7v-1.3c0-0.3-0.3-0.7-0.7-0.7h-23.4
			c-0.3,0-0.7,0.3-0.7,0.7V231.7z"/>
		<path fill="#FFFFFF" d="M212.3,232.3h-23.4c-0.3,0-1-0.3-1-1v-1.3c0-0.3,0.3-1,1-1h23.4c0.3,0,1,0.3,1,1v1.3
			C213,232,212.6,232.3,212.3,232.3z M188.9,230.4C188.6,230.4,188.6,230.4,188.9,230.4l-0.3,1.3c0,0,0,0.3,0.3,0.3h23.4
			c0,0,0,0,0-0.3v-1.3l0,0H188.9z"/>
		<path fill="#B5C0C9" d="M188.2,264.6c0,0.3,0.3,0.7,0.7,0.7h23.4c0.3,0,0.7-0.3,0.7-0.7v-1.3c0-0.3-0.3-0.7-0.7-0.7h-23.4
			c-0.3,0-0.7,0.3-0.7,0.7V264.6z"/>
		<path fill="#FFFFFF" d="M212.3,265.2h-23.4c-0.3,0-1-0.3-1-1v-1.3c0-0.3,0.3-1,1-1h23.4c0.3,0,1,0.3,1,1v1.3
			C213,264.9,212.6,265.2,212.3,265.2z M188.9,263.3C188.6,263.3,188.6,263.3,188.9,263.3l-0.3,1.3c0,0,0,0.3,0.3,0.3h23.4
			c0,0,0,0,0-0.3v-1.3l0,0H188.9z"/>
	</g>
</g>
<g>
	
		<text transform="matrix(-1.346898e-10 -1 1 -1.346898e-10 123.7459 376.2992)" fill="#FFFFFF" font-family="'Helvetica-Light'" font-size="19.5188">IP AutoSwitch</text>
	<g>
		<rect x="138" y="333.2" fill="#B5C0C9" width="4.9" height="8.5"/>
		<rect x="138" y="333.2" fill="none" stroke="#FFFFFF" stroke-width="0.15" stroke-miterlimit="10" width="4.9" height="8.5"/>
		<rect x="138" y="374.2" fill="#B5C0C9" width="4.9" height="8.5"/>
		<rect x="138" y="374.2" fill="none" stroke="#FFFFFF" stroke-width="0.15" stroke-miterlimit="10" width="4.9" height="8.5"/>
		<path fill="#B5C0C9" d="M152.6,341.7l-1-1.6v-1c0,0-1.3-0.3-2.3-0.3s-2.3,0.3-2.3,0.3v1l-1.3,2.3L152.6,341.7z"/>
		<path fill="#FFFFFF" d="M145.2,342.7l1.6-2.6v-1h0.3c0,0,1.3-0.3,2.6-0.3c1,0,2.3,0.3,2.6,0.3h0.3v1l1.3,2L145.2,342.7z
			 M147.4,339.4v0.7l-1,1.6l5.9-0.3l-0.7-1.3v-0.7c-0.3,0-1.3-0.3-2-0.3C148.7,339.1,147.8,339.4,147.4,339.4z"/>
		<rect x="132.5" y="342.7" fill="#B5C0C9" width="23.7" height="32.2"/>
		<path fill="#FFFFFF" d="M156.5,375.2h-24.4v-32.9h24.4V375.2z M132.8,374.6h23.1V343h-23.1V374.6z"/>
		<path fill="#B5C0C9" d="M132.1,343c0,0.3,0.3,0.7,0.7,0.7h23.4c0.3,0,0.7-0.3,0.7-0.7v-1.3c0-0.3-0.3-0.7-0.7-0.7h-23.4
			c-0.3,0-0.7,0.3-0.7,0.7V343z"/>
		<path fill="#FFFFFF" d="M156.2,343.6h-23.4c-0.3,0-1-0.3-1-1v-1.3c0-0.3,0.3-1,1-1h23.4c0.3,0,1,0.3,1,1v1.3
			C156.9,343.3,156.5,343.6,156.2,343.6z M132.8,341.7C132.5,341.7,132.5,341.7,132.8,341.7l-0.3,1.3c0,0,0,0.3,0.3,0.3h23.4
			c0,0,0,0,0-0.3v-1.3l0,0H132.8z"/>
		<path fill="#B5C0C9" d="M132.1,375.9c0,0.3,0.3,0.7,0.7,0.7h23.4c0.3,0,0.7-0.3,0.7-0.7v-1.3c0-0.3-0.3-0.7-0.7-0.7h-23.4
			c-0.3,0-0.7,0.3-0.7,0.7V375.9z"/>
		<path fill="#FFFFFF" d="M156.2,376.5h-23.4c-0.3,0-1-0.3-1-1v-1.3c0-0.3,0.3-1,1-1h23.4c0.3,0,1,0.3,1,1v1.3
			C156.9,376.2,156.5,376.5,156.2,376.5z M132.8,374.6C132.5,374.6,132.5,374.6,132.8,374.6l-0.3,1.3c0,0,0,0.3,0.3,0.3h23.4
			c0,0,0,0,0-0.3v-1.3l0,0H132.8z"/>
	</g>
</g>
<g>
	
		<text transform="matrix(-1.346898e-10 -1 1 -1.346898e-10 64.4125 483.0023)" fill="#FFFFFF" font-family="'Helvetica-Light'" font-size="19.5188">IP AutoSwitch</text>
	<g>
		<rect x="78.7" y="439.9" fill="#B5C0C9" width="4.9" height="8.5"/>
		<rect x="78.7" y="439.9" fill="none" stroke="#FFFFFF" stroke-width="0.15" stroke-miterlimit="10" width="4.9" height="8.5"/>
		<rect x="78.7" y="480.9" fill="#B5C0C9" width="4.9" height="8.5"/>
		<rect x="78.7" y="480.9" fill="none" stroke="#FFFFFF" stroke-width="0.15" stroke-miterlimit="10" width="4.9" height="8.5"/>
		<path fill="#B5C0C9" d="M93.3,448.4l-1-1.6v-1c0,0-1.3-0.3-2.3-0.3s-2.3,0.3-2.3,0.3v1l-1.3,2.3L93.3,448.4z"/>
		<path fill="#FFFFFF" d="M85.8,449.4l1.6-2.6v-1h0.3c0,0,1.3-0.3,2.6-0.3c1,0,2.3,0.3,2.6,0.3h0.3v1l1.3,2L85.8,449.4z M88.1,446.1
			v0.7l-1,1.6l5.9-0.3l-0.7-1.3v-0.7c-0.3,0-1.3-0.3-2-0.3C89.4,445.8,88.4,446.1,88.1,446.1z"/>
		<rect x="73.1" y="449.4" fill="#B5C0C9" width="23.7" height="32.2"/>
		<path fill="#FFFFFF" d="M97.2,481.9H72.8v-32.9h24.4V481.9z M73.5,481.3h23.1v-31.6H73.5V481.3z"/>
		<path fill="#B5C0C9" d="M72.8,449.7c0,0.3,0.3,0.7,0.7,0.7h23.4c0.3,0,0.7-0.3,0.7-0.7v-1.3c0-0.3-0.3-0.7-0.7-0.7H73.5
			c-0.3,0-0.7,0.3-0.7,0.7V449.7z"/>
		<path fill="#FFFFFF" d="M96.9,450.4H73.5c-0.3,0-1-0.3-1-1v-1.3c0-0.3,0.3-1,1-1h23.4c0.3,0,1,0.3,1,1v1.3
			C97.5,450,97.2,450.4,96.9,450.4z M73.5,448.4C73.1,448.4,73.1,448.4,73.5,448.4l-0.3,1.3c0,0,0,0.3,0.3,0.3h23.4c0,0,0,0,0-0.3
			v-1.3l0,0H73.5z"/>
		<path fill="#B5C0C9" d="M72.8,482.6c0,0.3,0.3,0.7,0.7,0.7h23.4c0.3,0,0.7-0.3,0.7-0.7v-1.3c0-0.3-0.3-0.7-0.7-0.7H73.5
			c-0.3,0-0.7,0.3-0.7,0.7V482.6z"/>
		<path fill="#FFFFFF" d="M96.9,483.2H73.5c-0.3,0-1-0.3-1-1v-1.3c0-0.3,0.3-1,1-1h23.4c0.3,0,1,0.3,1,1v1.3
			C97.5,482.9,97.2,483.2,96.9,483.2z M73.5,481.3C73.1,481.3,73.1,481.3,73.5,481.3l-0.3,1.3c0,0,0,0.3,0.3,0.3h23.4c0,0,0,0,0-0.3
			v-1.3l0,0H73.5z"/>
	</g>
</g>
<g>
	<g>
		<g>
			<path fill="#B5C0C9" d="M412.1,330.5h133.7c1-5.9,2.9-17.2,2.9-21.8c0-6.2-1-27-1-27H412.1h-2H274.8c0,0-1,20.8-1,27
				c0,4.6,2,15.9,2.9,21.8h133.7H412.1z"/>
			<path fill="#B5C0C9" d="M545.8,330.8H276.4c0,0-0.3,0-0.3-0.3c-2-11.1-2.9-18.5-2.9-21.8c0-6.2,1-26.7,1-27c0,0,0-0.3,0.3-0.3
				h272.9c0,0,0.3,0,0.3,0.3c0,0.3,1,20.8,1,27C548.7,312,547.7,319.8,545.8,330.8C546.1,330.8,545.8,330.8,545.8,330.8z
				 M276.4,330.5h269c2-11.1,2.9-18.5,2.9-21.8c0-5.9-1-24.7-1-26.7H274.8c0,2.3-1,20.8-1,26.7C273.8,312,274.8,319.4,276.4,330.5z"
				/>
			<path fill="#8A9AA5" d="M319.4,282c0,0,19.2,43.6,21.5,47.2h141.5c0,0,17.2-34.8,21.8-47.5L319.4,282z"/>
			<path fill="#231F20" d="M476.2,330.8H319.7c0,0-0.3,0-0.3-0.3c0-0.3,0-0.3,0.3-0.3h156.5C476.5,330.5,476.5,330.5,476.2,330.8
				C476.5,330.8,476.5,330.8,476.2,330.8z"/>
			<g>
				<g>
					<g>
						<path fill="#8A9AA5" d="M518.1,306.4c0,1.3-2,2.3-4.2,2.3s-4.2-1-4.2-2.3c0-1.3,2-2.3,4.2-2.3
							C516.2,304.2,518.1,305.1,518.1,306.4z"/>
						<path fill="#8A9AA5" d="M542.2,306.1c0,1.3-2,2.3-4.2,2.3s-4.2-1-4.2-2.3c0-1.3,2-2.3,4.2-2.3
							C540.2,304.2,542.2,305.1,542.2,306.1z"/>
					</g>
					<g>
						<path fill="#8A9AA5" d="M525.9,314.2c1.3,0,2.3,2,2.3,4.2s-1,4.2-2.3,4.2c-1.3,0-2.3-2-2.3-4.2S524.6,314.2,525.9,314.2z"/>
						<path fill="#8A9AA5" d="M525.9,289.8c1.3,0,2.3,2,2.3,4.2s-1,4.2-2.3,4.2c-1.3,0-2.3-2-2.3-4.2
							C523.7,291.8,524.6,289.8,525.9,289.8z"/>
					</g>
				</g>
				<path fill="#8A9AA5" d="M530.5,306.4c0,2.6-2,4.6-4.6,4.6c-2.6,0-4.6-2-4.6-4.6c0-2.6,2-4.6,4.6-4.6
					C528.5,301.9,530.5,303.8,530.5,306.4z"/>
			</g>
			<path fill="#FFFFFF" d="M547.4,331.8H276.1l-0.3-1c-2-11.4-2.9-18.5-2.9-22.1c0-6.2,1-26.4,1-27v-1.3h275.5v1.3c0,1,1,20.8,1,27
				c0,3.3-1,10.7-2.9,22.1V331.8z M278,329.5h267.4c1.6-10.4,2.6-17.6,2.6-20.8c0-5.2-1-21.5-1-25.7H276.4c-0.3,4.6-1,20.5-1,25.7
				C275.4,312,276.4,319.1,278,329.5z"/>
			<path fill="#8A9AA5" d="M285.2,316.5c0-1,1-1.6,2.3-1.6h31.2c1.3,0,2.3,0.7,2.3,1.6v6.2c0,1-1,1.6-2.3,1.6h-31.2
				c-1.3,0-2.3-0.7-2.3-1.6V316.5z"/>
		</g>
		<rect x="279" y="292.8" fill="none" width="263.8" height="33.5"/>
		<text transform="matrix(1 0 0 1 346.6121 316.1186)" fill="#FFFFFF" font-family="'Helvetica-Light'" font-size="32.5314">Receiver</text>
	</g>
	<rect x="272.8" y="348.4" fill="none" width="277.2" height="26.6"/>
	<text transform="matrix(1 0 0 1 324.634 367.0843)" fill="#FFFFFF" font-family="'Helvetica'" font-size="26.0251">Can Be Master</text>
</g>
</svg>
