<?xml version="1.0" encoding="utf-8"?>
<!-- Generator: Adobe Illustrator 17.1.0, SVG Export Plug-In . SVG Version: 6.00 Build 0)  -->
<!DOCTYPE svg PUBLIC "-//W3C//DTD SVG 1.1//EN" "http://www.w3.org/Graphics/SVG/1.1/DTD/svg11.dtd">
<svg version="1.1" id="Layer_1" xmlns="http://www.w3.org/2000/svg" xmlns:xlink="http://www.w3.org/1999/xlink" x="0px" y="0px"
	 viewBox="0 0 104 90" enable-background="new 0 0 104 90" xml:space="preserve">
<line fill="none" stroke="#FFFFFF" stroke-width="0.25" stroke-miterlimit="10" x1="17.1" y1="14.5" x2="91" y2="14.5"/>
<line fill="none" stroke="#FFFFFF" stroke-width="0.25" stroke-miterlimit="10" x1="90.9" y1="14.4" x2="90.9" y2="21.8"/>
<polyline fill="none" stroke="#FFFFFF" stroke-width="0.25" stroke-miterlimit="10" points="87.2,29.3 54.8,29.3 54.8,36.6 
	40.5,36.6 "/>
<line fill="none" stroke="#FFFFFF" stroke-width="0.25" stroke-miterlimit="10" x1="87.2" y1="29.5" x2="87.2" y2="23"/>
<line fill="none" stroke="#FFFFFF" stroke-width="0.25" stroke-miterlimit="10" x1="94.5" y1="26.3" x2="94.5" y2="35.2"/>
<g>
	<path fill="#FFFFFF" d="M16,17.8H8.5l0,0c0,0-0.9-0.3-1.2-1.1l0,0v-0.9l0.1-4.2l0,0c0.4-1.7,1.2-2.9,2.6-3.7c1.1-0.5,2-0.6,2.2-0.6
		l0,0c0,0,0,0,0.1,0c0.7,0,4,0.2,4.8,4.2l0,0l0.2,4.2v0.9l0,0c-0.2,0.5-0.5,0.8-0.7,0.9C16.2,17.7,16,17.8,16,17.8L16,17.8z
		 M8.5,17.6H16c0.1,0,0.7-0.2,1.1-1.1v-0.9l-0.2-4.2c-0.8-3.9-4-4.1-4.6-4.1c0,0-0.1,0-0.1,0l0,0l0,0c-0.1,0-1.1,0-2.1,0.5
		c-1.3,0.7-2.2,1.9-2.5,3.5l-0.1,4.2v0.9C7.7,17.3,8.4,17.6,8.5,17.6z"/>
	<path fill="#B5C0C9" d="M7.4,15.7v0.9c0.3,0.8,1.1,1.1,1.1,1.1H16c0.7-0.2,1.1-1.1,1.1-1.1v-0.9H7.4z"/>
	<path fill="#FFFFFF" d="M17.2,15.8H7.4c0,0-0.1,0-0.1-0.1c0,0,0-0.1,0.1-0.1h9.8C17.2,15.6,17.3,15.6,17.2,15.8
		C17.2,15.7,17.2,15.8,17.2,15.8z"/>
	<path fill="#FFFFFF" d="M16,17.8H8.5c0,0,0,0,0,0s-0.9-0.3-1.2-1.1c0,0,0,0,0,0v-0.9l0.1-4.2l0,0C7.8,9.8,8.6,8.5,10,7.8
		c1.1-0.5,2-0.6,2.2-0.6l0,0c0,0,0,0,0.1,0c0.7,0,4,0.2,4.8,4.2l0,0l0.2,4.2v0.9c0,0,0,0,0,0c-0.2,0.5-0.5,0.8-0.7,0.9
		C16.2,17.7,16,17.8,16,17.8L16,17.8z M8.5,17.6H16c0.1,0,0.7-0.2,1.1-1.1v-0.9l-0.2-4.2c-0.8-3.9-4-4.1-4.6-4.1c0,0-0.1,0-0.1,0
		l0,0l0,0c-0.1,0-1.1,0-2.1,0.5c-1.3,0.7-2.2,1.9-2.5,3.5l-0.1,4.2v0.9C7.7,17.3,8.4,17.6,8.5,17.6z"/>
</g>
<g>
	<path fill="#FFFFFF" d="M39.4,12.9l0-4.7c0,0,0-0.3-0.3-0.3l0,0c-0.3,0-0.3,0.3-0.3,0.3l0,4.7H39.4z"/>
	<path fill="#B5C0C9" d="M34.3,15.7h8.4v-2.3c0,0,0-0.3-0.9-0.4c0,0-3-0.3-7.5-0.4h0c-4.5,0-7.5,0.4-7.5,0.4
		C25.9,13,26,13.4,26,13.4v2.3H34.3L34.3,15.7z"/>
	<path fill="#8999A5" d="M33.6,13.7c0,0.1-0.1,0.2-0.2,0.2l0,0c-0.1,0-0.2-0.1-0.2-0.2v-1h0.3V13.7z"/>
	<path fill="#8999A5" d="M34.5,13.7c0,0.1-0.1,0.2-0.2,0.2l0,0c-0.1,0-0.2-0.1-0.2-0.2v-1h0.3V13.7z"/>
	<path fill="#8999A5" d="M35.4,13.7c0,0.1-0.1,0.2-0.2,0.2l0,0c-0.1,0-0.2-0.1-0.2-0.2v-1h0.3V13.7z"/>
	<path fill="#FFFFFF" d="M42.8,15.8H25.9v-2.4c0,0,0-0.1,0-0.2c0.1-0.2,0.4-0.3,0.9-0.3c0,0,3-0.3,7.5-0.4h0c4.4,0,7.5,0.4,7.5,0.4
		c0.5,0,0.8,0.2,0.9,0.3c0,0.1,0,0.1,0,0.2L42.8,15.8L42.8,15.8z M26,15.6h16.6v-2.2l0,0c0,0,0-0.2-0.8-0.3c0,0-3-0.3-7.5-0.4h0
		c-4.4,0-7.4,0.4-7.5,0.4C26,13.1,26,13.4,26,13.4l0,0l0,0L26,15.6L26,15.6z"/>
</g>
<g>
	<g>
		<path fill="#B5C0C9" d="M24.7,39.1h16.8c0.1-0.7,0.4-2.2,0.4-2.7c0-0.8-0.1-3.4-0.1-3.4h-17h-0.2h-17c0,0-0.1,2.6-0.1,3.4
			c0,0.6,0.2,2,0.4,2.7h16.8H24.7z"/>
		<path fill="#B5C0C9" d="M41.4,39.1H7.7c0,0,0,0,0,0c-0.2-1.4-0.4-2.3-0.4-2.7c0-0.8,0.1-3.3,0.1-3.4c0,0,0,0,0,0h34.2c0,0,0,0,0,0
			s0.1,2.6,0.1,3.4C41.8,36.8,41.7,37.7,41.4,39.1C41.5,39.1,41.4,39.1,41.4,39.1z M7.7,39h33.7c0.2-1.4,0.4-2.3,0.4-2.7
			c0-0.7-0.1-3.1-0.1-3.3H7.5c0,0.3-0.1,2.6-0.1,3.3C7.3,36.7,7.5,37.7,7.7,39z"/>
		<path fill="#8999A5" d="M13.1,33c0,0,2.4,5.5,2.7,5.9h17.7c0,0,2.2-4.4,2.7-6L13.1,33z"/>
		<path fill="#231F20" d="M32.7,39.1H13.1c0,0,0,0,0,0c0,0,0,0,0,0L32.7,39.1C32.7,39.1,32.7,39.1,32.7,39.1
			C32.7,39.1,32.7,39.1,32.7,39.1z"/>
		<g>
			<g>
				<g>
					<path fill="#8999A5" d="M38,36c0,0.2-0.2,0.3-0.5,0.3c-0.3,0-0.5-0.1-0.5-0.3c0-0.2,0.2-0.3,0.5-0.3S38,35.9,38,36z"/>
					<path fill="#8999A5" d="M41,36c0,0.2-0.2,0.3-0.5,0.3c-0.3,0-0.5-0.1-0.5-0.3c0-0.2,0.2-0.3,0.5-0.3S41,35.9,41,36z"/>
				</g>
				<g>
					<path fill="#8999A5" d="M38.9,37c0.2,0,0.3,0.2,0.3,0.5c0,0.3-0.1,0.5-0.3,0.5c-0.2,0-0.3-0.2-0.3-0.5S38.8,37,38.9,37z"/>
					<path fill="#8999A5" d="M38.9,34c0.2,0,0.3,0.2,0.3,0.5c0,0.3-0.1,0.5-0.3,0.5c-0.2,0-0.3-0.2-0.3-0.5S38.8,34,38.9,34z"/>
				</g>
			</g>
			<path fill="#8999A5" d="M39.5,36c0,0.3-0.2,0.6-0.6,0.6s-0.6-0.2-0.6-0.6c0-0.3,0.2-0.6,0.6-0.6S39.5,35.7,39.5,36z"/>
		</g>
		<path fill="#FFFFFF" d="M41.6,39.2h-34l0-0.1c-0.2-1.4-0.4-2.3-0.4-2.8c0-0.8,0.1-3.3,0.1-3.4v-0.2h34.5V33c0,0.1,0.1,2.6,0.1,3.4
			c0,0.4-0.1,1.3-0.4,2.8L41.6,39.2z M7.9,38.9h33.5c0.2-1.3,0.3-2.2,0.3-2.6c0-0.7-0.1-2.7-0.1-3.2H7.7c0,0.6-0.1,2.6-0.1,3.2
			C7.5,36.7,7.7,37.6,7.9,38.9z"/>
		<path fill="#8999A5" d="M8.8,37.3c0-0.1,0.1-0.2,0.3-0.2H13c0.2,0,0.3,0.1,0.3,0.2v0.8c0,0.1-0.1,0.2-0.3,0.2H9.1
			c-0.2,0-0.3-0.1-0.3-0.2C8.8,38.1,8.8,37.3,8.8,37.3z"/>
	</g>
	<rect x="8" y="34.3" fill="none" width="33.1" height="4.2"/>
	<g>
		<text transform="matrix(1 0 0 1 16.4677 37.2577)" fill="#0F1F30" font-family="'Helvetica-Light'" font-size="4.2291">Receiver</text>
	</g>
</g>
<polyline fill="none" stroke="#FFFFFF" stroke-width="0.25" stroke-miterlimit="10" points="40.5,55.6 54.8,55.6 69.7,55.6 
	69.7,48.3 69.7,40.6 "/>
<g>
	<g>
		<path fill="#B5C0C9" d="M24.7,58.1h16.8c0.1-0.7,0.4-2.2,0.4-2.7c0-0.8-0.1-3.4-0.1-3.4h-17h-0.2h-17c0,0-0.1,2.6-0.1,3.4
			c0,0.6,0.2,2,0.4,2.7h16.8H24.7z"/>
		<path fill="#B5C0C9" d="M41.4,58.1H7.7c0,0,0,0,0,0c-0.2-1.4-0.4-2.3-0.4-2.7c0-0.8,0.1-3.3,0.1-3.4c0,0,0,0,0,0h34.2c0,0,0,0,0,0
			c0,0,0.1,2.6,0.1,3.4C41.8,55.8,41.7,56.7,41.4,58.1C41.5,58.1,41.4,58.1,41.4,58.1z M7.7,58.1h33.7c0.2-1.4,0.4-2.3,0.4-2.7
			c0-0.7-0.1-3.1-0.1-3.3H7.5c0,0.3-0.1,2.6-0.1,3.3C7.3,55.7,7.5,56.7,7.7,58.1z"/>
		<path fill="#8999A5" d="M13.1,52c0,0,2.4,5.5,2.7,5.9h17.7c0,0,2.2-4.4,2.7-6L13.1,52z"/>
		<path fill="#231F20" d="M32.7,58.1H13.1c0,0,0,0,0,0c0,0,0,0,0,0L32.7,58.1C32.7,58.1,32.7,58.1,32.7,58.1
			C32.7,58.1,32.7,58.1,32.7,58.1z"/>
		<g>
			<g>
				<g>
					<path fill="#8999A5" d="M38,55c0,0.2-0.2,0.3-0.5,0.3c-0.3,0-0.5-0.1-0.5-0.3c0-0.2,0.2-0.3,0.5-0.3C37.7,54.7,38,54.9,38,55z"
						/>
					<path fill="#8999A5" d="M41,55c0,0.2-0.2,0.3-0.5,0.3c-0.3,0-0.5-0.1-0.5-0.3c0-0.2,0.2-0.3,0.5-0.3C40.7,54.7,41,54.9,41,55z"
						/>
				</g>
				<g>
					<path fill="#8999A5" d="M38.9,56c0.2,0,0.3,0.2,0.3,0.5s-0.1,0.5-0.3,0.5c-0.2,0-0.3-0.2-0.3-0.5S38.8,56,38.9,56z"/>
					<path fill="#8999A5" d="M38.9,53c0.2,0,0.3,0.2,0.3,0.5c0,0.3-0.1,0.5-0.3,0.5c-0.2,0-0.3-0.2-0.3-0.5
						C38.7,53.2,38.8,53,38.9,53z"/>
				</g>
			</g>
			<path fill="#8999A5" d="M39.5,55c0,0.3-0.2,0.6-0.6,0.6s-0.6-0.2-0.6-0.6c0-0.3,0.2-0.6,0.6-0.6C39.3,54.5,39.5,54.7,39.5,55z"/>
		</g>
		<path fill="#FFFFFF" d="M41.6,58.2h-34l0-0.1c-0.2-1.4-0.4-2.3-0.4-2.8c0-0.8,0.1-3.3,0.1-3.4v-0.2h34.5v0.2
			c0,0.1,0.1,2.6,0.1,3.4c0,0.4-0.1,1.3-0.4,2.8L41.6,58.2z M7.9,57.9h33.5c0.2-1.3,0.3-2.2,0.3-2.6c0-0.7-0.1-2.7-0.1-3.2H7.7
			c0,0.6-0.1,2.6-0.1,3.2C7.5,55.7,7.7,56.6,7.9,57.9z"/>
		<path fill="#8999A5" d="M8.8,56.3c0-0.1,0.1-0.2,0.3-0.2H13c0.2,0,0.3,0.1,0.3,0.2v0.8c0,0.1-0.1,0.2-0.3,0.2H9.1
			c-0.2,0-0.3-0.1-0.3-0.2C8.8,57.1,8.8,56.3,8.8,56.3z"/>
	</g>
	<rect x="8" y="53.3" fill="none" width="33.1" height="4.2"/>
	<g>
		<text transform="matrix(1 0 0 1 16.4677 56.2618)" fill="#0F1F30" font-family="'Helvetica-Light'" font-size="4.2291">Receiver</text>
	</g>
</g>
<polyline fill="none" stroke="#0CBC18" stroke-width="0.25" stroke-miterlimit="10" points="41.8,67.8 58.5,67.8 73.5,67.9 
	73.5,60.6 73.5,40.6 "/>
<path fill="#B5C0C9" d="M51.5,70.3h16.8c0.1-0.7,0.4-2.2,0.4-2.7c0-0.8-0.1-3.4-0.1-3.4h-17h-0.2h-17c0,0-0.1,2.6-0.1,3.4
	c0,0.6,0.2,2,0.4,2.7h16.8H51.5z"/>
<path fill="#B5C0C9" d="M68.2,70.4H34.5c0,0,0,0,0,0c-0.2-1.4-0.4-2.3-0.4-2.7c0-0.8,0.1-3.3,0.1-3.4c0,0,0,0,0,0h34.2c0,0,0,0,0,0
	s0.1,2.6,0.1,3.4C68.6,68,68.5,68.9,68.2,70.4C68.3,70.3,68.2,70.4,68.2,70.4z M34.5,70.3h33.7c0.2-1.4,0.4-2.3,0.4-2.7
	c0-0.7-0.1-3.1-0.1-3.3H34.3c0,0.3-0.1,2.6-0.1,3.3C34.1,68,34.3,68.9,34.5,70.3z"/>
<path fill="#8999A5" d="M39.8,64.3c0,0,2.4,5.5,2.7,5.9h17.7c0,0,2.2-4.4,2.7-6L39.8,64.3z"/>
<path fill="#231F20" d="M59.5,70.4H39.9c0,0,0,0,0,0c0,0,0,0,0,0L59.5,70.4C59.5,70.3,59.5,70.3,59.5,70.4
	C59.5,70.4,59.5,70.4,59.5,70.4z"/>
<g>
	<g>
		<g>
			<path fill="#8999A5" d="M64.8,67.3c0,0.2-0.2,0.3-0.5,0.3c-0.3,0-0.5-0.1-0.5-0.3c0-0.2,0.2-0.3,0.5-0.3
				C64.5,67,64.8,67.1,64.8,67.3z"/>
			<path fill="#8999A5" d="M67.8,67.3c0,0.2-0.2,0.3-0.5,0.3c-0.3,0-0.5-0.1-0.5-0.3c0-0.2,0.2-0.3,0.5-0.3
				C67.6,67,67.8,67.1,67.8,67.3z"/>
		</g>
		<g>
			<path fill="#8999A5" d="M65.7,68.2c0.2,0,0.3,0.2,0.3,0.5c0,0.3-0.1,0.5-0.3,0.5c-0.2,0-0.3-0.2-0.3-0.5
				C65.5,68.5,65.6,68.2,65.7,68.2z"/>
			<path fill="#8999A5" d="M65.7,65.2c0.2,0,0.3,0.2,0.3,0.5c0,0.3-0.1,0.5-0.3,0.5c-0.2,0-0.3-0.2-0.3-0.5S65.6,65.2,65.7,65.2z"/>
		</g>
	</g>
	<path fill="#8999A5" d="M66.3,67.3c0,0.3-0.2,0.6-0.6,0.6s-0.6-0.2-0.6-0.6s0.2-0.6,0.6-0.6C66.1,66.7,66.3,66.9,66.3,67.3z"/>
</g>
<path fill="#0CBC18" d="M68.4,70.5h-34l0-0.1C34.1,68.9,34,68,34,67.6c0-0.8,0.1-3.3,0.1-3.4V64h34.5v0.2c0,0.1,0.1,2.6,0.1,3.4
	c0,0.4-0.1,1.3-0.4,2.8L68.4,70.5z M34.7,70.2h33.5c0.2-1.3,0.3-2.2,0.3-2.6c0-0.7-0.1-2.7-0.1-3.2H34.5c0,0.6-0.1,2.6-0.1,3.2
	C34.3,68,34.5,68.9,34.7,70.2z"/>
<path fill="#8999A5" d="M35.6,68.5c0-0.1,0.1-0.2,0.3-0.2h3.9c0.2,0,0.3,0.1,0.3,0.2v0.8c0,0.1-0.1,0.2-0.3,0.2h-3.9
	c-0.2,0-0.3-0.1-0.3-0.2L35.6,68.5L35.6,68.5z"/>
<rect x="34.8" y="65.6" fill="none" width="33.1" height="4.2"/>
<g>
	<text transform="matrix(1 0 0 1 43.2643 68.504)" fill="#0F1F30" font-family="'Helvetica-Light'" font-size="4.2291">Receiver</text>
</g>
<polyline fill="none" stroke="#0CBC18" stroke-width="0.25" stroke-miterlimit="10" points="37.4,80.1 62.3,80.1 77.2,80.2 
	77.2,72.9 77.2,42.5 "/>
<path fill="#B5C0C9" d="M51.5,82.6h16.8c0.1-0.7,0.4-2.2,0.4-2.7c0-0.8-0.1-3.4-0.1-3.4h-17h-0.2h-17c0,0-0.1,2.6-0.1,3.4
	c0,0.6,0.2,2,0.4,2.7h16.8H51.5z"/>
<path fill="#B5C0C9" d="M68.2,82.6H34.5c0,0,0,0,0,0c-0.2-1.4-0.4-2.3-0.4-2.7c0-0.8,0.1-3.3,0.1-3.4c0,0,0,0,0,0h34.2c0,0,0,0,0,0
	s0.1,2.6,0.1,3.4C68.6,80.3,68.5,81.2,68.2,82.6C68.3,82.6,68.2,82.6,68.2,82.6z M34.5,82.6h33.7c0.2-1.4,0.4-2.3,0.4-2.7
	c0-0.7-0.1-3.1-0.1-3.3H34.3c0,0.3-0.1,2.6-0.1,3.3C34.1,80.3,34.3,81.2,34.5,82.6z"/>
<path fill="#8999A5" d="M39.8,76.5c0,0,2.4,5.5,2.7,5.9h17.7c0,0,2.2-4.4,2.7-6L39.8,76.5z"/>
<path fill="#231F20" d="M59.5,82.6H39.9c0,0,0,0,0,0s0,0,0,0L59.5,82.6C59.5,82.6,59.5,82.6,59.5,82.6
	C59.5,82.6,59.5,82.6,59.5,82.6z"/>
<g>
	<g>
		<g>
			<path fill="#8999A5" d="M64.8,79.5c0,0.2-0.2,0.3-0.5,0.3c-0.3,0-0.5-0.1-0.5-0.3s0.2-0.3,0.5-0.3C64.5,79.3,64.8,79.4,64.8,79.5
				z"/>
			<path fill="#8999A5" d="M67.8,79.5c0,0.2-0.2,0.3-0.5,0.3c-0.3,0-0.5-0.1-0.5-0.3s0.2-0.3,0.5-0.3C67.6,79.3,67.8,79.4,67.8,79.5
				z"/>
		</g>
		<g>
			<path fill="#8999A5" d="M65.7,80.6c0.2,0,0.3,0.2,0.3,0.5s-0.1,0.5-0.3,0.5c-0.2,0-0.3-0.2-0.3-0.5
				C65.5,80.8,65.6,80.6,65.7,80.6z"/>
			<path fill="#8999A5" d="M65.7,77.5c0.2,0,0.3,0.2,0.3,0.5s-0.1,0.5-0.3,0.5c-0.2,0-0.3-0.2-0.3-0.5S65.6,77.5,65.7,77.5z"/>
		</g>
	</g>
	<path fill="#8999A5" d="M66.3,79.5c0,0.3-0.2,0.6-0.6,0.6s-0.6-0.2-0.6-0.6c0-0.3,0.2-0.6,0.6-0.6C66.1,79,66.3,79.3,66.3,79.5z"/>
</g>
<path fill="#0CBC18" d="M68.4,82.8h-34l0-0.1c-0.2-1.4-0.4-2.3-0.4-2.8c0-0.8,0.1-3.3,0.1-3.4v-0.2h34.5v0.2c0,0.1,0.1,2.6,0.1,3.4
	c0,0.4-0.1,1.3-0.4,2.8L68.4,82.8z M34.7,82.4h33.5c0.2-1.3,0.3-2.2,0.3-2.6c0-0.7-0.1-2.7-0.1-3.2H34.5c0,0.6-0.1,2.6-0.1,3.2
	C34.3,80.2,34.5,81.1,34.7,82.4z"/>
<path fill="#8999A5" d="M35.6,80.8c0-0.1,0.1-0.2,0.3-0.2h3.9c0.2,0,0.3,0.1,0.3,0.2v0.8c0,0.1-0.1,0.2-0.3,0.2h-3.9
	c-0.2,0-0.3-0.1-0.3-0.2L35.6,80.8L35.6,80.8z"/>
<rect x="34.8" y="77.9" fill="none" width="33.1" height="4.2"/>
<g>
	<text transform="matrix(1 0 0 1 43.2643 80.792)" fill="#0F1F30" font-family="'Helvetica-Light'" font-size="4.2291">Receiver</text>
</g>
<rect x="5" y="20" fill="none" width="14.5" height="4.2"/>
<text transform="matrix(1 0 0 1 6.1871 22.3476)" fill="#FFFFFF" font-family="'Helvetica'" font-size="3.2627">Antenna</text>
<rect x="26" y="20" fill="none" width="16.8" height="4.2"/>
<text transform="matrix(1 0 0 1 28.7763 22.3476)" fill="#FFFFFF" font-family="'Helvetica'" font-size="3.2627">TV-Hub</text>
<rect x="69.5" y="20" fill="none" width="16.8" height="4.2"/>
<text transform="matrix(1 0 0 1 71.2825 22.3254)" fill="#FFFFFF" font-family="'Helvetica'" font-size="3.2627">Splitter</text>
<g>
	<text transform="matrix(1 0 0 1 19.4243 43.6278)" fill="#DEF93D" font-family="'Helvetica'" font-size="3.3833">Master</text>
</g>
<g>
	<text transform="matrix(1 0 0 1 46.8109 74.3801)" fill="#0CBC18" font-family="'Helvetica-Light'" font-size="2.5374">Optional</text>
</g>
<g>
	<rect x="93.6" y="24.4" fill="#B5C0C9" width="1.9" height="2.4"/>
	<rect x="93.6" y="24.4" fill="none" width="1.9" height="2.4"/>
	
		<rect x="93.6" y="26.4" transform="matrix(0.9925 0.1219 -0.1219 0.9925 3.9288 -11.3254)" fill="#FFFFFF" width="1.9" height="0"/>
	
		<rect x="93.6" y="25.9" transform="matrix(0.9925 0.1219 -0.1219 0.9925 3.8589 -11.3297)" fill="#FFFFFF" width="1.9" height="0"/>
	<rect x="93.6" y="25.3" transform="matrix(0.9925 0.1219 -0.1219 0.9925 3.789 -11.334)" fill="#FFFFFF" width="1.9" height="0"/>
	
		<rect x="93.6" y="24.7" transform="matrix(0.9925 0.1219 -0.1219 0.9925 3.7192 -11.3383)" fill="#FFFFFF" width="1.9" height="0"/>
	<path fill="#B5C0C9" d="M93,23.4c-0.2,0-0.3,0.1-0.3,0.3v0.4c0,0.2,0.1,0.3,0.3,0.3h3.1c0.2,0,0.3-0.1,0.3-0.3v-0.4
		c0-0.2-0.1-0.3-0.3-0.3H93z"/>
	<path fill="#FFFFFF" d="M96.1,24.4H93c-0.2,0-0.3-0.2-0.3-0.3v-0.4c0-0.2,0.2-0.3,0.3-0.3h3.1c0.2,0,0.3,0.2,0.3,0.3v0.4
		C96.4,24.3,96.3,24.4,96.1,24.4z M93,23.4c-0.1,0-0.2,0.1-0.2,0.2v0.4c0,0.1,0.1,0.2,0.2,0.2h3.1c0.1,0,0.2-0.1,0.2-0.2v-0.4
		c0-0.1-0.1-0.2-0.2-0.2H93z"/>
	<rect x="90" y="15.6" fill="#B5C0C9" width="1.9" height="2.4"/>
	<rect x="90" y="15.6" fill="none" width="1.9" height="2.4"/>
	<rect x="90" y="15.9" transform="matrix(0.9925 -0.1219 0.1219 0.9925 -1.2606 11.2085)" fill="#FFFFFF" width="1.9" height="0"/>
	<rect x="90" y="16.5" transform="matrix(0.9925 -0.1219 0.1219 0.9925 -1.3305 11.2128)" fill="#FFFFFF" width="1.9" height="0"/>
	<rect x="90" y="17" transform="matrix(0.9925 -0.1219 0.1219 0.9925 -1.4004 11.2171)" fill="#FFFFFF" width="1.9" height="0"/>
	<rect x="90" y="17.6" transform="matrix(0.9925 -0.1219 0.1219 0.9925 -1.4703 11.2214)" fill="#FFFFFF" width="1.9" height="0"/>
	<path fill="#B5C0C9" d="M89.5,18.9c-0.2,0-0.3-0.1-0.3-0.3v-0.4c0-0.2,0.1-0.3,0.3-0.3h3.1c0.2,0,0.3,0.1,0.3,0.3v0.4
		c0,0.2-0.1,0.3-0.3,0.3H89.5z"/>
	<path fill="#FFFFFF" d="M92.5,19h-3.1c-0.2,0-0.3-0.2-0.3-0.3v-0.4c0-0.2,0.2-0.3,0.3-0.3h3.1c0.2,0,0.3,0.2,0.3,0.3v0.4
		C92.8,18.9,92.7,19,92.5,19z M89.5,18c-0.1,0-0.2,0.1-0.2,0.2v0.4c0,0.1,0.1,0.2,0.2,0.2h3.1c0.1,0,0.2-0.1,0.2-0.2v-0.4
		c0-0.1-0.1-0.2-0.2-0.2H89.5z"/>
	<rect x="86.3" y="24.4" fill="#B5C0C9" width="1.9" height="2.4"/>
	<rect x="86.3" y="24.4" fill="none" width="1.9" height="2.4"/>
	
		<rect x="86.3" y="26.4" transform="matrix(0.9925 0.1219 -0.1219 0.9925 3.8746 -10.4346)" fill="#FFFFFF" width="1.9" height="0"/>
	
		<rect x="86.3" y="25.9" transform="matrix(0.9925 0.1219 -0.1219 0.9925 3.8047 -10.4389)" fill="#FFFFFF" width="1.9" height="0"/>
	
		<rect x="86.3" y="25.3" transform="matrix(0.9925 0.1219 -0.1219 0.9925 3.7348 -10.4432)" fill="#FFFFFF" width="1.9" height="0"/>
	
		<rect x="86.3" y="24.7" transform="matrix(0.9925 0.1219 -0.1219 0.9925 3.6649 -10.4475)" fill="#FFFFFF" width="1.9" height="0"/>
	<path fill="#B5C0C9" d="M85.7,23.4c-0.2,0-0.3,0.1-0.3,0.3v0.4c0,0.2,0.1,0.3,0.3,0.3h3.1c0.2,0,0.3-0.1,0.3-0.3v-0.4
		c0-0.2-0.1-0.3-0.3-0.3H85.7z"/>
	<path fill="#FFFFFF" d="M88.8,24.4h-3.1c-0.2,0-0.3-0.2-0.3-0.3v-0.4c0-0.2,0.2-0.3,0.3-0.3h3.1c0.2,0,0.3,0.2,0.3,0.3v0.4
		C89.1,24.3,88.9,24.4,88.8,24.4z M85.7,23.4c-0.1,0-0.2,0.1-0.2,0.2v0.4c0,0.1,0.1,0.2,0.2,0.2h3.1c0.1,0,0.2-0.1,0.2-0.2v-0.4
		c0-0.1-0.1-0.2-0.2-0.2H85.7z"/>
	<rect x="85.1" y="18.5" fill="#B5C0C9" width="11.7" height="5.3"/>
	<path fill="#FFFFFF" d="M96.9,23.9H85.1v-5.5h11.8V23.9z M85.2,23.8h11.6v-5.2H85.2V23.8z"/>
	<path fill="#B5C0C9" d="M85.2,24c0.1,0,0.1,0,0.1-0.1v-5.3c0-0.1,0-0.1-0.1-0.1h-0.2c-0.1,0-0.1,0-0.1,0.1v5.3c0,0.1,0,0.1,0.1,0.1
		H85.2z"/>
	<path fill="#FFFFFF" d="M85.2,24h-0.2c-0.1,0-0.2-0.1-0.2-0.2v-5.3c0-0.1,0.1-0.2,0.2-0.2h0.2c0.1,0,0.2,0.1,0.2,0.2v5.3
		C85.3,23.9,85.3,24,85.2,24z M84.9,18.4C84.9,18.4,84.9,18.5,84.9,18.4l0,5.3c0,0,0,0,0,0h0.2c0,0,0,0,0,0v-5.3c0,0,0,0,0,0H84.9z"
		/>
	<path fill="#B5C0C9" d="M97,24c0.1,0,0.1,0,0.1-0.1v-5.3c0-0.1,0-0.1-0.1-0.1h-0.2c-0.1,0-0.1,0-0.1,0.1v5.3c0,0.1,0,0.1,0.1,0.1
		H97z"/>
	<path fill="#FFFFFF" d="M97,24h-0.2c-0.1,0-0.2-0.1-0.2-0.2v-5.3c0-0.1,0.1-0.2,0.2-0.2H97c0.1,0,0.2,0.1,0.2,0.2v5.3
		C97.2,23.9,97.1,24,97,24z M96.8,18.4C96.7,18.4,96.7,18.5,96.8,18.4l0,5.3c0,0,0,0,0,0H97c0,0,0,0,0,0v-5.3c0,0,0,0,0,0H96.8z"/>
</g>
<g>
	<g>
		<g>
			<g>
				<rect x="94" y="33.1" fill="#B5C0C9" width="1.1" height="1.4"/>
				<rect x="94" y="33.1" fill="none" stroke="#FFFFFF" stroke-width="0.25" stroke-miterlimit="10" width="1.1" height="1.4"/>
				<path fill="#B5C0C9" d="M95.5,35.2c0.1,0,0.2-0.1,0.2-0.2v-0.3c0-0.1-0.1-0.2-0.2-0.2h-1.9c-0.1,0-0.2,0.1-0.2,0.2V35
					c0,0.1,0.1,0.2,0.2,0.2H95.5z"/>
				<path fill="#FFFFFF" d="M95.5,35.2h-1.9c-0.1,0-0.2-0.1-0.2-0.2v-0.3c0-0.1,0.1-0.2,0.2-0.2h1.9c0.1,0,0.2,0.1,0.2,0.2V35
					C95.7,35.1,95.6,35.2,95.5,35.2z M93.6,34.6c-0.1,0-0.1,0-0.1,0.1V35c0,0.1,0,0.1,0.1,0.1h1.9c0.1,0,0.1,0,0.1-0.1v-0.3
					c0-0.1,0-0.1-0.1-0.1H93.6z"/>
			</g>
		</g>
		<g>
			<g>
				<rect x="86.5" y="33.1" fill="#B5C0C9" width="1.1" height="1.4"/>
				<rect x="86.5" y="33.1" fill="none" stroke="#FFFFFF" stroke-width="0.25" stroke-miterlimit="10" width="1.1" height="1.4"/>
				<path fill="#B5C0C9" d="M88,35.2c0.1,0,0.2-0.1,0.2-0.2v-0.3c0-0.1-0.1-0.2-0.2-0.2h-1.9c-0.1,0-0.2,0.1-0.2,0.2V35
					c0,0.1,0.1,0.2,0.2,0.2H88z"/>
				<path fill="#FFFFFF" d="M88,35.2h-1.9c-0.1,0-0.2-0.1-0.2-0.2v-0.3c0-0.1,0.1-0.2,0.2-0.2H88c0.1,0,0.2,0.1,0.2,0.2V35
					C88.2,35.1,88.1,35.2,88,35.2z M86.1,34.6c-0.1,0-0.1,0-0.1,0.1V35c0,0.1,0,0.1,0.1,0.1H88c0.1,0,0.1,0,0.1-0.1v-0.3
					c0-0.1,0-0.1-0.1-0.1H86.1z"/>
			</g>
		</g>
		<g>
			<g>
				<rect x="79" y="33.1" fill="#B5C0C9" width="1.1" height="1.4"/>
				<rect x="79" y="33.1" fill="none" stroke="#FFFFFF" stroke-width="0.25" stroke-miterlimit="10" width="1.1" height="1.4"/>
				<path fill="#B5C0C9" d="M80.4,35.2c0.1,0,0.2-0.1,0.2-0.2v-0.3c0-0.1-0.1-0.2-0.2-0.2h-1.9c-0.1,0-0.2,0.1-0.2,0.2V35
					c0,0.1,0.1,0.2,0.2,0.2H80.4z"/>
				<path fill="#FFFFFF" d="M80.4,35.2h-1.9c-0.1,0-0.2-0.1-0.2-0.2v-0.3c0-0.1,0.1-0.2,0.2-0.2h1.9c0.1,0,0.2,0.1,0.2,0.2V35
					C80.7,35.1,80.6,35.2,80.4,35.2z M78.6,34.6c-0.1,0-0.1,0-0.1,0.1V35c0,0.1,0,0.1,0.1,0.1h1.9c0.1,0,0.1,0,0.1-0.1v-0.3
					c0-0.1,0-0.1-0.1-0.1H78.6z"/>
			</g>
		</g>
		<g>
			<g>
				<rect x="71.4" y="33.1" fill="#B5C0C9" width="1.1" height="1.4"/>
				<rect x="71.4" y="33.1" fill="none" stroke="#FFFFFF" stroke-width="0.25" stroke-miterlimit="10" width="1.1" height="1.4"/>
				<path fill="#B5C0C9" d="M72.9,35.2c0.1,0,0.2-0.1,0.2-0.2v-0.3c0-0.1-0.1-0.2-0.2-0.2h-1.9c-0.1,0-0.2,0.1-0.2,0.2V35
					c0,0.1,0.1,0.2,0.2,0.2H72.9z"/>
				<path fill="#FFFFFF" d="M72.9,35.2h-1.9c-0.1,0-0.2-0.1-0.2-0.2v-0.3c0-0.1,0.1-0.2,0.2-0.2h1.9c0.1,0,0.2,0.1,0.2,0.2V35
					C73.1,35.1,73,35.2,72.9,35.2z M71.1,34.6c-0.1,0-0.1,0-0.1,0.1V35c0,0.1,0,0.1,0.1,0.1h1.9c0.1,0,0.1,0,0.1-0.1v-0.3
					c0-0.1,0-0.1-0.1-0.1H71.1z"/>
			</g>
		</g>
		<g>
			<g>
				<rect x="96.1" y="45.2" fill="#B5C0C9" width="1.1" height="1.4"/>
				<rect x="96.1" y="45.2" fill="none" stroke="#FFFFFF" stroke-width="0.25" stroke-miterlimit="10" width="1.1" height="1.4"/>
				<path fill="#B5C0C9" d="M97.6,44.6c0.1,0,0.2,0.1,0.2,0.2V45c0,0.1-0.1,0.2-0.2,0.2h-1.9c-0.1,0-0.2-0.1-0.2-0.2v-0.3
					c0-0.1,0.1-0.2,0.2-0.2H97.6z"/>
				<path fill="#FFFFFF" d="M97.8,44.7V45c0,0.1-0.1,0.2-0.2,0.2h-1.9c-0.1,0-0.2-0.1-0.2-0.2v-0.3c0-0.1,0.1-0.2,0.2-0.2h1.9
					C97.7,44.5,97.8,44.6,97.8,44.7z M97.6,45.1c0.1,0,0.1,0,0.1-0.1v-0.3c0-0.1,0-0.1-0.1-0.1h-1.9c-0.1,0-0.1,0-0.1,0.1V45
					c0,0.1,0,0.1,0.1,0.1H97.6z"/>
			</g>
			<g>
				<rect x="92.2" y="45.2" fill="#B5C0C9" width="1.1" height="1.4"/>
				<rect x="92.2" y="45.2" fill="none" stroke="#FFFFFF" stroke-width="0.25" stroke-miterlimit="10" width="1.1" height="1.4"/>
				<path fill="#B5C0C9" d="M93.7,44.6c0.1,0,0.2,0.1,0.2,0.2V45c0,0.1-0.1,0.2-0.2,0.2h-1.9c-0.1,0-0.2-0.1-0.2-0.2v-0.3
					c0-0.1,0.1-0.2,0.2-0.2H93.7z"/>
				<path fill="#FFFFFF" d="M93.9,44.7V45c0,0.1-0.1,0.2-0.2,0.2h-1.9c-0.1,0-0.2-0.1-0.2-0.2v-0.3c0-0.1,0.1-0.2,0.2-0.2h1.9
					C93.8,44.5,93.9,44.6,93.9,44.7z M93.7,45.1c0.1,0,0.1,0,0.1-0.1v-0.3c0-0.1,0-0.1-0.1-0.1h-1.9c-0.1,0-0.1,0-0.1,0.1V45
					c0,0.1,0,0.1,0.1,0.1H93.7z"/>
			</g>
			<g>
				<rect x="88.3" y="45.2" fill="#B5C0C9" width="1.1" height="1.4"/>
				<rect x="88.3" y="45.2" fill="none" stroke="#FFFFFF" stroke-width="0.25" stroke-miterlimit="10" width="1.1" height="1.4"/>
				<path fill="#B5C0C9" d="M89.8,44.6c0.1,0,0.2,0.1,0.2,0.2V45c0,0.1-0.1,0.2-0.2,0.2h-1.9c-0.1,0-0.2-0.1-0.2-0.2v-0.3
					c0-0.1,0.1-0.2,0.2-0.2H89.8z"/>
				<path fill="#FFFFFF" d="M90.1,44.7V45c0,0.1-0.1,0.2-0.2,0.2H88c-0.1,0-0.2-0.1-0.2-0.2v-0.3c0-0.1,0.1-0.2,0.2-0.2h1.9
					C89.9,44.5,90.1,44.6,90.1,44.7z M89.8,45.1c0.1,0,0.1,0,0.1-0.1v-0.3c0-0.1,0-0.1-0.1-0.1h-1.9c-0.1,0-0.1,0-0.1,0.1V45
					c0,0.1,0,0.1,0.1,0.1H89.8z"/>
			</g>
			<g>
				<rect x="84.5" y="45.2" fill="#B5C0C9" width="1.1" height="1.4"/>
				<rect x="84.5" y="45.2" fill="none" stroke="#FFFFFF" stroke-width="0.25" stroke-miterlimit="10" width="1.1" height="1.4"/>
				<path fill="#B5C0C9" d="M86,44.6c0.1,0,0.2,0.1,0.2,0.2V45c0,0.1-0.1,0.2-0.2,0.2h-1.9c-0.1,0-0.2-0.1-0.2-0.2v-0.3
					c0-0.1,0.1-0.2,0.2-0.2H86z"/>
				<path fill="#FFFFFF" d="M86.2,44.7V45c0,0.1-0.1,0.2-0.2,0.2h-1.9c-0.1,0-0.2-0.1-0.2-0.2v-0.3c0-0.1,0.1-0.2,0.2-0.2H86
					C86.1,44.5,86.2,44.6,86.2,44.7z M86,45.1c0.1,0,0.1,0,0.1-0.1v-0.3c0-0.1,0-0.1-0.1-0.1h-1.9c-0.1,0-0.1,0-0.1,0.1V45
					c0,0.1,0,0.1,0.1,0.1H86z"/>
			</g>
			<g>
				<rect x="80.6" y="45.2" fill="#B5C0C9" width="1.1" height="1.4"/>
				<rect x="80.6" y="45.2" fill="none" stroke="#FFFFFF" stroke-width="0.25" stroke-miterlimit="10" width="1.1" height="1.4"/>
				<path fill="#B5C0C9" d="M82.1,44.6c0.1,0,0.2,0.1,0.2,0.2V45c0,0.1-0.1,0.2-0.2,0.2h-1.9c-0.1,0-0.2-0.1-0.2-0.2v-0.3
					c0-0.1,0.1-0.2,0.2-0.2H82.1z"/>
				<path fill="#FFFFFF" d="M82.3,44.7V45c0,0.1-0.1,0.2-0.2,0.2h-1.9c-0.1,0-0.2-0.1-0.2-0.2v-0.3c0-0.1,0.1-0.2,0.2-0.2h1.9
					C82.2,44.5,82.3,44.6,82.3,44.7z M82.1,45.1c0.1,0,0.1,0,0.1-0.1v-0.3c0-0.1,0-0.1-0.1-0.1h-1.9c-0.1,0-0.1,0-0.1,0.1V45
					c0,0.1,0,0.1,0.1,0.1H82.1z"/>
			</g>
			<g>
				<rect x="76.7" y="45.2" fill="#B5C0C9" width="1.1" height="1.4"/>
				<rect x="76.7" y="45.2" fill="none" stroke="#FFFFFF" stroke-width="0.25" stroke-miterlimit="10" width="1.1" height="1.4"/>
				<path fill="#B5C0C9" d="M78.2,44.6c0.1,0,0.2,0.1,0.2,0.2V45c0,0.1-0.1,0.2-0.2,0.2h-1.9c-0.1,0-0.2-0.1-0.2-0.2v-0.3
					c0-0.1,0.1-0.2,0.2-0.2H78.2z"/>
				<path fill="#FFFFFF" d="M78.4,44.7V45c0,0.1-0.1,0.2-0.2,0.2h-1.9c-0.1,0-0.2-0.1-0.2-0.2v-0.3c0-0.1,0.1-0.2,0.2-0.2h1.9
					C78.3,44.5,78.4,44.6,78.4,44.7z M78.2,45.1c0.1,0,0.1,0,0.1-0.1v-0.3c0-0.1,0-0.1-0.1-0.1h-1.9c-0.1,0-0.1,0-0.1,0.1V45
					c0,0.1,0,0.1,0.1,0.1H78.2z"/>
			</g>
			<g>
				<rect x="72.9" y="45.2" fill="#B5C0C9" width="1.1" height="1.4"/>
				<rect x="72.9" y="45.2" fill="none" stroke="#FFFFFF" stroke-width="0.25" stroke-miterlimit="10" width="1.1" height="1.4"/>
				<path fill="#B5C0C9" d="M74.3,44.6c0.1,0,0.2,0.1,0.2,0.2V45c0,0.1-0.1,0.2-0.2,0.2h-1.9c-0.1,0-0.2-0.1-0.2-0.2v-0.3
					c0-0.1,0.1-0.2,0.2-0.2H74.3z"/>
				<path fill="#FFFFFF" d="M74.5,44.7V45c0,0.1-0.1,0.2-0.2,0.2h-1.9c-0.1,0-0.2-0.1-0.2-0.2v-0.3c0-0.1,0.1-0.2,0.2-0.2h1.9
					C74.5,44.5,74.5,44.6,74.5,44.7z M74.3,45.1c0.1,0,0.1,0,0.1-0.1v-0.3c0-0.1,0-0.1-0.1-0.1h-1.9c-0.1,0-0.1,0-0.1,0.1V45
					c0,0.1,0,0.1,0.1,0.1H74.3z"/>
			</g>
			<g>
				<rect x="69" y="45.2" fill="#B5C0C9" width="1.1" height="1.4"/>
				<rect x="69" y="45.2" fill="none" stroke="#FFFFFF" stroke-width="0.25" stroke-miterlimit="10" width="1.1" height="1.4"/>
				<path fill="#B5C0C9" d="M70.4,44.6c0.1,0,0.2,0.1,0.2,0.2V45c0,0.1-0.1,0.2-0.2,0.2h-1.9c-0.1,0-0.2-0.1-0.2-0.2v-0.3
					c0-0.1,0.1-0.2,0.2-0.2H70.4z"/>
				<path fill="#FFFFFF" d="M70.7,44.7V45c0,0.1-0.1,0.2-0.2,0.2h-1.9c-0.1,0-0.2-0.1-0.2-0.2v-0.3c0-0.1,0.1-0.2,0.2-0.2h1.9
					C70.6,44.5,70.7,44.6,70.7,44.7z M70.4,45.1c0.1,0,0.1,0,0.1-0.1v-0.3c0-0.1,0-0.1-0.1-0.1h-1.9c-0.1,0-0.1,0-0.1,0.1V45
					c0,0.1,0,0.1,0.1,0.1H70.4z"/>
			</g>
		</g>
		<rect x="67.2" y="35" fill="#B5C0C9" width="32.1" height="9.9"/>
		<path fill="#FFFFFF" d="M99.4,44.9H67.2V35h32.2V44.9z M67.2,44.8h32V35h-32V44.8z"/>
		<path fill="#B5C0C9" d="M99.1,45c-0.1,0-0.2-0.1-0.2-0.2V35c0-0.1,0.1-0.2,0.2-0.2h0.5c0.1,0,0.2,0.1,0.2,0.2v9.8
			c0,0.1-0.1,0.2-0.2,0.2H99.1z"/>
		<path fill="#FFFFFF" d="M99.6,45.1h-0.5c-0.1,0-0.3-0.1-0.3-0.3V35c0-0.1,0.1-0.3,0.3-0.3h0.5c0.1,0,0.3,0.1,0.3,0.3v9.8
			C99.8,44.9,99.7,45.1,99.6,45.1z M99.1,34.8c-0.1,0-0.2,0.1-0.2,0.2v9.8c0,0.1,0.1,0.2,0.2,0.2h0.5c0.1,0,0.2-0.1,0.2-0.2V35
			c0-0.1-0.1-0.2-0.2-0.2H99.1z"/>
		<path fill="#B5C0C9" d="M66.7,45c-0.1,0-0.2-0.1-0.2-0.2V35c0-0.1,0.1-0.2,0.2-0.2h0.5c0.1,0,0.2,0.1,0.2,0.2v9.8
			c0,0.1-0.1,0.2-0.2,0.2H66.7z"/>
		<path fill="#FFFFFF" d="M67.2,45.1h-0.5c-0.1,0-0.3-0.1-0.3-0.3V35c0-0.1,0.1-0.3,0.3-0.3h0.5c0.1,0,0.3,0.1,0.3,0.3v9.8
			C67.5,44.9,67.4,45.1,67.2,45.1z M66.7,34.8c-0.1,0-0.2,0.1-0.2,0.2v9.8c0,0.1,0.1,0.2,0.2,0.2h0.5c0.1,0,0.2-0.1,0.2-0.2V35
			c0-0.1-0.1-0.2-0.2-0.2H66.7z"/>
	</g>
	<rect x="66.5" y="38.4" fill="none" width="33.2" height="4.4"/>
	<text transform="matrix(1 0 0 1 72.6316 41.4103)" fill="#0F1F30" font-family="'Helvetica-Light'" font-size="4.2291">Multiswitch</text>
</g>
</svg>
