<?xml version="1.0" encoding="utf-8"?>
<!-- Generator: Adobe Illustrator 17.1.0, SVG Export Plug-In . SVG Version: 6.00 Build 0)  -->
<!DOCTYPE svg PUBLIC "-//W3C//DTD SVG 1.1//EN" "http://www.w3.org/Graphics/SVG/1.1/DTD/svg11.dtd">
<svg version="1.1" id="Layer_1" xmlns="http://www.w3.org/2000/svg" xmlns:xlink="http://www.w3.org/1999/xlink" x="0px" y="0px"
	 viewBox="0 0 104 90" enable-background="new 0 0 104 90" xml:space="preserve">
<g>
	<line fill="none" x1="65.5" y1="21.2" x2="65.5" y2="34.9"/>
	<rect x="65.2" y="21.2" fill="#FFFFFF" width="0.7" height="13.7"/>
</g>
<g>
	<line fill="none" x1="27.6" y1="43.1" x2="27.6" y2="55.6"/>
	<rect x="27.3" y="43.1" fill="#FFFFFF" width="0.7" height="12.5"/>
</g>
<g>
	<line fill="none" x1="62" y1="32.8" x2="62" y2="43.7"/>
	<rect x="61.7" y="32.8" fill="#FFFFFF" width="0.7" height="10.9"/>
</g>
<g>
	<line fill="none" x1="69.2" y1="32.8" x2="69.2" y2="49.2"/>
	<rect x="68.8" y="32.8" fill="#FFFFFF" width="0.7" height="16.4"/>
</g>
<g>
	<line fill="none" x1="62.3" y1="43.4" x2="27.3" y2="43.4"/>
	<rect x="27.3" y="43.1" fill="#FFFFFF" width="35" height="0.7"/>
</g>
<g>
	<line fill="none" x1="78.2" y1="58.6" x2="78.2" y2="73.2"/>
	<rect x="77.9" y="58.6" fill="#FFFFFF" width="0.7" height="14.6"/>
</g>
<g>
	<line fill="none" x1="78.5" y1="72.9" x2="43.4" y2="72.9"/>
	<rect x="43.4" y="72.5" fill="#FFFFFF" width="35" height="0.7"/>
</g>
<g>
	<line fill="none" x1="87.4" y1="54.4" x2="87.4" y2="86.6"/>
	<rect x="87.1" y="54.4" fill="#FFFFFF" width="0.7" height="32.2"/>
</g>
<g>
	<line fill="none" x1="87.7" y1="86.3" x2="52.6" y2="86.3"/>
	<rect x="52.6" y="85.9" fill="#FFFFFF" width="35" height="0.7"/>
</g>
<line fill="none" x1="35.9" y1="20.8" x2="67.7" y2="20.8"/>
<rect x="35.9" y="20.5" fill="#FFFFFF" width="31.8" height="0.7"/>
<g>
	<g>
		<path fill="#FFFFFF" d="M32.7,30.2H11.1l0,0c-0.1,0-2.4-0.9-3.4-3.3l0,0v-2.6l0.4-12.2l0,0c1-5,3.5-8.5,7.5-10.5
			c3-1.5,5.9-1.6,6.2-1.6l0,0c0,0,0.1,0,0.3,0C24,0,33.5,0.6,35.8,12l0,0l0.4,12.2v2.6l0,0c-0.6,1.4-1.5,2.2-2.1,2.7
			C33.2,30,32.7,30.1,32.7,30.2L32.7,30.2z M11.1,29.8h21.5c0.2,0,2.1-0.6,3.1-3v-2.5l-0.5-12.2C33.1,0.9,23.8,0.4,22,0.4
			c-0.2,0-0.2,0-0.3,0l0,0l0,0c-0.3,0-3.1,0-6.1,1.5c-3.8,2-6.3,5.4-7.3,10.2L8,24.3v2.5C8.8,28.9,10.9,29.7,11.1,29.8z"/>
	</g>
	<g>
		<path fill="#2C3B47" d="M7.8,24.4v2.5c0.8,2.2,3.3,3.1,3.3,3.1h21.6c2.1-0.4,3.2-3.1,3.2-3.1v-2.5H7.8z"/>
	</g>
	<g>
		<path d="M35.9,26.8H7.8l0,0l0,0H35.9C36,26.8,36,26.8,35.9,26.8C36,26.8,36,26.8,35.9,26.8z"/>
	</g>
	<g>
		<path d="M35.9,26.9H7.8l0,0v-2.5l0,0h28.1l0,0V26.9C36,26.9,36,26.9,35.9,26.9z M7.8,26.8h28.1v-2.4H7.8V26.8z"/>
	</g>
	<g>
		<path d="M32.7,30H11.1l0,0c0,0-2.6-0.9-3.3-3.1l0,0l0,0H36l0,0l0,0C36,26.9,34.8,29.6,32.7,30L32.7,30z M11.1,29.9h21.6
			c1.9-0.4,3-2.7,3.1-3h-28C8.7,29,11,29.9,11.1,29.9z"/>
	</g>
	<g>
		<path fill="#FFFFFF" d="M35.9,27H7.8c-0.1,0-0.2-0.1-0.2-0.2s0.1-0.2,0.2-0.2h28.1c0.1,0,0.2,0.1,0.2,0.2C36.1,26.9,36,27,35.9,27
			z"/>
	</g>
	<g>
		<path fill="#FFFFFF" d="M35.9,24.5H7.8c-0.1,0-0.2-0.1-0.2-0.2s0.1-0.2,0.2-0.2h28.1c0.1,0,0.2,0.1,0.2,0.2
			C36.1,24.4,36,24.5,35.9,24.5z"/>
	</g>
	<g>
		<path fill="#FFFFFF" d="M32.6,30.2H11.1c0,0,0,0-0.1,0s-2.4-0.9-3.4-3.3c0,0,0,0,0-0.1v-2.5L8,12.1l0,0c1-5,3.5-8.5,7.5-10.5
			c3-1.5,5.9-1.6,6.2-1.6l0,0c0,0,0.1,0,0.3,0c1.9,0,11.4,0.6,13.7,12l0,0l0.4,12.2v2.5c0,0,0,0,0,0.1c-0.6,1.4-1.5,2.2-2.1,2.7
			C33.3,30.1,32.7,30.2,32.6,30.2C32.7,30.2,32.6,30.2,32.6,30.2z M11.1,29.8h21.5c0.2,0,2.1-0.6,3.1-3v-2.5l-0.5-12.2
			C33.1,0.9,23.8,0.4,22,0.4c-0.2,0-0.2,0-0.3,0l0,0l0,0c-0.3,0-3.1,0-6.1,1.5c-3.8,2-6.3,5.4-7.3,10.2L8,24.3v2.5
			C8.8,28.9,10.9,29.7,11.1,29.8z"/>
	</g>
</g>
<g>
	<g>
		<path fill="#FFFFFF" d="M85.7,15.4L85.5,2c0,0,0-0.9-0.8-0.9l0,0c-0.8,0-0.8,0.9-0.8,0.9l-0.2,13.4H85.7z"/>
	</g>
	<g>
		<path fill="#2C3B47" d="M71.2,23.6h24.1v-6.7c0,0,0.2-0.9-2.6-1.1c0,0-8.5-0.9-21.4-1.1h-0.2c-12.9,0.2-21.4,1.1-21.4,1.1
			c-2.8,0.2-2.6,1.1-2.6,1.1v6.7L71.2,23.6L71.2,23.6z"/>
		<path fill="#FFFFFF" d="M95.5,23.8H46.9V17c0-0.1,0-0.2,0.2-0.5c0.4-0.5,1.3-0.8,2.6-0.9c0.1,0,8.7-0.9,21.4-1.1h0.2
			c12.8,0.2,21.4,1.1,21.5,1.1c1.4,0.1,2.3,0.4,2.6,0.9c0.2,0.2,0.2,0.4,0.2,0.5L95.5,23.8L95.5,23.8z M47.3,23.3h47.8v-6.5l0,0
			c0,0-0.1-0.7-2.4-0.9c-0.1,0-8.7-0.9-21.4-1.1h-0.2C58.4,15,49.8,15.9,49.7,16c-2.4,0.2-2.4,0.9-2.4,0.9l0,0l0,0V23.3L47.3,23.3z"
			/>
	</g>
	<g>
		<path fill="#808080" d="M69.1,17.8c0,0.3-0.2,0.5-0.5,0.5l0,0c-0.3,0-0.5-0.2-0.5-0.5V15H69L69.1,17.8L69.1,17.8z"/>
		<path fill="#FFFFFF" d="M68.7,18.4c-0.3,0-0.6-0.2-0.6-0.6V15c0,0,0-0.1,0.1-0.1h0.9c0,0,0.1,0,0.1,0.1v2.9
			C69.2,18.1,69,18.4,68.7,18.4z M68.3,15v2.8c0,0.2,0.2,0.4,0.4,0.4c0.2,0,0.4-0.2,0.4-0.4V15H68.3z"/>
	</g>
	<g>
		<path fill="#808080" d="M71.7,17.8c0,0.3-0.2,0.5-0.5,0.5l0,0c-0.3,0-0.5-0.2-0.5-0.5v-3h0.9L71.7,17.8L71.7,17.8z"/>
		<path fill="#FFFFFF" d="M71.2,18.4c-0.3,0-0.6-0.2-0.6-0.6v-3c0,0,0-0.1,0.1-0.1h0.9c0,0,0.1,0,0.1,0.1v3
			C71.8,18.1,71.5,18.4,71.2,18.4z M70.8,15v2.9c0,0.2,0.2,0.4,0.4,0.4c0.2,0,0.4-0.2,0.4-0.4V15H70.8z"/>
	</g>
	<g>
		<path fill="#808080" d="M74.3,17.8c0,0.3-0.2,0.5-0.5,0.5l0,0c-0.3,0-0.5-0.2-0.5-0.5v-3h0.9L74.3,17.8L74.3,17.8z"/>
		<path fill="#FFFFFF" d="M73.8,18.4c-0.3,0-0.6-0.2-0.6-0.6v-3c0,0,0-0.1,0.1-0.1h0.9c0,0,0.1,0,0.1,0.1v3
			C74.3,18.1,74.1,18.4,73.8,18.4z M73.4,15v2.9c0,0.2,0.2,0.4,0.4,0.4c0.2,0,0.4-0.2,0.4-0.4V15H73.4z"/>
	</g>
</g>
<g>
	<g>
		<g>
			<g id="XMLID_318_">
				<g>
					<rect x="95.9" y="47.5" fill="#3C4855" width="1.4" height="1.7"/>
				</g>
				<g>
					<rect x="95.9" y="47.5" fill="none" stroke="#FFFFFF" stroke-width="0.25" stroke-miterlimit="10" width="1.4" height="1.7"/>
				</g>
			</g>
			<g>
				<polygon fill="#FFFFFF" points="97.2,47.8 95.9,47.6 95.9,47.6 				"/>
			</g>
			<g>
				<polygon fill="#FFFFFF" points="97.2,48.2 95.9,48 95.9,48 				"/>
			</g>
			<g>
				<polygon fill="#FFFFFF" points="97.2,48.6 95.9,48.5 95.9,48.5 				"/>
			</g>
			<g>
				<polygon fill="#FFFFFF" points="97.2,49 95.9,48.9 95.9,48.9 				"/>
			</g>
			<g>
				<polygon fill="#FFFFFF" points="97.4,47.6 95.9,47.5 95.9,47.5 				"/>
			</g>
			<path fill="#3C4855" stroke="#FFFFFF" stroke-width="0.25" stroke-miterlimit="10" d="M97.7,49.9c0.1,0,0.2-0.1,0.2-0.2v-0.3
				c0-0.1-0.1-0.2-0.2-0.2h-2.2c-0.1,0-0.2,0.1-0.2,0.2v0.3c0,0.1,0.1,0.2,0.2,0.2H97.7z"/>
		</g>
		<g>
			<g id="XMLID_317_">
				<g>
					<rect x="91.3" y="47.5" fill="#3C4855" width="1.4" height="1.7"/>
				</g>
				<g>
					<rect x="91.3" y="47.5" fill="none" stroke="#FFFFFF" stroke-width="0.25" stroke-miterlimit="10" width="1.4" height="1.7"/>
				</g>
			</g>
			<g>
				<polygon fill="#FFFFFF" points="92.7,47.8 91.4,47.6 91.4,47.6 				"/>
			</g>
			<g>
				<polygon fill="#FFFFFF" points="92.7,48.2 91.4,48 91.4,48 				"/>
			</g>
			<g>
				<polygon fill="#FFFFFF" points="92.7,48.7 91.4,48.5 91.4,48.5 				"/>
			</g>
			<g>
				<polygon fill="#FFFFFF" points="92.7,49 91.4,48.9 91.4,48.9 				"/>
			</g>
			<g>
				<polygon fill="#FFFFFF" points="92.7,47.6 91.2,47.5 91.2,47.5 				"/>
			</g>
			<path fill="#3C4855" stroke="#FFFFFF" stroke-width="0.25" stroke-miterlimit="10" d="M93.1,49.9c0.1,0,0.2-0.1,0.2-0.2v-0.3
				c0-0.1-0.1-0.2-0.2-0.2h-2.2c-0.1,0-0.2,0.1-0.2,0.2v0.3c0,0.1,0.1,0.2,0.2,0.2H93.1z"/>
		</g>
		<g>
			<g id="XMLID_316_">
				<g>
					<rect x="86.8" y="47.5" fill="#3C4855" width="1.4" height="1.7"/>
				</g>
				<g>
					<rect x="86.8" y="47.5" fill="none" stroke="#FFFFFF" stroke-width="0.25" stroke-miterlimit="10" width="1.4" height="1.7"/>
				</g>
			</g>
			<g>
				<polygon fill="#FFFFFF" points="88.1,47.8 86.8,47.6 86.8,47.6 				"/>
			</g>
			<g>
				<polygon fill="#FFFFFF" points="88.1,48.2 86.8,48 86.8,48 				"/>
			</g>
			<g>
				<polygon fill="#FFFFFF" points="88.1,48.7 86.8,48.5 86.8,48.5 				"/>
			</g>
			<g>
				<polygon fill="#FFFFFF" points="88.1,49 86.8,48.9 86.8,48.9 				"/>
			</g>
			<g>
				<polygon fill="#FFFFFF" points="88.2,47.6 86.7,47.5 86.7,47.5 				"/>
			</g>
			<path fill="#3C4855" stroke="#FFFFFF" stroke-width="0.25" stroke-miterlimit="10" d="M88.5,49.9c0.1,0,0.2-0.1,0.2-0.2v-0.3
				c0-0.1-0.1-0.2-0.2-0.2h-2.2c-0.1,0-0.2,0.1-0.2,0.2v0.3c0,0.1,0.1,0.2,0.2,0.2H88.5z"/>
		</g>
		<g>
			<g id="XMLID_315_">
				<g>
					<rect x="82.2" y="47.5" fill="#3C4855" width="1.4" height="1.7"/>
				</g>
				<g>
					<rect x="82.2" y="47.5" fill="none" stroke="#FFFFFF" stroke-width="0.25" stroke-miterlimit="10" width="1.4" height="1.7"/>
				</g>
			</g>
			<g>
				<polygon fill="#FFFFFF" points="83.5,47.8 82.2,47.6 82.2,47.6 				"/>
			</g>
			<g>
				<polygon fill="#FFFFFF" points="83.5,48.2 82.3,48 82.3,48 				"/>
			</g>
			<g>
				<polygon fill="#FFFFFF" points="83.5,48.7 82.2,48.5 82.2,48.5 				"/>
			</g>
			<g>
				<polygon fill="#FFFFFF" points="83.5,49 82.2,48.9 82.2,48.9 				"/>
			</g>
			<g>
				<polygon fill="#FFFFFF" points="83.7,47.6 82.2,47.5 82.2,47.5 				"/>
			</g>
			<path fill="#3C4855" stroke="#FFFFFF" stroke-width="0.25" stroke-miterlimit="10" d="M84,49.9c0.1,0,0.2-0.1,0.2-0.2v-0.3
				c0-0.1-0.1-0.2-0.2-0.2h-2.2c-0.1,0-0.2,0.1-0.2,0.2v0.3c0,0.1,0.1,0.2,0.2,0.2H84z"/>
		</g>
		<g>
			<g id="XMLID_314_">
				<g>
					<rect x="77.6" y="47.5" fill="#3C4855" width="1.4" height="1.7"/>
				</g>
				<g>
					<rect x="77.6" y="47.5" fill="none" stroke="#FFFFFF" stroke-width="0.25" stroke-miterlimit="10" width="1.4" height="1.7"/>
				</g>
			</g>
			<g>
				<polygon fill="#FFFFFF" points="79,47.8 77.7,47.7 77.7,47.7 				"/>
			</g>
			<g>
				<polygon fill="#FFFFFF" points="79,48.2 77.7,48 77.7,48 				"/>
			</g>
			<g>
				<polygon fill="#FFFFFF" points="79,48.7 77.7,48.5 77.7,48.5 				"/>
			</g>
			<g>
				<polygon fill="#FFFFFF" points="79,49.1 77.7,48.9 77.7,48.9 				"/>
			</g>
			<g>
				<polygon fill="#FFFFFF" points="79.1,47.6 77.6,47.5 77.6,47.5 				"/>
			</g>
			<path fill="#3C4855" stroke="#FFFFFF" stroke-width="0.25" stroke-miterlimit="10" d="M79.4,49.9c0.1,0,0.2-0.1,0.2-0.2v-0.3
				c0-0.1-0.1-0.2-0.2-0.2h-2.2c-0.1,0-0.2,0.1-0.2,0.2v0.3c0,0.1,0.1,0.2,0.2,0.2H79.4z"/>
		</g>
		<g>
			<g id="XMLID_313_">
				<g>
					<rect x="73" y="47.5" fill="#3C4855" width="1.4" height="1.7"/>
				</g>
				<g>
					<rect x="73" y="47.5" fill="none" stroke="#FFFFFF" stroke-width="0.25" stroke-miterlimit="10" width="1.4" height="1.7"/>
				</g>
			</g>
			<g>
				<polygon fill="#FFFFFF" points="74.4,47.8 73.1,47.6 73.1,47.6 				"/>
			</g>
			<g>
				<polygon fill="#FFFFFF" points="74.4,48.2 73.1,48 73.1,48 				"/>
			</g>
			<g>
				<polygon fill="#FFFFFF" points="74.4,48.7 73.1,48.5 73.1,48.5 				"/>
			</g>
			<g>
				<polygon fill="#FFFFFF" points="74.4,49 73.1,48.9 73.1,48.9 				"/>
			</g>
			<g>
				<polygon fill="#FFFFFF" points="74.4,47.6 72.9,47.5 72.9,47.5 				"/>
			</g>
			<path fill="#3C4855" stroke="#FFFFFF" stroke-width="0.25" stroke-miterlimit="10" d="M74.8,49.9c0.1,0,0.2-0.1,0.2-0.2v-0.3
				c0-0.1-0.1-0.2-0.2-0.2h-2.2c-0.1,0-0.2,0.1-0.2,0.2v0.3c0,0.1,0.1,0.2,0.2,0.2H74.8z"/>
		</g>
		<g>
			<g id="XMLID_312_">
				<g>
					<rect x="68.5" y="47.5" fill="#3C4855" width="1.4" height="1.7"/>
				</g>
				<g>
					<rect x="68.5" y="47.5" fill="none" stroke="#FFFFFF" stroke-width="0.25" stroke-miterlimit="10" width="1.4" height="1.7"/>
				</g>
			</g>
			<g>
				<polygon fill="#FFFFFF" points="69.8,47.8 68.5,47.6 68.5,47.6 				"/>
			</g>
			<g>
				<polygon fill="#FFFFFF" points="69.8,48.2 68.5,48 68.5,48 				"/>
			</g>
			<g>
				<polygon fill="#FFFFFF" points="69.8,48.6 68.5,48.5 68.5,48.5 				"/>
			</g>
			<g>
				<polygon fill="#FFFFFF" points="69.8,49 68.5,48.9 68.5,48.9 				"/>
			</g>
			<g>
				<polygon fill="#FFFFFF" points="69.9,47.6 68.4,47.5 68.4,47.5 				"/>
			</g>
			<path fill="#3C4855" stroke="#FFFFFF" stroke-width="0.25" stroke-miterlimit="10" d="M70.2,49.9c0.1,0,0.2-0.1,0.2-0.2v-0.3
				c0-0.1-0.1-0.2-0.2-0.2H68c-0.1,0-0.2,0.1-0.2,0.2v0.3c0,0.1,0.1,0.2,0.2,0.2H70.2z"/>
		</g>
		<g>
			<g id="XMLID_311_">
				<g>
					<rect x="63.9" y="47.5" fill="#3C4855" width="1.4" height="1.7"/>
				</g>
				<g>
					<rect x="63.9" y="47.5" fill="none" stroke="#FFFFFF" stroke-width="0.25" stroke-miterlimit="10" width="1.4" height="1.7"/>
				</g>
			</g>
			<g>
				<polygon fill="#FFFFFF" points="65.2,47.8 63.9,47.6 63.9,47.6 				"/>
			</g>
			<g>
				<polygon fill="#FFFFFF" points="65.2,48.2 64,48 64,48 				"/>
			</g>
			<g>
				<polygon fill="#FFFFFF" points="65.2,48.7 63.9,48.5 63.9,48.5 				"/>
			</g>
			<g>
				<polygon fill="#FFFFFF" points="65.2,49 64,48.9 64,48.9 				"/>
			</g>
			<g>
				<polygon fill="#FFFFFF" points="65.4,47.6 63.9,47.5 63.9,47.5 				"/>
			</g>
			<path fill="#3C4855" stroke="#FFFFFF" stroke-width="0.25" stroke-miterlimit="10" d="M65.7,49.9c0.1,0,0.2-0.1,0.2-0.2v-0.3
				c0-0.1-0.1-0.2-0.2-0.2h-2.2c-0.1,0-0.2,0.1-0.2,0.2v0.3c0,0.1,0.1,0.2,0.2,0.2H65.7z"/>
		</g>
	</g>
	<g>
		<g>
			<g id="XMLID_310_">
				<g>
					<rect x="95.9" y="61.9" fill="#3C4855" width="1.4" height="1.7"/>
				</g>
				<g>
					<rect x="95.9" y="61.9" fill="none" stroke="#FFFFFF" stroke-width="0.25" stroke-miterlimit="10" width="1.4" height="1.7"/>
				</g>
			</g>
			<g>
				<polygon fill="#FFFFFF" points="97.2,63.4 95.9,63.5 95.9,63.5 				"/>
			</g>
			<g>
				<polygon fill="#FFFFFF" points="97.2,62.9 95.9,63.1 95.9,63.1 				"/>
			</g>
			<g>
				<polygon fill="#FFFFFF" points="97.2,62.5 95.9,62.7 95.9,62.7 				"/>
			</g>
			<g>
				<polygon fill="#FFFFFF" points="97.2,62.1 95.9,62.3 95.9,62.3 				"/>
			</g>
			<g>
				<polygon fill="#FFFFFF" points="97.4,63.6 95.9,63.6 95.9,63.6 				"/>
			</g>
			<path fill="#3C4855" stroke="#FFFFFF" stroke-width="0.25" stroke-miterlimit="10" d="M97.7,61.2c0.1,0,0.2,0.1,0.2,0.2v0.3
				c0,0.1-0.1,0.2-0.2,0.2h-2.2c-0.1,0-0.2-0.1-0.2-0.2v-0.3c0-0.1,0.1-0.2,0.2-0.2H97.7z"/>
		</g>
		<g>
			<g id="XMLID_309_">
				<g>
					<rect x="91.3" y="61.9" fill="#3C4855" width="1.4" height="1.7"/>
				</g>
				<g>
					<rect x="91.3" y="61.9" fill="none" stroke="#FFFFFF" stroke-width="0.25" stroke-miterlimit="10" width="1.4" height="1.7"/>
				</g>
			</g>
			<g>
				<polygon fill="#FFFFFF" points="92.7,63.4 91.4,63.5 91.4,63.5 				"/>
			</g>
			<g>
				<polygon fill="#FFFFFF" points="92.7,62.9 91.4,63.1 91.4,63.1 				"/>
			</g>
			<g>
				<polygon fill="#FFFFFF" points="92.7,62.5 91.4,62.7 91.4,62.7 				"/>
			</g>
			<g>
				<polygon fill="#FFFFFF" points="92.7,62.1 91.4,62.3 91.4,62.3 				"/>
			</g>
			<g>
				<polygon fill="#FFFFFF" points="92.7,63.6 91.2,63.6 91.2,63.6 				"/>
			</g>
			<path fill="#3C4855" stroke="#FFFFFF" stroke-width="0.25" stroke-miterlimit="10" d="M93.1,61.2c0.1,0,0.2,0.1,0.2,0.2v0.3
				c0,0.1-0.1,0.2-0.2,0.2h-2.2c-0.1,0-0.2-0.1-0.2-0.2v-0.3c0-0.1,0.1-0.2,0.2-0.2H93.1z"/>
		</g>
		<g>
			<g id="XMLID_308_">
				<g>
					<rect x="86.8" y="61.9" fill="#3C4855" width="1.4" height="1.7"/>
				</g>
				<g>
					<rect x="86.8" y="61.9" fill="none" stroke="#FFFFFF" stroke-width="0.25" stroke-miterlimit="10" width="1.4" height="1.7"/>
				</g>
			</g>
			<g>
				<polygon fill="#FFFFFF" points="88.1,63.4 86.8,63.5 86.8,63.5 				"/>
			</g>
			<g>
				<polygon fill="#FFFFFF" points="88.1,62.9 86.8,63.1 86.8,63.1 				"/>
			</g>
			<g>
				<polygon fill="#FFFFFF" points="88.1,62.5 86.8,62.7 86.8,62.7 				"/>
			</g>
			<g>
				<polygon fill="#FFFFFF" points="88.1,62.1 86.8,62.3 86.8,62.3 				"/>
			</g>
			<g>
				<polygon fill="#FFFFFF" points="88.2,63.6 86.7,63.6 86.7,63.6 				"/>
			</g>
			<path fill="#3C4855" stroke="#FFFFFF" stroke-width="0.25" stroke-miterlimit="10" d="M88.5,61.2c0.1,0,0.2,0.1,0.2,0.2v0.3
				c0,0.1-0.1,0.2-0.2,0.2h-2.2c-0.1,0-0.2-0.1-0.2-0.2v-0.3c0-0.1,0.1-0.2,0.2-0.2H88.5z"/>
		</g>
		<g>
			<g id="XMLID_307_">
				<g>
					<rect x="82.2" y="61.9" fill="#3C4855" width="1.4" height="1.7"/>
				</g>
				<g>
					<rect x="82.2" y="61.9" fill="none" stroke="#FFFFFF" stroke-width="0.25" stroke-miterlimit="10" width="1.4" height="1.7"/>
				</g>
			</g>
			<g>
				<polygon fill="#FFFFFF" points="83.5,63.4 82.2,63.5 82.2,63.5 				"/>
			</g>
			<g>
				<polygon fill="#FFFFFF" points="83.5,62.9 82.2,63.1 82.2,63.1 				"/>
			</g>
			<g>
				<polygon fill="#FFFFFF" points="83.5,62.5 82.2,62.7 82.2,62.7 				"/>
			</g>
			<g>
				<polygon fill="#FFFFFF" points="83.5,62.1 82.2,62.3 82.2,62.3 				"/>
			</g>
			<g>
				<polygon fill="#FFFFFF" points="83.7,63.6 82.2,63.6 82.2,63.6 				"/>
			</g>
			<path fill="#3C4855" stroke="#FFFFFF" stroke-width="0.25" stroke-miterlimit="10" d="M84,61.2c0.1,0,0.2,0.1,0.2,0.2v0.3
				c0,0.1-0.1,0.2-0.2,0.2h-2.2c-0.1,0-0.2-0.1-0.2-0.2v-0.3c0-0.1,0.1-0.2,0.2-0.2H84z"/>
		</g>
		<g>
			<g id="XMLID_306_">
				<g>
					<rect x="77.6" y="61.9" fill="#3C4855" width="1.4" height="1.7"/>
				</g>
				<g>
					<rect x="77.6" y="61.9" fill="none" stroke="#FFFFFF" stroke-width="0.25" stroke-miterlimit="10" width="1.4" height="1.7"/>
				</g>
			</g>
			<g>
				<polygon fill="#FFFFFF" points="79,63.4 77.7,63.5 77.7,63.5 				"/>
			</g>
			<g>
				<polygon fill="#FFFFFF" points="79,62.9 77.7,63 77.7,63 				"/>
			</g>
			<g>
				<polygon fill="#FFFFFF" points="79,62.5 77.7,62.7 77.7,62.7 				"/>
			</g>
			<g>
				<polygon fill="#FFFFFF" points="79,62.1 77.7,62.3 77.7,62.3 				"/>
			</g>
			<g>
				<polygon fill="#FFFFFF" points="79.1,63.6 77.6,63.6 77.6,63.6 				"/>
			</g>
			<path fill="#3C4855" stroke="#FFFFFF" stroke-width="0.25" stroke-miterlimit="10" d="M79.4,61.2c0.1,0,0.2,0.1,0.2,0.2v0.3
				c0,0.1-0.1,0.2-0.2,0.2h-2.2c-0.1,0-0.2-0.1-0.2-0.2v-0.3c0-0.1,0.1-0.2,0.2-0.2H79.4z"/>
		</g>
		<g>
			<g id="XMLID_302_">
				<g>
					<rect x="73" y="61.9" fill="#3C4855" width="1.4" height="1.7"/>
				</g>
				<g>
					<rect x="73" y="61.9" fill="none" stroke="#FFFFFF" stroke-width="0.25" stroke-miterlimit="10" width="1.4" height="1.7"/>
				</g>
			</g>
			<g>
				<polygon fill="#FFFFFF" points="74.4,63.4 73.1,63.5 73.1,63.5 				"/>
			</g>
			<g>
				<polygon fill="#FFFFFF" points="74.4,62.9 73.1,63 73.1,63 				"/>
			</g>
			<g>
				<polygon fill="#FFFFFF" points="74.4,62.5 73.1,62.7 73.1,62.7 				"/>
			</g>
			<g>
				<polygon fill="#FFFFFF" points="74.4,62.1 73.1,62.3 73.1,62.3 				"/>
			</g>
			<g>
				<polygon fill="#FFFFFF" points="74.4,63.6 72.9,63.6 72.9,63.6 				"/>
			</g>
			<path fill="#3C4855" stroke="#FFFFFF" stroke-width="0.25" stroke-miterlimit="10" d="M74.8,61.2c0.1,0,0.2,0.1,0.2,0.2v0.3
				c0,0.1-0.1,0.2-0.2,0.2h-2.2c-0.1,0-0.2-0.1-0.2-0.2v-0.3c0-0.1,0.1-0.2,0.2-0.2H74.8z"/>
		</g>
		<g>
			<g id="XMLID_301_">
				<g>
					<rect x="68.5" y="61.9" fill="#3C4855" width="1.4" height="1.7"/>
				</g>
				<g>
					<rect x="68.5" y="61.9" fill="none" stroke="#FFFFFF" stroke-width="0.25" stroke-miterlimit="10" width="1.4" height="1.7"/>
				</g>
			</g>
			<g>
				<polygon fill="#FFFFFF" points="69.8,63.4 68.5,63.5 68.5,63.5 				"/>
			</g>
			<g>
				<polygon fill="#FFFFFF" points="69.8,62.9 68.5,63.1 68.5,63.1 				"/>
			</g>
			<g>
				<polygon fill="#FFFFFF" points="69.8,62.5 68.5,62.7 68.5,62.7 				"/>
			</g>
			<g>
				<polygon fill="#FFFFFF" points="69.8,62.1 68.5,62.3 68.5,62.3 				"/>
			</g>
			<g>
				<polygon fill="#FFFFFF" points="69.9,63.6 68.4,63.6 68.4,63.6 				"/>
			</g>
			<path fill="#3C4855" stroke="#FFFFFF" stroke-width="0.25" stroke-miterlimit="10" d="M70.2,61.2c0.1,0,0.2,0.1,0.2,0.2v0.3
				c0,0.1-0.1,0.2-0.2,0.2H68c-0.1,0-0.2-0.1-0.2-0.2v-0.3c0-0.1,0.1-0.2,0.2-0.2H70.2z"/>
		</g>
		<g>
			<g id="XMLID_300_">
				<g>
					<rect x="63.9" y="61.9" fill="#3C4855" width="1.4" height="1.7"/>
				</g>
				<g>
					<rect x="63.9" y="61.9" fill="none" stroke="#FFFFFF" stroke-width="0.25" stroke-miterlimit="10" width="1.4" height="1.7"/>
				</g>
			</g>
			<g>
				<polygon fill="#FFFFFF" points="65.2,63.4 64,63.5 64,63.5 				"/>
			</g>
			<g>
				<polygon fill="#FFFFFF" points="65.2,62.9 63.9,63.1 63.9,63.1 				"/>
			</g>
			<g>
				<polygon fill="#FFFFFF" points="65.2,62.5 63.9,62.7 63.9,62.7 				"/>
			</g>
			<g>
				<polygon fill="#FFFFFF" points="65.2,62.1 64,62.3 64,62.3 				"/>
			</g>
			<g>
				<polygon fill="#FFFFFF" points="65.4,63.6 63.9,63.6 63.9,63.6 				"/>
			</g>
			<path fill="#3C4855" stroke="#FFFFFF" stroke-width="0.25" stroke-miterlimit="10" d="M65.7,61.2c0.1,0,0.2,0.1,0.2,0.2v0.3
				c0,0.1-0.1,0.2-0.2,0.2h-2.2c-0.1,0-0.2-0.1-0.2-0.2v-0.3c0-0.1,0.1-0.2,0.2-0.2H65.7z"/>
		</g>
	</g>
	<rect x="61.7" y="49.7" fill="#3C4855" stroke="#FFFFFF" stroke-width="0.25" stroke-miterlimit="10" width="38.2" height="11.7"/>
	
		<path fill="#808080" stroke="#FFFFFF" stroke-width="0.25" stroke-linecap="round" stroke-linejoin="round" stroke-miterlimit="10" d="
		M99.6,61.6c-0.1,0-0.2-0.1-0.2-0.2V49.7c0-0.1,0.1-0.2,0.2-0.2h0.6c0.1,0,0.2,0.1,0.2,0.2v11.6c0,0.1-0.1,0.2-0.2,0.2L99.6,61.6
		L99.6,61.6z"/>
	
		<path fill="#808080" stroke="#FFFFFF" stroke-width="0.25" stroke-linecap="round" stroke-linejoin="round" stroke-miterlimit="10" d="
		M61.2,61.6c-0.1,0-0.2-0.1-0.2-0.2V49.7c0-0.1,0.1-0.2,0.2-0.2h0.6c0.1,0,0.2,0.1,0.2,0.2v11.6c0,0.1-0.1,0.2-0.2,0.2L61.2,61.6
		L61.2,61.6z"/>
	<text transform="matrix(1 0 0 1 67.1875 57.542)" fill="#FFFFFF" font-family="'Helvetica-Light'" font-size="5.4692">Multiswitch</text>
</g>
<g>
	<g>
		<g>
			<path fill="#808080" d="M24.7,59.5h20.9c0.2-0.9,0.4-2.7,0.4-3.4c0-1-0.2-4.3-0.2-4.3H24.7h-0.3H3.1c0,0-0.2,3.3-0.2,4.3
				c0,0.7,0.3,2.5,0.4,3.4h20.9H24.7z"/>
			<path fill="#FFFFFF" d="M45.7,59.5H3.5l0,0C3.1,57.8,3,56.6,3,56.1c0-1,0.2-4.2,0.2-4.3l0,0H46l0,0c0,0,0.2,3.3,0.2,4.3
				C46.2,56.6,46,57.8,45.7,59.5L45.7,59.5z M3.5,59.5h42.2c0.3-1.7,0.4-2.9,0.4-3.4c0-0.9-0.2-3.9-0.2-4.2H3.2
				c0,0.3-0.2,3.3-0.2,4.2C3,56.6,3.2,57.8,3.5,59.5z"/>
		</g>
		<g>
			<path fill="#3C4855" d="M10.2,51.9c0,0,2.6,6,3,6.6h23c0,0,2.3-4.6,3-6.7L10.2,51.9z"/>
			<path fill="#FFFFFF" d="M36.2,58.6H13.1l0,0c-0.4-0.6-2.9-6.4-3-6.6v-0.1h29.1V52C38.5,53.9,36.2,58.5,36.2,58.6L36.2,58.6z
				 M13.2,58.4h22.9c0.2-0.4,2.2-4.6,3-6.5H10.3C10.6,52.7,12.8,57.8,13.2,58.4z"/>
		</g>
		<g>
			<path fill="#231F20" d="M34.8,59.6H10.3l0,0l0,0H34.8C34.8,59.5,34.8,59.5,34.8,59.6C34.8,59.5,34.8,59.6,34.8,59.6z"/>
		</g>
		<g>
			<path fill="#3C4855" d="M40.8,56c0,0.2-0.2,0.4-0.6,0.4c-0.3,0-0.6-0.2-0.6-0.4s0.2-0.4,0.6-0.4C40.5,55.6,40.8,55.7,40.8,56z"/>
			<path fill="#FFFFFF" d="M40.2,56.5c-0.4,0-0.6-0.2-0.6-0.5s0.3-0.5,0.6-0.5s0.6,0.2,0.6,0.5S40.6,56.5,40.2,56.5z M40.2,55.6
				c-0.3,0-0.5,0.2-0.5,0.4s0.2,0.4,0.5,0.4s0.5-0.2,0.5-0.4S40.5,55.6,40.2,55.6z"/>
		</g>
		<g>
			<path fill="#3C4855" d="M43.6,56c0-0.2,0.2-0.4,0.6-0.4c0.3,0,0.6,0.2,0.6,0.4s-0.2,0.4-0.6,0.4S43.6,56.2,43.6,56z"/>
			<path fill="#FFFFFF" d="M44.1,56.5c-0.4,0-0.6-0.2-0.6-0.5s0.3-0.5,0.6-0.5c0.4,0,0.6,0.2,0.6,0.5S44.5,56.5,44.1,56.5z
				 M44.1,55.6c-0.3,0-0.5,0.2-0.5,0.4s0.2,0.4,0.5,0.4s0.5-0.2,0.5-0.4C44.7,55.8,44.4,55.6,44.1,55.6z"/>
		</g>
		<g>
			<ellipse fill="#3C4855" cx="42.3" cy="54.4" rx="0.4" ry="0.6"/>
			<path fill="#FFFFFF" d="M42.3,55.1c-0.3,0-0.5-0.3-0.5-0.6c0-0.4,0.2-0.6,0.5-0.6s0.5,0.3,0.5,0.6S42.6,55.1,42.3,55.1z M42.3,54
				c-0.2,0-0.4,0.2-0.4,0.5s0.2,0.5,0.4,0.5s0.4-0.2,0.4-0.5C42.7,54.1,42.5,54,42.3,54z"/>
		</g>
		<g>
			<path fill="#3C4855" d="M42.2,57.1c0.2,0,0.4,0.2,0.4,0.6c0,0.3-0.2,0.6-0.4,0.6s-0.4-0.2-0.4-0.6S42,57.1,42.2,57.1z"/>
			<path fill="#FFFFFF" d="M42.2,58.2c-0.3,0-0.5-0.3-0.5-0.6c0-0.4,0.2-0.6,0.5-0.6s0.5,0.3,0.5,0.6S42.5,58.2,42.2,58.2z
				 M42.2,57.1c-0.2,0-0.4,0.2-0.4,0.5s0.2,0.5,0.4,0.5s0.4-0.2,0.4-0.5C42.6,57.3,42.4,57.1,42.2,57.1z"/>
		</g>
		<g>
			<path fill="#3C4855" d="M42.8,56c0,0.3-0.3,0.6-0.6,0.6s-0.6-0.3-0.6-0.6s0.3-0.6,0.6-0.6C42.6,55.4,42.8,55.7,42.8,56z"/>
			<path fill="#FFFFFF" d="M42.2,56.7c-0.4,0-0.7-0.3-0.7-0.7s0.3-0.7,0.7-0.7s0.7,0.3,0.7,0.7S42.6,56.7,42.2,56.7z M42.2,55.5
				c-0.3,0-0.6,0.2-0.6,0.6c0,0.3,0.2,0.6,0.6,0.6c0.3,0,0.6-0.2,0.6-0.6C42.8,55.8,42.5,55.5,42.2,55.5z"/>
		</g>
		<g>
			<path fill="#FFFFFF" d="M46,59.7H3.4v-0.2C3.1,57.7,3,56.5,3,56c0-1,0.2-4.1,0.2-4.3v-0.2h43.1v0.2c0,0.1,0.2,3.3,0.2,4.3
				c0,0.6-0.2,1.7-0.4,3.5L46,59.7z M3.7,59.3h41.9c0.3-1.7,0.4-2.8,0.4-3.2c0-0.8-0.1-3.3-0.2-4.1H3.5c0,0.7-0.2,3.2-0.2,4.1
				C3.3,56.6,3.5,57.7,3.7,59.3z"/>
		</g>
		<g>
			<path fill="#3C4855" d="M4.9,57.3C4.9,57.1,5,57,5.2,57h4.9c0.2,0,0.4,0.1,0.4,0.3v0.9c0,0.2-0.2,0.3-0.4,0.3H5.2
				c-0.2,0-0.4-0.1-0.4-0.3v-0.9H4.9z"/>
			<path fill="#FFFFFF" d="M10.1,58.6H5.2c-0.2,0-0.4-0.2-0.4-0.4v-0.9c0-0.2,0.2-0.4,0.4-0.4h4.9c0.2,0,0.4,0.2,0.4,0.4v0.9
				C10.5,58.4,10.3,58.6,10.1,58.6z M5.2,57.1c-0.2,0-0.3,0.1-0.3,0.2v0.9c0,0.1,0.1,0.2,0.3,0.2h4.9c0.2,0,0.3-0.1,0.3-0.2v-0.9
				c0-0.1-0.1-0.2-0.3-0.2H5.2z"/>
		</g>
	</g>
</g>
<g>
	<g>
		<g>
			<path fill="#808080" d="M39.7,76.7h20.9c0.2-0.9,0.4-2.7,0.4-3.4c0-1-0.2-4.3-0.2-4.3H39.7h-0.3H18.1c0,0-0.2,3.3-0.2,4.3
				c0,0.7,0.3,2.5,0.4,3.4h20.9H39.7z"/>
			<path fill="#FFFFFF" d="M60.7,76.7H18.5l0,0c-0.3-1.7-0.4-2.9-0.4-3.4c0-1,0.2-4.2,0.2-4.3l0,0H61l0,0c0,0,0.2,3.3,0.2,4.3
				C61.1,73.7,61,74.9,60.7,76.7L60.7,76.7z M18.5,76.6h42.2c0.3-1.7,0.4-2.9,0.4-3.4c0-0.9-0.2-3.9-0.2-4.2H18.2
				c0,0.3-0.2,3.3-0.2,4.2C18,73.7,18.2,74.9,18.5,76.6z"/>
		</g>
		<g>
			<path fill="#3C4855" d="M25.2,69.1c0,0,2.6,6,3,6.6h23c0,0,2.3-4.6,3-6.7L25.2,69.1z"/>
			<path fill="#FFFFFF" d="M51.2,75.7H28.1l0,0c-0.4-0.6-2.9-6.4-3-6.6V69h29.1v0.1C53.5,71,51.2,75.6,51.2,75.7L51.2,75.7z
				 M28.2,75.6h22.9c0.2-0.4,2.2-4.6,3-6.5H25.3C25.6,69.9,27.8,74.9,28.2,75.6z"/>
		</g>
		<g>
			<path fill="#231F20" d="M49.8,76.7H25.3l0,0l0,0H49.8L49.8,76.7L49.8,76.7z"/>
		</g>
		<g>
			<path fill="#3C4855" d="M55.8,73.1c0,0.2-0.2,0.4-0.6,0.4c-0.3,0-0.6-0.2-0.6-0.4s0.2-0.4,0.6-0.4C55.5,72.7,55.8,72.9,55.8,73.1
				z"/>
			<path fill="#FFFFFF" d="M55.2,73.6c-0.4,0-0.6-0.2-0.6-0.5s0.3-0.5,0.6-0.5c0.4,0,0.6,0.2,0.6,0.5S55.6,73.6,55.2,73.6z
				 M55.2,72.8c-0.3,0-0.5,0.2-0.5,0.4c0,0.2,0.2,0.4,0.5,0.4s0.5-0.2,0.5-0.4C55.7,72.9,55.5,72.8,55.2,72.8z"/>
		</g>
		<g>
			<path fill="#3C4855" d="M58.6,73.1c0-0.2,0.2-0.4,0.6-0.4c0.3,0,0.6,0.2,0.6,0.4s-0.2,0.4-0.6,0.4C58.8,73.6,58.6,73.4,58.6,73.1
				z"/>
			<path fill="#FFFFFF" d="M59.1,73.6c-0.4,0-0.6-0.2-0.6-0.5s0.3-0.5,0.6-0.5s0.6,0.2,0.6,0.5C59.8,73.4,59.5,73.6,59.1,73.6z
				 M59.1,72.8c-0.3,0-0.5,0.2-0.5,0.4c0,0.2,0.2,0.4,0.5,0.4s0.5-0.2,0.5-0.4C59.7,72.9,59.4,72.8,59.1,72.8z"/>
		</g>
		<g>
			<ellipse fill="#3C4855" cx="57.3" cy="71.6" rx="0.4" ry="0.6"/>
			<path fill="#FFFFFF" d="M57.3,72.2c-0.3,0-0.5-0.3-0.5-0.6c0-0.4,0.2-0.6,0.5-0.6s0.5,0.3,0.5,0.6C57.8,71.9,57.6,72.2,57.3,72.2
				z M57.3,71.1c-0.2,0-0.4,0.2-0.4,0.5s0.2,0.5,0.4,0.5s0.4-0.2,0.4-0.5C57.6,71.3,57.5,71.1,57.3,71.1z"/>
		</g>
		<g>
			<path fill="#3C4855" d="M57.2,74.2c0.2,0,0.4,0.2,0.4,0.6c0,0.3-0.2,0.6-0.4,0.6s-0.4-0.2-0.4-0.6C56.8,74.5,57,74.2,57.2,74.2z"
				/>
			<path fill="#FFFFFF" d="M57.2,75.4c-0.3,0-0.5-0.3-0.5-0.6c0-0.4,0.2-0.6,0.5-0.6s0.5,0.3,0.5,0.6S57.5,75.4,57.2,75.4z
				 M57.2,74.3c-0.2,0-0.4,0.2-0.4,0.5s0.2,0.5,0.4,0.5s0.4-0.2,0.4-0.5C57.6,74.5,57.4,74.3,57.2,74.3z"/>
		</g>
		<g>
			<path fill="#3C4855" d="M57.8,73.2c0,0.3-0.3,0.6-0.6,0.6s-0.6-0.3-0.6-0.6s0.3-0.6,0.6-0.6C57.6,72.6,57.8,72.8,57.8,73.2z"/>
			<path fill="#FFFFFF" d="M57.2,73.9c-0.4,0-0.7-0.3-0.7-0.7s0.3-0.7,0.7-0.7s0.7,0.3,0.7,0.7S57.6,73.9,57.2,73.9z M57.2,72.6
				c-0.3,0-0.6,0.2-0.6,0.6c0,0.3,0.2,0.6,0.6,0.6c0.3,0,0.6-0.2,0.6-0.6C57.8,72.9,57.5,72.6,57.2,72.6z"/>
		</g>
		<g>
			<path fill="#FFFFFF" d="M61,76.9H18.4v-0.2c-0.3-1.8-0.4-3-0.4-3.5c0-1,0.2-4.1,0.2-4.3v-0.2h43.2V69c0,0.1,0.2,3.3,0.2,4.3
				c0,0.6-0.2,1.7-0.4,3.5L61,76.9z M18.7,76.5h41.9c0.3-1.7,0.4-2.8,0.4-3.2c0-0.8-0.1-3.3-0.2-4.1H18.5c0,0.7-0.2,3.2-0.2,4.1
				C18.3,73.7,18.5,74.8,18.7,76.5z"/>
		</g>
		<g>
			<path fill="#3C4855" d="M19.9,74.5c0-0.2,0.2-0.3,0.4-0.3h4.9c0.2,0,0.4,0.1,0.4,0.3v0.9c0,0.2-0.2,0.3-0.4,0.3h-4.9
				c-0.2,0-0.4-0.1-0.4-0.3V74.5z"/>
			<path fill="#FFFFFF" d="M25.1,75.7h-4.9c-0.2,0-0.4-0.2-0.4-0.4v-0.9c0-0.2,0.2-0.4,0.4-0.4h4.9c0.2,0,0.4,0.2,0.4,0.4v0.9
				C25.5,75.6,25.3,75.7,25.1,75.7z M20.2,74.2c-0.2,0-0.3,0.1-0.3,0.2v0.9c0,0.1,0.1,0.2,0.3,0.2h4.9c0.2,0,0.3-0.1,0.3-0.2v-0.9
				c0-0.1-0.1-0.2-0.3-0.2H20.2z"/>
		</g>
	</g>
</g>
<g>
	<g>
		<g>
			<path fill="#808080" d="M39.7,89.8h20.9c0.2-0.9,0.4-2.7,0.4-3.4c0-1-0.2-4.3-0.2-4.3H39.7h-0.3H18.1c0,0-0.2,3.3-0.2,4.3
				c0,0.7,0.3,2.5,0.4,3.4h20.9H39.7z"/>
			<path fill="#FFFFFF" d="M60.7,89.8H18.5l0,0c-0.3-1.7-0.4-2.9-0.4-3.4c0-1,0.2-4.2,0.2-4.3l0,0H61l0,0c0,0,0.2,3.3,0.2,4.3
				C61.1,86.9,61,88.1,60.7,89.8L60.7,89.8z M18.5,89.8h42.2c0.3-1.7,0.4-2.9,0.4-3.4c0-0.9-0.2-3.9-0.2-4.2H18.2
				c0,0.3-0.2,3.3-0.2,4.2C18,86.9,18.2,88.1,18.5,89.8z"/>
		</g>
		<g>
			<path fill="#3C4855" d="M25.2,82.2c0,0,2.6,6,3,6.6h23c0,0,2.3-4.6,3-6.7L25.2,82.2z"/>
			<path fill="#FFFFFF" d="M51.2,88.9H28.1l0,0c-0.4-0.6-2.9-6.4-3-6.6v-0.1h29.1v0.1C53.5,84.2,51.2,88.8,51.2,88.9L51.2,88.9z
				 M28.2,88.8h22.9c0.2-0.4,2.2-4.6,3-6.5H25.3C25.6,83,27.8,88.1,28.2,88.8z"/>
		</g>
		<g>
			<path fill="#231F20" d="M49.8,89.9H25.3l0,0l0,0H49.8C49.8,89.8,49.8,89.8,49.8,89.9C49.8,89.8,49.8,89.9,49.8,89.9z"/>
		</g>
		<g>
			<path fill="#3C4855" d="M55.8,86.3c0,0.2-0.2,0.4-0.6,0.4c-0.3,0-0.6-0.2-0.6-0.4c0-0.2,0.2-0.4,0.6-0.4
				C55.5,85.9,55.8,86.1,55.8,86.3z"/>
			<path fill="#FFFFFF" d="M55.2,86.8c-0.4,0-0.6-0.2-0.6-0.5s0.3-0.5,0.6-0.5c0.4,0,0.6,0.2,0.6,0.5C55.8,86.5,55.6,86.8,55.2,86.8
				z M55.2,85.9c-0.3,0-0.5,0.2-0.5,0.4c0,0.2,0.2,0.4,0.5,0.4s0.5-0.2,0.5-0.4S55.5,85.9,55.2,85.9z"/>
		</g>
		<g>
			<path fill="#3C4855" d="M58.6,86.3c0-0.2,0.2-0.4,0.6-0.4c0.3,0,0.6,0.2,0.6,0.4c0,0.2-0.2,0.4-0.6,0.4
				C58.8,86.7,58.6,86.5,58.6,86.3z"/>
			<path fill="#FFFFFF" d="M59.1,86.8c-0.4,0-0.6-0.2-0.6-0.5s0.3-0.5,0.6-0.5s0.6,0.2,0.6,0.5C59.8,86.5,59.5,86.8,59.1,86.8z
				 M59.1,85.9c-0.3,0-0.5,0.2-0.5,0.4c0,0.2,0.2,0.4,0.5,0.4s0.5-0.2,0.5-0.4C59.7,86.1,59.4,85.9,59.1,85.9z"/>
		</g>
		<g>
			<ellipse fill="#3C4855" cx="57.3" cy="84.7" rx="0.4" ry="0.6"/>
			<path fill="#FFFFFF" d="M57.3,85.4c-0.3,0-0.5-0.3-0.5-0.6s0.2-0.6,0.5-0.6s0.5,0.3,0.5,0.6S57.6,85.4,57.3,85.4z M57.3,84.3
				c-0.2,0-0.4,0.2-0.4,0.5s0.2,0.5,0.4,0.5s0.4-0.2,0.4-0.5C57.6,84.5,57.5,84.3,57.3,84.3z"/>
		</g>
		<g>
			<path fill="#3C4855" d="M57.2,87.4c0.2,0,0.4,0.2,0.4,0.6s-0.2,0.6-0.4,0.6s-0.4-0.2-0.4-0.6S57,87.4,57.2,87.4z"/>
			<path fill="#FFFFFF" d="M57.2,88.5c-0.3,0-0.5-0.3-0.5-0.6s0.2-0.6,0.5-0.6s0.5,0.3,0.5,0.6S57.5,88.5,57.2,88.5z M57.2,87.4
				c-0.2,0-0.4,0.2-0.4,0.5s0.2,0.5,0.4,0.5s0.4-0.2,0.4-0.5C57.6,87.6,57.4,87.4,57.2,87.4z"/>
		</g>
		<g>
			<path fill="#3C4855" d="M57.8,86.4c0,0.3-0.3,0.6-0.6,0.6s-0.6-0.3-0.6-0.6c0-0.3,0.3-0.6,0.6-0.6C57.6,85.7,57.8,86,57.8,86.4z"
				/>
			<path fill="#FFFFFF" d="M57.2,87c-0.4,0-0.7-0.3-0.7-0.7s0.3-0.7,0.7-0.7s0.7,0.3,0.7,0.7S57.6,87,57.2,87z M57.2,85.8
				c-0.3,0-0.6,0.2-0.6,0.6s0.2,0.6,0.6,0.6c0.3,0,0.6-0.2,0.6-0.6C57.8,86.1,57.5,85.8,57.2,85.8z"/>
		</g>
		<g>
			<path fill="#FFFFFF" d="M61,90H18.4v-0.2c-0.3-1.8-0.4-3-0.4-3.5c0-1,0.2-4.1,0.2-4.3v-0.2h43.2V82c0,0.1,0.2,3.3,0.2,4.3
				c0,0.6-0.2,1.7-0.4,3.5L61,90z M18.7,89.6h41.9c0.3-1.7,0.4-2.8,0.4-3.2c0-0.8-0.1-3.3-0.2-4.1H18.5c0,0.7-0.2,3.2-0.2,4.1
				C18.3,86.9,18.5,88,18.7,89.6z"/>
		</g>
		<g>
			<path fill="#3C4855" d="M19.9,87.6c0-0.2,0.2-0.3,0.4-0.3h4.9c0.2,0,0.4,0.1,0.4,0.3v0.9c0,0.2-0.2,0.3-0.4,0.3h-4.9
				c-0.2,0-0.4-0.1-0.4-0.3V87.6z"/>
			<path fill="#FFFFFF" d="M25.1,88.9h-4.9c-0.2,0-0.4-0.2-0.4-0.4v-0.9c0-0.2,0.2-0.4,0.4-0.4h4.9c0.2,0,0.4,0.2,0.4,0.4v0.9
				C25.5,88.7,25.3,88.9,25.1,88.9z M20.2,87.4c-0.2,0-0.3,0.1-0.3,0.2v0.9c0,0.1,0.1,0.2,0.3,0.2h4.9c0.2,0,0.3-0.1,0.3-0.2v-0.9
				c0-0.1-0.1-0.2-0.3-0.2H20.2z"/>
		</g>
	</g>
</g>
<text transform="matrix(1 0 0 1 74.291 34.8552)" fill="#FFFFFF" font-family="'Helvetica-Light'" font-size="4.1019">Splitter</text>
<g>
	<g>
		<g id="XMLID_299_">
			<g>
				<rect x="68.2" y="36.9" fill="#3C4855" width="1.8" height="2.3"/>
			</g>
			<g>
				<rect x="68.2" y="36.9" fill="none" stroke="#FFFFFF" stroke-width="0.25" stroke-miterlimit="10" width="1.8" height="2.3"/>
			</g>
		</g>
		<g>
			<polygon fill="#FFFFFF" points="68.2,38.8 70,39 70,39 			"/>
		</g>
		<g>
			<polygon fill="#FFFFFF" points="68.2,38.2 70,38.4 70,38.4 			"/>
		</g>
		<g>
			<polygon fill="#FFFFFF" points="68.2,37.7 70,37.9 70,37.9 			"/>
		</g>
		<g>
			<polygon fill="#FFFFFF" points="68.2,37.1 70,37.3 70,37.3 			"/>
		</g>
		<g>
			<polygon fill="#FFFFFF" points="68,39.1 70,39.1 70,39.1 			"/>
		</g>
		<path fill="#3C4855" stroke="#FFFFFF" stroke-width="0.25" stroke-miterlimit="10" d="M67.6,35.9c-0.2,0-0.3,0.1-0.3,0.3v0.4
			c0,0.2,0.1,0.3,0.3,0.3h3c0.2,0,0.3-0.1,0.3-0.3v-0.4c0-0.2-0.1-0.3-0.3-0.3H67.6z"/>
	</g>
	<g>
		<g id="XMLID_298_">
			<g>
				<rect x="64.7" y="28.4" fill="#3C4855" width="1.8" height="2.3"/>
			</g>
			<g>
				<rect x="64.7" y="28.4" fill="none" stroke="#FFFFFF" stroke-width="0.25" stroke-miterlimit="10" width="1.8" height="2.3"/>
			</g>
		</g>
		<g>
			<polygon fill="#FFFFFF" points="64.7,28.8 66.5,28.6 66.5,28.6 			"/>
		</g>
		<g>
			<polygon fill="#FFFFFF" points="64.7,29.4 66.5,29.2 66.5,29.2 			"/>
		</g>
		<g>
			<polygon fill="#FFFFFF" points="64.7,29.9 66.5,29.7 66.5,29.7 			"/>
		</g>
		<g>
			<polygon fill="#FFFFFF" points="64.7,30.5 66.5,30.3 66.5,30.3 			"/>
		</g>
		<g>
			<polygon fill="#FFFFFF" points="64.6,28.4 66.6,28.4 66.6,28.4 			"/>
		</g>
		<path fill="#3C4855" stroke="#FFFFFF" stroke-width="0.25" stroke-miterlimit="10" d="M64.2,31.7c-0.2,0-0.3-0.1-0.3-0.3V31
			c0-0.2,0.1-0.3,0.3-0.3h3c0.2,0,0.3,0.1,0.3,0.3v0.4c0,0.2-0.1,0.3-0.3,0.3C67.2,31.7,64.2,31.7,64.2,31.7z"/>
	</g>
	<g>
		<g id="XMLID_297_">
			<g>
				<rect x="61.1" y="36.9" fill="#3C4855" width="1.8" height="2.3"/>
			</g>
			<g>
				<rect x="61.1" y="36.9" fill="none" stroke="#FFFFFF" stroke-width="0.25" stroke-miterlimit="10" width="1.8" height="2.3"/>
			</g>
		</g>
		<g>
			<polygon fill="#FFFFFF" points="61.1,38.8 62.9,39 62.9,39 			"/>
		</g>
		<g>
			<polygon fill="#FFFFFF" points="61.1,38.2 62.9,38.4 62.9,38.4 			"/>
		</g>
		<g>
			<polygon fill="#FFFFFF" points="61.1,37.7 62.9,37.9 62.9,37.9 			"/>
		</g>
		<g>
			<polygon fill="#FFFFFF" points="61.1,37.1 62.9,37.3 62.9,37.3 			"/>
		</g>
		<g>
			<polygon fill="#FFFFFF" points="61,39.1 63,39.1 63,39.1 			"/>
		</g>
		<path fill="#3C4855" stroke="#FFFFFF" stroke-width="0.25" stroke-miterlimit="10" d="M60.6,35.9c-0.2,0-0.3,0.1-0.3,0.3v0.4
			c0,0.2,0.1,0.3,0.3,0.3h3c0.2,0,0.3-0.1,0.3-0.3v-0.4c0-0.2-0.1-0.3-0.3-0.3H60.6z"/>
	</g>
	<rect x="60" y="31.2" fill="#3C4855" stroke="#FFFFFF" stroke-width="0.25" stroke-miterlimit="10" width="11.3" height="5.2"/>
	<path fill="#3C4855" stroke="#FFFFFF" stroke-width="0.25" stroke-miterlimit="10" d="M60,36.5C60.1,36.5,60.1,36.5,60,36.5
		l0.1-5.2c0-0.1,0-0.1-0.1-0.1h-0.2c-0.1,0-0.1,0-0.1,0.1v5.1c0,0.1,0,0.1,0.1,0.1H60z"/>
	<path fill="#3C4855" stroke="#FFFFFF" stroke-width="0.25" stroke-miterlimit="10" d="M71.5,36.5C71.6,36.5,71.6,36.5,71.5,36.5
		l0.1-5.2c0-0.1,0-0.1-0.1-0.1h-0.2c-0.1,0-0.1,0-0.1,0.1v5.1c0,0.1,0,0.1,0.1,0.1H71.5z"/>
</g>
<text transform="matrix(1 0 0 1 3.1072 48.8399)" fill="#FFFFFF" font-family="'Helvetica-Light'" font-size="3.1482">* Master</text>
<text transform="matrix(1 0 0 1 49 21.6253)" fill="#FFFFFF" font-family="'Helvetica-Light'" font-size="4">TV-Hub</text>
<text transform="matrix(1 0 0 1 11.8542 21.2)" fill="#FFFFFF" font-family="'Helvetica-Light'" font-size="5.4692">Antenna</text>
<text transform="matrix(1 0 0 1 14.1042 57)" fill="#FFFFFF" font-family="'Helvetica-Light'" font-size="5.4692">Receiver</text>
<text transform="matrix(1 0 0 1 28.7708 74.2)" fill="#FFFFFF" font-family="'Helvetica-Light'" font-size="5.4692">Receiver</text>
<text transform="matrix(1 0 0 1 28.4375 87.3998)" fill="#FFFFFF" font-family="'Helvetica-Light'" font-size="5.4692">Receiver</text>
</svg>
