<?xml version="1.0" encoding="utf-8"?>
<!-- Generator: Adobe Illustrator 17.1.0, SVG Export Plug-In . SVG Version: 6.00 Build 0)  -->
<!DOCTYPE svg PUBLIC "-//W3C//DTD SVG 1.1//EN" "http://www.w3.org/Graphics/SVG/1.1/DTD/svg11.dtd">
<svg version="1.1" id="Layer_1" xmlns="http://www.w3.org/2000/svg" xmlns:xlink="http://www.w3.org/1999/xlink" x="0px" y="0px"
	 viewBox="0 0 255 220" enable-background="new 0 0 255 220" xml:space="preserve">
<g>
	<line fill="none" stroke="#FFFFFF" stroke-miterlimit="10" x1="42" y1="35.2" x2="226.7" y2="35.2"/>
	<line fill="none" stroke="#FFFFFF" stroke-miterlimit="10" x1="226.7" y1="34.8" x2="226.7" y2="50.7"/>
	<polyline fill="none" stroke="#FFFFFF" stroke-miterlimit="10" points="217.6,71.6 134.4,71.6 134.4,89.4 99.2,89.4 	"/>
	<line fill="none" stroke="#FFFFFF" stroke-miterlimit="10" x1="217.6" y1="72.1" x2="217.6" y2="56.1"/>
	<line fill="none" stroke="#FFFFFF" stroke-miterlimit="10" x1="235.4" y1="64.1" x2="235.4" y2="86"/>
	<g>
		<path fill="#FFFFFF" d="M39.3,43.2H20.9l0,0c-0.1,0-2.1-0.7-2.9-2.8l0,0v-2.2l0.3-10.4l0,0c0.9-4.2,3-7.2,6.4-9
			c2.6-1.3,5-1.4,5.3-1.4l0,0c0,0,0.1,0,0.2,0c1.6,0,9.7,0.5,11.7,10.3l0,0l0.4,10.4l0,2.2l0,0c-0.5,1.2-1.3,1.9-1.8,2.3
			C39.8,43,39.3,43.2,39.3,43.2L39.3,43.2z M20.9,42.9h18.3c0.2,0,1.8-0.5,2.7-2.6v-2.1l-0.4-10.4c-1.9-9.6-9.8-10-11.4-10
			c-0.1,0-0.2,0-0.2,0l0,0l0,0c-0.3,0-2.6,0-5.2,1.3c-3.3,1.7-5.4,4.6-6.2,8.7l-0.3,10.4l0,2.1C19,42.1,20.7,42.8,20.9,42.9z"/>
		<path fill="#B5C0C9" d="M18.1,38.2v2.1c0.7,1.9,2.8,2.6,2.8,2.6h18.4c1.8-0.4,2.7-2.6,2.7-2.6v-2.1H18.1z"/>
		<path fill="#FFFFFF" d="M42.1,38.3h-24c-0.1,0-0.2-0.1-0.2-0.2c0-0.1,0.1-0.2,0.2-0.2h24c0.1,0,0.2,0.1,0.2,0.2
			C42.2,38.2,42.2,38.3,42.1,38.3z"/>
		<path fill="#FFFFFF" d="M39.3,43.2H20.9c0,0,0,0-0.1,0c-0.1,0-2.1-0.7-2.9-2.8c0,0,0,0,0-0.1v-2.1l0.3-10.4c0,0,0,0,0,0
			c0.9-4.2,3-7.2,6.4-9c2.6-1.3,5-1.4,5.3-1.4l0,0c0,0,0.1,0,0.2,0c1.6,0,9.7,0.5,11.7,10.3c0,0,0,0,0,0l0.4,10.4l0,2.1
			c0,0,0,0,0,0.1c-0.5,1.2-1.3,1.9-1.8,2.3C39.8,43,39.3,43.2,39.3,43.2C39.3,43.2,39.3,43.2,39.3,43.2z M20.9,42.9h18.3
			c0.2,0,1.8-0.5,2.7-2.6v-2.1l-0.4-10.4c-1.9-9.6-9.8-10-11.4-10c-0.1,0-0.2,0-0.2,0c0,0,0,0,0,0l0,0c-0.3,0-2.6,0-5.2,1.3
			c-3.3,1.7-5.4,4.6-6.2,8.7l-0.3,10.4l0,2.1C19,42.1,20.7,42.8,20.9,42.9z"/>
	</g>
	<g>
		<path fill="#FFFFFF" d="M96.5,31.2l-0.1-11.5c0,0,0-0.8-0.7-0.8h0c-0.7,0-0.7,0.8-0.7,0.8l-0.1,11.5H96.5z"/>
		<path fill="#B5C0C9" d="M84.2,38.1h20.6v-5.7c0,0,0.1-0.7-2.2-1c0,0-7.3-0.8-18.3-0.9h-0.1c-11,0.1-18.3,0.9-18.3,0.9
			c-2.3,0.2-2.2,1-2.2,1v5.7H84.2L84.2,38.1z"/>
		<path fill="#8999A5" d="M82.4,33.2c0,0.2-0.2,0.4-0.4,0.4l0,0c-0.2,0-0.4-0.2-0.4-0.4v-2.5h0.8V33.2z"/>
		<path fill="#8999A5" d="M84.6,33.2c0,0.2-0.2,0.4-0.4,0.4l0,0c-0.2,0-0.4-0.2-0.4-0.4v-2.5h0.8V33.2z"/>
		<path fill="#8999A5" d="M86.7,33.2c0,0.2-0.2,0.4-0.4,0.4l0,0c-0.2,0-0.4-0.2-0.4-0.4v-2.5h0.8V33.2z"/>
		<path fill="#FFFFFF" d="M104.9,38.3H63.4v-5.9c0-0.1,0-0.2,0.1-0.4c0.3-0.4,1.1-0.7,2.2-0.8c0.1,0,7.4-0.8,18.3-0.9h0.1
			c10.9,0.1,18.3,0.9,18.3,0.9c1.2,0.1,1.9,0.4,2.2,0.8c0.1,0.2,0.1,0.3,0.1,0.4V38.3z M63.7,37.9h40.8v-5.5l0,0c0,0-0.1-0.6-2-0.7
			c-0.1,0-7.4-0.8-18.3-0.9h-0.1c-10.9,0.1-18.2,0.9-18.3,0.9c-2,0.2-2,0.7-2,0.8l0,0l0,0V37.9z"/>
	</g>
	<g>
		<g>
			<path fill="#B5C0C9" d="M60.5,95.5h41.1c0.3-1.8,0.9-5.3,0.9-6.7c0-1.9-0.3-8.3-0.3-8.3H60.5h-0.6H18.3c0,0-0.3,6.4-0.3,8.3
				c0,1.4,0.6,4.9,0.9,6.7h41.1H60.5z"/>
			<path fill="#B5C0C9" d="M101.6,95.5H18.8c0,0-0.1,0-0.1-0.1c-0.6-3.4-0.9-5.7-0.9-6.7c0-1.9,0.3-8.2,0.3-8.3c0,0,0-0.1,0.1-0.1
				h83.9c0,0,0.1,0,0.1,0.1c0,0.1,0.3,6.4,0.3,8.3C102.5,89.8,102.2,92.1,101.6,95.5C101.7,95.5,101.6,95.5,101.6,95.5z M18.8,95.4
				h82.7c0.6-3.4,0.9-5.7,0.9-6.7c0-1.8-0.3-7.6-0.3-8.2H18.3c0,0.7-0.3,6.4-0.3,8.2C18,89.7,18.3,92,18.8,95.4z"/>
			<path fill="#8999A5" d="M32,80.6c0,0,5.9,13.4,6.6,14.5h43.5c0,0,5.3-10.7,6.7-14.6L32,80.6z"/>
			<path fill="#231F20" d="M80.2,95.6H32.1c0,0-0.1,0-0.1-0.1c0,0,0-0.1,0.1-0.1h48.1C80.3,95.5,80.3,95.5,80.2,95.6
				C80.3,95.6,80.3,95.6,80.2,95.6z"/>
			<g>
				<g>
					<g>
						<path fill="#8999A5" d="M93.1,88c0,0.4-0.6,0.7-1.3,0.7c-0.7,0-1.3-0.3-1.3-0.7c0-0.4,0.6-0.7,1.3-0.7
							C92.5,87.3,93.1,87.6,93.1,88z"/>
						<path fill="#8999A5" d="M100.5,88c0,0.4-0.6,0.7-1.3,0.7c-0.7,0-1.3-0.3-1.3-0.7c0-0.4,0.6-0.7,1.3-0.7
							C99.9,87.3,100.5,87.6,100.5,88z"/>
					</g>
					<g>
						<path fill="#8999A5" d="M95.5,90.4c0.4,0,0.7,0.6,0.7,1.3c0,0.7-0.3,1.3-0.7,1.3c-0.4,0-0.7-0.6-0.7-1.3
							C94.8,91,95.1,90.4,95.5,90.4z"/>
						<path fill="#8999A5" d="M95.5,83c0.4,0,0.7,0.6,0.7,1.3c0,0.7-0.3,1.3-0.7,1.3c-0.4,0-0.7-0.6-0.7-1.3
							C94.8,83.6,95.1,83,95.5,83z"/>
					</g>
				</g>
				<path fill="#8999A5" d="M96.9,88c0,0.8-0.6,1.4-1.4,1.4c-0.8,0-1.4-0.6-1.4-1.4c0-0.8,0.6-1.4,1.4-1.4
					C96.3,86.6,96.9,87.2,96.9,88z"/>
			</g>
			<path fill="#FFFFFF" d="M102.1,95.9H18.7l-0.1-0.3c-0.6-3.5-0.9-5.7-0.9-6.8c0-1.9,0.3-8.1,0.3-8.3l0-0.4h84.6l0,0.4
				c0,0.3,0.3,6.4,0.3,8.3c0,1-0.3,3.3-0.9,6.8L102.1,95.9z M19.3,95.1h82.2c0.5-3.2,0.8-5.4,0.8-6.4c0-1.6-0.3-6.6-0.3-7.9H18.8
				c-0.1,1.4-0.3,6.3-0.3,7.9C18.5,89.7,18.8,91.9,19.3,95.1z"/>
			<path fill="#8999A5" d="M21.5,91.1c0-0.3,0.3-0.5,0.7-0.5h9.6c0.4,0,0.7,0.2,0.7,0.5V93c0,0.3-0.3,0.5-0.7,0.5h-9.6
				c-0.4,0-0.7-0.2-0.7-0.5V91.1z"/>
		</g>
		<rect x="19.6" y="83.8" fill="none" width="81.1" height="10.3"/>
		<text transform="matrix(1 0 0 1 40.3771 91.017)" fill="#FFFFFF" font-family="'Helvetica-Light'" font-size="10">Receiver</text>
	</g>
	<polyline fill="none" stroke="#FFFFFF" stroke-miterlimit="10" points="99.2,136 134.4,136 171,136.1 171,118.2 171,99.1 	"/>
	<g>
		<g>
			<path fill="#B5C0C9" d="M60.5,142.1h41.1c0.3-1.8,0.9-5.3,0.9-6.7c0-1.9-0.3-8.3-0.3-8.3H60.5h-0.6H18.3c0,0-0.3,6.4-0.3,8.3
				c0,1.4,0.6,4.9,0.9,6.7h41.1H60.5z"/>
			<path fill="#B5C0C9" d="M101.6,142.1H18.8c0,0-0.1,0-0.1-0.1c-0.6-3.4-0.9-5.7-0.9-6.7c0-1.9,0.3-8.2,0.3-8.3c0,0,0-0.1,0.1-0.1
				h83.9c0,0,0.1,0,0.1,0.1c0,0.1,0.3,6.4,0.3,8.3C102.5,136.4,102.2,138.7,101.6,142.1C101.7,142.1,101.6,142.1,101.6,142.1z
				 M18.8,142h82.7c0.6-3.4,0.9-5.7,0.9-6.7c0-1.8-0.3-7.6-0.3-8.2H18.3c0,0.7-0.3,6.4-0.3,8.2C18,136.3,18.3,138.6,18.8,142z"/>
			<path fill="#8999A5" d="M32,127.2c0,0,5.9,13.4,6.6,14.5h43.5c0,0,5.3-10.7,6.7-14.6L32,127.2z"/>
			<path fill="#231F20" d="M80.2,142.2H32.1c0,0-0.1,0-0.1-0.1c0,0,0-0.1,0.1-0.1h48.1C80.3,142.1,80.3,142.1,80.2,142.2
				C80.3,142.1,80.3,142.2,80.2,142.2z"/>
			<g>
				<g>
					<g>
						<path fill="#8999A5" d="M93.1,134.6c0,0.4-0.6,0.7-1.3,0.7c-0.7,0-1.3-0.3-1.3-0.7c0-0.4,0.6-0.7,1.3-0.7
							C92.5,133.9,93.1,134.2,93.1,134.6z"/>
						<path fill="#8999A5" d="M100.5,134.6c0,0.4-0.6,0.7-1.3,0.7c-0.7,0-1.3-0.3-1.3-0.7c0-0.4,0.6-0.7,1.3-0.7
							C99.9,133.9,100.5,134.2,100.5,134.6z"/>
					</g>
					<g>
						<path fill="#8999A5" d="M95.5,137c0.4,0,0.7,0.6,0.7,1.3c0,0.7-0.3,1.3-0.7,1.3c-0.4,0-0.7-0.6-0.7-1.3
							C94.8,137.6,95.1,137,95.5,137z"/>
						<path fill="#8999A5" d="M95.5,129.6c0.4,0,0.7,0.6,0.7,1.3c0,0.7-0.3,1.3-0.7,1.3c-0.4,0-0.7-0.6-0.7-1.3
							C94.8,130.2,95.1,129.6,95.5,129.6z"/>
					</g>
				</g>
				<path fill="#8999A5" d="M96.9,134.6c0,0.8-0.6,1.4-1.4,1.4c-0.8,0-1.4-0.6-1.4-1.4c0-0.8,0.6-1.4,1.4-1.4
					C96.3,133.2,96.9,133.8,96.9,134.6z"/>
			</g>
			<path fill="#FFFFFF" d="M102.1,142.4H18.7l-0.1-0.3c-0.6-3.5-0.9-5.7-0.9-6.8c0-1.9,0.3-8.1,0.3-8.3l0-0.4h84.6l0,0.4
				c0,0.3,0.3,6.4,0.3,8.3c0,1-0.3,3.3-0.9,6.8L102.1,142.4z M19.3,141.7h82.2c0.5-3.2,0.8-5.4,0.8-6.4c0-1.6-0.3-6.6-0.3-7.9H18.8
				c-0.1,1.4-0.3,6.3-0.3,7.9C18.5,136.3,18.8,138.5,19.3,141.7z"/>
			<path fill="#8999A5" d="M21.5,137.7c0-0.3,0.3-0.5,0.7-0.5h9.6c0.4,0,0.7,0.2,0.7,0.5v1.9c0,0.3-0.3,0.5-0.7,0.5h-9.6
				c-0.4,0-0.7-0.2-0.7-0.5V137.7z"/>
		</g>
		<rect x="19.6" y="130.4" fill="none" width="81.1" height="10.3"/>
		<text transform="matrix(1 0 0 1 40.3771 137.6128)" fill="#FFFFFF" font-family="'Helvetica-Light'" font-size="10">Receiver</text>
	</g>
	<polyline fill="none" stroke="#000000" stroke-miterlimit="10" points="102.5,166 143.5,166 180.2,166.1 180.2,148.2 180.2,99.3 	
		"/>
	<g>
		<g>
			<path fill="#B5C0C9" d="M126.2,172.1h41.1c0.3-1.8,0.9-5.3,0.9-6.7c0-1.9-0.3-8.3-0.3-8.3h-41.6h-0.6H84c0,0-0.3,6.4-0.3,8.3
				c0,1.4,0.6,4.9,0.9,6.7h41.1H126.2z"/>
			<path fill="#B5C0C9" d="M167.3,172.2H84.5c0,0-0.1,0-0.1-0.1c-0.6-3.4-0.9-5.7-0.9-6.7c0-1.9,0.3-8.2,0.3-8.3c0,0,0-0.1,0.1-0.1
				h83.9c0,0,0.1,0,0.1,0.1c0,0.1,0.3,6.4,0.3,8.3C168.2,166.4,167.9,168.7,167.3,172.2C167.4,172.1,167.3,172.2,167.3,172.2z
				 M84.5,172h82.7c0.6-3.4,0.9-5.7,0.9-6.7c0-1.8-0.3-7.6-0.3-8.2H84c0,0.7-0.3,6.4-0.3,8.2C83.7,166.4,84,168.7,84.5,172z"/>
			<path fill="#8999A5" d="M97.7,157.2c0,0,5.9,13.4,6.6,14.5h43.5c0,0,5.3-10.7,6.7-14.6L97.7,157.2z"/>
			<path fill="#231F20" d="M145.9,172.2H97.8c0,0-0.1,0-0.1-0.1c0,0,0-0.1,0.1-0.1h48.1C146,172.1,146,172.1,145.9,172.2
				C146,172.2,146,172.2,145.9,172.2z"/>
			<g>
				<g>
					<g>
						<path fill="#8999A5" d="M158.8,164.6c0,0.4-0.6,0.7-1.3,0.7c-0.7,0-1.3-0.3-1.3-0.7c0-0.4,0.6-0.7,1.3-0.7
							C158.2,163.9,158.8,164.2,158.8,164.6z"/>
						<path fill="#8999A5" d="M166.2,164.6c0,0.4-0.6,0.7-1.3,0.7c-0.7,0-1.3-0.3-1.3-0.7c0-0.4,0.6-0.7,1.3-0.7
							C165.7,163.9,166.2,164.2,166.2,164.6z"/>
					</g>
					<g>
						<path fill="#8999A5" d="M161.2,167c0.4,0,0.7,0.6,0.7,1.3c0,0.7-0.3,1.3-0.7,1.3c-0.4,0-0.7-0.6-0.7-1.3
							C160.5,167.6,160.8,167,161.2,167z"/>
						<path fill="#8999A5" d="M161.2,159.6c0.4,0,0.7,0.6,0.7,1.3c0,0.7-0.3,1.3-0.7,1.3c-0.4,0-0.7-0.6-0.7-1.3
							C160.5,160.2,160.8,159.6,161.2,159.6z"/>
					</g>
				</g>
				<path fill="#8999A5" d="M162.6,164.6c0,0.8-0.6,1.4-1.4,1.4c-0.8,0-1.4-0.6-1.4-1.4c0-0.8,0.6-1.4,1.4-1.4
					C162,163.2,162.6,163.8,162.6,164.6z"/>
			</g>
			<path d="M167.8,172.5H84.4l-0.1-0.3c-0.6-3.5-0.9-5.7-0.9-6.8c0-1.9,0.3-8.1,0.3-8.3l0-0.4h84.6l0,0.4c0,0.3,0.3,6.4,0.3,8.3
				c0,1-0.3,3.3-0.9,6.8L167.8,172.5z M85,171.7h82.2c0.5-3.2,0.8-5.4,0.8-6.4c0-1.6-0.3-6.6-0.3-7.9H84.5c-0.1,1.4-0.3,6.3-0.3,7.9
				C84.2,166.3,84.5,168.5,85,171.7z"/>
			<path fill="#8999A5" d="M87.2,167.7c0-0.3,0.3-0.5,0.7-0.5h9.6c0.4,0,0.7,0.2,0.7,0.5v1.9c0,0.3-0.3,0.5-0.7,0.5H88
				c-0.4,0-0.7-0.2-0.7-0.5V167.7z"/>
		</g>
		<rect x="85.3" y="160.4" fill="none" width="81.1" height="10.3"/>
		<text transform="matrix(1 0 0 1 106.0799 167.6294)" fill="#FFFFFF" font-family="'Helvetica-Light'" font-size="10">Receiver</text>
	</g>
	<polyline fill="none" stroke="#000000" stroke-miterlimit="10" points="91.8,196.1 152.7,196.1 189.4,196.2 189.4,178.3 
		189.4,103.8 	"/>
	<g>
		<g>
			<path fill="#B5C0C9" d="M126.2,202.2h41.1c0.3-1.8,0.9-5.3,0.9-6.7c0-1.9-0.3-8.3-0.3-8.3h-41.6h-0.6H84c0,0-0.3,6.4-0.3,8.3
				c0,1.4,0.6,4.9,0.9,6.7h41.1H126.2z"/>
			<path fill="#B5C0C9" d="M167.3,202.3H84.5c0,0-0.1,0-0.1-0.1c-0.6-3.4-0.9-5.7-0.9-6.7c0-1.9,0.3-8.2,0.3-8.3c0,0,0-0.1,0.1-0.1
				h83.9c0,0,0.1,0,0.1,0.1c0,0.1,0.3,6.4,0.3,8.3C168.2,196.5,167.9,198.8,167.3,202.3C167.4,202.3,167.3,202.3,167.3,202.3z
				 M84.5,202.2h82.7c0.6-3.4,0.9-5.7,0.9-6.7c0-1.8-0.3-7.6-0.3-8.2H84c0,0.7-0.3,6.4-0.3,8.2C83.7,196.5,84,198.8,84.5,202.2z"/>
			<path fill="#8999A5" d="M97.7,187.3c0,0,5.9,13.4,6.6,14.5h43.5c0,0,5.3-10.7,6.7-14.6L97.7,187.3z"/>
			<path fill="#231F20" d="M145.9,202.3H97.8c0,0-0.1,0-0.1-0.1s0-0.1,0.1-0.1h48.1C146,202.2,146,202.2,145.9,202.3
				C146,202.3,146,202.3,145.9,202.3z"/>
			<g>
				<g>
					<g>
						<path fill="#8999A5" d="M158.8,194.7c0,0.4-0.6,0.7-1.3,0.7c-0.7,0-1.3-0.3-1.3-0.7c0-0.4,0.6-0.7,1.3-0.7
							C158.2,194.1,158.8,194.4,158.8,194.7z"/>
						<path fill="#8999A5" d="M166.2,194.7c0,0.4-0.6,0.7-1.3,0.7c-0.7,0-1.3-0.3-1.3-0.7c0-0.4,0.6-0.7,1.3-0.7
							C165.7,194,166.2,194.3,166.2,194.7z"/>
					</g>
					<g>
						<path fill="#8999A5" d="M161.2,197.2c0.4,0,0.7,0.6,0.7,1.3c0,0.7-0.3,1.3-0.7,1.3c-0.4,0-0.7-0.6-0.7-1.3
							C160.5,197.7,160.8,197.2,161.2,197.2z"/>
						<path fill="#8999A5" d="M161.2,189.7c0.4,0,0.7,0.6,0.7,1.3c0,0.7-0.3,1.3-0.7,1.3c-0.4,0-0.7-0.6-0.7-1.3
							C160.5,190.3,160.8,189.7,161.2,189.7z"/>
					</g>
				</g>
				<path fill="#8999A5" d="M162.6,194.7c0,0.8-0.6,1.4-1.4,1.4c-0.8,0-1.4-0.6-1.4-1.4c0-0.8,0.6-1.4,1.4-1.4
					C162,193.3,162.6,194,162.6,194.7z"/>
			</g>
			<path d="M167.8,202.6H84.4l-0.1-0.3c-0.6-3.5-0.9-5.7-0.9-6.8c0-1.9,0.3-8.1,0.3-8.3l0-0.4h84.6l0,0.4c0,0.3,0.3,6.4,0.3,8.3
				c0,1-0.3,3.3-0.9,6.8L167.8,202.6z M85,201.8h82.2c0.5-3.2,0.8-5.4,0.8-6.4c0-1.6-0.3-6.6-0.3-7.9H84.5c-0.1,1.4-0.3,6.3-0.3,7.9
				C84.2,196.4,84.5,198.6,85,201.8z"/>
			<path fill="#8999A5" d="M87.2,197.9c0-0.3,0.3-0.5,0.7-0.5h9.6c0.4,0,0.7,0.2,0.7,0.5v1.9c0,0.3-0.3,0.5-0.7,0.5H88
				c-0.4,0-0.7-0.2-0.7-0.5V197.9z"/>
		</g>
		<rect x="85.3" y="190.6" fill="none" width="81.1" height="10.3"/>
		<text transform="matrix(1 0 0 1 106.0799 197.7596)" fill="#FFFFFF" font-family="'Helvetica-Light'" font-size="10">Receiver</text>
	</g>
	<rect x="12.3" y="48.7" fill="none" width="35.5" height="10.3"/>
	<text transform="matrix(1 0 0 1 15.1704 54.4588)" fill="#FFFFFF" font-family="'Helvetica'" font-size="8">Antenna</text>
	<rect x="63.8" y="48.7" fill="none" width="41.1" height="10.3"/>
	<text transform="matrix(1 0 0 1 70.5573 54.4588)" fill="#FFFFFF" font-family="'Helvetica'" font-size="8">TV-Hub</text>
	<rect x="170.4" y="48.7" fill="none" width="41.1" height="10.3"/>
	<text transform="matrix(1 0 0 1 178.5307 54.4032)" fill="#FFFFFF" font-family="'Helvetica'" font-size="8">Splitter</text>
	<rect x="17.8" y="100.9" fill="none" width="84.2" height="10.3"/>
	<text transform="matrix(1 0 0 1 47.6263 106.6356)" fill="#FFFFFF" font-family="'Helvetica'" font-size="8">Master</text>
	<rect x="84" y="177.7" fill="none" width="84.2" height="10.3"/>
	<text transform="matrix(1 0 0 1 114.7773 182.0368)" font-family="'Helvetica-Light'" font-size="6">Optional</text>
	<g>
		<rect x="233.3" y="59.4" fill="#B5C0C9" width="4.6" height="5.9"/>
		<rect x="233.3" y="59.4" fill="none" width="4.6" height="5.9"/>
		
			<rect x="233.3" y="64.4" transform="matrix(-0.9925 -0.1219 0.1219 -0.9925 461.4882 157.1928)" fill="#FFFFFF" width="4.6" height="0.1"/>
		
			<rect x="233.3" y="63" transform="matrix(-0.9925 -0.1219 0.1219 -0.9925 461.6593 154.3973)" fill="#FFFFFF" width="4.6" height="0.1"/>
		
			<rect x="233.3" y="61.6" transform="matrix(-0.9925 -0.1219 0.1219 -0.9925 461.8304 151.602)" fill="#FFFFFF" width="4.6" height="0.1"/>
		
			<rect x="233.3" y="60.2" transform="matrix(-0.9925 -0.1219 0.1219 -0.9925 462.0014 148.8066)" fill="#FFFFFF" width="4.6" height="0.1"/>
		<path fill="#B5C0C9" d="M231.9,57c-0.4,0-0.7,0.3-0.7,0.7v1.1c0,0.4,0.3,0.7,0.7,0.7h7.5c0.4,0,0.7-0.3,0.7-0.7v-1.1
			c0-0.4-0.3-0.7-0.7-0.7H231.9z"/>
		<path fill="#FFFFFF" d="M239.3,59.6h-7.5c-0.5,0-0.8-0.4-0.8-0.8v-1.1c0-0.5,0.4-0.8,0.8-0.8h7.5c0.5,0,0.8,0.4,0.8,0.8v1.1
			C240.2,59.2,239.8,59.6,239.3,59.6z M231.9,57.1c-0.3,0-0.6,0.3-0.6,0.6v1.1c0,0.3,0.3,0.6,0.6,0.6h7.5c0.3,0,0.6-0.3,0.6-0.6
			v-1.1c0-0.3-0.3-0.6-0.6-0.6H231.9z"/>
		<rect x="224.5" y="37.8" fill="#B5C0C9" width="4.6" height="5.9"/>
		<rect x="224.5" y="37.8" fill="none" width="4.6" height="5.9"/>
		
			<rect x="224.4" y="38.6" transform="matrix(-0.9925 0.1219 -0.1219 -0.9925 456.5179 49.391)" fill="#FFFFFF" width="4.6" height="0.1"/>
		
			<rect x="224.4" y="40" transform="matrix(-0.9925 0.1219 -0.1219 -0.9925 456.689 52.1865)" fill="#FFFFFF" width="4.6" height="0.1"/>
		
			<rect x="224.4" y="41.4" transform="matrix(-0.9925 0.1219 -0.1219 -0.9925 456.86 54.9818)" fill="#FFFFFF" width="4.6" height="0.1"/>
		
			<rect x="224.4" y="42.8" transform="matrix(-0.9925 0.1219 -0.1219 -0.9925 457.0311 57.7772)" fill="#FFFFFF" width="4.6" height="0.1"/>
		<path fill="#B5C0C9" d="M223.1,46.1c-0.4,0-0.7-0.3-0.7-0.7v-1.1c0-0.4,0.3-0.7,0.7-0.7h7.5c0.4,0,0.7,0.3,0.7,0.7v1.1
			c0,0.4-0.3,0.7-0.7,0.7H223.1z"/>
		<path fill="#FFFFFF" d="M230.5,46.3h-7.5c-0.5,0-0.8-0.4-0.8-0.8v-1.1c0-0.5,0.4-0.8,0.8-0.8h7.5c0.5,0,0.8,0.4,0.8,0.8v1.1
			C231.4,45.9,231,46.3,230.5,46.3z M223.1,43.8c-0.3,0-0.6,0.3-0.6,0.6v1.1c0,0.3,0.3,0.6,0.6,0.6h7.5c0.3,0,0.6-0.3,0.6-0.6v-1.1
			c0-0.3-0.3-0.6-0.6-0.6H223.1z"/>
		<rect x="215.3" y="59.4" fill="#B5C0C9" width="4.6" height="5.9"/>
		<rect x="215.3" y="59.4" fill="none" width="4.6" height="5.9"/>
		
			<rect x="215.3" y="64.4" transform="matrix(-0.9925 -0.1219 0.1219 -0.9925 425.7055 155.003)" fill="#FFFFFF" width="4.6" height="0.1"/>
		
			<rect x="215.3" y="63" transform="matrix(-0.9925 -0.1219 0.1219 -0.9925 425.8766 152.2076)" fill="#FFFFFF" width="4.6" height="0.1"/>
		
			<rect x="215.3" y="61.6" transform="matrix(-0.9925 -0.1219 0.1219 -0.9925 426.0476 149.4123)" fill="#FFFFFF" width="4.6" height="0.1"/>
		
			<rect x="215.3" y="60.2" transform="matrix(-0.9925 -0.1219 0.1219 -0.9925 426.2187 146.6168)" fill="#FFFFFF" width="4.6" height="0.1"/>
		<path fill="#B5C0C9" d="M213.9,57c-0.4,0-0.7,0.3-0.7,0.7v1.1c0,0.4,0.3,0.7,0.7,0.7h7.5c0.4,0,0.7-0.3,0.7-0.7v-1.1
			c0-0.4-0.3-0.7-0.7-0.7H213.9z"/>
		<path fill="#FFFFFF" d="M221.4,59.6h-7.5c-0.5,0-0.8-0.4-0.8-0.8v-1.1c0-0.5,0.4-0.8,0.8-0.8h7.5c0.5,0,0.8,0.4,0.8,0.8v1.1
			C222.2,59.2,221.8,59.6,221.4,59.6z M213.9,57.1c-0.3,0-0.6,0.3-0.6,0.6v1.1c0,0.3,0.3,0.6,0.6,0.6h7.5c0.3,0,0.6-0.3,0.6-0.6
			v-1.1c0-0.3-0.3-0.6-0.6-0.6H213.9z"/>
		<rect x="212.4" y="45" fill="#B5C0C9" width="28.7" height="13.1"/>
		<path fill="#FFFFFF" d="M241.3,58.3h-29V44.9h29V58.3z M212.6,58h28.5V45.2h-28.5V58z"/>
		<path fill="#B5C0C9" d="M212.6,58.4c0.2,0,0.3-0.1,0.3-0.3v-13c0-0.2-0.1-0.3-0.3-0.3h-0.6c-0.2,0-0.3,0.1-0.3,0.3v13
			c0,0.2,0.1,0.3,0.3,0.3H212.6z"/>
		<path fill="#FFFFFF" d="M212.6,58.5h-0.6c-0.2,0-0.4-0.2-0.4-0.4v-13c0-0.2,0.2-0.4,0.4-0.4h0.6c0.2,0,0.4,0.2,0.4,0.4v13
			C213,58.3,212.8,58.5,212.6,58.5z M211.9,44.9c-0.1,0-0.1,0.1-0.1,0.1v13c0,0.1,0.1,0.1,0.1,0.1h0.6c0.1,0,0.1-0.1,0.1-0.1v-13
			c0-0.1-0.1-0.1-0.1-0.1H211.9z"/>
		<path fill="#B5C0C9" d="M241.6,58.4c0.2,0,0.3-0.1,0.3-0.3v-13c0-0.2-0.1-0.3-0.3-0.3H241c-0.2,0-0.3,0.1-0.3,0.3v13
			c0,0.2,0.1,0.3,0.3,0.3H241.6z"/>
		<path fill="#FFFFFF" d="M241.6,58.5H241c-0.2,0-0.4-0.2-0.4-0.4v-13c0-0.2,0.2-0.4,0.4-0.4h0.6c0.2,0,0.4,0.2,0.4,0.4v13
			C242,58.3,241.9,58.5,241.6,58.5z M241,44.9c-0.1,0-0.1,0.1-0.1,0.1v13c0,0.1,0.1,0.1,0.1,0.1h0.6c0.1,0,0.1-0.1,0.1-0.1v-13
			c0-0.1-0.1-0.1-0.1-0.1H241z"/>
	</g>
	<g>
		<g>
			<g>
				<g>
					<rect x="233.8" y="81.1" fill="#B5C0C9" width="2.7" height="3.4"/>
					<rect x="233.8" y="81.1" fill="none" stroke="#FFFFFF" stroke-width="0.25" stroke-miterlimit="10" width="2.7" height="3.4"/>
					<path fill="#B5C0C9" d="M237.3,85.9c0.2,0,0.4-0.2,0.4-0.4v-0.6c0-0.2-0.2-0.4-0.4-0.4h-4.4c-0.2,0-0.4,0.2-0.4,0.4v0.6
						c0,0.2,0.2,0.4,0.4,0.4H237.3z"/>
					<path fill="#FFFFFF" d="M237.3,86h-4.4c-0.3,0-0.5-0.2-0.5-0.5v-0.6c0-0.3,0.2-0.5,0.5-0.5h4.4c0.3,0,0.5,0.2,0.5,0.5v0.6
						C237.8,85.8,237.6,86,237.3,86z M232.9,84.6c-0.2,0-0.3,0.1-0.3,0.3v0.6c0,0.2,0.1,0.3,0.3,0.3h4.4c0.2,0,0.3-0.1,0.3-0.3v-0.6
						c0-0.2-0.1-0.3-0.3-0.3H232.9z"/>
				</g>
				<g>
					<rect x="224.7" y="81.1" fill="#B5C0C9" width="2.7" height="3.4"/>
					<rect x="224.7" y="81.1" fill="none" stroke="#FFFFFF" stroke-width="0.25" stroke-miterlimit="10" width="2.7" height="3.4"/>
					<path fill="#B5C0C9" d="M228.2,85.9c0.2,0,0.4-0.2,0.4-0.4v-0.6c0-0.2-0.2-0.4-0.4-0.4h-4.4c-0.2,0-0.4,0.2-0.4,0.4v0.6
						c0,0.2,0.2,0.4,0.4,0.4H228.2z"/>
					<path fill="#FFFFFF" d="M228.2,86h-4.4c-0.3,0-0.5-0.2-0.5-0.5v-0.6c0-0.3,0.2-0.5,0.5-0.5h4.4c0.3,0,0.5,0.2,0.5,0.5v0.6
						C228.7,85.8,228.5,86,228.2,86z M223.8,84.6c-0.2,0-0.3,0.1-0.3,0.3v0.6c0,0.2,0.1,0.3,0.3,0.3h4.4c0.2,0,0.3-0.1,0.3-0.3v-0.6
						c0-0.2-0.1-0.3-0.3-0.3H223.8z"/>
				</g>
				<g>
					<rect x="215.5" y="81.1" fill="#B5C0C9" width="2.7" height="3.4"/>
					<rect x="215.5" y="81.1" fill="none" stroke="#FFFFFF" stroke-width="0.25" stroke-miterlimit="10" width="2.7" height="3.4"/>
					<path fill="#B5C0C9" d="M219,85.9c0.2,0,0.4-0.2,0.4-0.4v-0.6c0-0.2-0.2-0.4-0.4-0.4h-4.4c-0.2,0-0.4,0.2-0.4,0.4v0.6
						c0,0.2,0.2,0.4,0.4,0.4H219z"/>
					<path fill="#FFFFFF" d="M219,86h-4.4c-0.3,0-0.5-0.2-0.5-0.5v-0.6c0-0.3,0.2-0.5,0.5-0.5h4.4c0.3,0,0.5,0.2,0.5,0.5v0.6
						C219.6,85.8,219.3,86,219,86z M214.7,84.6c-0.2,0-0.3,0.1-0.3,0.3v0.6c0,0.2,0.1,0.3,0.3,0.3h4.4c0.2,0,0.3-0.1,0.3-0.3v-0.6
						c0-0.2-0.1-0.3-0.3-0.3H214.7z"/>
				</g>
				<g>
					<rect x="206.4" y="81.1" fill="#B5C0C9" width="2.7" height="3.4"/>
					<rect x="206.4" y="81.1" fill="none" stroke="#FFFFFF" stroke-width="0.25" stroke-miterlimit="10" width="2.7" height="3.4"/>
					<path fill="#B5C0C9" d="M209.9,85.9c0.2,0,0.4-0.2,0.4-0.4v-0.6c0-0.2-0.2-0.4-0.4-0.4h-4.4c-0.2,0-0.4,0.2-0.4,0.4v0.6
						c0,0.2,0.2,0.4,0.4,0.4H209.9z"/>
					<path fill="#FFFFFF" d="M209.9,86h-4.4c-0.3,0-0.5-0.2-0.5-0.5v-0.6c0-0.3,0.2-0.5,0.5-0.5h4.4c0.3,0,0.5,0.2,0.5,0.5v0.6
						C210.4,85.8,210.2,86,209.9,86z M205.5,84.6c-0.2,0-0.3,0.1-0.3,0.3v0.6c0,0.2,0.1,0.3,0.3,0.3h4.4c0.2,0,0.3-0.1,0.3-0.3v-0.6
						c0-0.2-0.1-0.3-0.3-0.3H205.5z"/>
				</g>
				<g>
					<rect x="197.2" y="81.1" fill="#B5C0C9" width="2.7" height="3.4"/>
					<rect x="197.2" y="81.1" fill="none" stroke="#FFFFFF" stroke-width="0.25" stroke-miterlimit="10" width="2.7" height="3.4"/>
					<path fill="#B5C0C9" d="M200.7,85.9c0.2,0,0.4-0.2,0.4-0.4v-0.6c0-0.2-0.2-0.4-0.4-0.4h-4.4c-0.2,0-0.4,0.2-0.4,0.4v0.6
						c0,0.2,0.2,0.4,0.4,0.4H200.7z"/>
					<path fill="#FFFFFF" d="M200.7,86h-4.4c-0.3,0-0.5-0.2-0.5-0.5v-0.6c0-0.3,0.2-0.5,0.5-0.5h4.4c0.3,0,0.5,0.2,0.5,0.5v0.6
						C201.2,85.8,201,86,200.7,86z M196.3,84.6c-0.2,0-0.3,0.1-0.3,0.3v0.6c0,0.2,0.1,0.3,0.3,0.3h4.4c0.2,0,0.3-0.1,0.3-0.3v-0.6
						c0-0.2-0.1-0.3-0.3-0.3H196.3z"/>
				</g>
				<g>
					<rect x="188" y="81.1" fill="#B5C0C9" width="2.7" height="3.4"/>
					<rect x="188" y="81.1" fill="none" stroke="#FFFFFF" stroke-width="0.25" stroke-miterlimit="10" width="2.7" height="3.4"/>
					<path fill="#B5C0C9" d="M191.6,85.9c0.2,0,0.4-0.2,0.4-0.4v-0.6c0-0.2-0.2-0.4-0.4-0.4h-4.4c-0.2,0-0.4,0.2-0.4,0.4v0.6
						c0,0.2,0.2,0.4,0.4,0.4H191.6z"/>
					<path fill="#FFFFFF" d="M191.6,86h-4.4c-0.3,0-0.5-0.2-0.5-0.5v-0.6c0-0.3,0.2-0.5,0.5-0.5h4.4c0.3,0,0.5,0.2,0.5,0.5v0.6
						C192.1,85.8,191.8,86,191.6,86z M187.2,84.6c-0.2,0-0.3,0.1-0.3,0.3v0.6c0,0.2,0.1,0.3,0.3,0.3h4.4c0.2,0,0.3-0.1,0.3-0.3v-0.6
						c0-0.2-0.1-0.3-0.3-0.3H187.2z"/>
				</g>
				<g>
					<rect x="178.9" y="81.1" fill="#B5C0C9" width="2.7" height="3.4"/>
					<rect x="178.9" y="81.1" fill="none" stroke="#FFFFFF" stroke-width="0.25" stroke-miterlimit="10" width="2.7" height="3.4"/>
					<path fill="#B5C0C9" d="M182.4,85.9c0.2,0,0.4-0.2,0.4-0.4v-0.6c0-0.2-0.2-0.4-0.4-0.4H178c-0.2,0-0.4,0.2-0.4,0.4v0.6
						c0,0.2,0.2,0.4,0.4,0.4H182.4z"/>
					<path fill="#FFFFFF" d="M182.4,86H178c-0.3,0-0.5-0.2-0.5-0.5v-0.6c0-0.3,0.2-0.5,0.5-0.5h4.4c0.3,0,0.5,0.2,0.5,0.5v0.6
						C182.9,85.8,182.7,86,182.4,86z M178,84.6c-0.2,0-0.3,0.1-0.3,0.3v0.6c0,0.2,0.1,0.3,0.3,0.3h4.4c0.2,0,0.3-0.1,0.3-0.3v-0.6
						c0-0.2-0.1-0.3-0.3-0.3H178z"/>
				</g>
				<g>
					<rect x="169.7" y="81.1" fill="#B5C0C9" width="2.7" height="3.4"/>
					<rect x="169.7" y="81.1" fill="none" stroke="#FFFFFF" stroke-width="0.25" stroke-miterlimit="10" width="2.7" height="3.4"/>
					<path fill="#B5C0C9" d="M173.2,85.9c0.2,0,0.4-0.2,0.4-0.4v-0.6c0-0.2-0.2-0.4-0.4-0.4h-4.4c-0.2,0-0.4,0.2-0.4,0.4v0.6
						c0,0.2,0.2,0.4,0.4,0.4H173.2z"/>
					<path fill="#FFFFFF" d="M173.2,86h-4.4c-0.3,0-0.5-0.2-0.5-0.5v-0.6c0-0.3,0.2-0.5,0.5-0.5h4.4c0.3,0,0.5,0.2,0.5,0.5v0.6
						C173.8,85.8,173.5,86,173.2,86z M168.9,84.6c-0.2,0-0.3,0.1-0.3,0.3v0.6c0,0.2,0.1,0.3,0.3,0.3h4.4c0.2,0,0.3-0.1,0.3-0.3v-0.6
						c0-0.2-0.1-0.3-0.3-0.3H168.9z"/>
				</g>
			</g>
			<g>
				<g>
					<rect x="233.8" y="109.6" fill="#B5C0C9" width="2.7" height="3.4"/>
					
						<rect x="233.8" y="109.6" fill="none" stroke="#FFFFFF" stroke-width="0.25" stroke-miterlimit="10" width="2.7" height="3.4"/>
					<path fill="#B5C0C9" d="M237.3,108.2c0.2,0,0.4,0.2,0.4,0.4v0.6c0,0.2-0.2,0.4-0.4,0.4h-4.4c-0.2,0-0.4-0.2-0.4-0.4v-0.6
						c0-0.2,0.2-0.4,0.4-0.4H237.3z"/>
					<path fill="#FFFFFF" d="M237.8,108.6v0.6c0,0.3-0.2,0.5-0.5,0.5h-4.4c-0.3,0-0.5-0.2-0.5-0.5v-0.6c0-0.3,0.2-0.5,0.5-0.5h4.4
						C237.6,108.1,237.8,108.3,237.8,108.6z M237.3,109.5c0.2,0,0.3-0.1,0.3-0.3v-0.6c0-0.2-0.1-0.3-0.3-0.3h-4.4
						c-0.2,0-0.3,0.1-0.3,0.3v0.6c0,0.2,0.1,0.3,0.3,0.3H237.3z"/>
				</g>
				<g>
					<rect x="224.7" y="109.6" fill="#B5C0C9" width="2.7" height="3.4"/>
					
						<rect x="224.7" y="109.6" fill="none" stroke="#FFFFFF" stroke-width="0.25" stroke-miterlimit="10" width="2.7" height="3.4"/>
					<path fill="#B5C0C9" d="M228.2,108.2c0.2,0,0.4,0.2,0.4,0.4v0.6c0,0.2-0.2,0.4-0.4,0.4h-4.4c-0.2,0-0.4-0.2-0.4-0.4v-0.6
						c0-0.2,0.2-0.4,0.4-0.4H228.2z"/>
					<path fill="#FFFFFF" d="M228.7,108.6v0.6c0,0.3-0.2,0.5-0.5,0.5h-4.4c-0.3,0-0.5-0.2-0.5-0.5v-0.6c0-0.3,0.2-0.5,0.5-0.5h4.4
						C228.5,108.1,228.7,108.3,228.7,108.6z M228.2,109.5c0.2,0,0.3-0.1,0.3-0.3v-0.6c0-0.2-0.1-0.3-0.3-0.3h-4.4
						c-0.2,0-0.3,0.1-0.3,0.3v0.6c0,0.2,0.1,0.3,0.3,0.3H228.2z"/>
				</g>
				<g>
					<rect x="215.5" y="109.6" fill="#B5C0C9" width="2.7" height="3.4"/>
					
						<rect x="215.5" y="109.6" fill="none" stroke="#FFFFFF" stroke-width="0.25" stroke-miterlimit="10" width="2.7" height="3.4"/>
					<path fill="#B5C0C9" d="M219,108.2c0.2,0,0.4,0.2,0.4,0.4v0.6c0,0.2-0.2,0.4-0.4,0.4h-4.4c-0.2,0-0.4-0.2-0.4-0.4v-0.6
						c0-0.2,0.2-0.4,0.4-0.4H219z"/>
					<path fill="#FFFFFF" d="M219.6,108.6v0.6c0,0.3-0.2,0.5-0.5,0.5h-4.4c-0.3,0-0.5-0.2-0.5-0.5v-0.6c0-0.3,0.2-0.5,0.5-0.5h4.4
						C219.3,108.1,219.6,108.3,219.6,108.6z M219,109.5c0.2,0,0.3-0.1,0.3-0.3v-0.6c0-0.2-0.1-0.3-0.3-0.3h-4.4
						c-0.2,0-0.3,0.1-0.3,0.3v0.6c0,0.2,0.1,0.3,0.3,0.3H219z"/>
				</g>
				<g>
					<rect x="206.4" y="109.6" fill="#B5C0C9" width="2.7" height="3.4"/>
					
						<rect x="206.4" y="109.6" fill="none" stroke="#FFFFFF" stroke-width="0.25" stroke-miterlimit="10" width="2.7" height="3.4"/>
					<path fill="#B5C0C9" d="M209.9,108.2c0.2,0,0.4,0.2,0.4,0.4v0.6c0,0.2-0.2,0.4-0.4,0.4h-4.4c-0.2,0-0.4-0.2-0.4-0.4v-0.6
						c0-0.2,0.2-0.4,0.4-0.4H209.9z"/>
					<path fill="#FFFFFF" d="M210.4,108.6v0.6c0,0.3-0.2,0.5-0.5,0.5h-4.4c-0.3,0-0.5-0.2-0.5-0.5v-0.6c0-0.3,0.2-0.5,0.5-0.5h4.4
						C210.2,108.1,210.4,108.3,210.4,108.6z M209.9,109.5c0.2,0,0.3-0.1,0.3-0.3v-0.6c0-0.2-0.1-0.3-0.3-0.3h-4.4
						c-0.2,0-0.3,0.1-0.3,0.3v0.6c0,0.2,0.1,0.3,0.3,0.3H209.9z"/>
				</g>
				<g>
					<rect x="197.2" y="109.6" fill="#B5C0C9" width="2.7" height="3.4"/>
					
						<rect x="197.2" y="109.6" fill="none" stroke="#FFFFFF" stroke-width="0.25" stroke-miterlimit="10" width="2.7" height="3.4"/>
					<path fill="#B5C0C9" d="M200.7,108.2c0.2,0,0.4,0.2,0.4,0.4v0.6c0,0.2-0.2,0.4-0.4,0.4h-4.4c-0.2,0-0.4-0.2-0.4-0.4v-0.6
						c0-0.2,0.2-0.4,0.4-0.4H200.7z"/>
					<path fill="#FFFFFF" d="M201.2,108.6v0.6c0,0.3-0.2,0.5-0.5,0.5h-4.4c-0.3,0-0.5-0.2-0.5-0.5v-0.6c0-0.3,0.2-0.5,0.5-0.5h4.4
						C201,108.1,201.2,108.3,201.2,108.6z M200.7,109.5c0.2,0,0.3-0.1,0.3-0.3v-0.6c0-0.2-0.1-0.3-0.3-0.3h-4.4
						c-0.2,0-0.3,0.1-0.3,0.3v0.6c0,0.2,0.1,0.3,0.3,0.3H200.7z"/>
				</g>
				<g>
					<rect x="188" y="109.6" fill="#B5C0C9" width="2.7" height="3.4"/>
					<rect x="188" y="109.6" fill="none" stroke="#FFFFFF" stroke-width="0.25" stroke-miterlimit="10" width="2.7" height="3.4"/>
					<path fill="#B5C0C9" d="M191.6,108.2c0.2,0,0.4,0.2,0.4,0.4v0.6c0,0.2-0.2,0.4-0.4,0.4h-4.4c-0.2,0-0.4-0.2-0.4-0.4v-0.6
						c0-0.2,0.2-0.4,0.4-0.4H191.6z"/>
					<path fill="#FFFFFF" d="M192.1,108.6v0.6c0,0.3-0.2,0.5-0.5,0.5h-4.4c-0.3,0-0.5-0.2-0.5-0.5v-0.6c0-0.3,0.2-0.5,0.5-0.5h4.4
						C191.8,108.1,192.1,108.3,192.1,108.6z M191.6,109.5c0.2,0,0.3-0.1,0.3-0.3v-0.6c0-0.2-0.1-0.3-0.3-0.3h-4.4
						c-0.2,0-0.3,0.1-0.3,0.3v0.6c0,0.2,0.1,0.3,0.3,0.3H191.6z"/>
				</g>
				<g>
					<rect x="178.9" y="109.6" fill="#B5C0C9" width="2.7" height="3.4"/>
					
						<rect x="178.9" y="109.6" fill="none" stroke="#FFFFFF" stroke-width="0.25" stroke-miterlimit="10" width="2.7" height="3.4"/>
					<path fill="#B5C0C9" d="M182.4,108.2c0.2,0,0.4,0.2,0.4,0.4v0.6c0,0.2-0.2,0.4-0.4,0.4H178c-0.2,0-0.4-0.2-0.4-0.4v-0.6
						c0-0.2,0.2-0.4,0.4-0.4H182.4z"/>
					<path fill="#FFFFFF" d="M182.9,108.6v0.6c0,0.3-0.2,0.5-0.5,0.5H178c-0.3,0-0.5-0.2-0.5-0.5v-0.6c0-0.3,0.2-0.5,0.5-0.5h4.4
						C182.7,108.1,182.9,108.3,182.9,108.6z M182.4,109.5c0.2,0,0.3-0.1,0.3-0.3v-0.6c0-0.2-0.1-0.3-0.3-0.3H178
						c-0.2,0-0.3,0.1-0.3,0.3v0.6c0,0.2,0.1,0.3,0.3,0.3H182.4z"/>
				</g>
				<g>
					<rect x="169.7" y="109.6" fill="#B5C0C9" width="2.7" height="3.4"/>
					
						<rect x="169.7" y="109.6" fill="none" stroke="#FFFFFF" stroke-width="0.25" stroke-miterlimit="10" width="2.7" height="3.4"/>
					<path fill="#B5C0C9" d="M173.2,108.2c0.2,0,0.4,0.2,0.4,0.4v0.6c0,0.2-0.2,0.4-0.4,0.4h-4.4c-0.2,0-0.4-0.2-0.4-0.4v-0.6
						c0-0.2,0.2-0.4,0.4-0.4H173.2z"/>
					<path fill="#FFFFFF" d="M173.8,108.6v0.6c0,0.3-0.2,0.5-0.5,0.5h-4.4c-0.3,0-0.5-0.2-0.5-0.5v-0.6c0-0.3,0.2-0.5,0.5-0.5h4.4
						C173.5,108.1,173.8,108.3,173.8,108.6z M173.2,109.5c0.2,0,0.3-0.1,0.3-0.3v-0.6c0-0.2-0.1-0.3-0.3-0.3h-4.4
						c-0.2,0-0.3,0.1-0.3,0.3v0.6c0,0.2,0.1,0.3,0.3,0.3H173.2z"/>
				</g>
			</g>
			<rect x="165.5" y="85.5" fill="#B5C0C9" width="75.9" height="23.3"/>
			<path fill="#FFFFFF" d="M241.6,108.9h-76.1V85.4h76.1V108.9z M165.6,108.7h75.7V85.6h-75.7V108.7z"/>
			<path fill="#B5C0C9" d="M241,109.2c-0.3,0-0.5-0.2-0.5-0.5V85.5c0-0.3,0.2-0.5,0.5-0.5h1.1c0.3,0,0.5,0.2,0.5,0.5v23.2
				c0,0.3-0.2,0.5-0.5,0.5H241z"/>
			<path fill="#FFFFFF" d="M242.1,109.3H241c-0.3,0-0.6-0.3-0.6-0.6V85.5c0-0.3,0.3-0.6,0.6-0.6h1.1c0.3,0,0.6,0.3,0.6,0.6v23.2
				C242.7,109.1,242.4,109.3,242.1,109.3z M241,85.2c-0.2,0-0.4,0.2-0.4,0.4v23.2c0,0.2,0.2,0.4,0.4,0.4h1.1c0.2,0,0.4-0.2,0.4-0.4
				V85.5c0-0.2-0.2-0.4-0.4-0.4H241z"/>
			<path fill="#B5C0C9" d="M164.4,109.2c-0.3,0-0.5-0.2-0.5-0.5V85.5c0-0.3,0.2-0.5,0.5-0.5h1.1c0.3,0,0.5,0.2,0.5,0.5v23.2
				c0,0.3-0.2,0.5-0.5,0.5H164.4z"/>
			<path fill="#FFFFFF" d="M165.6,109.3h-1.1c-0.3,0-0.6-0.3-0.6-0.6V85.5c0-0.3,0.3-0.6,0.6-0.6h1.1c0.3,0,0.6,0.3,0.6,0.6v23.2
				C166.2,109.1,165.9,109.3,165.6,109.3z M164.4,85.2c-0.2,0-0.4,0.2-0.4,0.4v23.2c0,0.2,0.2,0.4,0.4,0.4h1.1
				c0.2,0,0.4-0.2,0.4-0.4V85.5c0-0.2-0.2-0.4-0.4-0.4H164.4z"/>
		</g>
		<rect x="163.8" y="93.5" fill="none" width="78.6" height="10.3"/>
		<text transform="matrix(1 0 0 1 178.3821 100.6913)" fill="#FFFFFF" font-family="'Helvetica-Light'" font-size="10">Multiswitch</text>
	</g>
</g>
</svg>
