<?xml version="1.0" encoding="utf-8"?>
<!-- Generator: Adobe Illustrator 17.1.0, SVG Export Plug-In . SVG Version: 6.00 Build 0)  -->
<!DOCTYPE svg PUBLIC "-//W3C//DTD SVG 1.1//EN" "http://www.w3.org/Graphics/SVG/1.1/DTD/svg11.dtd">
<svg version="1.1" id="Layer_1" xmlns="http://www.w3.org/2000/svg" xmlns:xlink="http://www.w3.org/1999/xlink" x="0px" y="0px"
	 viewBox="0 0 104 90" enable-background="new 0 0 104 90" xml:space="preserve">
<g>
	<line fill="none" stroke="#0CBC18" stroke-width="0.25" stroke-miterlimit="10" x1="60.9" y1="43.9" x2="60.9" y2="49.8"/>
	<g>
		<polygon fill="#0CBC18" points="60.2,49.3 60.9,49.6 61.6,49.3 60.9,51 		"/>
	</g>
	<line fill="none" stroke="#0CBC18" stroke-width="0.25" stroke-miterlimit="10" x1="64.8" y1="43.9" x2="64.8" y2="49.8"/>
	<g>
		<polygon fill="#0CBC18" points="64.1,49.3 64.8,49.6 65.5,49.3 64.8,51 		"/>
	</g>
	<line fill="none" stroke="#0CBC18" stroke-width="0.25" stroke-miterlimit="10" x1="68.7" y1="43.9" x2="68.7" y2="49.8"/>
	<g>
		<polygon fill="#0CBC18" points="67.9,49.3 68.7,49.6 69.4,49.3 68.7,51 		"/>
	</g>
	<polyline fill="none" stroke="#FFFFFF" stroke-width="0.25" stroke-miterlimit="10" points="49.3,42.5 49.3,48.6 8.6,48.6 
		8.6,78.3 16.4,78.3 	"/>
	<polyline fill="none" stroke="#FFFFFF" stroke-width="0.25" stroke-miterlimit="10" points="74.6,17.3 78.6,17.3 78.6,28.6 
		66.6,28.6 66.6,31.8 	"/>
	<line fill="none" stroke="#FFFFFF" stroke-width="0.25" stroke-miterlimit="10" x1="8.6" y1="67.2" x2="24" y2="67.2"/>
	<line fill="none" stroke="#FFFFFF" stroke-width="0.25" stroke-miterlimit="10" x1="8.6" y1="57.1" x2="24" y2="57.1"/>
	<line fill="none" stroke="#FFFFFF" stroke-width="0.25" stroke-miterlimit="10" x1="53" y1="71.7" x2="68.6" y2="71.7"/>
	<line fill="none" stroke="#FFFFFF" stroke-width="0.25" stroke-miterlimit="10" x1="53.2" y1="43.4" x2="53.2" y2="71.7"/>
	<line fill="none" stroke="#FFFFFF" stroke-width="0.25" stroke-miterlimit="10" x1="56.8" y1="62.3" x2="72.4" y2="62.3"/>
	<line fill="none" stroke="#FFFFFF" stroke-width="0.25" stroke-miterlimit="10" x1="57" y1="34" x2="57" y2="62.3"/>
	<line fill="none" stroke="#FFFFFF" stroke-width="0.25" stroke-miterlimit="10" x1="45.4" y1="43.4" x2="45.4" y2="48.6"/>
	<line fill="none" stroke="#FFFFFF" stroke-width="0.25" stroke-miterlimit="10" x1="41.5" y1="43.4" x2="41.5" y2="48.6"/>
	<polyline fill="none" stroke="#FFFFFF" stroke-width="0.25" stroke-miterlimit="10" points="37.9,17.3 30.1,17.3 30.1,29.1 
		58.9,29.1 58.9,35.2 	"/>
	<line fill="none" stroke="#FFFFFF" stroke-width="0.25" stroke-miterlimit="10" x1="44" y1="34.3" x2="44" y2="29.1"/>
	<line fill="none" stroke="#FFFFFF" stroke-width="0.25" stroke-miterlimit="10" x1="51.5" y1="34.3" x2="51.5" y2="29.1"/>
	<text transform="matrix(1 0 0 1 71.3818 48.1517)" fill="#0CBC18" font-family="'Helvetica-Light'" font-size="2.5374">Optional</text>
	<g>
		<g>
			<g>
				<g>
					<rect x="66" y="30.4" fill="#B5C0C9" width="1.1" height="1.4"/>
					<rect x="66" y="30.4" fill="none" stroke="#FFFFFF" stroke-width="0.25" stroke-miterlimit="10" width="1.1" height="1.4"/>
					<path fill="#B5C0C9" d="M67.5,32.5c0.1,0,0.2-0.1,0.2-0.2V32c0-0.1-0.1-0.2-0.2-0.2h-1.9c-0.1,0-0.2,0.1-0.2,0.2v0.3
						c0,0.1,0.1,0.2,0.2,0.2H67.5z"/>
					<path fill="#FFFFFF" d="M67.5,32.5h-1.9c-0.1,0-0.2-0.1-0.2-0.2V32c0-0.1,0.1-0.2,0.2-0.2h1.9c0.1,0,0.2,0.1,0.2,0.2v0.3
						C67.7,32.4,67.6,32.5,67.5,32.5z M65.6,31.9c-0.1,0-0.1,0-0.1,0.1v0.3c0,0.1,0,0.1,0.1,0.1h1.9c0.1,0,0.1,0,0.1-0.1v-0.3
						c0-0.1,0-0.1-0.1-0.1H65.6z"/>
				</g>
			</g>
			<g>
				<g>
					<rect x="58.5" y="30.4" fill="#B5C0C9" width="1.1" height="1.4"/>
					<rect x="58.5" y="30.4" fill="none" stroke="#FFFFFF" stroke-width="0.25" stroke-miterlimit="10" width="1.1" height="1.4"/>
					<path fill="#B5C0C9" d="M60,32.5c0.1,0,0.2-0.1,0.2-0.2V32c0-0.1-0.1-0.2-0.2-0.2h-1.9C58,31.9,58,32,58,32v0.3
						c0,0.1,0.1,0.2,0.2,0.2H60z"/>
					<path fill="#FFFFFF" d="M60,32.5h-1.9c-0.1,0-0.2-0.1-0.2-0.2V32c0-0.1,0.1-0.2,0.2-0.2H60c0.1,0,0.2,0.1,0.2,0.2v0.3
						C60.2,32.4,60.1,32.5,60,32.5z M58.1,31.9c-0.1,0-0.1,0-0.1,0.1v0.3c0,0.1,0,0.1,0.1,0.1H60c0.1,0,0.1,0,0.1-0.1v-0.3
						c0-0.1,0-0.1-0.1-0.1H58.1z"/>
				</g>
			</g>
			<g>
				<g>
					<rect x="51" y="30.4" fill="#B5C0C9" width="1.1" height="1.4"/>
					<rect x="51" y="30.4" fill="none" stroke="#FFFFFF" stroke-width="0.25" stroke-miterlimit="10" width="1.1" height="1.4"/>
					<path fill="#B5C0C9" d="M52.5,32.5c0.1,0,0.2-0.1,0.2-0.2V32c0-0.1-0.1-0.2-0.2-0.2h-1.9c-0.1,0-0.2,0.1-0.2,0.2v0.3
						c0,0.1,0.1,0.2,0.2,0.2H52.5z"/>
					<path fill="#FFFFFF" d="M52.5,32.5h-1.9c-0.1,0-0.2-0.1-0.2-0.2V32c0-0.1,0.1-0.2,0.2-0.2h1.9c0.1,0,0.2,0.1,0.2,0.2v0.3
						C52.7,32.4,52.6,32.5,52.5,32.5z M50.6,31.9c-0.1,0-0.1,0-0.1,0.1v0.3c0,0.1,0,0.1,0.1,0.1h1.9c0.1,0,0.1,0,0.1-0.1v-0.3
						c0-0.1,0-0.1-0.1-0.1H50.6z"/>
				</g>
			</g>
			<g>
				<g>
					<rect x="43.4" y="30.4" fill="#B5C0C9" width="1.1" height="1.4"/>
					<rect x="43.4" y="30.4" fill="none" stroke="#FFFFFF" stroke-width="0.25" stroke-miterlimit="10" width="1.1" height="1.4"/>
					<path fill="#B5C0C9" d="M44.9,32.5c0.1,0,0.2-0.1,0.2-0.2V32c0-0.1-0.1-0.2-0.2-0.2h-1.9c-0.1,0-0.2,0.1-0.2,0.2v0.3
						c0,0.1,0.1,0.2,0.2,0.2H44.9z"/>
					<path fill="#FFFFFF" d="M44.9,32.5h-1.9c-0.1,0-0.2-0.1-0.2-0.2V32c0-0.1,0.1-0.2,0.2-0.2h1.9c0.1,0,0.2,0.1,0.2,0.2v0.3
						C45.1,32.4,45.1,32.5,44.9,32.5z M43.1,31.9c-0.1,0-0.1,0-0.1,0.1v0.3c0,0.1,0,0.1,0.1,0.1h1.9c0.1,0,0.1,0,0.1-0.1v-0.3
						c0-0.1,0-0.1-0.1-0.1H43.1z"/>
				</g>
			</g>
			<g>
				<g>
					<rect x="68.1" y="42.5" fill="#B5C0C9" width="1.1" height="1.4"/>
					<rect x="68.1" y="42.5" fill="none" stroke="#FFFFFF" stroke-width="0.25" stroke-miterlimit="10" width="1.1" height="1.4"/>
					<path fill="#B5C0C9" d="M69.6,41.9c0.1,0,0.2,0.1,0.2,0.2v0.3c0,0.1-0.1,0.2-0.2,0.2h-1.9c-0.1,0-0.2-0.1-0.2-0.2V42
						c0-0.1,0.1-0.2,0.2-0.2H69.6z"/>
					<path fill="#FFFFFF" d="M69.8,42v0.3c0,0.1-0.1,0.2-0.2,0.2h-1.9c-0.1,0-0.2-0.1-0.2-0.2V42c0-0.1,0.1-0.2,0.2-0.2h1.9
						C69.7,41.8,69.8,41.9,69.8,42z M69.6,42.5c0.1,0,0.1,0,0.1-0.1v-0.3c0-0.1,0-0.1-0.1-0.1h-1.9c-0.1,0-0.1,0-0.1,0.1v0.3
						c0,0.1,0,0.1,0.1,0.1H69.6z"/>
				</g>
				<g>
					<rect x="64.2" y="42.5" fill="#B5C0C9" width="1.1" height="1.4"/>
					<rect x="64.2" y="42.5" fill="none" stroke="#FFFFFF" stroke-width="0.25" stroke-miterlimit="10" width="1.1" height="1.4"/>
					<path fill="#B5C0C9" d="M65.7,41.9c0.1,0,0.2,0.1,0.2,0.2v0.3c0,0.1-0.1,0.2-0.2,0.2h-1.9c-0.1,0-0.2-0.1-0.2-0.2V42
						c0-0.1,0.1-0.2,0.2-0.2H65.7z"/>
					<path fill="#FFFFFF" d="M65.9,42v0.3c0,0.1-0.1,0.2-0.2,0.2h-1.9c-0.1,0-0.2-0.1-0.2-0.2V42c0-0.1,0.1-0.2,0.2-0.2h1.9
						C65.8,41.8,65.9,41.9,65.9,42z M65.7,42.5c0.1,0,0.1,0,0.1-0.1v-0.3c0-0.1,0-0.1-0.1-0.1h-1.9c-0.1,0-0.1,0-0.1,0.1v0.3
						c0,0.1,0,0.1,0.1,0.1H65.7z"/>
				</g>
				<g>
					<rect x="60.3" y="42.5" fill="#B5C0C9" width="1.1" height="1.4"/>
					<rect x="60.3" y="42.5" fill="none" stroke="#FFFFFF" stroke-width="0.25" stroke-miterlimit="10" width="1.1" height="1.4"/>
					<path fill="#B5C0C9" d="M61.8,41.9c0.1,0,0.2,0.1,0.2,0.2v0.3c0,0.1-0.1,0.2-0.2,0.2H60c-0.1,0-0.2-0.1-0.2-0.2V42
						c0-0.1,0.1-0.2,0.2-0.2H61.8z"/>
					<path fill="#FFFFFF" d="M62.1,42v0.3c0,0.1-0.1,0.2-0.2,0.2H60c-0.1,0-0.2-0.1-0.2-0.2V42c0-0.1,0.1-0.2,0.2-0.2h1.9
						C61.9,41.8,62.1,41.9,62.1,42z M61.8,42.5c0.1,0,0.1,0,0.1-0.1v-0.3c0-0.1,0-0.1-0.1-0.1H60c-0.1,0-0.1,0-0.1,0.1v0.3
						c0,0.1,0,0.1,0.1,0.1H61.8z"/>
				</g>
				<g>
					<rect x="56.5" y="42.5" fill="#B5C0C9" width="1.1" height="1.4"/>
					<rect x="56.5" y="42.5" fill="none" stroke="#FFFFFF" stroke-width="0.25" stroke-miterlimit="10" width="1.1" height="1.4"/>
					<path fill="#B5C0C9" d="M58,41.9c0.1,0,0.2,0.1,0.2,0.2v0.3c0,0.1-0.1,0.2-0.2,0.2h-1.9c-0.1,0-0.2-0.1-0.2-0.2V42
						c0-0.1,0.1-0.2,0.2-0.2H58z"/>
					<path fill="#FFFFFF" d="M58.2,42v0.3c0,0.1-0.1,0.2-0.2,0.2h-1.9c-0.1,0-0.2-0.1-0.2-0.2V42c0-0.1,0.1-0.2,0.2-0.2H58
						C58.1,41.8,58.2,41.9,58.2,42z M58,42.5c0.1,0,0.1,0,0.1-0.1v-0.3c0-0.1,0-0.1-0.1-0.1h-1.9c-0.1,0-0.1,0-0.1,0.1v0.3
						c0,0.1,0,0.1,0.1,0.1H58z"/>
				</g>
				<g>
					<rect x="52.6" y="42.5" fill="#B5C0C9" width="1.1" height="1.4"/>
					<rect x="52.6" y="42.5" fill="none" stroke="#FFFFFF" stroke-width="0.25" stroke-miterlimit="10" width="1.1" height="1.4"/>
					<path fill="#B5C0C9" d="M54.1,41.9c0.1,0,0.2,0.1,0.2,0.2v0.3c0,0.1-0.1,0.2-0.2,0.2h-1.9c-0.1,0-0.2-0.1-0.2-0.2V42
						c0-0.1,0.1-0.2,0.2-0.2H54.1z"/>
					<path fill="#FFFFFF" d="M54.3,42v0.3c0,0.1-0.1,0.2-0.2,0.2h-1.9c-0.1,0-0.2-0.1-0.2-0.2V42c0-0.1,0.1-0.2,0.2-0.2h1.8
						C54.2,41.8,54.3,41.9,54.3,42z M54.1,42.5c0.1,0,0.1,0,0.1-0.1v-0.3c0-0.1,0-0.1-0.1-0.1h-1.9c-0.1,0-0.1,0-0.1,0.1v0.3
						c0,0.1,0,0.1,0.1,0.1H54.1z"/>
				</g>
				<g>
					<rect x="48.7" y="42.5" fill="#B5C0C9" width="1.1" height="1.4"/>
					<rect x="48.7" y="42.5" fill="none" stroke="#FFFFFF" stroke-width="0.25" stroke-miterlimit="10" width="1.1" height="1.4"/>
					<path fill="#B5C0C9" d="M50.2,41.9c0.1,0,0.2,0.1,0.2,0.2v0.3c0,0.1-0.1,0.2-0.2,0.2h-1.9c-0.1,0-0.2-0.1-0.2-0.2V42
						c0-0.1,0.1-0.2,0.2-0.2H50.2z"/>
					<path fill="#FFFFFF" d="M50.5,42v0.3c0,0.1-0.1,0.2-0.2,0.2h-1.9c-0.1,0-0.2-0.1-0.2-0.2V42c0-0.1,0.1-0.2,0.2-0.2h1.9
						C50.3,41.8,50.5,41.9,50.5,42z M50.2,42.5c0.1,0,0.1,0,0.1-0.1v-0.3c0-0.1,0-0.1-0.1-0.1h-1.9c-0.1,0-0.1,0-0.1,0.1v0.3
						c0,0.1,0,0.1,0.1,0.1H50.2z"/>
				</g>
				<g>
					<rect x="44.9" y="42.5" fill="#B5C0C9" width="1.1" height="1.4"/>
					<rect x="44.9" y="42.5" fill="none" stroke="#FFFFFF" stroke-width="0.25" stroke-miterlimit="10" width="1.1" height="1.4"/>
					<path fill="#B5C0C9" d="M46.3,41.9c0.1,0,0.2,0.1,0.2,0.2v0.3c0,0.1-0.1,0.2-0.2,0.2h-1.9c-0.1,0-0.2-0.1-0.2-0.2V42
						c0-0.1,0.1-0.2,0.2-0.2H46.3z"/>
					<path fill="#FFFFFF" d="M46.6,42v0.3c0,0.1-0.1,0.2-0.2,0.2h-1.9c-0.1,0-0.2-0.1-0.2-0.2V42c0-0.1,0.1-0.2,0.2-0.2h1.9
						C46.5,41.8,46.6,41.9,46.6,42z M46.3,42.5c0.1,0,0.1,0,0.1-0.1v-0.3c0-0.1,0-0.1-0.1-0.1h-1.9c-0.1,0-0.1,0-0.1,0.1v0.3
						c0,0.1,0,0.1,0.1,0.1H46.3z"/>
				</g>
				<g>
					<rect x="41" y="42.5" fill="#B5C0C9" width="1.1" height="1.4"/>
					<rect x="41" y="42.5" fill="none" stroke="#FFFFFF" stroke-width="0.25" stroke-miterlimit="10" width="1.1" height="1.4"/>
					<path fill="#B5C0C9" d="M42.5,41.9c0.1,0,0.2,0.1,0.2,0.2v0.3c0,0.1-0.1,0.2-0.2,0.2h-1.9c-0.1,0-0.2-0.1-0.2-0.2V42
						c0-0.1,0.1-0.2,0.2-0.2H42.5z"/>
					<path fill="#FFFFFF" d="M42.7,42v0.3c0,0.1-0.1,0.2-0.2,0.2h-1.9c-0.1,0-0.2-0.1-0.2-0.2V42c0-0.1,0.1-0.2,0.2-0.2h1.9
						C42.6,41.8,42.7,41.9,42.7,42z M42.5,42.5c0.1,0,0.1,0,0.1-0.1v-0.3c0-0.1,0-0.1-0.1-0.1h-1.9c-0.1,0-0.1,0-0.1,0.1v0.3
						c0,0.1,0,0.1,0.1,0.1H42.5z"/>
				</g>
			</g>
			<rect x="39.2" y="32.3" fill="#B5C0C9" width="32.1" height="9.9"/>
			<path fill="#FFFFFF" d="M71.4,42.2H39.2v-9.9h32.2V42.2z M39.2,42.1h32v-9.8h-32V42.1z"/>
			<path fill="#B5C0C9" d="M71.1,42.3c-0.1,0-0.2-0.1-0.2-0.2v-9.8c0-0.1,0.1-0.2,0.2-0.2h0.5c0.1,0,0.2,0.1,0.2,0.2v9.8
				c0,0.1-0.1,0.2-0.2,0.2H71.1z"/>
			<path fill="#FFFFFF" d="M71.6,42.4h-0.5c-0.1,0-0.3-0.1-0.3-0.3v-9.8c0-0.1,0.1-0.3,0.3-0.3h0.5c0.1,0,0.3,0.1,0.3,0.3v9.8
				C71.9,42.2,71.7,42.4,71.6,42.4z M71.1,32.1c-0.1,0-0.2,0.1-0.2,0.2v9.8c0,0.1,0.1,0.2,0.2,0.2h0.5c0.1,0,0.2-0.1,0.2-0.2v-9.8
				c0-0.1-0.1-0.2-0.2-0.2C71.6,32.1,71.1,32.1,71.1,32.1z"/>
			<path fill="#B5C0C9" d="M38.7,42.3c-0.1,0-0.2-0.1-0.2-0.2v-9.8c0-0.1,0.1-0.2,0.2-0.2h0.5c0.1,0,0.2,0.1,0.2,0.2v9.8
				c0,0.1-0.1,0.2-0.2,0.2H38.7z"/>
			<path fill="#FFFFFF" d="M39.2,42.4h-0.5c-0.1,0-0.3-0.1-0.3-0.3v-9.8c0-0.1,0.1-0.3,0.3-0.3h0.5c0.1,0,0.3,0.1,0.3,0.3v9.8
				C39.5,42.2,39.4,42.4,39.2,42.4z M38.7,32.1c-0.1,0-0.2,0.1-0.2,0.2v9.8c0,0.1,0.1,0.2,0.2,0.2h0.5c0.1,0,0.2-0.1,0.2-0.2v-9.8
				c0-0.1-0.1-0.2-0.2-0.2C39.2,32.1,38.7,32.1,38.7,32.1z"/>
		</g>
		<rect x="38.5" y="35.7" fill="none" width="33.2" height="4.4"/>
		<text transform="matrix(1 0 0 1 44.6459 38.7068)" fill="#0F1F30" font-family="'Helvetica-Light'" font-size="4.2291">Multiswitch</text>
	</g>
	<g>
		<path fill="#B5C0C9" d="M32.9,80.1h17.4c0.1-0.8,0.4-2.2,0.4-2.8c0-0.8-0.1-3.5-0.1-3.5H32.9h-0.3H15.1c0,0-0.1,2.7-0.1,3.5
			c0,0.6,0.3,2.1,0.4,2.8h17.4H32.9z"/>
		<path fill="#B5C0C9" d="M50.3,80.2h-35c0,0,0,0,0,0c-0.3-1.4-0.4-2.4-0.4-2.8c0-0.8,0.1-3.5,0.1-3.5c0,0,0,0,0,0h35.5c0,0,0,0,0,0
			c0,0,0.1,2.7,0.1,3.5C50.7,77.7,50.6,78.7,50.3,80.2C50.3,80.2,50.3,80.2,50.3,80.2z M15.3,80.1h35c0.3-1.4,0.4-2.4,0.4-2.8
			c0-0.8-0.1-3.2-0.1-3.5H15.1c0,0.3-0.1,2.7-0.1,3.5C14.9,77.7,15.1,78.7,15.3,80.1z"/>
		<path fill="#8A9AA5" d="M20.9,73.8c0,0,2.5,5.7,2.8,6.1h18.4c0,0,2.2-4.5,2.8-6.2L20.9,73.8z"/>
		<path fill="#231F20" d="M41.2,80.2H20.9c0,0,0,0,0,0c0,0,0,0,0,0L41.2,80.2C41.3,80.1,41.3,80.1,41.2,80.2
			C41.3,80.2,41.3,80.2,41.2,80.2z"/>
		<g>
			<g>
				<g>
					<path fill="#8A9AA5" d="M46.7,77c0,0.2-0.3,0.3-0.5,0.3c-0.3,0-0.5-0.1-0.5-0.3s0.3-0.3,0.5-0.3C46.4,76.7,46.7,76.8,46.7,77z"
						/>
					<path fill="#8A9AA5" d="M49.8,76.9c0,0.2-0.3,0.3-0.5,0.3c-0.3,0-0.5-0.1-0.5-0.3s0.3-0.3,0.5-0.3
						C49.6,76.7,49.8,76.8,49.8,76.9z"/>
				</g>
				<g>
					<path fill="#8A9AA5" d="M47.7,78c0.2,0,0.3,0.3,0.3,0.5c0,0.3-0.1,0.5-0.3,0.5s-0.3-0.3-0.3-0.5C47.4,78.2,47.6,78,47.7,78z"/>
					<path fill="#8A9AA5" d="M47.7,74.9c0.2,0,0.3,0.3,0.3,0.5c0,0.3-0.1,0.5-0.3,0.5s-0.3-0.3-0.3-0.5
						C47.4,75.1,47.6,74.9,47.7,74.9z"/>
				</g>
			</g>
			<path fill="#8A9AA5" d="M48.3,77c0,0.3-0.3,0.6-0.6,0.6s-0.6-0.3-0.6-0.6s0.3-0.6,0.6-0.6C48.1,76.4,48.3,76.6,48.3,77z"/>
		</g>
		<path fill="#FFFFFF" d="M50.5,80.3H15.2l0-0.1c-0.3-1.5-0.4-2.4-0.4-2.9c0-0.8,0.1-3.4,0.1-3.5v-0.2h35.8v0.2
			c0,0.1,0.1,2.7,0.1,3.5c0,0.4-0.1,1.4-0.4,2.9L50.5,80.3z M15.5,80h34.8c0.2-1.4,0.3-2.3,0.3-2.7c0-0.7-0.1-2.8-0.1-3.3H15.3
			c0,0.6-0.1,2.7-0.1,3.3C15.2,77.7,15.3,78.6,15.5,80z"/>
		<path fill="#8A9AA5" d="M16.4,78.3c0-0.1,0.1-0.2,0.3-0.2h4.1c0.2,0,0.3,0.1,0.3,0.2v0.8c0,0.1-0.1,0.2-0.3,0.2h-4.1
			c-0.2,0-0.3-0.1-0.3-0.2C16.4,79.1,16.4,78.3,16.4,78.3z"/>
	</g>
	<rect x="15.6" y="75.2" fill="none" width="34.3" height="4.4"/>
	<text transform="matrix(1 0 0 1 24.4082 78.2386)" fill="#0F1F30" font-family="'Helvetica-Light'" font-size="4.2291">Receiver</text>
	<g>
		<path fill="#B5C0C9" d="M32.9,70.1h17.4c0.1-0.8,0.4-2.2,0.4-2.8c0-0.8-0.1-3.5-0.1-3.5H32.9h-0.3H15.1c0,0-0.1,2.7-0.1,3.5
			c0,0.6,0.3,2.1,0.4,2.8h17.4H32.9z"/>
		<path fill="#B5C0C9" d="M50.3,70.1h-35c0,0,0,0,0,0c-0.3-1.4-0.4-2.4-0.4-2.8c0-0.8,0.1-3.5,0.1-3.5c0,0,0,0,0,0h35.5c0,0,0,0,0,0
			s0.1,2.7,0.1,3.5C50.7,67.6,50.6,68.7,50.3,70.1C50.3,70.1,50.3,70.1,50.3,70.1z M15.3,70.1h35c0.3-1.4,0.4-2.4,0.4-2.8
			c0-0.8-0.1-3.2-0.1-3.5H15.1c0,0.3-0.1,2.7-0.1,3.5C14.9,67.6,15.1,68.6,15.3,70.1z"/>
		<path fill="#8A9AA5" d="M20.9,63.8c0,0,2.5,5.7,2.8,6.1h18.4c0,0,2.2-4.5,2.8-6.2L20.9,63.8z"/>
		<path fill="#231F20" d="M41.2,70.1H20.9c0,0,0,0,0,0c0,0,0,0,0,0L41.2,70.1C41.3,70.1,41.3,70.1,41.2,70.1
			C41.3,70.1,41.3,70.1,41.2,70.1z"/>
		<g>
			<g>
				<g>
					<path fill="#8A9AA5" d="M46.7,66.9c0,0.2-0.3,0.3-0.5,0.3c-0.3,0-0.5-0.1-0.5-0.3s0.3-0.3,0.5-0.3
						C46.4,66.6,46.7,66.8,46.7,66.9z"/>
					<path fill="#8A9AA5" d="M49.8,66.9c0,0.2-0.3,0.3-0.5,0.3c-0.3,0-0.5-0.1-0.5-0.3s0.3-0.3,0.5-0.3
						C49.6,66.6,49.8,66.8,49.8,66.9z"/>
				</g>
				<g>
					<path fill="#8A9AA5" d="M47.7,67.9c0.2,0,0.3,0.3,0.3,0.5S47.9,69,47.7,69s-0.3-0.3-0.3-0.5C47.4,68.2,47.6,67.9,47.7,67.9z"/>
					<path fill="#8A9AA5" d="M47.7,64.8c0.2,0,0.3,0.3,0.3,0.5c0,0.3-0.1,0.5-0.3,0.5s-0.3-0.3-0.3-0.5C47.4,65,47.6,64.8,47.7,64.8
						z"/>
				</g>
			</g>
			<path fill="#8A9AA5" d="M48.3,66.9c0,0.3-0.3,0.6-0.6,0.6s-0.6-0.3-0.6-0.6s0.3-0.6,0.6-0.6C48.1,66.3,48.3,66.6,48.3,66.9z"/>
		</g>
		<path fill="#FFFFFF" d="M50.5,70.2H15.2l0-0.1c-0.3-1.5-0.4-2.4-0.4-2.9c0-0.8,0.1-3.4,0.1-3.5v-0.2h35.8v0.2
			c0,0.1,0.1,2.7,0.1,3.5c0,0.4-0.1,1.4-0.4,2.9L50.5,70.2z M15.5,69.9h34.8c0.2-1.4,0.3-2.3,0.3-2.7c0-0.7-0.1-2.8-0.1-3.3H15.3
			c0,0.6-0.1,2.7-0.1,3.3C15.2,67.6,15.3,68.6,15.5,69.9z"/>
		<path fill="#8A9AA5" d="M16.4,68.2c0-0.1,0.1-0.2,0.3-0.2h4.1c0.2,0,0.3,0.1,0.3,0.2V69c0,0.1-0.1,0.2-0.3,0.2h-4.1
			c-0.2,0-0.3-0.1-0.3-0.2V68.2z"/>
	</g>
	<rect x="15.6" y="65.2" fill="none" width="34.3" height="4.4"/>
	<text transform="matrix(1 0 0 1 24.4082 68.1948)" fill="#0F1F30" font-family="'Helvetica-Light'" font-size="4.2291">Receiver</text>
	<g>
		<path fill="#B5C0C9" d="M77.5,74.5h17.4c0.1-0.8,0.4-2.2,0.4-2.8c0-0.8-0.1-3.5-0.1-3.5H77.5h-0.3H59.6c0,0-0.1,2.7-0.1,3.5
			c0,0.6,0.3,2.1,0.4,2.8h17.4H77.5z"/>
		<path fill="#B5C0C9" d="M94.8,74.6h-35c0,0,0,0,0,0c-0.3-1.4-0.4-2.4-0.4-2.8c0-0.8,0.1-3.5,0.1-3.5c0,0,0,0,0,0H95c0,0,0,0,0,0
			s0.1,2.7,0.1,3.5C95.2,72.1,95.1,73.1,94.8,74.6C94.9,74.6,94.8,74.6,94.8,74.6z M59.8,74.5h35c0.3-1.4,0.4-2.4,0.4-2.8
			c0-0.8-0.1-3.2-0.1-3.5H59.6c0,0.3-0.1,2.7-0.1,3.5C59.5,72.1,59.6,73.1,59.8,74.5z"/>
		<path fill="#8A9AA5" d="M65.4,68.2c0,0,2.5,5.7,2.8,6.1h18.4c0,0,2.2-4.5,2.8-6.2L65.4,68.2z"/>
		<path fill="#231F20" d="M85.8,74.6H65.4c0,0,0,0,0,0c0,0,0,0,0,0L85.8,74.6C85.8,74.5,85.8,74.5,85.8,74.6
			C85.8,74.6,85.8,74.6,85.8,74.6z"/>
		<g>
			<g>
				<g>
					<path fill="#8A9AA5" d="M91.2,71.4c0,0.2-0.3,0.3-0.5,0.3c-0.3,0-0.5-0.1-0.5-0.3s0.3-0.3,0.5-0.3C91,71.1,91.2,71.2,91.2,71.4
						z"/>
					<path fill="#8A9AA5" d="M94.4,71.4c0,0.2-0.3,0.3-0.5,0.3c-0.3,0-0.5-0.1-0.5-0.3s0.3-0.3,0.5-0.3
						C94.1,71.1,94.4,71.2,94.4,71.4z"/>
				</g>
				<g>
					<path fill="#8A9AA5" d="M92.2,72.4c0.2,0,0.3,0.3,0.3,0.5c0,0.3-0.1,0.5-0.3,0.5s-0.3-0.3-0.3-0.5C92,72.7,92.1,72.4,92.2,72.4
						z"/>
					<path fill="#8A9AA5" d="M92.2,69.3c0.2,0,0.3,0.3,0.3,0.5c0,0.3-0.1,0.5-0.3,0.5s-0.3-0.3-0.3-0.5C92,69.5,92.1,69.3,92.2,69.3
						z"/>
				</g>
			</g>
			<path fill="#8A9AA5" d="M92.8,71.4c0,0.3-0.3,0.6-0.6,0.6s-0.6-0.3-0.6-0.6c0-0.3,0.3-0.6,0.6-0.6C92.6,70.8,92.8,71.1,92.8,71.4
				z"/>
		</g>
		<path fill="#FFFFFF" d="M95,74.7H59.8l0-0.1c-0.3-1.5-0.4-2.4-0.4-2.9c0-0.8,0.1-3.4,0.1-3.5V68h35.8v0.2c0,0.1,0.1,2.7,0.1,3.5
			c0,0.4-0.1,1.4-0.4,2.9L95,74.7z M60,74.4h34.8c0.2-1.4,0.3-2.3,0.3-2.7c0-0.7-0.1-2.8-0.1-3.3H59.8c0,0.6-0.1,2.7-0.1,3.3
			C59.7,72.1,59.8,73.1,60,74.4z"/>
		<path fill="#8A9AA5" d="M61,72.7c0-0.1,0.1-0.2,0.3-0.2h4.1c0.2,0,0.3,0.1,0.3,0.2v0.8c0,0.1-0.1,0.2-0.3,0.2h-4.1
			c-0.2,0-0.3-0.1-0.3-0.2V72.7z"/>
	</g>
	<rect x="60.2" y="69.6" fill="none" width="34.3" height="4.4"/>
	<text transform="matrix(1 0 0 1 68.9405 72.6663)" fill="#0F1F30" font-family="'Helvetica-Light'" font-size="4.2291">Receiver</text>
	<g>
		<path fill="#B5C0C9" d="M77.5,64.5h17.4c0.1-0.8,0.4-2.2,0.4-2.8c0-0.8-0.1-3.5-0.1-3.5H77.5h-0.3H59.6c0,0-0.1,2.7-0.1,3.5
			c0,0.6,0.3,2.1,0.4,2.8h17.4H77.5z"/>
		<path fill="#B5C0C9" d="M94.8,64.5h-35c0,0,0,0,0,0c-0.3-1.4-0.4-2.4-0.4-2.8c0-0.8,0.1-3.5,0.1-3.5c0,0,0,0,0,0H95c0,0,0,0,0,0
			c0,0,0.1,2.7,0.1,3.5C95.2,62.1,95.1,63.1,94.8,64.5C94.9,64.5,94.8,64.5,94.8,64.5z M59.8,64.5h35c0.3-1.4,0.4-2.4,0.4-2.8
			c0-0.8-0.1-3.2-0.1-3.5H59.6c0,0.3-0.1,2.7-0.1,3.5C59.5,62.1,59.6,63.1,59.8,64.5z"/>
		<path fill="#8A9AA5" d="M65.4,58.2c0,0,2.5,5.7,2.8,6.1h18.4c0,0,2.2-4.5,2.8-6.2L65.4,58.2z"/>
		<path fill="#231F20" d="M85.8,64.5H65.4c0,0,0,0,0,0c0,0,0,0,0,0L85.8,64.5C85.8,64.5,85.8,64.5,85.8,64.5
			C85.8,64.5,85.8,64.5,85.8,64.5z"/>
		<g>
			<g>
				<g>
					<path fill="#8A9AA5" d="M91.2,61.4c0,0.2-0.3,0.3-0.5,0.3c-0.3,0-0.5-0.1-0.5-0.3s0.3-0.3,0.5-0.3C91,61.1,91.2,61.2,91.2,61.4
						z"/>
					<path fill="#8A9AA5" d="M94.4,61.3c0,0.2-0.3,0.3-0.5,0.3c-0.3,0-0.5-0.1-0.5-0.3s0.3-0.3,0.5-0.3
						C94.1,61.1,94.4,61.2,94.4,61.3z"/>
				</g>
				<g>
					<path fill="#8A9AA5" d="M92.2,62.4c0.2,0,0.3,0.3,0.3,0.5c0,0.3-0.1,0.5-0.3,0.5s-0.3-0.3-0.3-0.5
						C91.9,62.6,92.1,62.4,92.2,62.4z"/>
					<path fill="#8A9AA5" d="M92.2,59.2c0.2,0,0.3,0.3,0.3,0.5c0,0.3-0.1,0.5-0.3,0.5s-0.3-0.3-0.3-0.5C92,59.5,92.1,59.2,92.2,59.2
						z"/>
				</g>
			</g>
			<path fill="#8A9AA5" d="M92.8,61.4c0,0.3-0.3,0.6-0.6,0.6s-0.6-0.3-0.6-0.6s0.3-0.6,0.6-0.6S92.8,61,92.8,61.4z"/>
		</g>
		<path fill="#FFFFFF" d="M95,64.7H59.8l0-0.1c-0.3-1.5-0.4-2.4-0.4-2.9c0-0.8,0.1-3.4,0.1-3.5V58h35.8v0.2c0,0.1,0.1,2.7,0.1,3.5
			c0,0.4-0.1,1.4-0.4,2.9L95,64.7z M60,64.4h34.8c0.2-1.4,0.3-2.3,0.3-2.7c0-0.7-0.1-2.8-0.1-3.3H59.8c0,0.6-0.1,2.7-0.1,3.3
			C59.7,62.1,59.8,63,60,64.4z"/>
		<path fill="#8A9AA5" d="M61,62.7c0-0.1,0.1-0.2,0.3-0.2h4.1c0.2,0,0.3,0.1,0.3,0.2v0.8c0,0.1-0.1,0.2-0.3,0.2h-4.1
			c-0.2,0-0.3-0.1-0.3-0.2V62.7z"/>
	</g>
	<rect x="60.2" y="59.6" fill="none" width="34.3" height="4.4"/>
	<text transform="matrix(1 0 0 1 68.9405 62.6224)" fill="#0F1F30" font-family="'Helvetica-Light'" font-size="4.2291">Receiver</text>
	<g>
		<path fill="#B5C0C9" d="M32.9,60h17.4c0.1-0.8,0.4-2.2,0.4-2.8c0-0.8-0.1-3.5-0.1-3.5H32.9h-0.3H15.1c0,0-0.1,2.7-0.1,3.5
			c0,0.6,0.3,2.1,0.4,2.8h17.4H32.9z"/>
		<path fill="#B5C0C9" d="M50.3,60h-35c0,0,0,0,0,0c-0.3-1.4-0.4-2.4-0.4-2.8c0-0.8,0.1-3.5,0.1-3.5c0,0,0,0,0,0h35.5c0,0,0,0,0,0
			c0,0,0.1,2.7,0.1,3.5C50.7,57.6,50.6,58.6,50.3,60C50.3,60,50.3,60,50.3,60z M15.3,60h35c0.3-1.4,0.4-2.4,0.4-2.8
			c0-0.8-0.1-3.2-0.1-3.5H15.1c0,0.3-0.1,2.7-0.1,3.5C14.9,57.6,15.1,58.5,15.3,60z"/>
		<path fill="#8A9AA5" d="M20.9,53.7c0,0,2.5,5.7,2.8,6.1h18.4c0,0,2.2-4.5,2.8-6.2L20.9,53.7z"/>
		<path fill="#231F20" d="M41.2,60H20.9c0,0,0,0,0,0c0,0,0,0,0,0L41.2,60C41.3,60,41.3,60,41.2,60C41.3,60,41.3,60,41.2,60z"/>
		<g>
			<g>
				<g>
					<path fill="#8A9AA5" d="M46.7,56.8c0,0.2-0.3,0.3-0.5,0.3c-0.3,0-0.5-0.1-0.5-0.3s0.3-0.3,0.5-0.3
						C46.4,56.6,46.7,56.7,46.7,56.8z"/>
					<path fill="#8A9AA5" d="M49.8,56.8c0,0.2-0.3,0.3-0.5,0.3c-0.3,0-0.5-0.1-0.5-0.3s0.3-0.3,0.5-0.3
						C49.6,56.6,49.8,56.7,49.8,56.8z"/>
				</g>
				<g>
					<path fill="#8A9AA5" d="M47.7,57.9c0.2,0,0.3,0.3,0.3,0.5c0,0.3-0.1,0.5-0.3,0.5s-0.3-0.3-0.3-0.5
						C47.4,58.1,47.6,57.9,47.7,57.9z"/>
					<path fill="#8A9AA5" d="M47.7,54.7c0.2,0,0.3,0.3,0.3,0.5c0,0.3-0.1,0.5-0.3,0.5s-0.3-0.3-0.3-0.5
						C47.4,54.9,47.6,54.7,47.7,54.7z"/>
				</g>
			</g>
			<path fill="#8A9AA5" d="M48.3,56.8c0,0.3-0.3,0.6-0.6,0.6s-0.6-0.3-0.6-0.6s0.3-0.6,0.6-0.6C48.1,56.3,48.3,56.5,48.3,56.8z"/>
		</g>
		<path fill="#FFFFFF" d="M50.5,60.1H15.2l0-0.1c-0.3-1.5-0.4-2.4-0.4-2.9c0-0.8,0.1-3.4,0.1-3.5v-0.2h35.8v0.2
			c0,0.1,0.1,2.7,0.1,3.5c0,0.4-0.1,1.4-0.4,2.9L50.5,60.1z M15.5,59.8h34.8c0.2-1.4,0.3-2.3,0.3-2.7c0-0.7-0.1-2.8-0.1-3.3H15.3
			c0,0.6-0.1,2.7-0.1,3.3C15.2,57.6,15.3,58.5,15.5,59.8z"/>
		<path fill="#8A9AA5" d="M16.4,58.2c0-0.1,0.1-0.2,0.3-0.2h4.1c0.2,0,0.3,0.1,0.3,0.2V59c0,0.1-0.1,0.2-0.3,0.2h-4.1
			c-0.2,0-0.3-0.1-0.3-0.2C16.4,59,16.4,58.2,16.4,58.2z"/>
	</g>
	<rect x="15.6" y="55.1" fill="none" width="34.3" height="4.4"/>
	<text transform="matrix(1 0 0 1 24.4082 58.1104)" fill="#0F1F30" font-family="'Helvetica-Light'" font-size="4.2291">Receiver</text>
	<g>
		<line fill="none" stroke="#FFFFFF" stroke-width="0.25" stroke-miterlimit="10" x1="48.1" y1="17.3" x2="67" y2="17.3"/>
		<g>
			<path fill="#FFFFFF" d="M46.9,20.6h-7.8l0,0c0,0-0.9-0.3-1.2-1.2l0,0v-0.9l0.1-4.4l0,0c0.4-1.8,1.3-3,2.7-3.8
				c1.1-0.5,2.1-0.6,2.2-0.6l0,0c0,0,0,0,0.1,0c0.7,0,4.1,0.2,5,4.4l0,0l0.2,4.4v0.9l0,0c-0.2,0.5-0.5,0.8-0.8,1
				C47.2,20.6,46.9,20.6,46.9,20.6L46.9,20.6z M39.2,20.5h7.7c0.1,0,0.8-0.2,1.1-1.1v-0.9l-0.1-4.4c-0.8-4-4.1-4.2-4.8-4.2
				c0,0-0.1,0-0.1,0l0,0l0,0c-0.1,0-1.1,0-2.2,0.5c-1.4,0.7-2.3,1.9-2.6,3.7l-0.1,4.4v0.9C38.3,20.2,39.1,20.5,39.2,20.5z"/>
			<path fill="#B5C0C9" d="M38,18.6v0.9c0.3,0.8,1.2,1.1,1.2,1.1h7.8c0.8-0.2,1.1-1.1,1.1-1.1v-0.9H38z"/>
			<path fill="#FFFFFF" d="M48.1,18.6H38c0,0-0.1,0-0.1-0.1c0,0,0-0.1,0.1-0.1h10.2C48.2,18.4,48.2,18.5,48.1,18.6
				C48.2,18.6,48.2,18.6,48.1,18.6z"/>
			<path fill="#FFFFFF" d="M46.9,20.6h-7.8c0,0,0,0,0,0c0,0-0.9-0.3-1.2-1.2c0,0,0,0,0,0v-0.9l0.1-4.4l0,0c0.4-1.8,1.3-3,2.7-3.8
				c1.1-0.5,2.1-0.6,2.2-0.6l0,0c0,0,0,0,0.1,0c0.7,0,4.1,0.2,5,4.4l0,0l0.2,4.4v0.9c0,0,0,0,0,0c-0.2,0.5-0.5,0.8-0.8,1
				C47.2,20.6,46.9,20.6,46.9,20.6L46.9,20.6z M39.2,20.5h7.7c0.1,0,0.8-0.2,1.1-1.1v-0.9l-0.1-4.4c-0.8-4-4.1-4.2-4.8-4.2
				c0,0-0.1,0-0.1,0l0,0l0,0c-0.1,0-1.1,0-2.2,0.5c-1.4,0.7-2.3,1.9-2.6,3.7l-0.1,4.4v0.9C38.3,20.2,39.1,20.5,39.2,20.5z"/>
		</g>
		<rect x="35.5" y="23" fill="none" width="15" height="4.4"/>
		<text transform="matrix(1 0 0 1 36.7334 25.4252)" fill="#FFFFFF" font-family="'Helvetica'" font-size="3.3833">Antenna</text>
		<g>
			<path fill="#FFFFFF" d="M71.1,15.6l0-4.9c0,0,0-0.3-0.3-0.3l0,0c-0.3,0-0.3,0.3-0.3,0.3l0,4.9H71.1z"/>
			<path fill="#B5C0C9" d="M65.9,18.5h8.7v-2.4c0,0,0-0.3-0.9-0.4c0,0-3.1-0.3-7.7-0.4h0c-4.7,0-7.7,0.4-7.7,0.4
				c-1,0.1-0.9,0.4-0.9,0.4v2.4H65.9L65.9,18.5z"/>
			<path fill="#8A9AA5" d="M65.2,16.5c0,0.1-0.1,0.2-0.2,0.2l0,0c-0.1,0-0.2-0.1-0.2-0.2v-1.1h0.3C65.2,15.4,65.2,16.5,65.2,16.5z"
				/>
			<path fill="#8A9AA5" d="M66.1,16.5c0,0.1-0.1,0.2-0.2,0.2l0,0c-0.1,0-0.2-0.1-0.2-0.2v-1.1h0.3C66.1,15.4,66.1,16.5,66.1,16.5z"
				/>
			<path fill="#8A9AA5" d="M67,16.5c0,0.1-0.1,0.2-0.2,0.2l0,0c-0.1,0-0.2-0.1-0.2-0.2v-1.1H67V16.5z"/>
			<path fill="#FFFFFF" d="M74.7,18.6H57.1v-2.5c0,0,0-0.1,0-0.2c0.1-0.2,0.5-0.3,0.9-0.3c0,0,3.1-0.3,7.7-0.4h0
				c4.6,0,7.7,0.4,7.7,0.4c0.5,0,0.8,0.2,0.9,0.3c0,0.1,0,0.1,0,0.2L74.7,18.6L74.7,18.6z M57.3,18.4h17.3v-2.3l0,0
				c0,0,0-0.3-0.8-0.3c0,0-3.1-0.3-7.7-0.4h0c-4.6,0-7.7,0.4-7.7,0.4c-0.8,0.1-0.8,0.3-0.8,0.3l0,0l0,0L57.3,18.4L57.3,18.4z"/>
		</g>
		<rect x="57.3" y="23" fill="none" width="17.4" height="4.4"/>
		<text transform="matrix(1 0 0 1 60.1573 25.4252)" fill="#FFFFFF" font-family="'Helvetica'" font-size="3.3833">TV-Hub</text>
	</g>
</g>
</svg>
