<?xml version="1.0" encoding="utf-8"?>
<!-- Generator: Adobe Illustrator 17.1.0, SVG Export Plug-In . SVG Version: 6.00 Build 0)  -->
<!DOCTYPE svg PUBLIC "-//W3C//DTD SVG 1.1//EN" "http://www.w3.org/Graphics/SVG/1.1/DTD/svg11.dtd">
<svg version="1.1" id="Layer_1" xmlns="http://www.w3.org/2000/svg" xmlns:xlink="http://www.w3.org/1999/xlink" x="0px" y="0px"
	 viewBox="0 0 255 220" enable-background="new 0 0 255 220" xml:space="preserve">
<g>
	<line fill="none" stroke="#FFFFFF" stroke-miterlimit="10" x1="118.6" y1="89" x2="118.6" y2="187.2"/>
	<path fill="#FFFFFF" d="M132.3,89H77.4l-0.1,0c-0.2-0.1-6.1-2.2-8.7-8.3l0-0.1v-6.5l0.9-31l0,0c2.6-12.6,9-21.6,19-26.7
		c7.7-3.9,15-4,15.8-4l0.1,0c0.1,0,0.3,0,0.7,0c4.8,0,28.9,1.5,34.7,30.7l0,0.1l1.1,31l0,6.5l0,0.1c-1.5,3.6-3.8,5.7-5.4,6.8
		C133.8,88.6,132.4,89,132.3,89L132.3,89z M77.6,88h54.6c0.5-0.1,5.4-1.6,8-7.7v-6.3L139,43.1c-5.7-28.4-29.2-29.9-33.8-29.9
		c-0.4,0-0.6,0-0.7,0l0,0l-0.1,0c-0.8,0-7.9,0.1-15.4,3.9c-9.7,5-16,13.7-18.5,26l-0.9,30.9l0,6.3C71.8,85.7,76.9,87.8,77.6,88z"/>
	<path fill="#B5C0C9" d="M69.1,74.3v6.4c2.1,5.6,8.5,7.8,8.5,7.8h54.9c5.3-1.1,8.1-7.8,8.1-7.8v-6.4H69.1z"/>
	<path fill="#FFFFFF" d="M140.6,74.5H69.1c-0.3,0-0.5-0.2-0.5-0.5c0-0.3,0.2-0.5,0.5-0.5h71.5c0.3,0,0.5,0.2,0.5,0.5
		C141.1,74.3,140.9,74.5,140.6,74.5z"/>
	<path fill="#FFFFFF" d="M132.2,89H77.5c-0.1,0-0.1,0-0.2,0c-0.2-0.1-6.1-2.2-8.7-8.3c0-0.1,0-0.1,0-0.2v-6.4l0.9-30.9
		c0,0,0-0.1,0-0.1c2.6-12.6,9-21.6,19-26.7c7.7-3.9,15-4,15.8-4l0.1,0c0.1,0,0.3,0,0.7,0c4.8,0,28.9,1.5,34.7,30.7c0,0,0,0,0,0.1
		l1.1,31l0,6.4c0,0.1,0,0.1,0,0.2c-1.5,3.6-3.8,5.7-5.4,6.8c-1.8,1.2-3.2,1.5-3.3,1.5C132.3,89,132.2,89,132.2,89z M77.6,88h54.6
		c0.5-0.1,5.4-1.6,8-7.7v-6.3L139,43.1c-5.7-28.4-29.2-29.9-33.8-29.9c-0.4,0-0.6,0-0.7,0c0,0,0,0,0,0l-0.1,0
		c-0.8,0-7.9,0.1-15.4,3.9c-9.7,5-16,13.7-18.5,26l-0.9,30.9l0,6.3C71.8,85.7,76.9,87.8,77.6,88z"/>
	<g>
		<path fill="#B5C0C9" d="M127.1,207.2h53.2c0.4-2.3,1.1-6.9,1.1-8.7c0-2.5-0.4-10.8-0.4-10.8h-54h-0.8h-54c0,0-0.4,8.3-0.4,10.8
			c0,1.8,0.7,6.4,1.1,8.7h53.2H127.1z"/>
		<path fill="#B5C0C9" d="M180.3,207.3H73c0,0-0.1,0-0.1-0.1c-0.7-4.4-1.1-7.4-1.1-8.7c0-2.5,0.4-10.7,0.4-10.8c0,0,0-0.1,0.1-0.1
			H181c0,0,0.1,0,0.1,0.1c0,0.1,0.4,8.3,0.4,10.8C181.5,199.8,181.1,202.8,180.3,207.3C180.4,207.3,180.4,207.3,180.3,207.3z
			 M73,207.1h107.2c0.7-4.4,1.1-7.4,1.1-8.6c0-2.3-0.4-9.8-0.4-10.7H72.4c0,0.8-0.4,8.4-0.4,10.7C71.9,199.8,72.3,202.8,73,207.1z"
			/>
		<path fill="#8999A5" d="M90.1,187.9c0,0,7.6,17.4,8.5,18.8H155c0,0,6.8-13.8,8.7-18.9L90.1,187.9z"/>
		<path fill="#231F20" d="M152.6,207.3H90.3c0,0-0.1,0-0.1-0.1s0-0.1,0.1-0.1h62.4C152.7,207.2,152.7,207.2,152.6,207.3
			C152.7,207.3,152.7,207.3,152.6,207.3z"/>
		<g>
			<g>
				<g>
					<path fill="#8999A5" d="M169.3,197.5c0,0.5-0.8,0.9-1.7,0.9c-0.9,0-1.7-0.4-1.7-0.9c0-0.5,0.7-0.9,1.7-0.9
						C168.5,196.6,169.3,197,169.3,197.5z"/>
					<path fill="#8999A5" d="M178.9,197.5c0,0.5-0.8,0.9-1.7,0.9c-0.9,0-1.7-0.4-1.7-0.9c0-0.5,0.7-0.9,1.7-0.9
						C178.2,196.6,178.9,197,178.9,197.5z"/>
				</g>
				<g>
					<path fill="#8999A5" d="M172.4,200.6c0.5,0,0.9,0.8,0.9,1.7c0,0.9-0.4,1.7-0.9,1.7c-0.5,0-0.9-0.7-0.9-1.7
						C171.5,201.4,171.9,200.6,172.4,200.6z"/>
					<path fill="#8999A5" d="M172.4,191c0.5,0,0.9,0.8,0.9,1.7c0,0.9-0.4,1.7-0.9,1.7c-0.5,0-0.9-0.7-0.9-1.7
						C171.5,191.8,171.9,191,172.4,191z"/>
				</g>
			</g>
			<path fill="#8999A5" d="M174.2,197.5c0,1-0.8,1.8-1.8,1.8c-1,0-1.8-0.8-1.8-1.8c0-1,0.8-1.8,1.8-1.8
				C173.4,195.7,174.2,196.5,174.2,197.5z"/>
		</g>
		<path fill="#FFFFFF" d="M181,207.7H72.8l-0.1-0.4c-0.8-4.5-1.1-7.5-1.1-8.8c0-2.5,0.4-10.5,0.4-10.8l0-0.5h109.6l0,0.5
			c0,0.3,0.4,8.3,0.4,10.8c0,1.4-0.4,4.3-1.1,8.8L181,207.7z M73.7,206.7h106.5c0.7-4.2,1.1-7,1.1-8.2c0-2.1-0.3-8.5-0.4-10.3H73
			c-0.1,1.8-0.4,8.2-0.4,10.3C72.6,199.7,73,202.6,73.7,206.7z"/>
		<path fill="#8999A5" d="M76.5,201.6c0-0.4,0.4-0.7,0.9-0.7h12.4c0.5,0,0.9,0.3,0.9,0.7v2.4c0,0.4-0.4,0.7-0.9,0.7H77.5
			c-0.5,0-0.9-0.3-0.9-0.7V201.6z"/>
	</g>
	<g>
		<path fill="#FFFFFF" d="M164.3,132.3L164,98.2c0,0,0-2.3-2.1-2.3h0c-2.1,0-2.1,2.3-2.1,2.3l-0.4,34.1H164.3z"/>
		<path fill="#B5C0C9" d="M127.5,152.9h61.3V136c0,0,0.4-2.2-6.6-2.9c0,0-21.6-2.3-54.5-2.8h-0.4c-32.9,0.4-54.5,2.8-54.5,2.8
			c-7,0.6-6.6,2.9-6.6,2.9v16.9H127.5L127.5,152.9z"/>
		<path fill="#8999A5" d="M122.2,138.4c0,0.7-0.5,1.2-1.2,1.2l0,0c-0.7,0-1.2-0.5-1.2-1.2V131h2.4V138.4z"/>
		<path fill="#8999A5" d="M128.7,138.4c0,0.7-0.5,1.2-1.2,1.2l0,0c-0.7,0-1.2-0.5-1.2-1.2v-7.5h2.4V138.4z"/>
		<path fill="#8999A5" d="M135.2,138.4c0,0.7-0.5,1.2-1.2,1.2l0,0c-0.7,0-1.2-0.5-1.2-1.2v-7.5h2.4V138.4z"/>
		<path fill="#FFFFFF" d="M189.3,153.5H65.7V136c0-0.2,0-0.6,0.4-1.2c0.9-1.2,3.2-2,6.7-2.3c0.2,0,22-2.3,54.5-2.8h0.4
			c32.5,0.4,54.3,2.7,54.6,2.8c3.5,0.3,5.8,1.1,6.7,2.3c0.4,0.5,0.4,1,0.4,1.2V153.5z M66.8,152.4h121.4v-16.5l0,0
			c0,0-0.2-1.7-6.1-2.2c-0.2,0-22-2.3-54.5-2.8h-0.4c-32.4,0.4-54.2,2.7-54.4,2.8c-6,0.5-6.1,2.2-6.1,2.2l0,0.1l0,0V152.4z"/>
	</g>
	<rect x="68.7" y="58.2" fill="none" width="71.9" height="10.3"/>
	<text transform="matrix(1 0 0 1 86.0194 65.4156)" fill="#FFFFFF" font-family="'Helvetica-Light'" font-size="10">Antenna</text>
	<rect x="71.8" y="139.6" fill="none" width="71.9" height="10.3"/>
	<text transform="matrix(1 0 0 1 71.8363 146.7522)" fill="#FFFFFF" font-family="'Helvetica-Light'" font-size="10">TV-Hub</text>
	<rect x="71.8" y="193.3" fill="none" width="109.6" height="10.3"/>
	<text transform="matrix(1 0 0 1 106.8831 200.5091)" fill="#FFFFFF" font-family="'Helvetica-Light'" font-size="10">Receiver</text>
</g>
</svg>
