<?xml version="1.0" encoding="utf-8"?>
<!-- Generator: Adobe Illustrator 17.1.0, SVG Export Plug-In . SVG Version: 6.00 Build 0)  -->
<!DOCTYPE svg PUBLIC "-//W3C//DTD SVG 1.1//EN" "http://www.w3.org/Graphics/SVG/1.1/DTD/svg11.dtd">
<svg version="1.1" id="Layer_1" xmlns="http://www.w3.org/2000/svg" xmlns:xlink="http://www.w3.org/1999/xlink" x="0px" y="0px"
	 viewBox="0 0 1684.9 898.4" enable-background="new 0 0 1684.9 898.4" xml:space="preserve">
<g>
	<g>
		<line fill="#FFFFFF" x1="768.3" y1="339" x2="768.3" y2="396.3"/>
		<rect x="765.8" y="339" fill="#FFFFFF" width="4.9" height="57.4"/>
	</g>
	<g>
		<line fill="#FFFFFF" x1="599.6" y1="218.8" x2="599.6" y2="339.6"/>
		<rect x="597.2" y="218.8" fill="#FFFFFF" width="4.9" height="120.9"/>
	</g>
	<g>
		<line fill="#FFFFFF" x1="767.1" y1="339.6" x2="598.2" y2="339.6"/>
		<rect x="598.2" y="337.2" fill="#FFFFFF" width="168.8" height="4.9"/>
	</g>
	<g>
		<line fill="#FFFFFF" x1="826.2" y1="339.6" x2="657.4" y2="339.6"/>
		<rect x="657.4" y="337.2" fill="#FFFFFF" width="168.8" height="4.9"/>
	</g>
	<g>
		<line fill="#FFFFFF" x1="872.5" y1="339.6" x2="717.6" y2="339.6"/>
		<rect x="717.6" y="337.2" fill="#FFFFFF" width="154.8" height="4.9"/>
	</g>
	<g>
		<line fill="#FFFFFF" x1="936.2" y1="339" x2="936.2" y2="396.3"/>
		<rect x="933.8" y="339" fill="#FFFFFF" width="4.9" height="57.4"/>
	</g>
	<g>
		<line fill="#FFFFFF" x1="1106.7" y1="175.8" x2="1106.7" y2="339.6"/>
		<rect x="1104.3" y="175.8" fill="#FFFFFF" width="4.9" height="163.9"/>
	</g>
	<g>
		<line fill="#FFFFFF" x1="933.8" y1="339.6" x2="1109.2" y2="339.6"/>
		<rect x="933.8" y="337.2" fill="#FFFFFF" width="175.4" height="4.9"/>
	</g>
	<g>
		<line fill="#FFFFFF" x1="736.9" y1="476.5" x2="736.9" y2="616.2"/>
		<rect x="734.5" y="476.5" fill="#FFFFFF" width="4.9" height="139.7"/>
	</g>
	<g>
		<line fill="#FFFFFF" x1="209.8" y1="615.3" x2="739.4" y2="615.3"/>
		<rect x="209.8" y="612.9" fill="#FFFFFF" width="529.6" height="4.9"/>
	</g>
	<g>
		<line fill="#FFFFFF" x1="1477.8" y1="612.9" x2="1477.8" y2="870"/>
		<rect x="1475.3" y="612.9" fill="#FFFFFF" width="4.9" height="257.1"/>
	</g>
	<g>
		<line fill="#FFFFFF" x1="870" y1="340.9" x2="870" y2="423.6"/>
		<rect x="867.6" y="340.9" fill="#FFFFFF" width="4.9" height="82.6"/>
	</g>
	<g>
		<line fill="#FFFFFF" x1="970.7" y1="449.5" x2="970.7" y2="614.5"/>
		<rect x="968.2" y="449.5" fill="#FFFFFF" width="4.9" height="165"/>
	</g>
	<g>
		<line fill="#FFFFFF" x1="1480.2" y1="615.3" x2="968.2" y2="615.3"/>
		<rect x="968.2" y="612.9" fill="#FFFFFF" width="512" height="4.9"/>
	</g>
	<g>
		<line fill="#FFFFFF" x1="459.9" y1="654.8" x2="459.9" y2="862"/>
		<rect x="457.4" y="654.8" fill="#FFFFFF" width="4.9" height="207.2"/>
	</g>
	<g>
		<line fill="#FFFFFF" x1="770.4" y1="462.3" x2="770.4" y2="656.3"/>
		<rect x="768" y="462.3" fill="#FFFFFF" width="4.9" height="194"/>
	</g>
	<g>
		<line fill="#FFFFFF" x1="801.2" y1="337.2" x2="801.2" y2="730"/>
		<rect x="798.8" y="337.2" fill="#FFFFFF" width="4.9" height="392.8"/>
	</g>
	<g>
		<line fill="#FFFFFF" x1="457.4" y1="655.5" x2="772.9" y2="655.5"/>
		<rect x="457.4" y="653" fill="#FFFFFF" width="315.4" height="4.9"/>
	</g>
	<g>
		<line fill="#FFFFFF" x1="1205.7" y1="654.8" x2="1205.7" y2="741.1"/>
		<rect x="1203.2" y="654.8" fill="#FFFFFF" width="4.9" height="86.3"/>
	</g>
	<g>
		<line fill="#FFFFFF" x1="836.3" y1="462.3" x2="836.3" y2="656.3"/>
		<rect x="833.9" y="462.3" fill="#FFFFFF" width="4.9" height="194"/>
	</g>
	<g>
		<line fill="#FFFFFF" x1="1208.1" y1="655.5" x2="833.9" y2="655.5"/>
		<rect x="833.9" y="653" fill="#FFFFFF" width="374.2" height="4.9"/>
	</g>
	<g>
		<line fill="#FFFFFF" x1="458.8" y1="859.6" x2="850.2" y2="859.6"/>
		<rect x="458.8" y="857.1" fill="#FFFFFF" width="391.4" height="4.9"/>
	</g>
	<line fill="#FFFFFF" x1="703.3" y1="153.3" x2="937.7" y2="153.3"/>
	<rect x="703.3" y="150.9" fill="#FFFFFF" width="234.4" height="4.9"/>
	<g>
		<g>
			<path fill="#FFFFFF" d="M679.1,222.6H519.9l-0.2-0.1c-0.7-0.2-17.8-6.3-25.2-24.2l-0.1-0.2v-18.8l2.7-89.9l0-0.1
				c7.5-36.5,26.1-62.6,55.2-77.4C574.7,0.4,595.9,0,598.2,0l0.3,0c0.2,0,0.9,0,2,0c13.9,0,84,4.3,100.9,89l0,0.2l3.2,90l0,18.8
				l-0.1,0.2c-4.3,10.6-10.9,16.6-15.7,19.8c-5.2,3.5-9.4,4.4-9.6,4.5L679.1,222.6z M520.3,219.9h158.4c1.5-0.4,15.8-4.6,23.2-22.4
				v-18.2l-3.2-89.8C682.2,6.9,614,2.7,600.5,2.7c-1.2,0-1.9,0-1.9,0l-0.1,0l-0.4,0c-2.3,0-22.8,0.3-44.7,11.5
				c-28.3,14.4-46.4,39.8-53.7,75.4l-2.7,89.7l0,18.2C503.6,213.1,518.4,219.1,520.3,219.9z"/>
		</g>
		<g>
			<path fill="#2C3B47" d="M495.7,179.8v18.5c6.1,16.1,24.6,22.7,24.6,22.7h159.3c15.3-3.2,23.7-22.7,23.7-22.7v-18.5H495.7z"/>
		</g>
		<g>
			<path d="M703.3,198H495.7c-0.1,0-0.2-0.1-0.2-0.2s0.1-0.2,0.2-0.2h207.6c0.1,0,0.2,0.1,0.2,0.2S703.4,198,703.3,198z"/>
		</g>
		<g>
			<path d="M703.3,198.6H495.7c-0.1,0-0.2-0.1-0.2-0.2v-18.5c0-0.1,0.1-0.2,0.2-0.2h207.6c0.1,0,0.2,0.1,0.2,0.2v18.5
				C703.5,198.5,703.4,198.6,703.3,198.6z M496,198.1h207.1v-18H496V198.1z"/>
		</g>
		<g>
			<path d="M679.6,221.2H520.4c0,0-0.1,0-0.1,0c-0.2-0.1-18.7-6.7-24.8-22.8c0-0.1,0-0.1,0-0.2c0-0.1,0.1-0.1,0.2-0.1h207.6
				c0.1,0,0.1,0,0.2,0.1c0,0.1,0,0.1,0,0.2C703.4,198.6,695,218.1,679.6,221.2C679.7,221.2,679.6,221.2,679.6,221.2z M520.4,220.8
				h159.2c14-2.9,22.2-19.7,23.3-22.2H496.1C502,213.9,519.5,220.5,520.4,220.8z"/>
		</g>
		<g>
			<path fill="#FFFFFF" d="M703.3,199.1H495.7c-0.7,0-1.4-0.6-1.4-1.4c0-0.7,0.6-1.4,1.4-1.4h207.6c0.7,0,1.4,0.6,1.4,1.4
				C704.6,198.5,704,199.1,703.3,199.1z"/>
		</g>
		<g>
			<path fill="#FFFFFF" d="M703.3,180.6H495.7c-0.7,0-1.4-0.6-1.4-1.4c0-0.7,0.6-1.4,1.4-1.4h207.6c0.7,0,1.4,0.6,1.4,1.4
				C704.6,180,704,180.6,703.3,180.6z"/>
		</g>
		<g>
			<g>
				<path fill="#FFFFFF" d="M525.1,162l11.4-29.1h3.1l11.1,29.1h-2.8l-3.3-9.1h-13.2l-3.4,9.1H525.1z M532.3,150.6h11.4l-5.7-15.3
					L532.3,150.6z"/>
			</g>
			<g>
				<path fill="#FFFFFF" d="M556.7,162h-2.4v-20.9h2.4v2.9c1-1,2-1.9,3-2.5c1-0.6,2.3-1,3.7-1c1.3,0,2.5,0.2,3.6,0.7
					c1.1,0.4,2,1.2,2.8,2.3c0.5,0.8,0.8,1.5,0.9,2.3c0.1,0.8,0.1,1.6,0.1,2.5V162h-2.4v-13.6c0-1.9-0.4-3.3-1.3-4.2
					c-0.8-0.9-2.2-1.4-4.2-1.4c-0.8,0-1.4,0.1-2.1,0.3c-0.6,0.2-1.2,0.5-1.7,0.9c-0.5,0.4-0.9,0.8-1.3,1.3c-0.3,0.5-0.6,1-0.8,1.5
					c-0.2,0.7-0.4,1.3-0.4,1.9c-0.1,0.6-0.1,1.3-0.1,2V162z"/>
			</g>
			<g>
				<path fill="#FFFFFF" d="M584.1,162.1c-0.3,0.1-0.7,0.1-1.2,0.3c-0.5,0.1-1,0.2-1.6,0.2c-1.2,0-2.1-0.3-2.8-0.9
					c-0.6-0.6-0.9-1.7-0.9-3.2v-15.3h-2.9v-2h2.9v-5.8h2.4v5.8h3.9v2H580v14.3c0,0.5,0,1,0,1.3c0,0.4,0.1,0.7,0.2,0.9
					c0.1,0.2,0.3,0.4,0.6,0.5c0.3,0.1,0.7,0.2,1.2,0.2c0.3,0,0.7,0,1-0.1c0.3-0.1,0.7-0.1,1-0.2V162.1z"/>
			</g>
			<g>
				<path fill="#FFFFFF" d="M589.5,152.1c0,1.1,0.1,2.2,0.4,3.2c0.3,1,0.7,1.9,1.3,2.6c0.6,0.7,1.3,1.3,2.2,1.8
					c0.9,0.4,1.9,0.7,3.1,0.7c1.6,0,2.9-0.4,4.1-1.3c1.1-0.8,1.9-2,2.3-3.6h2.7c-0.3,1-0.7,1.9-1.2,2.8c-0.5,0.8-1.1,1.6-1.8,2.2
					c-0.7,0.6-1.6,1.1-2.6,1.5c-1,0.3-2.2,0.5-3.5,0.5c-1.7,0-3.1-0.3-4.3-0.8c-1.2-0.6-2.2-1.3-3-2.3c-0.8-1-1.4-2.1-1.7-3.5
					c-0.4-1.3-0.6-2.8-0.6-4.3s0.2-3,0.7-4.3c0.4-1.3,1.1-2.5,1.9-3.5s1.8-1.8,3-2.4c1.2-0.6,2.5-0.9,4-0.9c2.9,0,5.1,1,6.8,3
					c1.6,2,2.4,4.8,2.4,8.6H589.5z M603.1,150.1c0-1-0.1-2-0.4-2.9c-0.3-0.9-0.7-1.7-1.3-2.3c-0.6-0.7-1.2-1.2-2.1-1.6
					c-0.8-0.4-1.8-0.6-2.9-0.6s-2,0.2-2.8,0.6c-0.8,0.4-1.5,0.9-2.1,1.6c-0.6,0.7-1,1.5-1.4,2.3c-0.3,0.9-0.6,1.8-0.7,2.8H603.1z"/>
			</g>
			<g>
				<path fill="#FFFFFF" d="M612.8,162h-2.4v-20.9h2.4v2.9c1-1,2-1.9,3-2.5c1-0.6,2.3-1,3.7-1c1.3,0,2.5,0.2,3.6,0.7
					c1.1,0.4,2,1.2,2.8,2.3c0.5,0.8,0.8,1.5,0.9,2.3c0.1,0.8,0.1,1.6,0.1,2.5V162h-2.4v-13.6c0-1.9-0.4-3.3-1.3-4.2
					c-0.8-0.9-2.2-1.4-4.2-1.4c-0.8,0-1.4,0.1-2.1,0.3c-0.6,0.2-1.2,0.5-1.7,0.9c-0.5,0.4-0.9,0.8-1.3,1.3c-0.3,0.5-0.6,1-0.8,1.5
					c-0.2,0.7-0.4,1.3-0.4,1.9c-0.1,0.6-0.1,1.3-0.1,2V162z"/>
			</g>
			<g>
				<path fill="#FFFFFF" d="M635.3,162h-2.4v-20.9h2.4v2.9c1-1,2-1.9,3-2.5c1-0.6,2.3-1,3.7-1c1.3,0,2.5,0.2,3.6,0.7
					c1.1,0.4,2,1.2,2.8,2.3c0.5,0.8,0.8,1.5,0.9,2.3c0.1,0.8,0.1,1.6,0.1,2.5V162H647v-13.6c0-1.9-0.4-3.3-1.3-4.2
					c-0.8-0.9-2.2-1.4-4.2-1.4c-0.8,0-1.4,0.1-2.1,0.3c-0.6,0.2-1.2,0.5-1.7,0.9c-0.5,0.4-0.9,0.8-1.3,1.3c-0.3,0.5-0.6,1-0.8,1.5
					c-0.2,0.7-0.4,1.3-0.4,1.9c-0.1,0.6-0.1,1.3-0.1,2V162z"/>
			</g>
			<g>
				<path fill="#FFFFFF" d="M664.9,149.8c0.5-0.1,1-0.1,1.6-0.2c0.6-0.1,1.1-0.3,1.6-0.4c0.4-0.2,0.7-0.5,0.7-0.9
					c0.1-0.4,0.1-0.9,0.1-1.2c0-1.2-0.4-2.3-1.2-3c-0.8-0.8-2.1-1.2-4-1.2c-0.8,0-1.6,0.1-2.3,0.2c-0.7,0.1-1.3,0.4-1.8,0.8
					c-0.5,0.4-1,0.8-1.3,1.5c-0.3,0.6-0.6,1.4-0.7,2.3h-2.5c0.1-1.2,0.4-2.3,0.8-3.2c0.5-0.9,1.1-1.6,1.9-2.1c0.8-0.6,1.7-1,2.7-1.2
					c1-0.3,2.1-0.4,3.2-0.4c1,0,2,0.1,3,0.3c0.9,0.2,1.7,0.6,2.4,1.1c0.7,0.5,1.2,1.2,1.6,2c0.4,0.8,0.6,1.9,0.6,3.1v11.4
					c0,0.9,0.2,1.5,0.5,1.8c0.3,0.3,1,0.2,2-0.2v1.9c-0.2,0.1-0.5,0.1-0.8,0.2c-0.4,0.1-0.7,0.2-1.1,0.2c-0.4,0-0.7,0-1.1-0.1
					c-0.4-0.1-0.7-0.2-1-0.4c-0.2-0.2-0.4-0.4-0.6-0.7c-0.1-0.3-0.2-0.6-0.3-0.9c-0.1-0.3-0.1-0.7-0.1-1.1c-1,1.1-2.2,2-3.5,2.6
					c-1.3,0.6-2.7,0.9-4.3,0.9c-0.9,0-1.8-0.1-2.6-0.4c-0.8-0.2-1.6-0.6-2.2-1.1c-0.6-0.5-1.2-1.1-1.5-1.9c-0.4-0.7-0.6-1.6-0.6-2.6
					c0-3.6,2.4-5.6,7.3-6.3L664.9,149.8z M669,151.1c-1,0.4-2.1,0.7-3.1,0.8c-1,0.1-2.1,0.2-3.1,0.3c-1.9,0.1-3.3,0.6-4.3,1.3
					c-1,0.7-1.6,1.8-1.6,3.2c0,0.6,0.1,1.2,0.4,1.7c0.3,0.5,0.6,0.9,1,1.2c0.4,0.3,0.9,0.5,1.5,0.7c0.6,0.1,1.1,0.2,1.7,0.2
					c1,0,1.9-0.1,2.8-0.4c0.9-0.2,1.7-0.6,2.4-1.1c0.7-0.5,1.3-1.1,1.7-1.9c0.4-0.8,0.6-1.7,0.6-2.7V151.1z"/>
			</g>
		</g>
		<g>
			<path fill="#FFFFFF" d="M678.9,222.6H520.1c-0.1,0-0.3,0-0.4-0.1c-0.7-0.2-17.8-6.3-25.2-24.2c-0.1-0.2-0.1-0.3-0.1-0.5v-18.5
				l2.7-89.8c0-0.1,0-0.2,0-0.2c7.5-36.5,26.1-62.6,55.2-77.4C574.7,0.4,595.9,0,598.2,0l0.3,0c0.2,0,0.9,0,2,0
				c13.9,0,84,4.3,100.9,89c0,0.1,0,0.1,0,0.2l3.2,90l0,18.5c0,0.2,0,0.4-0.1,0.5c-4.3,10.6-10.9,16.6-15.7,19.8
				c-5.2,3.5-9.4,4.4-9.6,4.5C679.1,222.6,679,222.6,678.9,222.6z M520.3,219.9h158.4c1.5-0.4,15.8-4.6,23.2-22.4v-18.2l-3.2-89.8
				C682.2,6.9,614,2.7,600.5,2.7c-1.2,0-1.9,0-1.9,0c0,0-0.1,0-0.1,0l-0.3,0c-2.3,0-22.8,0.3-44.7,11.5
				c-28.3,14.4-46.4,39.8-53.7,75.4l-2.7,89.7l0,18.2C503.6,213.1,518.4,219.1,520.3,219.9z"/>
		</g>
	</g>
	<g>
		<g>
			<path fill="#FFFFFF" d="M1215,113.9l-1-99c0,0-0.1-6.8-6.1-6.8h0.1c-6,0-6.1,6.8-6.1,6.8l-1,99H1215z"/>
		</g>
		<g>
			<path fill="#2C3B47" d="M1108.1,173.8H1286v-49.2c0,0,1.2-6.4-19.1-8.3c0,0-62.9-6.8-158.2-8h-1.2c-95.4,1.2-158.2,8-158.2,8
				c-20.2,1.9-19.1,8.3-19.1,8.3v49.2H1108.1L1108.1,173.8z"/>
			<path fill="#FFFFFF" d="M1287.6,175.5h-359v-50.7c0-0.5,0-1.8,1.2-3.4c2.6-3.5,9.2-5.7,19.4-6.6c0.6-0.1,64-6.8,158.3-8h1.2
				c94.4,1.2,157.8,7.9,158.4,8c10.2,0.9,16.8,3.2,19.4,6.6c1.2,1.5,1.2,2.8,1.2,3.4V175.5z M931.8,172.2h352.6v-47.8l0,0
				c0,0-0.4-4.8-17.7-6.4c-0.7-0.1-63.9-6.8-158.1-8h-1.2c-94.2,1.2-157.4,7.9-158.1,8c-17.3,1.6-17.7,6.4-17.7,6.5l0.1,0.2
				l-0.1-0.1V172.2z"/>
		</g>
		<g>
			<path fill="#808080" d="M1092.6,131.6c0,1.9-1.5,3.5-3.5,3.5l0,0c-1.9,0-3.5-1.5-3.5-3.5v-21.3h6.9V131.6z"/>
			<path fill="#FFFFFF" d="M1089.1,135.6c-2.2,0-4-1.8-4-4v-21.3c0-0.3,0.2-0.5,0.5-0.5h6.9c0.3,0,0.5,0.2,0.5,0.5v21.3
				C1093.1,133.8,1091.3,135.6,1089.1,135.6z M1086.2,110.8v20.8c0,1.6,1.3,2.9,2.9,2.9c1.6,0,2.9-1.3,2.9-2.9v-20.8H1086.2z"/>
		</g>
		<g>
			<path fill="#808080" d="M1111.5,131.6c0,1.9-1.5,3.5-3.5,3.5l0,0c-1.9,0-3.5-1.5-3.5-3.5v-21.7h6.9V131.6z"/>
			<path fill="#FFFFFF" d="M1108.1,135.6c-2.2,0-4-1.8-4-4v-21.7c0-0.3,0.2-0.5,0.5-0.5h6.9c0.3,0,0.5,0.2,0.5,0.5v21.7
				C1112.1,133.8,1110.3,135.6,1108.1,135.6z M1105.1,110.5v21.1c0,1.6,1.3,2.9,2.9,2.9c1.6,0,2.9-1.3,2.9-2.9v-21.1H1105.1z"/>
		</g>
		<g>
			<path fill="#808080" d="M1130.4,131.6c0,1.9-1.5,3.5-3.5,3.5l0,0c-1.9,0-3.5-1.5-3.5-3.5v-21.7h6.9V131.6z"/>
			<path fill="#FFFFFF" d="M1127,135.6c-2.2,0-4-1.8-4-4v-21.7c0-0.3,0.2-0.5,0.5-0.5h6.9c0.3,0,0.5,0.2,0.5,0.5v21.7
				C1131,133.8,1129.2,135.6,1127,135.6z M1124.1,110.5v21.1c0,1.6,1.3,2.9,2.9,2.9c1.6,0,2.9-1.3,2.9-2.9v-21.1H1124.1z"/>
		</g>
		<g>
			<g>
				<path fill="#FFFFFF" d="M942.1,129.2h21.1v2.3h-9.2v26.7h-2.7v-26.7h-9.2V129.2z"/>
			</g>
			<g>
				<path fill="#FFFFFF" d="M964.6,129.2h2.9l8.8,25.8l8.7-25.8h2.9l-10.1,29.1h-3L964.6,129.2z"/>
			</g>
			<g>
				<path fill="#FFFFFF" d="M1000.4,146.5v2.5h-10.2v-2.5H1000.4z"/>
			</g>
			<g>
				<path fill="#FFFFFF" d="M1005.2,158.3v-29.1h2.7v12.5h17.2v-12.5h2.7v29.1h-2.7V144H1008v14.2H1005.2z"/>
			</g>
			<g>
				<path fill="#FFFFFF" d="M1048.2,137.3h2.4v20.9h-2.4v-2.9c-0.3,0.4-0.7,0.8-1.1,1.2c-0.4,0.4-0.9,0.8-1.4,1.1
					c-0.5,0.3-1.1,0.6-1.8,0.8s-1.5,0.3-2.4,0.3c-1.4,0-2.6-0.2-3.5-0.6c-0.9-0.4-1.7-0.9-2.3-1.6c-0.6-0.7-1-1.5-1.3-2.4
					c-0.3-0.9-0.4-1.9-0.4-3v-13.8h2.4v13.7c0,1.8,0.4,3.2,1.3,4.1c0.8,1,2.2,1.4,4.1,1.4c1,0,1.9-0.2,2.7-0.6
					c0.8-0.4,1.5-0.9,2-1.6c0.5-0.7,1-1.5,1.3-2.5c0.3-1,0.4-2,0.4-3.2V137.3z"/>
			</g>
			<g>
				<path fill="#FFFFFF" d="M1059.2,158.3h-2.4v-29.1h2.4v11.5c0.8-1.3,1.8-2.3,3.2-2.9c1.4-0.7,2.8-1,4.3-1c1.6,0,3,0.3,4.1,0.9
					c1.2,0.6,2.1,1.4,2.9,2.4c0.8,1,1.3,2.2,1.7,3.5c0.4,1.3,0.6,2.7,0.6,4.2c0,1.5-0.2,3-0.5,4.3c-0.3,1.3-0.9,2.5-1.7,3.5
					c-0.8,1-1.7,1.8-2.9,2.3c-1.2,0.6-2.6,0.8-4.3,0.8c-0.7,0-1.4-0.1-2.1-0.3c-0.7-0.2-1.4-0.5-2-0.8c-0.7-0.3-1.3-0.8-1.8-1.3
					c-0.6-0.5-1-1.1-1.4-1.8h-0.1V158.3z M1059.2,147.7c0,1.3,0.2,2.4,0.5,3.5c0.3,1.1,0.8,2,1.4,2.8c0.6,0.8,1.3,1.4,2.2,1.9
					c0.9,0.5,1.9,0.7,3,0.7c1,0,2-0.2,2.8-0.5c0.9-0.4,1.6-0.9,2.3-1.6c0.6-0.7,1.1-1.6,1.5-2.6c0.4-1,0.5-2.2,0.5-3.5
					c0.1-1.3-0.1-2.5-0.3-3.7c-0.3-1.1-0.7-2.1-1.3-3c-0.6-0.9-1.4-1.5-2.3-2c-0.9-0.5-2-0.7-3.2-0.7c-1.1,0-2.1,0.2-3,0.7
					c-0.9,0.5-1.6,1.1-2.2,1.9c-0.6,0.8-1.1,1.7-1.4,2.8C1059.3,145.4,1059.2,146.5,1059.2,147.7z"/>
			</g>
		</g>
	</g>
	<g>
		<g>
			<g>
				<g id="XMLID_263_">
					<g>
						<rect x="965.6" y="371.8" fill="#3C4855" width="10.1" height="12.7"/>
					</g>
					<g>
						<rect x="965.6" y="371.8" fill="none" stroke="#FFFFFF" stroke-miterlimit="10" width="10.1" height="12.7"/>
					</g>
				</g>
				<g>
					
						<rect x="965.7" y="373.4" transform="matrix(0.9925 0.1219 -0.1219 0.9925 52.7971 -115.5718)" fill="#FFFFFF" width="10" height="0.3"/>
				</g>
				<g>
					
						<rect x="965.7" y="376.5" transform="matrix(0.9925 0.1219 -0.1219 0.9925 53.1688 -115.549)" fill="#FFFFFF" width="10" height="0.3"/>
				</g>
				<g>
					
						<rect x="965.7" y="379.5" transform="matrix(0.9925 0.1219 -0.1219 0.9925 53.5405 -115.5263)" fill="#FFFFFF" width="10" height="0.3"/>
				</g>
				<g>
					
						<rect x="965.7" y="382.6" transform="matrix(0.9925 0.1219 -0.1219 0.9925 53.9121 -115.5035)" fill="#FFFFFF" width="10" height="0.3"/>
				</g>
				<g>
					
						<rect x="965" y="372" transform="matrix(0.9997 2.517704e-02 -2.517704e-02 0.9997 9.6775 -24.3197)" fill="#FFFFFF" width="11.2" height="0.3"/>
				</g>
				<path fill="#3C4855" stroke="#FFFFFF" stroke-miterlimit="10" d="M978.7,389.8c0.9,0,1.5-0.7,1.5-1.5V386c0-0.9-0.7-1.5-1.5-1.5
					h-16.2c-0.9,0-1.5,0.7-1.5,1.5v2.3c0,0.9,0.7,1.5,1.5,1.5H978.7z"/>
			</g>
			<g>
				<g id="XMLID_264_">
					<g>
						<rect x="931.9" y="371.8" fill="#3C4855" width="10.1" height="12.7"/>
					</g>
					<g>
						<rect x="931.9" y="371.8" fill="none" stroke="#FFFFFF" stroke-miterlimit="10" width="10.1" height="12.7"/>
					</g>
				</g>
				<g>
					
						<rect x="931.9" y="373.4" transform="matrix(0.9925 0.1219 -0.1219 0.9925 52.5454 -111.4591)" fill="#FFFFFF" width="10" height="0.3"/>
				</g>
				<g>
					
						<rect x="931.9" y="376.5" transform="matrix(0.9925 0.1219 -0.1219 0.9925 52.9171 -111.4364)" fill="#FFFFFF" width="10" height="0.3"/>
				</g>
				<g>
					
						<rect x="931.9" y="379.5" transform="matrix(0.9925 0.1219 -0.1219 0.9925 53.2888 -111.4136)" fill="#FFFFFF" width="10" height="0.3"/>
				</g>
				<g>
					
						<rect x="931.9" y="382.6" transform="matrix(0.9925 0.1219 -0.1219 0.9925 53.6605 -111.3909)" fill="#FFFFFF" width="10" height="0.3"/>
				</g>
				<g>
					
						<rect x="931.3" y="372" transform="matrix(0.9997 2.517704e-02 -2.517704e-02 0.9997 9.6668 -23.4706)" fill="#FFFFFF" width="11.2" height="0.3"/>
				</g>
				<path fill="#3C4855" stroke="#FFFFFF" stroke-miterlimit="10" d="M944.9,389.8c0.9,0,1.5-0.7,1.5-1.5V386c0-0.9-0.7-1.5-1.5-1.5
					h-16.2c-0.9,0-1.5,0.7-1.5,1.5v2.3c0,0.9,0.7,1.5,1.5,1.5H944.9z"/>
			</g>
			<g>
				<g id="XMLID_265_">
					<g>
						<rect x="898.2" y="371.8" fill="#3C4855" width="10.1" height="12.7"/>
					</g>
					<g>
						<rect x="898.2" y="371.8" fill="none" stroke="#FFFFFF" stroke-miterlimit="10" width="10.1" height="12.7"/>
					</g>
				</g>
				<g>
					
						<rect x="898.2" y="373.4" transform="matrix(0.9925 0.1219 -0.1219 0.9925 52.2937 -107.3465)" fill="#FFFFFF" width="10" height="0.3"/>
				</g>
				<g>
					
						<rect x="898.2" y="376.5" transform="matrix(0.9925 0.1219 -0.1219 0.9925 52.6654 -107.3237)" fill="#FFFFFF" width="10" height="0.3"/>
				</g>
				<g>
					
						<rect x="898.2" y="379.5" transform="matrix(0.9925 0.1219 -0.1219 0.9925 53.0371 -107.301)" fill="#FFFFFF" width="10" height="0.3"/>
				</g>
				<g>
					
						<rect x="898.2" y="382.6" transform="matrix(0.9925 0.1219 -0.1219 0.9925 53.4088 -107.2782)" fill="#FFFFFF" width="10" height="0.3"/>
				</g>
				<g>
					
						<rect x="897.6" y="372" transform="matrix(0.9997 2.517704e-02 -2.517704e-02 0.9997 9.6561 -22.6214)" fill="#FFFFFF" width="11.2" height="0.3"/>
				</g>
				<path fill="#3C4855" stroke="#FFFFFF" stroke-miterlimit="10" d="M911.2,389.8c0.9,0,1.5-0.7,1.5-1.5V386c0-0.9-0.7-1.5-1.5-1.5
					H895c-0.9,0-1.5,0.7-1.5,1.5v2.3c0,0.9,0.7,1.5,1.5,1.5H911.2z"/>
			</g>
			<g>
				<g id="XMLID_266_">
					<g>
						<rect x="864.4" y="371.8" fill="#3C4855" width="10.1" height="12.7"/>
					</g>
					<g>
						<rect x="864.4" y="371.8" fill="none" stroke="#FFFFFF" stroke-miterlimit="10" width="10.1" height="12.7"/>
					</g>
				</g>
				<g>
					
						<rect x="864.5" y="373.4" transform="matrix(0.9925 0.1219 -0.1219 0.9925 52.0421 -103.2338)" fill="#FFFFFF" width="10" height="0.3"/>
				</g>
				<g>
					
						<rect x="864.5" y="376.5" transform="matrix(0.9925 0.1219 -0.1219 0.9925 52.4138 -103.2111)" fill="#FFFFFF" width="10" height="0.3"/>
				</g>
				<g>
					
						<rect x="864.5" y="379.5" transform="matrix(0.9925 0.1219 -0.1219 0.9925 52.7854 -103.1883)" fill="#FFFFFF" width="10" height="0.3"/>
				</g>
				<g>
					
						<rect x="864.5" y="382.6" transform="matrix(0.9925 0.1219 -0.1219 0.9925 53.1571 -103.1656)" fill="#FFFFFF" width="10" height="0.3"/>
				</g>
				<g>
					
						<rect x="863.8" y="372" transform="matrix(0.9997 2.517704e-02 -2.517704e-02 0.9997 9.6454 -21.7722)" fill="#FFFFFF" width="11.2" height="0.3"/>
				</g>
				<path fill="#3C4855" stroke="#FFFFFF" stroke-miterlimit="10" d="M877.5,389.8c0.9,0,1.5-0.7,1.5-1.5V386c0-0.9-0.7-1.5-1.5-1.5
					h-16.2c-0.9,0-1.5,0.7-1.5,1.5v2.3c0,0.9,0.7,1.5,1.5,1.5H877.5z"/>
			</g>
			<g>
				<g id="XMLID_267_">
					<g>
						<rect x="830.7" y="371.8" fill="#3C4855" width="10.1" height="12.7"/>
					</g>
					<g>
						<rect x="830.7" y="371.8" fill="none" stroke="#FFFFFF" stroke-miterlimit="10" width="10.1" height="12.7"/>
					</g>
				</g>
				<g>
					
						<rect x="830.8" y="373.4" transform="matrix(0.9925 0.1219 -0.1219 0.9925 51.7904 -99.1212)" fill="#FFFFFF" width="10" height="0.3"/>
				</g>
				<g>
					
						<rect x="830.8" y="376.5" transform="matrix(0.9925 0.1219 -0.1219 0.9925 52.1621 -99.0984)" fill="#FFFFFF" width="10" height="0.3"/>
				</g>
				<g>
					
						<rect x="830.8" y="379.5" transform="matrix(0.9925 0.1219 -0.1219 0.9925 52.5338 -99.0757)" fill="#FFFFFF" width="10" height="0.3"/>
				</g>
				<g>
					
						<rect x="830.8" y="382.6" transform="matrix(0.9925 0.1219 -0.1219 0.9925 52.9054 -99.0529)" fill="#FFFFFF" width="10" height="0.3"/>
				</g>
				<g>
					
						<rect x="830.1" y="372" transform="matrix(0.9997 2.517704e-02 -2.517704e-02 0.9997 9.6347 -20.923)" fill="#FFFFFF" width="11.2" height="0.3"/>
				</g>
				<path fill="#3C4855" stroke="#FFFFFF" stroke-miterlimit="10" d="M843.7,389.8c0.9,0,1.5-0.7,1.5-1.5V386c0-0.9-0.7-1.5-1.5-1.5
					h-16.2c-0.9,0-1.5,0.7-1.5,1.5v2.3c0,0.9,0.7,1.5,1.5,1.5H843.7z"/>
			</g>
			<g>
				<g id="XMLID_268_">
					<g>
						<rect x="797" y="371.8" fill="#3C4855" width="10.1" height="12.7"/>
					</g>
					<g>
						<rect x="797" y="371.8" fill="none" stroke="#FFFFFF" stroke-miterlimit="10" width="10.1" height="12.7"/>
					</g>
				</g>
				<g>
					
						<rect x="797" y="373.4" transform="matrix(0.9925 0.1219 -0.1219 0.9925 51.5387 -95.0085)" fill="#FFFFFF" width="10" height="0.3"/>
				</g>
				<g>
					
						<rect x="797" y="376.5" transform="matrix(0.9925 0.1219 -0.1219 0.9925 51.9104 -94.9857)" fill="#FFFFFF" width="10" height="0.3"/>
				</g>
				<g>
					
						<rect x="797" y="379.5" transform="matrix(0.9925 0.1219 -0.1219 0.9925 52.2821 -94.963)" fill="#FFFFFF" width="10" height="0.3"/>
				</g>
				<g>
					
						<rect x="797" y="382.6" transform="matrix(0.9925 0.1219 -0.1219 0.9925 52.6538 -94.9403)" fill="#FFFFFF" width="10" height="0.3"/>
				</g>
				<g>
					
						<rect x="796.4" y="372" transform="matrix(0.9997 2.517704e-02 -2.517704e-02 0.9997 9.624 -20.0738)" fill="#FFFFFF" width="11.2" height="0.3"/>
				</g>
				<path fill="#3C4855" stroke="#FFFFFF" stroke-miterlimit="10" d="M810,389.8c0.9,0,1.5-0.7,1.5-1.5V386c0-0.9-0.7-1.5-1.5-1.5
					h-16.2c-0.9,0-1.5,0.7-1.5,1.5v2.3c0,0.9,0.7,1.5,1.5,1.5H810z"/>
			</g>
			<g>
				<g id="XMLID_269_">
					<g>
						<rect x="763.2" y="371.8" fill="#3C4855" width="10.1" height="12.7"/>
					</g>
					<g>
						<rect x="763.2" y="371.8" fill="none" stroke="#FFFFFF" stroke-miterlimit="10" width="10.1" height="12.7"/>
					</g>
				</g>
				<g>
					
						<rect x="763.3" y="373.4" transform="matrix(0.9925 0.1219 -0.1219 0.9925 51.287 -90.8958)" fill="#FFFFFF" width="10" height="0.3"/>
				</g>
				<g>
					
						<rect x="763.3" y="376.5" transform="matrix(0.9925 0.1219 -0.1219 0.9925 51.6587 -90.8731)" fill="#FFFFFF" width="10" height="0.3"/>
				</g>
				<g>
					
						<rect x="763.3" y="379.5" transform="matrix(0.9925 0.1219 -0.1219 0.9925 52.0304 -90.8503)" fill="#FFFFFF" width="10" height="0.3"/>
				</g>
				<g>
					
						<rect x="763.3" y="382.6" transform="matrix(0.9925 0.1219 -0.1219 0.9925 52.4021 -90.8276)" fill="#FFFFFF" width="10" height="0.3"/>
				</g>
				<g>
					
						<rect x="762.6" y="372" transform="matrix(0.9997 2.517704e-02 -2.517704e-02 0.9997 9.6133 -19.2246)" fill="#FFFFFF" width="11.2" height="0.3"/>
				</g>
				<path fill="#3C4855" stroke="#FFFFFF" stroke-miterlimit="10" d="M776.3,389.8c0.9,0,1.5-0.7,1.5-1.5V386c0-0.9-0.7-1.5-1.5-1.5
					h-16.2c-0.9,0-1.5,0.7-1.5,1.5v2.3c0,0.9,0.7,1.5,1.5,1.5H776.3z"/>
			</g>
			<g>
				<g id="XMLID_270_">
					<g>
						<rect x="729.5" y="371.8" fill="#3C4855" width="10.1" height="12.7"/>
					</g>
					<g>
						<rect x="729.5" y="371.8" fill="none" stroke="#FFFFFF" stroke-miterlimit="10" width="10.1" height="12.7"/>
					</g>
				</g>
				<g>
					
						<rect x="729.6" y="373.4" transform="matrix(0.9925 0.1219 -0.1219 0.9925 51.0354 -86.7832)" fill="#FFFFFF" width="10" height="0.3"/>
				</g>
				<g>
					
						<rect x="729.6" y="376.5" transform="matrix(0.9925 0.1219 -0.1219 0.9925 51.407 -86.7604)" fill="#FFFFFF" width="10" height="0.3"/>
				</g>
				<g>
					
						<rect x="729.6" y="379.5" transform="matrix(0.9925 0.1219 -0.1219 0.9925 51.7787 -86.7377)" fill="#FFFFFF" width="10" height="0.3"/>
				</g>
				<g>
					
						<rect x="729.6" y="382.6" transform="matrix(0.9925 0.1219 -0.1219 0.9925 52.1504 -86.715)" fill="#FFFFFF" width="10" height="0.3"/>
				</g>
				<g>
					
						<rect x="728.9" y="372" transform="matrix(0.9997 2.517704e-02 -2.517704e-02 0.9997 9.6026 -18.3755)" fill="#FFFFFF" width="11.2" height="0.3"/>
				</g>
				<path fill="#3C4855" stroke="#FFFFFF" stroke-miterlimit="10" d="M742.6,389.8c0.9,0,1.5-0.7,1.5-1.5V386c0-0.9-0.7-1.5-1.5-1.5
					h-16.2c-0.9,0-1.5,0.7-1.5,1.5v2.3c0,0.9,0.7,1.5,1.5,1.5H742.6z"/>
			</g>
		</g>
		<g>
			<g>
				<g id="XMLID_254_">
					<g>
						<rect x="965.6" y="478.5" fill="#3C4855" width="10.1" height="12.7"/>
					</g>
					<g>
						<rect x="965.6" y="478.5" fill="none" stroke="#FFFFFF" stroke-miterlimit="10" width="10.1" height="12.7"/>
					</g>
				</g>
				<g>
					
						<rect x="965.7" y="489.3" transform="matrix(0.9925 -0.1219 0.1219 0.9925 -52.4322 122.0113)" fill="#FFFFFF" width="10" height="0.3"/>
				</g>
				<g>
					
						<rect x="965.7" y="486.2" transform="matrix(0.9925 -0.1219 0.1219 0.9925 -52.0605 121.9886)" fill="#FFFFFF" width="10" height="0.3"/>
				</g>
				<g>
					
						<rect x="965.7" y="483.2" transform="matrix(0.9925 -0.1219 0.1219 0.9925 -51.6889 121.9658)" fill="#FFFFFF" width="10" height="0.3"/>
				</g>
				<g>
					
						<rect x="965.7" y="480.1" transform="matrix(0.9925 -0.1219 0.1219 0.9925 -51.3172 121.9431)" fill="#FFFFFF" width="10" height="0.3"/>
				</g>
				<g>
					
						<rect x="965" y="490.7" transform="matrix(0.9997 -2.517704e-02 2.517704e-02 0.9997 -12.0503 24.5933)" fill="#FFFFFF" width="11.2" height="0.3"/>
				</g>
				<path fill="#3C4855" stroke="#FFFFFF" stroke-miterlimit="10" d="M978.7,473.2c0.9,0,1.5,0.7,1.5,1.5v2.3c0,0.9-0.7,1.5-1.5,1.5
					h-16.2c-0.9,0-1.5-0.7-1.5-1.5v-2.3c0-0.9,0.7-1.5,1.5-1.5H978.7z"/>
			</g>
			<g>
				<g id="XMLID_253_">
					<g>
						<rect x="931.9" y="478.5" fill="#3C4855" width="10.1" height="12.7"/>
					</g>
					<g>
						<rect x="931.9" y="478.5" fill="none" stroke="#FFFFFF" stroke-miterlimit="10" width="10.1" height="12.7"/>
					</g>
				</g>
				<g>
					
						<rect x="931.9" y="489.3" transform="matrix(0.9925 -0.1219 0.1219 0.9925 -52.6839 117.8987)" fill="#FFFFFF" width="10" height="0.3"/>
				</g>
				<g>
					
						<rect x="931.9" y="486.2" transform="matrix(0.9925 -0.1219 0.1219 0.9925 -52.3122 117.8759)" fill="#FFFFFF" width="10" height="0.3"/>
				</g>
				<g>
					
						<rect x="931.9" y="483.2" transform="matrix(0.9925 -0.1219 0.1219 0.9925 -51.9405 117.8532)" fill="#FFFFFF" width="10" height="0.3"/>
				</g>
				<g>
					
						<rect x="931.9" y="480.1" transform="matrix(0.9925 -0.1219 0.1219 0.9925 -51.5689 117.8304)" fill="#FFFFFF" width="10" height="0.3"/>
				</g>
				<g>
					
						<rect x="931.3" y="490.7" transform="matrix(0.9997 -2.517704e-02 2.517704e-02 0.9997 -12.061 23.7441)" fill="#FFFFFF" width="11.2" height="0.3"/>
				</g>
				<path fill="#3C4855" stroke="#FFFFFF" stroke-miterlimit="10" d="M944.9,473.2c0.9,0,1.5,0.7,1.5,1.5v2.3c0,0.9-0.7,1.5-1.5,1.5
					h-16.2c-0.9,0-1.5-0.7-1.5-1.5v-2.3c0-0.9,0.7-1.5,1.5-1.5H944.9z"/>
			</g>
			<g>
				<g id="XMLID_252_">
					<g>
						<rect x="898.2" y="478.5" fill="#3C4855" width="10.1" height="12.7"/>
					</g>
					<g>
						<rect x="898.2" y="478.5" fill="none" stroke="#FFFFFF" stroke-miterlimit="10" width="10.1" height="12.7"/>
					</g>
				</g>
				<g>
					
						<rect x="898.2" y="489.3" transform="matrix(0.9925 -0.1219 0.1219 0.9925 -52.9356 113.786)" fill="#FFFFFF" width="10" height="0.3"/>
				</g>
				<g>
					
						<rect x="898.2" y="486.2" transform="matrix(0.9925 -0.1219 0.1219 0.9925 -52.5639 113.7633)" fill="#FFFFFF" width="10" height="0.3"/>
				</g>
				<g>
					
						<rect x="898.2" y="483.2" transform="matrix(0.9925 -0.1219 0.1219 0.9925 -52.1922 113.7405)" fill="#FFFFFF" width="10" height="0.3"/>
				</g>
				<g>
					
						<rect x="898.2" y="480.1" transform="matrix(0.9925 -0.1219 0.1219 0.9925 -51.8205 113.7178)" fill="#FFFFFF" width="10" height="0.3"/>
				</g>
				<g>
					
						<rect x="897.6" y="490.7" transform="matrix(0.9997 -2.517704e-02 2.517704e-02 0.9997 -12.0717 22.8949)" fill="#FFFFFF" width="11.2" height="0.3"/>
				</g>
				<path fill="#3C4855" stroke="#FFFFFF" stroke-miterlimit="10" d="M911.2,473.2c0.9,0,1.5,0.7,1.5,1.5v2.3c0,0.9-0.7,1.5-1.5,1.5
					H895c-0.9,0-1.5-0.7-1.5-1.5v-2.3c0-0.9,0.7-1.5,1.5-1.5H911.2z"/>
			</g>
			<g>
				<g id="XMLID_251_">
					<g>
						<rect x="864.4" y="478.5" fill="#3C4855" width="10.1" height="12.7"/>
					</g>
					<g>
						<rect x="864.4" y="478.5" fill="none" stroke="#FFFFFF" stroke-miterlimit="10" width="10.1" height="12.7"/>
					</g>
				</g>
				<g>
					
						<rect x="864.5" y="489.3" transform="matrix(0.9925 -0.1219 0.1219 0.9925 -53.1873 109.6734)" fill="#FFFFFF" width="10" height="0.3"/>
				</g>
				<g>
					
						<rect x="864.5" y="486.2" transform="matrix(0.9925 -0.1219 0.1219 0.9925 -52.8156 109.6506)" fill="#FFFFFF" width="10" height="0.3"/>
				</g>
				<g>
					
						<rect x="864.5" y="483.2" transform="matrix(0.9925 -0.1219 0.1219 0.9925 -52.4439 109.6279)" fill="#FFFFFF" width="10" height="0.3"/>
				</g>
				<g>
					
						<rect x="864.5" y="480.1" transform="matrix(0.9925 -0.1219 0.1219 0.9925 -52.0722 109.6051)" fill="#FFFFFF" width="10" height="0.3"/>
				</g>
				<g>
					
						<rect x="863.8" y="490.7" transform="matrix(0.9997 -2.517704e-02 2.517704e-02 0.9997 -12.0824 22.0457)" fill="#FFFFFF" width="11.2" height="0.3"/>
				</g>
				<path fill="#3C4855" stroke="#FFFFFF" stroke-miterlimit="10" d="M877.5,473.2c0.9,0,1.5,0.7,1.5,1.5v2.3c0,0.9-0.7,1.5-1.5,1.5
					h-16.2c-0.9,0-1.5-0.7-1.5-1.5v-2.3c0-0.9,0.7-1.5,1.5-1.5H877.5z"/>
			</g>
			<g>
				<g id="XMLID_246_">
					<g>
						<rect x="830.7" y="478.5" fill="#3C4855" width="10.1" height="12.7"/>
					</g>
					<g>
						<rect x="830.7" y="478.5" fill="none" stroke="#FFFFFF" stroke-miterlimit="10" width="10.1" height="12.7"/>
					</g>
				</g>
				<g>
					
						<rect x="830.8" y="489.3" transform="matrix(0.9925 -0.1219 0.1219 0.9925 -53.4389 105.5607)" fill="#FFFFFF" width="10" height="0.3"/>
				</g>
				<g>
					
						<rect x="830.8" y="486.2" transform="matrix(0.9925 -0.1219 0.1219 0.9925 -53.0672 105.538)" fill="#FFFFFF" width="10" height="0.3"/>
				</g>
				<g>
					
						<rect x="830.8" y="483.2" transform="matrix(0.9925 -0.1219 0.1219 0.9925 -52.6956 105.5152)" fill="#FFFFFF" width="10" height="0.3"/>
				</g>
				<g>
					
						<rect x="830.8" y="480.1" transform="matrix(0.9925 -0.1219 0.1219 0.9925 -52.3239 105.4925)" fill="#FFFFFF" width="10" height="0.3"/>
				</g>
				<g>
					
						<rect x="830.1" y="490.7" transform="matrix(0.9997 -2.517704e-02 2.517704e-02 0.9997 -12.0931 21.1966)" fill="#FFFFFF" width="11.2" height="0.3"/>
				</g>
				<path fill="#3C4855" stroke="#FFFFFF" stroke-miterlimit="10" d="M843.7,473.2c0.9,0,1.5,0.7,1.5,1.5v2.3c0,0.9-0.7,1.5-1.5,1.5
					h-16.2c-0.9,0-1.5-0.7-1.5-1.5v-2.3c0-0.9,0.7-1.5,1.5-1.5H843.7z"/>
			</g>
			<g>
				<g id="XMLID_245_">
					<g>
						<rect x="797" y="478.5" fill="#3C4855" width="10.1" height="12.7"/>
					</g>
					<g>
						<rect x="797" y="478.5" fill="none" stroke="#FFFFFF" stroke-miterlimit="10" width="10.1" height="12.7"/>
					</g>
				</g>
				<g>
					
						<rect x="797" y="489.3" transform="matrix(0.9925 -0.1219 0.1219 0.9925 -53.6906 101.4481)" fill="#FFFFFF" width="10" height="0.3"/>
				</g>
				<g>
					
						<rect x="797" y="486.2" transform="matrix(0.9925 -0.1219 0.1219 0.9925 -53.3189 101.4253)" fill="#FFFFFF" width="10" height="0.3"/>
				</g>
				<g>
					
						<rect x="797" y="483.2" transform="matrix(0.9925 -0.1219 0.1219 0.9925 -52.9473 101.4026)" fill="#FFFFFF" width="10" height="0.3"/>
				</g>
				<g>
					
						<rect x="797" y="480.1" transform="matrix(0.9925 -0.1219 0.1219 0.9925 -52.5756 101.3798)" fill="#FFFFFF" width="10" height="0.3"/>
				</g>
				<g>
					
						<rect x="796.4" y="490.7" transform="matrix(0.9997 -2.517704e-02 2.517704e-02 0.9997 -12.1038 20.3474)" fill="#FFFFFF" width="11.2" height="0.3"/>
				</g>
				<path fill="#3C4855" stroke="#FFFFFF" stroke-miterlimit="10" d="M810,473.2c0.9,0,1.5,0.7,1.5,1.5v2.3c0,0.9-0.7,1.5-1.5,1.5
					h-16.2c-0.9,0-1.5-0.7-1.5-1.5v-2.3c0-0.9,0.7-1.5,1.5-1.5H810z"/>
			</g>
			<g>
				<g id="XMLID_244_">
					<g>
						<rect x="763.2" y="478.5" fill="#3C4855" width="10.1" height="12.7"/>
					</g>
					<g>
						<rect x="763.2" y="478.5" fill="none" stroke="#FFFFFF" stroke-miterlimit="10" width="10.1" height="12.7"/>
					</g>
				</g>
				<g>
					
						<rect x="763.3" y="489.3" transform="matrix(0.9925 -0.1219 0.1219 0.9925 -53.9423 97.3354)" fill="#FFFFFF" width="10" height="0.3"/>
				</g>
				<g>
					
						<rect x="763.3" y="486.2" transform="matrix(0.9925 -0.1219 0.1219 0.9925 -53.5706 97.3127)" fill="#FFFFFF" width="10" height="0.3"/>
				</g>
				<g>
					
						<rect x="763.3" y="483.2" transform="matrix(0.9925 -0.1219 0.1219 0.9925 -53.1989 97.2899)" fill="#FFFFFF" width="10" height="0.3"/>
				</g>
				<g>
					
						<rect x="763.3" y="480.1" transform="matrix(0.9925 -0.1219 0.1219 0.9925 -52.8272 97.2672)" fill="#FFFFFF" width="10" height="0.3"/>
				</g>
				<g>
					
						<rect x="762.6" y="490.7" transform="matrix(0.9997 -2.517704e-02 2.517704e-02 0.9997 -12.1145 19.4982)" fill="#FFFFFF" width="11.2" height="0.3"/>
				</g>
				<path fill="#3C4855" stroke="#FFFFFF" stroke-miterlimit="10" d="M776.3,473.2c0.9,0,1.5,0.7,1.5,1.5v2.3c0,0.9-0.7,1.5-1.5,1.5
					h-16.2c-0.9,0-1.5-0.7-1.5-1.5v-2.3c0-0.9,0.7-1.5,1.5-1.5H776.3z"/>
			</g>
			<g>
				<g id="XMLID_243_">
					<g>
						<rect x="729.5" y="478.5" fill="#3C4855" width="10.1" height="12.7"/>
					</g>
					<g>
						<rect x="729.5" y="478.5" fill="none" stroke="#FFFFFF" stroke-miterlimit="10" width="10.1" height="12.7"/>
					</g>
				</g>
				<g>
					
						<rect x="729.6" y="489.3" transform="matrix(0.9925 -0.1219 0.1219 0.9925 -54.194 93.2227)" fill="#FFFFFF" width="10" height="0.3"/>
				</g>
				<g>
					
						<rect x="729.6" y="486.2" transform="matrix(0.9925 -0.1219 0.1219 0.9925 -53.8223 93.2)" fill="#FFFFFF" width="10" height="0.3"/>
				</g>
				<g>
					
						<rect x="729.6" y="483.2" transform="matrix(0.9925 -0.1219 0.1219 0.9925 -53.4506 93.1773)" fill="#FFFFFF" width="10" height="0.3"/>
				</g>
				<g>
					
						<rect x="729.6" y="480.1" transform="matrix(0.9925 -0.1219 0.1219 0.9925 -53.0789 93.1545)" fill="#FFFFFF" width="10" height="0.3"/>
				</g>
				<g>
					
						<rect x="728.9" y="490.7" transform="matrix(0.9997 -2.517704e-02 2.517704e-02 0.9997 -12.1252 18.649)" fill="#FFFFFF" width="11.2" height="0.3"/>
				</g>
				<path fill="#3C4855" stroke="#FFFFFF" stroke-miterlimit="10" d="M742.6,473.2c0.9,0,1.5,0.7,1.5,1.5v2.3c0,0.9-0.7,1.5-1.5,1.5
					h-16.2c-0.9,0-1.5-0.7-1.5-1.5v-2.3c0-0.9,0.7-1.5,1.5-1.5H742.6z"/>
			</g>
		</g>
		<rect x="713.5" y="388.2" fill="#3C4855" stroke="#FFFFFF" stroke-miterlimit="10" width="281.5" height="86.4"/>
		
			<path fill="#808080" stroke="#FFFFFF" stroke-width="2" stroke-linecap="round" stroke-linejoin="round" stroke-miterlimit="10" d="
			M993.3,476.2c-1,0-1.8-0.8-1.8-1.8v-86c0-1,0.8-1.8,1.8-1.8h4.3c1,0,1.8,0.8,1.8,1.8v86c0,1-0.8,1.8-1.8,1.8H993.3z"/>
		
			<path fill="#808080" stroke="#FFFFFF" stroke-width="2" stroke-linecap="round" stroke-linejoin="round" stroke-miterlimit="10" d="
			M709.6,476.2c-1,0-1.8-0.8-1.8-1.8v-86c0-1,0.8-1.8,1.8-1.8h4.3c1,0,1.8,0.8,1.8,1.8v86c0,1-0.8,1.8-1.8,1.8H709.6z"/>
		<text transform="matrix(1 0 0 1 753.7386 447.175)" fill="#FFFFFF" font-family="'Helvetica-Light'" font-size="40.3483">Multiswitch</text>
	</g>
	<g>
		<g>
			<path fill="#808080" d="M1475.8,896.5h201.9c1.5-8.9,4.3-26.2,4.3-33.1c0-9.4-1.7-40.8-1.7-40.8h-204.7h-2.9H1268
				c0,0-1.7,31.4-1.7,40.8c0,6.9,2.8,24.2,4.3,33.1h201.9H1475.8z"/>
			<path fill="#FFFFFF" d="M1677.7,896.8h-407.1c-0.1,0-0.3-0.1-0.3-0.3c-2.8-16.7-4.3-28.2-4.3-33.2c0-9.3,1.7-40.5,1.7-40.8
				c0-0.2,0.1-0.3,0.3-0.3h412.4c0.2,0,0.3,0.1,0.3,0.3c0,0.3,1.7,31.5,1.7,40.8c0,5-1.5,16.4-4.3,33.2
				C1678,896.7,1677.9,896.8,1677.7,896.8z M1270.8,896.2h406.6c2.8-16.5,4.2-27.9,4.2-32.8c0-8.8-1.5-37.3-1.7-40.5h-411.8
				c-0.2,3.2-1.7,31.7-1.7,40.5C1266.6,868.3,1268.1,879.7,1270.8,896.2z"/>
		</g>
		<g>
			<path fill="#3C4855" d="M1335.7,823.3c0,0,24.9,58.1,28.5,63.7h221.5c0,0,22-44.8,28.9-63.9L1335.7,823.3z"/>
			<path fill="#FFFFFF" d="M1586.1,887.6h-222.2l-0.2-0.3c-3.6-5.6-27.5-61.4-28.6-63.8l-0.4-0.9l280.7-0.2l-0.3,0.8
				c-6.9,19-28.7,63.5-29,64L1586.1,887.6z M1364.6,886.3h220.8c2-4.1,21.6-44.3,28.4-62.7l-277.1,0.2
				C1339.7,831,1360.8,879.9,1364.6,886.3z"/>
		</g>
		<g>
			<g>
				<path fill="#FFFFFF" d="M1405,857.1v13.2h-2.7v-29.1h11.4c3.2,0,5.6,0.6,7.3,1.8c1.7,1.2,2.5,3.1,2.5,5.8c0,1.8-0.4,3.3-1.1,4.4
					c-0.7,1.1-1.9,2-3.6,2.7c0.9,0.3,1.5,0.7,2,1.3c0.5,0.6,0.8,1.2,1.1,1.9c0.2,0.7,0.4,1.5,0.5,2.3c0.1,0.8,0.1,1.6,0.1,2.3
					c0,1.1,0.1,2,0.1,2.7c0.1,0.7,0.1,1.3,0.2,1.8c0.1,0.5,0.2,0.8,0.3,1.1c0.1,0.3,0.3,0.5,0.5,0.6v0.3h-3c-0.3-0.5-0.5-1.2-0.6-2
					c-0.1-0.9-0.2-1.8-0.3-2.7c-0.1-0.9-0.1-1.9-0.2-2.7c0-0.9-0.1-1.6-0.2-2.2c-0.2-0.8-0.4-1.4-0.8-1.9c-0.4-0.5-0.8-0.8-1.3-1.1
					c-0.5-0.2-1.1-0.4-1.7-0.5c-0.6-0.1-1.3-0.1-2-0.1H1405z M1413.5,854.8c1,0,2-0.1,2.8-0.3c0.9-0.2,1.6-0.6,2.3-1
					c0.6-0.5,1.2-1.1,1.5-1.8c0.4-0.7,0.6-1.6,0.6-2.6c0-1.1-0.2-2-0.6-2.7c-0.4-0.7-0.9-1.3-1.6-1.7c-0.7-0.4-1.4-0.7-2.3-0.8
					c-0.8-0.2-1.7-0.2-2.6-0.2h-8.7v11.2H1413.5z"/>
			</g>
			<g>
				<path fill="#FFFFFF" d="M1430.3,860.4c0,1.1,0.1,2.2,0.4,3.2c0.3,1,0.7,1.9,1.3,2.6c0.6,0.7,1.3,1.3,2.2,1.8
					c0.9,0.4,1.9,0.7,3.1,0.7c1.6,0,2.9-0.4,4.1-1.3c1.1-0.8,1.9-2,2.3-3.6h2.7c-0.3,1-0.7,1.9-1.2,2.8c-0.5,0.8-1.1,1.6-1.8,2.2
					c-0.7,0.6-1.6,1.1-2.6,1.5c-1,0.3-2.2,0.5-3.5,0.5c-1.7,0-3.1-0.3-4.3-0.8c-1.2-0.6-2.2-1.3-3-2.3c-0.8-1-1.4-2.1-1.7-3.5
					c-0.4-1.3-0.6-2.8-0.6-4.3c0-1.5,0.2-3,0.7-4.3c0.4-1.3,1.1-2.5,1.9-3.5c0.8-1,1.8-1.8,3-2.4c1.2-0.6,2.5-0.9,4-0.9
					c2.9,0,5.1,1,6.8,3c1.6,2,2.4,4.8,2.4,8.6H1430.3z M1443.9,858.4c0-1-0.1-2-0.4-2.9c-0.3-0.9-0.7-1.7-1.3-2.3
					c-0.6-0.7-1.2-1.2-2.1-1.6c-0.8-0.4-1.8-0.6-2.9-0.6s-2,0.2-2.8,0.6c-0.8,0.4-1.5,0.9-2.1,1.6c-0.6,0.7-1,1.5-1.4,2.3
					c-0.3,0.9-0.6,1.8-0.7,2.8H1443.9z"/>
			</g>
			<g>
				<path fill="#FFFFFF" d="M1466.1,856c-0.4-1.6-1.2-2.8-2.2-3.7c-1-0.9-2.4-1.3-4-1.3c-1.2,0-2.3,0.3-3.2,0.8
					c-0.9,0.5-1.6,1.2-2.2,2c-0.6,0.8-1,1.8-1.3,2.9c-0.3,1.1-0.4,2.1-0.4,3.2c0,1.1,0.1,2.2,0.4,3.2c0.3,1,0.7,2,1.2,2.8
					c0.6,0.8,1.3,1.5,2.2,2c0.9,0.5,2,0.7,3.2,0.7c1.8,0,3.2-0.5,4.3-1.5c1.1-1,1.8-2.4,2.1-4.1h2.6c-0.2,1.2-0.6,2.2-1,3.2
					c-0.5,1-1.1,1.8-1.8,2.5c-0.7,0.7-1.6,1.2-2.6,1.6c-1,0.4-2.2,0.6-3.5,0.6c-1.7,0-3.1-0.3-4.3-0.8c-1.2-0.6-2.2-1.3-3-2.3
					c-0.8-1-1.4-2.1-1.7-3.5c-0.4-1.3-0.6-2.8-0.6-4.3c0-1.5,0.2-2.8,0.6-4.2c0.4-1.3,1-2.5,1.8-3.5c0.8-1,1.8-1.8,3-2.4
					c1.2-0.6,2.6-0.9,4.1-0.9c2.4,0,4.4,0.6,5.9,1.7c1.5,1.2,2.4,3,2.8,5.4H1466.1z"/>
			</g>
			<g>
				<path fill="#FFFFFF" d="M1475.2,860.4c0,1.1,0.1,2.2,0.4,3.2s0.7,1.9,1.3,2.6c0.6,0.7,1.3,1.3,2.2,1.8c0.9,0.4,1.9,0.7,3.1,0.7
					c1.6,0,2.9-0.4,4.1-1.3c1.1-0.8,1.9-2,2.3-3.6h2.7c-0.3,1-0.7,1.9-1.2,2.8c-0.5,0.8-1.1,1.6-1.8,2.2c-0.7,0.6-1.6,1.1-2.6,1.5
					c-1,0.3-2.2,0.5-3.5,0.5c-1.7,0-3.1-0.3-4.3-0.8c-1.2-0.6-2.2-1.3-3-2.3c-0.8-1-1.4-2.1-1.7-3.5c-0.4-1.3-0.6-2.8-0.6-4.3
					c0-1.5,0.2-3,0.7-4.3c0.4-1.3,1.1-2.5,1.9-3.5s1.8-1.8,3-2.4c1.2-0.6,2.5-0.9,4-0.9c2.9,0,5.1,1,6.8,3c1.6,2,2.4,4.8,2.4,8.6
					H1475.2z M1488.8,858.4c0-1-0.1-2-0.4-2.9c-0.3-0.9-0.7-1.7-1.3-2.3c-0.6-0.7-1.2-1.2-2.1-1.6c-0.8-0.4-1.8-0.6-2.9-0.6
					s-2,0.2-2.8,0.6c-0.8,0.4-1.5,0.9-2.1,1.6c-0.6,0.7-1,1.5-1.4,2.3c-0.3,0.9-0.6,1.8-0.7,2.8H1488.8z"/>
			</g>
			<g>
				<path fill="#FFFFFF" d="M1496.4,844.9v-3.6h2.7v3.6H1496.4z M1496.5,870.3v-20.9h2.4v20.9H1496.5z"/>
			</g>
			<g>
				<path fill="#FFFFFF" d="M1502.9,849.4h2.6l6.8,17.9l6.8-17.9h2.6l-8.1,20.9h-2.7L1502.9,849.4z"/>
			</g>
			<g>
				<path fill="#FFFFFF" d="M1526.7,860.4c0,1.1,0.1,2.2,0.4,3.2c0.3,1,0.7,1.9,1.3,2.6c0.6,0.7,1.3,1.3,2.2,1.8
					c0.9,0.4,1.9,0.7,3.1,0.7c1.6,0,2.9-0.4,4.1-1.3c1.1-0.8,1.9-2,2.3-3.6h2.7c-0.3,1-0.7,1.9-1.2,2.8c-0.5,0.8-1.1,1.6-1.8,2.2
					c-0.7,0.6-1.6,1.1-2.6,1.5c-1,0.3-2.2,0.5-3.5,0.5c-1.7,0-3.1-0.3-4.3-0.8c-1.2-0.6-2.2-1.3-3-2.3c-0.8-1-1.4-2.1-1.7-3.5
					c-0.4-1.3-0.6-2.8-0.6-4.3c0-1.5,0.2-3,0.7-4.3c0.4-1.3,1.1-2.5,1.9-3.5c0.8-1,1.8-1.8,3-2.4c1.2-0.6,2.5-0.9,4-0.9
					c2.9,0,5.1,1,6.8,3c1.6,2,2.4,4.8,2.4,8.6H1526.7z M1540.4,858.4c0-1-0.1-2-0.4-2.9c-0.3-0.9-0.7-1.7-1.3-2.3
					c-0.6-0.7-1.2-1.2-2.1-1.6c-0.8-0.4-1.8-0.6-2.9-0.6s-2,0.2-2.8,0.6c-0.8,0.4-1.5,0.9-2.1,1.6c-0.6,0.7-1,1.5-1.4,2.3
					c-0.3,0.9-0.6,1.8-0.7,2.8H1540.4z"/>
			</g>
			<g>
				<path fill="#FFFFFF" d="M1550.2,870.3h-2.4v-20.9h2.4v3.9h0.1c0.7-1.7,1.5-2.8,2.6-3.5c1.1-0.7,2.5-1,4.2-1v2.6
					c-1.4,0-2.5,0.2-3.4,0.6c-0.9,0.5-1.6,1.1-2.1,1.9c-0.5,0.8-0.9,1.7-1.1,2.8c-0.2,1.1-0.3,2.2-0.3,3.3V870.3z"/>
			</g>
		</g>
		<g>
			<path fill="#231F20" d="M1572.7,897h-236.5c-0.2,0-0.3-0.1-0.3-0.3c0-0.2,0.1-0.3,0.3-0.3h236.5c0.2,0,0.3,0.1,0.3,0.3
				C1573,896.9,1572.8,897,1572.7,897z"/>
		</g>
		<g>
			<path fill="#3C4855" d="M1630.4,862.4c0,2.3-2.4,4.1-5.4,4.1c-3,0-5.4-1.8-5.4-4.1c0-2.2,2.4-4.1,5.4-4.1
				C1628,858.3,1630.4,860.2,1630.4,862.4z"/>
			<path fill="#FFFFFF" d="M1625,867.1c-3.3,0-6-2.1-6-4.7c0-2.6,2.7-4.7,6-4.7c3.3,0,6,2.1,6,4.7C1631,865,1628.3,867.1,1625,867.1
				z M1625,859c-2.6,0-4.7,1.5-4.7,3.5c0,1.9,2.1,3.5,4.7,3.5c2.6,0,4.8-1.6,4.8-3.5C1629.8,860.5,1627.7,859,1625,859z"/>
		</g>
		<g>
			<path fill="#3C4855" d="M1657.5,862.4c0-2.2,2.4-4.1,5.4-4.1c3,0,5.4,1.8,5.4,4.1c0,2.3-2.4,4.1-5.4,4.1
				C1659.8,866.5,1657.5,864.7,1657.5,862.4z"/>
			<path fill="#FFFFFF" d="M1662.8,867.1c-3.3,0-6-2.1-6-4.7c0-2.6,2.7-4.7,6-4.7s6,2.1,6,4.7C1668.8,865,1666.1,867.1,1662.8,867.1
				z M1662.8,859c-2.6,0-4.7,1.5-4.7,3.5c0,1.9,2.1,3.5,4.7,3.5c2.6,0,4.7-1.6,4.7-3.5C1667.5,860.5,1665.4,859,1662.8,859z"/>
		</g>
		<g>
			<path fill="#3C4855" d="M1644.9,852.9c-2.2,0-4.1-2.4-4.1-5.4c0-3,1.8-5.4,4.1-5.4c2.2,0,4.1,2.4,4.1,5.4
				C1649,850.5,1647.1,852.9,1644.9,852.9z"/>
			<path fill="#FFFFFF" d="M1644.9,853.5c-2.6,0-4.7-2.7-4.7-6c0-3.3,2.1-6,4.7-6c2.6,0,4.7,2.7,4.7,6
				C1649.6,850.8,1647.5,853.5,1644.9,853.5z M1644.9,842.8c-1.9,0-3.5,2.1-3.5,4.8c0,2.6,1.5,4.7,3.5,4.7c1.9,0,3.5-2.1,3.5-4.7
				C1648.3,844.9,1646.8,842.8,1644.9,842.8z"/>
		</g>
		<g>
			<path fill="#3C4855" d="M1644,872.8c2.2,0,4.1,2.4,4.1,5.4c0,3-1.8,5.4-4.1,5.4c-2.2,0-4.1-2.4-4.1-5.4
				C1640,875.2,1641.8,872.8,1644,872.8z"/>
			<path fill="#FFFFFF" d="M1644,884.1c-2.6,0-4.7-2.7-4.7-6c0-3.3,2.1-6,4.7-6c2.6,0,4.7,2.7,4.7,6
				C1648.7,881.4,1646.6,884.1,1644,884.1z M1644,873.4c-1.9,0-3.5,2.1-3.5,4.8c0,2.6,1.6,4.7,3.5,4.7c1.9,0,3.5-2.1,3.5-4.7
				C1647.5,875.5,1645.9,873.4,1644,873.4z"/>
		</g>
		<g>
			<path fill="#3C4855" d="M1650,863.2c0,3.2-2.6,5.8-5.8,5.8c-3.2,0-5.8-2.6-5.8-5.8c0-3.2,2.6-5.8,5.8-5.8
				C1647.4,857.4,1650,859.9,1650,863.2z"/>
			<path fill="#FFFFFF" d="M1644.2,869.6c-3.5,0-6.4-2.9-6.4-6.4s2.9-6.4,6.4-6.4c3.5,0,6.4,2.9,6.4,6.4S1647.8,869.6,1644.2,869.6z
				 M1644.2,858c-2.9,0-5.2,2.3-5.2,5.2c0,2.9,2.3,5.2,5.2,5.2c2.9,0,5.2-2.3,5.2-5.2C1649.4,860.3,1647.1,858,1644.2,858z"/>
		</g>
		<g>
			<path fill="#FFFFFF" d="M1680.3,898.4h-410.3l-0.3-1.5c-2.9-17-4.3-28.3-4.3-33.4c0-9.4,1.6-39.6,1.7-40.9l0.1-1.7h415.8l0.1,1.7
				c0.1,1.3,1.7,31.5,1.7,40.9c0,5.1-1.4,16.4-4.3,33.4L1680.3,898.4z M1273.2,894.7h404c2.6-15.8,4-26.5,4-31.3
				c0-8-1.2-32.3-1.6-39h-408.9c-0.3,6.7-1.6,31-1.6,39C1269.2,868.1,1270.6,878.9,1273.2,894.7z"/>
		</g>
		<g>
			<path fill="#3C4855" d="M1284.1,875.1c0-1.5,1.6-2.7,3.5-2.7h47.1c2,0,3.5,1.2,3.5,2.7v9.1c0,1.5-1.6,2.7-3.5,2.7h-47.1
				c-2,0-3.5-1.2-3.5-2.7V875.1z"/>
			<path fill="#FFFFFF" d="M1334.7,887.6h-47.1c-2.3,0-4.1-1.5-4.1-3.3v-9.1c0-1.8,1.9-3.3,4.1-3.3h47.1c2.3,0,4.1,1.5,4.1,3.3v9.1
				C1338.8,886.1,1337,887.6,1334.7,887.6z M1287.6,873.1c-1.6,0-2.9,0.9-2.9,2.1v9.1c0,1.1,1.3,2.1,2.9,2.1h47.1
				c1.6,0,2.9-0.9,2.9-2.1v-9.1c0-1.1-1.3-2.1-2.9-2.1H1287.6z"/>
		</g>
	</g>
	<g>
		<line fill="#FFFFFF" x1="212.3" y1="612.9" x2="212.3" y2="870"/>
		<rect x="209.8" y="612.9" fill="#FFFFFF" width="4.9" height="257.1"/>
	</g>
	<g>
		<g>
			<path fill="#808080" d="M210.3,896.5h201.9c1.5-8.9,4.3-26.2,4.3-33.1c0-9.4-1.7-40.8-1.7-40.8H210.1h-2.9H2.5
				c0,0-1.7,31.4-1.7,40.8c0,6.9,2.8,24.2,4.3,33.1H207H210.3z"/>
			<path fill="#FFFFFF" d="M412.2,896.8H5.1c-0.1,0-0.3-0.1-0.3-0.3c-2.8-16.7-4.3-28.2-4.3-33.2c0-9.3,1.7-40.5,1.7-40.8
				c0-0.2,0.1-0.3,0.3-0.3h412.4c0.2,0,0.3,0.1,0.3,0.3c0,0.3,1.7,31.5,1.7,40.8c0,5-1.5,16.4-4.3,33.2
				C412.5,896.7,412.4,896.8,412.2,896.8z M5.3,896.2H412c2.8-16.5,4.2-27.9,4.2-32.8c0-8.8-1.5-37.3-1.7-40.5H2.8
				c-0.2,3.2-1.7,31.7-1.7,40.5C1.1,868.3,2.6,879.7,5.3,896.2z"/>
		</g>
		<g>
			<path fill="#3C4855" d="M70.2,823.3c0,0,24.9,58.1,28.5,63.7h221.5c0,0,22-44.8,28.9-63.9L70.2,823.3z"/>
			<path fill="#FFFFFF" d="M320.6,887.6H98.4l-0.2-0.3c-3.6-5.6-27.5-61.4-28.6-63.8l-0.4-0.9l280.7-0.2l-0.3,0.8
				c-6.9,19-28.7,63.5-29,64L320.6,887.6z M99.1,886.3h220.8c2-4.1,21.6-44.3,28.4-62.7l-277.1,0.2C74.2,831,95.3,879.9,99.1,886.3z
				"/>
		</g>
		<g>
			<g>
				<path fill="#FFFFFF" d="M139.5,857.1v13.2h-2.7v-29.1h11.4c3.2,0,5.6,0.6,7.3,1.8c1.7,1.2,2.5,3.1,2.5,5.8
					c0,1.8-0.4,3.3-1.1,4.4c-0.7,1.1-1.9,2-3.6,2.7c0.9,0.3,1.5,0.7,2,1.3c0.5,0.6,0.8,1.2,1.1,1.9c0.2,0.7,0.4,1.5,0.5,2.3
					c0.1,0.8,0.1,1.6,0.1,2.3c0,1.1,0.1,2,0.1,2.7c0.1,0.7,0.1,1.3,0.2,1.8c0.1,0.5,0.2,0.8,0.3,1.1c0.1,0.3,0.3,0.5,0.5,0.6v0.3h-3
					c-0.3-0.5-0.5-1.2-0.6-2c-0.1-0.9-0.2-1.8-0.3-2.7c-0.1-0.9-0.1-1.9-0.2-2.7c0-0.9-0.1-1.6-0.2-2.2c-0.2-0.8-0.4-1.4-0.8-1.9
					c-0.4-0.5-0.8-0.8-1.3-1.1c-0.5-0.2-1.1-0.4-1.7-0.5c-0.6-0.1-1.3-0.1-2-0.1H139.5z M148,854.8c1,0,2-0.1,2.8-0.3
					c0.9-0.2,1.6-0.6,2.3-1c0.6-0.5,1.2-1.1,1.5-1.8c0.4-0.7,0.6-1.6,0.6-2.6c0-1.1-0.2-2-0.6-2.7c-0.4-0.7-0.9-1.3-1.6-1.7
					c-0.7-0.4-1.4-0.7-2.3-0.8c-0.8-0.2-1.7-0.2-2.6-0.2h-8.7v11.2H148z"/>
			</g>
			<g>
				<path fill="#FFFFFF" d="M164.8,860.4c0,1.1,0.1,2.2,0.4,3.2c0.3,1,0.7,1.9,1.3,2.6c0.6,0.7,1.3,1.3,2.2,1.8
					c0.9,0.4,1.9,0.7,3.1,0.7c1.6,0,2.9-0.4,4.1-1.3c1.1-0.8,1.9-2,2.3-3.6h2.7c-0.3,1-0.7,1.9-1.2,2.8c-0.5,0.8-1.1,1.6-1.8,2.2
					c-0.7,0.6-1.6,1.1-2.6,1.5c-1,0.3-2.2,0.5-3.5,0.5c-1.7,0-3.1-0.3-4.3-0.8c-1.2-0.6-2.2-1.3-3-2.3c-0.8-1-1.4-2.1-1.7-3.5
					c-0.4-1.3-0.6-2.8-0.6-4.3c0-1.5,0.2-3,0.7-4.3c0.4-1.3,1.1-2.5,1.9-3.5c0.8-1,1.8-1.8,3-2.4c1.2-0.6,2.5-0.9,4-0.9
					c2.9,0,5.1,1,6.8,3c1.6,2,2.4,4.8,2.4,8.6H164.8z M178.4,858.4c0-1-0.1-2-0.4-2.9c-0.3-0.9-0.7-1.7-1.3-2.3
					c-0.6-0.7-1.2-1.2-2.1-1.6c-0.8-0.4-1.8-0.6-2.9-0.6s-2,0.2-2.8,0.6c-0.8,0.4-1.5,0.9-2.1,1.6c-0.6,0.7-1,1.5-1.4,2.3
					c-0.3,0.9-0.6,1.8-0.7,2.8H178.4z"/>
			</g>
			<g>
				<path fill="#FFFFFF" d="M200.6,856c-0.4-1.6-1.2-2.8-2.2-3.7c-1-0.9-2.4-1.3-4-1.3c-1.2,0-2.3,0.3-3.2,0.8
					c-0.9,0.5-1.6,1.2-2.2,2c-0.6,0.8-1,1.8-1.3,2.9c-0.3,1.1-0.4,2.1-0.4,3.2c0,1.1,0.1,2.2,0.4,3.2c0.3,1,0.7,2,1.2,2.8
					c0.6,0.8,1.3,1.5,2.2,2c0.9,0.5,2,0.7,3.2,0.7c1.8,0,3.2-0.5,4.3-1.5c1.1-1,1.8-2.4,2.1-4.1h2.6c-0.2,1.2-0.6,2.2-1,3.2
					c-0.5,1-1.1,1.8-1.8,2.5c-0.7,0.7-1.6,1.2-2.6,1.6c-1,0.4-2.2,0.6-3.5,0.6c-1.7,0-3.1-0.3-4.3-0.8c-1.2-0.6-2.2-1.3-3-2.3
					c-0.8-1-1.4-2.1-1.7-3.5c-0.4-1.3-0.6-2.8-0.6-4.3c0-1.5,0.2-2.8,0.6-4.2c0.4-1.3,1-2.5,1.8-3.5c0.8-1,1.8-1.8,3-2.4
					c1.2-0.6,2.6-0.9,4.1-0.9c2.4,0,4.4,0.6,5.9,1.7c1.5,1.2,2.4,3,2.8,5.4H200.6z"/>
			</g>
			<g>
				<path fill="#FFFFFF" d="M209.7,860.4c0,1.1,0.1,2.2,0.4,3.2c0.3,1,0.7,1.9,1.3,2.6c0.6,0.7,1.3,1.3,2.2,1.8
					c0.9,0.4,1.9,0.7,3.1,0.7c1.6,0,2.9-0.4,4.1-1.3c1.1-0.8,1.9-2,2.3-3.6h2.7c-0.3,1-0.7,1.9-1.2,2.8c-0.5,0.8-1.1,1.6-1.8,2.2
					c-0.7,0.6-1.6,1.1-2.6,1.5c-1,0.3-2.2,0.5-3.5,0.5c-1.7,0-3.1-0.3-4.3-0.8c-1.2-0.6-2.2-1.3-3-2.3c-0.8-1-1.4-2.1-1.7-3.5
					c-0.4-1.3-0.6-2.8-0.6-4.3c0-1.5,0.2-3,0.7-4.3c0.4-1.3,1.1-2.5,1.9-3.5c0.8-1,1.8-1.8,3-2.4c1.2-0.6,2.5-0.9,4-0.9
					c2.9,0,5.1,1,6.8,3c1.6,2,2.4,4.8,2.4,8.6H209.7z M223.3,858.4c0-1-0.1-2-0.4-2.9c-0.3-0.9-0.7-1.7-1.3-2.3
					c-0.6-0.7-1.2-1.2-2.1-1.6c-0.8-0.4-1.8-0.6-2.9-0.6s-2,0.2-2.8,0.6c-0.8,0.4-1.5,0.9-2.1,1.6c-0.6,0.7-1,1.5-1.4,2.3
					c-0.3,0.9-0.6,1.8-0.7,2.8H223.3z"/>
			</g>
			<g>
				<path fill="#FFFFFF" d="M230.9,844.9v-3.6h2.7v3.6H230.9z M231,870.3v-20.9h2.4v20.9H231z"/>
			</g>
			<g>
				<path fill="#FFFFFF" d="M237.4,849.4h2.6l6.8,17.9l6.8-17.9h2.6l-8.1,20.9h-2.7L237.4,849.4z"/>
			</g>
			<g>
				<path fill="#FFFFFF" d="M261.2,860.4c0,1.1,0.1,2.2,0.4,3.2s0.7,1.9,1.3,2.6c0.6,0.7,1.3,1.3,2.2,1.8c0.9,0.4,1.9,0.7,3.1,0.7
					c1.6,0,2.9-0.4,4.1-1.3c1.1-0.8,1.9-2,2.3-3.6h2.7c-0.3,1-0.7,1.9-1.2,2.8c-0.5,0.8-1.1,1.6-1.8,2.2c-0.7,0.6-1.6,1.1-2.6,1.5
					c-1,0.3-2.2,0.5-3.5,0.5c-1.7,0-3.1-0.3-4.3-0.8c-1.2-0.6-2.2-1.3-3-2.3c-0.8-1-1.4-2.1-1.7-3.5c-0.4-1.3-0.6-2.8-0.6-4.3
					c0-1.5,0.2-3,0.7-4.3c0.4-1.3,1.1-2.5,1.9-3.5s1.8-1.8,3-2.4c1.2-0.6,2.5-0.9,4-0.9c2.9,0,5.1,1,6.8,3c1.6,2,2.4,4.8,2.4,8.6
					H261.2z M274.9,858.4c0-1-0.1-2-0.4-2.9c-0.3-0.9-0.7-1.7-1.3-2.3c-0.6-0.7-1.2-1.2-2.1-1.6c-0.8-0.4-1.8-0.6-2.9-0.6
					c-1.1,0-2,0.2-2.8,0.6c-0.8,0.4-1.5,0.9-2.1,1.6c-0.6,0.7-1,1.5-1.4,2.3c-0.3,0.9-0.6,1.8-0.7,2.8H274.9z"/>
			</g>
			<g>
				<path fill="#FFFFFF" d="M284.7,870.3h-2.4v-20.9h2.4v3.9h0.1c0.7-1.7,1.5-2.8,2.6-3.5c1.1-0.7,2.5-1,4.2-1v2.6
					c-1.4,0-2.5,0.2-3.4,0.6c-0.9,0.5-1.6,1.1-2.1,1.9c-0.5,0.8-0.9,1.7-1.1,2.8c-0.2,1.1-0.3,2.2-0.3,3.3V870.3z"/>
			</g>
		</g>
		<g>
			<path fill="#231F20" d="M307.2,897H70.7c-0.2,0-0.3-0.1-0.3-0.3c0-0.2,0.1-0.3,0.3-0.3h236.5c0.2,0,0.3,0.1,0.3,0.3
				C307.5,896.9,307.3,897,307.2,897z"/>
		</g>
		<g>
			<path fill="#3C4855" d="M364.9,862.4c0,2.3-2.4,4.1-5.4,4.1c-3,0-5.4-1.8-5.4-4.1c0-2.2,2.4-4.1,5.4-4.1
				C362.5,858.3,364.9,860.2,364.9,862.4z"/>
			<path fill="#FFFFFF" d="M359.5,867.1c-3.3,0-6-2.1-6-4.7c0-2.6,2.7-4.7,6-4.7c3.3,0,6,2.1,6,4.7
				C365.5,865,362.9,867.1,359.5,867.1z M359.5,859c-2.6,0-4.7,1.5-4.7,3.5c0,1.9,2.1,3.5,4.7,3.5c2.6,0,4.8-1.6,4.8-3.5
				C364.3,860.5,362.2,859,359.5,859z"/>
		</g>
		<g>
			<path fill="#3C4855" d="M392,862.4c0-2.2,2.4-4.1,5.4-4.1c3,0,5.4,1.8,5.4,4.1c0,2.3-2.4,4.1-5.4,4.1
				C394.4,866.5,392,864.7,392,862.4z"/>
			<path fill="#FFFFFF" d="M397.3,867.1c-3.3,0-6-2.1-6-4.7c0-2.6,2.7-4.7,6-4.7c3.3,0,6,2.1,6,4.7
				C403.3,865,400.6,867.1,397.3,867.1z M397.3,859c-2.6,0-4.7,1.5-4.7,3.5c0,1.9,2.1,3.5,4.7,3.5c2.6,0,4.7-1.6,4.7-3.5
				C402,860.5,399.9,859,397.3,859z"/>
		</g>
		<g>
			<path fill="#3C4855" d="M379.4,852.9c-2.2,0-4.1-2.4-4.1-5.4c0-3,1.8-5.4,4.1-5.4c2.2,0,4.1,2.4,4.1,5.4
				C383.5,850.5,381.6,852.9,379.4,852.9z"/>
			<path fill="#FFFFFF" d="M379.4,853.5c-2.6,0-4.7-2.7-4.7-6c0-3.3,2.1-6,4.7-6c2.6,0,4.7,2.7,4.7,6
				C384.1,850.8,382,853.5,379.4,853.5z M379.4,842.8c-1.9,0-3.5,2.1-3.5,4.8c0,2.6,1.5,4.7,3.5,4.7c1.9,0,3.5-2.1,3.5-4.7
				C382.9,844.9,381.3,842.8,379.4,842.8z"/>
		</g>
		<g>
			<path fill="#3C4855" d="M378.5,872.8c2.2,0,4.1,2.4,4.1,5.4c0,3-1.8,5.4-4.1,5.4c-2.2,0-4.1-2.4-4.1-5.4
				C374.5,875.2,376.3,872.8,378.5,872.8z"/>
			<path fill="#FFFFFF" d="M378.5,884.1c-2.6,0-4.7-2.7-4.7-6c0-3.3,2.1-6,4.7-6c2.6,0,4.7,2.7,4.7,6
				C383.2,881.4,381.1,884.1,378.5,884.1z M378.5,873.4c-1.9,0-3.5,2.1-3.5,4.8c0,2.6,1.6,4.7,3.5,4.7c1.9,0,3.5-2.1,3.5-4.7
				C382,875.5,380.5,873.4,378.5,873.4z"/>
		</g>
		<g>
			<path fill="#3C4855" d="M384.5,863.2c0,3.2-2.6,5.8-5.8,5.8c-3.2,0-5.8-2.6-5.8-5.8c0-3.2,2.6-5.8,5.8-5.8
				C381.9,857.4,384.5,859.9,384.5,863.2z"/>
			<path fill="#FFFFFF" d="M378.7,869.6c-3.5,0-6.4-2.9-6.4-6.4s2.9-6.4,6.4-6.4c3.5,0,6.4,2.9,6.4,6.4S382.3,869.6,378.7,869.6z
				 M378.7,858c-2.9,0-5.2,2.3-5.2,5.2c0,2.9,2.3,5.2,5.2,5.2c2.9,0,5.2-2.3,5.2-5.2C383.9,860.3,381.6,858,378.7,858z"/>
		</g>
		<g>
			<path fill="#FFFFFF" d="M414.8,898.4H4.6l-0.3-1.5c-2.9-17-4.3-28.3-4.3-33.4c0-9.4,1.6-39.6,1.7-40.9l0.1-1.7h415.8l0.1,1.7
				c0.1,1.3,1.7,31.5,1.7,40.9c0,5.1-1.4,16.4-4.3,33.4L414.8,898.4z M7.7,894.7h404c2.6-15.8,4-26.5,4-31.3c0-8-1.2-32.3-1.6-39
				H5.3c-0.3,6.7-1.6,31-1.6,39C3.7,868.1,5.1,878.9,7.7,894.7z"/>
		</g>
		<g>
			<path fill="#3C4855" d="M18.6,875.1c0-1.5,1.6-2.7,3.5-2.7h47.1c2,0,3.5,1.2,3.5,2.7v9.1c0,1.5-1.6,2.7-3.5,2.7H22.1
				c-2,0-3.5-1.2-3.5-2.7V875.1z"/>
			<path fill="#FFFFFF" d="M69.2,887.6H22.1c-2.3,0-4.1-1.5-4.1-3.3v-9.1c0-1.8,1.9-3.3,4.1-3.3h47.1c2.3,0,4.1,1.5,4.1,3.3v9.1
				C73.3,886.1,71.5,887.6,69.2,887.6z M22.1,873.1c-1.6,0-2.9,0.9-2.9,2.1v9.1c0,1.1,1.3,2.1,2.9,2.1h47.1c1.6,0,2.9-0.9,2.9-2.1
				v-9.1c0-1.1-1.3-2.1-2.9-2.1H22.1z"/>
		</g>
	</g>
	<g>
		<g>
			<path fill="#808080" d="M976.9,896.5h201.9c1.5-8.9,4.3-26.2,4.3-33.1c0-9.4-1.7-40.8-1.7-40.8H976.7h-2.9H769
				c0,0-1.7,31.4-1.7,40.8c0,6.9,2.8,24.2,4.3,33.1h201.9H976.9z"/>
			<path fill="#FFFFFF" d="M1178.8,896.8H771.6c-0.1,0-0.3-0.1-0.3-0.3c-2.8-16.7-4.3-28.2-4.3-33.2c0-9.3,1.7-40.5,1.7-40.8
				c0-0.2,0.1-0.3,0.3-0.3h412.4c0.2,0,0.3,0.1,0.3,0.3c0,0.3,1.7,31.5,1.7,40.8c0,5-1.5,16.4-4.3,33.2
				C1179.1,896.7,1178.9,896.8,1178.8,896.8z M771.9,896.2h406.6c2.8-16.5,4.2-27.9,4.2-32.8c0-8.8-1.5-37.3-1.7-40.5H769.3
				c-0.2,3.2-1.7,31.7-1.7,40.5C767.7,868.3,769.1,879.7,771.9,896.2z"/>
		</g>
		<g>
			<path fill="#3C4855" d="M836.8,823.3c0,0,24.9,58.1,28.5,63.7h221.5c0,0,22-44.8,28.9-63.9L836.8,823.3z"/>
			<path fill="#FFFFFF" d="M1087.2,887.6H865l-0.2-0.3c-3.6-5.6-27.5-61.4-28.6-63.8l-0.4-0.9l280.7-0.2l-0.3,0.8
				c-6.9,19-28.7,63.5-29,64L1087.2,887.6z M865.6,886.3h220.8c2-4.1,21.6-44.3,28.4-62.7l-277.1,0.2
				C840.8,831,861.8,879.9,865.6,886.3z"/>
		</g>
		<g>
			<g>
				<path fill="#FFFFFF" d="M906,857.1v13.2h-2.7v-29.1h11.4c3.2,0,5.6,0.6,7.3,1.8c1.7,1.2,2.5,3.1,2.5,5.8c0,1.8-0.4,3.3-1.1,4.4
					c-0.7,1.1-1.9,2-3.6,2.7c0.9,0.3,1.5,0.7,2,1.3c0.5,0.6,0.8,1.2,1.1,1.9c0.2,0.7,0.4,1.5,0.5,2.3c0.1,0.8,0.1,1.6,0.1,2.3
					c0,1.1,0.1,2,0.1,2.7c0.1,0.7,0.1,1.3,0.2,1.8c0.1,0.5,0.2,0.8,0.3,1.1c0.1,0.3,0.3,0.5,0.5,0.6v0.3h-3c-0.3-0.5-0.5-1.2-0.6-2
					c-0.1-0.9-0.2-1.8-0.3-2.7c-0.1-0.9-0.1-1.9-0.2-2.7c0-0.9-0.1-1.6-0.2-2.2c-0.2-0.8-0.4-1.4-0.8-1.9c-0.4-0.5-0.8-0.8-1.3-1.1
					c-0.5-0.2-1.1-0.4-1.7-0.5c-0.6-0.1-1.3-0.1-2-0.1H906z M914.6,854.8c1,0,2-0.1,2.8-0.3c0.9-0.2,1.6-0.6,2.3-1
					c0.6-0.5,1.2-1.1,1.5-1.8c0.4-0.7,0.6-1.6,0.6-2.6c0-1.1-0.2-2-0.6-2.7c-0.4-0.7-0.9-1.3-1.6-1.7c-0.7-0.4-1.4-0.7-2.3-0.8
					c-0.8-0.2-1.7-0.2-2.6-0.2H906v11.2H914.6z"/>
			</g>
			<g>
				<path fill="#FFFFFF" d="M931.4,860.4c0,1.1,0.1,2.2,0.4,3.2c0.3,1,0.7,1.9,1.3,2.6c0.6,0.7,1.3,1.3,2.2,1.8
					c0.9,0.4,1.9,0.7,3.1,0.7c1.6,0,2.9-0.4,4.1-1.3c1.1-0.8,1.9-2,2.3-3.6h2.7c-0.3,1-0.7,1.9-1.2,2.8c-0.5,0.8-1.1,1.6-1.8,2.2
					c-0.7,0.6-1.6,1.1-2.6,1.5c-1,0.3-2.2,0.5-3.5,0.5c-1.7,0-3.1-0.3-4.3-0.8c-1.2-0.6-2.2-1.3-3-2.3c-0.8-1-1.4-2.1-1.7-3.5
					c-0.4-1.3-0.6-2.8-0.6-4.3c0-1.5,0.2-3,0.7-4.3c0.4-1.3,1.1-2.5,1.9-3.5s1.8-1.8,3-2.4c1.2-0.6,2.5-0.9,4-0.9c2.9,0,5.1,1,6.8,3
					c1.6,2,2.4,4.8,2.4,8.6H931.4z M945,858.4c0-1-0.1-2-0.4-2.9c-0.3-0.9-0.7-1.7-1.3-2.3c-0.6-0.7-1.2-1.2-2.1-1.6
					c-0.8-0.4-1.8-0.6-2.9-0.6s-2,0.2-2.8,0.6c-0.8,0.4-1.5,0.9-2.1,1.6c-0.6,0.7-1,1.5-1.4,2.3c-0.3,0.9-0.6,1.8-0.7,2.8H945z"/>
			</g>
			<g>
				<path fill="#FFFFFF" d="M967.1,856c-0.4-1.6-1.2-2.8-2.2-3.7c-1-0.9-2.4-1.3-4-1.3c-1.2,0-2.3,0.3-3.2,0.8
					c-0.9,0.5-1.6,1.2-2.2,2c-0.6,0.8-1,1.8-1.3,2.9c-0.3,1.1-0.4,2.1-0.4,3.2c0,1.1,0.1,2.2,0.4,3.2c0.3,1,0.7,2,1.2,2.8
					c0.6,0.8,1.3,1.5,2.2,2c0.9,0.5,2,0.7,3.2,0.7c1.8,0,3.2-0.5,4.3-1.5c1.1-1,1.8-2.4,2.1-4.1h2.6c-0.2,1.2-0.6,2.2-1,3.2
					c-0.5,1-1.1,1.8-1.8,2.5c-0.7,0.7-1.6,1.2-2.6,1.6c-1,0.4-2.2,0.6-3.5,0.6c-1.7,0-3.1-0.3-4.3-0.8c-1.2-0.6-2.2-1.3-3-2.3
					c-0.8-1-1.4-2.1-1.7-3.5c-0.4-1.3-0.6-2.8-0.6-4.3c0-1.5,0.2-2.8,0.6-4.2c0.4-1.3,1-2.5,1.8-3.5c0.8-1,1.8-1.8,3-2.4
					c1.2-0.6,2.6-0.9,4.1-0.9c2.4,0,4.4,0.6,5.9,1.7c1.5,1.2,2.4,3,2.8,5.4H967.1z"/>
			</g>
			<g>
				<path fill="#FFFFFF" d="M976.2,860.4c0,1.1,0.1,2.2,0.4,3.2s0.7,1.9,1.3,2.6c0.6,0.7,1.3,1.3,2.2,1.8c0.9,0.4,1.9,0.7,3.1,0.7
					c1.6,0,2.9-0.4,4.1-1.3c1.1-0.8,1.9-2,2.3-3.6h2.7c-0.3,1-0.7,1.9-1.2,2.8c-0.5,0.8-1.1,1.6-1.8,2.2c-0.7,0.6-1.6,1.1-2.6,1.5
					c-1,0.3-2.2,0.5-3.5,0.5c-1.7,0-3.1-0.3-4.3-0.8c-1.2-0.6-2.2-1.3-3-2.3c-0.8-1-1.4-2.1-1.7-3.5c-0.4-1.3-0.6-2.8-0.6-4.3
					c0-1.5,0.2-3,0.7-4.3c0.4-1.3,1.1-2.5,1.9-3.5s1.8-1.8,3-2.4c1.2-0.6,2.5-0.9,4-0.9c2.9,0,5.1,1,6.8,3c1.6,2,2.4,4.8,2.4,8.6
					H976.2z M989.9,858.4c0-1-0.1-2-0.4-2.9c-0.3-0.9-0.7-1.7-1.3-2.3c-0.6-0.7-1.2-1.2-2.1-1.6c-0.8-0.4-1.8-0.6-2.9-0.6
					s-2,0.2-2.8,0.6c-0.8,0.4-1.5,0.9-2.1,1.6c-0.6,0.7-1,1.5-1.4,2.3c-0.3,0.9-0.6,1.8-0.7,2.8H989.9z"/>
			</g>
			<g>
				<path fill="#FFFFFF" d="M997.4,844.9v-3.6h2.7v3.6H997.4z M997.5,870.3v-20.9h2.4v20.9H997.5z"/>
			</g>
			<g>
				<path fill="#FFFFFF" d="M1003.9,849.4h2.6l6.8,17.9l6.8-17.9h2.6l-8.1,20.9h-2.7L1003.9,849.4z"/>
			</g>
			<g>
				<path fill="#FFFFFF" d="M1027.8,860.4c0,1.1,0.1,2.2,0.4,3.2c0.3,1,0.7,1.9,1.3,2.6c0.6,0.7,1.3,1.3,2.2,1.8
					c0.9,0.4,1.9,0.7,3.1,0.7c1.6,0,2.9-0.4,4.1-1.3c1.1-0.8,1.9-2,2.3-3.6h2.7c-0.3,1-0.7,1.9-1.2,2.8c-0.5,0.8-1.1,1.6-1.8,2.2
					c-0.7,0.6-1.6,1.1-2.6,1.5c-1,0.3-2.2,0.5-3.5,0.5c-1.7,0-3.1-0.3-4.3-0.8c-1.2-0.6-2.2-1.3-3-2.3c-0.8-1-1.4-2.1-1.7-3.5
					c-0.4-1.3-0.6-2.8-0.6-4.3c0-1.5,0.2-3,0.7-4.3c0.4-1.3,1.1-2.5,1.9-3.5c0.8-1,1.8-1.8,3-2.4c1.2-0.6,2.5-0.9,4-0.9
					c2.9,0,5.1,1,6.8,3c1.6,2,2.4,4.8,2.4,8.6H1027.8z M1041.4,858.4c0-1-0.1-2-0.4-2.9c-0.3-0.9-0.7-1.7-1.3-2.3
					c-0.6-0.7-1.2-1.2-2.1-1.6c-0.8-0.4-1.8-0.6-2.9-0.6s-2,0.2-2.8,0.6c-0.8,0.4-1.5,0.9-2.1,1.6c-0.6,0.7-1,1.5-1.4,2.3
					c-0.3,0.9-0.6,1.8-0.7,2.8H1041.4z"/>
			</g>
			<g>
				<path fill="#FFFFFF" d="M1051.3,870.3h-2.4v-20.9h2.4v3.9h0.1c0.7-1.7,1.5-2.8,2.6-3.5c1.1-0.7,2.5-1,4.2-1v2.6
					c-1.4,0-2.5,0.2-3.4,0.6c-0.9,0.5-1.6,1.1-2.1,1.9c-0.5,0.8-0.9,1.7-1.1,2.8c-0.2,1.1-0.3,2.2-0.3,3.3V870.3z"/>
			</g>
		</g>
		<g>
			<path fill="#231F20" d="M1073.7,897H837.3c-0.2,0-0.3-0.1-0.3-0.3c0-0.2,0.1-0.3,0.3-0.3h236.5c0.2,0,0.3,0.1,0.3,0.3
				C1074,896.9,1073.9,897,1073.7,897z"/>
		</g>
		<g>
			<path fill="#3C4855" d="M1131.5,862.4c0,2.3-2.4,4.1-5.4,4.1c-3,0-5.4-1.8-5.4-4.1c0-2.2,2.4-4.1,5.4-4.1
				C1129.1,858.3,1131.5,860.2,1131.5,862.4z"/>
			<path fill="#FFFFFF" d="M1126.1,867.1c-3.3,0-6-2.1-6-4.7c0-2.6,2.7-4.7,6-4.7c3.3,0,6,2.1,6,4.7
				C1132.1,865,1129.4,867.1,1126.1,867.1z M1126.1,859c-2.6,0-4.7,1.5-4.7,3.5c0,1.9,2.1,3.5,4.7,3.5c2.6,0,4.8-1.6,4.8-3.5
				C1130.9,860.5,1128.7,859,1126.1,859z"/>
		</g>
		<g>
			<path fill="#3C4855" d="M1158.5,862.4c0-2.2,2.4-4.1,5.4-4.1c3,0,5.4,1.8,5.4,4.1c0,2.3-2.4,4.1-5.4,4.1
				C1160.9,866.5,1158.5,864.7,1158.5,862.4z"/>
			<path fill="#FFFFFF" d="M1163.9,867.1c-3.3,0-6-2.1-6-4.7c0-2.6,2.7-4.7,6-4.7s6,2.1,6,4.7C1169.8,865,1167.2,867.1,1163.9,867.1
				z M1163.9,859c-2.6,0-4.7,1.5-4.7,3.5c0,1.9,2.1,3.5,4.7,3.5c2.6,0,4.7-1.6,4.7-3.5C1168.6,860.5,1166.5,859,1163.9,859z"/>
		</g>
		<g>
			<path fill="#3C4855" d="M1146,852.9c-2.2,0-4.1-2.4-4.1-5.4c0-3,1.8-5.4,4.1-5.4c2.2,0,4.1,2.4,4.1,5.4
				C1150,850.5,1148.2,852.9,1146,852.9z"/>
			<path fill="#FFFFFF" d="M1146,853.5c-2.6,0-4.7-2.7-4.7-6c0-3.3,2.1-6,4.7-6c2.6,0,4.7,2.7,4.7,6
				C1150.6,850.8,1148.5,853.5,1146,853.5z M1146,842.8c-1.9,0-3.5,2.1-3.5,4.8c0,2.6,1.5,4.7,3.5,4.7c1.9,0,3.5-2.1,3.5-4.7
				C1149.4,844.9,1147.9,842.8,1146,842.8z"/>
		</g>
		<g>
			<path fill="#3C4855" d="M1145.1,872.8c2.2,0,4.1,2.4,4.1,5.4c0,3-1.8,5.4-4.1,5.4c-2.2,0-4.1-2.4-4.1-5.4
				C1141,875.2,1142.9,872.8,1145.1,872.8z"/>
			<path fill="#FFFFFF" d="M1145.1,884.1c-2.6,0-4.7-2.7-4.7-6c0-3.3,2.1-6,4.7-6c2.6,0,4.7,2.7,4.7,6
				C1149.8,881.4,1147.7,884.1,1145.1,884.1z M1145.1,873.4c-1.9,0-3.5,2.1-3.5,4.8c0,2.6,1.6,4.7,3.5,4.7c1.9,0,3.5-2.1,3.5-4.7
				C1148.6,875.5,1147,873.4,1145.1,873.4z"/>
		</g>
		<g>
			<path fill="#3C4855" d="M1151.1,863.2c0,3.2-2.6,5.8-5.8,5.8c-3.2,0-5.8-2.6-5.8-5.8c0-3.2,2.6-5.8,5.8-5.8
				C1148.5,857.4,1151.1,859.9,1151.1,863.2z"/>
			<path fill="#FFFFFF" d="M1145.3,869.6c-3.5,0-6.4-2.9-6.4-6.4s2.9-6.4,6.4-6.4c3.5,0,6.4,2.9,6.4,6.4S1148.8,869.6,1145.3,869.6z
				 M1145.3,858c-2.9,0-5.2,2.3-5.2,5.2c0,2.9,2.3,5.2,5.2,5.2c2.9,0,5.2-2.3,5.2-5.2C1150.5,860.3,1148.1,858,1145.3,858z"/>
		</g>
		<g>
			<path fill="#FFFFFF" d="M1181.4,898.4H771.1l-0.3-1.5c-2.9-17-4.3-28.3-4.3-33.4c0-9.4,1.6-39.6,1.7-40.9l0.1-1.7h415.8l0.1,1.7
				c0.1,1.3,1.7,31.5,1.7,40.9c0,5.1-1.4,16.4-4.3,33.4L1181.4,898.4z M774.2,894.7h404c2.6-15.8,4-26.5,4-31.3c0-8-1.2-32.3-1.6-39
				H771.8c-0.3,6.7-1.6,31-1.6,39C770.2,868.1,771.6,878.9,774.2,894.7z"/>
		</g>
		<g>
			<path fill="#3C4855" d="M785.2,875.1c0-1.5,1.6-2.7,3.5-2.7h47.1c2,0,3.5,1.2,3.5,2.7v9.1c0,1.5-1.6,2.7-3.5,2.7h-47.1
				c-2,0-3.5-1.2-3.5-2.7V875.1z"/>
			<path fill="#FFFFFF" d="M835.8,887.6h-47.1c-2.3,0-4.1-1.5-4.1-3.3v-9.1c0-1.8,1.9-3.3,4.1-3.3h47.1c2.3,0,4.1,1.5,4.1,3.3v9.1
				C839.9,886.1,838,887.6,835.8,887.6z M788.7,873.1c-1.6,0-2.9,0.9-2.9,2.1v9.1c0,1.1,1.3,2.1,2.9,2.1h47.1c1.6,0,2.9-0.9,2.9-2.1
				v-9.1c0-1.1-1.3-2.1-2.9-2.1H788.7z"/>
		</g>
	</g>
	<g>
		<g>
			<path fill="#808080" d="M1205.8,768.3h201.9c1.5-8.9,4.3-26.2,4.3-33.1c0-9.4-1.7-40.8-1.7-40.8h-204.7h-2.9H997.9
				c0,0-1.7,31.4-1.7,40.8c0,6.9,2.8,24.2,4.3,33.1h201.9H1205.8z"/>
			<path fill="#FFFFFF" d="M1407.6,768.6h-407.1c-0.1,0-0.3-0.1-0.3-0.3c-2.8-16.7-4.3-28.2-4.3-33.2c0-9.3,1.7-40.5,1.7-40.8
				c0-0.2,0.1-0.3,0.3-0.3h412.4c0.2,0,0.3,0.1,0.3,0.3c0,0.3,1.7,31.5,1.7,40.8c0,5-1.5,16.4-4.3,33.2
				C1407.9,768.5,1407.8,768.6,1407.6,768.6z M1000.8,768h406.6c2.8-16.5,4.2-27.9,4.2-32.8c0-8.8-1.5-37.3-1.7-40.5H998.2
				c-0.2,3.2-1.7,31.7-1.7,40.5C996.5,740.1,998,751.4,1000.8,768z"/>
		</g>
		<g>
			<path fill="#3C4855" d="M1065.6,695c0,0,24.9,58.1,28.5,63.7h221.5c0,0,22-44.8,28.9-63.9L1065.6,695z"/>
			<path fill="#FFFFFF" d="M1316,759.3h-222.2l-0.2-0.3c-3.6-5.6-27.5-61.4-28.6-63.8l-0.4-0.9l280.7-0.2l-0.3,0.8
				c-6.9,19-28.7,63.5-29,64L1316,759.3z M1094.5,758.1h220.8c2-4.1,21.6-44.3,28.4-62.7l-277.1,0.2
				C1069.6,702.7,1090.7,751.7,1094.5,758.1z"/>
		</g>
		<g>
			<g>
				<path fill="#FFFFFF" d="M1134.9,728.9v13.2h-2.7V713h11.4c3.2,0,5.6,0.6,7.3,1.8c1.7,1.2,2.5,3.1,2.5,5.8c0,1.8-0.4,3.3-1.1,4.4
					c-0.7,1.1-1.9,2-3.6,2.7c0.9,0.3,1.5,0.7,2,1.3c0.5,0.6,0.8,1.2,1.1,1.9c0.2,0.7,0.4,1.5,0.5,2.3c0.1,0.8,0.1,1.6,0.1,2.3
					c0,1.1,0.1,2,0.1,2.7c0.1,0.7,0.1,1.3,0.2,1.8c0.1,0.5,0.2,0.8,0.3,1.1c0.1,0.3,0.3,0.5,0.5,0.6v0.3h-3c-0.3-0.5-0.5-1.2-0.6-2
					c-0.1-0.9-0.2-1.8-0.3-2.7c-0.1-0.9-0.1-1.9-0.2-2.7c0-0.9-0.1-1.6-0.2-2.2c-0.2-0.8-0.4-1.4-0.8-1.9s-0.8-0.8-1.3-1.1
					c-0.5-0.2-1.1-0.4-1.7-0.5c-0.6-0.1-1.3-0.1-2-0.1H1134.9z M1143.5,726.5c1,0,2-0.1,2.8-0.3c0.9-0.2,1.6-0.6,2.3-1
					c0.6-0.5,1.2-1.1,1.5-1.8c0.4-0.7,0.6-1.6,0.6-2.6c0-1.1-0.2-2-0.6-2.7c-0.4-0.7-0.9-1.3-1.6-1.7c-0.7-0.4-1.4-0.7-2.3-0.8
					s-1.7-0.2-2.6-0.2h-8.7v11.2H1143.5z"/>
			</g>
			<g>
				<path fill="#FFFFFF" d="M1160.2,732.2c0,1.1,0.1,2.2,0.4,3.2c0.3,1,0.7,1.9,1.3,2.6c0.6,0.7,1.3,1.3,2.2,1.8
					c0.9,0.4,1.9,0.7,3.1,0.7c1.6,0,2.9-0.4,4.1-1.3c1.1-0.8,1.9-2,2.3-3.6h2.7c-0.3,1-0.7,1.9-1.2,2.8c-0.5,0.8-1.1,1.6-1.8,2.2
					c-0.7,0.6-1.6,1.1-2.6,1.5c-1,0.3-2.2,0.5-3.5,0.5c-1.7,0-3.1-0.3-4.3-0.8c-1.2-0.6-2.2-1.3-3-2.3c-0.8-1-1.4-2.1-1.7-3.5
					c-0.4-1.3-0.6-2.8-0.6-4.3c0-1.5,0.2-3,0.7-4.3c0.4-1.3,1.1-2.5,1.9-3.5c0.8-1,1.8-1.8,3-2.4c1.2-0.6,2.5-0.9,4-0.9
					c2.9,0,5.1,1,6.8,3c1.6,2,2.4,4.8,2.4,8.6H1160.2z M1173.9,730.2c0-1-0.1-2-0.4-2.9c-0.3-0.9-0.7-1.7-1.3-2.3
					c-0.6-0.7-1.2-1.2-2.1-1.6c-0.8-0.4-1.8-0.6-2.9-0.6c-1.1,0-2,0.2-2.8,0.6c-0.8,0.4-1.5,0.9-2.1,1.6c-0.6,0.7-1,1.5-1.4,2.3
					c-0.3,0.9-0.6,1.8-0.7,2.8H1173.9z"/>
			</g>
			<g>
				<path fill="#FFFFFF" d="M1196,727.8c-0.4-1.6-1.2-2.8-2.2-3.7c-1-0.9-2.4-1.3-4-1.3c-1.2,0-2.3,0.3-3.2,0.8
					c-0.9,0.5-1.6,1.2-2.2,2c-0.6,0.8-1,1.8-1.3,2.9c-0.3,1.1-0.4,2.1-0.4,3.2c0,1.1,0.1,2.2,0.4,3.2c0.3,1,0.7,2,1.2,2.8
					c0.6,0.8,1.3,1.5,2.2,2c0.9,0.5,2,0.7,3.2,0.7c1.8,0,3.2-0.5,4.3-1.5c1.1-1,1.8-2.4,2.1-4.1h2.6c-0.2,1.2-0.6,2.2-1,3.2
					c-0.5,1-1.1,1.8-1.8,2.5c-0.7,0.7-1.6,1.2-2.6,1.6c-1,0.4-2.2,0.6-3.5,0.6c-1.7,0-3.1-0.3-4.3-0.8c-1.2-0.6-2.2-1.3-3-2.3
					c-0.8-1-1.4-2.1-1.7-3.5c-0.4-1.3-0.6-2.8-0.6-4.3c0-1.5,0.2-2.8,0.6-4.2c0.4-1.3,1-2.5,1.8-3.5c0.8-1,1.8-1.8,3-2.4
					c1.2-0.6,2.6-0.9,4.1-0.9c2.4,0,4.4,0.6,5.9,1.7c1.5,1.2,2.4,3,2.8,5.4H1196z"/>
			</g>
			<g>
				<path fill="#FFFFFF" d="M1205.1,732.2c0,1.1,0.1,2.2,0.4,3.2c0.3,1,0.7,1.9,1.3,2.6c0.6,0.7,1.3,1.3,2.2,1.8
					c0.9,0.4,1.9,0.7,3.1,0.7c1.6,0,2.9-0.4,4.1-1.3c1.1-0.8,1.9-2,2.3-3.6h2.7c-0.3,1-0.7,1.9-1.2,2.8c-0.5,0.8-1.1,1.6-1.8,2.2
					c-0.7,0.6-1.6,1.1-2.6,1.5c-1,0.3-2.2,0.5-3.5,0.5c-1.7,0-3.1-0.3-4.3-0.8c-1.2-0.6-2.2-1.3-3-2.3c-0.8-1-1.4-2.1-1.7-3.5
					c-0.4-1.3-0.6-2.8-0.6-4.3c0-1.5,0.2-3,0.7-4.3c0.4-1.3,1.1-2.5,1.9-3.5c0.8-1,1.8-1.8,3-2.4c1.2-0.6,2.5-0.9,4-0.9
					c2.9,0,5.1,1,6.8,3c1.6,2,2.4,4.8,2.4,8.6H1205.1z M1218.7,730.2c0-1-0.1-2-0.4-2.9c-0.3-0.9-0.7-1.7-1.3-2.3
					c-0.6-0.7-1.2-1.2-2.1-1.6c-0.8-0.4-1.8-0.6-2.9-0.6c-1.1,0-2,0.2-2.8,0.6c-0.8,0.4-1.5,0.9-2.1,1.6c-0.6,0.7-1,1.5-1.4,2.3
					c-0.3,0.9-0.6,1.8-0.7,2.8H1218.7z"/>
			</g>
			<g>
				<path fill="#FFFFFF" d="M1226.3,716.6V713h2.7v3.6H1226.3z M1226.4,742.1v-20.9h2.4v20.9H1226.4z"/>
			</g>
			<g>
				<path fill="#FFFFFF" d="M1232.8,721.2h2.6l6.8,17.9l6.8-17.9h2.6l-8.1,20.9h-2.7L1232.8,721.2z"/>
			</g>
			<g>
				<path fill="#FFFFFF" d="M1256.7,732.2c0,1.1,0.1,2.2,0.4,3.2s0.7,1.9,1.3,2.6c0.6,0.7,1.3,1.3,2.2,1.8c0.9,0.4,1.9,0.7,3.1,0.7
					c1.6,0,2.9-0.4,4.1-1.3c1.1-0.8,1.9-2,2.3-3.6h2.7c-0.3,1-0.7,1.9-1.2,2.8c-0.5,0.8-1.1,1.6-1.8,2.2c-0.7,0.6-1.6,1.1-2.6,1.5
					c-1,0.3-2.2,0.5-3.5,0.5c-1.7,0-3.1-0.3-4.3-0.8c-1.2-0.6-2.2-1.3-3-2.3c-0.8-1-1.4-2.1-1.7-3.5c-0.4-1.3-0.6-2.8-0.6-4.3
					c0-1.5,0.2-3,0.7-4.3c0.4-1.3,1.1-2.5,1.9-3.5c0.8-1,1.8-1.8,3-2.4c1.2-0.6,2.5-0.9,4-0.9c2.9,0,5.1,1,6.8,3
					c1.6,2,2.4,4.8,2.4,8.6H1256.7z M1270.3,730.2c0-1-0.1-2-0.4-2.9c-0.3-0.9-0.7-1.7-1.3-2.3c-0.6-0.7-1.2-1.2-2.1-1.6
					c-0.8-0.4-1.8-0.6-2.9-0.6s-2,0.2-2.8,0.6c-0.8,0.4-1.5,0.9-2.1,1.6c-0.6,0.7-1,1.5-1.4,2.3c-0.3,0.9-0.6,1.8-0.7,2.8H1270.3z"
					/>
			</g>
			<g>
				<path fill="#FFFFFF" d="M1280.2,742.1h-2.4v-20.9h2.4v3.9h0.1c0.7-1.7,1.5-2.8,2.6-3.5c1.1-0.7,2.5-1,4.2-1v2.6
					c-1.4,0-2.5,0.2-3.4,0.6c-0.9,0.5-1.6,1.1-2.1,1.9c-0.5,0.8-0.9,1.7-1.1,2.8c-0.2,1.1-0.3,2.2-0.3,3.3V742.1z"/>
			</g>
		</g>
		<g>
			<path fill="#231F20" d="M1302.6,768.8h-236.5c-0.2,0-0.3-0.1-0.3-0.3c0-0.2,0.1-0.3,0.3-0.3h236.5c0.2,0,0.3,0.1,0.3,0.3
				C1302.9,768.7,1302.8,768.8,1302.6,768.8z"/>
		</g>
		<g>
			<path fill="#3C4855" d="M1360.4,734.2c0,2.3-2.4,4.1-5.4,4.1c-3,0-5.4-1.8-5.4-4.1c0-2.2,2.4-4.1,5.4-4.1
				C1357.9,730.1,1360.4,731.9,1360.4,734.2z"/>
			<path fill="#FFFFFF" d="M1355,738.9c-3.3,0-6-2.1-6-4.7c0-2.6,2.7-4.7,6-4.7c3.3,0,6,2.1,6,4.7
				C1361,736.8,1358.3,738.9,1355,738.9z M1355,730.7c-2.6,0-4.7,1.5-4.7,3.5c0,1.9,2.1,3.5,4.7,3.5c2.6,0,4.8-1.6,4.8-3.5
				C1359.7,732.3,1357.6,730.7,1355,730.7z"/>
		</g>
		<g>
			<path fill="#3C4855" d="M1387.4,734.2c0-2.2,2.4-4.1,5.4-4.1c3,0,5.4,1.8,5.4,4.1c0,2.3-2.4,4.1-5.4,4.1
				C1389.8,738.3,1387.4,736.4,1387.4,734.2z"/>
			<path fill="#FFFFFF" d="M1392.7,738.9c-3.3,0-6-2.1-6-4.7c0-2.6,2.7-4.7,6-4.7s6,2.1,6,4.7C1398.7,736.8,1396,738.9,1392.7,738.9
				z M1392.7,730.7c-2.6,0-4.7,1.5-4.7,3.5c0,1.9,2.1,3.5,4.7,3.5c2.6,0,4.7-1.6,4.7-3.5C1397.5,732.3,1395.3,730.7,1392.7,730.7z"
				/>
		</g>
		<g>
			<path fill="#3C4855" d="M1374.8,724.7c-2.2,0-4.1-2.4-4.1-5.4c0-3,1.8-5.4,4.1-5.4c2.2,0,4.1,2.4,4.1,5.4
				C1378.9,722.3,1377.1,724.7,1374.8,724.7z"/>
			<path fill="#FFFFFF" d="M1374.8,725.3c-2.6,0-4.7-2.7-4.7-6c0-3.3,2.1-6,4.7-6c2.6,0,4.7,2.7,4.7,6
				C1379.5,722.6,1377.4,725.3,1374.8,725.3z M1374.8,714.6c-1.9,0-3.5,2.1-3.5,4.8c0,2.6,1.5,4.7,3.5,4.7c1.9,0,3.5-2.1,3.5-4.7
				C1378.3,716.7,1376.7,714.6,1374.8,714.6z"/>
		</g>
		<g>
			<path fill="#3C4855" d="M1374,744.5c2.2,0,4.1,2.4,4.1,5.4s-1.8,5.4-4.1,5.4c-2.2,0-4.1-2.4-4.1-5.4S1371.7,744.5,1374,744.5z"/>
			<path fill="#FFFFFF" d="M1374,755.9c-2.6,0-4.7-2.7-4.7-6c0-3.3,2.1-6,4.7-6c2.6,0,4.7,2.7,4.7,6
				C1378.7,753.2,1376.6,755.9,1374,755.9z M1374,745.1c-1.9,0-3.5,2.1-3.5,4.8c0,2.6,1.6,4.7,3.5,4.7c1.9,0,3.5-2.1,3.5-4.7
				C1377.4,747.3,1375.9,745.1,1374,745.1z"/>
		</g>
		<g>
			<path fill="#3C4855" d="M1379.9,734.9c0,3.2-2.6,5.8-5.8,5.8c-3.2,0-5.8-2.6-5.8-5.8c0-3.2,2.6-5.8,5.8-5.8
				C1377.4,729.1,1379.9,731.7,1379.9,734.9z"/>
			<path fill="#FFFFFF" d="M1374.2,741.3c-3.5,0-6.4-2.9-6.4-6.4s2.9-6.4,6.4-6.4c3.5,0,6.4,2.9,6.4,6.4S1377.7,741.3,1374.2,741.3z
				 M1374.2,729.7c-2.9,0-5.2,2.3-5.2,5.2c0,2.9,2.3,5.2,5.2,5.2c2.9,0,5.2-2.3,5.2-5.2C1379.3,732.1,1377,729.7,1374.2,729.7z"/>
		</g>
		<g>
			<path fill="#FFFFFF" d="M1410.2,770.1H1000l-0.3-1.5c-2.9-17-4.3-28.3-4.3-33.4c0-9.4,1.6-39.6,1.7-40.9l0.1-1.7H1413l0.1,1.7
				c0.1,1.3,1.7,31.5,1.7,40.9c0,5.1-1.4,16.4-4.3,33.4L1410.2,770.1z M1003.1,766.5h404c2.6-15.8,4-26.5,4-31.3
				c0-8-1.2-32.3-1.6-39h-408.9c-0.3,6.7-1.6,31-1.6,39C999.1,739.9,1000.5,750.7,1003.1,766.5z"/>
		</g>
		<g>
			<path fill="#3C4855" d="M1014,746.9c0-1.5,1.6-2.7,3.5-2.7h47.1c2,0,3.5,1.2,3.5,2.7v9.1c0,1.5-1.6,2.7-3.5,2.7h-47.1
				c-2,0-3.5-1.2-3.5-2.7V746.9z"/>
			<path fill="#FFFFFF" d="M1064.6,759.3h-47.1c-2.3,0-4.1-1.5-4.1-3.3v-9.1c0-1.8,1.9-3.3,4.1-3.3h47.1c2.3,0,4.1,1.5,4.1,3.3v9.1
				C1068.8,757.9,1066.9,759.3,1064.6,759.3z M1017.6,744.9c-1.6,0-2.9,0.9-2.9,2.1v9.1c0,1.1,1.3,2.1,2.9,2.1h47.1
				c1.6,0,2.9-0.9,2.9-2.1v-9.1c0-1.1-1.3-2.1-2.9-2.1H1017.6z"/>
		</g>
	</g>
	<g>
		<g>
			<path fill="#808080" d="M725.4,768.3h201.9c1.5-8.9,4.3-26.2,4.3-33.1c0-9.4-1.7-40.8-1.7-40.8H725.2h-2.9H517.6
				c0,0-1.7,31.4-1.7,40.8c0,6.9,2.8,24.2,4.3,33.1h201.9H725.4z"/>
			<path fill="#FFFFFF" d="M927.3,768.6H520.2c-0.1,0-0.3-0.1-0.3-0.3c-2.8-16.7-4.3-28.2-4.3-33.2c0-9.3,1.7-40.5,1.7-40.8
				c0-0.2,0.1-0.3,0.3-0.3h412.4c0.2,0,0.3,0.1,0.3,0.3c0,0.3,1.7,31.5,1.7,40.8c0,5-1.5,16.4-4.3,33.2
				C927.6,768.5,927.5,768.6,927.3,768.6z M520.4,768h406.6c2.8-16.5,4.2-27.9,4.2-32.8c0-8.8-1.5-37.3-1.7-40.5H517.9
				c-0.2,3.2-1.7,31.7-1.7,40.5C516.2,740.1,517.7,751.4,520.4,768z"/>
		</g>
		<g>
			<path fill="#3C4855" d="M585.3,695c0,0,24.9,58.1,28.5,63.7h221.5c0,0,22-44.8,28.9-63.9L585.3,695z"/>
			<path fill="#FFFFFF" d="M835.7,759.3H613.5l-0.2-0.3c-3.6-5.6-27.5-61.4-28.6-63.8l-0.4-0.9l280.7-0.2l-0.3,0.8
				c-6.9,19-28.7,63.5-29,64L835.7,759.3z M614.2,758.1H835c2-4.1,21.6-44.3,28.4-62.7l-277.1,0.2
				C589.3,702.7,610.4,751.7,614.2,758.1z"/>
		</g>
		<g>
			<g>
				<path fill="#FFFFFF" d="M654.6,728.9v13.2h-2.7V713h11.4c3.2,0,5.6,0.6,7.3,1.8c1.7,1.2,2.5,3.1,2.5,5.8c0,1.8-0.4,3.3-1.1,4.4
					c-0.7,1.1-1.9,2-3.6,2.7c0.9,0.3,1.5,0.7,2,1.3c0.5,0.6,0.8,1.2,1.1,1.9c0.2,0.7,0.4,1.5,0.5,2.3c0.1,0.8,0.1,1.6,0.1,2.3
					c0,1.1,0.1,2,0.1,2.7c0.1,0.7,0.1,1.3,0.2,1.8c0.1,0.5,0.2,0.8,0.3,1.1c0.1,0.3,0.3,0.5,0.5,0.6v0.3h-3c-0.3-0.5-0.5-1.2-0.6-2
					c-0.1-0.9-0.2-1.8-0.3-2.7c-0.1-0.9-0.1-1.9-0.2-2.7c0-0.9-0.1-1.6-0.2-2.2c-0.2-0.8-0.4-1.4-0.8-1.9c-0.4-0.5-0.8-0.8-1.3-1.1
					c-0.5-0.2-1.1-0.4-1.7-0.5c-0.6-0.1-1.3-0.1-2-0.1H654.6z M663.1,726.5c1,0,2-0.1,2.8-0.3c0.9-0.2,1.6-0.6,2.3-1
					c0.6-0.5,1.2-1.1,1.5-1.8c0.4-0.7,0.6-1.6,0.6-2.6c0-1.1-0.2-2-0.6-2.7c-0.4-0.7-0.9-1.3-1.6-1.7c-0.7-0.4-1.4-0.7-2.3-0.8
					s-1.7-0.2-2.6-0.2h-8.7v11.2H663.1z"/>
			</g>
			<g>
				<path fill="#FFFFFF" d="M679.9,732.2c0,1.1,0.1,2.2,0.4,3.2s0.7,1.9,1.3,2.6c0.6,0.7,1.3,1.3,2.2,1.8c0.9,0.4,1.9,0.7,3.1,0.7
					c1.6,0,2.9-0.4,4.1-1.3c1.1-0.8,1.9-2,2.3-3.6h2.7c-0.3,1-0.7,1.9-1.2,2.8c-0.5,0.8-1.1,1.6-1.8,2.2c-0.7,0.6-1.6,1.1-2.6,1.5
					c-1,0.3-2.2,0.5-3.5,0.5c-1.7,0-3.1-0.3-4.3-0.8c-1.2-0.6-2.2-1.3-3-2.3c-0.8-1-1.4-2.1-1.7-3.5c-0.4-1.3-0.6-2.8-0.6-4.3
					c0-1.5,0.2-3,0.7-4.3c0.4-1.3,1.1-2.5,1.9-3.5s1.8-1.8,3-2.4c1.2-0.6,2.5-0.9,4-0.9c2.9,0,5.1,1,6.8,3c1.6,2,2.4,4.8,2.4,8.6
					H679.9z M693.6,730.2c0-1-0.1-2-0.4-2.9c-0.3-0.9-0.7-1.7-1.3-2.3c-0.6-0.7-1.2-1.2-2.1-1.6c-0.8-0.4-1.8-0.6-2.9-0.6
					s-2,0.2-2.8,0.6c-0.8,0.4-1.5,0.9-2.1,1.6c-0.6,0.7-1,1.5-1.4,2.3c-0.3,0.9-0.6,1.8-0.7,2.8H693.6z"/>
			</g>
			<g>
				<path fill="#FFFFFF" d="M715.7,727.8c-0.4-1.6-1.2-2.8-2.2-3.7c-1-0.9-2.4-1.3-4-1.3c-1.2,0-2.3,0.3-3.2,0.8
					c-0.9,0.5-1.6,1.2-2.2,2c-0.6,0.8-1,1.8-1.3,2.9c-0.3,1.1-0.4,2.1-0.4,3.2c0,1.1,0.1,2.2,0.4,3.2c0.3,1,0.7,2,1.2,2.8
					c0.6,0.8,1.3,1.5,2.2,2c0.9,0.5,2,0.7,3.2,0.7c1.8,0,3.2-0.5,4.3-1.5c1.1-1,1.8-2.4,2.1-4.1h2.6c-0.2,1.2-0.6,2.2-1,3.2
					c-0.5,1-1.1,1.8-1.8,2.5c-0.7,0.7-1.6,1.2-2.6,1.6c-1,0.4-2.2,0.6-3.5,0.6c-1.7,0-3.1-0.3-4.3-0.8c-1.2-0.6-2.2-1.3-3-2.3
					c-0.8-1-1.4-2.1-1.7-3.5c-0.4-1.3-0.6-2.8-0.6-4.3c0-1.5,0.2-2.8,0.6-4.2c0.4-1.3,1-2.5,1.8-3.5c0.8-1,1.8-1.8,3-2.4
					c1.2-0.6,2.6-0.9,4.1-0.9c2.4,0,4.4,0.6,5.9,1.7c1.5,1.2,2.4,3,2.8,5.4H715.7z"/>
			</g>
			<g>
				<path fill="#FFFFFF" d="M724.8,732.2c0,1.1,0.1,2.2,0.4,3.2c0.3,1,0.7,1.9,1.3,2.6c0.6,0.7,1.3,1.3,2.2,1.8
					c0.9,0.4,1.9,0.7,3.1,0.7c1.6,0,2.9-0.4,4.1-1.3c1.1-0.8,1.9-2,2.3-3.6h2.7c-0.3,1-0.7,1.9-1.2,2.8c-0.5,0.8-1.1,1.6-1.8,2.2
					c-0.7,0.6-1.6,1.1-2.6,1.5c-1,0.3-2.2,0.5-3.5,0.5c-1.7,0-3.1-0.3-4.3-0.8c-1.2-0.6-2.2-1.3-3-2.3c-0.8-1-1.4-2.1-1.7-3.5
					c-0.4-1.3-0.6-2.8-0.6-4.3c0-1.5,0.2-3,0.7-4.3c0.4-1.3,1.1-2.5,1.9-3.5s1.8-1.8,3-2.4c1.2-0.6,2.5-0.9,4-0.9c2.9,0,5.1,1,6.8,3
					c1.6,2,2.4,4.8,2.4,8.6H724.8z M738.4,730.2c0-1-0.1-2-0.4-2.9c-0.3-0.9-0.7-1.7-1.3-2.3c-0.6-0.7-1.2-1.2-2.1-1.6
					c-0.8-0.4-1.8-0.6-2.9-0.6c-1.1,0-2,0.2-2.8,0.6c-0.8,0.4-1.5,0.9-2.1,1.6c-0.6,0.7-1,1.5-1.4,2.3c-0.3,0.9-0.6,1.8-0.7,2.8
					H738.4z"/>
			</g>
			<g>
				<path fill="#FFFFFF" d="M746,716.6V713h2.7v3.6H746z M746.1,742.1v-20.9h2.4v20.9H746.1z"/>
			</g>
			<g>
				<path fill="#FFFFFF" d="M752.5,721.2h2.6l6.8,17.9l6.8-17.9h2.6l-8.1,20.9h-2.7L752.5,721.2z"/>
			</g>
			<g>
				<path fill="#FFFFFF" d="M776.4,732.2c0,1.1,0.1,2.2,0.4,3.2c0.3,1,0.7,1.9,1.3,2.6c0.6,0.7,1.3,1.3,2.2,1.8
					c0.9,0.4,1.9,0.7,3.1,0.7c1.6,0,2.9-0.4,4.1-1.3c1.1-0.8,1.9-2,2.3-3.6h2.7c-0.3,1-0.7,1.9-1.2,2.8c-0.5,0.8-1.1,1.6-1.8,2.2
					c-0.7,0.6-1.6,1.1-2.6,1.5c-1,0.3-2.2,0.5-3.5,0.5c-1.7,0-3.1-0.3-4.3-0.8c-1.2-0.6-2.2-1.3-3-2.3c-0.8-1-1.4-2.1-1.7-3.5
					c-0.4-1.3-0.6-2.8-0.6-4.3c0-1.5,0.2-3,0.7-4.3c0.4-1.3,1.1-2.5,1.9-3.5s1.8-1.8,3-2.4c1.2-0.6,2.5-0.9,4-0.9c2.9,0,5.1,1,6.8,3
					c1.6,2,2.4,4.8,2.4,8.6H776.4z M790,730.2c0-1-0.1-2-0.4-2.9c-0.3-0.9-0.7-1.7-1.3-2.3c-0.6-0.7-1.2-1.2-2.1-1.6
					c-0.8-0.4-1.8-0.6-2.9-0.6s-2,0.2-2.8,0.6c-0.8,0.4-1.5,0.9-2.1,1.6c-0.6,0.7-1,1.5-1.4,2.3c-0.3,0.9-0.6,1.8-0.7,2.8H790z"/>
			</g>
			<g>
				<path fill="#FFFFFF" d="M799.8,742.1h-2.4v-20.9h2.4v3.9h0.1c0.7-1.7,1.5-2.8,2.6-3.5c1.1-0.7,2.5-1,4.2-1v2.6
					c-1.4,0-2.5,0.2-3.4,0.6c-0.9,0.5-1.6,1.1-2.1,1.9c-0.5,0.8-0.9,1.7-1.1,2.8c-0.2,1.1-0.3,2.2-0.3,3.3V742.1z"/>
			</g>
		</g>
		<g>
			<path fill="#231F20" d="M822.3,768.8H585.8c-0.2,0-0.3-0.1-0.3-0.3c0-0.2,0.1-0.3,0.3-0.3h236.5c0.2,0,0.3,0.1,0.3,0.3
				C822.6,768.7,822.4,768.8,822.3,768.8z"/>
		</g>
		<g>
			<path fill="#3C4855" d="M880,734.2c0,2.3-2.4,4.1-5.4,4.1c-3,0-5.4-1.8-5.4-4.1c0-2.2,2.4-4.1,5.4-4.1
				C877.6,730.1,880,731.9,880,734.2z"/>
			<path fill="#FFFFFF" d="M874.7,738.9c-3.3,0-6-2.1-6-4.7c0-2.6,2.7-4.7,6-4.7c3.3,0,6,2.1,6,4.7
				C880.7,736.8,878,738.9,874.7,738.9z M874.7,730.7c-2.6,0-4.7,1.5-4.7,3.5c0,1.9,2.1,3.5,4.7,3.5c2.6,0,4.8-1.6,4.8-3.5
				C879.4,732.3,877.3,730.7,874.7,730.7z"/>
		</g>
		<g>
			<path fill="#3C4855" d="M907.1,734.2c0-2.2,2.4-4.1,5.4-4.1c3,0,5.4,1.8,5.4,4.1c0,2.3-2.4,4.1-5.4,4.1
				C909.5,738.3,907.1,736.4,907.1,734.2z"/>
			<path fill="#FFFFFF" d="M912.4,738.9c-3.3,0-6-2.1-6-4.7c0-2.6,2.7-4.7,6-4.7s6,2.1,6,4.7C918.4,736.8,915.7,738.9,912.4,738.9z
				 M912.4,730.7c-2.6,0-4.7,1.5-4.7,3.5c0,1.9,2.1,3.5,4.7,3.5c2.6,0,4.7-1.6,4.7-3.5C917.2,732.3,915,730.7,912.4,730.7z"/>
		</g>
		<g>
			<path fill="#3C4855" d="M894.5,724.7c-2.2,0-4.1-2.4-4.1-5.4c0-3,1.8-5.4,4.1-5.4c2.2,0,4.1,2.4,4.1,5.4
				C898.6,722.3,896.7,724.7,894.5,724.7z"/>
			<path fill="#FFFFFF" d="M894.5,725.3c-2.6,0-4.7-2.7-4.7-6c0-3.3,2.1-6,4.7-6c2.6,0,4.7,2.7,4.7,6
				C899.2,722.6,897.1,725.3,894.5,725.3z M894.5,714.6c-1.9,0-3.5,2.1-3.5,4.8c0,2.6,1.5,4.7,3.5,4.7c1.9,0,3.5-2.1,3.5-4.7
				C898,716.7,896.4,714.6,894.5,714.6z"/>
		</g>
		<g>
			<path fill="#3C4855" d="M893.7,744.5c2.2,0,4.1,2.4,4.1,5.4s-1.8,5.4-4.1,5.4c-2.2,0-4.1-2.4-4.1-5.4S891.4,744.5,893.7,744.5z"
				/>
			<path fill="#FFFFFF" d="M893.7,755.9c-2.6,0-4.7-2.7-4.7-6c0-3.3,2.1-6,4.7-6c2.6,0,4.7,2.7,4.7,6
				C898.3,753.2,896.2,755.9,893.7,755.9z M893.7,745.1c-1.9,0-3.5,2.1-3.5,4.8c0,2.6,1.6,4.7,3.5,4.7c1.9,0,3.5-2.1,3.5-4.7
				C897.1,747.3,895.6,745.1,893.7,745.1z"/>
		</g>
		<g>
			<path fill="#3C4855" d="M899.6,734.9c0,3.2-2.6,5.8-5.8,5.8c-3.2,0-5.8-2.6-5.8-5.8c0-3.2,2.6-5.8,5.8-5.8
				C897.1,729.1,899.6,731.7,899.6,734.9z"/>
			<path fill="#FFFFFF" d="M893.8,741.3c-3.5,0-6.4-2.9-6.4-6.4s2.9-6.4,6.4-6.4c3.5,0,6.4,2.9,6.4,6.4S897.4,741.3,893.8,741.3z
				 M893.8,729.7c-2.9,0-5.2,2.3-5.2,5.2c0,2.9,2.3,5.2,5.2,5.2c2.9,0,5.2-2.3,5.2-5.2C899,732.1,896.7,729.7,893.8,729.7z"/>
		</g>
		<g>
			<path fill="#FFFFFF" d="M929.9,770.1H519.7l-0.3-1.5c-2.9-17-4.3-28.3-4.3-33.4c0-9.4,1.6-39.6,1.7-40.9l0.1-1.7h415.8l0.1,1.7
				c0.1,1.3,1.7,31.5,1.7,40.9c0,5.1-1.4,16.4-4.3,33.4L929.9,770.1z M522.8,766.5h404c2.6-15.8,4-26.5,4-31.3c0-8-1.2-32.3-1.6-39
				H520.4c-0.3,6.7-1.6,31-1.6,39C518.8,739.9,520.2,750.7,522.8,766.5z"/>
		</g>
		<g>
			<path fill="#3C4855" d="M533.7,746.9c0-1.5,1.6-2.7,3.5-2.7h47.1c2,0,3.5,1.2,3.5,2.7v9.1c0,1.5-1.6,2.7-3.5,2.7h-47.1
				c-2,0-3.5-1.2-3.5-2.7V746.9z"/>
			<path fill="#FFFFFF" d="M584.3,759.3h-47.1c-2.3,0-4.1-1.5-4.1-3.3v-9.1c0-1.8,1.9-3.3,4.1-3.3h47.1c2.3,0,4.1,1.5,4.1,3.3v9.1
				C588.4,757.9,586.6,759.3,584.3,759.3z M537.3,744.9c-1.6,0-2.9,0.9-2.9,2.1v9.1c0,1.1,1.3,2.1,2.9,2.1h47.1
				c1.6,0,2.9-0.9,2.9-2.1v-9.1c0-1.1-1.3-2.1-2.9-2.1H537.3z"/>
		</g>
	</g>
</g>
</svg>
