<?xml version="1.0" encoding="utf-8"?>
<!-- Generator: Adobe Illustrator 18.1.1, SVG Export Plug-In . SVG Version: 6.00 Build 0)  -->
<svg version="1.1" id="Layer_1" xmlns="http://www.w3.org/2000/svg" xmlns:xlink="http://www.w3.org/1999/xlink" x="0px" y="0px"
	 viewBox="0 0 612 792" enable-background="new 0 0 612 792" xml:space="preserve">
<g>
	<polygon fill="#FFFFFF" points="403.5,410.3 325.5,410.3 325.5,376.4 323.5,376.4 323.5,412.3 403.5,412.3 	"/>
	<polygon fill="#0CBC18" points="422.2,555.3 266.5,555.3 266.5,370.6 264.5,370.6 264.5,557.3 422.2,557.3 	"/>
	<polygon fill="#0CBC18" points="439.1,482.5 296.5,482.5 296.5,369.2 294.5,369.2 294.5,484.5 439.1,484.5 	"/>
	<polyline fill="#FFFFFF" points="112.4,324.3 112.4,258.1 110.4,258.1 110.4,324.3 	"/>
	<path fill="#FFFF33" d="M448.9,338.5v-17.2h3.4l4.1,12.2c0.4,1.1,0.6,2,0.8,2.5c0.2-0.6,0.5-1.5,0.9-2.8l4.1-12h3.1v17.2h-2.2
		v-14.3l-5,14.4H456l-5-14.6v14.6H448.9z"/>
	<path fill="#FFFF33" d="M476.8,337c-0.8,0.7-1.5,1.1-2.3,1.4c-0.8,0.3-1.5,0.4-2.3,0.4c-1.4,0-2.4-0.3-3.2-1
		c-0.8-0.7-1.1-1.5-1.1-2.6c0-0.6,0.1-1.2,0.4-1.7s0.6-0.9,1.1-1.2s1-0.5,1.5-0.7c0.4-0.1,1-0.2,1.9-0.3c1.7-0.2,3-0.4,3.8-0.7
		c0-0.3,0-0.5,0-0.6c0-0.9-0.2-1.5-0.6-1.8c-0.5-0.5-1.3-0.7-2.4-0.7c-1,0-1.7,0.2-2.2,0.5s-0.8,1-1,1.8l-2.1-0.3
		c0.2-0.9,0.5-1.6,0.9-2.1c0.4-0.5,1.1-1,1.9-1.3s1.8-0.4,2.8-0.4c1.1,0,1.9,0.1,2.6,0.4s1.2,0.6,1.5,0.9s0.5,0.9,0.7,1.4
		c0.1,0.4,0.1,1,0.1,1.9v2.8c0,2,0,3.2,0.1,3.7c0.1,0.5,0.3,1,0.5,1.5h-2.2C477,338,476.9,337.5,476.8,337z M476.6,332.2
		c-0.8,0.3-1.9,0.6-3.4,0.8c-0.9,0.1-1.5,0.3-1.8,0.4s-0.6,0.4-0.8,0.7s-0.3,0.6-0.3,1c0,0.6,0.2,1,0.6,1.4s1,0.6,1.9,0.6
		c0.8,0,1.5-0.2,2.2-0.5c0.7-0.3,1.1-0.8,1.4-1.5c0.2-0.5,0.3-1.2,0.3-2.1L476.6,332.2z"/>
	<path fill="#FFFF33" d="M481.2,334.8l2.1-0.3c0.1,0.8,0.4,1.5,1,1.9c0.6,0.4,1.3,0.7,2.2,0.7c1,0,1.7-0.2,2.2-0.6s0.7-0.9,0.7-1.4
		s-0.2-0.9-0.6-1.1c-0.3-0.2-1-0.4-2.2-0.7c-1.5-0.4-2.6-0.7-3.2-1s-1.1-0.7-1.4-1.2s-0.5-1.1-0.5-1.7c0-0.6,0.1-1.1,0.4-1.5
		s0.6-0.9,1-1.2c0.3-0.2,0.8-0.4,1.3-0.6s1.2-0.3,1.8-0.3c1,0,1.8,0.1,2.6,0.4s1.3,0.7,1.6,1.1c0.3,0.4,0.6,1.1,0.7,1.9l-2.1,0.3
		c-0.1-0.6-0.4-1.1-0.8-1.5c-0.4-0.4-1.1-0.5-1.9-0.5c-1,0-1.7,0.2-2.1,0.5c-0.4,0.3-0.6,0.7-0.6,1.1c0,0.3,0.1,0.5,0.3,0.7
		c0.2,0.2,0.4,0.4,0.8,0.6c0.2,0.1,0.8,0.3,1.9,0.5c1.5,0.4,2.5,0.7,3.1,1c0.6,0.3,1.1,0.6,1.4,1.1s0.5,1.1,0.5,1.8s-0.2,1.4-0.6,2
		c-0.4,0.6-1,1.1-1.8,1.4c-0.8,0.3-1.6,0.5-2.6,0.5c-1.6,0-2.8-0.3-3.7-1C481.8,337,481.4,336.1,481.2,334.8z"/>
	<path fill="#FFFF33" d="M498.6,336.6l0.3,1.9c-0.6,0.1-1.1,0.2-1.6,0.2c-0.8,0-1.4-0.1-1.8-0.4c-0.4-0.3-0.7-0.6-0.9-1
		s-0.3-1.2-0.3-2.5v-7.2h-1.5V326h1.5v-3.1l2.1-1.3v4.3h2.1v1.6h-2.1v7.3c0,0.6,0,1,0.1,1.2c0.1,0.2,0.2,0.3,0.4,0.4
		s0.4,0.2,0.7,0.2C498,336.7,498.3,336.7,498.6,336.6z"/>
	<path fill="#FFFF33" d="M509.2,334.5l2.2,0.3c-0.3,1.3-1,2.3-1.9,3c-0.9,0.7-2.1,1.1-3.6,1.1c-1.8,0-3.3-0.6-4.3-1.7
		s-1.6-2.7-1.6-4.7c0-2.1,0.5-3.7,1.6-4.9c1.1-1.2,2.5-1.7,4.2-1.7c1.7,0,3,0.6,4.1,1.7c1.1,1.1,1.6,2.7,1.6,4.8c0,0.1,0,0.3,0,0.6
		h-9.3c0.1,1.4,0.5,2.4,1.2,3.1s1.6,1.1,2.6,1.1c0.8,0,1.4-0.2,2-0.6C508.6,336.2,508.9,335.4,509.2,334.5z M502.3,331.1h6.9
		c-0.1-1-0.4-1.8-0.8-2.4c-0.7-0.8-1.5-1.2-2.6-1.2c-1,0-1.8,0.3-2.4,1S502.4,330,502.3,331.1z"/>
	<path fill="#FFFF33" d="M514,338.5v-12.4h1.9v1.9c0.5-0.9,0.9-1.5,1.3-1.7c0.4-0.2,0.9-0.4,1.4-0.4c0.7,0,1.4,0.2,2.2,0.7l-0.7,2
		c-0.5-0.3-1-0.5-1.5-0.5s-0.9,0.1-1.2,0.4s-0.6,0.7-0.8,1.2c-0.2,0.8-0.4,1.6-0.4,2.5v6.5H514V338.5z"/>
	<path fill="#B5C0C9" d="M484.8,498.2h80.8c0.6-3.8,1.8-11.1,1.8-14.1c0-4-0.7-15.3-0.7-15.3h-82h-1.2h-81c0,0-0.7,11.3-0.7,15.3
		c0,2.9,1.2,10.3,1.8,14.1h79.8H484.8z"/>
	<path fill="#0CBC18" d="M484.8,498.2v1.5h82.1l0.2-1.3c0.3-1.9,0.8-4.7,1.1-7.4c0.2-1.3,0.4-2.7,0.5-3.9c0.1-1.2,0.2-2.2,0.2-3.1
		c0-2.1-0.2-5.9-0.4-9.2c-0.2-3.3-0.4-6.2-0.4-6.2l-0.1-1.4h-83.4h-1.2h-82.4l-0.1,1.4c0,0-0.2,2.8-0.4,6.2
		c-0.2,3.3-0.4,7.2-0.4,9.2c0,0.8,0.1,1.9,0.2,3c0.4,3.6,1.2,8.4,1.6,11.3l0.2,1.3h81.1h1.4V498.2v-1.5h-1.4h-79.8v1.5l1.5-0.2
		c-0.3-1.9-0.7-4.7-1.1-7.4c-0.2-1.3-0.4-2.6-0.5-3.8c-0.1-1.1-0.2-2.1-0.2-2.7c0-1.9,0.2-5.8,0.3-9.1c0.1-1.7,0.2-3.2,0.2-4.3
		s0.1-1.8,0.1-1.8l-1.5-0.1v1.5h81h1.2h82v-1.5l-1.5,0.1c0,0,0,0.7,0.1,1.8c0.1,1.7,0.2,4.3,0.4,6.9c0.1,2.6,0.2,5.1,0.2,6.5
		c0,0.7-0.1,1.6-0.2,2.8c-0.4,3.4-1.1,8.2-1.6,11.1l1.5,0.2v-1.5h-80.8V498.2z"/>
	<path fill="#0F1F30" d="M439,492.1v-17.2h7.6c1.5,0,2.7,0.2,3.5,0.5s1.4,0.9,1.9,1.6s0.7,1.6,0.7,2.6c0,1.2-0.4,2.2-1.2,3.1
		c-0.8,0.8-2,1.4-3.7,1.6c0.6,0.3,1.1,0.6,1.4,0.9c0.7,0.6,1.3,1.4,1.9,2.3l3,4.7h-2.9l-2.3-3.6c-0.7-1-1.2-1.8-1.6-2.4
		c-0.4-0.6-0.8-0.9-1.2-1.1s-0.7-0.4-1-0.5s-0.7-0.1-1.3-0.1h-2.6v7.6H439z M441.2,482.5h4.9c1,0,1.9-0.1,2.4-0.3
		c0.6-0.2,1-0.6,1.3-1s0.5-1,0.5-1.5c0-0.8-0.3-1.5-0.9-2c-0.6-0.5-1.5-0.8-2.8-0.8h-5.4V482.5z"/>
	<path fill="#0F1F30" d="M464.5,488.1l2.2,0.3c-0.3,1.3-1,2.3-1.9,3c-0.9,0.7-2.1,1.1-3.6,1.1c-1.8,0-3.3-0.6-4.3-1.7
		s-1.6-2.7-1.6-4.7c0-2.1,0.5-3.7,1.6-4.9c1.1-1.2,2.5-1.7,4.2-1.7s3,0.6,4.1,1.7c1.1,1.1,1.6,2.7,1.6,4.8c0,0.1,0,0.3,0,0.6h-9.3
		c0.1,1.4,0.5,2.4,1.2,3.1s1.6,1.1,2.6,1.1c0.8,0,1.4-0.2,2-0.6C463.9,489.8,464.2,489,464.5,488.1z M457.6,484.7h6.9
		c-0.1-1-0.4-1.8-0.8-2.4c-0.7-0.8-1.5-1.2-2.6-1.2c-1,0-1.8,0.3-2.4,1C458,482.7,457.6,483.6,457.6,484.7z"/>
	<path fill="#0F1F30" d="M477.5,487.5l2.1,0.3c-0.2,1.4-0.8,2.5-1.7,3.4s-2.1,1.2-3.4,1.2c-1.7,0-3.1-0.6-4.1-1.7s-1.6-2.7-1.6-4.8
		c0-1.3,0.2-2.5,0.7-3.5c0.4-1,1.1-1.8,2-2.3c0.9-0.5,1.9-0.8,3-0.8c1.4,0,2.5,0.3,3.3,1s1.4,1.7,1.7,2.9l-2.1,0.3
		c-0.2-0.8-0.5-1.5-1-1.9s-1.1-0.6-1.8-0.6c-1.1,0-1.9,0.4-2.6,1.1c-0.7,0.8-1,2-1,3.6c0,1.7,0.3,2.9,1,3.6s1.5,1.1,2.5,1.1
		c0.8,0,1.5-0.3,2.1-0.8C477.2,489.1,477.3,488.6,477.5,487.5z"/>
	<path fill="#0F1F30" d="M489.9,488.1l2.2,0.3c-0.3,1.3-1,2.3-1.9,3s-2.1,1.1-3.6,1.1c-1.8,0-3.3-0.6-4.3-1.7s-1.6-2.7-1.6-4.7
		c0-2.1,0.5-3.7,1.6-4.9c1.1-1.2,2.5-1.7,4.2-1.7s3,0.6,4.1,1.7s1.6,2.7,1.6,4.8c0,0.1,0,0.3,0,0.6h-9.3c0.1,1.4,0.5,2.4,1.2,3.1
		s1.6,1.1,2.6,1.1c0.8,0,1.4-0.2,2-0.6S489.5,489,489.9,488.1z M482.9,484.7h6.9c-0.1-1-0.4-1.8-0.8-2.4c-0.7-0.8-1.5-1.2-2.6-1.2
		c-1,0-1.8,0.3-2.4,1C483.4,482.7,483,483.6,482.9,484.7z"/>
	<path fill="#0F1F30" d="M494.7,477.3v-2.4h2.1v2.4H494.7z M494.7,492.1v-12.4h2.1v12.4H494.7z"/>
	<path fill="#0F1F30" d="M503.5,492.1l-4.7-12.4h2.2l2.7,7.5c0.3,0.8,0.6,1.6,0.8,2.5c0.2-0.7,0.4-1.4,0.8-2.4l2.8-7.6h2.2
		l-4.7,12.4H503.5z"/>
	<path fill="#0F1F30" d="M520.5,488.1l2.2,0.3c-0.3,1.3-1,2.3-1.9,3s-2.1,1.1-3.6,1.1c-1.8,0-3.3-0.6-4.3-1.7s-1.6-2.7-1.6-4.7
		c0-2.1,0.5-3.7,1.6-4.9c1.1-1.2,2.5-1.7,4.2-1.7s3,0.6,4.1,1.7s1.6,2.7,1.6,4.8c0,0.1,0,0.3,0,0.6h-9.3c0.1,1.4,0.5,2.4,1.2,3.1
		s1.6,1.1,2.6,1.1c0.8,0,1.4-0.2,2-0.6S520.2,489,520.5,488.1z M513.6,484.7h6.9c-0.1-1-0.4-1.8-0.8-2.4c-0.7-0.8-1.5-1.2-2.6-1.2
		c-1,0-1.8,0.3-2.4,1C514,482.7,513.7,483.6,513.6,484.7z"/>
	<path fill="#0F1F30" d="M525.3,492.1v-12.4h1.9v1.9c0.5-0.9,0.9-1.5,1.3-1.7s0.9-0.4,1.4-0.4c0.7,0,1.4,0.2,2.2,0.7l-0.7,2
		c-0.5-0.3-1-0.5-1.5-0.5s-0.9,0.1-1.2,0.4c-0.4,0.3-0.6,0.7-0.8,1.2c-0.2,0.8-0.4,1.6-0.4,2.5v6.5h-2.2V492.1z"/>
	<path fill="#8A9AA5" d="M545.7,483.7c0,1-1,1.7-2.3,1.7s-2.3-0.8-2.3-1.7c0-1,1-1.7,2.3-1.7S545.7,482.8,545.7,483.7z"/>
	<path fill="#8A9AA5" d="M557.2,483.7c0-1,1-1.7,2.3-1.7s2.3,0.8,2.3,1.7c0,1-1,1.7-2.3,1.7C558.2,485.5,557.2,484.7,557.2,483.7z"
		/>
	<path fill="#8A9AA5" d="M551.8,479.7c-1,0-1.7-1-1.7-2.3s0.8-2.3,1.7-2.3s1.7,1,1.7,2.3C553.6,478.7,552.8,479.7,551.8,479.7z"/>
	<path fill="#8A9AA5" d="M551.5,488.1c1,0,1.7,1,1.7,2.3s-0.8,2.3-1.7,2.3c-1,0-1.7-1-1.7-2.3C549.7,489.2,550.5,488.1,551.5,488.1z
		"/>
	<path fill="#8A9AA5" d="M554,484.1c0,1.4-1.1,2.5-2.5,2.5s-2.5-1.1-2.5-2.5s1.1-2.5,2.5-2.5S554,482.7,554,484.1z"/>
	<path fill="#8A9AA5" d="M407.5,489.2c0-0.6,0.7-1.1,1.5-1.1h20c0.8,0,1.5,0.5,1.5,1.1v3.9c0,0.6-0.7,1.1-1.5,1.1h-20
		c-0.8,0-1.5-0.5-1.5-1.1V489.2z"/>
	<path fill="#B5C0C9" d="M484.8,571.3h80.8c0.6-3.8,1.8-11.1,1.8-14.1c0-4-0.7-15.3-0.7-15.3h-82h-1.2h-81c0,0-0.7,11.3-0.7,15.3
		c0,2.9,1.2,10.3,1.8,14.1h79.8H484.8z"/>
	<path fill="#0CBC18" d="M484.8,571.3v1.5h82.1l0.2-1.3c0.3-1.9,0.8-4.7,1.1-7.4c0.2-1.3,0.4-2.7,0.5-3.9c0.1-1.2,0.2-2.2,0.2-3.1
		c0-2.1-0.2-5.9-0.4-9.2c-0.2-3.3-0.4-6.2-0.4-6.2l-0.1-1.4h-83.4h-1.2h-82.4l-0.1,1.4c0,0-0.2,2.8-0.4,6.2
		c-0.2,3.3-0.4,7.2-0.4,9.2c0,0.8,0.1,1.9,0.2,3c0.4,3.6,1.2,8.4,1.6,11.3l0.2,1.3h81.1h1.4V571.3v-1.5h-1.4h-79.8v1.5l1.5-0.2
		c-0.3-1.9-0.7-4.7-1.1-7.4c-0.2-1.3-0.4-2.6-0.5-3.8c-0.1-1.1-0.2-2.1-0.2-2.7c0-1.9,0.2-5.8,0.3-9.1c0.1-1.7,0.2-3.2,0.2-4.3
		c0.1-1.1,0.1-1.8,0.1-1.8l-1.5-0.1v1.5h81h1.2h82v-1.5l-1.5,0.1c0,0,0,0.7,0.1,1.8c0.1,1.7,0.2,4.3,0.4,6.9
		c0.1,2.6,0.2,5.1,0.2,6.5c0,0.7-0.1,1.6-0.2,2.8c-0.4,3.4-1.1,8.2-1.6,11.1l1.5,0.2v-1.5h-80.8V571.3z"/>
	<path fill="#0F1F30" d="M439,565.2V548h7.6c1.5,0,2.7,0.2,3.5,0.5s1.4,0.9,1.9,1.6s0.7,1.6,0.7,2.6c0,1.2-0.4,2.2-1.2,3.1
		c-0.8,0.9-2,1.4-3.7,1.6c0.6,0.3,1.1,0.6,1.4,0.9c0.7,0.6,1.3,1.4,1.9,2.3l3,4.7h-2.9l-2.3-3.6c-0.7-1-1.2-1.8-1.6-2.4
		c-0.4-0.6-0.8-0.9-1.2-1.1s-0.7-0.4-1-0.5c-0.3-0.1-0.7-0.1-1.3-0.1h-2.6v7.6H439z M441.2,555.6h4.9c1,0,1.9-0.1,2.4-0.3
		c0.5-0.2,1-0.6,1.3-1c0.3-0.4,0.5-1,0.5-1.5c0-0.8-0.3-1.5-0.9-2c-0.6-0.5-1.5-0.8-2.8-0.8h-5.4V555.6z"/>
	<path fill="#0F1F30" d="M464.5,561.2l2.2,0.3c-0.3,1.3-1,2.3-1.9,3c-0.9,0.7-2.1,1.1-3.6,1.1c-1.8,0-3.3-0.6-4.3-1.7
		c-1-1.1-1.6-2.7-1.6-4.7c0-2.1,0.5-3.7,1.6-4.9c1.1-1.2,2.5-1.7,4.2-1.7s3,0.6,4.1,1.7c1.1,1.1,1.6,2.7,1.6,4.8c0,0.1,0,0.3,0,0.6
		h-9.3c0.1,1.4,0.5,2.4,1.2,3.1s1.6,1.1,2.6,1.1c0.8,0,1.4-0.2,2-0.6C463.9,562.9,464.2,562,464.5,561.2z M457.6,557.7h6.9
		c-0.1-1-0.4-1.8-0.8-2.4c-0.7-0.8-1.5-1.2-2.6-1.2c-1,0-1.8,0.3-2.4,1C458.1,555.8,457.6,556.7,457.6,557.7z"/>
	<path fill="#0F1F30" d="M477.5,560.6l2.1,0.3c-0.2,1.4-0.8,2.5-1.7,3.4c-0.9,0.9-2.1,1.2-3.4,1.2c-1.7,0-3.1-0.6-4.1-1.7
		c-1-1.1-1.6-2.7-1.6-4.8c0-1.3,0.2-2.5,0.7-3.5s1.1-1.8,2-2.3c0.9-0.5,1.9-0.8,3-0.8c1.4,0,2.5,0.3,3.3,1s1.4,1.7,1.7,2.9l-2.1,0.3
		c-0.2-0.8-0.5-1.5-1-1.9c-0.5-0.4-1.1-0.6-1.8-0.6c-1.1,0-1.9,0.4-2.6,1.1s-1,2-1,3.6c0,1.7,0.3,2.9,1,3.6s1.5,1.1,2.5,1.1
		c0.8,0,1.5-0.3,2.1-0.8C477.2,562.2,477.3,561.7,477.5,560.6z"/>
	<path fill="#0F1F30" d="M489.9,561.2l2.2,0.3c-0.3,1.3-1,2.3-1.9,3s-2.1,1.1-3.6,1.1c-1.8,0-3.3-0.6-4.3-1.7
		c-1-1.1-1.6-2.7-1.6-4.7c0-2.1,0.5-3.7,1.6-4.9c1.1-1.2,2.5-1.7,4.2-1.7s3,0.6,4.1,1.7c1.1,1.1,1.6,2.7,1.6,4.8c0,0.1,0,0.3,0,0.6
		h-9.3c0.1,1.4,0.5,2.4,1.2,3.1s1.6,1.1,2.6,1.1c0.8,0,1.4-0.2,2-0.6C489.3,562.9,489.5,562,489.9,561.2z M482.9,557.7h6.9
		c-0.1-1-0.4-1.8-0.8-2.4c-0.7-0.8-1.5-1.2-2.6-1.2c-1,0-1.8,0.3-2.4,1S483,556.7,482.9,557.7z"/>
	<path fill="#0F1F30" d="M494.7,550.4V548h2.1v2.4H494.7z M494.7,565.2v-12.4h2.1v12.4H494.7z"/>
	<path fill="#0F1F30" d="M503.5,565.2l-4.7-12.4h2.2l2.7,7.5c0.3,0.8,0.6,1.6,0.8,2.5c0.2-0.7,0.4-1.4,0.8-2.4l2.8-7.6h2.2
		l-4.7,12.4H503.5z"/>
	<path fill="#0F1F30" d="M520.5,561.2l2.2,0.3c-0.3,1.3-1,2.3-1.9,3s-2.1,1.1-3.6,1.1c-1.8,0-3.3-0.6-4.3-1.7
		c-1-1.1-1.6-2.7-1.6-4.7c0-2.1,0.5-3.7,1.6-4.9c1.1-1.2,2.5-1.7,4.2-1.7s3,0.6,4.1,1.7c1.1,1.1,1.6,2.7,1.6,4.8c0,0.1,0,0.3,0,0.6
		h-9.3c0.1,1.4,0.5,2.4,1.2,3.1s1.6,1.1,2.6,1.1c0.8,0,1.4-0.2,2-0.6C519.9,562.9,520.2,562,520.5,561.2z M513.6,557.7h6.9
		c-0.1-1-0.4-1.8-0.8-2.4c-0.7-0.8-1.5-1.2-2.6-1.2c-1,0-1.8,0.3-2.4,1S513.7,556.7,513.6,557.7z"/>
	<path fill="#0F1F30" d="M525.3,565.2v-12.4h1.9v1.9c0.5-0.9,0.9-1.5,1.3-1.7s0.9-0.4,1.4-0.4c0.7,0,1.4,0.2,2.2,0.7l-0.7,2
		c-0.5-0.3-1-0.5-1.5-0.5s-0.9,0.1-1.2,0.4s-0.6,0.7-0.8,1.2c-0.2,0.8-0.4,1.6-0.4,2.5v6.5h-2.2V565.2z"/>
	<path fill="#8A9AA5" d="M545.7,556.8c0,1-1,1.7-2.3,1.7s-2.3-0.8-2.3-1.7c0-1,1-1.7,2.3-1.7S545.7,555.9,545.7,556.8z"/>
	<path fill="#8A9AA5" d="M557.2,556.8c0-1,1-1.7,2.3-1.7s2.3,0.8,2.3,1.7c0,1-1,1.7-2.3,1.7C558.2,558.5,557.2,557.8,557.2,556.8z"
		/>
	<path fill="#8A9AA5" d="M551.8,552.8c-1,0-1.7-1-1.7-2.3s0.8-2.3,1.7-2.3s1.7,1,1.7,2.3C553.6,551.8,552.8,552.8,551.8,552.8z"/>
	<path fill="#8A9AA5" d="M551.5,561.2c1,0,1.7,1,1.7,2.3s-0.8,2.3-1.7,2.3c-1,0-1.7-1-1.7-2.3C549.7,562.2,550.5,561.2,551.5,561.2z
		"/>
	<path fill="#8A9AA5" d="M554,557.1c0,1.4-1.1,2.5-2.5,2.5s-2.5-1.1-2.5-2.5c0-1.4,1.1-2.5,2.5-2.5C552.9,554.7,554,555.8,554,557.1
		z"/>
	<path fill="#8A9AA5" d="M407.5,562.2c0-0.6,0.7-1.1,1.5-1.1h20c0.8,0,1.5,0.5,1.5,1.1v3.9c0,0.6-0.7,1.1-1.5,1.1h-20
		c-0.8,0-1.5-0.5-1.5-1.1V562.2z"/>
	<path fill="#FFFFFF" d="M62.6,247v-8.7l1.3-42.3c8.7-42.3,47.1-41.4,47.1-41.4s39.1-2.2,47.8,41.4l1.5,42.3v8.7
		c-3.8,9.3-11.5,11-11.5,11H74.1C74,258.1,66,255.3,62.6,247z"/>
	<path fill="#FFFFFF" d="M62.6,247h1v-8.7l1.3-42.3l-1,0l1,0.2c2.1-10,5.8-17.5,10.2-23.2c6.7-8.5,15.1-12.8,22.1-15.1
		c7-2.2,12.6-2.4,13.6-2.4l0.1,0l0,0l0.1,0l0,0c0.1,0,0.4,0,0.8,0c2.9,0,12.5,0.4,22.2,5.7c4.9,2.6,9.8,6.5,14,12.1
		c4.2,5.6,7.7,13,9.6,22.8l1-0.2l-1,0l1.5,42.3l0,8.7h1l-0.9-0.4c-1.8,4.4-4.5,7-6.8,8.5c-1.1,0.7-2.1,1.2-2.9,1.5
		c-0.4,0.1-0.7,0.2-0.8,0.3c-0.1,0-0.2,0-0.2,0.1l0,0l0,0l0.1,0.3l-0.1-0.3l0,0l0.1,0.3l-0.1-0.3l0.2,1v-1H74.1
		c-0.3,0-0.5,0.1-0.7,0.3l0.7,0.7l-0.2-1c-0.1,0-0.3,0.1-0.5,0.3l0.7,0.7l-0.2-1l0.2,0.9v-1c0,0-0.1,0-0.2,0l0.2,0.9v-1v0.7l0.2-0.7
		c0,0,0,0-0.2,0v0.7l0.2-0.7l0,0c0,0-0.3-0.1-0.5-0.2c-1-0.4-2.9-1.3-4.8-3c-2-1.7-4-4-5.4-7.2L62.6,247h1H62.6l-0.9,0.4
		c1.8,4.3,4.7,7.2,7.2,9c1.3,0.9,2.4,1.5,3.3,2c0.4,0.2,0.8,0.4,1.1,0.5c0.1,0.1,0.3,0.1,0.4,0.1l0.2,0c0.1,0,0.1,0,0.3,0
		c0,0,0.1,0,0.2,0c0.1,0,0.3-0.1,0.5-0.3l-0.7-0.7v1h74.7l0.2,0c0.1,0,2.1-0.5,4.7-2.2c2.5-1.7,5.6-4.6,7.5-9.4
		c0.1-0.1,0.1-0.2,0.1-0.4v-8.7l0,0l-1.5-42.3l0-0.2c-2-10-5.6-17.7-10-23.6c-6.6-8.8-14.9-13.5-22.2-15.9
		c-7.2-2.5-13.4-2.7-15.7-2.7c-0.6,0-1,0-1,0l0.1,1l0-1c0,0-0.1,0-0.2,0c-1.5,0-11.3,0.2-21.9,5.6c-5.3,2.7-10.7,6.7-15.4,12.6
		c-4.7,5.9-8.5,13.7-10.6,24l0,0.2l-1.3,42.3l0,0v8.7c0,0.1,0,0.3,0.1,0.4L62.6,247z"/>
	<path d="M62.6,238.6h97.7c0.1,0,0.3-0.1,0.3-0.3s-0.1-0.3-0.3-0.3H62.6c-0.1,0-0.3,0.1-0.3,0.3S62.4,238.6,62.6,238.6"/>
	<path fill="#FFFFFF" d="M160.3,236.8H62.6c-0.8,0-1.5,0.7-1.5,1.5s0.7,1.5,1.5,1.5h97.7c0.8,0,1.5-0.7,1.5-1.5
		S161.1,236.8,160.3,236.8"/>
	<path fill="#B5C0C9" d="M62.6,238.6v8.7c2.9,7.6,11.6,10.7,11.6,10.7h75c7.2-1.5,11.1-10.7,11.1-10.7v-8.7H62.6z"/>
	<path fill="#FFFFFF" d="M62.6,238.6h-1v8.9l0.1,0.2c1.6,4.1,4.6,6.9,7.3,8.7c2.6,1.8,4.9,2.6,4.9,2.6L74,259h75.3l0.1,0
		c2-0.4,3.7-1.4,5.2-2.5c2.2-1.7,3.8-3.9,4.9-5.7c1.1-1.8,1.7-3.1,1.7-3.1l0.1-0.2v-9.9H61.6v1H62.6v1h96.7v7.7h1l-0.9-0.4l0,0
		c-0.1,0.2-1.1,2.5-2.9,4.8c-0.9,1.2-2,2.3-3.2,3.3c-1.3,1-2.7,1.7-4.2,2l0.2,1v-1h-75v1l0.3-0.9l0,0c-0.2-0.1-2.3-0.9-4.7-2.5
		c-2.4-1.7-5-4.2-6.3-7.6l-0.9,0.4h1v-8.7H62.6v1V238.6z"/>
	<path fill="#293047" d="M66.7,217.9l6.6-17.2h2.4l7,17.2h-2.5l-2-5.2H71l-1.9,5.2H66.7z M71.6,210.8h5.8l-1.8-4.8
		c-0.5-1.4-1-2.6-1.2-3.6c-0.2,1.1-0.5,2.2-0.9,3.3L71.6,210.8z"/>
	<path fill="#293047" d="M84.3,217.9v-12.4h1.9v1.8c0.9-1.4,2.2-2.1,4-2.1c0.8,0,1.4,0.1,2.1,0.4c0.7,0.3,1.1,0.6,1.4,1.1
		s0.5,1,0.7,1.6c0.1,0.4,0.1,1.1,0.1,2.1v7.7h-2.1v-7.6c0-0.9-0.1-1.5-0.2-1.9s-0.5-0.8-0.9-1c-0.4-0.2-0.9-0.4-1.5-0.4
		c-0.9,0-1.7,0.3-2.3,0.9s-1,1.7-1,3.2v6.8h-2.2V217.9z"/>
	<path fill="#293047" d="M102.3,216l0.3,1.9c-0.6,0.1-1.1,0.2-1.6,0.2c-0.8,0-1.4-0.1-1.8-0.4c-0.4-0.3-0.7-0.6-0.9-1
		s-0.3-1.2-0.3-2.5V207h-1.5v-1.6H98v-3.1l2.1-1.3v4.3h2.1v1.6h-2.1v7.3c0,0.6,0,1,0.1,1.2c0.1,0.2,0.2,0.3,0.4,0.4s0.4,0.2,0.7,0.2
		C101.6,216.1,101.9,216,102.3,216z"/>
	<path fill="#293047" d="M112.8,213.9l2.2,0.3c-0.3,1.3-1,2.3-1.9,3c-0.9,0.7-2.1,1.1-3.6,1.1c-1.8,0-3.3-0.6-4.3-1.7
		s-1.6-2.7-1.6-4.7c0-2.1,0.5-3.7,1.6-4.9s2.5-1.7,4.2-1.7s3,0.6,4.1,1.7s1.6,2.7,1.6,4.8c0,0.1,0,0.3,0,0.6h-9.3
		c0.1,1.4,0.5,2.4,1.2,3.1c0.7,0.7,1.6,1.1,2.6,1.1c0.8,0,1.4-0.2,2-0.6S112.5,214.8,112.8,213.9z M105.9,210.5h6.9
		c-0.1-1-0.4-1.8-0.8-2.4c-0.7-0.8-1.5-1.2-2.6-1.2c-1,0-1.8,0.3-2.4,1C106.4,208.6,106,209.4,105.9,210.5z"/>
	<path fill="#293047" d="M117.7,217.9v-12.4h1.9v1.8c0.9-1.4,2.2-2.1,4-2.1c0.8,0,1.4,0.1,2.1,0.4c0.7,0.3,1.1,0.6,1.4,1.1
		s0.5,1,0.7,1.6c0.1,0.4,0.1,1.1,0.1,2.1v7.7h-2.1v-7.6c0-0.9-0.1-1.5-0.2-1.9s-0.5-0.8-0.9-1c-0.4-0.2-0.9-0.4-1.5-0.4
		c-0.9,0-1.7,0.3-2.3,0.9s-1,1.7-1,3.2v6.8h-2.2V217.9z"/>
	<path fill="#293047" d="M131,217.9v-12.4h1.9v1.8c0.9-1.4,2.2-2.1,4-2.1c0.8,0,1.4,0.1,2.1,0.4c0.7,0.3,1.1,0.6,1.4,1.1
		s0.5,1,0.7,1.6c0.1,0.4,0.1,1.1,0.1,2.1v7.7h-2.1v-7.6c0-0.9-0.1-1.5-0.2-1.9s-0.5-0.8-0.9-1c-0.4-0.2-0.9-0.4-1.5-0.4
		c-0.9,0-1.7,0.3-2.3,0.9s-1,1.7-1,3.2v6.8H131V217.9z"/>
	<path fill="#293047" d="M152.5,216.3c-0.8,0.7-1.5,1.1-2.3,1.4c-0.8,0.3-1.5,0.4-2.3,0.4c-1.4,0-2.4-0.3-3.2-1s-1.1-1.5-1.1-2.6
		c0-0.6,0.1-1.2,0.4-1.7s0.6-0.9,1.1-1.2s1-0.5,1.5-0.7c0.4-0.1,1-0.2,1.9-0.3c1.7-0.2,3-0.4,3.8-0.7c0-0.3,0-0.5,0-0.6
		c0-0.9-0.2-1.5-0.6-1.8c-0.5-0.5-1.3-0.7-2.4-0.7c-1,0-1.7,0.2-2.2,0.5c-0.5,0.3-0.8,1-1,1.8l-2.1-0.3c0.2-0.9,0.5-1.6,0.9-2.1
		s1.1-1,1.9-1.3c0.8-0.3,1.8-0.4,2.8-0.4c1.1,0,1.9,0.1,2.6,0.4c0.7,0.3,1.2,0.6,1.5,0.9c0.3,0.3,0.5,0.9,0.7,1.4
		c0.1,0.4,0.1,1,0.1,1.9v2.8c0,2,0,3.2,0.1,3.7s0.3,1,0.5,1.5h-2.2C152.7,217.4,152.6,216.9,152.5,216.3z M152.3,211.6
		c-0.8,0.3-1.9,0.6-3.4,0.8c-0.9,0.1-1.5,0.3-1.8,0.4c-0.3,0.1-0.6,0.4-0.8,0.7c-0.2,0.3-0.3,0.6-0.3,1c0,0.6,0.2,1,0.6,1.4
		c0.4,0.4,1,0.6,1.9,0.6c0.8,0,1.5-0.2,2.2-0.5c0.7-0.3,1.1-0.8,1.4-1.5c0.2-0.5,0.3-1.2,0.3-2.1L152.3,211.6z"/>
	<path fill="#B5C0C9" d="M484.8,424.4h80.8c0.6-3.8,1.8-11.1,1.8-14.1c0-4-0.7-15.3-0.7-15.3h-82h-1.2h-81c0,0-0.7,11.3-0.7,15.3
		c0,2.9,1.2,10.3,1.8,14.1h79.8H484.8z"/>
	<path fill="#FFFFFF" d="M484.8,424.4v1h81.7l0.1-0.8c0.3-1.9,0.8-4.7,1.1-7.4c0.4-2.7,0.7-5.3,0.7-6.9c0-2-0.2-5.9-0.4-9.2
		c-0.2-3.3-0.4-6.2-0.4-6.2l-0.1-0.9h-82.9h-1.2h-81.9l-0.1,0.9c0,0-0.2,2.8-0.4,6.2c-0.2,3.3-0.4,7.2-0.4,9.2
		c0,1.6,0.3,4.1,0.7,6.9c0.4,2.7,0.8,5.5,1.1,7.4l0.1,0.8h80.7h1.4V424.4v-1h-1.4h-79.8v1l1-0.2c-0.3-1.9-0.7-4.7-1.1-7.4
		c-0.4-2.7-0.7-5.2-0.7-6.6c0-2,0.2-5.8,0.3-9.1c0.1-1.7,0.2-3.2,0.2-4.3c0.1-1.1,0.1-1.8,0.1-1.8l-1-0.1v1h81h1.2h82v-1l-1,0.1
		c0,0,0,0.7,0.1,1.8c0.2,3.4,0.6,10.5,0.6,13.4c0,1.4-0.3,4-0.7,6.6c-0.4,2.7-0.8,5.4-1.1,7.3l1,0.2v-1h-80.8V424.4z"/>
	<path fill="#0F1F30" d="M439,418.2V401h7.6c1.5,0,2.7,0.2,3.5,0.5s1.4,0.9,1.9,1.6s0.7,1.6,0.7,2.6c0,1.2-0.4,2.2-1.2,3.1
		c-0.8,0.9-2,1.4-3.7,1.6c0.6,0.3,1.1,0.6,1.4,0.9c0.7,0.6,1.3,1.4,1.9,2.3l3,4.7h-2.9l-2.3-3.6c-0.7-1-1.2-1.8-1.6-2.4
		c-0.4-0.6-0.8-0.9-1.2-1.1s-0.7-0.4-1-0.5s-0.7-0.1-1.3-0.1h-2.6v7.6H439z M441.2,408.6h4.9c1,0,1.9-0.1,2.4-0.3s1-0.6,1.3-1
		s0.5-1,0.5-1.5c0-0.8-0.3-1.5-0.9-2c-0.6-0.5-1.5-0.8-2.8-0.8h-5.4V408.6z"/>
	<path fill="#0F1F30" d="M464.5,414.2l2.2,0.3c-0.3,1.3-1,2.3-1.9,3c-0.9,0.7-2.1,1.1-3.6,1.1c-1.8,0-3.3-0.6-4.3-1.7
		s-1.6-2.7-1.6-4.7c0-2.1,0.5-3.7,1.6-4.9c1.1-1.2,2.5-1.7,4.2-1.7s3,0.6,4.1,1.7c1.1,1.1,1.6,2.7,1.6,4.8c0,0.1,0,0.3,0,0.6h-9.3
		c0.1,1.4,0.5,2.4,1.2,3.1s1.6,1.1,2.6,1.1c0.8,0,1.4-0.2,2-0.6C463.9,415.9,464.2,415.1,464.5,414.2z M457.6,410.8h6.9
		c-0.1-1-0.4-1.8-0.8-2.4c-0.7-0.8-1.5-1.2-2.6-1.2c-1,0-1.8,0.3-2.4,1C458.1,408.9,457.6,409.7,457.6,410.8z"/>
	<path fill="#0F1F30" d="M477.5,413.7l2.1,0.3c-0.2,1.4-0.8,2.5-1.7,3.4s-2.1,1.2-3.4,1.2c-1.7,0-3.1-0.6-4.1-1.7s-1.6-2.7-1.6-4.8
		c0-1.3,0.2-2.5,0.7-3.5s1.1-1.8,2-2.3c0.9-0.5,1.9-0.8,3-0.8c1.4,0,2.5,0.3,3.3,1s1.4,1.7,1.7,2.9l-2.1,0.3c-0.2-0.8-0.5-1.5-1-1.9
		s-1.1-0.6-1.8-0.6c-1.1,0-1.9,0.4-2.6,1.1s-1,2-1,3.6c0,1.7,0.3,2.9,1,3.6s1.5,1.1,2.5,1.1c0.8,0,1.5-0.3,2.1-0.8
		C477.2,415.3,477.3,414.7,477.5,413.7z"/>
	<path fill="#0F1F30" d="M489.9,414.2l2.2,0.3c-0.3,1.3-1,2.3-1.9,3s-2.1,1.1-3.6,1.1c-1.8,0-3.3-0.6-4.3-1.7s-1.6-2.7-1.6-4.7
		c0-2.1,0.5-3.7,1.6-4.9s2.5-1.7,4.2-1.7s3,0.6,4.1,1.7s1.6,2.7,1.6,4.8c0,0.1,0,0.3,0,0.6h-9.3c0.1,1.4,0.5,2.4,1.2,3.1
		s1.6,1.1,2.6,1.1c0.8,0,1.4-0.2,2-0.6S489.5,415.1,489.9,414.2z M482.9,410.8h6.9c-0.1-1-0.4-1.8-0.8-2.4c-0.7-0.8-1.5-1.2-2.6-1.2
		c-1,0-1.8,0.3-2.4,1S483,409.7,482.9,410.8z"/>
	<path fill="#0F1F30" d="M494.7,403.5v-2.4h2.1v2.4H494.7z M494.7,418.2v-12.4h2.1v12.4H494.7z"/>
	<path fill="#0F1F30" d="M503.5,418.2l-4.7-12.4h2.2l2.7,7.5c0.3,0.8,0.6,1.6,0.8,2.5c0.2-0.7,0.4-1.4,0.8-2.4l2.8-7.6h2.2
		l-4.7,12.4H503.5z"/>
	<path fill="#0F1F30" d="M520.5,414.2l2.2,0.3c-0.3,1.3-1,2.3-1.9,3s-2.1,1.1-3.6,1.1c-1.8,0-3.3-0.6-4.3-1.7s-1.6-2.7-1.6-4.7
		c0-2.1,0.5-3.7,1.6-4.9s2.5-1.7,4.2-1.7s3,0.6,4.1,1.7s1.6,2.7,1.6,4.8c0,0.1,0,0.3,0,0.6h-9.3c0.1,1.4,0.5,2.4,1.2,3.1
		s1.6,1.1,2.6,1.1c0.8,0,1.4-0.2,2-0.6S520.2,415.1,520.5,414.2z M513.6,410.8h6.9c-0.1-1-0.4-1.8-0.8-2.4c-0.7-0.8-1.5-1.2-2.6-1.2
		c-1,0-1.8,0.3-2.4,1S513.7,409.7,513.6,410.8z"/>
	<path fill="#0F1F30" d="M525.3,418.2v-12.4h1.9v1.9c0.5-0.9,0.9-1.5,1.3-1.7s0.9-0.4,1.4-0.4c0.7,0,1.4,0.2,2.2,0.7l-0.7,2
		c-0.5-0.3-1-0.5-1.5-0.5s-0.9,0.1-1.2,0.4s-0.6,0.7-0.8,1.2c-0.2,0.8-0.4,1.6-0.4,2.5v6.5h-2.2V418.2z"/>
	<path fill="#8A9AA5" d="M545.7,409.9c0,1-1,1.7-2.3,1.7s-2.3-0.8-2.3-1.7c0-1,1-1.7,2.3-1.7S545.7,408.9,545.7,409.9z"/>
	<path fill="#8A9AA5" d="M557.2,409.9c0-1,1-1.7,2.3-1.7s2.3,0.8,2.3,1.7c0,1-1,1.7-2.3,1.7C558.2,411.6,557.2,410.8,557.2,409.9z"
		/>
	<path fill="#8A9AA5" d="M551.8,405.8c-1,0-1.7-1-1.7-2.3s0.8-2.3,1.7-2.3s1.7,1,1.7,2.3C553.6,404.8,552.8,405.8,551.8,405.8z"/>
	<path fill="#8A9AA5" d="M551.5,414.3c1,0,1.7,1,1.7,2.3s-0.8,2.3-1.7,2.3c-1,0-1.7-1-1.7-2.3C549.7,415.3,550.5,414.3,551.5,414.3z
		"/>
	<path fill="#8A9AA5" d="M554,410.2c0,1.4-1.1,2.5-2.5,2.5s-2.5-1.1-2.5-2.5s1.1-2.5,2.5-2.5S554,408.8,554,410.2z"/>
	<path fill="#8A9AA5" d="M407.5,415.3c0-0.6,0.7-1.1,1.5-1.1h20c0.8,0,1.5,0.5,1.5,1.1v3.9c0,0.6-0.7,1.1-1.5,1.1h-20
		c-0.8,0-1.5-0.5-1.5-1.1V415.3z"/>
	<polygon fill="#FFFFFF" points="459.5,297.2 306,297.2 306,274.1 304,274.1 304,299.2 459.5,299.2 	"/>
	<path fill="#B5C0C9" d="M484.8,314.8h80.8c0.6-3.8,1.8-11.1,1.8-14.1c0-4-0.7-15.3-0.7-15.3h-82h-1.2h-81c0,0-0.7,11.3-0.7,15.3
		c0,2.9,1.2,10.3,1.8,14.1h79.8H484.8z"/>
	<path fill="#FFFFFF" d="M484.8,314.8v1h81.7l0.1-0.8c0.3-1.9,0.8-4.7,1.1-7.4c0.4-2.7,0.7-5.3,0.7-6.9c0-2-0.2-5.9-0.4-9.2
		c-0.2-3.3-0.4-6.2-0.4-6.2l-0.1-0.9h-82.9h-1.2h-81.9l-0.1,0.9c0,0-0.2,2.8-0.4,6.2c-0.2,3.3-0.4,7.2-0.4,9.2
		c0,1.6,0.3,4.1,0.7,6.9c0.4,2.7,0.8,5.5,1.1,7.4l0.1,0.8h80.7h1.4V314.8v-1h-1.4h-79.8v1l1-0.2c-0.3-1.9-0.7-4.7-1.1-7.4
		c-0.4-2.7-0.7-5.2-0.7-6.6c0-2,0.2-5.8,0.3-9.1c0.1-1.7,0.2-3.2,0.2-4.3s0.1-1.8,0.1-1.8l-1-0.1v1h81h1.2h82v-1l-1,0.1
		c0,0,0,0.7,0.1,1.8c0.2,3.4,0.6,10.5,0.6,13.4c0,1.4-0.3,4-0.7,6.6c-0.4,2.7-0.8,5.4-1.1,7.3l1,0.2v-1h-80.8V314.8z"/>
	<path fill="#0F1F30" d="M439,308.6v-17.2h7.6c1.5,0,2.7,0.2,3.5,0.5s1.4,0.9,1.9,1.6s0.7,1.6,0.7,2.6c0,1.2-0.4,2.2-1.2,3.1
		s-2,1.4-3.7,1.6c0.6,0.3,1.1,0.6,1.4,0.9c0.7,0.6,1.3,1.4,1.9,2.3l3,4.7h-2.9l-2.3-3.6c-0.7-1-1.2-1.8-1.6-2.4s-0.8-0.9-1.2-1.1
		s-0.7-0.4-1-0.5s-0.7-0.1-1.3-0.1h-2.6v7.6H439z M441.2,299h4.9c1,0,1.9-0.1,2.4-0.3s1-0.6,1.3-1s0.5-1,0.5-1.5
		c0-0.8-0.3-1.5-0.9-2s-1.5-0.8-2.8-0.8h-5.4V299z"/>
	<path fill="#0F1F30" d="M464.5,304.6l2.2,0.3c-0.3,1.3-1,2.3-1.9,3s-2.1,1.1-3.6,1.1c-1.8,0-3.3-0.6-4.3-1.7s-1.6-2.7-1.6-4.7
		c0-2.1,0.5-3.7,1.6-4.9s2.5-1.7,4.2-1.7s3,0.6,4.1,1.7s1.6,2.7,1.6,4.8c0,0.1,0,0.3,0,0.6h-9.3c0.1,1.4,0.5,2.4,1.2,3.1
		s1.6,1.1,2.6,1.1c0.8,0,1.4-0.2,2-0.6S464.2,305.5,464.5,304.6z M457.6,301.2h6.9c-0.1-1-0.4-1.8-0.8-2.4c-0.7-0.8-1.5-1.2-2.6-1.2
		c-1,0-1.8,0.3-2.4,1S457.6,300.1,457.6,301.2z"/>
	<path fill="#0F1F30" d="M477.5,304.1l2.1,0.3c-0.2,1.4-0.8,2.5-1.7,3.4s-2.1,1.2-3.4,1.2c-1.7,0-3.1-0.6-4.1-1.7s-1.6-2.7-1.6-4.8
		c0-1.3,0.2-2.5,0.7-3.5s1.1-1.8,2-2.3s1.9-0.8,3-0.8c1.4,0,2.5,0.3,3.3,1s1.4,1.7,1.7,2.9l-2.1,0.3c-0.2-0.8-0.5-1.5-1-1.9
		s-1.1-0.6-1.8-0.6c-1.1,0-1.9,0.4-2.6,1.1s-1,2-1,3.6c0,1.7,0.3,2.9,1,3.6s1.5,1.1,2.5,1.1c0.8,0,1.5-0.3,2.1-0.8
		C477.2,305.7,477.3,305.1,477.5,304.1z"/>
	<path fill="#0F1F30" d="M489.9,304.6l2.2,0.3c-0.3,1.3-1,2.3-1.9,3s-2.1,1.1-3.6,1.1c-1.8,0-3.3-0.6-4.3-1.7s-1.6-2.7-1.6-4.7
		c0-2.1,0.5-3.7,1.6-4.9s2.5-1.7,4.2-1.7s3,0.6,4.1,1.7s1.6,2.7,1.6,4.8c0,0.1,0,0.3,0,0.6h-9.3c0.1,1.4,0.5,2.4,1.2,3.1
		s1.6,1.1,2.6,1.1c0.8,0,1.4-0.2,2-0.6S489.5,305.5,489.9,304.6z M482.9,301.2h6.9c-0.1-1-0.4-1.8-0.8-2.4c-0.7-0.8-1.5-1.2-2.6-1.2
		c-1,0-1.8,0.3-2.4,1S483,300.1,482.9,301.2z"/>
	<path fill="#0F1F30" d="M494.7,293.9v-2.4h2.1v2.4H494.7z M494.7,308.6v-12.4h2.1v12.4H494.7z"/>
	<path fill="#0F1F30" d="M503.5,308.6l-4.7-12.4h2.2l2.7,7.5c0.3,0.8,0.6,1.6,0.8,2.5c0.2-0.7,0.4-1.4,0.8-2.4l2.8-7.6h2.2
		l-4.7,12.4H503.5z"/>
	<path fill="#0F1F30" d="M520.5,304.6l2.2,0.3c-0.3,1.3-1,2.3-1.9,3s-2.1,1.1-3.6,1.1c-1.8,0-3.3-0.6-4.3-1.7s-1.6-2.7-1.6-4.7
		c0-2.1,0.5-3.7,1.6-4.9s2.5-1.7,4.2-1.7s3,0.6,4.1,1.7s1.6,2.7,1.6,4.8c0,0.1,0,0.3,0,0.6h-9.3c0.1,1.4,0.5,2.4,1.2,3.1
		s1.6,1.1,2.6,1.1c0.8,0,1.4-0.2,2-0.6S520.2,305.5,520.5,304.6z M513.6,301.2h6.9c-0.1-1-0.4-1.8-0.8-2.4c-0.7-0.8-1.5-1.2-2.6-1.2
		c-1,0-1.8,0.3-2.4,1S513.7,300.1,513.6,301.2z"/>
	<path fill="#0F1F30" d="M525.3,308.6v-12.4h1.9v1.9c0.5-0.9,0.9-1.5,1.3-1.7s0.9-0.4,1.4-0.4c0.7,0,1.4,0.2,2.2,0.7l-0.7,2
		c-0.5-0.3-1-0.5-1.5-0.5s-0.9,0.1-1.2,0.4s-0.6,0.7-0.8,1.2c-0.2,0.8-0.4,1.6-0.4,2.5v6.5h-2.2V308.6z"/>
	<path fill="#8A9AA5" d="M545.7,300.3c0,1-1,1.7-2.3,1.7s-2.3-0.8-2.3-1.7c0-1,1-1.7,2.3-1.7S545.7,299.3,545.7,300.3z"/>
	<path fill="#8A9AA5" d="M557.2,300.3c0-1,1-1.7,2.3-1.7s2.3,0.8,2.3,1.7c0,1-1,1.7-2.3,1.7C558.2,302,557.2,301.2,557.2,300.3z"/>
	<path fill="#8A9AA5" d="M551.8,296.2c-1,0-1.7-1-1.7-2.3s0.8-2.3,1.7-2.3s1.7,1,1.7,2.3C553.6,295.2,552.8,296.2,551.8,296.2z"/>
	<path fill="#8A9AA5" d="M551.5,304.7c1,0,1.7,1,1.7,2.3s-0.8,2.3-1.7,2.3c-1,0-1.7-1-1.7-2.3C549.7,305.7,550.5,304.7,551.5,304.7z
		"/>
	<path fill="#8A9AA5" d="M554,300.6c0,1.4-1.1,2.5-2.5,2.5s-2.5-1.1-2.5-2.5s1.1-2.5,2.5-2.5S554,299.2,554,300.6z"/>
	<path fill="#8A9AA5" d="M407.5,305.7c0-0.6,0.7-1.1,1.5-1.1h20c0.8,0,1.5,0.5,1.5,1.1v3.9c0,0.6-0.7,1.1-1.5,1.1h-20
		c-0.8,0-1.5-0.5-1.5-1.1V305.7z"/>
	<polyline fill="#FFFFFF" points="255.9,337.5 255.9,282.3 253.9,282.3 253.9,337.5 	"/>
	<rect x="250.2" y="328.6" fill="#B5C0C9" width="9.4" height="11.9"/>
	<path fill="#FFFFFF" d="M250.2,340.5h1v-10.9h7.4v9.9l-8.4,0V340.5h1H250.2v1h9.4c0.3,0,0.5-0.1,0.7-0.3c0.2-0.2,0.3-0.4,0.3-0.7
		v-11.9c0-0.3-0.1-0.5-0.3-0.7c-0.2-0.2-0.4-0.3-0.7-0.3h-9.4c-0.3,0-0.5,0.1-0.7,0.3c-0.2,0.2-0.3,0.4-0.3,0.7v11.9
		c0,0.3,0.1,0.5,0.3,0.7c0.2,0.2,0.4,0.3,0.7,0.3V340.5z"/>
	<rect x="250.2" y="328.6" fill="#B5C0C9" width="9.4" height="11.9"/>
	<path fill="#FFFFFF" d="M250.2,340.5h1v-10.9h7.4v9.9l-8.4,0V340.5h1H250.2v1h9.4c0.3,0,0.5-0.1,0.7-0.3c0.2-0.2,0.3-0.4,0.3-0.7
		v-11.9c0-0.3-0.1-0.5-0.3-0.7c-0.2-0.2-0.4-0.3-0.7-0.3h-9.4c-0.3,0-0.5,0.1-0.7,0.3c-0.2,0.2-0.3,0.4-0.3,0.7v11.9
		c0,0.3,0.1,0.5,0.3,0.7c0.2,0.2,0.4,0.3,0.7,0.3V340.5z"/>
	<path fill="#B5C0C9" d="M247.4,345.5c-0.8,0-1.5-0.6-1.5-1.4v-2.2c0-0.8,0.6-1.5,1.5-1.5h15.2c0.8,0,1.5,0.6,1.5,1.5v2.2
		c0,0.8-0.6,1.4-1.5,1.4H247.4z"/>
	<path fill="#FFFFFF" d="M247.4,345.5v-1c-0.1,0-0.3-0.1-0.4-0.1c-0.1-0.1-0.1-0.2-0.1-0.3v-2.2c0-0.1,0.1-0.3,0.1-0.4
		c0.1-0.1,0.2-0.1,0.4-0.1h15.2c0.1,0,0.3,0.1,0.4,0.1c0.1,0.1,0.1,0.2,0.1,0.4v2.2c0,0.2,0,0.2-0.1,0.3c-0.1,0.1-0.2,0.1-0.4,0.1
		h-15.2V345.5v1h15.2c0.7,0,1.3-0.2,1.8-0.7c0.5-0.4,0.7-1.1,0.7-1.7v-2.2c0-0.7-0.3-1.4-0.8-1.8c-0.5-0.4-1.1-0.7-1.7-0.7h-15.2
		c-0.7,0-1.4,0.3-1.8,0.8c-0.4,0.5-0.7,1.1-0.7,1.7v2.2c0,0.7,0.3,1.3,0.8,1.7c0.5,0.4,1.1,0.7,1.7,0.7V345.5z"/>
	<rect x="300.9" y="328.6" fill="#B5C0C9" width="9.4" height="11.9"/>
	<path fill="#FFFFFF" d="M300.9,340.5h1v-10.9h7.4v9.9l-8.4,0V340.5h1H300.9v1h9.4c0.3,0,0.5-0.1,0.7-0.3c0.2-0.2,0.3-0.4,0.3-0.7
		v-11.9c0-0.3-0.1-0.5-0.3-0.7c-0.2-0.2-0.4-0.3-0.7-0.3h-9.4c-0.3,0-0.5,0.1-0.7,0.3c-0.2,0.2-0.3,0.4-0.3,0.7v11.9
		c0,0.3,0.1,0.5,0.3,0.7c0.2,0.2,0.4,0.3,0.7,0.3V340.5z"/>
	<rect x="300.9" y="328.6" fill="#B5C0C9" width="9.4" height="11.9"/>
	<path fill="#FFFFFF" d="M300.9,340.5h1v-10.9h7.4v9.9l-8.4,0V340.5h1H300.9v1h9.4c0.3,0,0.5-0.1,0.7-0.3c0.2-0.2,0.3-0.4,0.3-0.7
		v-11.9c0-0.3-0.1-0.5-0.3-0.7c-0.2-0.2-0.4-0.3-0.7-0.3h-9.4c-0.3,0-0.5,0.1-0.7,0.3c-0.2,0.2-0.3,0.4-0.3,0.7v11.9
		c0,0.3,0.1,0.5,0.3,0.7c0.2,0.2,0.4,0.3,0.7,0.3V340.5z"/>
	<path fill="#B5C0C9" d="M298.1,345.5c-0.8,0-1.5-0.6-1.5-1.4v-2.2c0-0.8,0.6-1.5,1.5-1.5h15.2c0.8,0,1.5,0.6,1.5,1.5v2.2
		c0,0.8-0.6,1.4-1.5,1.4H298.1z"/>
	<path fill="#FFFFFF" d="M298.1,345.5v-1c-0.1,0-0.3-0.1-0.4-0.1c-0.1-0.1-0.1-0.2-0.1-0.3v-2.2c0-0.1,0.1-0.3,0.1-0.4
		c0.1-0.1,0.2-0.1,0.4-0.1h15.2c0.1,0,0.3,0.1,0.4,0.1c0.1,0.1,0.1,0.2,0.1,0.4v2.2c0,0.2,0,0.2-0.1,0.3c-0.1,0.1-0.2,0.1-0.4,0.1
		h-15.2V345.5v1h15.2c0.7,0,1.3-0.2,1.8-0.7c0.5-0.4,0.7-1.1,0.7-1.7v-2.2c0-0.7-0.3-1.4-0.8-1.8c-0.5-0.4-1.1-0.7-1.7-0.7h-15.2
		c-0.7,0-1.4,0.3-1.8,0.8c-0.4,0.5-0.7,1.1-0.7,1.7v2.2c0,0.7,0.3,1.3,0.8,1.7c0.5,0.4,1.1,0.7,1.7,0.7V345.5z"/>
	<rect x="290.3" y="385.3" fill="#B5C0C9" width="9.4" height="11.9"/>
	<path fill="#FFFFFF" d="M299.7,385.3h-1v10.9l-7.4,0v-9.9h8.4V385.3h-1H299.7v-1h-9.4c-0.3,0-0.5,0.1-0.7,0.3
		c-0.2,0.2-0.3,0.4-0.3,0.7v11.9c0,0.3,0.1,0.5,0.3,0.7c0.2,0.2,0.4,0.3,0.7,0.3h9.4c0.3,0,0.5-0.1,0.7-0.3c0.2-0.2,0.3-0.4,0.3-0.7
		v-11.9c0-0.3-0.1-0.5-0.3-0.7c-0.2-0.2-0.4-0.3-0.7-0.3V385.3z"/>
	<rect x="290.3" y="385.3" fill="#B5C0C9" width="9.4" height="11.9"/>
	<path fill="#FFFFFF" d="M299.7,385.3h-1v10.9l-7.4,0v-9.9h8.4V385.3h-1H299.7v-1h-9.4c-0.3,0-0.5,0.1-0.7,0.3
		c-0.2,0.2-0.3,0.4-0.3,0.7v11.9c0,0.3,0.1,0.5,0.3,0.7c0.2,0.2,0.4,0.3,0.7,0.3h9.4c0.3,0,0.5-0.1,0.7-0.3c0.2-0.2,0.3-0.4,0.3-0.7
		v-11.9c0-0.3-0.1-0.5-0.3-0.7c-0.2-0.2-0.4-0.3-0.7-0.3V385.3z"/>
	<path fill="#B5C0C9" d="M302.7,380.3c0.9,0,1.5,0.6,1.5,1.4v2.2c0,0.9-0.7,1.5-1.5,1.5h-15.2c-0.9,0-1.5-0.7-1.5-1.5v-2.2
		c0-0.8,0.7-1.4,1.5-1.4H302.7z"/>
	<path fill="#FFFFFF" d="M302.7,380.3v1c0.2,0,0.3,0.1,0.4,0.1c0.1,0.1,0.1,0.1,0.1,0.3v2.2c0,0.2-0.1,0.3-0.1,0.4
		c-0.1,0.1-0.2,0.1-0.4,0.1h-15.2c-0.2,0-0.3-0.1-0.4-0.1c-0.1-0.1-0.1-0.2-0.1-0.4v-2.2c0-0.1,0-0.2,0.1-0.3
		c0.1-0.1,0.2-0.1,0.4-0.1h15.2V380.3v-1h-15.2c-0.7,0-1.3,0.2-1.7,0.7c-0.5,0.4-0.8,1-0.8,1.7v2.2c0,0.6,0.2,1.3,0.7,1.7
		c0.4,0.5,1.1,0.8,1.8,0.8h15.2c0.6,0,1.3-0.2,1.7-0.7c0.5-0.4,0.8-1.1,0.8-1.8v-2.2c0-0.6-0.3-1.3-0.7-1.7
		c-0.5-0.4-1.1-0.7-1.8-0.7V380.3z"/>
	<rect x="231.4" y="385.3" fill="#B5C0C9" width="9.4" height="11.9"/>
	<path fill="#FFFFFF" d="M240.8,385.3h-1v10.9l-7.4,0l0-9.9h8.4V385.3h-1H240.8v-1h-9.4c-0.3,0-0.5,0.1-0.7,0.3
		c-0.2,0.2-0.3,0.4-0.3,0.7v11.9c0,0.3,0.1,0.5,0.3,0.7c0.2,0.2,0.4,0.3,0.7,0.3h9.4c0.3,0,0.5-0.1,0.7-0.3c0.2-0.2,0.3-0.4,0.3-0.7
		v-11.9c0-0.3-0.1-0.5-0.3-0.7c-0.2-0.2-0.4-0.3-0.7-0.3V385.3z"/>
	<rect x="231.4" y="385.3" fill="#B5C0C9" width="9.4" height="11.9"/>
	<path fill="#FFFFFF" d="M240.8,385.3h-1v10.9l-7.4,0l0-9.9h8.4V385.3h-1H240.8v-1h-9.4c-0.3,0-0.5,0.1-0.7,0.3
		c-0.2,0.2-0.3,0.4-0.3,0.7v11.9c0,0.3,0.1,0.5,0.3,0.7c0.2,0.2,0.4,0.3,0.7,0.3h9.4c0.3,0,0.5-0.1,0.7-0.3c0.2-0.2,0.3-0.4,0.3-0.7
		v-11.9c0-0.3-0.1-0.5-0.3-0.7c-0.2-0.2-0.4-0.3-0.7-0.3V385.3z"/>
	<path fill="#B5C0C9" d="M243.8,380.3c0.9,0,1.5,0.6,1.5,1.4v2.2c0,0.9-0.7,1.5-1.5,1.5h-15.2c-0.9,0-1.5-0.7-1.5-1.5v-2.2
		c0-0.8,0.7-1.4,1.5-1.4H243.8z"/>
	<path fill="#FFFFFF" d="M243.8,380.3v1c0.2,0,0.3,0.1,0.4,0.1c0.1,0.1,0.1,0.1,0.1,0.3v2.2c0,0.2-0.1,0.3-0.1,0.4
		c-0.1,0.1-0.2,0.1-0.4,0.1h-15.2c-0.2,0-0.3-0.1-0.4-0.1c-0.1-0.1-0.1-0.2-0.1-0.4v-2.2c0-0.1,0-0.2,0.1-0.3
		c0.1-0.1,0.2-0.1,0.4-0.1h15.2V380.3v-1h-15.2c-0.7,0-1.3,0.2-1.7,0.7c-0.5,0.4-0.8,1-0.8,1.7v2.2c0,0.6,0.2,1.3,0.7,1.7
		c0.4,0.5,1.1,0.8,1.8,0.8h15.2c0.6,0,1.3-0.2,1.7-0.7c0.5-0.4,0.8-1.1,0.8-1.8v-2.2c0-0.6-0.3-1.3-0.7-1.7
		c-0.5-0.4-1.1-0.7-1.8-0.7V380.3z"/>
	<rect x="319.8" y="385.3" fill="#B5C0C9" width="9.4" height="11.9"/>
	<path fill="#FFFFFF" d="M329.2,385.3h-1v10.9l-7.4,0v-9.9h8.4V385.3h-1H329.2v-1h-9.4c-0.3,0-0.5,0.1-0.7,0.3
		c-0.2,0.2-0.3,0.4-0.3,0.7v11.9c0,0.3,0.1,0.5,0.3,0.7c0.2,0.2,0.4,0.3,0.7,0.3h9.4c0.3,0,0.5-0.1,0.7-0.3c0.2-0.2,0.3-0.4,0.3-0.7
		v-11.9c0-0.3-0.1-0.5-0.3-0.7c-0.2-0.2-0.4-0.3-0.7-0.3V385.3z"/>
	<rect x="319.8" y="385.3" fill="#B5C0C9" width="9.4" height="11.9"/>
	<path fill="#FFFFFF" d="M329.2,385.3h-1v10.9l-7.4,0v-9.9h8.4V385.3h-1H329.2v-1h-9.4c-0.3,0-0.5,0.1-0.7,0.3
		c-0.2,0.2-0.3,0.4-0.3,0.7v11.9c0,0.3,0.1,0.5,0.3,0.7c0.2,0.2,0.4,0.3,0.7,0.3h9.4c0.3,0,0.5-0.1,0.7-0.3c0.2-0.2,0.3-0.4,0.3-0.7
		v-11.9c0-0.3-0.1-0.5-0.3-0.7c-0.2-0.2-0.4-0.3-0.7-0.3V385.3z"/>
	<path fill="#B5C0C9" d="M332.2,380.3c0.9,0,1.5,0.6,1.5,1.4v2.2c0,0.9-0.7,1.5-1.5,1.5H317c-0.9,0-1.5-0.7-1.5-1.5v-2.2
		c0-0.8,0.7-1.4,1.5-1.4H332.2z"/>
	<path fill="#FFFFFF" d="M332.2,380.3v1c0.2,0,0.3,0.1,0.4,0.1c0.1,0.1,0.1,0.1,0.1,0.3v2.2c0,0.2-0.1,0.3-0.1,0.4
		c-0.1,0.1-0.2,0.1-0.4,0.1H317c-0.2,0-0.3-0.1-0.4-0.1c-0.1-0.1-0.1-0.2-0.1-0.4v-2.2c0-0.1,0-0.2,0.1-0.3c0.1-0.1,0.2-0.1,0.4-0.1
		h15.2V380.3v-1H317c-0.7,0-1.3,0.2-1.7,0.7c-0.5,0.4-0.8,1-0.8,1.7v2.2c0,0.6,0.2,1.3,0.7,1.7c0.4,0.5,1.1,0.8,1.8,0.8h15.2
		c0.6,0,1.3-0.2,1.7-0.7c0.5-0.4,0.8-1.1,0.8-1.8v-2.2c0-0.6-0.3-1.3-0.7-1.7c-0.5-0.4-1.1-0.7-1.8-0.7V380.3z"/>
	<rect x="260.8" y="385.3" fill="#B5C0C9" width="9.4" height="11.9"/>
	<path fill="#FFFFFF" d="M270.2,385.3h-1v10.9l-7.4,0v-9.9h8.4V385.3h-1H270.2v-1h-9.4c-0.3,0-0.5,0.1-0.7,0.3
		c-0.2,0.2-0.3,0.4-0.3,0.7v11.9c0,0.3,0.1,0.5,0.3,0.7c0.2,0.2,0.4,0.3,0.7,0.3h9.4c0.3,0,0.5-0.1,0.7-0.3c0.2-0.2,0.3-0.4,0.3-0.7
		v-11.9c0-0.3-0.1-0.5-0.3-0.7c-0.2-0.2-0.4-0.3-0.7-0.3V385.3z"/>
	<rect x="260.8" y="385.3" fill="#B5C0C9" width="9.4" height="11.9"/>
	<path fill="#FFFFFF" d="M270.2,385.3h-1v10.9l-7.4,0v-9.9h8.4V385.3h-1H270.2v-1h-9.4c-0.3,0-0.5,0.1-0.7,0.3
		c-0.2,0.2-0.3,0.4-0.3,0.7v11.9c0,0.3,0.1,0.5,0.3,0.7c0.2,0.2,0.4,0.3,0.7,0.3h9.4c0.3,0,0.5-0.1,0.7-0.3c0.2-0.2,0.3-0.4,0.3-0.7
		v-11.9c0-0.3-0.1-0.5-0.3-0.7c-0.2-0.2-0.4-0.3-0.7-0.3V385.3z"/>
	<path fill="#B5C0C9" d="M273.2,380.3c0.9,0,1.5,0.6,1.5,1.4v2.2c0,0.9-0.7,1.5-1.5,1.5H258c-0.9,0-1.5-0.7-1.5-1.5v-2.2
		c0-0.8,0.7-1.4,1.5-1.4H273.2z"/>
	<path fill="#FFFFFF" d="M273.2,380.3v1c0.2,0,0.3,0.1,0.4,0.1c0.1,0.1,0.1,0.1,0.1,0.3v2.2c0,0.2-0.1,0.3-0.1,0.4
		c-0.1,0.1-0.2,0.1-0.4,0.1H258c-0.2,0-0.3-0.1-0.4-0.1c-0.1-0.1-0.1-0.2-0.1-0.4v-2.2c0-0.1,0-0.2,0.1-0.3c0.1-0.1,0.2-0.1,0.4-0.1
		h15.2V380.3v-1H258c-0.7,0-1.3,0.2-1.7,0.7c-0.5,0.4-0.8,1-0.8,1.7v2.2c0,0.6,0.2,1.3,0.7,1.7c0.4,0.5,1.1,0.8,1.8,0.8h15.2
		c0.6,0,1.3-0.2,1.7-0.7c0.5-0.4,0.8-1.1,0.8-1.8v-2.2c0-0.6-0.3-1.3-0.7-1.7c-0.5-0.4-1.1-0.7-1.8-0.7V380.3z"/>
	<rect x="218.7" y="343.2" fill="#B5C0C9" width="123.3" height="38.9"/>
	<path fill="#FFFFFF" d="M218.7,343.2v1H341v36.9H219.7v-37.9H218.7v1V343.2h-1v38.9c0,0.3,0.1,0.5,0.3,0.7c0.2,0.2,0.4,0.3,0.7,0.3
		H342c0.3,0,0.5-0.1,0.7-0.3c0.2-0.2,0.3-0.4,0.3-0.7v-38.9c0-0.3-0.1-0.5-0.3-0.7c-0.2-0.2-0.4-0.3-0.7-0.3H218.7
		c-0.3,0-0.5,0.1-0.7,0.3c-0.2,0.2-0.3,0.4-0.3,0.7H218.7z"/>
	<path d="M223.4,370.6v-17.2h3.4l4.1,12.2c0.4,1.1,0.6,2,0.8,2.5c0.2-0.6,0.5-1.5,0.9-2.8l4.1-12h3.1v17.2h-2.2v-14.4l-5,14.4h-2.1
		l-5-14.6v14.6L223.4,370.6z"/>
	<path d="M251.4,370.6v-1.8c-1,1.4-2.3,2.1-3.9,2.1c-0.7,0-1.4-0.1-2.1-0.4s-1.1-0.6-1.4-1.1s-0.5-0.9-0.7-1.6
		c-0.1-0.4-0.1-1.1-0.1-2v-7.7h2.1v6.9c0,1.1,0,1.8,0.1,2.2c0.1,0.6,0.4,1,0.8,1.3s1,0.5,1.6,0.5s1.2-0.2,1.8-0.5s0.9-0.8,1.2-1.3
		s0.3-1.4,0.3-2.4v-6.7h2.1v12.4h-1.8L251.4,370.6L251.4,370.6z"/>
	<rect x="256.5" y="353.4" width="2.1" height="17.2"/>
	<path d="M266.5,368.7l0.3,1.9c-0.6,0.1-1.1,0.2-1.6,0.2c-0.8,0-1.4-0.1-1.8-0.4s-0.7-0.6-0.9-1s-0.3-1.2-0.3-2.5v-7.2h-1.5v-1.6
		h1.5V355l2.1-1.3v4.3h2.1v1.6h-2.1v7.3c0,0.6,0,1,0.1,1.2c0.1,0.2,0.2,0.3,0.4,0.4c0.2,0.1,0.4,0.2,0.7,0.2
		C265.8,368.8,266.1,368.8,266.5,368.7z"/>
	<path d="M268.6,355.8v-2.4h2.1v2.4H268.6z M268.6,370.6v-12.4h2.1v12.4H268.6z"/>
	<path d="M273,366.9l2.1-0.3c0.1,0.8,0.4,1.5,1,1.9s1.3,0.7,2.2,0.7c1,0,1.7-0.2,2.2-0.6s0.7-0.9,0.7-1.4s-0.2-0.9-0.6-1.1
		c-0.3-0.2-1-0.4-2.2-0.7c-1.5-0.4-2.6-0.7-3.2-1c-0.6-0.3-1.1-0.7-1.4-1.2s-0.5-1.1-0.5-1.7s0.1-1.1,0.4-1.5s0.6-0.9,1-1.2
		c0.3-0.2,0.8-0.4,1.3-0.6s1.2-0.3,1.8-0.3c1,0,1.8,0.1,2.6,0.4c0.8,0.3,1.3,0.7,1.6,1.1c0.3,0.4,0.6,1.1,0.7,1.9l-2.1,0.3
		c-0.1-0.6-0.4-1.1-0.8-1.5c-0.4-0.4-1.1-0.5-1.9-0.5c-1,0-1.7,0.2-2.1,0.5c-0.4,0.3-0.6,0.7-0.6,1.1c0,0.3,0.1,0.5,0.3,0.7
		s0.4,0.4,0.8,0.6c0.2,0.1,0.8,0.3,1.9,0.5c1.5,0.4,2.5,0.7,3.1,1s1.1,0.6,1.4,1.1s0.5,1.1,0.5,1.8c0,0.7-0.2,1.4-0.6,2
		c-0.4,0.6-1,1.1-1.8,1.4c-0.8,0.3-1.6,0.5-2.6,0.5c-1.6,0-2.8-0.3-3.7-1C273.6,369.1,273.3,368.2,273,366.9z"/>
	<path d="M288.2,370.6l-3.8-12.4h2.2l2,7.2l0.7,2.7c0-0.1,0.2-1,0.6-2.6l2-7.3h2.2l1.9,7.2l0.6,2.4l0.7-2.4l2.1-7.2h2.1l-3.9,12.4
		h-2.2l-2-7.5l-0.5-2.1l-2.5,9.6L288.2,370.6z"/>
	<path d="M303.2,355.8v-2.4h2.1v2.4H303.2z M303.2,370.6v-12.4h2.1v12.4H303.2z"/>
	<path d="M313.2,368.7l0.3,1.9c-0.6,0.1-1.1,0.2-1.6,0.2c-0.8,0-1.4-0.1-1.8-0.4c-0.4-0.3-0.7-0.6-0.9-1c-0.2-0.4-0.3-1.2-0.3-2.5
		v-7.2h-1.5v-1.6h1.5V355l2.1-1.3v4.3h2.1v1.6H311v7.3c0,0.6,0,1,0.1,1.2s0.2,0.3,0.4,0.4c0.2,0.1,0.4,0.2,0.7,0.2
		C312.5,368.8,312.8,368.8,313.2,368.7z"/>
	<path d="M323.3,366l2.1,0.3c-0.2,1.4-0.8,2.5-1.7,3.4s-2.1,1.2-3.4,1.2c-1.7,0-3.1-0.6-4.1-1.7s-1.6-2.7-1.6-4.8
		c0-1.3,0.2-2.5,0.7-3.5s1.1-1.8,2-2.3s1.9-0.8,3-0.8c1.4,0,2.5,0.3,3.3,1c0.8,0.7,1.4,1.7,1.7,2.9l-2.1,0.3c-0.2-0.8-0.5-1.5-1-1.9
		s-1.1-0.6-1.8-0.6c-1.1,0-1.9,0.4-2.6,1.1s-1,2-1,3.6c0,1.7,0.3,2.9,1,3.6c0.7,0.7,1.5,1.1,2.5,1.1c0.8,0,1.5-0.3,2.1-0.8
		S323.2,367.1,323.3,366z"/>
	<path d="M327.2,370.6v-17.2h2.1v6.2c1-1.1,2.2-1.7,3.7-1.7c0.9,0,1.7,0.2,2.4,0.5s1.2,0.9,1.5,1.5s0.4,1.6,0.4,2.8v7.9h-2.1v-7.9
		c0-1.1-0.2-1.8-0.7-2.3s-1.1-0.7-1.9-0.7c-0.6,0-1.2,0.2-1.8,0.5s-0.9,0.8-1.2,1.3c-0.3,0.5-0.4,1.3-0.4,2.3v6.8L327.2,370.6z"/>
	<path fill="#0CBC18" d="M168.9,438.6c0-2.9,0.8-5.1,2.3-6.7s3.5-2.4,5.9-2.4c1.6,0,3,0.4,4.3,1.1s2.2,1.8,2.9,3.2
		c0.7,1.4,1,2.9,1,4.6s-0.4,3.3-1.1,4.7s-1.7,2.4-3,3.1s-2.7,1.1-4.2,1.1c-1.6,0-3.1-0.4-4.3-1.2c-1.2-0.8-2.2-1.8-2.9-3.2
		C169.1,441.5,168.9,440.1,168.9,438.6z M171.3,438.7c0,2.1,0.6,3.7,1.7,4.9c1.1,1.2,2.5,1.8,4.2,1.8s3.1-0.6,4.2-1.8
		c1.1-1.2,1.7-2.9,1.7-5.1c0-1.4-0.2-2.6-0.7-3.7s-1.2-1.9-2.1-2.4c-0.9-0.5-1.9-0.9-3.1-0.9c-1.6,0-3,0.6-4.2,1.7
		S171.3,436.1,171.3,438.7z"/>
	<path fill="#0CBC18" d="M188,451.8v-17.2h1.9v1.6c0.5-0.6,1-1.1,1.5-1.4s1.3-0.5,2.1-0.5c1.1,0,2,0.3,2.8,0.8s1.4,1.3,1.8,2.3
		s0.6,2.1,0.6,3.3c0,1.3-0.2,2.4-0.7,3.4s-1.1,1.8-2,2.3c-0.9,0.5-1.8,0.8-2.7,0.8c-0.7,0-1.3-0.1-1.9-0.4c-0.6-0.3-1-0.7-1.4-1.1
		v6.1L188,451.8z M189.9,440.8c0,1.6,0.3,2.8,1,3.6s1.4,1.1,2.4,1.1c0.9,0,1.7-0.4,2.4-1.2c0.7-0.8,1-2,1-3.7c0-1.6-0.3-2.8-1-3.6
		s-1.4-1.2-2.3-1.2c-0.9,0-1.7,0.4-2.4,1.3C190.3,438,189.9,439.2,189.9,440.8z"/>
	<path fill="#0CBC18" d="M206,445.1l0.3,1.9c-0.6,0.1-1.1,0.2-1.6,0.2c-0.8,0-1.4-0.1-1.8-0.4s-0.7-0.6-0.9-1s-0.3-1.2-0.3-2.5v-7.2
		h-1.5v-1.6h1.5v-3.1l2.1-1.3v4.3h2.1v1.6h-2.1v7.3c0,0.6,0,1,0.1,1.2s0.2,0.3,0.4,0.4s0.4,0.2,0.7,0.2
		C205.3,445.2,205.6,445.2,206,445.1z"/>
	<path fill="#0CBC18" d="M208.1,432.2v-2.4h2.1v2.4H208.1z M208.1,447v-12.4h2.1V447H208.1z"/>
	<path fill="#0CBC18" d="M212.6,440.8c0-2.3,0.6-4,1.9-5.1c1.1-0.9,2.4-1.4,3.9-1.4c1.7,0,3.1,0.6,4.2,1.7s1.6,2.7,1.6,4.6
		c0,1.6-0.2,2.9-0.7,3.8s-1.2,1.6-2.1,2.1s-1.9,0.8-3,0.8c-1.7,0-3.2-0.6-4.2-1.7S212.6,442.9,212.6,440.8z M214.8,440.8
		c0,1.6,0.3,2.8,1,3.6s1.6,1.2,2.6,1.2s1.9-0.4,2.6-1.2s1-2,1-3.6c0-1.5-0.3-2.7-1-3.5s-1.6-1.2-2.6-1.2c-1.1,0-1.9,0.4-2.6,1.2
		S214.8,439.2,214.8,440.8z"/>
	<path fill="#0CBC18" d="M226.7,447v-12.4h1.9v1.8c0.9-1.4,2.2-2.1,4-2.1c0.8,0,1.4,0.1,2.1,0.4s1.1,0.6,1.4,1.1s0.5,1,0.7,1.6
		c0.1,0.4,0.1,1.1,0.1,2.1v7.7h-2.1v-7.6c0-0.9-0.1-1.5-0.2-1.9s-0.5-0.8-0.9-1s-0.9-0.4-1.5-0.4c-0.9,0-1.7,0.3-2.3,0.9
		s-1,1.7-1,3.2v6.8h-2.2V447z"/>
	<path fill="#0CBC18" d="M248.2,445.5c-0.8,0.7-1.5,1.1-2.3,1.4s-1.5,0.4-2.3,0.4c-1.4,0-2.4-0.3-3.2-1s-1.1-1.5-1.1-2.6
		c0-0.6,0.1-1.2,0.4-1.7s0.6-0.9,1.1-1.2s1-0.5,1.5-0.7c0.4-0.1,1-0.2,1.9-0.3c1.7-0.2,3-0.4,3.8-0.7c0-0.3,0-0.5,0-0.6
		c0-0.9-0.2-1.5-0.6-1.8c-0.5-0.5-1.3-0.7-2.4-0.7c-1,0-1.7,0.2-2.2,0.5s-0.8,1-1,1.8l-2.1-0.3c0.2-0.9,0.5-1.6,0.9-2.1
		s1.1-1,1.9-1.3s1.8-0.4,2.8-0.4c1.1,0,1.9,0.1,2.6,0.4s1.2,0.6,1.5,0.9s0.5,0.9,0.7,1.4c0.1,0.4,0.1,1,0.1,1.9v2.8
		c0,2,0,3.2,0.1,3.7s0.3,1,0.5,1.5h-2.2C248.4,446.6,248.3,446,248.2,445.5z M248,440.7c-0.8,0.3-1.9,0.6-3.4,0.8
		c-0.9,0.1-1.5,0.3-1.8,0.4s-0.6,0.4-0.8,0.7s-0.3,0.6-0.3,1c0,0.6,0.2,1,0.6,1.4s1,0.6,1.9,0.6c0.8,0,1.5-0.2,2.2-0.5
		s1.1-0.8,1.4-1.5c0.2-0.5,0.3-1.2,0.3-2.1L248,440.7z"/>
	<rect x="253.4" y="429.8" fill="#0CBC18" width="2.1" height="17.2"/>
	<polygon fill="#FFFFFF" points="170.9,329.8 199.9,329.8 199.9,206.3 280.1,206.3 280.1,243.4 282.1,243.4 282.1,204.3 
		197.9,204.3 197.9,327.8 170.9,327.8 	"/>
	<path fill="#FFFFFF" d="M155.6,316.7l-0.4-40.8c0,0,0-2.8-2.5-2.8s-2.5,2.8-2.5,2.8l-0.4,40.8H155.6z"/>
	<path fill="#B5C0C9" d="M111.5,341.4h73.4v-20.3c0,0,0.5-2.7-7.9-3.4c0,0-25.9-2.8-65.3-3.3h-0.5c-39.4,0.5-65.3,3.3-65.3,3.3
		c-8.3,0.8-7.9,3.4-7.9,3.4v20.3H111.5z"/>
	<path fill="#FFFFFF" d="M111.5,341.4v1h74.4v-21.3h-1l1,0.2c0-0.1,0-0.1,0-0.3c0-0.3-0.1-0.7-0.3-1.1c-0.4-0.7-1.1-1.4-2.4-1.9
		c-1.3-0.6-3.2-1-6.1-1.3l-0.1,1l0.1-1c0,0-26-2.8-65.4-3.3l0,0h-0.5h0l0,0c-39.4,0.5-65.4,3.3-65.4,3.3l0.1,1l-0.1-1
		c-3.9,0.4-6,1.1-7.3,2c-0.6,0.4-1,0.9-1.3,1.3c-0.2,0.4-0.3,0.8-0.3,1.1c0,0.1,0,0.2,0,0.2l1-0.2h-1v21.3h74.5V341.4v-1H39V321
		l0-0.1l-0.6,0.1H39l0-0.1l-0.6,0.1H39h-0.2l0.2,0l0,0h-0.2l0.2,0c0,0,0-0.1,0.1-0.2c0.1-0.2,0.5-0.6,1.6-1.1c1-0.4,2.7-0.9,5.3-1.1
		l0,0l0,0c0,0,0.4,0,1.2-0.1c5.5-0.5,29.6-2.7,64-3.2l0-1v1h0.5v-1l0,1c19.7,0.2,36,1.1,47.4,1.8c5.7,0.4,10.2,0.7,13.2,1
		c1.5,0.1,2.7,0.2,3.5,0.3c0.8,0.1,1.2,0.1,1.2,0.1l0,0l0,0c3.7,0.3,5.5,1,6.3,1.6c0.4,0.3,0.6,0.5,0.6,0.6l0.1,0.1l0,0l0,0h0l0,0
		l0,0h0h0.5l-0.5-0.1l0,0.1h0.5l-0.5-0.1l0,0.1v19.4l-72.4,0V341.4z"/>
	<polygon points="77,337.2 77,322 71.3,322 71.3,320 85,320 85,322 79.3,322 79.3,337.2 	"/>
	<path d="M92.2,337.2L85.5,320H88l4.5,12.5c0.4,1,0.7,1.9,0.9,2.8c0.3-0.9,0.6-1.9,0.9-2.8l4.6-12.5h2.3l-6.7,17.2H92.2z"/>
	<rect x="100.9" y="330" width="6.5" height="2.1"/>
	<polygon points="110,337.2 110,320 112.3,320 112.3,327.1 121.2,327.1 121.2,320 123.5,320 123.5,337.2 121.2,337.2 121.2,329.1 
		112.3,329.1 112.3,337.2 	"/>
	<path d="M135.2,337.2v-1.8c-1,1.4-2.3,2.1-3.9,2.1c-0.7,0-1.4-0.1-2.1-0.4s-1.1-0.6-1.4-1.1c-0.3-0.5-0.5-0.9-0.7-1.6
		c-0.1-0.4-0.1-1.1-0.1-2v-7.7h2.1v6.9c0,1.1,0,1.8,0.1,2.2c0.1,0.6,0.4,1,0.8,1.3s1,0.5,1.6,0.5c0.6,0,1.2-0.2,1.8-0.5
		s0.9-0.8,1.2-1.3c0.3-0.5,0.3-1.4,0.3-2.4v-6.7h2.1v12.4h-1.8V337.2z"/>
	<path d="M142.3,337.2h-2V320h2.1v6.1c0.9-1.1,2-1.7,3.4-1.7c0.8,0,1.5,0.2,2.2,0.5s1.2,0.7,1.7,1.3s0.8,1.2,1,2s0.4,1.6,0.4,2.5
		c0,2.1-0.5,3.8-1.6,4.9s-2.3,1.7-3.8,1.7s-2.6-0.6-3.5-1.8v1.7H142.3z M142.3,330.9c0,1.5,0.2,2.6,0.6,3.2c0.7,1.1,1.6,1.6,2.7,1.6
		c0.9,0,1.7-0.4,2.4-1.2s1-2,1-3.6s-0.3-2.8-1-3.6s-1.4-1.2-2.3-1.2s-1.7,0.4-2.4,1.2C142.6,328.1,142.3,329.4,142.3,330.9z"/>
	<rect x="275.5" y="218.3" fill="#B5C0C9" width="9.4" height="11.9"/>
	<path fill="#FFFFFF" d="M275.5,230.2h1v-10.9h7.4v9.9h-8.4V230.2h1H275.5v1h9.4c0.3,0,0.5-0.1,0.7-0.3c0.2-0.2,0.3-0.4,0.3-0.7
		v-11.9c0-0.3-0.1-0.5-0.3-0.7c-0.2-0.2-0.4-0.3-0.7-0.3h-9.4c-0.3,0-0.5,0.1-0.7,0.3c-0.2,0.2-0.3,0.4-0.3,0.7v11.9
		c0,0.3,0.1,0.5,0.3,0.7c0.2,0.2,0.4,0.3,0.7,0.3V230.2z"/>
	<path fill="#B5C0C9" d="M272.7,235.2c-0.8,0-1.5-0.6-1.5-1.4v-2.2c0-0.8,0.6-1.5,1.5-1.5h15.2c0.8,0,1.5,0.6,1.5,1.5v2.2
		c0,0.8-0.6,1.4-1.5,1.4H272.7z"/>
	<path fill="#FFFFFF" d="M272.7,235.2v-1c-0.1,0-0.3-0.1-0.4-0.1c-0.1-0.1-0.1-0.2-0.1-0.3v-2.2c0-0.2,0.1-0.3,0.1-0.4
		c0.1-0.1,0.2-0.1,0.4-0.1h15.2c0.1,0,0.3,0.1,0.4,0.1c0.1,0.1,0.1,0.2,0.1,0.4v2.2c0,0.2,0,0.2-0.1,0.3c-0.1,0.1-0.2,0.1-0.4,0.1
		h-15.2V235.2v1h15.2c0.7,0,1.3-0.2,1.8-0.7c0.5-0.4,0.7-1.1,0.7-1.7v-2.2c0-0.7-0.3-1.4-0.8-1.8c-0.5-0.4-1.1-0.7-1.7-0.7h-15.2
		c-0.7,0-1.4,0.3-1.8,0.8c-0.4,0.5-0.7,1.1-0.7,1.7v2.2c0,0.7,0.3,1.3,0.8,1.7c0.5,0.4,1.1,0.7,1.7,0.7V235.2z"/>
	<rect x="300.9" y="275" fill="#B5C0C9" width="9.4" height="11.9"/>
	<path fill="#FFFFFF" d="M310.3,275h-1v10.9h-7.4V276h8.4V275h-1H310.3v-1h-9.4c-0.3,0-0.5,0.1-0.7,0.3c-0.2,0.2-0.3,0.4-0.3,0.7
		v11.9c0,0.3,0.1,0.5,0.3,0.7c0.2,0.2,0.4,0.3,0.7,0.3h9.4c0.3,0,0.5-0.1,0.7-0.3c0.2-0.2,0.3-0.4,0.3-0.7V275
		c0-0.3-0.1-0.5-0.3-0.7c-0.2-0.2-0.4-0.3-0.7-0.3V275z"/>
	<path fill="#B5C0C9" d="M313.3,270c0.9,0,1.5,0.6,1.5,1.4v2.2c0,0.9-0.7,1.5-1.5,1.5h-15.2c-0.9,0-1.5-0.7-1.5-1.5v-2.2
		c0-0.8,0.7-1.4,1.5-1.4H313.3z"/>
	<path fill="#FFFFFF" d="M313.3,270v1c0.2,0,0.3,0.1,0.4,0.1c0.1,0.1,0.1,0.1,0.1,0.3v2.2c0,0.2-0.1,0.3-0.1,0.4
		c-0.1,0.1-0.2,0.1-0.4,0.1h-15.2c-0.2,0-0.3-0.1-0.4-0.1c-0.1-0.1-0.1-0.2-0.1-0.4v-2.2c0-0.1,0-0.2,0.1-0.3
		c0.1-0.1,0.2-0.1,0.4-0.1h15.2V270v-1h-15.2c-0.7,0-1.3,0.2-1.7,0.7c-0.5,0.4-0.8,1-0.8,1.7v2.2c0,0.6,0.2,1.3,0.7,1.7
		c0.4,0.5,1.1,0.8,1.8,0.8h15.2c0.6,0,1.3-0.2,1.7-0.7c0.5-0.4,0.8-1.1,0.8-1.8v-2.2c0-0.6-0.3-1.3-0.7-1.7
		c-0.5-0.4-1.1-0.7-1.8-0.7V270z"/>
	<rect x="250.2" y="275.5" fill="#B5C0C9" width="9.4" height="11.9"/>
	<path fill="#FFFFFF" d="M259.6,275.5h-1v10.9h-7.4v-9.9h8.4V275.5h-1H259.6v-1h-9.4c-0.3,0-0.5,0.1-0.7,0.3
		c-0.2,0.2-0.3,0.4-0.3,0.7v11.9c0,0.3,0.1,0.5,0.3,0.7c0.2,0.2,0.4,0.3,0.7,0.3h9.4c0.3,0,0.5-0.1,0.7-0.3c0.2-0.2,0.3-0.4,0.3-0.7
		v-11.9c0-0.3-0.1-0.5-0.3-0.7c-0.2-0.2-0.4-0.3-0.7-0.3V275.5z"/>
	<path fill="#B5C0C9" d="M262.6,270.5c0.9,0,1.5,0.6,1.5,1.4v2.2c0,0.9-0.7,1.5-1.5,1.5h-15.2c-0.9,0-1.5-0.7-1.5-1.5v-2.2
		c0-0.8,0.7-1.4,1.5-1.4H262.6z"/>
	<path fill="#FFFFFF" d="M262.6,270.5v1c0.2,0,0.3,0.1,0.4,0.1c0.1,0.1,0.1,0.1,0.1,0.3v2.2c0,0.2-0.1,0.3-0.1,0.4
		c-0.1,0.1-0.2,0.1-0.4,0.1h-15.2c-0.2,0-0.3-0.1-0.4-0.1c-0.1-0.1-0.1-0.2-0.1-0.4v-2.2c0-0.1,0-0.2,0.1-0.3
		c0.1-0.1,0.2-0.1,0.4-0.1h15.2V270.5v-1h-15.2c-0.7,0-1.3,0.2-1.7,0.7c-0.5,0.4-0.8,1-0.8,1.7v2.2c0,0.7,0.2,1.3,0.7,1.7
		c0.4,0.5,1.1,0.8,1.8,0.8h15.2c0.6,0,1.3-0.2,1.7-0.7c0.5-0.4,0.8-1.1,0.8-1.8v-2.2c0-0.6-0.3-1.3-0.7-1.7
		c-0.5-0.4-1.1-0.7-1.8-0.7V270.5z"/>
	<rect x="239.6" y="233.2" fill="#B5C0C9" width="81.5" height="38.9"/>
	<polygon fill="#FFFFFF" points="239.6,233.2 239.6,234.2 320.1,234.2 320.1,271.1 240.6,271.1 240.6,233.2 239.6,233.2 
		239.6,234.2 239.6,233.2 238.6,233.2 238.6,273.1 322.1,273.1 322.1,232.2 238.6,232.2 238.6,233.2 	"/>
	<path d="M243.9,255.1l2.1-0.2c0.1,0.9,0.3,1.6,0.7,2.1s0.9,1,1.7,1.3s1.7,0.5,2.6,0.5c0.9,0,1.6-0.1,2.3-0.4s1.2-0.6,1.5-1.1
		s0.5-0.9,0.5-1.5c0-0.5-0.2-1-0.5-1.4s-0.8-0.7-1.5-1c-0.5-0.2-1.5-0.5-3.1-0.8s-2.7-0.7-3.3-1.1c-0.8-0.4-1.4-1-1.8-1.6
		s-0.6-1.3-0.6-2.1c0-0.9,0.2-1.7,0.7-2.4s1.2-1.3,2.2-1.7s2-0.6,3.2-0.6c1.3,0,2.4,0.2,3.4,0.6s1.7,1,2.2,1.8
		c0.5,0.8,0.8,1.7,0.8,2.7l-2.2,0.2c-0.1-1.1-0.5-1.9-1.2-2.5s-1.7-0.8-3-0.8c-1.4,0-2.4,0.3-3,0.8s-0.9,1.1-0.9,1.8
		c0,0.6,0.2,1.1,0.7,1.5c0.4,0.4,1.6,0.8,3.4,1.2s3.1,0.8,3.8,1.1c1,0.5,1.7,1,2.2,1.8s0.7,1.5,0.7,2.4c0,0.9-0.3,1.8-0.8,2.6
		s-1.3,1.4-2.3,1.9s-2.1,0.7-3.3,0.7c-1.6,0-2.9-0.2-3.9-0.7s-1.9-1.1-2.5-2S243.9,256.2,243.9,255.1z"/>
	<path d="M260.4,265.4v-17.2h1.9v1.6c0.5-0.6,1-1.1,1.5-1.4s1.3-0.5,2.1-0.5c1.1,0,2,0.3,2.8,0.8s1.4,1.3,1.8,2.3s0.6,2.1,0.6,3.3
		c0,1.3-0.2,2.4-0.7,3.4s-1.1,1.8-2,2.3s-1.8,0.8-2.7,0.8c-0.7,0-1.3-0.1-1.9-0.4s-1-0.7-1.4-1.1v6.1H260.4z M262.3,254.4
		c0,1.6,0.3,2.8,1,3.6s1.4,1.1,2.4,1.1c0.9,0,1.7-0.4,2.4-1.2s1-2,1-3.7c0-1.6-0.3-2.8-1-3.6s-1.4-1.2-2.3-1.2
		c-0.9,0-1.7,0.4-2.4,1.3S262.3,252.8,262.3,254.4z"/>
	<rect x="273.7" y="243.4" width="2.1" height="17.2"/>
	<path d="M279.1,245.8v-2.4h2.1v2.4H279.1z M279.1,260.6v-12.4h2.1v12.4H279.1z"/>
	<path d="M289,258.7l0.3,1.9c-0.6,0.1-1.1,0.2-1.6,0.2c-0.8,0-1.4-0.1-1.8-0.4s-0.7-0.6-0.9-1s-0.3-1.2-0.3-2.5v-7.2h-1.5v-1.6h1.5
		v-3.1l2.1-1.3v4.3h2.1v1.6h-2.1v7.3c0,0.6,0,1,0.1,1.2s0.2,0.3,0.4,0.4s0.4,0.2,0.7,0.2C288.3,258.8,288.6,258.8,289,258.7z"/>
	<path d="M295.7,258.7l0.3,1.9c-0.6,0.1-1.1,0.2-1.6,0.2c-0.8,0-1.4-0.1-1.8-0.4s-0.7-0.6-0.9-1s-0.3-1.2-0.3-2.5v-7.2h-1.5v-1.6
		h1.5v-3.1l2.1-1.3v4.3h2.1v1.6h-2.1v7.3c0,0.6,0,1,0.1,1.2s0.2,0.3,0.4,0.4s0.4,0.2,0.7,0.2C295,258.8,295.3,258.8,295.7,258.7z"/>
	<path d="M306.3,256.6l2.2,0.3c-0.3,1.3-1,2.3-1.9,3s-2.1,1.1-3.6,1.1c-1.8,0-3.3-0.6-4.3-1.7s-1.6-2.7-1.6-4.7
		c0-2.1,0.5-3.7,1.6-4.9s2.5-1.7,4.2-1.7c1.7,0,3,0.6,4.1,1.7s1.6,2.7,1.6,4.8c0,0.1,0,0.3,0,0.6h-9.3c0.1,1.4,0.5,2.4,1.2,3.1
		s1.6,1.1,2.6,1.1c0.8,0,1.4-0.2,2-0.6S306,257.5,306.3,256.6z M299.4,253.2h6.9c-0.1-1-0.4-1.8-0.8-2.4c-0.7-0.8-1.5-1.2-2.6-1.2
		c-1,0-1.8,0.3-2.4,1S299.4,252.1,299.4,253.2z"/>
	<path d="M311.1,260.6v-12.4h1.9v1.9c0.5-0.9,0.9-1.5,1.3-1.7s0.9-0.4,1.4-0.4c0.7,0,1.4,0.2,2.2,0.7l-0.7,2c-0.5-0.3-1-0.5-1.5-0.5
		c-0.5,0-0.9,0.1-1.2,0.4s-0.6,0.7-0.8,1.2c-0.2,0.8-0.4,1.6-0.4,2.5v6.5H311.1z"/>
</g>
</svg>
