<?xml version="1.0" encoding="utf-8"?>
<!-- Generator: Adobe Illustrator 17.1.0, SVG Export Plug-In . SVG Version: 6.00 Build 0)  -->
<!DOCTYPE svg PUBLIC "-//W3C//DTD SVG 1.1//EN" "http://www.w3.org/Graphics/SVG/1.1/DTD/svg11.dtd">
<svg version="1.1" id="Layer_1" xmlns="http://www.w3.org/2000/svg" xmlns:xlink="http://www.w3.org/1999/xlink" x="0px" y="0px"
	 viewBox="0 0 104 90" enable-background="new 0 0 104 90" xml:space="preserve">
<g>
	<line fill="none" stroke="#FFFFFF" stroke-miterlimit="10" x1="48.4" y1="36.4" x2="48.4" y2="76.5"/>
	<path fill="#FFFFFF" d="M54,36.4H31.6h0c-0.1,0-2.5-0.9-3.5-3.4v0v-2.7l0.4-12.6l0,0c1.1-5.1,3.7-8.8,7.7-10.9
		c3.1-1.6,6.1-1.6,6.4-1.6h0c0,0,0.1,0,0.3,0c2,0,11.8,0.6,14.2,12.5v0l0.4,12.6v2.7v0c-0.6,1.5-1.5,2.3-2.2,2.8
		C54.6,36.3,54,36.4,54,36.4L54,36.4z M31.6,36h22.3c0.2,0,2.2-0.7,3.3-3.1v-2.6l-0.5-12.6C54.4,6.1,44.8,5.5,42.9,5.5
		c-0.2,0-0.2,0-0.3,0l0,0h0c-0.3,0-3.2,0-6.3,1.6c-4,2-6.5,5.6-7.5,10.6l-0.4,12.6v2.6C29.3,35.1,31.4,35.9,31.6,36z"/>
	<path fill="#B5C0C9" d="M28.2,30.4v2.6c0.9,2.3,3.5,3.2,3.5,3.2H54c2.2-0.4,3.3-3.2,3.3-3.2v-2.6H28.2z"/>
	<path fill="#FFFFFF" d="M57.3,30.5H28.2c-0.1,0-0.2-0.1-0.2-0.2c0-0.1,0.1-0.2,0.2-0.2h29.2c0.1,0,0.2,0.1,0.2,0.2
		C57.5,30.4,57.5,30.5,57.3,30.5z"/>
	<path fill="#FFFFFF" d="M53.9,36.4H31.6c0,0,0,0-0.1,0c-0.1,0-2.5-0.9-3.5-3.4c0,0,0,0,0-0.1v-2.6l0.4-12.6v0
		c1.1-5.1,3.7-8.8,7.7-10.9c3.1-1.6,6.1-1.6,6.4-1.6h0c0,0,0.1,0,0.3,0c2,0,11.8,0.6,14.2,12.5c0,0,0,0,0,0l0.4,12.6V33
		c0,0,0,0,0,0.1c-0.6,1.5-1.5,2.3-2.2,2.8C54.5,36.4,54,36.5,53.9,36.4C54,36.4,53.9,36.4,53.9,36.4z M31.6,36h22.3
		c0.2,0,2.2-0.7,3.3-3.1v-2.6l-0.5-12.6C54.4,6.1,44.8,5.5,42.9,5.5c-0.2,0-0.2,0-0.3,0l0,0h0c-0.3,0-3.2,0-6.3,1.6
		c-4,2-6.5,5.6-7.5,10.6l-0.4,12.6v2.6C29.3,35.1,31.4,35.9,31.6,36z"/>
	<g>
		<path fill="#B5C0C9" d="M51.8,84.6h21.7c0.2-0.9,0.4-2.8,0.4-3.5c0-1-0.2-4.4-0.2-4.4h-22h-0.3h-22c0,0-0.2,3.4-0.2,4.4
			c0,0.7,0.3,2.6,0.4,3.5h21.7H51.8z"/>
		<path fill="#B5C0C9" d="M73.5,84.7H29.8c0,0,0,0,0,0c-0.3-1.8-0.4-3-0.4-3.5c0-1,0.2-4.4,0.2-4.4c0,0,0,0,0,0h44.3c0,0,0,0,0,0
			s0.2,3.4,0.2,4.4C74,81.6,73.9,82.8,73.5,84.7C73.6,84.7,73.6,84.7,73.5,84.7z M29.8,84.6h43.7c0.3-1.8,0.4-3,0.4-3.5
			c0-0.9-0.2-4-0.2-4.4H29.5c0,0.3-0.2,3.4-0.2,4.4C29.3,81.6,29.5,82.8,29.8,84.6z"/>
		<path fill="#8999A5" d="M36.7,76.8c0,0,3.1,7.1,3.5,7.7h23c0,0,2.8-5.6,3.5-7.7L36.7,76.8z"/>
		<path fill="#231F20" d="M62.2,84.7H36.8c0,0,0,0,0,0s0,0,0,0L62.2,84.7C62.3,84.6,62.3,84.6,62.2,84.7
			C62.3,84.7,62.3,84.7,62.2,84.7z"/>
		<g>
			<g>
				<g>
					<path fill="#8999A5" d="M69,80.7c0,0.2-0.3,0.4-0.7,0.4s-0.7-0.2-0.7-0.4c0-0.2,0.3-0.4,0.7-0.4C68.7,80.3,69,80.5,69,80.7z"/>
					<path fill="#8999A5" d="M73,80.7c0,0.2-0.3,0.4-0.7,0.4s-0.7-0.2-0.7-0.4c0-0.2,0.3-0.4,0.7-0.4S73,80.5,73,80.7z"/>
				</g>
				<g>
					<path fill="#8999A5" d="M70.3,82c0.2,0,0.4,0.3,0.4,0.7s-0.2,0.7-0.4,0.7c-0.2,0-0.4-0.3-0.4-0.7C69.9,82.3,70.1,82,70.3,82z"
						/>
					<path fill="#8999A5" d="M70.3,78c0.2,0,0.4,0.3,0.4,0.7c0,0.4-0.2,0.7-0.4,0.7c-0.2,0-0.4-0.3-0.4-0.7
						C69.9,78.4,70.1,78,70.3,78z"/>
				</g>
			</g>
			<path fill="#8999A5" d="M71,80.7c0,0.4-0.3,0.7-0.7,0.7s-0.7-0.3-0.7-0.7s0.3-0.7,0.7-0.7S71,80.3,71,80.7z"/>
		</g>
		<path fill="#FFFFFF" d="M73.8,84.8H29.7l0-0.2c-0.3-1.8-0.4-3.1-0.4-3.6c0-1,0.2-4.3,0.2-4.4v-0.2h44.7v0.2c0,0.1,0.2,3.4,0.2,4.4
			c0,0.6-0.2,1.8-0.4,3.6L73.8,84.8z M30.1,84.4h43.4c0.3-1.7,0.4-2.9,0.4-3.3c0-0.9-0.1-3.5-0.2-4.2h-44c0,0.7-0.2,3.3-0.2,4.2
			C29.6,81.6,29.8,82.8,30.1,84.4z"/>
		<path fill="#8999A5" d="M31.2,82.4c0-0.2,0.2-0.3,0.4-0.3h5.1c0.2,0,0.4,0.1,0.4,0.3v1c0,0.2-0.2,0.3-0.4,0.3h-5
			c-0.2,0-0.4-0.1-0.4-0.3L31.2,82.4L31.2,82.4z"/>
	</g>
	<g>
		<path fill="#FFFFFF" d="M67,54.1l-0.1-13.9c0,0,0-0.9-0.9-0.9l0,0c-0.9,0-0.9,0.9-0.9,0.9L65,54.1C65,54.1,67,54.1,67,54.1z"/>
		<path fill="#B5C0C9" d="M52,62.5h25v-6.9c0,0,0.2-0.9-2.7-1.2c0,0-8.8-0.9-22.2-1.1h-0.2c-13.4,0.2-22.2,1.1-22.2,1.1
			c-2.9,0.2-2.7,1.2-2.7,1.2v6.9H52L52,62.5z"/>
		<path fill="#8999A5" d="M49.8,56.6c0,0.3-0.2,0.5-0.5,0.5l0,0c-0.3,0-0.5-0.2-0.5-0.5v-3h1C49.8,53.6,49.8,56.6,49.8,56.6z"/>
		<path fill="#8999A5" d="M52.5,56.6c0,0.3-0.2,0.5-0.5,0.5l0,0c-0.3,0-0.5-0.2-0.5-0.5v-3.1h1V56.6z"/>
		<path fill="#8999A5" d="M55.1,56.6c0,0.3-0.2,0.5-0.5,0.5l0,0c-0.3,0-0.5-0.2-0.5-0.5v-3.1h1V56.6z"/>
		<path fill="#FFFFFF" d="M77.2,62.7H26.8v-7.1c0-0.1,0-0.2,0.2-0.5c0.4-0.5,1.3-0.8,2.7-0.9c0.1,0,9-0.9,22.2-1.1h0.2
			c13.3,0.2,22.1,1.1,22.3,1.1c1.4,0.1,2.4,0.4,2.7,0.9c0.2,0.2,0.2,0.4,0.2,0.5L77.2,62.7L77.2,62.7z M27.2,62.3h49.5v-6.7l0,0
			c0,0-0.1-0.7-2.5-0.9c-0.1,0-9-0.9-22.2-1.1h-0.2c-13.2,0.2-22.1,1.1-22.2,1.1c-2.4,0.2-2.5,0.9-2.5,0.9v0l0,0L27.2,62.3
			L27.2,62.3z"/>
	</g>
	<rect x="28" y="23.9" fill="none" width="29.3" height="4.2"/>
	<text transform="matrix(1 0 0 1 35.0826 26.8163)" fill="#FFFFFF" font-family="'Helvetica-Light'" font-size="4.0784">Antenna</text>
	<rect x="29.3" y="57.1" fill="none" width="29.3" height="4.2"/>
	<text transform="matrix(1 0 0 1 29.2979 59.9893)" fill="#293047" font-family="'Helvetica-Light'" font-size="4.0784">TV-Hub</text>
	<rect x="29.3" y="79" fill="none" width="44.7" height="4.2"/>
	<text transform="matrix(1 0 0 1 43.5918 81.9141)" fill="#293047" font-family="'Helvetica-Light'" font-size="4.0784">Receiver</text>
</g>
</svg>
