<?xml version="1.0" encoding="utf-8"?>
<!-- Generator: Adobe Illustrator 17.1.0, SVG Export Plug-In . SVG Version: 6.00 Build 0)  -->
<!DOCTYPE svg PUBLIC "-//W3C//DTD SVG 1.1//EN" "http://www.w3.org/Graphics/SVG/1.1/DTD/svg11.dtd">
<svg version="1.1" id="Layer_1" xmlns="http://www.w3.org/2000/svg" xmlns:xlink="http://www.w3.org/1999/xlink" x="0px" y="0px"
	 viewBox="0 0 1643.4 886.6" enable-background="new 0 0 1643.4 886.6" xml:space="preserve">
<g>
	<line fill="#FFFFFF" x1="319.5" y1="229.2" x2="319.5" y2="831.8"/>
	<rect x="316.8" y="229.2" fill="#FFFFFF" width="5.5" height="602.7"/>
	<line fill="#FFFFFF" x1="430" y1="171" x2="665.7" y2="171"/>
	<rect x="430" y="168.2" fill="#FFFFFF" width="235.7" height="5.5"/>
	<g>
		<text transform="matrix(1 0 0 1 359.3002 671.2935)" fill="#FFFFFF" font-family="'Helvetica-Light'" font-size="33.7419">IP AutoSwitch</text>
		<g>
			<g id="XMLID_280_">
				<g>
					<rect x="314.3" y="600.9" fill="#3C4855" width="11.2" height="14.2"/>
				</g>
				<g>
					<rect x="314.3" y="600.9" fill="none" stroke="#FFFFFF" stroke-miterlimit="10" width="11.2" height="14.2"/>
				</g>
			</g>
			<g>
				
					<rect x="314.4" y="602.7" transform="matrix(0.9925 0.1219 -0.1219 0.9925 75.9006 -34.5189)" fill="#FFFFFF" width="11.2" height="0.3"/>
			</g>
			<g>
				
					<rect x="314.4" y="606.1" transform="matrix(0.9925 0.1219 -0.1219 0.9925 76.315 -34.4935)" fill="#FFFFFF" width="11.2" height="0.3"/>
			</g>
			<g>
				
					<rect x="314.4" y="609.5" transform="matrix(0.9925 0.1219 -0.1219 0.9925 76.7295 -34.4682)" fill="#FFFFFF" width="11.2" height="0.3"/>
			</g>
			<g>
				
					<rect x="314.4" y="612.9" transform="matrix(0.9925 0.1219 -0.1219 0.9925 77.1439 -34.4428)" fill="#FFFFFF" width="11.2" height="0.3"/>
			</g>
			<g>
				
					<rect x="313.7" y="601.1" transform="matrix(0.9997 2.517704e-02 -2.517704e-02 0.9997 15.24 -7.8644)" fill="#FFFFFF" width="12.5" height="0.3"/>
			</g>
			<path fill="#3C4855" stroke="#FFFFFF" stroke-miterlimit="10" d="M328.9,621c1,0,1.7-0.8,1.7-1.7v-2.6c0-1-0.8-1.7-1.7-1.7h-18.1
				c-1,0-1.7,0.8-1.7,1.7v2.6c0,1,0.8,1.7,1.7,1.7H328.9z"/>
		</g>
		<g>
			<g id="XMLID_279_">
				<g>
					<rect x="314.3" y="700.5" fill="#3C4855" width="11.2" height="14.2"/>
				</g>
				<g>
					<rect x="314.3" y="700.5" fill="none" stroke="#FFFFFF" stroke-miterlimit="10" width="11.2" height="14.2"/>
				</g>
			</g>
			<g>
				
					<rect x="314.4" y="712.5" transform="matrix(0.9925 -0.1219 0.1219 0.9925 -84.5091 44.3353)" fill="#FFFFFF" width="11.2" height="0.3"/>
			</g>
			<g>
				
					<rect x="314.4" y="709.1" transform="matrix(0.9925 -0.1219 0.1219 0.9925 -84.0947 44.3099)" fill="#FFFFFF" width="11.2" height="0.3"/>
			</g>
			<g>
				
					<rect x="314.4" y="705.7" transform="matrix(0.9925 -0.1219 0.1219 0.9925 -83.6803 44.2845)" fill="#FFFFFF" width="11.2" height="0.3"/>
			</g>
			<g>
				
					<rect x="314.4" y="702.3" transform="matrix(0.9925 -0.1219 0.1219 0.9925 -83.2658 44.2592)" fill="#FFFFFF" width="11.2" height="0.3"/>
			</g>
			<g>
				
					<rect x="313.7" y="714.1" transform="matrix(0.9997 -2.517704e-02 2.517704e-02 0.9997 -17.8815 8.2814)" fill="#FFFFFF" width="12.5" height="0.3"/>
			</g>
			<path fill="#3C4855" stroke="#FFFFFF" stroke-miterlimit="10" d="M328.9,694.5c1,0,1.7,0.8,1.7,1.7v2.6c0,1-0.8,1.7-1.7,1.7
				h-18.1c-1,0-1.7-0.8-1.7-1.7v-2.6c0-1,0.8-1.7,1.7-1.7H328.9z"/>
		</g>
		<path fill="#3C4855" stroke="#FFFFFF" stroke-miterlimit="10" d="M292.3,695.6l2.2,3.7v2c0,0,3.1,0.7,5.3,0.7
			c2.4,0,5.3-0.7,5.3-0.7v-2l3-4.8L292.3,695.6z"/>
		<rect x="284.6" y="621.5" fill="#3C4855" stroke="#FFFFFF" stroke-miterlimit="10" width="52.6" height="72"/>
		<path fill="#3C4855" stroke="#FFFFFF" stroke-miterlimit="10" d="M338.2,693c0-0.6-0.5-1.1-1.1-1.1h-52.4c-0.6,0-1.1,0.5-1.1,1.1
			v2.6c0,0.6,0.5,1.1,1.1,1.1h52.4c0.6,0,1.1-0.5,1.1-1.1V693z"/>
		<path fill="#3C4855" stroke="#FFFFFF" stroke-miterlimit="10" d="M338.2,619.6c0-0.6-0.5-1.1-1.1-1.1h-52.4
			c-0.6,0-1.1,0.5-1.1,1.1v2.6c0,0.6,0.5,1.1,1.1,1.1h52.4c0.6,0,1.1-0.5,1.1-1.1V619.6z"/>
	</g>
	<line fill="#FFFFFF" x1="763.8" y1="484" x2="763.8" y2="836.1"/>
	<rect x="761" y="484" fill="#FFFFFF" width="5.5" height="352.1"/>
	<line fill="#FFFFFF" x1="316.8" y1="483.3" x2="766.5" y2="483.3"/>
	<rect x="316.8" y="480.5" fill="#FFFFFF" width="449.7" height="5.5"/>
	<line fill="#FFFFFF" x1="845.7" y1="484.5" x2="845.7" y2="148.3"/>
	<rect x="843" y="148.3" fill="#FFFFFF" width="5.5" height="336.3"/>
	<line fill="#FFFFFF" x1="1221.9" y1="485.3" x2="843" y2="485.3"/>
	<rect x="843" y="482.5" fill="#FFFFFF" width="378.9" height="5.5"/>
	<line fill="#FFFFFF" x1="919" y1="350.1" x2="919" y2="187.3"/>
	<rect x="916.2" y="187.3" fill="#FFFFFF" width="5.5" height="162.8"/>
	<line fill="#FFFFFF" x1="1090.4" y1="350.8" x2="916.2" y2="350.8"/>
	<rect x="916.2" y="348.1" fill="#FFFFFF" width="174.1" height="5.5"/>
	<line fill="#FFFFFF" x1="1219.7" y1="484" x2="1219.7" y2="836.1"/>
	<rect x="1217" y="484" fill="#FFFFFF" width="5.5" height="352.1"/>
	<g>
		<g>
			<path fill="#FFFFFF" d="M405.5,248.2H228l-0.2-0.1c-0.8-0.3-19.9-7-28.1-27l-0.1-0.3v-20.9l3-100.3l0-0.1
				c8.4-40.8,29.1-69.8,61.5-86.3C289.1,0.4,312.7,0,315.3,0l0.3,0c0.2,0,1,0,2.2,0c15.5,0,93.6,4.8,112.5,99.3l0,0.2l3.6,100.3
				l0,21l-0.1,0.3c-4.8,11.8-12.2,18.5-17.5,22.1c-5.8,3.9-10.5,5-10.7,5L405.5,248.2z M228.5,245.1h176.6
				c1.7-0.4,17.6-5.1,25.8-24.9v-20.3l-3.6-100.1C409,7.7,333,3,317.9,3c-1.3,0-2.1,0-2.1,0l-0.1,0l-0.4,0
				c-2.5,0-25.5,0.4-49.9,12.8c-31.5,16.1-51.7,44.3-59.9,84.1l-3,100l0,20.3C209.9,237.6,226.4,244.3,228.5,245.1z"/>
		</g>
		<g>
			<path fill="#2C3B47" d="M201.1,200.5v20.6c6.8,18,27.4,25.3,27.4,25.3h177.6c17.1-3.5,26.4-25.3,26.4-25.3v-20.6H201.1z"/>
		</g>
		<g>
			<path d="M432.5,220.7H201.1c-0.1,0-0.3-0.1-0.3-0.3s0.1-0.3,0.3-0.3h231.4c0.1,0,0.3,0.1,0.3,0.3S432.6,220.7,432.5,220.7z"/>
		</g>
		<g>
			<path d="M432.5,221.4H201.1c-0.1,0-0.3-0.1-0.3-0.3v-20.6c0-0.1,0.1-0.3,0.3-0.3h231.4c0.1,0,0.3,0.1,0.3,0.3v20.6
				C432.7,221.3,432.6,221.4,432.5,221.4z M201.3,220.9h230.9v-20.1H201.3V220.9z"/>
		</g>
		<g>
			<path d="M406.1,246.7H228.5c0,0-0.1,0-0.1,0c-0.2-0.1-20.9-7.5-27.6-25.4c0-0.1,0-0.2,0-0.2s0.1-0.1,0.2-0.1h231.4
				c0.1,0,0.2,0,0.2,0.1c0,0.1,0.1,0.2,0,0.2C432.6,221.5,423.2,243.2,406.1,246.7C406.1,246.7,406.1,246.7,406.1,246.7z
				 M228.5,246.2h177.5c15.6-3.2,24.7-22,26-24.8H201.4C208,238.5,227.5,245.8,228.5,246.2z"/>
		</g>
		<g>
			<path fill="#FFFFFF" d="M432.5,222H201.1c-0.8,0-1.5-0.7-1.5-1.5s0.7-1.5,1.5-1.5h231.4c0.8,0,1.5,0.7,1.5,1.5
				S433.3,222,432.5,222z"/>
		</g>
		<g>
			<path fill="#FFFFFF" d="M432.5,201.4H201.1c-0.8,0-1.5-0.7-1.5-1.5c0-0.8,0.7-1.5,1.5-1.5h231.4c0.8,0,1.5,0.7,1.5,1.5
				C434,200.7,433.3,201.4,432.5,201.4z"/>
		</g>
		<g>
			<g>
				<path fill="#FFFFFF" d="M233.8,180.7l12.7-32.4h3.5l12.4,32.4h-3.1l-3.7-10.2h-14.8l-3.8,10.2H233.8z M241.8,167.9h12.7l-6.3-17
					L241.8,167.9z"/>
			</g>
			<g>
				<path fill="#FFFFFF" d="M269.1,180.7h-2.7v-23.3h2.7v3.2c1.1-1.1,2.2-2.1,3.4-2.8c1.2-0.7,2.5-1.1,4.2-1.1c1.4,0,2.8,0.2,4,0.7
					c1.2,0.5,2.3,1.4,3.1,2.6c0.6,0.8,0.9,1.7,1,2.6c0.1,0.9,0.2,1.8,0.2,2.8v15.3h-2.7v-15.2c0-2.1-0.5-3.7-1.4-4.7
					c-0.9-1-2.5-1.6-4.6-1.6c-0.8,0-1.6,0.1-2.3,0.4c-0.7,0.3-1.3,0.6-1.9,1c-0.6,0.4-1,0.9-1.4,1.4c-0.4,0.5-0.7,1.1-0.9,1.7
					c-0.3,0.8-0.4,1.5-0.5,2.2c-0.1,0.7-0.1,1.4-0.1,2.2V180.7z"/>
			</g>
			<g>
				<path fill="#FFFFFF" d="M299.6,180.8c-0.3,0.1-0.8,0.2-1.3,0.3c-0.5,0.2-1.1,0.2-1.8,0.2c-1.4,0-2.4-0.3-3.1-1
					c-0.7-0.7-1.1-1.9-1.1-3.6v-17.1h-3.3v-2.2h3.3v-6.5h2.7v6.5h4.4v2.2H295v16c0,0.6,0,1.1,0,1.5c0,0.4,0.1,0.8,0.3,1
					c0.1,0.3,0.4,0.5,0.7,0.6c0.3,0.1,0.8,0.2,1.3,0.2c0.4,0,0.7,0,1.1-0.1c0.4-0.1,0.7-0.1,1.1-0.2V180.8z"/>
			</g>
			<g>
				<path fill="#FFFFFF" d="M305.6,169.6c0,1.3,0.2,2.5,0.5,3.6c0.3,1.1,0.8,2.1,1.5,2.9c0.6,0.8,1.5,1.5,2.5,2
					c1,0.5,2.1,0.7,3.4,0.7c1.8,0,3.3-0.5,4.5-1.4c1.3-0.9,2.1-2.2,2.5-4h3c-0.3,1.1-0.8,2.1-1.3,3.1c-0.5,0.9-1.2,1.8-2,2.5
					c-0.8,0.7-1.8,1.3-2.9,1.6c-1.1,0.4-2.4,0.6-3.9,0.6c-1.9,0-3.5-0.3-4.8-0.9c-1.3-0.6-2.5-1.5-3.3-2.6c-0.9-1.1-1.5-2.4-1.9-3.9
					c-0.4-1.5-0.6-3.1-0.6-4.8c0-1.7,0.2-3.3,0.7-4.8c0.5-1.5,1.2-2.8,2.1-3.9s2-2,3.4-2.7c1.3-0.6,2.8-1,4.5-1
					c3.2,0,5.7,1.1,7.6,3.3c1.8,2.2,2.7,5.4,2.7,9.6H305.6z M320.8,167.4c0-1.1-0.2-2.2-0.5-3.2c-0.3-1-0.8-1.9-1.4-2.6
					c-0.6-0.7-1.4-1.3-2.3-1.8c-0.9-0.4-2-0.7-3.2-0.7c-1.2,0-2.3,0.2-3.2,0.7c-0.9,0.5-1.7,1.1-2.3,1.8c-0.6,0.8-1.2,1.6-1.6,2.6
					c-0.4,1-0.6,2-0.8,3.1H320.8z"/>
			</g>
			<g>
				<path fill="#FFFFFF" d="M331.6,180.7h-2.7v-23.3h2.7v3.2c1.1-1.1,2.2-2.1,3.4-2.8c1.2-0.7,2.5-1.1,4.2-1.1c1.4,0,2.8,0.2,4,0.7
					c1.2,0.5,2.3,1.4,3.1,2.6c0.6,0.8,0.9,1.7,1,2.6c0.1,0.9,0.2,1.8,0.2,2.8v15.3h-2.7v-15.2c0-2.1-0.5-3.7-1.4-4.7
					c-0.9-1-2.5-1.6-4.6-1.6c-0.8,0-1.6,0.1-2.3,0.4c-0.7,0.3-1.3,0.6-1.9,1c-0.6,0.4-1,0.9-1.4,1.4c-0.4,0.5-0.7,1.1-0.9,1.7
					c-0.3,0.8-0.4,1.5-0.5,2.2c-0.1,0.7-0.1,1.4-0.1,2.2V180.7z"/>
			</g>
			<g>
				<path fill="#FFFFFF" d="M356.6,180.7h-2.7v-23.3h2.7v3.2c1.1-1.1,2.2-2.1,3.4-2.8c1.2-0.7,2.5-1.1,4.2-1.1c1.4,0,2.8,0.2,4,0.7
					c1.2,0.5,2.3,1.4,3.1,2.6c0.6,0.8,0.9,1.7,1,2.6c0.1,0.9,0.2,1.8,0.2,2.8v15.3h-2.7v-15.2c0-2.1-0.5-3.7-1.4-4.7
					c-0.9-1-2.5-1.6-4.6-1.6c-0.8,0-1.6,0.1-2.3,0.4c-0.7,0.3-1.3,0.6-1.9,1c-0.6,0.4-1,0.9-1.4,1.4c-0.4,0.5-0.7,1.1-0.9,1.7
					c-0.3,0.8-0.4,1.5-0.5,2.2c-0.1,0.7-0.1,1.4-0.1,2.2V180.7z"/>
			</g>
			<g>
				<path fill="#FFFFFF" d="M389.7,167.1c0.5-0.1,1.1-0.1,1.8-0.3s1.3-0.3,1.7-0.5c0.5-0.2,0.7-0.6,0.8-1.1c0.1-0.5,0.2-1,0.2-1.4
					c0-1.4-0.4-2.5-1.3-3.4c-0.9-0.9-2.4-1.3-4.5-1.3c-0.9,0-1.8,0.1-2.6,0.2c-0.8,0.2-1.5,0.5-2,0.9c-0.6,0.4-1.1,0.9-1.4,1.6
					c-0.4,0.7-0.6,1.5-0.7,2.5h-2.7c0.1-1.4,0.4-2.6,0.9-3.5c0.5-1,1.2-1.8,2.1-2.4s1.8-1.1,3-1.4c1.1-0.3,2.3-0.4,3.6-0.4
					c1.2,0,2.3,0.1,3.3,0.4c1,0.3,1.9,0.7,2.7,1.2c0.8,0.6,1.4,1.3,1.8,2.2c0.4,0.9,0.7,2.1,0.7,3.4v12.7c0,1.1,0.2,1.7,0.6,2
					c0.4,0.3,1.1,0.2,2.3-0.2v2.1c-0.2,0.1-0.5,0.2-0.9,0.3c-0.4,0.1-0.8,0.2-1.2,0.2c-0.4,0-0.8,0-1.2-0.1
					c-0.5-0.1-0.8-0.2-1.1-0.4c-0.3-0.2-0.5-0.5-0.7-0.8c-0.2-0.3-0.3-0.7-0.3-1c-0.1-0.4-0.1-0.8-0.1-1.2c-1.1,1.3-2.4,2.2-3.9,2.9
					c-1.5,0.7-3.1,1-4.8,1c-1,0-2-0.1-2.9-0.4c-0.9-0.3-1.8-0.7-2.5-1.3c-0.7-0.6-1.3-1.3-1.7-2.1c-0.4-0.8-0.6-1.8-0.6-2.9
					c0-4,2.7-6.3,8.1-7L389.7,167.1z M394.2,168.4c-1.1,0.5-2.3,0.8-3.5,0.9c-1.2,0.2-2.3,0.3-3.5,0.4c-2.1,0.2-3.7,0.6-4.8,1.4
					c-1.2,0.8-1.7,2-1.7,3.6c0,0.7,0.1,1.3,0.4,1.9c0.3,0.5,0.7,1,1.1,1.3c0.5,0.3,1,0.6,1.6,0.8c0.6,0.2,1.2,0.2,1.9,0.2
					c1.1,0,2.1-0.1,3.1-0.4c1-0.3,1.9-0.7,2.7-1.2c0.8-0.6,1.4-1.3,1.9-2.1c0.5-0.9,0.7-1.9,0.7-3V168.4z"/>
			</g>
		</g>
		<g>
			<path fill="#FFFFFF" d="M405.3,248.2H228.2c-0.2,0-0.3,0-0.5-0.1c-0.8-0.3-19.9-7-28.1-27c-0.1-0.2-0.1-0.4-0.1-0.6v-20.6
				l3-100.2c0-0.1,0-0.2,0-0.3c8.4-40.8,29.1-69.8,61.5-86.3C289.1,0.4,312.7,0,315.3,0l0.3,0c0.2,0,1,0,2.2,0
				c15.5,0,93.6,4.8,112.5,99.3c0,0.1,0,0.2,0,0.2l3.6,100.3l0,20.7c0,0.2,0,0.4-0.1,0.6c-4.8,11.8-12.2,18.5-17.5,22.1
				c-5.8,3.9-10.5,5-10.7,5C405.5,248.1,405.4,248.2,405.3,248.2z M228.5,245.1h176.6c1.7-0.4,17.6-5.1,25.8-24.9v-20.3l-3.6-100.1
				C409,7.7,333,3,317.9,3c-1.3,0-2.1,0-2.1,0c0,0-0.1,0-0.1,0l-0.3,0c-2.5,0-25.5,0.4-49.9,12.8c-31.5,16.1-51.7,44.3-59.9,84.1
				l-3,100l0,20.3C209.9,237.6,226.4,244.3,228.5,245.1z"/>
		</g>
	</g>
	<g>
		<g>
			<path fill="#FFFFFF" d="M974.9,127l-1.2-110.3c0,0-0.1-7.6-6.8-7.6h0.1c-6.6,0-6.8,7.6-6.8,7.6L959.1,127H974.9z"/>
		</g>
		<g>
			<path fill="#2C3B47" d="M855.7,193.8H1054V139c0,0,1.3-7.2-21.3-9.2c0,0-70.1-7.5-176.4-8.9H855c-106.3,1.4-176.4,8.9-176.4,8.9
				c-22.6,2.1-21.3,9.2-21.3,9.2v54.9h198.3H855.7z"/>
			<path fill="#FFFFFF" d="M1055.8,195.6H655.5v-56.6c-0.1-0.6,0-2,1.3-3.7c2.9-3.9,10.2-6.3,21.6-7.4c0.7-0.1,71.4-7.6,176.6-8.9
				h1.3c105.2,1.4,175.9,8.9,176.6,8.9c11.4,1,18.7,3.5,21.6,7.4c1.3,1.7,1.3,3.2,1.3,3.7V195.6z M659.1,192h393.1v-53.3l0,0
				c0,0-0.5-5.4-19.7-7.1c-0.7-0.1-71.3-7.5-176.3-8.9H855c-105,1.4-175.5,8.8-176.2,8.9c-19.3,1.8-19.7,7.2-19.7,7.2l0.1,0.3
				l-0.1-0.1V192z"/>
		</g>
		<g>
			<path fill="#808080" d="M838.4,146.7c0,2.1-1.7,3.9-3.9,3.9l0,0c-2.1,0-3.9-1.7-3.9-3.9V123h7.7V146.7z"/>
			<path fill="#FFFFFF" d="M834.5,151.2c-2.5,0-4.5-2-4.5-4.5V123c0-0.3,0.3-0.6,0.6-0.6h7.7c0.3,0,0.6,0.3,0.6,0.6v23.8
				C839,149.2,837,151.2,834.5,151.2z M831.3,123.6v23.2c0,1.8,1.5,3.3,3.3,3.3c1.8,0,3.3-1.5,3.3-3.3v-23.2H831.3z"/>
		</g>
		<g>
			<path fill="#808080" d="M859.5,146.7c0,2.1-1.7,3.9-3.9,3.9l0,0c-2.1,0-3.9-1.7-3.9-3.9v-24.2h7.7V146.7z"/>
			<path fill="#FFFFFF" d="M855.6,151.2c-2.5,0-4.5-2-4.5-4.5v-24.2c0-0.3,0.3-0.6,0.6-0.6h7.7c0.3,0,0.6,0.3,0.6,0.6v24.2
				C860.1,149.2,858.1,151.2,855.6,151.2z M852.4,123.2v23.6c0,1.8,1.5,3.3,3.3,3.3c1.8,0,3.3-1.5,3.3-3.3v-23.6H852.4z"/>
		</g>
		<g>
			<path fill="#808080" d="M880.6,146.7c0,2.1-1.7,3.9-3.9,3.9l0,0c-2.1,0-3.9-1.7-3.9-3.9v-24.2h7.7V146.7z"/>
			<path fill="#FFFFFF" d="M876.8,151.2c-2.5,0-4.5-2-4.5-4.5v-24.2c0-0.3,0.3-0.6,0.6-0.6h7.7c0.3,0,0.6,0.3,0.6,0.6v24.2
				C881.2,149.2,879.2,151.2,876.8,151.2z M873.5,123.2v23.6c0,1.8,1.5,3.3,3.3,3.3c1.8,0,3.3-1.5,3.3-3.3v-23.6H873.5z"/>
		</g>
		<g>
			<g>
				<path fill="#FFFFFF" d="M670.6,144.1h23.6v2.6h-10.3v29.8h-3.1v-29.8h-10.3V144.1z"/>
			</g>
			<g>
				<path fill="#FFFFFF" d="M695.7,144.1h3.2l9.8,28.8l9.7-28.8h3.2l-11.2,32.4H707L695.7,144.1z"/>
			</g>
			<g>
				<path fill="#FFFFFF" d="M735.6,163.4v2.8h-11.4v-2.8H735.6z"/>
			</g>
			<g>
				<path fill="#FFFFFF" d="M741,176.5v-32.4h3.1V158h19.2v-13.9h3.1v32.4h-3.1v-15.9H744v15.9H741z"/>
			</g>
			<g>
				<path fill="#FFFFFF" d="M788.9,153.1h2.7v23.3h-2.7v-3.2c-0.4,0.4-0.8,0.9-1.2,1.3c-0.5,0.5-1,0.9-1.6,1.2
					c-0.6,0.4-1.3,0.7-2,0.9c-0.8,0.3-1.7,0.4-2.7,0.4c-1.6,0-2.9-0.2-3.9-0.7c-1.1-0.4-1.9-1-2.5-1.8c-0.6-0.8-1.1-1.7-1.4-2.7
					c-0.3-1-0.4-2.2-0.4-3.4v-15.3h2.7v15.3c0,2,0.5,3.5,1.4,4.6c0.9,1.1,2.5,1.6,4.6,1.6c1.1,0,2.1-0.2,3-0.7
					c0.9-0.4,1.6-1,2.2-1.8s1.1-1.7,1.4-2.8c0.3-1.1,0.5-2.3,0.5-3.6V153.1z"/>
			</g>
			<g>
				<path fill="#FFFFFF" d="M801.1,176.5h-2.7v-32.4h2.7v12.8c0.9-1.4,2.1-2.5,3.6-3.3c1.5-0.7,3.1-1.1,4.7-1.1c1.8,0,3.3,0.3,4.6,1
					c1.3,0.7,2.4,1.6,3.2,2.7c0.9,1.1,1.5,2.4,1.9,3.9c0.4,1.5,0.6,3.1,0.6,4.7c0,1.7-0.2,3.3-0.6,4.8c-0.4,1.5-1,2.8-1.9,3.9
					c-0.9,1.1-1.9,2-3.3,2.6c-1.3,0.6-2.9,0.9-4.8,0.9c-0.8,0-1.5-0.1-2.3-0.3c-0.8-0.2-1.5-0.5-2.3-0.9c-0.7-0.4-1.4-0.9-2-1.5
					c-0.6-0.6-1.1-1.3-1.5-2h-0.1V176.5z M801.1,164.7c0,1.4,0.2,2.7,0.5,3.9c0.3,1.2,0.8,2.3,1.5,3.1c0.7,0.9,1.5,1.6,2.5,2.1
					c1,0.5,2.1,0.8,3.4,0.8c1.1,0,2.2-0.2,3.1-0.6c1-0.4,1.8-1,2.5-1.8c0.7-0.8,1.3-1.7,1.7-2.9c0.4-1.1,0.6-2.4,0.6-3.9
					c0.1-1.5-0.1-2.8-0.4-4.1c-0.3-1.3-0.8-2.4-1.4-3.4c-0.7-1-1.5-1.7-2.5-2.3c-1-0.6-2.2-0.8-3.6-0.8c-1.2,0-2.3,0.3-3.3,0.8
					c-1,0.5-1.8,1.2-2.5,2.1c-0.7,0.9-1.2,1.9-1.6,3.1C801.3,162.1,801.1,163.4,801.1,164.7z"/>
			</g>
		</g>
	</g>
	<g>
		<text transform="matrix(1 0 0 1 802.727 671.2935)" fill="#FFFFFF" font-family="'Helvetica-Light'" font-size="33.7419">IP AutoSwitch</text>
		<g>
			<g id="XMLID_272_">
				<g>
					<rect x="757.8" y="600.9" fill="#3C4855" width="11.2" height="14.2"/>
				</g>
				<g>
					<rect x="757.8" y="600.9" fill="none" stroke="#FFFFFF" stroke-miterlimit="10" width="11.2" height="14.2"/>
				</g>
			</g>
			<g>
				
					<rect x="757.8" y="602.7" transform="matrix(0.9925 0.1219 -0.1219 0.9925 79.2094 -88.5878)" fill="#FFFFFF" width="11.2" height="0.3"/>
			</g>
			<g>
				
					<rect x="757.8" y="606.1" transform="matrix(0.9925 0.1219 -0.1219 0.9925 79.6238 -88.5624)" fill="#FFFFFF" width="11.2" height="0.3"/>
			</g>
			<g>
				
					<rect x="757.8" y="609.5" transform="matrix(0.9925 0.1219 -0.1219 0.9925 80.0383 -88.5371)" fill="#FFFFFF" width="11.2" height="0.3"/>
			</g>
			<g>
				
					<rect x="757.8" y="612.9" transform="matrix(0.9925 0.1219 -0.1219 0.9925 80.4527 -88.5117)" fill="#FFFFFF" width="11.2" height="0.3"/>
			</g>
			<g>
				
					<rect x="757.1" y="601.1" transform="matrix(0.9997 2.517704e-02 -2.517704e-02 0.9997 15.3805 -19.0286)" fill="#FFFFFF" width="12.5" height="0.3"/>
			</g>
			<path fill="#3C4855" stroke="#FFFFFF" stroke-miterlimit="10" d="M772.3,621c1,0,1.7-0.8,1.7-1.7v-2.6c0-1-0.8-1.7-1.7-1.7h-18.1
				c-1,0-1.7,0.8-1.7,1.7v2.6c0,1,0.8,1.7,1.7,1.7H772.3z"/>
		</g>
		<g>
			<g id="XMLID_271_">
				<g>
					<rect x="757.8" y="700.5" fill="#3C4855" width="11.2" height="14.2"/>
				</g>
				<g>
					<rect x="757.8" y="700.5" fill="none" stroke="#FFFFFF" stroke-miterlimit="10" width="11.2" height="14.2"/>
				</g>
			</g>
			<g>
				
					<rect x="757.8" y="712.5" transform="matrix(0.9925 -0.1219 0.1219 0.9925 -81.2004 98.4042)" fill="#FFFFFF" width="11.2" height="0.3"/>
			</g>
			<g>
				
					<rect x="757.8" y="709.1" transform="matrix(0.9925 -0.1219 0.1219 0.9925 -80.7859 98.3788)" fill="#FFFFFF" width="11.2" height="0.3"/>
			</g>
			<g>
				
					<rect x="757.8" y="705.7" transform="matrix(0.9925 -0.1219 0.1219 0.9925 -80.3715 98.3534)" fill="#FFFFFF" width="11.2" height="0.3"/>
			</g>
			<g>
				
					<rect x="757.8" y="702.3" transform="matrix(0.9925 -0.1219 0.1219 0.9925 -79.9571 98.3281)" fill="#FFFFFF" width="11.2" height="0.3"/>
			</g>
			<g>
				
					<rect x="757.1" y="714.1" transform="matrix(0.9997 -2.517704e-02 2.517704e-02 0.9997 -17.7409 19.4456)" fill="#FFFFFF" width="12.5" height="0.3"/>
			</g>
			<path fill="#3C4855" stroke="#FFFFFF" stroke-miterlimit="10" d="M772.3,694.5c1,0,1.7,0.8,1.7,1.7v2.6c0,1-0.8,1.7-1.7,1.7
				h-18.1c-1,0-1.7-0.8-1.7-1.7v-2.6c0-1,0.8-1.7,1.7-1.7H772.3z"/>
		</g>
		<path fill="#3C4855" stroke="#FFFFFF" stroke-miterlimit="10" d="M735.7,695.6l2.2,3.7v2c0,0,3.1,0.7,5.3,0.7
			c2.4,0,5.3-0.7,5.3-0.7v-2l3-4.8L735.7,695.6z"/>
		<rect x="728.1" y="621.5" fill="#3C4855" stroke="#FFFFFF" stroke-miterlimit="10" width="52.6" height="72"/>
		<path fill="#3C4855" stroke="#FFFFFF" stroke-miterlimit="10" d="M781.6,693c0-0.6-0.5-1.1-1.1-1.1h-52.4c-0.6,0-1.1,0.5-1.1,1.1
			v2.6c0,0.6,0.5,1.1,1.1,1.1h52.4c0.6,0,1.1-0.5,1.1-1.1V693z"/>
		<path fill="#3C4855" stroke="#FFFFFF" stroke-miterlimit="10" d="M781.6,619.6c0-0.6-0.5-1.1-1.1-1.1h-52.4
			c-0.6,0-1.1,0.5-1.1,1.1v2.6c0,0.6,0.5,1.1,1.1,1.1h52.4c0.6,0,1.1-0.5,1.1-1.1V619.6z"/>
	</g>
	<g>
		<text transform="matrix(1 0 0 1 1258.3921 671.2935)" fill="#FFFFFF" font-family="'Helvetica-Light'" font-size="33.7419">IP AutoSwitch</text>
		<g>
			<g id="XMLID_274_">
				<g>
					<rect x="1213.4" y="600.9" fill="#3C4855" width="11.2" height="14.2"/>
				</g>
				<g>
					<rect x="1213.4" y="600.9" fill="none" stroke="#FFFFFF" stroke-miterlimit="10" width="11.2" height="14.2"/>
				</g>
			</g>
			<g>
				
					<rect x="1213.5" y="602.7" transform="matrix(0.9925 0.1219 -0.1219 0.9925 82.6095 -144.149)" fill="#FFFFFF" width="11.2" height="0.3"/>
			</g>
			<g>
				
					<rect x="1213.5" y="606.1" transform="matrix(0.9925 0.1219 -0.1219 0.9925 83.0239 -144.1237)" fill="#FFFFFF" width="11.2" height="0.3"/>
			</g>
			<g>
				
					<rect x="1213.5" y="609.5" transform="matrix(0.9925 0.1219 -0.1219 0.9925 83.4383 -144.0983)" fill="#FFFFFF" width="11.2" height="0.3"/>
			</g>
			<g>
				
					<rect x="1213.5" y="612.9" transform="matrix(0.9925 0.1219 -0.1219 0.9925 83.8528 -144.0729)" fill="#FFFFFF" width="11.2" height="0.3"/>
			</g>
			<g>
				
					<rect x="1212.8" y="601.1" transform="matrix(0.9997 2.517704e-02 -2.517704e-02 0.9997 15.525 -30.5009)" fill="#FFFFFF" width="12.5" height="0.3"/>
			</g>
			<path fill="#3C4855" stroke="#FFFFFF" stroke-miterlimit="10" d="M1228,621c1,0,1.7-0.8,1.7-1.7v-2.6c0-1-0.8-1.7-1.7-1.7h-18.1
				c-1,0-1.7,0.8-1.7,1.7v2.6c0,1,0.8,1.7,1.7,1.7H1228z"/>
		</g>
		<g>
			<g id="XMLID_273_">
				<g>
					<rect x="1213.4" y="700.5" fill="#3C4855" width="11.2" height="14.2"/>
				</g>
				<g>
					<rect x="1213.4" y="700.5" fill="none" stroke="#FFFFFF" stroke-miterlimit="10" width="11.2" height="14.2"/>
				</g>
			</g>
			<g>
				
					<rect x="1213.5" y="712.5" transform="matrix(0.9925 -0.1219 0.1219 0.9925 -77.8003 153.9654)" fill="#FFFFFF" width="11.2" height="0.3"/>
			</g>
			<g>
				
					<rect x="1213.5" y="709.1" transform="matrix(0.9925 -0.1219 0.1219 0.9925 -77.3858 153.94)" fill="#FFFFFF" width="11.2" height="0.3"/>
			</g>
			<g>
				
					<rect x="1213.5" y="705.7" transform="matrix(0.9925 -0.1219 0.1219 0.9925 -76.9714 153.9147)" fill="#FFFFFF" width="11.2" height="0.3"/>
			</g>
			<g>
				
					<rect x="1213.5" y="702.3" transform="matrix(0.9925 -0.1219 0.1219 0.9925 -76.557 153.8893)" fill="#FFFFFF" width="11.2" height="0.3"/>
			</g>
			<g>
				
					<rect x="1212.8" y="714.1" transform="matrix(0.9997 -2.517704e-02 2.517704e-02 0.9997 -17.5965 30.9179)" fill="#FFFFFF" width="12.5" height="0.3"/>
			</g>
			<path fill="#3C4855" stroke="#FFFFFF" stroke-miterlimit="10" d="M1228,694.5c1,0,1.7,0.8,1.7,1.7v2.6c0,1-0.8,1.7-1.7,1.7h-18.1
				c-1,0-1.7-0.8-1.7-1.7v-2.6c0-1,0.8-1.7,1.7-1.7H1228z"/>
		</g>
		<path fill="#3C4855" stroke="#FFFFFF" stroke-miterlimit="10" d="M1191.4,695.6l2.2,3.7v2c0,0,3.1,0.7,5.3,0.7
			c2.4,0,5.3-0.7,5.3-0.7v-2l3-4.8L1191.4,695.6z"/>
		<rect x="1183.7" y="621.5" fill="#3C4855" stroke="#FFFFFF" stroke-miterlimit="10" width="52.6" height="72"/>
		<path fill="#3C4855" stroke="#FFFFFF" stroke-miterlimit="10" d="M1237.3,693c0-0.6-0.5-1.1-1.1-1.1h-52.4c-0.6,0-1.1,0.5-1.1,1.1
			v2.6c0,0.6,0.5,1.1,1.1,1.1h52.4c0.6,0,1.1-0.5,1.1-1.1V693z"/>
		<path fill="#3C4855" stroke="#FFFFFF" stroke-miterlimit="10" d="M1237.3,619.6c0-0.6-0.5-1.1-1.1-1.1h-52.4
			c-0.6,0-1.1,0.5-1.1,1.1v2.6c0,0.6,0.5,1.1,1.1,1.1h52.4c0.6,0,1.1-0.5,1.1-1.1V619.6z"/>
	</g>
	<g>
		<g>
			<path fill="#808080" d="M1292.6,394.8h225.1c1.7-9.9,4.8-29.2,4.8-36.9c0-10.5-1.9-45.5-1.9-45.5h-228.3h-3.3h-228.3
				c0,0-1.9,35-1.9,45.5c0,7.7,3.1,27,4.8,36.9h225.1H1292.6z"/>
			<path fill="#FFFFFF" d="M1517.8,395.1h-454c-0.2,0-0.3-0.1-0.3-0.3c-3.1-18.6-4.8-31.4-4.8-37c0-10.4,1.9-45.2,1.9-45.5
				c0-0.2,0.2-0.3,0.3-0.3h459.8c0.2,0,0.3,0.1,0.3,0.3c0,0.4,1.9,35.1,1.9,45.5c0,5.6-1.7,18.3-4.8,37
				C1518.1,395,1517.9,395.1,1517.8,395.1z M1064.1,394.4h453.4c3.1-18.4,4.7-31.1,4.7-36.6c0-9.8-1.7-41.6-1.9-45.2h-459.1
				c-0.2,3.6-1.9,35.3-1.9,45.2C1059.3,363.3,1061,376,1064.1,394.4z"/>
		</g>
		<g>
			<path fill="#3C4855" d="M1136.4,313.1c0,0,27.8,64.8,31.8,71h247c0,0,24.5-49.9,32.3-71.3L1136.4,313.1z"/>
			<path fill="#FFFFFF" d="M1415.6,384.8h-247.8l-0.2-0.3c-4-6.2-30.7-68.5-31.8-71.1l-0.4-1l313-0.2l-0.3,0.9
				c-7.7,21.1-32.1,70.8-32.3,71.3L1415.6,384.8z M1168.6,383.4h246.2c2.3-4.6,24.1-49.4,31.7-69.9l-309,0.2
				C1140.9,321.7,1164.3,376.2,1168.6,383.4z"/>
		</g>
		<g>
			<g>
				<path fill="#FFFFFF" d="M1213.6,350.8v14.7h-3.1v-32.4h12.7c3.6,0,6.3,0.7,8.2,2c1.9,1.3,2.8,3.5,2.8,6.5c0,2-0.4,3.7-1.2,4.9
					c-0.8,1.2-2.2,2.2-4,3.1c1,0.3,1.7,0.8,2.2,1.4c0.5,0.6,0.9,1.4,1.2,2.2c0.3,0.8,0.4,1.7,0.5,2.6c0.1,0.9,0.1,1.8,0.2,2.6
					c0,1.2,0.1,2.2,0.2,3.1c0.1,0.8,0.2,1.5,0.3,2c0.1,0.5,0.2,0.9,0.4,1.2c0.2,0.3,0.3,0.5,0.5,0.7v0.3h-3.4
					c-0.3-0.5-0.6-1.3-0.7-2.2c-0.1-1-0.2-2-0.3-3c-0.1-1-0.1-2.1-0.2-3.1c0-1-0.1-1.8-0.2-2.4c-0.2-0.9-0.5-1.6-0.9-2.1
					c-0.4-0.5-0.9-0.9-1.5-1.2c-0.6-0.3-1.2-0.5-1.9-0.5c-0.7-0.1-1.4-0.1-2.2-0.1H1213.6z M1223.2,348.2c1.1,0,2.2-0.1,3.2-0.4
					c1-0.2,1.8-0.6,2.5-1.1c0.7-0.5,1.3-1.2,1.7-2c0.4-0.8,0.6-1.8,0.6-2.9c0-1.2-0.2-2.2-0.7-3c-0.4-0.8-1-1.4-1.8-1.8
					c-0.7-0.5-1.6-0.8-2.5-0.9c-0.9-0.2-1.9-0.3-2.9-0.3h-9.7v12.5H1223.2z"/>
			</g>
			<g>
				<path fill="#FFFFFF" d="M1241.9,354.5c0,1.3,0.2,2.5,0.5,3.6s0.8,2.1,1.5,2.9c0.6,0.8,1.5,1.5,2.5,2c1,0.5,2.1,0.7,3.4,0.7
					c1.8,0,3.3-0.5,4.5-1.4c1.3-0.9,2.1-2.2,2.5-4h3c-0.3,1.1-0.8,2.1-1.3,3.1c-0.5,0.9-1.2,1.8-2,2.5c-0.8,0.7-1.8,1.3-2.9,1.6
					c-1.1,0.4-2.4,0.6-3.9,0.6c-1.9,0-3.5-0.3-4.8-0.9c-1.3-0.6-2.5-1.5-3.3-2.6c-0.9-1.1-1.5-2.4-1.9-3.9c-0.4-1.5-0.6-3.1-0.6-4.8
					s0.2-3.3,0.7-4.8c0.5-1.5,1.2-2.8,2.1-3.9c0.9-1.1,2-2,3.4-2.7c1.3-0.6,2.8-1,4.5-1c3.2,0,5.7,1.1,7.6,3.3
					c1.8,2.2,2.7,5.4,2.7,9.6H1241.9z M1257.1,352.3c0-1.1-0.2-2.2-0.5-3.2c-0.3-1-0.8-1.9-1.4-2.6c-0.6-0.7-1.4-1.3-2.3-1.8
					s-2-0.7-3.2-0.7s-2.3,0.2-3.2,0.7c-0.9,0.5-1.7,1.1-2.3,1.8c-0.6,0.8-1.2,1.6-1.6,2.6c-0.4,1-0.6,2-0.8,3.1H1257.1z"/>
			</g>
			<g>
				<path fill="#FFFFFF" d="M1281.7,349.6c-0.5-1.7-1.3-3.1-2.5-4.1c-1.2-1-2.7-1.5-4.5-1.5c-1.4,0-2.6,0.3-3.6,0.9
					c-1,0.6-1.8,1.3-2.4,2.3c-0.6,0.9-1.1,2-1.4,3.2c-0.3,1.2-0.4,2.4-0.4,3.6c0,1.2,0.1,2.4,0.4,3.6c0.3,1.2,0.7,2.2,1.4,3.1
					c0.6,0.9,1.4,1.7,2.4,2.2c1,0.6,2.2,0.8,3.6,0.8c2,0,3.6-0.6,4.8-1.7c1.2-1.1,2-2.6,2.3-4.6h2.9c-0.2,1.3-0.6,2.5-1.1,3.5
					c-0.5,1.1-1.2,2-2,2.7c-0.8,0.8-1.8,1.4-2.9,1.8c-1.1,0.4-2.4,0.6-3.9,0.6c-1.9,0-3.5-0.3-4.8-0.9c-1.3-0.6-2.5-1.5-3.3-2.6
					c-0.9-1.1-1.5-2.4-1.9-3.9c-0.4-1.5-0.6-3.1-0.6-4.8c0-1.6,0.2-3.2,0.7-4.7c0.5-1.5,1.1-2.8,2-3.9c0.9-1.1,2-2,3.4-2.7
					c1.3-0.7,2.9-1,4.6-1c2.7,0,4.9,0.6,6.5,1.9c1.7,1.3,2.7,3.3,3.1,6H1281.7z"/>
			</g>
			<g>
				<path fill="#FFFFFF" d="M1291.9,354.5c0,1.3,0.2,2.5,0.5,3.6c0.3,1.1,0.8,2.1,1.5,2.9c0.6,0.8,1.5,1.5,2.5,2
					c1,0.5,2.1,0.7,3.4,0.7c1.8,0,3.3-0.5,4.5-1.4c1.3-0.9,2.1-2.2,2.5-4h3c-0.3,1.1-0.8,2.1-1.3,3.1c-0.5,0.9-1.2,1.8-2,2.5
					c-0.8,0.7-1.8,1.3-2.9,1.6c-1.1,0.4-2.4,0.6-3.9,0.6c-1.9,0-3.5-0.3-4.8-0.9c-1.3-0.6-2.5-1.5-3.3-2.6c-0.9-1.1-1.5-2.4-1.9-3.9
					c-0.4-1.5-0.6-3.1-0.6-4.8s0.2-3.3,0.7-4.8c0.5-1.5,1.2-2.8,2.1-3.9c0.9-1.1,2-2,3.4-2.7c1.3-0.6,2.8-1,4.5-1
					c3.2,0,5.7,1.1,7.6,3.3c1.8,2.2,2.7,5.4,2.7,9.6H1291.9z M1307.1,352.3c0-1.1-0.2-2.2-0.5-3.2c-0.3-1-0.8-1.9-1.4-2.6
					c-0.6-0.7-1.4-1.3-2.3-1.8s-2-0.7-3.2-0.7s-2.3,0.2-3.2,0.7c-0.9,0.5-1.7,1.1-2.3,1.8c-0.6,0.8-1.2,1.6-1.6,2.6
					c-0.4,1-0.6,2-0.8,3.1H1307.1z"/>
			</g>
			<g>
				<path fill="#FFFFFF" d="M1315.5,337.1v-4h3v4H1315.5z M1315.7,365.5v-23.3h2.7v23.3H1315.7z"/>
			</g>
			<g>
				<path fill="#FFFFFF" d="M1322.8,342.2h2.9l7.6,20l7.6-20h2.9l-9,23.3h-3L1322.8,342.2z"/>
			</g>
			<g>
				<path fill="#FFFFFF" d="M1349.4,354.5c0,1.3,0.2,2.5,0.5,3.6c0.3,1.1,0.8,2.1,1.5,2.9c0.6,0.8,1.5,1.5,2.5,2
					c1,0.5,2.1,0.7,3.4,0.7c1.8,0,3.3-0.5,4.5-1.4c1.3-0.9,2.1-2.2,2.5-4h3c-0.3,1.1-0.8,2.1-1.3,3.1c-0.5,0.9-1.2,1.8-2,2.5
					c-0.8,0.7-1.8,1.3-2.9,1.6c-1.1,0.4-2.4,0.6-3.9,0.6c-1.9,0-3.5-0.3-4.8-0.9c-1.3-0.6-2.5-1.5-3.3-2.6c-0.9-1.1-1.5-2.4-1.9-3.9
					c-0.4-1.5-0.6-3.1-0.6-4.8s0.2-3.3,0.7-4.8c0.5-1.5,1.2-2.8,2.1-3.9c0.9-1.1,2-2,3.4-2.7c1.3-0.6,2.8-1,4.5-1
					c3.2,0,5.7,1.1,7.6,3.3c1.8,2.2,2.7,5.4,2.7,9.6H1349.4z M1364.6,352.3c0-1.1-0.2-2.2-0.5-3.2c-0.3-1-0.8-1.9-1.4-2.6
					c-0.6-0.7-1.4-1.3-2.3-1.8s-2-0.7-3.2-0.7c-1.2,0-2.3,0.2-3.2,0.7c-0.9,0.5-1.7,1.1-2.3,1.8c-0.6,0.8-1.2,1.6-1.6,2.6
					c-0.4,1-0.6,2-0.8,3.1H1364.6z"/>
			</g>
			<g>
				<path fill="#FFFFFF" d="M1375.6,365.5h-2.7v-23.3h2.7v4.4h0.1c0.7-1.9,1.7-3.2,2.9-3.9c1.2-0.7,2.8-1.1,4.7-1.1v2.9
					c-1.5,0-2.8,0.2-3.8,0.7c-1,0.5-1.8,1.2-2.4,2.1c-0.6,0.9-1,1.9-1.2,3.1c-0.2,1.2-0.3,2.4-0.3,3.7V365.5z"/>
			</g>
		</g>
		<g>
			<path fill="#231F20" d="M1400.6,395.3h-263.7c-0.2,0-0.3-0.2-0.3-0.3c0-0.2,0.2-0.3,0.3-0.3h263.7c0.2,0,0.3,0.2,0.3,0.3
				C1401,395.2,1400.8,395.3,1400.6,395.3z"/>
		</g>
		<g>
			<path fill="#3C4855" d="M1465,356.7c0,2.5-2.7,4.6-6,4.6c-3.3,0-6-2-6-4.6c0-2.5,2.7-4.5,6-4.5
				C1462.3,352.2,1465,354.2,1465,356.7z"/>
			<path fill="#FFFFFF" d="M1459,362c-3.7,0-6.6-2.4-6.6-5.2c0-2.9,3-5.2,6.6-5.2c3.7,0,6.7,2.3,6.7,5.2
				C1465.7,359.6,1462.7,362,1459,362z M1459,352.9c-2.9,0-5.3,1.7-5.3,3.9c0,2.1,2.4,3.9,5.3,3.9c2.9,0,5.3-1.7,5.3-3.9
				C1464.3,354.6,1462,352.9,1459,352.9z"/>
		</g>
		<g>
			<path fill="#3C4855" d="M1495.2,356.7c0-2.5,2.7-4.5,6-4.5c3.3,0,6,2,6,4.5c0,2.5-2.7,4.6-6,4.6
				C1497.8,361.3,1495.2,359.3,1495.2,356.7z"/>
			<path fill="#FFFFFF" d="M1501.1,362c-3.7,0-6.7-2.4-6.7-5.2c0-2.9,3-5.2,6.7-5.2c3.7,0,6.6,2.3,6.6,5.2
				C1507.8,359.6,1504.8,362,1501.1,362z M1501.1,352.9c-2.9,0-5.3,1.7-5.3,3.9c0,2.1,2.4,3.9,5.3,3.9c2.9,0,5.3-1.7,5.3-3.9
				C1506.4,354.6,1504,352.9,1501.1,352.9z"/>
		</g>
		<g>
			<path fill="#3C4855" d="M1481.1,346.1c-2.5,0-4.5-2.7-4.5-6c0-3.3,2-6,4.5-6c2.5,0,4.5,2.7,4.5,6
				C1485.7,343.5,1483.6,346.1,1481.1,346.1z"/>
			<path fill="#FFFFFF" d="M1481.2,346.8c-2.9,0-5.2-3-5.2-6.7c0-3.7,2.3-6.7,5.2-6.7c2.9,0,5.2,3,5.2,6.7
				C1486.4,343.8,1484,346.8,1481.2,346.8z M1481.2,334.9c-2.1,0-3.9,2.4-3.9,5.3c0,2.9,1.7,5.3,3.9,5.3c2.1,0,3.9-2.4,3.9-5.3
				C1485,337.2,1483.3,334.9,1481.2,334.9z"/>
		</g>
		<g>
			<path fill="#3C4855" d="M1480.2,368.3c2.5,0,4.5,2.7,4.5,6c0,3.3-2,6-4.5,6c-2.5,0-4.5-2.7-4.5-6
				C1475.7,371,1477.7,368.3,1480.2,368.3z"/>
			<path fill="#FFFFFF" d="M1480.2,380.9c-2.9,0-5.2-3-5.2-6.7c0-3.7,2.3-6.7,5.2-6.7c2.9,0,5.2,3,5.2,6.7
				C1485.4,377.9,1483.1,380.9,1480.2,380.9z M1480.2,368.9c-2.1,0-3.9,2.4-3.9,5.3c0,2.9,1.7,5.3,3.9,5.3c2.1,0,3.9-2.4,3.9-5.3
				C1484.1,371.3,1482.3,368.9,1480.2,368.9z"/>
		</g>
		<g>
			<path fill="#3C4855" d="M1486.9,357.6c0,3.6-2.9,6.5-6.5,6.5c-3.6,0-6.5-2.9-6.5-6.5c0-3.6,2.9-6.5,6.5-6.5
				C1484,351.1,1486.9,354,1486.9,357.6z"/>
			<path fill="#FFFFFF" d="M1480.4,364.7c-3.9,0-7.1-3.2-7.1-7.1c0-3.9,3.2-7.1,7.1-7.1c3.9,0,7.1,3.2,7.1,7.1
				C1487.5,361.5,1484.3,364.7,1480.4,364.7z M1480.4,351.8c-3.2,0-5.8,2.6-5.8,5.8c0,3.2,2.6,5.8,5.8,5.8c3.2,0,5.8-2.6,5.8-5.8
				C1486.2,354.4,1483.6,351.8,1480.4,351.8z"/>
		</g>
		<g>
			<path fill="#FFFFFF" d="M1520.6,396.8h-457.4l-0.3-1.7c-3.2-19-4.8-31.5-4.8-37.2c0-10.4,1.8-44.2,1.9-45.6l0.1-1.9h463.7
				l0.1,1.9c0.1,1.4,1.9,35.2,1.9,45.6c0,5.7-1.6,18.3-4.8,37.2L1520.6,396.8z M1066.7,392.7h450.5c2.9-17.6,4.5-29.6,4.5-34.9
				c0-8.9-1.4-36-1.8-43.5H1064c-0.4,7.5-1.8,34.5-1.8,43.5C1062.2,363.1,1063.8,375.2,1066.7,392.7z"/>
		</g>
		<g>
			<path fill="#3C4855" d="M1078.9,370.9c0-1.6,1.8-3,3.9-3h52.5c2.2,0,3.9,1.3,3.9,3v10.2c0,1.6-1.8,3-3.9,3h-52.5
				c-2.2,0-3.9-1.3-3.9-3V370.9z"/>
			<path fill="#FFFFFF" d="M1135.3,384.8h-52.5c-2.5,0-4.6-1.6-4.6-3.7v-10.2c0-2,2.1-3.7,4.6-3.7h52.5c2.5,0,4.6,1.6,4.6,3.7v10.2
				C1139.9,383.1,1137.8,384.8,1135.3,384.8z M1082.8,368.6c-1.8,0-3.3,1-3.3,2.3v10.2c0,1.3,1.5,2.3,3.3,2.3h52.5
				c1.8,0,3.3-1,3.3-2.3v-10.2c0-1.3-1.5-2.3-3.3-2.3H1082.8z"/>
		</g>
	</g>
	<g>
		<g>
			<path fill="#808080" d="M1292.6,884.5h225.1c1.7-9.9,4.8-29.2,4.8-36.9c0-10.5-1.9-45.5-1.9-45.5h-228.3h-3.3h-228.3
				c0,0-1.9,35-1.9,45.5c0,7.7,3.1,27,4.8,36.9h225.1H1292.6z"/>
			<path fill="#FFFFFF" d="M1517.8,884.8h-454c-0.2,0-0.3-0.1-0.3-0.3c-3.1-18.6-4.8-31.4-4.8-37c0-10.4,1.9-45.2,1.9-45.5
				c0-0.2,0.2-0.3,0.3-0.3h459.8c0.2,0,0.3,0.1,0.3,0.3c0,0.4,1.9,35.1,1.9,45.5c0,5.6-1.7,18.3-4.8,37
				C1518.1,884.7,1517.9,884.8,1517.8,884.8z M1064.1,884.2h453.4c3.1-18.4,4.7-31.1,4.7-36.6c0-9.8-1.7-41.6-1.9-45.2h-459.1
				c-0.2,3.6-1.9,35.3-1.9,45.2C1059.3,853.1,1061,865.7,1064.1,884.2z"/>
		</g>
		<g>
			<path fill="#3C4855" d="M1136.4,802.8c0,0,27.8,64.8,31.8,71h247c0,0,24.5-49.9,32.3-71.3L1136.4,802.8z"/>
			<path fill="#FFFFFF" d="M1415.6,874.5h-247.8l-0.2-0.3c-4-6.2-30.7-68.5-31.8-71.1l-0.4-1l313-0.2l-0.3,0.9
				c-7.7,21.1-32.1,70.8-32.3,71.3L1415.6,874.5z M1168.6,873.1h246.2c2.3-4.6,24.1-49.4,31.7-69.9l-309,0.2
				C1140.9,811.4,1164.3,865.9,1168.6,873.1z"/>
		</g>
		<g>
			<g>
				<path fill="#FFFFFF" d="M1213.6,840.6v14.7h-3.1v-32.4h12.7c3.6,0,6.3,0.7,8.2,2c1.9,1.3,2.8,3.5,2.8,6.5c0,2-0.4,3.7-1.2,4.9
					c-0.8,1.2-2.2,2.2-4,3.1c1,0.3,1.7,0.8,2.2,1.4c0.5,0.6,0.9,1.4,1.2,2.2c0.3,0.8,0.4,1.7,0.5,2.6c0.1,0.9,0.1,1.8,0.2,2.6
					c0,1.2,0.1,2.2,0.2,3.1c0.1,0.8,0.2,1.5,0.3,2c0.1,0.5,0.2,0.9,0.4,1.2c0.2,0.3,0.3,0.5,0.5,0.7v0.3h-3.4
					c-0.3-0.5-0.6-1.3-0.7-2.2c-0.1-1-0.2-2-0.3-3c-0.1-1-0.1-2.1-0.2-3.1c0-1-0.1-1.8-0.2-2.4c-0.2-0.9-0.5-1.6-0.9-2.1
					c-0.4-0.5-0.9-0.9-1.5-1.2c-0.6-0.3-1.2-0.5-1.9-0.5c-0.7-0.1-1.4-0.1-2.2-0.1H1213.6z M1223.2,838c1.1,0,2.2-0.1,3.2-0.4
					c1-0.2,1.8-0.6,2.5-1.1c0.7-0.5,1.3-1.2,1.7-2c0.4-0.8,0.6-1.8,0.6-2.9c0-1.2-0.2-2.2-0.7-3c-0.4-0.8-1-1.4-1.8-1.8
					c-0.7-0.5-1.6-0.8-2.5-0.9s-1.9-0.3-2.9-0.3h-9.7V838H1223.2z"/>
			</g>
			<g>
				<path fill="#FFFFFF" d="M1241.9,844.3c0,1.3,0.2,2.5,0.5,3.6s0.8,2.1,1.5,2.9c0.6,0.8,1.5,1.5,2.5,2c1,0.5,2.1,0.7,3.4,0.7
					c1.8,0,3.3-0.5,4.5-1.4c1.3-0.9,2.1-2.2,2.5-4h3c-0.3,1.1-0.8,2.1-1.3,3.1c-0.5,0.9-1.2,1.8-2,2.5c-0.8,0.7-1.8,1.3-2.9,1.6
					c-1.1,0.4-2.4,0.6-3.9,0.6c-1.9,0-3.5-0.3-4.8-0.9c-1.3-0.6-2.5-1.5-3.3-2.6c-0.9-1.1-1.5-2.4-1.9-3.9c-0.4-1.5-0.6-3.1-0.6-4.8
					c0-1.7,0.2-3.3,0.7-4.8c0.5-1.5,1.2-2.8,2.1-3.9c0.9-1.1,2-2,3.4-2.7c1.3-0.6,2.8-1,4.5-1c3.2,0,5.7,1.1,7.6,3.3
					c1.8,2.2,2.7,5.4,2.7,9.6H1241.9z M1257.1,842c0-1.1-0.2-2.2-0.5-3.2c-0.3-1-0.8-1.9-1.4-2.6c-0.6-0.7-1.4-1.3-2.3-1.8
					s-2-0.7-3.2-0.7s-2.3,0.2-3.2,0.7c-0.9,0.5-1.7,1.1-2.3,1.8c-0.6,0.8-1.2,1.6-1.6,2.6c-0.4,1-0.6,2-0.8,3.1H1257.1z"/>
			</g>
			<g>
				<path fill="#FFFFFF" d="M1281.7,839.3c-0.5-1.7-1.3-3.1-2.5-4.1c-1.2-1-2.7-1.5-4.5-1.5c-1.4,0-2.6,0.3-3.6,0.9
					c-1,0.6-1.8,1.3-2.4,2.3c-0.6,0.9-1.1,2-1.4,3.2c-0.3,1.2-0.4,2.4-0.4,3.6c0,1.2,0.1,2.4,0.4,3.6c0.3,1.2,0.7,2.2,1.4,3.1
					c0.6,0.9,1.4,1.7,2.4,2.2c1,0.6,2.2,0.8,3.6,0.8c2,0,3.6-0.6,4.8-1.7c1.2-1.1,2-2.6,2.3-4.6h2.9c-0.2,1.3-0.6,2.5-1.1,3.5
					c-0.5,1.1-1.2,2-2,2.7c-0.8,0.8-1.8,1.4-2.9,1.8c-1.1,0.4-2.4,0.6-3.9,0.6c-1.9,0-3.5-0.3-4.8-0.9c-1.3-0.6-2.5-1.5-3.3-2.6
					c-0.9-1.1-1.5-2.4-1.9-3.9c-0.4-1.5-0.6-3.1-0.6-4.8c0-1.6,0.2-3.2,0.7-4.7c0.5-1.5,1.1-2.8,2-3.9c0.9-1.1,2-2,3.4-2.7
					c1.3-0.7,2.9-1,4.6-1c2.7,0,4.9,0.6,6.5,1.9c1.7,1.3,2.7,3.3,3.1,6H1281.7z"/>
			</g>
			<g>
				<path fill="#FFFFFF" d="M1291.9,844.3c0,1.3,0.2,2.5,0.5,3.6c0.3,1.1,0.8,2.1,1.5,2.9c0.6,0.8,1.5,1.5,2.5,2
					c1,0.5,2.1,0.7,3.4,0.7c1.8,0,3.3-0.5,4.5-1.4c1.3-0.9,2.1-2.2,2.5-4h3c-0.3,1.1-0.8,2.1-1.3,3.1c-0.5,0.9-1.2,1.8-2,2.5
					c-0.8,0.7-1.8,1.3-2.9,1.6c-1.1,0.4-2.4,0.6-3.9,0.6c-1.9,0-3.5-0.3-4.8-0.9c-1.3-0.6-2.5-1.5-3.3-2.6c-0.9-1.1-1.5-2.4-1.9-3.9
					c-0.4-1.5-0.6-3.1-0.6-4.8c0-1.7,0.2-3.3,0.7-4.8c0.5-1.5,1.2-2.8,2.1-3.9c0.9-1.1,2-2,3.4-2.7c1.3-0.6,2.8-1,4.5-1
					c3.2,0,5.7,1.1,7.6,3.3c1.8,2.2,2.7,5.4,2.7,9.6H1291.9z M1307.1,842c0-1.1-0.2-2.2-0.5-3.2c-0.3-1-0.8-1.9-1.4-2.6
					c-0.6-0.7-1.4-1.3-2.3-1.8s-2-0.7-3.2-0.7s-2.3,0.2-3.2,0.7c-0.9,0.5-1.7,1.1-2.3,1.8c-0.6,0.8-1.2,1.6-1.6,2.6
					c-0.4,1-0.6,2-0.8,3.1H1307.1z"/>
			</g>
			<g>
				<path fill="#FFFFFF" d="M1315.5,826.9v-4h3v4H1315.5z M1315.7,855.3V832h2.7v23.3H1315.7z"/>
			</g>
			<g>
				<path fill="#FFFFFF" d="M1322.8,832h2.9l7.6,20l7.6-20h2.9l-9,23.3h-3L1322.8,832z"/>
			</g>
			<g>
				<path fill="#FFFFFF" d="M1349.4,844.3c0,1.3,0.2,2.5,0.5,3.6c0.3,1.1,0.8,2.1,1.5,2.9c0.6,0.8,1.5,1.5,2.5,2
					c1,0.5,2.1,0.7,3.4,0.7c1.8,0,3.3-0.5,4.5-1.4c1.3-0.9,2.1-2.2,2.5-4h3c-0.3,1.1-0.8,2.1-1.3,3.1c-0.5,0.9-1.2,1.8-2,2.5
					c-0.8,0.7-1.8,1.3-2.9,1.6c-1.1,0.4-2.4,0.6-3.9,0.6c-1.9,0-3.5-0.3-4.8-0.9c-1.3-0.6-2.5-1.5-3.3-2.6c-0.9-1.1-1.5-2.4-1.9-3.9
					c-0.4-1.5-0.6-3.1-0.6-4.8c0-1.7,0.2-3.3,0.7-4.8c0.5-1.5,1.2-2.8,2.1-3.9c0.9-1.1,2-2,3.4-2.7c1.3-0.6,2.8-1,4.5-1
					c3.2,0,5.7,1.1,7.6,3.3c1.8,2.2,2.7,5.4,2.7,9.6H1349.4z M1364.6,842c0-1.1-0.2-2.2-0.5-3.2c-0.3-1-0.8-1.9-1.4-2.6
					c-0.6-0.7-1.4-1.3-2.3-1.8s-2-0.7-3.2-0.7c-1.2,0-2.3,0.2-3.2,0.7c-0.9,0.5-1.7,1.1-2.3,1.8c-0.6,0.8-1.2,1.6-1.6,2.6
					c-0.4,1-0.6,2-0.8,3.1H1364.6z"/>
			</g>
			<g>
				<path fill="#FFFFFF" d="M1375.6,855.3h-2.7V832h2.7v4.4h0.1c0.7-1.9,1.7-3.2,2.9-3.9c1.2-0.7,2.8-1.1,4.7-1.1v2.9
					c-1.5,0-2.8,0.2-3.8,0.7c-1,0.5-1.8,1.2-2.4,2.1c-0.6,0.9-1,1.9-1.2,3.1c-0.2,1.2-0.3,2.4-0.3,3.7V855.3z"/>
			</g>
		</g>
		<g>
			<path fill="#231F20" d="M1400.6,885.1h-263.7c-0.2,0-0.3-0.2-0.3-0.3c0-0.2,0.2-0.3,0.3-0.3h263.7c0.2,0,0.3,0.2,0.3,0.3
				C1401,884.9,1400.8,885.1,1400.6,885.1z"/>
		</g>
		<g>
			<path fill="#3C4855" d="M1465,846.5c0,2.5-2.7,4.6-6,4.6c-3.3,0-6-2-6-4.6c0-2.5,2.7-4.5,6-4.5C1462.3,841.9,1465,844,1465,846.5
				z"/>
			<path fill="#FFFFFF" d="M1459,851.7c-3.7,0-6.6-2.4-6.6-5.2c0-2.9,3-5.2,6.6-5.2c3.7,0,6.7,2.3,6.7,5.2
				C1465.7,849.4,1462.7,851.7,1459,851.7z M1459,842.6c-2.9,0-5.3,1.7-5.3,3.9c0,2.1,2.4,3.9,5.3,3.9c2.9,0,5.3-1.7,5.3-3.9
				C1464.3,844.3,1462,842.6,1459,842.6z"/>
		</g>
		<g>
			<path fill="#3C4855" d="M1495.2,846.5c0-2.5,2.7-4.5,6-4.5c3.3,0,6,2,6,4.5c0,2.5-2.7,4.6-6,4.6
				C1497.8,851,1495.2,849,1495.2,846.5z"/>
			<path fill="#FFFFFF" d="M1501.1,851.7c-3.7,0-6.7-2.4-6.7-5.2c0-2.9,3-5.2,6.7-5.2c3.7,0,6.6,2.3,6.6,5.2
				C1507.8,849.4,1504.8,851.7,1501.1,851.7z M1501.1,842.6c-2.9,0-5.3,1.7-5.3,3.9c0,2.1,2.4,3.9,5.3,3.9c2.9,0,5.3-1.7,5.3-3.9
				C1506.4,844.3,1504,842.6,1501.1,842.6z"/>
		</g>
		<g>
			<path fill="#3C4855" d="M1481.1,835.9c-2.5,0-4.5-2.7-4.5-6c0-3.3,2-6,4.5-6c2.5,0,4.5,2.7,4.5,6
				C1485.7,833.2,1483.6,835.9,1481.1,835.9z"/>
			<path fill="#FFFFFF" d="M1481.2,836.6c-2.9,0-5.2-3-5.2-6.7c0-3.7,2.3-6.7,5.2-6.7c2.9,0,5.2,3,5.2,6.7
				C1486.4,833.6,1484,836.6,1481.2,836.6z M1481.2,824.6c-2.1,0-3.9,2.4-3.9,5.3c0,2.9,1.7,5.3,3.9,5.3c2.1,0,3.9-2.4,3.9-5.3
				C1485,827,1483.3,824.6,1481.2,824.6z"/>
		</g>
		<g>
			<path fill="#3C4855" d="M1480.2,858c2.5,0,4.5,2.7,4.5,6c0,3.3-2,6-4.5,6c-2.5,0-4.5-2.7-4.5-6
				C1475.7,860.7,1477.7,858,1480.2,858z"/>
			<path fill="#FFFFFF" d="M1480.2,870.7c-2.9,0-5.2-3-5.2-6.7c0-3.7,2.3-6.7,5.2-6.7c2.9,0,5.2,3,5.2,6.7
				C1485.4,867.7,1483.1,870.7,1480.2,870.7z M1480.2,858.7c-2.1,0-3.9,2.4-3.9,5.3c0,2.9,1.7,5.3,3.9,5.3c2.1,0,3.9-2.4,3.9-5.3
				C1484.1,861.1,1482.3,858.7,1480.2,858.7z"/>
		</g>
		<g>
			<path fill="#3C4855" d="M1486.9,847.3c0,3.6-2.9,6.5-6.5,6.5c-3.6,0-6.5-2.9-6.5-6.5c0-3.6,2.9-6.5,6.5-6.5
				C1484,840.8,1486.9,843.7,1486.9,847.3z"/>
			<path fill="#FFFFFF" d="M1480.4,854.4c-3.9,0-7.1-3.2-7.1-7.1s3.2-7.1,7.1-7.1c3.9,0,7.1,3.2,7.1,7.1S1484.3,854.4,1480.4,854.4z
				 M1480.4,841.5c-3.2,0-5.8,2.6-5.8,5.8c0,3.2,2.6,5.8,5.8,5.8c3.2,0,5.8-2.6,5.8-5.8C1486.2,844.1,1483.6,841.5,1480.4,841.5z"/>
		</g>
		<g>
			<path fill="#FFFFFF" d="M1520.6,886.6h-457.4l-0.3-1.7c-3.2-19-4.8-31.5-4.8-37.2c0-10.4,1.8-44.2,1.9-45.6l0.1-1.9h463.7
				l0.1,1.9c0.1,1.4,1.9,35.2,1.9,45.6c0,5.7-1.6,18.3-4.8,37.2L1520.6,886.6z M1066.7,882.5h450.5c2.9-17.6,4.5-29.6,4.5-34.9
				c0-8.9-1.4-36-1.8-43.5H1064c-0.4,7.5-1.8,34.5-1.8,43.5C1062.2,852.9,1063.8,864.9,1066.7,882.5z"/>
		</g>
		<g>
			<path fill="#3C4855" d="M1078.9,860.7c0-1.6,1.8-3,3.9-3h52.5c2.2,0,3.9,1.3,3.9,3v10.2c0,1.6-1.8,3-3.9,3h-52.5
				c-2.2,0-3.9-1.3-3.9-3V860.7z"/>
			<path fill="#FFFFFF" d="M1135.3,874.5h-52.5c-2.5,0-4.6-1.6-4.6-3.7v-10.2c0-2,2.1-3.7,4.6-3.7h52.5c2.5,0,4.6,1.6,4.6,3.7v10.2
				C1139.9,872.9,1137.8,874.5,1135.3,874.5z M1082.8,858.4c-1.8,0-3.3,1-3.3,2.3v10.2c0,1.3,1.5,2.3,3.3,2.3h52.5
				c1.8,0,3.3-1,3.3-2.3v-10.2c0-1.3-1.5-2.3-3.3-2.3H1082.8z"/>
		</g>
	</g>
	<g>
		<g>
			<path fill="#808080" d="M761.7,884.5h225.1c1.7-9.9,4.8-29.2,4.8-36.9c0-10.5-1.9-45.5-1.9-45.5H761.5h-3.3H530
				c0,0-1.9,35-1.9,45.5c0,7.7,3.1,27,4.8,36.9H758H761.7z"/>
			<path fill="#FFFFFF" d="M986.8,884.8h-454c-0.2,0-0.3-0.1-0.3-0.3c-3.1-18.6-4.8-31.4-4.8-37c0-10.4,1.9-45.2,1.9-45.5
				c0-0.2,0.2-0.3,0.3-0.3h459.8c0.2,0,0.3,0.1,0.3,0.3c0,0.4,1.9,35.1,1.9,45.5c0,5.6-1.7,18.3-4.8,37
				C987.2,884.7,987,884.8,986.8,884.8z M533.2,884.2h453.4c3.1-18.4,4.7-31.1,4.7-36.6c0-9.8-1.7-41.6-1.9-45.2H530.3
				c-0.2,3.6-1.9,35.3-1.9,45.2C528.4,853.1,530.1,865.7,533.2,884.2z"/>
		</g>
		<g>
			<path fill="#3C4855" d="M605.5,802.8c0,0,27.8,64.8,31.8,71h247c0,0,24.5-49.9,32.3-71.3L605.5,802.8z"/>
			<path fill="#FFFFFF" d="M884.7,874.5H636.9l-0.2-0.3c-4-6.2-30.7-68.5-31.8-71.1l-0.4-1l313-0.2l-0.3,0.9
				c-7.7,21.1-32.1,70.8-32.3,71.3L884.7,874.5z M637.7,873.1h246.2c2.3-4.6,24.1-49.4,31.7-69.9l-309,0.2
				C609.9,811.4,633.4,865.9,637.7,873.1z"/>
		</g>
		<g>
			<g>
				<path fill="#FFFFFF" d="M682.7,840.6v14.7h-3.1v-32.4h12.7c3.6,0,6.3,0.7,8.2,2c1.9,1.3,2.8,3.5,2.8,6.5c0,2-0.4,3.7-1.2,4.9
					c-0.8,1.2-2.2,2.2-4,3.1c1,0.3,1.7,0.8,2.2,1.4c0.5,0.6,0.9,1.4,1.2,2.2c0.3,0.8,0.4,1.7,0.5,2.6c0.1,0.9,0.1,1.8,0.2,2.6
					c0,1.2,0.1,2.2,0.2,3.1c0.1,0.8,0.2,1.5,0.3,2c0.1,0.5,0.2,0.9,0.4,1.2c0.2,0.3,0.3,0.5,0.5,0.7v0.3h-3.4
					c-0.3-0.5-0.6-1.3-0.7-2.2c-0.1-1-0.2-2-0.3-3c-0.1-1-0.1-2.1-0.2-3.1c0-1-0.1-1.8-0.2-2.4c-0.2-0.9-0.5-1.6-0.9-2.1
					c-0.4-0.5-0.9-0.9-1.5-1.2c-0.6-0.3-1.2-0.5-1.9-0.5c-0.7-0.1-1.4-0.1-2.2-0.1H682.7z M692.3,838c1.1,0,2.2-0.1,3.2-0.4
					c1-0.2,1.8-0.6,2.5-1.1c0.7-0.5,1.3-1.2,1.7-2c0.4-0.8,0.6-1.8,0.6-2.9c0-1.2-0.2-2.2-0.7-3c-0.4-0.8-1-1.4-1.8-1.8
					c-0.7-0.5-1.6-0.8-2.5-0.9s-1.9-0.3-2.9-0.3h-9.7V838H692.3z"/>
			</g>
			<g>
				<path fill="#FFFFFF" d="M711,844.3c0,1.3,0.2,2.5,0.5,3.6s0.8,2.1,1.5,2.9c0.6,0.8,1.5,1.5,2.5,2c1,0.5,2.1,0.7,3.4,0.7
					c1.8,0,3.3-0.5,4.5-1.4c1.3-0.9,2.1-2.2,2.5-4h3c-0.3,1.1-0.8,2.1-1.3,3.1c-0.5,0.9-1.2,1.8-2,2.5c-0.8,0.7-1.8,1.3-2.9,1.6
					c-1.1,0.4-2.4,0.6-3.9,0.6c-1.9,0-3.5-0.3-4.8-0.9c-1.3-0.6-2.5-1.5-3.3-2.6c-0.9-1.1-1.5-2.4-1.9-3.9c-0.4-1.5-0.6-3.1-0.6-4.8
					c0-1.7,0.2-3.3,0.7-4.8c0.5-1.5,1.2-2.8,2.1-3.9s2-2,3.4-2.7c1.3-0.6,2.8-1,4.5-1c3.2,0,5.7,1.1,7.6,3.3
					c1.8,2.2,2.7,5.4,2.7,9.6H711z M726.2,842c0-1.1-0.2-2.2-0.5-3.2c-0.3-1-0.8-1.9-1.4-2.6c-0.6-0.7-1.4-1.3-2.3-1.8
					c-0.9-0.4-2-0.7-3.2-0.7c-1.2,0-2.3,0.2-3.2,0.7c-0.9,0.5-1.7,1.1-2.3,1.8c-0.6,0.8-1.2,1.6-1.6,2.6c-0.4,1-0.6,2-0.8,3.1H726.2
					z"/>
			</g>
			<g>
				<path fill="#FFFFFF" d="M750.8,839.3c-0.5-1.7-1.3-3.1-2.5-4.1c-1.2-1-2.7-1.5-4.5-1.5c-1.4,0-2.6,0.3-3.6,0.9
					c-1,0.6-1.8,1.3-2.4,2.3c-0.6,0.9-1.1,2-1.4,3.2c-0.3,1.2-0.5,2.4-0.5,3.6c0,1.2,0.1,2.4,0.4,3.6c0.3,1.2,0.7,2.2,1.4,3.1
					c0.6,0.9,1.4,1.7,2.4,2.2c1,0.6,2.2,0.8,3.6,0.8c2,0,3.6-0.6,4.8-1.7c1.2-1.1,2-2.6,2.3-4.6h2.9c-0.2,1.3-0.6,2.5-1.1,3.5
					c-0.5,1.1-1.2,2-2,2.7c-0.8,0.8-1.8,1.4-2.9,1.8c-1.1,0.4-2.4,0.6-3.9,0.6c-1.9,0-3.5-0.3-4.8-0.9c-1.3-0.6-2.5-1.5-3.3-2.6
					c-0.9-1.1-1.5-2.4-1.9-3.9c-0.4-1.5-0.6-3.1-0.6-4.8c0-1.6,0.2-3.2,0.7-4.7c0.5-1.5,1.1-2.8,2-3.9c0.9-1.1,2-2,3.4-2.7
					c1.3-0.7,2.9-1,4.6-1c2.7,0,4.9,0.6,6.5,1.9c1.7,1.3,2.7,3.3,3.1,6H750.8z"/>
			</g>
			<g>
				<path fill="#FFFFFF" d="M761,844.3c0,1.3,0.2,2.5,0.5,3.6s0.8,2.1,1.5,2.9c0.6,0.8,1.5,1.5,2.5,2c1,0.5,2.1,0.7,3.4,0.7
					c1.8,0,3.3-0.5,4.5-1.4c1.3-0.9,2.1-2.2,2.5-4h3c-0.3,1.1-0.8,2.1-1.3,3.1c-0.5,0.9-1.2,1.8-2,2.5c-0.8,0.7-1.8,1.3-2.9,1.6
					c-1.1,0.4-2.4,0.6-3.9,0.6c-1.9,0-3.5-0.3-4.8-0.9c-1.3-0.6-2.5-1.5-3.3-2.6c-0.9-1.1-1.5-2.4-1.9-3.9c-0.4-1.5-0.6-3.1-0.6-4.8
					c0-1.7,0.2-3.3,0.7-4.8c0.5-1.5,1.2-2.8,2.1-3.9s2-2,3.4-2.7c1.3-0.6,2.8-1,4.5-1c3.2,0,5.7,1.1,7.6,3.3
					c1.8,2.2,2.7,5.4,2.7,9.6H761z M776.2,842c0-1.1-0.2-2.2-0.5-3.2c-0.3-1-0.8-1.9-1.4-2.6c-0.6-0.7-1.4-1.3-2.3-1.8
					s-2-0.7-3.2-0.7c-1.2,0-2.3,0.2-3.2,0.7c-0.9,0.5-1.7,1.1-2.3,1.8c-0.6,0.8-1.2,1.6-1.6,2.6c-0.4,1-0.6,2-0.8,3.1H776.2z"/>
			</g>
			<g>
				<path fill="#FFFFFF" d="M784.6,826.9v-4h3v4H784.6z M784.8,855.3V832h2.7v23.3H784.8z"/>
			</g>
			<g>
				<path fill="#FFFFFF" d="M791.9,832h2.9l7.6,20l7.6-20h2.9l-9,23.3h-3L791.9,832z"/>
			</g>
			<g>
				<path fill="#FFFFFF" d="M818.5,844.3c0,1.3,0.2,2.5,0.5,3.6s0.8,2.1,1.5,2.9c0.6,0.8,1.5,1.5,2.5,2c1,0.5,2.1,0.7,3.4,0.7
					c1.8,0,3.3-0.5,4.5-1.4c1.3-0.9,2.1-2.2,2.5-4h3c-0.3,1.1-0.8,2.1-1.3,3.1c-0.5,0.9-1.2,1.8-2,2.5c-0.8,0.7-1.8,1.3-2.9,1.6
					c-1.1,0.4-2.4,0.6-3.9,0.6c-1.9,0-3.5-0.3-4.8-0.9c-1.3-0.6-2.5-1.5-3.3-2.6c-0.9-1.1-1.5-2.4-1.9-3.9c-0.4-1.5-0.6-3.1-0.6-4.8
					c0-1.7,0.2-3.3,0.7-4.8c0.5-1.5,1.2-2.8,2.1-3.9c0.9-1.1,2-2,3.4-2.7c1.3-0.6,2.8-1,4.5-1c3.2,0,5.7,1.1,7.6,3.3
					c1.8,2.2,2.7,5.4,2.7,9.6H818.5z M833.7,842c0-1.1-0.2-2.2-0.5-3.2c-0.3-1-0.8-1.9-1.4-2.6c-0.6-0.7-1.4-1.3-2.3-1.8
					c-0.9-0.4-2-0.7-3.2-0.7c-1.2,0-2.3,0.2-3.2,0.7c-0.9,0.5-1.7,1.1-2.3,1.8c-0.6,0.8-1.2,1.6-1.6,2.6c-0.4,1-0.6,2-0.8,3.1H833.7
					z"/>
			</g>
			<g>
				<path fill="#FFFFFF" d="M844.7,855.3H842V832h2.7v4.4h0.1c0.7-1.9,1.7-3.2,2.9-3.9c1.2-0.7,2.8-1.1,4.7-1.1v2.9
					c-1.5,0-2.8,0.2-3.8,0.7c-1,0.5-1.8,1.2-2.4,2.1c-0.6,0.9-1,1.9-1.2,3.1c-0.2,1.2-0.3,2.4-0.3,3.7V855.3z"/>
			</g>
		</g>
		<g>
			<path fill="#231F20" d="M869.7,885.1H606c-0.2,0-0.3-0.2-0.3-0.3c0-0.2,0.2-0.3,0.3-0.3h263.7c0.2,0,0.3,0.2,0.3,0.3
				C870.1,884.9,869.9,885.1,869.7,885.1z"/>
		</g>
		<g>
			<path fill="#3C4855" d="M934.1,846.5c0,2.5-2.7,4.6-6,4.6c-3.3,0-6-2-6-4.6c0-2.5,2.7-4.5,6-4.5
				C931.4,841.9,934.1,844,934.1,846.5z"/>
			<path fill="#FFFFFF" d="M928.1,851.7c-3.7,0-6.6-2.4-6.6-5.2c0-2.9,3-5.2,6.6-5.2c3.7,0,6.7,2.3,6.7,5.2
				C934.8,849.4,931.8,851.7,928.1,851.7z M928.1,842.6c-2.9,0-5.3,1.7-5.3,3.9c0,2.1,2.4,3.9,5.3,3.9c2.9,0,5.3-1.7,5.3-3.9
				C933.4,844.3,931,842.6,928.1,842.6z"/>
		</g>
		<g>
			<path fill="#3C4855" d="M964.3,846.5c0-2.5,2.7-4.5,6-4.5c3.3,0,6,2,6,4.5c0,2.5-2.7,4.6-6,4.6C966.9,851,964.3,849,964.3,846.5z
				"/>
			<path fill="#FFFFFF" d="M970.2,851.7c-3.7,0-6.7-2.4-6.7-5.2c0-2.9,3-5.2,6.7-5.2s6.6,2.3,6.6,5.2
				C976.9,849.4,973.9,851.7,970.2,851.7z M970.2,842.6c-2.9,0-5.3,1.7-5.3,3.9c0,2.1,2.4,3.9,5.3,3.9c2.9,0,5.3-1.7,5.3-3.9
				C975.5,844.3,973.1,842.6,970.2,842.6z"/>
		</g>
		<g>
			<path fill="#3C4855" d="M950.2,835.9c-2.5,0-4.5-2.7-4.5-6c0-3.3,2-6,4.5-6c2.5,0,4.5,2.7,4.5,6
				C954.8,833.2,952.7,835.9,950.2,835.9z"/>
			<path fill="#FFFFFF" d="M950.2,836.6c-2.9,0-5.2-3-5.2-6.7c0-3.7,2.3-6.7,5.2-6.7c2.9,0,5.2,3,5.2,6.7
				C955.5,833.6,953.1,836.6,950.2,836.6z M950.2,824.6c-2.1,0-3.9,2.4-3.9,5.3c0,2.9,1.7,5.3,3.9,5.3c2.1,0,3.9-2.4,3.9-5.3
				C954.1,827,952.4,824.6,950.2,824.6z"/>
		</g>
		<g>
			<path fill="#3C4855" d="M949.3,858c2.5,0,4.5,2.7,4.5,6c0,3.3-2,6-4.5,6c-2.5,0-4.5-2.7-4.5-6C944.8,860.7,946.8,858,949.3,858z"
				/>
			<path fill="#FFFFFF" d="M949.3,870.7c-2.9,0-5.2-3-5.2-6.7c0-3.7,2.3-6.7,5.2-6.7c2.9,0,5.2,3,5.2,6.7
				C954.5,867.7,952.2,870.7,949.3,870.7z M949.3,858.7c-2.1,0-3.9,2.4-3.9,5.3c0,2.9,1.7,5.3,3.9,5.3c2.1,0,3.9-2.4,3.9-5.3
				C953.2,861.1,951.4,858.7,949.3,858.7z"/>
		</g>
		<g>
			<path fill="#3C4855" d="M956,847.3c0,3.6-2.9,6.5-6.5,6.5c-3.6,0-6.5-2.9-6.5-6.5c0-3.6,2.9-6.5,6.5-6.5
				C953.1,840.8,956,843.7,956,847.3z"/>
			<path fill="#FFFFFF" d="M949.5,854.4c-3.9,0-7.1-3.2-7.1-7.1s3.2-7.1,7.1-7.1c3.9,0,7.1,3.2,7.1,7.1S953.4,854.4,949.5,854.4z
				 M949.5,841.5c-3.2,0-5.8,2.6-5.8,5.8c0,3.2,2.6,5.8,5.8,5.8c3.2,0,5.8-2.6,5.8-5.8C955.3,844.1,952.7,841.5,949.5,841.5z"/>
		</g>
		<g>
			<path fill="#FFFFFF" d="M989.7,886.6H532.3l-0.3-1.7c-3.2-19-4.8-31.5-4.8-37.2c0-10.4,1.8-44.2,1.9-45.6l0.1-1.9h463.7l0.1,1.9
				c0.1,1.4,1.9,35.2,1.9,45.6c0,5.7-1.6,18.3-4.8,37.2L989.7,886.6z M535.8,882.5h450.5c2.9-17.6,4.5-29.6,4.5-34.9
				c0-8.9-1.4-36-1.8-43.5H533.1c-0.4,7.5-1.8,34.5-1.8,43.5C531.3,852.9,532.8,864.9,535.8,882.5z"/>
		</g>
		<g>
			<path fill="#3C4855" d="M548,860.7c0-1.6,1.8-3,3.9-3h52.5c2.2,0,3.9,1.3,3.9,3v10.2c0,1.6-1.8,3-3.9,3h-52.5
				c-2.2,0-3.9-1.3-3.9-3V860.7z"/>
			<path fill="#FFFFFF" d="M604.4,874.5h-52.5c-2.5,0-4.6-1.6-4.6-3.7v-10.2c0-2,2.1-3.7,4.6-3.7h52.5c2.5,0,4.6,1.6,4.6,3.7v10.2
				C609,872.9,606.9,874.5,604.4,874.5z M551.9,858.4c-1.8,0-3.3,1-3.3,2.3v10.2c0,1.3,1.5,2.3,3.3,2.3h52.5c1.8,0,3.3-1,3.3-2.3
				v-10.2c0-1.3-1.5-2.3-3.3-2.3H551.9z"/>
		</g>
	</g>
	<g>
		<g>
			<path fill="#808080" d="M234.5,884.5h225.1c1.7-9.9,4.8-29.2,4.8-36.9c0-10.5-1.9-45.5-1.9-45.5H234.3H231H2.8
				c0,0-1.9,35-1.9,45.5c0,7.7,3.1,27,4.8,36.9h225.1H234.5z"/>
			<path fill="#FFFFFF" d="M459.6,884.8H5.7c-0.2,0-0.3-0.1-0.3-0.3c-3.1-18.6-4.8-31.4-4.8-37c0-10.4,1.9-45.2,1.9-45.5
				c0-0.2,0.2-0.3,0.3-0.3h459.8c0.2,0,0.3,0.1,0.3,0.3c0,0.4,1.9,35.1,1.9,45.5c0,5.6-1.7,18.3-4.8,37
				C459.9,884.7,459.8,884.8,459.6,884.8z M5.9,884.2h453.4c3.1-18.4,4.7-31.1,4.7-36.6c0-9.8-1.7-41.6-1.9-45.2H3.1
				c-0.2,3.6-1.9,35.3-1.9,45.2C1.2,853.1,2.9,865.7,5.9,884.2z"/>
		</g>
		<g>
			<path fill="#3C4855" d="M78.3,802.8c0,0,27.8,64.8,31.8,71h247c0,0,24.5-49.9,32.3-71.3L78.3,802.8z"/>
			<path fill="#FFFFFF" d="M357.5,874.5H109.7l-0.2-0.3c-4-6.2-30.7-68.5-31.8-71.1l-0.4-1l313-0.2l-0.3,0.9
				c-7.7,21.1-32.1,70.8-32.3,71.3L357.5,874.5z M110.5,873.1h246.2c2.3-4.6,24.1-49.4,31.7-69.9l-309,0.2
				C82.7,811.4,106.2,865.9,110.5,873.1z"/>
		</g>
		<g>
			<g>
				<path fill="#FFFFFF" d="M155.5,840.6v14.7h-3.1v-32.4h12.7c3.6,0,6.3,0.7,8.2,2c1.9,1.3,2.8,3.5,2.8,6.5c0,2-0.4,3.7-1.2,4.9
					c-0.8,1.2-2.2,2.2-4,3.1c1,0.3,1.7,0.8,2.2,1.4c0.5,0.6,0.9,1.4,1.2,2.2c0.3,0.8,0.4,1.7,0.5,2.6c0.1,0.9,0.1,1.8,0.2,2.6
					c0,1.2,0.1,2.2,0.2,3.1c0.1,0.8,0.2,1.5,0.3,2c0.1,0.5,0.2,0.9,0.4,1.2c0.2,0.3,0.3,0.5,0.5,0.7v0.3H173
					c-0.3-0.5-0.6-1.3-0.7-2.2c-0.1-1-0.2-2-0.3-3c-0.1-1-0.1-2.1-0.2-3.1c0-1-0.1-1.8-0.2-2.4c-0.2-0.9-0.5-1.6-0.9-2.1
					c-0.4-0.5-0.9-0.9-1.5-1.2c-0.6-0.3-1.2-0.5-1.9-0.5c-0.7-0.1-1.4-0.1-2.2-0.1H155.5z M165.1,838c1.1,0,2.2-0.1,3.2-0.4
					c1-0.2,1.8-0.6,2.5-1.1c0.7-0.5,1.3-1.2,1.7-2c0.4-0.8,0.6-1.8,0.6-2.9c0-1.2-0.2-2.2-0.7-3c-0.4-0.8-1-1.4-1.8-1.8
					c-0.7-0.5-1.6-0.8-2.5-0.9c-0.9-0.2-1.9-0.3-2.9-0.3h-9.7V838H165.1z"/>
			</g>
			<g>
				<path fill="#FFFFFF" d="M183.8,844.3c0,1.3,0.2,2.5,0.5,3.6c0.3,1.1,0.8,2.1,1.5,2.9c0.6,0.8,1.5,1.5,2.5,2
					c1,0.5,2.1,0.7,3.4,0.7c1.8,0,3.3-0.5,4.5-1.4c1.3-0.9,2.1-2.2,2.5-4h3c-0.3,1.1-0.8,2.1-1.3,3.1c-0.5,0.9-1.2,1.8-2,2.5
					c-0.8,0.7-1.8,1.3-2.9,1.6c-1.1,0.4-2.4,0.6-3.9,0.6c-1.9,0-3.5-0.3-4.8-0.9c-1.3-0.6-2.5-1.5-3.3-2.6c-0.9-1.1-1.5-2.4-1.9-3.9
					c-0.4-1.5-0.6-3.1-0.6-4.8c0-1.7,0.2-3.3,0.7-4.8c0.5-1.5,1.2-2.8,2.1-3.9c0.9-1.1,2-2,3.4-2.7c1.3-0.6,2.8-1,4.5-1
					c3.2,0,5.7,1.1,7.6,3.3c1.8,2.2,2.7,5.4,2.7,9.6H183.8z M199,842c0-1.1-0.2-2.2-0.5-3.2c-0.3-1-0.8-1.9-1.4-2.6
					c-0.6-0.7-1.4-1.3-2.3-1.8c-0.9-0.4-2-0.7-3.2-0.7c-1.2,0-2.3,0.2-3.2,0.7c-0.9,0.5-1.7,1.1-2.3,1.8c-0.6,0.8-1.2,1.6-1.6,2.6
					c-0.4,1-0.6,2-0.8,3.1H199z"/>
			</g>
			<g>
				<path fill="#FFFFFF" d="M223.6,839.3c-0.5-1.7-1.3-3.1-2.5-4.1c-1.2-1-2.7-1.5-4.5-1.5c-1.4,0-2.6,0.3-3.6,0.9
					c-1,0.6-1.8,1.3-2.4,2.3c-0.6,0.9-1.1,2-1.4,3.2c-0.3,1.2-0.5,2.4-0.5,3.6c0,1.2,0.1,2.4,0.4,3.6c0.3,1.2,0.7,2.2,1.4,3.1
					c0.6,0.9,1.4,1.7,2.4,2.2c1,0.6,2.2,0.8,3.6,0.8c2,0,3.6-0.6,4.8-1.7c1.2-1.1,2-2.6,2.3-4.6h2.9c-0.2,1.3-0.6,2.5-1.1,3.5
					c-0.5,1.1-1.2,2-2,2.7c-0.8,0.8-1.8,1.4-2.9,1.8c-1.1,0.4-2.4,0.6-3.9,0.6c-1.9,0-3.5-0.3-4.8-0.9c-1.3-0.6-2.5-1.5-3.3-2.6
					c-0.9-1.1-1.5-2.4-1.9-3.9c-0.4-1.5-0.6-3.1-0.6-4.8c0-1.6,0.2-3.2,0.7-4.7c0.5-1.5,1.1-2.8,2-3.9c0.9-1.1,2-2,3.4-2.7
					c1.3-0.7,2.9-1,4.6-1c2.7,0,4.9,0.6,6.5,1.9c1.7,1.3,2.7,3.3,3.1,6H223.6z"/>
			</g>
			<g>
				<path fill="#FFFFFF" d="M233.8,844.3c0,1.3,0.2,2.5,0.5,3.6c0.3,1.1,0.8,2.1,1.5,2.9c0.6,0.8,1.5,1.5,2.5,2
					c1,0.5,2.1,0.7,3.4,0.7c1.8,0,3.3-0.5,4.5-1.4c1.3-0.9,2.1-2.2,2.5-4h3c-0.3,1.1-0.8,2.1-1.3,3.1c-0.5,0.9-1.2,1.8-2,2.5
					c-0.8,0.7-1.8,1.3-2.9,1.6c-1.1,0.4-2.4,0.6-3.9,0.6c-1.9,0-3.5-0.3-4.8-0.9c-1.3-0.6-2.5-1.5-3.3-2.6c-0.9-1.1-1.5-2.4-1.9-3.9
					c-0.4-1.5-0.6-3.1-0.6-4.8c0-1.7,0.2-3.3,0.7-4.8c0.5-1.5,1.2-2.8,2.1-3.9s2-2,3.4-2.7c1.3-0.6,2.8-1,4.5-1
					c3.2,0,5.7,1.1,7.6,3.3c1.8,2.2,2.7,5.4,2.7,9.6H233.8z M249,842c0-1.1-0.2-2.2-0.5-3.2c-0.3-1-0.8-1.9-1.4-2.6
					c-0.6-0.7-1.4-1.3-2.3-1.8c-0.9-0.4-2-0.7-3.2-0.7c-1.2,0-2.3,0.2-3.2,0.7c-0.9,0.5-1.7,1.1-2.3,1.8c-0.6,0.8-1.2,1.6-1.6,2.6
					c-0.4,1-0.6,2-0.8,3.1H249z"/>
			</g>
			<g>
				<path fill="#FFFFFF" d="M257.4,826.9v-4h3v4H257.4z M257.6,855.3V832h2.7v23.3H257.6z"/>
			</g>
			<g>
				<path fill="#FFFFFF" d="M264.7,832h2.9l7.6,20l7.6-20h2.9l-9,23.3h-3L264.7,832z"/>
			</g>
			<g>
				<path fill="#FFFFFF" d="M291.3,844.3c0,1.3,0.2,2.5,0.5,3.6s0.8,2.1,1.5,2.9c0.6,0.8,1.5,1.5,2.5,2c1,0.5,2.1,0.7,3.4,0.7
					c1.8,0,3.3-0.5,4.5-1.4c1.3-0.9,2.1-2.2,2.5-4h3c-0.3,1.1-0.8,2.1-1.3,3.1c-0.5,0.9-1.2,1.8-2,2.5c-0.8,0.7-1.8,1.3-2.9,1.6
					c-1.1,0.4-2.4,0.6-3.9,0.6c-1.9,0-3.5-0.3-4.8-0.9c-1.3-0.6-2.5-1.5-3.3-2.6c-0.9-1.1-1.5-2.4-1.9-3.9c-0.4-1.5-0.6-3.1-0.6-4.8
					c0-1.7,0.2-3.3,0.7-4.8c0.5-1.5,1.2-2.8,2.1-3.9s2-2,3.4-2.7c1.3-0.6,2.8-1,4.5-1c3.2,0,5.7,1.1,7.6,3.3
					c1.8,2.2,2.7,5.4,2.7,9.6H291.3z M306.5,842c0-1.1-0.2-2.2-0.5-3.2c-0.3-1-0.8-1.9-1.4-2.6c-0.6-0.7-1.4-1.3-2.3-1.8
					c-0.9-0.4-2-0.7-3.2-0.7c-1.2,0-2.3,0.2-3.2,0.7c-0.9,0.5-1.7,1.1-2.3,1.8c-0.6,0.8-1.2,1.6-1.6,2.6c-0.4,1-0.6,2-0.8,3.1H306.5
					z"/>
			</g>
			<g>
				<path fill="#FFFFFF" d="M317.5,855.3h-2.7V832h2.7v4.4h0.1c0.7-1.9,1.7-3.2,2.9-3.9c1.2-0.7,2.8-1.1,4.7-1.1v2.9
					c-1.5,0-2.8,0.2-3.8,0.7c-1,0.5-1.8,1.2-2.4,2.1c-0.6,0.9-1,1.9-1.2,3.1c-0.2,1.2-0.3,2.4-0.3,3.7V855.3z"/>
			</g>
		</g>
		<g>
			<path fill="#231F20" d="M342.5,885.1H78.8c-0.2,0-0.3-0.2-0.3-0.3c0-0.2,0.2-0.3,0.3-0.3h263.7c0.2,0,0.3,0.2,0.3,0.3
				C342.8,884.9,342.7,885.1,342.5,885.1z"/>
		</g>
		<g>
			<path fill="#3C4855" d="M406.9,846.5c0,2.5-2.7,4.6-6,4.6c-3.3,0-6-2-6-4.6c0-2.5,2.7-4.5,6-4.5
				C404.2,841.9,406.9,844,406.9,846.5z"/>
			<path fill="#FFFFFF" d="M400.9,851.7c-3.7,0-6.6-2.4-6.6-5.2c0-2.9,3-5.2,6.6-5.2c3.7,0,6.7,2.3,6.7,5.2
				C407.6,849.4,404.6,851.7,400.9,851.7z M400.9,842.6c-2.9,0-5.3,1.7-5.3,3.9c0,2.1,2.4,3.9,5.3,3.9c2.9,0,5.3-1.7,5.3-3.9
				C406.2,844.3,403.8,842.6,400.9,842.6z"/>
		</g>
		<g>
			<path fill="#3C4855" d="M437,846.5c0-2.5,2.7-4.5,6-4.5c3.3,0,6,2,6,4.5c0,2.5-2.7,4.6-6,4.6C439.7,851,437,849,437,846.5z"/>
			<path fill="#FFFFFF" d="M443,851.7c-3.7,0-6.7-2.4-6.7-5.2c0-2.9,3-5.2,6.7-5.2c3.7,0,6.6,2.3,6.6,5.2
				C449.7,849.4,446.7,851.7,443,851.7z M443,842.6c-2.9,0-5.3,1.7-5.3,3.9c0,2.1,2.4,3.9,5.3,3.9c2.9,0,5.3-1.7,5.3-3.9
				C448.3,844.3,445.9,842.6,443,842.6z"/>
		</g>
		<g>
			<path fill="#3C4855" d="M423,835.9c-2.5,0-4.5-2.7-4.5-6c0-3.3,2-6,4.5-6c2.5,0,4.5,2.7,4.5,6C427.6,833.2,425.5,835.9,423,835.9
				z"/>
			<path fill="#FFFFFF" d="M423,836.6c-2.9,0-5.2-3-5.2-6.7c0-3.7,2.3-6.7,5.2-6.7c2.9,0,5.2,3,5.2,6.7
				C428.3,833.6,425.9,836.6,423,836.6z M423,824.6c-2.1,0-3.9,2.4-3.9,5.3c0,2.9,1.7,5.3,3.9,5.3c2.1,0,3.9-2.4,3.9-5.3
				C426.9,827,425.2,824.6,423,824.6z"/>
		</g>
		<g>
			<path fill="#3C4855" d="M422.1,858c2.5,0,4.5,2.7,4.5,6c0,3.3-2,6-4.5,6c-2.5,0-4.5-2.7-4.5-6C417.6,860.7,419.6,858,422.1,858z"
				/>
			<path fill="#FFFFFF" d="M422.1,870.7c-2.9,0-5.2-3-5.2-6.7c0-3.7,2.3-6.7,5.2-6.7c2.9,0,5.2,3,5.2,6.7
				C427.3,867.7,425,870.7,422.1,870.7z M422.1,858.7c-2.1,0-3.9,2.4-3.9,5.3c0,2.9,1.7,5.3,3.9,5.3c2.1,0,3.9-2.4,3.9-5.3
				C425.9,861.1,424.2,858.7,422.1,858.7z"/>
		</g>
		<g>
			<path fill="#3C4855" d="M428.7,847.3c0,3.6-2.9,6.5-6.5,6.5c-3.6,0-6.5-2.9-6.5-6.5c0-3.6,2.9-6.5,6.5-6.5
				C425.9,840.8,428.7,843.7,428.7,847.3z"/>
			<path fill="#FFFFFF" d="M422.3,854.4c-3.9,0-7.1-3.2-7.1-7.1s3.2-7.1,7.1-7.1c3.9,0,7.1,3.2,7.1,7.1S426.2,854.4,422.3,854.4z
				 M422.3,841.5c-3.2,0-5.8,2.6-5.8,5.8c0,3.2,2.6,5.8,5.8,5.8c3.2,0,5.8-2.6,5.8-5.8C428.1,844.1,425.5,841.5,422.3,841.5z"/>
		</g>
		<g>
			<path fill="#FFFFFF" d="M462.5,886.6H5.1l-0.3-1.7c-3.2-19-4.8-31.5-4.8-37.2c0-10.4,1.8-44.2,1.9-45.6L2,800h463.7l0.1,1.9
				c0.1,1.4,1.9,35.2,1.9,45.6c0,5.7-1.6,18.3-4.8,37.2L462.5,886.6z M8.6,882.5h450.5c2.9-17.6,4.5-29.6,4.5-34.9
				c0-8.9-1.4-36-1.8-43.5H5.9c-0.4,7.5-1.8,34.5-1.8,43.5C4.1,852.9,5.6,864.9,8.6,882.5z"/>
		</g>
		<g>
			<path fill="#3C4855" d="M20.8,860.7c0-1.6,1.8-3,3.9-3h52.5c2.2,0,3.9,1.3,3.9,3v10.2c0,1.6-1.8,3-3.9,3H24.7
				c-2.2,0-3.9-1.3-3.9-3V860.7z"/>
			<path fill="#FFFFFF" d="M77.2,874.5H24.7c-2.5,0-4.6-1.6-4.6-3.7v-10.2c0-2,2.1-3.7,4.6-3.7h52.5c2.5,0,4.6,1.6,4.6,3.7v10.2
				C81.8,872.9,79.7,874.5,77.2,874.5z M24.7,858.4c-1.8,0-3.3,1-3.3,2.3v10.2c0,1.3,1.5,2.3,3.3,2.3h52.5c1.8,0,3.3-1,3.3-2.3
				v-10.2c0-1.3-1.5-2.3-3.3-2.3H24.7z"/>
		</g>
	</g>
</g>
<text transform="matrix(1 0 0 1 1058.999 283.0554)" fill="#FFFFFF" font-family="'Helvetica-Light'" font-size="33.7419">* Master</text>
</svg>
