<?xml version="1.0" encoding="utf-8"?>
<!-- Generator: Adobe Illustrator 18.1.1, SVG Export Plug-In . SVG Version: 6.00 Build 0)  -->
<svg version="1.1" id="Layer_1" xmlns="http://www.w3.org/2000/svg" xmlns:xlink="http://www.w3.org/1999/xlink" x="0px" y="0px"
	 viewBox="0 0 612 792" enable-background="new 0 0 612 792" xml:space="preserve">
<g>
	<polygon fill="#0CBC18" points="394.5,363.6 264.4,363.6 264.4,261.5 262.4,261.5 262.4,365.6 394.5,365.6 	"/>
	<polygon fill="#0CBC18" points="413.2,509.6 237.7,509.6 237.7,248.5 235.7,248.5 235.7,511.6 413.2,511.6 	"/>
	<polygon fill="#0CBC18" points="430.1,436.8 251.1,436.8 251.1,254.8 249.1,254.8 249.1,438.8 430.1,438.8 	"/>
	<polygon fill="#FFFFFF" points="195.3,308 225,308 225,254.8 223,254.8 223,306 195.3,306 	"/>
	<polyline fill="#FFFFFF" points="130.8,350.5 130.8,314.8 128.8,314.8 128.8,350.5 	"/>
	<path fill="#FFFF33" d="M93.7,402.9v-17.2h3.4l4.1,12.2c0.4,1.1,0.6,2,0.8,2.5c0.2-0.6,0.5-1.5,0.9-2.8l4.1-12h3.1v17.2h-2.2v-14.3
		l-5,14.4h-2.1l-5-14.6v14.6L93.7,402.9L93.7,402.9z"/>
	<path fill="#FFFF33" d="M121.6,401.4c-0.8,0.7-1.5,1.1-2.3,1.4s-1.5,0.4-2.3,0.4c-1.4,0-2.4-0.3-3.2-1s-1.1-1.5-1.1-2.6
		c0-0.6,0.1-1.2,0.4-1.7s0.6-0.9,1.1-1.2c0.5-0.3,1-0.5,1.5-0.7c0.4-0.1,1-0.2,1.9-0.3c1.7-0.2,3-0.4,3.8-0.7c0-0.3,0-0.5,0-0.6
		c0-0.9-0.2-1.5-0.6-1.8c-0.5-0.5-1.3-0.7-2.4-0.7c-1,0-1.7,0.2-2.2,0.5s-0.8,1-1,1.8l-2.1-0.3c0.2-0.9,0.5-1.6,0.9-2.1
		s1.1-1,1.9-1.3s1.8-0.4,2.8-0.4c1.1,0,1.9,0.1,2.6,0.4s1.2,0.6,1.5,0.9s0.5,0.9,0.7,1.4c0.1,0.4,0.1,1,0.1,1.9v2.8
		c0,2,0,3.2,0.1,3.7s0.3,1,0.5,1.5H122C121.8,402.4,121.7,401.9,121.6,401.4z M121.4,396.6c-0.8,0.3-1.9,0.6-3.4,0.8
		c-0.9,0.1-1.5,0.3-1.8,0.4s-0.6,0.4-0.8,0.7c-0.2,0.3-0.3,0.6-0.3,1c0,0.6,0.2,1,0.6,1.4s1,0.6,1.9,0.6c0.8,0,1.5-0.2,2.2-0.5
		s1.1-0.8,1.4-1.5c0.2-0.5,0.3-1.2,0.3-2.1L121.4,396.6z"/>
	<path fill="#FFFF33" d="M126,399.2l2.1-0.3c0.1,0.8,0.4,1.5,1,1.9s1.3,0.7,2.2,0.7c1,0,1.7-0.2,2.2-0.6s0.7-0.9,0.7-1.4
		s-0.2-0.9-0.6-1.1c-0.3-0.2-1-0.4-2.2-0.7c-1.5-0.4-2.6-0.7-3.2-1s-1.1-0.7-1.4-1.2s-0.5-1.1-0.5-1.7s0.1-1.1,0.4-1.5
		s0.6-0.9,1-1.2c0.3-0.2,0.8-0.4,1.3-0.6s1.2-0.3,1.8-0.3c1,0,1.8,0.1,2.6,0.4s1.3,0.7,1.6,1.1s0.6,1.1,0.7,1.9l-2.1,0.3
		c-0.1-0.6-0.4-1.1-0.8-1.5c-0.4-0.4-1.1-0.5-1.9-0.5c-1,0-1.7,0.2-2.1,0.5s-0.6,0.7-0.6,1.1c0,0.3,0.1,0.5,0.3,0.7s0.4,0.4,0.8,0.6
		c0.2,0.1,0.8,0.3,1.9,0.5c1.5,0.4,2.5,0.7,3.1,1s1.1,0.6,1.4,1.1s0.5,1.1,0.5,1.8c0,0.7-0.2,1.4-0.6,2c-0.4,0.6-1,1.1-1.8,1.4
		s-1.6,0.5-2.6,0.5c-1.6,0-2.8-0.3-3.7-1S126.2,400.5,126,399.2z"/>
	<path fill="#FFFF33" d="M143.4,401l0.3,1.9c-0.6,0.1-1.1,0.2-1.6,0.2c-0.8,0-1.4-0.1-1.8-0.4s-0.7-0.6-0.9-1s-0.3-1.2-0.3-2.5V392
		h-1.5v-1.6h1.5v-3.1l2.1-1.3v4.3h2.1v1.6h-2.1v7.3c0,0.6,0,1,0.1,1.2s0.2,0.3,0.4,0.4s0.4,0.2,0.7,0.2
		C142.8,401.1,143.1,401.1,143.4,401z"/>
	<path fill="#FFFF33" d="M154,398.9l2.2,0.3c-0.3,1.3-1,2.3-1.9,3s-2.1,1.1-3.6,1.1c-1.8,0-3.3-0.6-4.3-1.7s-1.6-2.7-1.6-4.7
		c0-2.1,0.5-3.7,1.6-4.9c1.1-1.2,2.5-1.7,4.2-1.7s3,0.6,4.1,1.7s1.6,2.7,1.6,4.8c0,0.1,0,0.3,0,0.6H147c0.1,1.4,0.5,2.4,1.2,3.1
		s1.6,1.1,2.6,1.1c0.8,0,1.4-0.2,2-0.6C153.4,400.6,153.7,399.8,154,398.9z M147.1,395.5h6.9c-0.1-1-0.4-1.8-0.8-2.4
		c-0.7-0.8-1.5-1.2-2.6-1.2c-1,0-1.8,0.3-2.4,1S147.2,394.4,147.1,395.5z"/>
	<path fill="#FFFF33" d="M158.8,402.9v-12.4h1.9v1.9c0.5-0.9,0.9-1.5,1.3-1.7s0.9-0.4,1.4-0.4c0.7,0,1.4,0.2,2.2,0.7l-0.7,2
		c-0.5-0.3-1-0.5-1.5-0.5s-0.9,0.1-1.2,0.4s-0.6,0.7-0.8,1.2c-0.2,0.8-0.4,1.6-0.4,2.5v6.5h-2.2V402.9z"/>
	<path fill="#FFFFFF" d="M168.1,292.7l-0.4-40.8c0,0,0-2.8-2.5-2.8s-2.5,2.8-2.5,2.8l-0.4,40.8H168.1z"/>
	<path fill="#B5C0C9" d="M124,317.4h73.4v-20.3c0,0,0.5-2.7-7.9-3.4c0,0-25.9-2.8-65.3-3.3h-0.5c-39.4,0.5-65.3,3.3-65.3,3.3
		c-8.3,0.8-7.9,3.4-7.9,3.4v20.3H124z"/>
	<path fill="#FFFFFF" d="M124,317.4v1h74.4v-21.3h-1l1,0.2c0-0.1,0-0.1,0-0.3c0-0.3-0.1-0.7-0.3-1.1c-0.4-0.7-1.1-1.4-2.4-1.9
		c-1.3-0.6-3.2-1-6.1-1.3l-0.1,1l0.1-1c0,0-26-2.8-65.4-3.3h-0.5c-39.4,0.5-65.4,3.3-65.4,3.3l0.1,1l-0.1-1c-3.9,0.4-6,1.1-7.3,2
		c-0.6,0.4-1,0.9-1.3,1.3c-0.2,0.4-0.3,0.8-0.3,1.1c0,0.1,0,0.2,0,0.2l1-0.2h-1v21.3h74.5v-1v-1H51.5V297v-0.1l-0.6,0.1h0.6v-0.1
		l-0.6,0.1h0.6h-0.2h0.2h-0.2h0.2c0,0,0-0.1,0.1-0.2c0.1-0.2,0.5-0.6,1.6-1.1c1-0.4,2.7-0.9,5.3-1.1c0,0,0.4,0,1.2-0.1
		c5.5-0.5,29.6-2.7,64-3.2v-1v1h0.5v-1v1c19.7,0.2,36,1.1,47.4,1.8c5.7,0.4,10.2,0.7,13.2,1c1.5,0.1,2.7,0.2,3.5,0.3
		s1.2,0.1,1.2,0.1c3.7,0.3,5.5,1,6.3,1.6c0.4,0.3,0.6,0.5,0.6,0.6l0.1,0.1h0.5l-0.5-0.1v0.1h0.5l-0.5-0.1v0.1v19.4h-72.4v1.2
		L124,317.4L124,317.4z"/>
	<polygon points="89.5,313.2 89.5,298 83.8,298 83.8,296 97.5,296 97.5,298 91.8,298 91.8,313.2 	"/>
	<path d="M104.7,313.2L98,296h2.5l4.5,12.5c0.4,1,0.7,1.9,0.9,2.8c0.3-0.9,0.6-1.9,0.9-2.8l4.6-12.5h2.3l-6.7,17.2H104.7z"/>
	<rect x="113.4" y="306" width="6.5" height="2.1"/>
	<polygon points="122.5,313.2 122.5,296 124.8,296 124.8,303.1 133.7,303.1 133.7,296 136,296 136,313.2 133.7,313.2 133.7,305.1 
		124.8,305.1 124.8,313.2 	"/>
	<path d="M147.7,313.2v-1.8c-1,1.4-2.3,2.1-3.9,2.1c-0.7,0-1.4-0.1-2.1-0.4c-0.7-0.3-1.1-0.6-1.4-1.1s-0.5-0.9-0.7-1.6
		c-0.1-0.4-0.1-1.1-0.1-2v-7.7h2.1v6.9c0,1.1,0,1.8,0.1,2.2c0.1,0.6,0.4,1,0.8,1.3c0.4,0.3,1,0.5,1.6,0.5s1.2-0.2,1.8-0.5
		s0.9-0.8,1.2-1.3s0.3-1.4,0.3-2.4v-6.7h2.1v12.4L147.7,313.2z"/>
	<path d="M154.8,313.2h-2V296h2.1v6.1c0.9-1.1,2-1.7,3.4-1.7c0.8,0,1.5,0.2,2.2,0.5s1.2,0.7,1.7,1.3s0.8,1.2,1,2s0.4,1.6,0.4,2.5
		c0,2.1-0.5,3.8-1.6,4.9s-2.3,1.7-3.8,1.7s-2.6-0.6-3.5-1.8v1.7H154.8z M154.8,306.9c0,1.5,0.2,2.6,0.6,3.2c0.7,1.1,1.6,1.6,2.7,1.6
		c0.9,0,1.7-0.4,2.4-1.2c0.7-0.8,1-2,1-3.6s-0.3-2.8-1-3.6c-0.7-0.8-1.4-1.2-2.3-1.2s-1.7,0.4-2.4,1.2S154.8,305.4,154.8,306.9z"/>
	<path fill="#B5C0C9" d="M129.5,378.8h80.8c0.6-3.8,1.8-11.1,1.8-14.1c0-4-0.7-15.3-0.7-15.3h-82h-1.2h-81c0,0-0.7,11.3-0.7,15.3
		c0,2.9,1.2,10.3,1.8,14.1h79.8H129.5z"/>
	<path fill="#FFFFFF" d="M129.5,378.8v1h81.7l0.1-0.8c0.3-1.9,0.8-4.7,1.1-7.4c0.4-2.7,0.7-5.3,0.7-6.9c0-2-0.2-5.9-0.4-9.2
		c-0.2-3.3-0.4-6.2-0.4-6.2l-0.1-0.9h-82.8h-1.2h-82l-0.1,0.9c0,0-0.2,2.8-0.4,6.2c-0.2,3.3-0.4,7.2-0.4,9.2c0,1.6,0.3,4.1,0.7,6.9
		c0.4,2.7,0.8,5.5,1.1,7.4l0.1,0.8h80.7h1.4v-1v-1h-1.4H48.3v1l1-0.2c-0.3-1.9-0.7-4.7-1.1-7.4c-0.4-2.7-0.7-5.2-0.7-6.6
		c0-2,0.2-5.8,0.3-9.1c0.1-1.7,0.2-3.2,0.2-4.3c0.1-1.1,0.1-1.8,0.1-1.8l-1-0.1v1h81h1.2h82v-1l-1,0.1c0,0,0,0.7,0.1,1.8
		c0.2,3.4,0.6,10.5,0.6,13.4c0,1.4-0.3,4-0.7,6.6c-0.4,2.7-0.8,5.4-1.1,7.3l1,0.2v-1h-80.7L129.5,378.8L129.5,378.8z"/>
	<path fill="#0F1F30" d="M83.7,372.7v-17.2h7.6c1.5,0,2.7,0.2,3.5,0.5s1.4,0.9,1.9,1.6s0.7,1.6,0.7,2.6c0,1.2-0.4,2.2-1.2,3.1
		c-0.8,0.9-2,1.4-3.7,1.6c0.6,0.3,1.1,0.6,1.4,0.9c0.7,0.6,1.3,1.4,1.9,2.3l3,4.7h-2.9l-2.3-3.6c-0.7-1-1.2-1.8-1.6-2.4
		s-0.8-0.9-1.2-1.1c-0.4-0.2-0.7-0.4-1-0.5s-0.7-0.1-1.3-0.1h-2.6v7.6H83.7z M86,363.1h4.9c1,0,1.9-0.1,2.4-0.3c0.5-0.2,1-0.6,1.3-1
		s0.5-1,0.5-1.5c0-0.8-0.3-1.5-0.9-2s-1.5-0.8-2.8-0.8H86V363.1z"/>
	<path fill="#0F1F30" d="M109.2,368.7l2.2,0.3c-0.3,1.3-1,2.3-1.9,3s-2.1,1.1-3.6,1.1c-1.8,0-3.3-0.6-4.3-1.7s-1.6-2.7-1.6-4.7
		c0-2.1,0.5-3.7,1.6-4.9c1.1-1.2,2.5-1.7,4.2-1.7s3,0.6,4.1,1.7s1.6,2.7,1.6,4.8c0,0.1,0,0.3,0,0.6h-9.3c0.1,1.4,0.5,2.4,1.2,3.1
		s1.6,1.1,2.6,1.1c0.8,0,1.4-0.2,2-0.6C108.6,370.4,108.9,369.5,109.2,368.7z M102.3,365.2h6.9c-0.1-1-0.4-1.8-0.8-2.4
		c-0.7-0.8-1.5-1.2-2.6-1.2c-1,0-1.8,0.3-2.4,1S102.4,364.2,102.3,365.2z"/>
	<path fill="#0F1F30" d="M122.2,368.1l2.1,0.3c-0.2,1.4-0.8,2.5-1.7,3.4c-0.9,0.9-2.1,1.2-3.4,1.2c-1.7,0-3.1-0.6-4.1-1.7
		s-1.6-2.7-1.6-4.8c0-1.3,0.2-2.5,0.7-3.5s1.1-1.8,2-2.3s1.9-0.8,3-0.8c1.4,0,2.5,0.3,3.3,1s1.4,1.7,1.7,2.9l-2.1,0.3
		c-0.2-0.8-0.5-1.5-1-1.9s-1.1-0.6-1.8-0.6c-1.1,0-1.9,0.4-2.6,1.1s-1,2-1,3.6c0,1.7,0.3,2.9,1,3.6s1.5,1.1,2.5,1.1
		c0.8,0,1.5-0.3,2.1-0.8S122,369.2,122.2,368.1z"/>
	<path fill="#0F1F30" d="M134.6,368.7l2.2,0.3c-0.3,1.3-1,2.3-1.9,3s-2.1,1.1-3.6,1.1c-1.8,0-3.3-0.6-4.3-1.7s-1.6-2.7-1.6-4.7
		c0-2.1,0.5-3.7,1.6-4.9c1.1-1.2,2.5-1.7,4.2-1.7s3,0.6,4.1,1.7s1.6,2.7,1.6,4.8c0,0.1,0,0.3,0,0.6h-9.4c0.1,1.4,0.5,2.4,1.2,3.1
		c0.7,0.7,1.6,1.1,2.6,1.1c0.8,0,1.4-0.2,2-0.6C133.9,370.4,134.3,369.5,134.6,368.7z M127.7,365.2h6.9c-0.1-1-0.4-1.8-0.8-2.4
		c-0.7-0.8-1.5-1.2-2.6-1.2c-1,0-1.8,0.3-2.4,1S127.7,364.2,127.7,365.2z"/>
	<path fill="#0F1F30" d="M139.4,357.9v-2.4h2.1v2.4H139.4z M139.4,372.7v-12.4h2.1v12.4H139.4z"/>
	<path fill="#0F1F30" d="M148.2,372.7l-4.7-12.4h2.2l2.7,7.5c0.3,0.8,0.6,1.6,0.8,2.5c0.2-0.7,0.4-1.4,0.8-2.4l2.8-7.6h2.2
		l-4.7,12.4H148.2z"/>
	<path fill="#0F1F30" d="M165.3,368.7l2.2,0.3c-0.3,1.3-1,2.3-1.9,3s-2.1,1.1-3.6,1.1c-1.8,0-3.3-0.6-4.3-1.7s-1.6-2.7-1.6-4.7
		c0-2.1,0.5-3.7,1.6-4.9c1.1-1.2,2.5-1.7,4.2-1.7s3,0.6,4.1,1.7s1.6,2.7,1.6,4.8c0,0.1,0,0.3,0,0.6h-9.3c0.1,1.4,0.5,2.4,1.2,3.1
		s1.6,1.1,2.6,1.1c0.8,0,1.4-0.2,2-0.6C164.7,370.4,164.9,369.5,165.3,368.7z M158.3,365.2h6.9c-0.1-1-0.4-1.8-0.8-2.4
		c-0.7-0.8-1.5-1.2-2.6-1.2c-1,0-1.8,0.3-2.4,1S158.4,364.2,158.3,365.2z"/>
	<path fill="#0F1F30" d="M170.1,372.7v-12.4h1.9v1.9c0.5-0.9,0.9-1.5,1.3-1.7s0.9-0.4,1.4-0.4c0.7,0,1.4,0.2,2.2,0.7l-0.7,2
		c-0.5-0.3-1-0.5-1.5-0.5s-0.9,0.1-1.2,0.4s-0.6,0.7-0.8,1.2c-0.2,0.8-0.4,1.6-0.4,2.5v6.5h-2.2V372.7z"/>
	<path fill="#8A9AA5" d="M190.4,364.3c0,1-1,1.7-2.3,1.7s-2.3-0.8-2.3-1.7c0-1,1-1.7,2.3-1.7S190.4,363.4,190.4,364.3z"/>
	<path fill="#8A9AA5" d="M201.9,364.3c0-1,1-1.7,2.3-1.7s2.3,0.8,2.3,1.7c0,1-1,1.7-2.3,1.7C202.9,366.1,201.9,365.3,201.9,364.3z"
		/>
	<path fill="#8A9AA5" d="M196.6,360.3c-1,0-1.7-1-1.7-2.3s0.8-2.3,1.7-2.3s1.7,1,1.7,2.3S197.5,360.3,196.6,360.3z"/>
	<path fill="#8A9AA5" d="M196.2,368.7c1,0,1.7,1,1.7,2.3s-0.8,2.3-1.7,2.3c-1,0-1.7-1-1.7-2.3S195.2,368.7,196.2,368.7z"/>
	<path fill="#8A9AA5" d="M198.7,364.6c0,1.4-1.1,2.5-2.5,2.5s-2.5-1.1-2.5-2.5s1.1-2.5,2.5-2.5C197.6,362.2,198.7,363.3,198.7,364.6
		z"/>
	<path fill="#8A9AA5" d="M54.3,369.7c0-0.6-1.3-1.1-0.5-1.1h20c0.8,0,1.5,0.5,1.5,1.1v3.9c0,0.6-0.7,1.1-1.5,1.1h-20
		c-0.8,0-1.5-0.5-1.5-1.1L54.3,369.7z"/>
	<path fill="#B5C0C9" d="M476.1,452.5h80.8c0.6-3.8,1.8-11.1,1.8-14.1c0-4-0.7-15.3-0.7-15.3h-82h-1.2h-81c0,0-0.7,11.3-0.7,15.3
		c0,2.9,1.2,10.3,1.8,14.1h79.8H476.1z"/>
	<path fill="#0CBC18" d="M476.1,452.5v1.5h82.1l0.2-1.3c0.3-1.9,0.8-4.7,1.1-7.4c0.2-1.3,0.4-2.7,0.5-3.9s0.2-2.2,0.2-3.1
		c0-2.1-0.2-5.9-0.4-9.2s-0.4-6.2-0.4-6.2l-0.1-1.4h-83.4h-1.2h-82.4l-0.1,1.4c0,0-0.2,2.8-0.4,6.2c-0.2,3.3-0.4,7.2-0.4,9.2
		c0,0.8,0.1,1.9,0.2,3c0.4,3.6,1.2,8.4,1.6,11.3l0.2,1.3h81.1h1.4v-1.4V451h-1.4h-79.8v1.5l1.5-0.2c-0.3-1.9-0.7-4.7-1.1-7.4
		c-0.2-1.3-0.4-2.6-0.5-3.8c-0.1-1.1-0.2-2.1-0.2-2.7c0-1.9,0.2-5.8,0.3-9.1c0.1-1.7,0.2-3.2,0.2-4.3s0.1-1.8,0.1-1.8l-1.5-0.1v1.5
		h81h1.2h82v-1.5l-1.5,0.1c0,0,0,0.7,0.1,1.8c0.1,1.7,0.2,4.3,0.4,6.9c0.1,2.6,0.2,5.1,0.2,6.5c0,0.7-0.1,1.6-0.2,2.8
		c-0.4,3.4-1.1,8.2-1.6,11.1l1.5,0.2V451h-80.8v1.5H476.1z"/>
	<path fill="#0F1F30" d="M430.3,446.4v-17.2h7.6c1.5,0,2.7,0.2,3.5,0.5s1.4,0.9,1.9,1.6s0.7,1.6,0.7,2.6c0,1.2-0.4,2.2-1.2,3.1
		c-0.8,0.8-2,1.4-3.7,1.6c0.6,0.3,1.1,0.6,1.4,0.9c0.7,0.6,1.3,1.4,1.9,2.3l3,4.7h-2.9l-2.3-3.6c-0.7-1-1.2-1.8-1.6-2.4
		s-0.8-0.9-1.2-1.1s-0.7-0.4-1-0.5s-0.7-0.1-1.3-0.1h-2.6v7.6H430.3z M432.5,436.8h4.9c1,0,1.9-0.1,2.4-0.3c0.6-0.2,1-0.6,1.3-1
		s0.5-1,0.5-1.5c0-0.8-0.3-1.5-0.9-2s-1.5-0.8-2.8-0.8h-5.4V436.8z"/>
	<path fill="#0F1F30" d="M455.8,442.4l2.2,0.3c-0.3,1.3-1,2.3-1.9,3s-2.1,1.1-3.6,1.1c-1.8,0-3.3-0.6-4.3-1.7s-1.6-2.7-1.6-4.7
		c0-2.1,0.5-3.7,1.6-4.9c1.1-1.2,2.5-1.7,4.2-1.7s3,0.6,4.1,1.7s1.6,2.7,1.6,4.8c0,0.1,0,0.3,0,0.6h-9.3c0.1,1.4,0.5,2.4,1.2,3.1
		s1.6,1.1,2.6,1.1c0.8,0,1.4-0.2,2-0.6C455.2,444.1,455.5,443.3,455.8,442.4z M448.9,439h6.9c-0.1-1-0.4-1.8-0.8-2.4
		c-0.7-0.8-1.5-1.2-2.6-1.2c-1,0-1.8,0.3-2.4,1C449.3,437,448.9,437.9,448.9,439z"/>
	<path fill="#0F1F30" d="M468.8,441.8l2.1,0.3c-0.2,1.4-0.8,2.5-1.7,3.4c-0.9,0.9-2.1,1.2-3.4,1.2c-1.7,0-3.1-0.6-4.1-1.7
		s-1.6-2.7-1.6-4.8c0-1.3,0.2-2.5,0.7-3.5c0.4-1,1.1-1.8,2-2.3s1.9-0.8,3-0.8c1.4,0,2.5,0.3,3.3,1s1.4,1.7,1.7,2.9l-2.1,0.3
		c-0.2-0.8-0.5-1.5-1-1.9s-1.1-0.6-1.8-0.6c-1.1,0-1.9,0.4-2.6,1.1c-0.7,0.8-1,2-1,3.6c0,1.7,0.3,2.9,1,3.6s1.5,1.1,2.5,1.1
		c0.8,0,1.5-0.3,2.1-0.8S468.6,442.9,468.8,441.8z"/>
	<path fill="#0F1F30" d="M481.2,442.4l2.2,0.3c-0.3,1.3-1,2.3-1.9,3s-2.1,1.1-3.6,1.1c-1.8,0-3.3-0.6-4.3-1.7s-1.6-2.7-1.6-4.7
		c0-2.1,0.5-3.7,1.6-4.9c1.1-1.2,2.5-1.7,4.2-1.7s3,0.6,4.1,1.7s1.6,2.7,1.6,4.8c0,0.1,0,0.3,0,0.6h-9.3c0.1,1.4,0.5,2.4,1.2,3.1
		s1.6,1.1,2.6,1.1c0.8,0,1.4-0.2,2-0.6C480.6,444.1,480.8,443.3,481.2,442.4z M474.2,439h6.9c-0.1-1-0.4-1.8-0.8-2.4
		c-0.7-0.8-1.5-1.2-2.6-1.2c-1,0-1.8,0.3-2.4,1C474.7,437,474.3,437.9,474.2,439z"/>
	<path fill="#0F1F30" d="M486,431.6v-2.4h2.1v2.4H486z M486,446.4V434h2.1v12.4H486z"/>
	<path fill="#0F1F30" d="M494.8,446.4l-4.7-12.4h2.2l2.7,7.5c0.3,0.8,0.6,1.6,0.8,2.5c0.2-0.7,0.4-1.4,0.8-2.4l2.8-7.6h2.2
		l-4.7,12.4H494.8z"/>
	<path fill="#0F1F30" d="M511.8,442.4l2.2,0.3c-0.3,1.3-1,2.3-1.9,3s-2.1,1.1-3.6,1.1c-1.8,0-3.3-0.6-4.3-1.7s-1.6-2.7-1.6-4.7
		c0-2.1,0.5-3.7,1.6-4.9c1.1-1.2,2.5-1.7,4.2-1.7s3,0.6,4.1,1.7c1.1,1.1,1.6,2.7,1.6,4.8c0,0.1,0,0.3,0,0.6h-9.3
		c0.1,1.4,0.5,2.4,1.2,3.1s1.6,1.1,2.6,1.1c0.8,0,1.4-0.2,2-0.6C511.2,444.1,511.5,443.3,511.8,442.4z M504.9,439h6.9
		c-0.1-1-0.4-1.8-0.8-2.4c-0.7-0.8-1.5-1.2-2.6-1.2c-1,0-1.8,0.3-2.4,1C505.3,437,505,437.9,504.9,439z"/>
	<path fill="#0F1F30" d="M516.6,446.4V434h1.9v1.9c0.5-0.9,0.9-1.5,1.3-1.7s0.9-0.4,1.4-0.4c0.7,0,1.4,0.2,2.2,0.7l-0.7,2
		c-0.5-0.3-1-0.5-1.5-0.5s-0.9,0.1-1.2,0.4c-0.4,0.3-0.6,0.7-0.8,1.2c-0.2,0.8-0.4,1.6-0.4,2.5v6.5h-2.2V446.4z"/>
	<path fill="#8A9AA5" d="M537,438c0,1-1,1.7-2.3,1.7s-2.3-0.8-2.3-1.7c0-1,1-1.7,2.3-1.7S537,437.1,537,438z"/>
	<path fill="#8A9AA5" d="M548.5,438c0-1,1-1.7,2.3-1.7s2.3,0.8,2.3,1.7c0,1-1,1.7-2.3,1.7C549.5,439.8,548.5,439,548.5,438z"/>
	<path fill="#8A9AA5" d="M543.1,434c-1,0-1.7-1-1.7-2.3s0.8-2.3,1.7-2.3s1.7,1,1.7,2.3C544.9,433,544.1,434,543.1,434z"/>
	<path fill="#8A9AA5" d="M542.8,442.4c1,0,1.7,1,1.7,2.3s-0.8,2.3-1.7,2.3c-1,0-1.7-1-1.7-2.3C541,443.5,541.8,442.4,542.8,442.4z"
		/>
	<path fill="#8A9AA5" d="M545.3,438.4c0,1.4-1.1,2.5-2.5,2.5s-2.5-1.1-2.5-2.5s1.1-2.5,2.5-2.5S545.3,437,545.3,438.4z"/>
	<path fill="#8A9AA5" d="M398.8,443.5c0-0.6,0.7-1.1,1.5-1.1h20c0.8,0,1.5,0.5,1.5,1.1v3.9c0,0.6-0.7,1.1-1.5,1.1h-20
		c-0.8,0-1.5-0.5-1.5-1.1V443.5z"/>
	<path fill="#B5C0C9" d="M476.1,525.6h80.8c0.6-3.8,1.8-11.1,1.8-14.1c0-4-0.7-15.3-0.7-15.3h-82h-1.2h-81c0,0-0.7,11.3-0.7,15.3
		c0,2.9,1.2,10.3,1.8,14.1h79.8H476.1z"/>
	<path fill="#0CBC18" d="M476.1,525.6v1.5h82.1l0.2-1.3c0.3-1.9,0.8-4.7,1.1-7.4c0.2-1.3,0.4-2.7,0.5-3.9s0.2-2.2,0.2-3.1
		c0-2.1-0.2-5.9-0.4-9.2c-0.2-3.3-0.4-6.2-0.4-6.2l-0.1-1.4h-83.4h-1.2h-82.4l-0.1,1.4c0,0-0.2,2.8-0.4,6.2
		c-0.2,3.3-0.4,7.2-0.4,9.2c0,0.8,0.1,1.9,0.2,3c0.4,3.6,1.2,8.4,1.6,11.3l0.2,1.3h81.1h1.4v-1.4v-1.5h-1.4h-79.8v1.5l1.5-0.2
		c-0.3-1.9-0.7-4.7-1.1-7.4c-0.2-1.3-0.4-2.6-0.5-3.8c-0.1-1.1-0.2-2.1-0.2-2.7c0-1.9,0.2-5.8,0.3-9.1c0.1-1.7,0.2-3.2,0.2-4.3
		s0.1-1.8,0.1-1.8l-1.5-0.1v1.5h81h1.2h82v-1.5l-1.5,0.1c0,0,0,0.7,0.1,1.8c0.1,1.7,0.2,4.3,0.4,6.9c0.1,2.6,0.2,5.1,0.2,6.5
		c0,0.7-0.1,1.6-0.2,2.8c-0.4,3.4-1.1,8.2-1.6,11.1l1.5,0.2v-1.5h-80.8v1.5L476.1,525.6L476.1,525.6z"/>
	<path fill="#0F1F30" d="M430.3,519.5v-17.2h7.6c1.5,0,2.7,0.2,3.5,0.5s1.4,0.9,1.9,1.6s0.7,1.6,0.7,2.6c0,1.2-0.4,2.2-1.2,3.1
		c-0.8,0.9-2,1.4-3.7,1.6c0.6,0.3,1.1,0.6,1.4,0.9c0.7,0.6,1.3,1.4,1.9,2.3l3,4.7h-2.9l-2.3-3.6c-0.7-1-1.2-1.8-1.6-2.4
		c-0.4-0.6-0.8-0.9-1.2-1.1s-0.7-0.4-1-0.5c-0.3-0.1-0.7-0.1-1.3-0.1h-2.6v7.6L430.3,519.5L430.3,519.5z M432.5,509.9h4.9
		c1,0,1.9-0.1,2.4-0.3c0.5-0.2,1-0.6,1.3-1s0.5-1,0.5-1.5c0-0.8-0.3-1.5-0.9-2s-1.5-0.8-2.8-0.8h-5.4V509.9z"/>
	<path fill="#0F1F30" d="M455.8,515.5l2.2,0.3c-0.3,1.3-1,2.3-1.9,3s-2.1,1.1-3.6,1.1c-1.8,0-3.3-0.6-4.3-1.7s-1.6-2.7-1.6-4.7
		c0-2.1,0.5-3.7,1.6-4.9c1.1-1.2,2.5-1.7,4.2-1.7s3,0.6,4.1,1.7s1.6,2.7,1.6,4.8c0,0.1,0,0.3,0,0.6h-9.3c0.1,1.4,0.5,2.4,1.2,3.1
		c0.7,0.7,1.6,1.1,2.6,1.1c0.8,0,1.4-0.2,2-0.6C455.2,517.2,455.5,516.3,455.8,515.5z M448.9,512h6.9c-0.1-1-0.4-1.8-0.8-2.4
		c-0.7-0.8-1.5-1.2-2.6-1.2c-1,0-1.8,0.3-2.4,1S448.9,511,448.9,512z"/>
	<path fill="#0F1F30" d="M468.8,514.9l2.1,0.3c-0.2,1.4-0.8,2.5-1.7,3.4c-0.9,0.9-2.1,1.2-3.4,1.2c-1.7,0-3.1-0.6-4.1-1.7
		c-1-1.1-1.6-2.7-1.6-4.8c0-1.3,0.2-2.5,0.7-3.5s1.1-1.8,2-2.3s1.9-0.8,3-0.8c1.4,0,2.5,0.3,3.3,1s1.4,1.7,1.7,2.9l-2.1,0.3
		c-0.2-0.8-0.5-1.5-1-1.9s-1.1-0.6-1.8-0.6c-1.1,0-1.9,0.4-2.6,1.1s-1,2-1,3.6c0,1.7,0.3,2.9,1,3.6s1.5,1.1,2.5,1.1
		c0.8,0,1.5-0.3,2.1-0.8S468.6,516,468.8,514.9z"/>
	<path fill="#0F1F30" d="M481.2,515.5l2.2,0.3c-0.3,1.3-1,2.3-1.9,3s-2.1,1.1-3.6,1.1c-1.8,0-3.3-0.6-4.3-1.7s-1.6-2.7-1.6-4.7
		c0-2.1,0.5-3.7,1.6-4.9c1.1-1.2,2.5-1.7,4.2-1.7s3,0.6,4.1,1.7s1.6,2.7,1.6,4.8c0,0.1,0,0.3,0,0.6h-9.3c0.1,1.4,0.5,2.4,1.2,3.1
		c0.7,0.7,1.6,1.1,2.6,1.1c0.8,0,1.4-0.2,2-0.6C480.6,517.2,480.8,516.3,481.2,515.5z M474.2,512h6.9c-0.1-1-0.4-1.8-0.8-2.4
		c-0.7-0.8-1.5-1.2-2.6-1.2c-1,0-1.8,0.3-2.4,1S474.3,511,474.2,512z"/>
	<path fill="#0F1F30" d="M486,504.7v-2.4h2.1v2.4H486z M486,519.5v-12.4h2.1v12.4H486z"/>
	<path fill="#0F1F30" d="M494.8,519.5l-4.7-12.4h2.2l2.7,7.5c0.3,0.8,0.6,1.6,0.8,2.5c0.2-0.7,0.4-1.4,0.8-2.4l2.8-7.6h2.2
		l-4.7,12.4L494.8,519.5L494.8,519.5z"/>
	<path fill="#0F1F30" d="M511.8,515.5l2.2,0.3c-0.3,1.3-1,2.3-1.9,3s-2.1,1.1-3.6,1.1c-1.8,0-3.3-0.6-4.3-1.7s-1.6-2.7-1.6-4.7
		c0-2.1,0.5-3.7,1.6-4.9c1.1-1.2,2.5-1.7,4.2-1.7s3,0.6,4.1,1.7c1.1,1.1,1.6,2.7,1.6,4.8c0,0.1,0,0.3,0,0.6h-9.3
		c0.1,1.4,0.5,2.4,1.2,3.1c0.7,0.7,1.6,1.1,2.6,1.1c0.8,0,1.4-0.2,2-0.6C511.2,517.2,511.5,516.3,511.8,515.5z M504.9,512h6.9
		c-0.1-1-0.4-1.8-0.8-2.4c-0.7-0.8-1.5-1.2-2.6-1.2c-1,0-1.8,0.3-2.4,1S505,511,504.9,512z"/>
	<path fill="#0F1F30" d="M516.6,519.5v-12.4h1.9v1.9c0.5-0.9,0.9-1.5,1.3-1.7s0.9-0.4,1.4-0.4c0.7,0,1.4,0.2,2.2,0.7l-0.7,2
		c-0.5-0.3-1-0.5-1.5-0.5s-0.9,0.1-1.2,0.4s-0.6,0.7-0.8,1.2c-0.2,0.8-0.4,1.6-0.4,2.5v6.5h-2.2V519.5z"/>
	<path fill="#8A9AA5" d="M537,511.1c0,1-1,1.7-2.3,1.7s-2.3-0.8-2.3-1.7c0-1,1-1.7,2.3-1.7S537,510.2,537,511.1z"/>
	<path fill="#8A9AA5" d="M548.5,511.1c0-1,1-1.7,2.3-1.7s2.3,0.8,2.3,1.7c0,1-1,1.7-2.3,1.7S548.5,512.1,548.5,511.1z"/>
	<path fill="#8A9AA5" d="M543.1,507.1c-1,0-1.7-1-1.7-2.3s0.8-2.3,1.7-2.3s1.7,1,1.7,2.3C544.9,506.1,544.1,507.1,543.1,507.1z"/>
	<path fill="#8A9AA5" d="M542.8,515.5c1,0,1.7,1,1.7,2.3s-0.8,2.3-1.7,2.3c-1,0-1.7-1-1.7-2.3C541,516.5,541.8,515.5,542.8,515.5z"
		/>
	<path fill="#8A9AA5" d="M545.3,511.4c0,1.4-1.1,2.5-2.5,2.5s-2.5-1.1-2.5-2.5c0-1.4,1.1-2.5,2.5-2.5
		C544.2,509,545.3,510.1,545.3,511.4z"/>
	<path fill="#8A9AA5" d="M398.8,516.5c0-0.6,0.7-1.1,1.5-1.1h20c0.8,0,1.5,0.5,1.5,1.1v3.9c0,0.6-0.7,1.1-1.5,1.1h-20
		c-0.8,0-1.5-0.5-1.5-1.1V516.5z"/>
	<path fill="#FFFFFF" d="M194.9,248.9v-8.7l1.3-42.3c8.7-42.3,47.1-41.4,47.1-41.4s39.1-2.2,47.8,41.4l1.5,42.3v8.7
		c-3.8,9.3-11.5,11-11.5,11h-74.7C206.3,260,198.3,257.2,194.9,248.9z"/>
	<path fill="#FFFFFF" d="M194.9,248.9h1v-8.7l1.3-42.3h-1l1,0.2c2.1-10,5.8-17.5,10.2-23.2c6.7-8.5,15.1-12.8,22.1-15.1
		c7-2.2,12.6-2.4,13.6-2.4h0.1h0.1c0.1,0,0.4,0,0.8,0c2.9,0,12.5,0.4,22.2,5.7c4.9,2.6,9.8,6.5,14,12.1c4.2,5.6,7.7,13,9.6,22.8
		l1-0.2h-1l1.5,42.3v8.7h1l-0.9-0.4c-1.8,4.4-4.5,7-6.8,8.5c-1.1,0.7-2.1,1.2-2.9,1.5c-0.4,0.1-0.7,0.2-0.8,0.3
		c-0.1,0-0.2,0-0.2,0.1l0.1,0.3l-0.1-0.3l0.1,0.3l-0.1-0.3l0.2,1v-1h-74.7c-0.3,0-0.5,0.1-0.7,0.3l0.7,0.7l-0.2-1
		c-0.1,0-0.3,0.1-0.5,0.3l0.7,0.7l-0.2-1l0.2,0.9v-1c0,0-0.1,0-0.2,0l0.2,0.9v-1v0.7l0.2-0.7c0,0,0,0-0.2,0v0.7l0.2-0.7
		c0,0-0.3-0.1-0.5-0.2c-1-0.4-2.9-1.3-4.8-3c-2-1.7-4-4-5.4-7.2L194.9,248.9h1H194.9l-0.9,0.4c1.8,4.3,4.7,7.2,7.2,9
		c1.3,0.9,2.4,1.5,3.3,2c0.4,0.2,0.8,0.4,1.1,0.5c0.1,0.1,0.3,0.1,0.4,0.1h0.2c0.1,0,0.1,0,0.3,0c0,0,0.1,0,0.2,0
		c0.1,0,0.3-0.1,0.5-0.3l-0.7-0.7v1h74.7h0.2c0.1,0,2.1-0.5,4.7-2.2c2.5-1.7,5.6-4.6,7.5-9.4c0.1-0.1,0.1-0.2,0.1-0.4v-8.7
		l-1.5-42.3v-0.2c-2-10-5.6-17.7-10-23.6c-6.6-8.8-14.9-13.5-22.2-15.9c-7.2-2.5-13.4-2.7-15.7-2.7c-0.6,0-1,0-1,0l0.1,1v-1
		c0,0-0.1,0-0.2,0c-1.5,0-11.3,0.2-21.9,5.6c-5.3,2.7-10.7,6.7-15.4,12.6c-4.7,5.9-8.5,13.7-10.6,24v0.2l-1.3,42.3v8.7
		c0,0.1,0,0.3,0.1,0.4L194.9,248.9z"/>
	<path d="M194.9,240.5h97.7c0.1,0,0.3-0.1,0.3-0.3c0-0.1-0.1-0.3-0.3-0.3h-97.7c-0.1,0-0.3,0.1-0.3,0.3
		C194.7,240.4,194.8,240.5,194.9,240.5"/>
	<path fill="#FFFFFF" d="M292.6,238.7h-97.7c-0.8,0-1.5,0.7-1.5,1.5s0.7,1.5,1.5,1.5h97.7c0.8,0,1.5-0.7,1.5-1.5
		S293.5,238.7,292.6,238.7"/>
	<path fill="#B5C0C9" d="M194.9,240.5v8.7c2.9,7.6,11.6,10.7,11.6,10.7h75c7.2-1.5,11.1-10.7,11.1-10.7v-8.7H194.9z"/>
	<path fill="#FFFFFF" d="M194.9,240.5h-1v8.9l0.1,0.2c1.6,4.1,4.6,6.9,7.3,8.7c2.6,1.8,4.9,2.6,4.9,2.6l0.2,0.1h75.2h0.1
		c2-0.4,3.7-1.4,5.2-2.5c2.2-1.7,3.8-3.9,4.9-5.7s1.7-3.1,1.7-3.1l0.1-0.2v-10h-99.7v1H194.9v1h96.7v7.7h1l-0.9-0.4
		c-0.1,0.2-1.1,2.5-2.9,4.8c-0.9,1.2-2,2.3-3.2,3.3c-1.3,1-2.7,1.7-4.2,2l0.2,1v-1h-75v1l0.3-0.9c-0.2-0.1-2.3-0.9-4.7-2.5
		c-2.4-1.7-5-4.2-6.3-7.6l-0.9,0.4h1v-8.8H194.9v1V240.5z"/>
	<path fill="#293047" d="M199,219.8l6.6-17.2h2.4l7,17.2h-2.5l-2-5.2h-7.2l-1.9,5.2H199z M203.9,212.7h5.8l-1.8-4.8
		c-0.5-1.4-1-2.6-1.2-3.6c-0.2,1.1-0.5,2.2-0.9,3.3L203.9,212.7z"/>
	<path fill="#293047" d="M216.6,219.8v-12.4h1.9v1.8c0.9-1.4,2.2-2.1,4-2.1c0.8,0,1.4,0.1,2.1,0.4s1.1,0.6,1.4,1.1s0.5,1,0.7,1.6
		c0.1,0.4,0.1,1.1,0.1,2.1v7.7h-2.1v-7.6c0-0.9-0.1-1.5-0.2-1.9c-0.1-0.4-0.5-0.8-0.9-1c-0.4-0.2-0.9-0.4-1.5-0.4
		c-0.9,0-1.7,0.3-2.3,0.9c-0.6,0.6-1,1.7-1,3.2v6.8h-2.2V219.8z"/>
	<path fill="#293047" d="M234.6,217.9l0.3,1.9c-0.6,0.1-1.1,0.2-1.6,0.2c-0.8,0-1.4-0.1-1.8-0.4s-0.7-0.6-0.9-1
		c-0.2-0.4-0.3-1.2-0.3-2.5v-7.2h-1.5v-1.6h1.5v-3.1l2.1-1.3v4.3h2.1v1.6h-2.1v7.3c0,0.6,0,1,0.1,1.2s0.2,0.3,0.4,0.4
		c0.2,0.1,0.4,0.2,0.7,0.2C233.9,218,234.2,217.9,234.6,217.9z"/>
	<path fill="#293047" d="M245.1,215.8l2.2,0.3c-0.3,1.3-1,2.3-1.9,3c-0.9,0.7-2.1,1.1-3.6,1.1c-1.8,0-3.3-0.6-4.3-1.7
		s-1.6-2.7-1.6-4.7c0-2.1,0.5-3.7,1.6-4.9s2.5-1.7,4.2-1.7s3,0.6,4.1,1.7s1.6,2.7,1.6,4.8c0,0.1,0,0.3,0,0.6h-9.3
		c0.1,1.4,0.5,2.4,1.2,3.1s1.6,1.1,2.6,1.1c0.8,0,1.4-0.2,2-0.6C244.5,217.5,244.8,216.7,245.1,215.8z M238.2,212.4h6.9
		c-0.1-1-0.4-1.8-0.8-2.4c-0.7-0.8-1.5-1.2-2.6-1.2c-1,0-1.8,0.3-2.4,1S238.3,211.3,238.2,212.4z"/>
	<path fill="#293047" d="M250,219.8v-12.4h1.9v1.8c0.9-1.4,2.2-2.1,4-2.1c0.8,0,1.4,0.1,2.1,0.4s1.1,0.6,1.4,1.1s0.5,1,0.7,1.6
		c0.1,0.4,0.1,1.1,0.1,2.1v7.7h-2.1v-7.6c0-0.9-0.1-1.5-0.2-1.9c-0.1-0.4-0.5-0.8-0.9-1c-0.4-0.2-0.9-0.4-1.5-0.4
		c-0.9,0-1.7,0.3-2.3,0.9c-0.6,0.6-1,1.7-1,3.2v6.8H250V219.8z"/>
	<path fill="#293047" d="M263.3,219.8v-12.4h1.9v1.8c0.9-1.4,2.2-2.1,4-2.1c0.8,0,1.4,0.1,2.1,0.4s1.1,0.6,1.4,1.1s0.5,1,0.7,1.6
		c0.1,0.4,0.1,1.1,0.1,2.1v7.7h-2.1v-7.6c0-0.9-0.1-1.5-0.2-1.9c-0.1-0.4-0.5-0.8-0.9-1c-0.4-0.2-0.9-0.4-1.5-0.4
		c-0.9,0-1.7,0.3-2.3,0.9c-0.6,0.6-1,1.7-1,3.2v6.8h-2.2V219.8z"/>
	<path fill="#293047" d="M284.8,218.2c-0.8,0.7-1.5,1.1-2.3,1.4s-1.5,0.4-2.3,0.4c-1.4,0-2.4-0.3-3.2-1c-0.8-0.7-1.1-1.5-1.1-2.6
		c0-0.6,0.1-1.2,0.4-1.7s0.6-0.9,1.1-1.2c0.5-0.3,1-0.5,1.5-0.7c0.4-0.1,1-0.2,1.9-0.3c1.7-0.2,3-0.4,3.8-0.7c0-0.3,0-0.5,0-0.6
		c0-0.9-0.2-1.5-0.6-1.8c-0.5-0.5-1.3-0.7-2.4-0.7c-1,0-1.7,0.2-2.2,0.5c-0.5,0.3-0.8,1-1,1.8l-2.1-0.3c0.2-0.9,0.5-1.6,0.9-2.1
		s1.1-1,1.9-1.3s1.8-0.4,2.8-0.4c1.1,0,1.9,0.1,2.6,0.4s1.2,0.6,1.5,0.9c0.3,0.3,0.5,0.9,0.7,1.4c0.1,0.4,0.1,1,0.1,1.9v2.8
		c0,2,0,3.2,0.1,3.7s0.3,1,0.5,1.5h-2.2C285,219.3,284.9,218.8,284.8,218.2z M284.6,213.5c-0.8,0.3-1.9,0.6-3.4,0.8
		c-0.9,0.1-1.5,0.3-1.8,0.4c-0.3,0.1-0.6,0.4-0.8,0.7c-0.2,0.3-0.3,0.6-0.3,1c0,0.6,0.2,1,0.6,1.4s1,0.6,1.9,0.6
		c0.8,0,1.5-0.2,2.2-0.5c0.7-0.3,1.1-0.8,1.4-1.5c0.2-0.5,0.3-1.2,0.3-2.1L284.6,213.5z"/>
	<path fill="#B5C0C9" d="M476.1,378.8h80.8c0.6-3.8,1.8-11.1,1.8-14.1c0-4-0.7-15.3-0.7-15.3h-82h-1.2h-81c0,0-0.7,11.3-0.7,15.3
		c0,2.9,1.2,10.3,1.8,14.1h79.8H476.1z"/>
	<path fill="#0CBC18" d="M476.1,378.8v1h81.7l0.1-0.8c0.3-1.9,0.8-4.7,1.1-7.4c0.4-2.7,0.7-5.3,0.7-6.9c0-2-0.2-5.9-0.4-9.2
		c-0.2-3.3-0.4-6.2-0.4-6.2l-0.1-0.9h-82.9h-1.2h-81.9l-0.1,0.9c0,0-0.2,2.8-0.4,6.2c-0.2,3.3-0.4,7.2-0.4,9.2
		c0,1.6,0.3,4.1,0.7,6.9c0.4,2.7,0.8,5.5,1.1,7.4l0.1,0.8h80.7h1.4v-1v-1h-1.4h-79.8v1l1-0.2c-0.3-1.9-0.7-4.7-1.1-7.4
		c-0.4-2.7-0.7-5.2-0.7-6.6c0-2,0.2-5.8,0.3-9.1c0.1-1.7,0.2-3.2,0.2-4.3c0.1-1.1,0.1-1.8,0.1-1.8l-1-0.1v1h81h1.2h82v-1l-1,0.1
		c0,0,0,0.7,0.1,1.8c0.2,3.4,0.6,10.5,0.6,13.4c0,1.4-0.3,4-0.7,6.6c-0.4,2.7-0.8,5.4-1.1,7.3l1,0.2v-1h-80.8v1.1H476.1z"/>
	<path fill="#0F1F30" d="M430.3,372.6v-17.2h7.6c1.5,0,2.7,0.2,3.5,0.5s1.4,0.9,1.9,1.6s0.7,1.6,0.7,2.6c0,1.2-0.4,2.2-1.2,3.1
		c-0.8,0.9-2,1.4-3.7,1.6c0.6,0.3,1.1,0.6,1.4,0.9c0.7,0.6,1.3,1.4,1.9,2.3l3,4.7h-2.9l-2.3-3.6c-0.7-1-1.2-1.8-1.6-2.4
		s-0.8-0.9-1.2-1.1s-0.7-0.4-1-0.5s-0.7-0.1-1.3-0.1h-2.6v7.6H430.3z M432.5,363h4.9c1,0,1.9-0.1,2.4-0.3c0.5-0.2,1-0.6,1.3-1
		s0.5-1,0.5-1.5c0-0.8-0.3-1.5-0.9-2s-1.5-0.8-2.8-0.8h-5.4V363z"/>
	<path fill="#0F1F30" d="M455.8,368.6l2.2,0.3c-0.3,1.3-1,2.3-1.9,3s-2.1,1.1-3.6,1.1c-1.8,0-3.3-0.6-4.3-1.7s-1.6-2.7-1.6-4.7
		c0-2.1,0.5-3.7,1.6-4.9c1.1-1.2,2.5-1.7,4.2-1.7s3,0.6,4.1,1.7s1.6,2.7,1.6,4.8c0,0.1,0,0.3,0,0.6h-9.3c0.1,1.4,0.5,2.4,1.2,3.1
		s1.6,1.1,2.6,1.1c0.8,0,1.4-0.2,2-0.6C455.2,370.3,455.5,369.5,455.8,368.6z M448.9,365.2h6.9c-0.1-1-0.4-1.8-0.8-2.4
		c-0.7-0.8-1.5-1.2-2.6-1.2c-1,0-1.8,0.3-2.4,1S448.9,364.1,448.9,365.2z"/>
	<path fill="#0F1F30" d="M468.8,368.1l2.1,0.3c-0.2,1.4-0.8,2.5-1.7,3.4c-0.9,0.9-2.1,1.2-3.4,1.2c-1.7,0-3.1-0.6-4.1-1.7
		s-1.6-2.7-1.6-4.8c0-1.3,0.2-2.5,0.7-3.5s1.1-1.8,2-2.3s1.9-0.8,3-0.8c1.4,0,2.5,0.3,3.3,1s1.4,1.7,1.7,2.9l-2.1,0.3
		c-0.2-0.8-0.5-1.5-1-1.9s-1.1-0.6-1.8-0.6c-1.1,0-1.9,0.4-2.6,1.1s-1,2-1,3.6c0,1.7,0.3,2.9,1,3.6s1.5,1.1,2.5,1.1
		c0.8,0,1.5-0.3,2.1-0.8S468.6,369.1,468.8,368.1z"/>
	<path fill="#0F1F30" d="M481.2,368.6l2.2,0.3c-0.3,1.3-1,2.3-1.9,3s-2.1,1.1-3.6,1.1c-1.8,0-3.3-0.6-4.3-1.7s-1.6-2.7-1.6-4.7
		c0-2.1,0.5-3.7,1.6-4.9c1.1-1.2,2.5-1.7,4.2-1.7s3,0.6,4.1,1.7s1.6,2.7,1.6,4.8c0,0.1,0,0.3,0,0.6h-9.3c0.1,1.4,0.5,2.4,1.2,3.1
		s1.6,1.1,2.6,1.1c0.8,0,1.4-0.2,2-0.6C480.6,370.3,480.8,369.5,481.2,368.6z M474.2,365.2h6.9c-0.1-1-0.4-1.8-0.8-2.4
		c-0.7-0.8-1.5-1.2-2.6-1.2c-1,0-1.8,0.3-2.4,1S474.3,364.1,474.2,365.2z"/>
	<path fill="#0F1F30" d="M486,357.9v-2.4h2.1v2.4H486z M486,372.6v-12.4h2.1v12.4H486z"/>
	<path fill="#0F1F30" d="M494.8,372.6l-4.7-12.4h2.2l2.7,7.5c0.3,0.8,0.6,1.6,0.8,2.5c0.2-0.7,0.4-1.4,0.8-2.4l2.8-7.6h2.2
		l-4.7,12.4H494.8z"/>
	<path fill="#0F1F30" d="M511.8,368.6l2.2,0.3c-0.3,1.3-1,2.3-1.9,3s-2.1,1.1-3.6,1.1c-1.8,0-3.3-0.6-4.3-1.7s-1.6-2.7-1.6-4.7
		c0-2.1,0.5-3.7,1.6-4.9c1.1-1.2,2.5-1.7,4.2-1.7s3,0.6,4.1,1.7c1.1,1.1,1.6,2.7,1.6,4.8c0,0.1,0,0.3,0,0.6h-9.3
		c0.1,1.4,0.5,2.4,1.2,3.1s1.6,1.1,2.6,1.1c0.8,0,1.4-0.2,2-0.6S511.5,369.5,511.8,368.6z M504.9,365.2h6.9c-0.1-1-0.4-1.8-0.8-2.4
		c-0.7-0.8-1.5-1.2-2.6-1.2c-1,0-1.8,0.3-2.4,1S505,364.1,504.9,365.2z"/>
	<path fill="#0F1F30" d="M516.6,372.6v-12.4h1.9v1.9c0.5-0.9,0.9-1.5,1.3-1.7s0.9-0.4,1.4-0.4c0.7,0,1.4,0.2,2.2,0.7l-0.7,2
		c-0.5-0.3-1-0.5-1.5-0.5s-0.9,0.1-1.2,0.4s-0.6,0.7-0.8,1.2c-0.2,0.8-0.4,1.6-0.4,2.5v6.5h-2.2V372.6z"/>
	<path fill="#8A9AA5" d="M537,364.3c0,1-1,1.7-2.3,1.7s-2.3-0.8-2.3-1.7c0-1,1-1.7,2.3-1.7S537,363.3,537,364.3z"/>
	<path fill="#8A9AA5" d="M548.5,364.3c0-1,1-1.7,2.3-1.7s2.3,0.8,2.3,1.7c0,1-1,1.7-2.3,1.7S548.5,365.2,548.5,364.3z"/>
	<path fill="#8A9AA5" d="M543.1,360.2c-1,0-1.7-1-1.7-2.3s0.8-2.3,1.7-2.3s1.7,1,1.7,2.3C544.9,359.2,544.1,360.2,543.1,360.2z"/>
	<path fill="#8A9AA5" d="M542.8,368.7c1,0,1.7,1,1.7,2.3s-0.8,2.3-1.7,2.3c-1,0-1.7-1-1.7-2.3C541,369.7,541.8,368.7,542.8,368.7z"
		/>
	<path fill="#8A9AA5" d="M545.3,364.6c0,1.4-1.1,2.5-2.5,2.5s-2.5-1.1-2.5-2.5s1.1-2.5,2.5-2.5S545.3,363.2,545.3,364.6z"/>
	<path fill="#8A9AA5" d="M398.8,369.7c0-0.6,0.7-1.1,1.5-1.1h20c0.8,0,1.5,0.5,1.5,1.1v3.9c0,0.6-0.7,1.1-1.5,1.1h-20
		c-0.8,0-1.5-0.5-1.5-1.1V369.7z"/>
	<path fill="#0CBC18" d="M273.6,337.5c0-2.9,0.8-5.1,2.3-6.7s3.5-2.4,5.9-2.4c1.6,0,3,0.4,4.3,1.1s2.2,1.8,2.9,3.2
		c0.7,1.4,1,2.9,1,4.6s-0.4,3.3-1.1,4.7c-0.7,1.4-1.7,2.4-3,3.1s-2.7,1.1-4.2,1.1c-1.6,0-3.1-0.4-4.3-1.2c-1.2-0.8-2.2-1.8-2.9-3.2
		S273.6,339,273.6,337.5z M276,337.6c0,2.1,0.6,3.7,1.7,4.9c1.1,1.2,2.5,1.8,4.2,1.8s3.1-0.6,4.2-1.8c1.1-1.2,1.7-2.9,1.7-5.1
		c0-1.4-0.2-2.6-0.7-3.7s-1.2-1.9-2.1-2.4s-1.9-0.9-3.1-0.9c-1.6,0-3,0.6-4.2,1.7S276,335,276,337.6z"/>
	<path fill="#0CBC18" d="M292.7,350.7v-17.2h1.9v1.6c0.5-0.6,1-1.1,1.5-1.4s1.3-0.5,2.1-0.5c1.1,0,2,0.3,2.8,0.8s1.4,1.3,1.8,2.3
		s0.6,2.1,0.6,3.3c0,1.3-0.2,2.4-0.7,3.4s-1.1,1.8-2,2.3s-1.8,0.8-2.7,0.8c-0.7,0-1.3-0.1-1.9-0.4s-1-0.7-1.4-1.1v6.1L292.7,350.7z
		 M294.6,339.7c0,1.6,0.3,2.8,1,3.6c0.7,0.8,1.4,1.1,2.4,1.1c0.9,0,1.7-0.4,2.4-1.2c0.7-0.8,1-2,1-3.7c0-1.6-0.3-2.8-1-3.6
		c-0.7-0.8-1.4-1.2-2.3-1.2s-1.7,0.4-2.4,1.3S294.6,338.1,294.6,339.7z"/>
	<path fill="#0CBC18" d="M310.7,344l0.3,1.9c-0.6,0.1-1.1,0.2-1.6,0.2c-0.8,0-1.4-0.1-1.8-0.4s-0.7-0.6-0.9-1
		c-0.2-0.4-0.3-1.2-0.3-2.5V335h-1.5v-1.6h1.5v-3.1l2.1-1.3v4.3h2.1v1.6h-2.1v7.3c0,0.6,0,1,0.1,1.2s0.2,0.3,0.4,0.4
		c0.2,0.1,0.4,0.2,0.7,0.2C310,344.1,310.3,344.1,310.7,344z"/>
	<path fill="#0CBC18" d="M312.8,331.1v-2.4h2.1v2.4H312.8z M312.8,345.9v-12.4h2.1v12.4H312.8z"/>
	<path fill="#0CBC18" d="M317.3,339.7c0-2.3,0.6-4,1.9-5.1c1.1-0.9,2.4-1.4,3.9-1.4c1.7,0,3.1,0.6,4.2,1.7s1.6,2.7,1.6,4.6
		c0,1.6-0.2,2.9-0.7,3.8s-1.2,1.6-2.1,2.1s-1.9,0.8-3,0.8c-1.7,0-3.2-0.6-4.2-1.7C317.9,343.4,317.3,341.8,317.3,339.7z
		 M319.5,339.7c0,1.6,0.3,2.8,1,3.6c0.7,0.8,1.6,1.2,2.6,1.2s1.9-0.4,2.6-1.2c0.7-0.8,1-2,1-3.6c0-1.5-0.3-2.7-1-3.5
		s-1.6-1.2-2.6-1.2c-1.1,0-1.9,0.4-2.6,1.2C319.8,337,319.5,338.1,319.5,339.7z"/>
	<path fill="#0CBC18" d="M331.4,345.9v-12.4h1.9v1.8c0.9-1.4,2.2-2.1,4-2.1c0.8,0,1.4,0.1,2.1,0.4s1.1,0.6,1.4,1.1s0.5,1,0.7,1.6
		c0.1,0.4,0.1,1.1,0.1,2.1v7.7h-2.1v-7.6c0-0.9-0.1-1.5-0.2-1.9s-0.5-0.8-0.9-1s-0.9-0.4-1.5-0.4c-0.9,0-1.7,0.3-2.3,0.9
		c-0.6,0.6-1,1.7-1,3.2v6.8h-2.2V345.9z"/>
	<path fill="#0CBC18" d="M352.9,344.4c-0.8,0.7-1.5,1.1-2.3,1.4s-1.5,0.4-2.3,0.4c-1.4,0-2.4-0.3-3.2-1c-0.8-0.7-1.1-1.5-1.1-2.6
		c0-0.6,0.1-1.2,0.4-1.7s0.6-0.9,1.1-1.2c0.5-0.3,1-0.5,1.5-0.7c0.4-0.1,1-0.2,1.9-0.3c1.7-0.2,3-0.4,3.8-0.7c0-0.3,0-0.5,0-0.6
		c0-0.9-0.2-1.5-0.6-1.8c-0.5-0.5-1.3-0.7-2.4-0.7c-1,0-1.7,0.2-2.2,0.5s-0.8,1-1,1.8l-2.1-0.3c0.2-0.9,0.5-1.6,0.9-2.1
		s1.1-1,1.9-1.3s1.8-0.4,2.8-0.4c1.1,0,1.9,0.1,2.6,0.4s1.2,0.6,1.5,0.9s0.5,0.9,0.7,1.4c0.1,0.4,0.1,1,0.1,1.9v2.8
		c0,2,0,3.2,0.1,3.7s0.3,1,0.5,1.5h-2.2C353.1,345.5,353,344.9,352.9,344.4z M352.7,339.6c-0.8,0.3-1.9,0.6-3.4,0.8
		c-0.9,0.1-1.5,0.3-1.8,0.4s-0.6,0.4-0.8,0.7c-0.2,0.3-0.3,0.6-0.3,1c0,0.6,0.2,1,0.6,1.4s1,0.6,1.9,0.6c0.8,0,1.5-0.2,2.2-0.5
		s1.1-0.8,1.4-1.5c0.2-0.5,0.3-1.2,0.3-2.1L352.7,339.6z"/>
	<rect x="358.1" y="328.7" fill="#0CBC18" width="2.1" height="17.2"/>
</g>
</svg>
