<?xml version="1.0" encoding="utf-8"?>
<!-- Generator: Adobe Illustrator 18.1.1, SVG Export Plug-In . SVG Version: 6.00 Build 0)  -->
<svg version="1.1" id="Layer_1" xmlns="http://www.w3.org/2000/svg" xmlns:xlink="http://www.w3.org/1999/xlink" x="0px" y="0px"
	 viewBox="0 0 612 792" enable-background="new 0 0 612 792" xml:space="preserve">
<g>
	<polyline fill="#FFFFFF" points="298.9,401.1 298.9,204.7 296.9,204.7 296.9,401.1 	"/>
	<path fill="#FFFFFF" d="M342.1,324.2l-0.4-40.8c0,0,0-2.8-2.5-2.8s-2.5,2.8-2.5,2.8l-0.4,40.8H342.1z"/>
	<path fill="#B5C0C9" d="M298,348.9h73.4v-20.3c0,0,0.5-2.7-7.9-3.4c0,0-25.9-2.8-65.3-3.3h-0.5c-39.4,0.5-65.3,3.3-65.3,3.3
		c-8.3,0.8-7.9,3.4-7.9,3.4v20.3H298z"/>
	<path fill="#FFFFFF" d="M298,348.9v1h74.4v-21.3h-1l1,0.2c0-0.1,0-0.1,0-0.3c0-0.3-0.1-0.7-0.3-1.1c-0.4-0.7-1.1-1.4-2.4-1.9
		c-1.3-0.6-3.2-1-6.1-1.3l-0.1,1l0.1-1c0,0-26-2.8-65.4-3.3h-0.5c-39.4,0.5-65.4,3.3-65.4,3.3l0.1,1l-0.1-1c-3.9,0.4-6,1.1-7.3,2
		c-0.6,0.4-1,0.9-1.3,1.3c-0.2,0.4-0.3,0.8-0.3,1.1c0,0.1,0,0.2,0,0.2l1-0.2h-1v21.3H298V348.9v-1h-72.5v-19.4v-0.1l-0.6,0.1h0.6
		v-0.1l-0.6,0.1h0.6h-0.2h0.2h-0.2h0.2c0,0,0-0.1,0.1-0.2c0.1-0.2,0.5-0.6,1.6-1.1c1-0.4,2.7-0.9,5.3-1.1c0,0,0.4,0,1.2-0.1
		c5.5-0.5,29.6-2.7,64-3.2v-1v1h0.5v-1v1c19.7,0.2,36,1.1,47.4,1.8c5.7,0.4,10.2,0.7,13.2,1c1.5,0.1,2.7,0.2,3.5,0.3
		s1.2,0.1,1.2,0.1c3.7,0.3,5.5,1,6.3,1.6c0.4,0.3,0.6,0.5,0.6,0.6l0.1,0.1h0.5l-0.5-0.1v0.1h0.5l-0.5-0.1v0.1v19.4H298V348.9z"/>
	<polygon points="263.5,344.7 263.5,329.5 257.8,329.5 257.8,327.5 271.5,327.5 271.5,329.5 265.8,329.5 265.8,344.7 	"/>
	<path d="M278.7,344.7l-6.7-17.2h2.5L279,340c0.4,1,0.7,1.9,0.9,2.8c0.3-0.9,0.6-1.9,0.9-2.8l4.6-12.5h2.3l-6.7,17.2H278.7z"/>
	<rect x="287.4" y="337.5" width="6.5" height="2.1"/>
	<polygon points="296.5,344.7 296.5,327.5 298.8,327.5 298.8,334.6 307.7,334.6 307.7,327.5 310,327.5 310,344.7 307.7,344.7 
		307.7,336.6 298.8,336.6 298.8,344.7 	"/>
	<path d="M321.7,344.7v-1.8c-1,1.4-2.3,2.1-3.9,2.1c-0.7,0-1.4-0.1-2.1-0.4s-1.1-0.6-1.4-1.1s-0.5-0.9-0.7-1.6
		c-0.1-0.4-0.1-1.1-0.1-2v-7.7h2.1v6.9c0,1.1,0,1.8,0.1,2.2c0.1,0.6,0.4,1,0.8,1.3s1,0.5,1.6,0.5s1.2-0.2,1.8-0.5s0.9-0.8,1.2-1.3
		c0.3-0.5,0.3-1.4,0.3-2.4v-6.7h2.1v12.4h-1.8V344.7z"/>
	<path d="M328.8,344.7h-2v-17.2h2.1v6.1c0.9-1.1,2-1.7,3.4-1.7c0.8,0,1.5,0.2,2.2,0.5s1.2,0.7,1.7,1.3s0.8,1.2,1,2s0.4,1.6,0.4,2.5
		c0,2.1-0.5,3.8-1.6,4.9s-2.3,1.7-3.8,1.7s-2.6-0.6-3.5-1.8L328.8,344.7L328.8,344.7z M328.8,338.4c0,1.5,0.2,2.6,0.6,3.2
		c0.7,1.1,1.6,1.6,2.7,1.6c0.9,0,1.7-0.4,2.4-1.2c0.7-0.8,1-2,1-3.6s-0.3-2.8-1-3.6c-0.7-0.8-1.4-1.2-2.3-1.2s-1.7,0.4-2.4,1.2
		S328.8,336.9,328.8,338.4z"/>
	<path fill="#B5C0C9" d="M298.1,419.8h80.8c0.6-3.8,1.8-11.1,1.8-14.1c0-4-0.7-15.3-0.7-15.3h-82h-1.2h-81c0,0-0.7,11.3-0.7,15.3
		c0,2.9,1.2,10.3,1.8,14.1h79.8H298.1z"/>
	<path fill="#FFFFFF" d="M298.1,419.8v1h81.7l0.1-0.8c0.3-1.9,0.8-4.7,1.1-7.4c0.4-2.7,0.7-5.3,0.7-6.9c0-2-0.2-5.9-0.4-9.2
		c-0.2-3.3-0.4-6.2-0.4-6.2l-0.1-0.9H298h-1.2h-81.9l-0.1,0.9c0,0-0.2,2.8-0.4,6.2c-0.2,3.3-0.4,7.2-0.4,9.2c0,1.6,0.3,4.1,0.7,6.9
		c0.4,2.7,0.8,5.5,1.1,7.4l0.1,0.8h80.7h1.4v-1v-1h-1.4h-79.8v1l1-0.2c-0.3-1.9-0.7-4.7-1.1-7.4c-0.4-2.7-0.7-5.2-0.7-6.6
		c0-2,0.2-5.8,0.3-9.1c0.1-1.7,0.2-3.2,0.2-4.3c0.1-1.1,0.1-1.8,0.1-1.8l-1-0.1v1h81h1.2h82v-1l-1,0.1c0,0,0,0.7,0.1,1.8
		c0.2,3.4,0.6,10.5,0.6,13.4c0,1.4-0.3,4-0.7,6.6c-0.4,2.7-0.8,5.4-1.1,7.3l1,0.2v-1h-80.8v1.1H298.1z"/>
	<path fill="#0F1F30" d="M252.3,413.7v-17.2h7.6c1.5,0,2.7,0.2,3.5,0.5s1.4,0.9,1.9,1.6s0.7,1.6,0.7,2.6c0,1.2-0.4,2.2-1.2,3.1
		s-2,1.4-3.7,1.6c0.6,0.3,1.1,0.6,1.4,0.9c0.7,0.6,1.3,1.4,1.9,2.3l3,4.7h-2.9l-2.3-3.6c-0.7-1-1.2-1.8-1.6-2.4s-0.8-0.9-1.2-1.1
		s-0.7-0.4-1-0.5s-0.7-0.1-1.3-0.1h-2.6v7.6H252.3z M254.6,404.1h4.9c1,0,1.9-0.1,2.4-0.3s1-0.6,1.3-1s0.5-1,0.5-1.5
		c0-0.8-0.3-1.5-0.9-2s-1.5-0.8-2.8-0.8h-5.4V404.1z"/>
	<path fill="#0F1F30" d="M277.8,409.7l2.2,0.3c-0.3,1.3-1,2.3-1.9,3s-2.1,1.1-3.6,1.1c-1.8,0-3.3-0.6-4.3-1.7s-1.6-2.7-1.6-4.7
		c0-2.1,0.5-3.7,1.6-4.9s2.5-1.7,4.2-1.7s3,0.6,4.1,1.7s1.6,2.7,1.6,4.8c0,0.1,0,0.3,0,0.6h-9.3c0.1,1.4,0.5,2.4,1.2,3.1
		s1.6,1.1,2.6,1.1c0.8,0,1.4-0.2,2-0.6S277.5,410.5,277.8,409.7z M270.9,406.2h6.9c-0.1-1-0.4-1.8-0.8-2.4c-0.7-0.8-1.5-1.2-2.6-1.2
		c-1,0-1.8,0.3-2.4,1S271,405.2,270.9,406.2z"/>
	<path fill="#0F1F30" d="M290.8,409.1l2.1,0.3c-0.2,1.4-0.8,2.5-1.7,3.4s-2.1,1.2-3.4,1.2c-1.7,0-3.1-0.6-4.1-1.7s-1.6-2.7-1.6-4.8
		c0-1.3,0.2-2.5,0.7-3.5s1.1-1.8,2-2.3s1.9-0.8,3-0.8c1.4,0,2.5,0.3,3.3,1s1.4,1.7,1.7,2.9l-2.1,0.3c-0.2-0.8-0.5-1.5-1-1.9
		s-1.1-0.6-1.8-0.6c-1.1,0-1.9,0.4-2.6,1.1s-1,2-1,3.6c0,1.7,0.3,2.9,1,3.6s1.5,1.1,2.5,1.1c0.8,0,1.5-0.3,2.1-0.8
		S290.6,410.2,290.8,409.1z"/>
	<path fill="#0F1F30" d="M303.2,409.7l2.2,0.3c-0.3,1.3-1,2.3-1.9,3s-2.1,1.1-3.6,1.1c-1.8,0-3.3-0.6-4.3-1.7s-1.6-2.7-1.6-4.7
		c0-2.1,0.5-3.7,1.6-4.9c1.1-1.2,2.5-1.7,4.2-1.7s3,0.6,4.1,1.7s1.6,2.7,1.6,4.8c0,0.1,0,0.3,0,0.6h-9.4c0.1,1.4,0.5,2.4,1.2,3.1
		s1.6,1.1,2.6,1.1c0.8,0,1.4-0.2,2-0.6S302.9,410.5,303.2,409.7z M296.3,406.2h6.9c-0.1-1-0.4-1.8-0.8-2.4c-0.7-0.8-1.5-1.2-2.6-1.2
		c-1,0-1.8,0.3-2.4,1S296.3,405.2,296.3,406.2z"/>
	<path fill="#0F1F30" d="M308,398.9v-2.4h2.1v2.4H308z M308,413.7v-12.4h2.1v12.4H308z"/>
	<path fill="#0F1F30" d="M316.8,413.7l-4.7-12.4h2.2l2.7,7.5c0.3,0.8,0.6,1.6,0.8,2.5c0.2-0.7,0.4-1.4,0.8-2.4l2.8-7.6h2.2
		l-4.7,12.4H316.8z"/>
	<path fill="#0F1F30" d="M333.9,409.7l2.2,0.3c-0.3,1.3-1,2.3-1.9,3s-2.1,1.1-3.6,1.1c-1.8,0-3.3-0.6-4.3-1.7s-1.6-2.7-1.6-4.7
		c0-2.1,0.5-3.7,1.6-4.9s2.5-1.7,4.2-1.7s3,0.6,4.1,1.7s1.6,2.7,1.6,4.8c0,0.1,0,0.3,0,0.6h-9.3c0.1,1.4,0.5,2.4,1.2,3.1
		s1.6,1.1,2.6,1.1c0.8,0,1.4-0.2,2-0.6S333.5,410.5,333.9,409.7z M326.9,406.2h6.9c-0.1-1-0.4-1.8-0.8-2.4c-0.7-0.8-1.5-1.2-2.6-1.2
		c-1,0-1.8,0.3-2.4,1C327.4,404.3,327,405.2,326.9,406.2z"/>
	<path fill="#0F1F30" d="M338.7,413.7v-12.4h1.9v1.9c0.5-0.9,0.9-1.5,1.3-1.7s0.9-0.4,1.4-0.4c0.7,0,1.4,0.2,2.2,0.7l-0.7,2
		c-0.5-0.3-1-0.5-1.5-0.5s-0.9,0.1-1.2,0.4c-0.3,0.3-0.6,0.7-0.8,1.2c-0.2,0.8-0.4,1.6-0.4,2.5v6.5h-2.2L338.7,413.7L338.7,413.7z"
		/>
	<path fill="#8A9AA5" d="M359,405.3c0,1-1,1.7-2.3,1.7s-2.3-0.8-2.3-1.7c0-1,1-1.7,2.3-1.7C358,403.6,359,404.4,359,405.3z"/>
	<path fill="#8A9AA5" d="M370.5,405.3c0-1,1-1.7,2.3-1.7s2.3,0.8,2.3,1.7c0,1-1,1.7-2.3,1.7C371.5,407.1,370.5,406.3,370.5,405.3z"
		/>
	<path fill="#8A9AA5" d="M365.2,401.3c-1,0-1.7-1-1.7-2.3s0.8-2.3,1.7-2.3s1.7,1,1.7,2.3S366.1,401.3,365.2,401.3z"/>
	<path fill="#8A9AA5" d="M364.8,409.7c1,0,1.7,1,1.7,2.3s-0.8,2.3-1.7,2.3c-1,0-1.7-1-1.7-2.3S363.8,409.7,364.8,409.7z"/>
	<path fill="#8A9AA5" d="M367.3,405.6c0,1.4-1.1,2.5-2.5,2.5s-2.5-1.1-2.5-2.5s1.1-2.5,2.5-2.5C366.2,403.2,367.3,404.3,367.3,405.6
		z"/>
	<path fill="#8A9AA5" d="M222.9,410.7c0-0.6-1.3-1.1-0.5-1.1h20c0.8,0,1.5,0.5,1.5,1.1v3.9c0,0.6-0.7,1.1-1.5,1.1h-20
		c-0.8,0-1.5-0.5-1.5-1.1L222.9,410.7z"/>
	<path fill="#FFFFFF" d="M249.1,246.4v-8.7l1.3-42.3c8.7-42.3,47.1-41.4,47.1-41.4s39.1-2.2,47.8,41.4l1.5,42.3v8.7
		c-3.8,9.3-11.5,11-11.5,11h-74.7C260.5,257.5,252.5,254.7,249.1,246.4z"/>
	<path fill="#FFFFFF" d="M249.1,246.4h1v-8.7l1.3-42.3h-1l1,0.2c2.1-10,5.8-17.5,10.2-23.2c6.7-8.5,15.1-12.8,22.1-15.1
		c7-2.2,12.6-2.4,13.6-2.4h0.1h0.1c0.1,0,0.4,0,0.8,0c2.9,0,12.5,0.4,22.2,5.7c4.9,2.6,9.8,6.5,14,12.1c4.2,5.6,7.7,13,9.6,22.8
		l1-0.2h-1l1.5,42.3v8.7h1l-0.9-0.4c-1.8,4.4-4.5,7-6.8,8.5c-1.1,0.7-2.1,1.2-2.9,1.5c-0.4,0.1-0.7,0.2-0.8,0.3
		c-0.1,0-0.2,0-0.2,0.1l0.1,0.3l-0.1-0.3l0.1,0.3l-0.1-0.3l0.2,1v-1h-74.7c-0.3,0-0.5,0.1-0.7,0.3l0.7,0.7l-0.2-1
		c-0.1,0-0.3,0.1-0.5,0.3l0.7,0.7l-0.2-1l0.2,0.9v-1c0,0-0.1,0-0.2,0l0.2,0.9v-1v0.7l0.2-0.7c0,0,0,0-0.2,0v0.7l0.2-0.7
		c0,0-0.3-0.1-0.5-0.2c-1-0.4-2.9-1.3-4.8-3c-2-1.7-4-4-5.4-7.2L249.1,246.4h1H249.1l-0.9,0.4c1.8,4.3,4.7,7.2,7.2,9
		c1.3,0.9,2.4,1.5,3.3,2c0.4,0.2,0.8,0.4,1.1,0.5c0.1,0.1,0.3,0.1,0.4,0.1h0.2c0.1,0,0.1,0,0.3,0c0,0,0.1,0,0.2,0s0.3-0.1,0.5-0.3
		l-0.7-0.7v1h74.7h0.2c0.1,0,2.1-0.5,4.7-2.2c2.5-1.7,5.6-4.6,7.5-9.4c0.1-0.1,0.1-0.2,0.1-0.4v-8.7l-1.5-42.3v-0.2
		c-2-10-5.6-17.7-10-23.6c-6.6-8.8-14.9-13.5-22.2-15.9c-7.2-2.5-13.4-2.7-15.7-2.7c-0.6,0-1,0-1,0l0.1,1v-1c0,0-0.1,0-0.2,0
		c-1.5,0-11.3,0.2-21.9,5.6c-5.3,2.7-10.7,6.7-15.4,12.6c-4.7,5.9-8.5,13.7-10.6,24v0.2l-1.3,42.3v8.7c0,0.1,0,0.3,0.1,0.4
		L249.1,246.4z"/>
	<path d="M249.1,238h97.7c0.1,0,0.3-0.1,0.3-0.3c0-0.1-0.1-0.3-0.3-0.3h-97.7c-0.1,0-0.3,0.1-0.3,0.3
		C248.8,237.8,248.9,238,249.1,238"/>
	<path fill="#FFFFFF" d="M346.8,236.2h-97.7c-0.8,0-1.5,0.7-1.5,1.5s0.7,1.5,1.5,1.5h97.7c0.8,0,1.5-0.7,1.5-1.5
		S347.6,236.2,346.8,236.2"/>
	<path fill="#B5C0C9" d="M249.1,238v8.7c2.9,7.6,11.6,10.7,11.6,10.7h75c7.2-1.5,11.1-10.7,11.1-10.7V238H249.1z"/>
	<path fill="#FFFFFF" d="M249.1,238h-1v8.9l0.1,0.2c1.6,4.1,4.6,6.9,7.3,8.7c2.6,1.8,4.9,2.6,4.9,2.6l0.2,0.1h75.3h0.1
		c2-0.4,3.7-1.4,5.2-2.5c2.2-1.7,3.8-3.9,4.9-5.7s1.7-3.1,1.7-3.1l0.1-0.2v-10h-99.7v1H249.1v1h96.7v7.7h1l-0.9-0.4
		c-0.1,0.2-1.1,2.5-2.9,4.8c-0.9,1.2-2,2.3-3.2,3.3c-1.3,1-2.7,1.7-4.2,2l0.2,1v-1h-75v1l0.3-0.9c-0.2-0.1-2.3-0.9-4.7-2.5
		c-2.4-1.7-5-4.2-6.3-7.6l-0.9,0.4h1V238H249.1v1V238z"/>
	<path fill="#293047" d="M253.2,217.3l6.6-17.2h2.4l7,17.2h-2.5l-2-5.2h-7.2l-1.9,5.2H253.2z M258.1,210.2h5.8l-1.8-4.8
		c-0.5-1.4-1-2.6-1.2-3.6c-0.2,1.1-0.5,2.2-0.9,3.3L258.1,210.2z"/>
	<path fill="#293047" d="M270.8,217.3v-12.4h1.9v1.8c0.9-1.4,2.2-2.1,4-2.1c0.8,0,1.4,0.1,2.1,0.4s1.1,0.6,1.4,1.1s0.5,1,0.7,1.6
		c0.1,0.4,0.1,1.1,0.1,2.1v7.7h-2.1v-7.6c0-0.9-0.1-1.5-0.2-1.9c-0.1-0.4-0.5-0.8-0.9-1c-0.4-0.2-0.9-0.4-1.5-0.4
		c-0.9,0-1.7,0.3-2.3,0.9s-1,1.7-1,3.2v6.8h-2.2V217.3z"/>
	<path fill="#293047" d="M288.8,215.4l0.3,1.9c-0.6,0.1-1.1,0.2-1.6,0.2c-0.8,0-1.4-0.1-1.8-0.4s-0.7-0.6-0.9-1
		c-0.2-0.4-0.3-1.2-0.3-2.5v-7.2H283v-1.6h1.5v-3.1l2.1-1.3v4.3h2.1v1.6h-2.1v7.3c0,0.6,0,1,0.1,1.2s0.2,0.3,0.4,0.4
		c0.2,0.1,0.4,0.2,0.7,0.2C288.1,215.5,288.4,215.4,288.8,215.4z"/>
	<path fill="#293047" d="M299.3,213.3l2.2,0.3c-0.3,1.3-1,2.3-1.9,3c-0.9,0.7-2.1,1.1-3.6,1.1c-1.8,0-3.3-0.6-4.3-1.7
		s-1.6-2.7-1.6-4.7c0-2.1,0.5-3.7,1.6-4.9s2.5-1.7,4.2-1.7s3,0.6,4.1,1.7s1.6,2.7,1.6,4.8c0,0.1,0,0.3,0,0.6h-9.3
		c0.1,1.4,0.5,2.4,1.2,3.1s1.6,1.1,2.6,1.1c0.8,0,1.4-0.2,2-0.6S299,214.2,299.3,213.3z M292.4,209.9h6.9c-0.1-1-0.4-1.8-0.8-2.4
		c-0.7-0.8-1.5-1.2-2.6-1.2c-1,0-1.8,0.3-2.4,1S292.5,208.8,292.4,209.9z"/>
	<path fill="#293047" d="M304.2,217.3v-12.4h1.9v1.8c0.9-1.4,2.2-2.1,4-2.1c0.8,0,1.4,0.1,2.1,0.4s1.1,0.6,1.4,1.1s0.5,1,0.7,1.6
		c0.1,0.4,0.1,1.1,0.1,2.1v7.7h-2.1v-7.6c0-0.9-0.1-1.5-0.2-1.9c-0.1-0.4-0.5-0.8-0.9-1c-0.4-0.2-0.9-0.4-1.5-0.4
		c-0.9,0-1.7,0.3-2.3,0.9s-1,1.7-1,3.2v6.8h-2.2V217.3z"/>
	<path fill="#293047" d="M317.5,217.3v-12.4h1.9v1.8c0.9-1.4,2.2-2.1,4-2.1c0.8,0,1.4,0.1,2.1,0.4s1.1,0.6,1.4,1.1s0.5,1,0.7,1.6
		c0.1,0.4,0.1,1.1,0.1,2.1v7.7h-2.1v-7.6c0-0.9-0.1-1.5-0.2-1.9c-0.1-0.4-0.5-0.8-0.9-1c-0.4-0.2-0.9-0.4-1.5-0.4
		c-0.9,0-1.7,0.3-2.3,0.9s-1,1.7-1,3.2v6.8h-2.2V217.3z"/>
	<path fill="#293047" d="M339,215.7c-0.8,0.7-1.5,1.1-2.3,1.4c-0.8,0.3-1.5,0.4-2.3,0.4c-1.4,0-2.4-0.3-3.2-1
		c-0.8-0.7-1.1-1.5-1.1-2.6c0-0.6,0.1-1.2,0.4-1.7s0.6-0.9,1.1-1.2c0.5-0.3,1-0.5,1.5-0.7c0.4-0.1,1-0.2,1.9-0.3
		c1.7-0.2,3-0.4,3.8-0.7c0-0.3,0-0.5,0-0.6c0-0.9-0.2-1.5-0.6-1.8c-0.5-0.5-1.3-0.7-2.4-0.7c-1,0-1.7,0.2-2.2,0.5
		c-0.5,0.3-0.8,1-1,1.8l-2.1-0.3c0.2-0.9,0.5-1.6,0.9-2.1s1.1-1,1.9-1.3s1.8-0.4,2.8-0.4c1.1,0,1.9,0.1,2.6,0.4s1.2,0.6,1.5,0.9
		c0.3,0.3,0.5,0.9,0.7,1.4c0.1,0.4,0.1,1,0.1,1.9v2.8c0,2,0,3.2,0.1,3.7s0.3,1,0.5,1.5h-2.2C339.2,216.8,339.1,216.3,339,215.7z
		 M338.8,211c-0.8,0.3-1.9,0.6-3.4,0.8c-0.9,0.1-1.5,0.3-1.8,0.4c-0.3,0.1-0.6,0.4-0.8,0.7c-0.2,0.3-0.3,0.6-0.3,1
		c0,0.6,0.2,1,0.6,1.4s1,0.6,1.9,0.6c0.8,0,1.5-0.2,2.2-0.5c0.7-0.3,1.1-0.8,1.4-1.5c0.2-0.5,0.3-1.2,0.3-2.1L338.8,211z"/>
</g>
</svg>
