<?xml version="1.0" encoding="utf-8"?>
<!-- Generator: Adobe Illustrator 17.1.0, SVG Export Plug-In . SVG Version: 6.00 Build 0)  -->
<!DOCTYPE svg PUBLIC "-//W3C//DTD SVG 1.1//EN" "http://www.w3.org/Graphics/SVG/1.1/DTD/svg11.dtd">
<svg version="1.1" id="Layer_1" xmlns="http://www.w3.org/2000/svg" xmlns:xlink="http://www.w3.org/1999/xlink" x="0px" y="0px"
	 viewBox="0 0 800 600" enable-background="new 0 0 800 600" xml:space="preserve">
<g>
	<polyline fill="none" stroke="#010101" stroke-width="2" stroke-miterlimit="10" points="143.5,93.8 143.5,318.8 143.5,401.7 
		262.9,401.7 377.4,401.7 	"/>
	<g>
		<g>
			<path fill="#B5C0C9" d="M412.1,421.2h133.7c1-5.9,2.9-17.2,2.9-21.8c0-6.2-1-27-1-27H412.1h-2H274.8c0,0-1,20.8-1,27
				c0,4.6,2,15.9,2.9,21.8h133.7H412.1z"/>
			<path fill="#B5C0C9" d="M545.8,421.5H276.4c0,0-0.3,0-0.3-0.3c-2-11.1-2.9-18.5-2.9-21.8c0-6.2,1-26.7,1-27c0,0,0-0.3,0.3-0.3
				h272.9c0,0,0.3,0,0.3,0.3c0,0.3,1,20.8,1,27C548.7,402.7,547.7,410.5,545.8,421.5C546.1,421.5,545.8,421.5,545.8,421.5z
				 M276.4,421.2h269c2-11.1,2.9-18.5,2.9-21.8c0-5.9-1-24.7-1-26.7H274.8c0,2.3-1,20.8-1,26.7C273.8,402.7,274.8,410.1,276.4,421.2
				z"/>
			<path fill="#8A9AA5" d="M319.4,372.7c0,0,19.2,43.6,21.5,47.2h141.5c0,0,17.2-34.8,21.8-47.5L319.4,372.7z"/>
			<path fill="#231F20" d="M476.2,421.5H319.7c0,0-0.3,0-0.3-0.3c0-0.3,0-0.3,0.3-0.3h156.5C476.5,421.2,476.5,421.2,476.2,421.5
				C476.5,421.5,476.5,421.5,476.2,421.5z"/>
			<g>
				<g>
					<g>
						<path fill="#8A9AA5" d="M518.1,397.1c0,1.3-2,2.3-4.2,2.3c-2.3,0-4.2-1-4.2-2.3c0-1.3,2-2.3,4.2-2.3
							C516.2,394.9,518.1,395.8,518.1,397.1z"/>
						<path fill="#8A9AA5" d="M542.2,396.8c0,1.3-2,2.3-4.2,2.3s-4.2-1-4.2-2.3s2-2.3,4.2-2.3C540.2,394.9,542.2,395.8,542.2,396.8z
							"/>
					</g>
					<g>
						<path fill="#8A9AA5" d="M525.9,404.9c1.3,0,2.3,2,2.3,4.2c0,2.3-1,4.2-2.3,4.2s-2.3-2-2.3-4.2
							C523.7,406.9,524.6,404.9,525.9,404.9z"/>
						<path fill="#8A9AA5" d="M525.9,380.5c1.3,0,2.3,2,2.3,4.2c0,2.3-1,4.2-2.3,4.2s-2.3-2-2.3-4.2
							C523.7,382.5,524.6,380.5,525.9,380.5z"/>
					</g>
				</g>
				<path fill="#8A9AA5" d="M530.5,397.1c0,2.6-2,4.6-4.6,4.6c-2.6,0-4.6-2-4.6-4.6c0-2.6,2-4.6,4.6-4.6
					C528.5,392.6,530.5,394.5,530.5,397.1z"/>
			</g>
			<path fill="#010101" d="M547.4,422.5H276.1l-0.3-1c-2-11.4-2.9-18.5-2.9-22.1c0-6.2,1-26.4,1-27v-1.3h275.5v1.3c0,1,1,20.8,1,27
				c0,3.3-1,10.7-2.9,22.1V422.5z M278,420.2h267.4c1.6-10.4,2.6-17.6,2.6-20.8c0-5.2-1-21.5-1-25.7H276.4c-0.3,4.6-1,20.5-1,25.7
				C275.4,402.7,276.4,409.8,278,420.2z"/>
			<path fill="#8A9AA5" d="M285.2,407.2c0-1,1-1.6,2.3-1.6h31.2c1.3,0,2.3,0.7,2.3,1.6v6.2c0,1-1,1.6-2.3,1.6h-31.2
				c-1.3,0-2.3-0.7-2.3-1.6V407.2z"/>
		</g>
		<rect x="279" y="383.5" fill="none" width="263.8" height="33.5"/>
		<text transform="matrix(1 0 0 1 346.612 406.8185)" fill="#FFFFFF" font-family="'Helvetica-Light'" font-size="32.5314">Receiver</text>
	</g>
	<polyline fill="none" stroke="#010101" stroke-width="2" stroke-miterlimit="10" points="113.9,94 113.9,414.9 113.9,472.8 
		233.3,472.8 366.7,472.8 	"/>
	<g>
		<g>
			<path fill="#B5C0C9" d="M412.1,492.6h133.7c1-5.9,2.9-17.2,2.9-21.8c0-6.2-1-27-1-27H412.1h-2H274.8c0,0-1,20.8-1,27
				c0,4.6,2,15.9,2.9,21.8h133.7H412.1z"/>
			<path fill="#B5C0C9" d="M545.8,492.6H276.4c0,0-0.3,0-0.3-0.3c-2-11.1-2.9-18.5-2.9-21.8c0-6.2,1-26.7,1-27c0,0,0-0.3,0.3-0.3
				h272.9c0,0,0.3,0,0.3,0.3c0,0.3,1,20.8,1,27C548.7,473.8,547.7,481.6,545.8,492.6C546.1,492.6,545.8,492.6,545.8,492.6z
				 M276.4,492.3h269c2-11.1,2.9-18.5,2.9-21.8c0-5.9-1-24.7-1-26.7H274.8c0,2.3-1,20.8-1,26.7C273.8,473.8,274.8,481.2,276.4,492.3
				z"/>
			<path fill="#8A9AA5" d="M319.4,444.2c0,0,19.2,43.6,21.5,47.2h141.5c0,0,17.2-34.8,21.8-47.5L319.4,444.2z"/>
			<path fill="#231F20" d="M476.2,493H319.7c0,0-0.3,0-0.3-0.3c0-0.3,0-0.3,0.3-0.3h156.5C476.5,492.3,476.5,492.6,476.2,493
				C476.5,492.6,476.5,493,476.2,493z"/>
			<g>
				<g>
					<g>
						<path fill="#8A9AA5" d="M518.1,468.2c0,1.3-2,2.3-4.2,2.3c-2.3,0-4.2-1-4.2-2.3s2-2.3,4.2-2.3S518.1,466.9,518.1,468.2z"/>
						<path fill="#8A9AA5" d="M542.2,468.2c0,1.3-2,2.3-4.2,2.3s-4.2-1-4.2-2.3s2-2.3,4.2-2.3C540.2,466,542.2,466.9,542.2,468.2z"
							/>
					</g>
					<g>
						<path fill="#8A9AA5" d="M525.9,476c1.3,0,2.3,2,2.3,4.2s-1,4.2-2.3,4.2s-2.3-2-2.3-4.2C523.7,478,524.6,476,525.9,476z"/>
						<path fill="#8A9AA5" d="M525.9,452c1.3,0,2.3,2,2.3,4.2s-1,4.2-2.3,4.2s-2.3-2-2.3-4.2C523.7,453.6,524.6,452,525.9,452z"/>
					</g>
				</g>
				<path fill="#8A9AA5" d="M530.5,468.2c0,2.6-2,4.6-4.6,4.6c-2.6,0-4.6-2-4.6-4.6c0-2.6,2-4.6,4.6-4.6
					C528.5,463.7,530.5,465.6,530.5,468.2z"/>
			</g>
			<path fill="#010101" d="M547.4,493.6H276.1l-0.3-1c-2-11.4-2.9-18.5-2.9-22.1c0-6.2,1-26.4,1-27v-1.3h275.5v1.3c0,1,1,20.8,1,27
				c0,3.3-1,10.7-2.9,22.1V493.6z M278,491.3h267.4c1.6-10.4,2.6-17.6,2.6-20.8c0-5.2-1-21.5-1-25.7H276.4c-0.3,4.6-1,20.5-1,25.7
				C275.4,473.8,276.4,480.9,278,491.3z"/>
			<path fill="#8A9AA5" d="M285.2,478.3c0-1,1-1.6,2.3-1.6h31.2c1.3,0,2.3,0.7,2.3,1.6v6.2c0,1-1,1.6-2.3,1.6h-31.2
				c-1.3,0-2.3-0.7-2.3-1.6V478.3z"/>
		</g>
		<rect x="279" y="454.6" fill="none" width="263.8" height="33.5"/>
		<text transform="matrix(1 0 0 1 346.6183 477.9772)" fill="#FFFFFF" font-family="'Helvetica-Light'" font-size="32.5314">Receiver</text>
	</g>
	<polyline fill="none" stroke="#010101" stroke-width="2" stroke-miterlimit="10" points="279.8,94 84,94 84,485.4 84,543.6 
		203.4,543.3 401.5,543.3 	"/>
	<g>
		<g>
			<path fill="#B5C0C9" d="M412.1,563.1h133.7c1-5.9,2.9-17.2,2.9-21.8c0-6.2-1-27-1-27H412.1h-2H274.8c0,0-1,20.8-1,27
				c0,4.6,2,15.9,2.9,21.8h133.7H412.1z"/>
			<path fill="#B5C0C9" d="M545.8,563.5H276.4c0,0-0.3,0-0.3-0.3c-2-11.1-2.9-18.5-2.9-21.8c0-6.2,1-26.7,1-27c0,0,0-0.3,0.3-0.3
				h272.9c0,0,0.3,0,0.3,0.3s1,20.8,1,27C548.7,544.6,547.7,552.1,545.8,563.5C546.1,563.1,545.8,563.5,545.8,563.5z M276.4,562.8
				h269c2-11.1,2.9-18.5,2.9-21.8c0-5.9-1-24.7-1-26.7H274.8c0,2.3-1,20.8-1,26.7C273.8,544.6,274.8,552.1,276.4,562.8z"/>
			<path fill="#8A9AA5" d="M319.4,514.7c0,0,19.2,43.6,21.5,47.2h141.5c0,0,17.2-34.8,21.8-47.5L319.4,514.7z"/>
			<path fill="#231F20" d="M476.2,563.5H319.7c0,0-0.3,0-0.3-0.3s0-0.3,0.3-0.3h156.5C476.5,563.1,476.5,563.1,476.2,563.5
				C476.5,563.5,476.5,563.5,476.2,563.5z"/>
			<g>
				<g>
					<g>
						<path fill="#8A9AA5" d="M518.1,538.7c0,1.3-2,2.3-4.2,2.3c-2.3,0-4.2-1-4.2-2.3c0-1.3,2-2.3,4.2-2.3S518.1,537.4,518.1,538.7z
							"/>
						<path fill="#8A9AA5" d="M542.2,538.7c0,1.3-2,2.3-4.2,2.3s-4.2-1-4.2-2.3c0-1.3,2-2.3,4.2-2.3
							C540.2,536.5,542.2,537.4,542.2,538.7z"/>
					</g>
					<g>
						<path fill="#8A9AA5" d="M525.9,546.6c1.3,0,2.3,2,2.3,4.2c0,2.3-1,4.2-2.3,4.2s-2.3-2-2.3-4.2
							C523.7,548.5,524.6,546.6,525.9,546.6z"/>
						<path fill="#8A9AA5" d="M525.9,522.5c1.3,0,2.3,2,2.3,4.2s-1,4.2-2.3,4.2s-2.3-2-2.3-4.2C523.7,524.4,524.6,522.5,525.9,522.5
							z"/>
					</g>
				</g>
				<path fill="#8A9AA5" d="M530.5,538.7c0,2.6-2,4.6-4.6,4.6c-2.6,0-4.6-2-4.6-4.6c0-2.6,2-4.6,4.6-4.6
					C528.5,534.2,530.5,536.1,530.5,538.7z"/>
			</g>
			<path fill="#010101" d="M547.4,564.4H276.1l-0.3-1c-2-11.4-2.9-18.5-2.9-22.1c0-6.2,1-26.4,1-27V513h275.5v1.3c0,1,1,20.8,1,27
				c0,3.3-1,10.7-2.9,22.1V564.4z M278,561.8h267.4c1.6-10.4,2.6-17.6,2.6-20.8c0-5.2-1-21.5-1-25.7H276.4c-0.3,4.6-1,20.5-1,25.7
				C275.4,544.3,276.4,551.4,278,561.8z"/>
			<path fill="#8A9AA5" d="M285.2,548.8c0-1,1-1.6,2.3-1.6h31.2c1.3,0,2.3,0.7,2.3,1.6v6.2c0,1-1,1.6-2.3,1.6h-31.2
				c-1.3,0-2.3-0.7-2.3-1.6V548.8z"/>
		</g>
		<rect x="279" y="525.1" fill="none" width="263.8" height="33.5"/>
		<text transform="matrix(1 0 0 1 346.6183 548.5867)" fill="#FFFFFF" font-family="'Helvetica-Light'" font-size="32.5314">Receiver</text>
	</g>
	<text transform="matrix(0 -1 1 0 59.5616 339.4211)" fill="#010101" font-family="'Helvetica-Light'" font-size="19.5188">Optional</text>
	<g>
		<polyline fill="none" stroke="#FFFFFF" stroke-width="2" stroke-miterlimit="10" points="549.9,94 757.2,94 757.2,251.6 
			757.2,253.6 543,253.6 		"/>
		<g>
			<g>
				<path fill="#B5C0C9" d="M412.2,275.6h133.7c1-5.9,2.9-17.2,2.9-21.8c0-6.2-1-27-1-27H412.2h-2H275c0,0-1,20.8-1,27
					c0,4.6,2,15.9,2.9,21.8h133.7H412.2z"/>
				<path fill="#B5C0C9" d="M545.9,275.9H276.6c0,0-0.3,0-0.3-0.3c-2-11.1-2.9-18.5-2.9-21.8c0-6.2,1-26.7,1-27c0,0,0-0.3,0.3-0.3
					h272.9c0,0,0.3,0,0.3,0.3c0,0.3,1,20.8,1,27C548.9,257.1,547.9,264.9,545.9,275.9C546.3,275.9,545.9,275.9,545.9,275.9z
					 M276.6,275.6h269c2-11.1,2.9-18.5,2.9-21.8c0-5.9-1-24.7-1-26.7H275c0,2.3-1,20.8-1,26.7C274,257.1,275,264.6,276.6,275.6z"/>
				<path fill="#8A9AA5" d="M319.5,227.1c0,0,19.2,43.6,21.5,47.2h141.5c0,0,17.2-34.8,21.8-47.5L319.5,227.1z"/>
				<path fill="#231F20" d="M476.3,275.9H319.8c0,0-0.3,0-0.3-0.3c0,0,0-0.3,0.3-0.3h156.5C476.6,275.6,476.6,275.6,476.3,275.9
					C476.6,275.9,476.6,275.9,476.3,275.9z"/>
				<g>
					<g>
						<g>
							<path fill="#8A9AA5" d="M518.3,251.5c0,1.3-2,2.3-4.2,2.3s-4.2-1-4.2-2.3c0-1.3,2-2.3,4.2-2.3
								C516.3,249.3,518.3,250.2,518.3,251.5z"/>
							<path fill="#8A9AA5" d="M542.4,251.2c0,1.3-2,2.3-4.2,2.3s-4.2-1-4.2-2.3c0-1.3,2-2.3,4.2-2.3
								C540.4,249.3,542.4,250.2,542.4,251.2z"/>
						</g>
						<g>
							<path fill="#8A9AA5" d="M526.1,259.4c1.3,0,2.3,2,2.3,4.2c0,2.3-1,4.2-2.3,4.2c-1.3,0-2.3-2-2.3-4.2S524.8,259.4,526.1,259.4
								z"/>
							<path fill="#8A9AA5" d="M526.1,235.3c1.3,0,2.3,2,2.3,4.2c0,2.3-1,4.2-2.3,4.2c-1.3,0-2.3-2-2.3-4.2
								C523.8,236.9,524.8,235.3,526.1,235.3z"/>
						</g>
					</g>
					<path fill="#8A9AA5" d="M530.6,251.5c0,2.6-2,4.6-4.6,4.6s-4.6-2-4.6-4.6s2-4.6,4.6-4.6S530.6,248.9,530.6,251.5z"/>
				</g>
				<path fill="#FFFFFF" d="M547.6,276.9H276.3l-0.3-1c-2-11.4-2.9-18.5-2.9-22.1c0-6.2,1-26.4,1-27v-1.3h275.2v1.3c0,1,1,20.8,1,27
					c0,3.3-1,10.7-2.9,22.1L547.6,276.9z M278.2,274.6h267.4c1.6-10.4,2.6-17.6,2.6-20.8c0-5.2-1-21.5-1-25.7H276.6
					c-0.3,4.6-1,20.5-1,25.7C275.6,257.1,276.6,264.2,278.2,274.6z"/>
				<path fill="#8A9AA5" d="M285.4,261.6c0-1,1-1.6,2.3-1.6h31.2c1.3,0,2.3,0.7,2.3,1.6v6.2c0,1-1,1.6-2.3,1.6h-31.2
					c-1.3,0-2.3-0.7-2.3-1.6C285.4,267.8,285.4,261.6,285.4,261.6z"/>
			</g>
			<rect x="279.2" y="237.9" fill="none" width="263.8" height="33.5"/>
			<text transform="matrix(1 0 0 1 346.7744 261.2527)" fill="#FFFFFF" font-family="'Helvetica-Light'" font-size="32.5314">Receiver</text>
		</g>
		<rect x="273" y="294" fill="none" width="277.2" height="62.7"/>
		<text transform="matrix(1 0 0 1 371.8141 312.7426)" fill="#FFFFFF" font-family="'Helvetica'" font-size="26.0251">Master</text>
	</g>
	<line fill="none" stroke="#FFFFFF" stroke-width="2" stroke-miterlimit="10" x1="357.6" y1="93.8" x2="503" y2="93.8"/>
	<g>
		<path fill="#FFFFFF" d="M348.8,119.5h-59.9l0,0c-0.3,0-6.8-2.3-9.4-9.1l0,0v-7.2l0.7-33.8l0,0c2.9-13.7,9.8-23.4,20.8-29.3
			c8.5-4.2,16.3-4.6,17.2-4.6l0,0c0,0,0.3,0,0.7,0c5.2,0,31.6,1.6,38.1,33.5l0,0l1.3,33.8v7.2l0,0c-1.6,3.9-4.2,6.2-5.9,7.5
			C350.4,119.2,348.8,119.5,348.8,119.5L348.8,119.5z M288.9,118.5h59.5c0.7,0,5.9-1.6,8.8-8.5v-6.8l-1-33.8
			c-6.5-30.9-31.9-32.5-37.1-32.5c-0.3,0-0.7,0-0.7,0l0,0l0,0c-1,0-8.5,0-16.9,4.2c-10.7,5.5-17.6,15-20.2,28.3l-1,33.8v6.8
			C282.8,115.9,288.3,118.2,288.9,118.5z"/>
		<path fill="#B5C0C9" d="M279.8,103.5v6.8c2.3,6.2,9.1,8.5,9.1,8.5h59.9c5.9-1.3,8.8-8.5,8.8-8.5v-6.8H279.8z"/>
		<path fill="#FFFFFF" d="M357.9,103.9h-78.1c-0.3,0-0.7-0.3-0.7-0.7c0-0.3,0.3-0.7,0.7-0.7h78.1c0.3,0,0.7,0.3,0.7,0.7
			C358.2,103.5,358.2,103.9,357.9,103.9z"/>
		<path fill="#FFFFFF" d="M348.8,119.5h-59.9c0,0,0,0-0.3,0s-6.8-2.3-9.4-9.1c0,0,0,0,0-0.3v-6.8l1-33.8l0,0
			c2.9-13.7,9.8-23.4,20.8-29.3c8.5-4.2,16.3-4.6,17.2-4.6l0,0c0,0,0.3,0,0.7,0c5.2,0,31.6,1.6,38.1,33.5l0,0l1.3,33.8v6.8
			c0,0,0,0,0,0.3c-1.6,3.9-4.2,6.2-5.9,7.5C350.4,119.2,348.8,119.5,348.8,119.5L348.8,119.5z M288.9,118.5h59.5
			c0.7,0,5.9-1.6,8.8-8.5v-6.8l-1-33.8c-6.5-30.9-31.9-32.5-37.1-32.5c-0.3,0-0.7,0-0.7,0l0,0l0,0c-1,0-8.5,0-16.9,4.2
			c-10.7,5.5-17.6,15-20.2,28.3l-1,33.8v6.8C282.8,115.9,288.3,118.2,288.9,118.5z"/>
	</g>
	<rect x="261" y="137.7" fill="none" width="115.5" height="33.5"/>
	<text transform="matrix(1 0 0 1 270.3048 156.3343)" fill="#FFFFFF" font-family="'Helvetica'" font-size="26.0251">Antenna</text>
	<g>
		<path fill="#FFFFFF" d="M534.9,80.8l-0.3-37.4c0,0,0-2.6-2.3-2.6l0,0c-2.3,0-2.3,2.6-2.3,2.6l-0.3,37.4H534.9z"/>
		<path fill="#B5C0C9" d="M494.9,103.2h67V84.7c0,0,0.3-2.3-7.2-3.3c0,0-23.7-2.6-59.5-2.9h-0.3c-35.8,0.3-59.5,2.9-59.5,2.9
			c-7.5,0.7-7.2,3.3-7.2,3.3v18.5L494.9,103.2L494.9,103.2z"/>
		<path fill="#8A9AA5" d="M489,87.3c0,0.7-0.7,1.3-1.3,1.3l0,0c-0.7,0-1.3-0.7-1.3-1.3v-8.1h2.6V87.3z"/>
		<path fill="#8A9AA5" d="M496.2,87.3c0,0.7-0.7,1.3-1.3,1.3l0,0c-0.7,0-1.3-0.7-1.3-1.3v-8.1h2.6V87.3z"/>
		<path fill="#8A9AA5" d="M503,87.3c0,0.7-0.7,1.3-1.3,1.3l0,0c-0.7,0-1.3-0.7-1.3-1.3v-8.1h2.6V87.3z"/>
		<path fill="#FFFFFF" d="M562.2,103.9h-135V84.7c0-0.3,0-0.7,0.3-1.3c1-1.3,3.6-2.3,7.2-2.6c0.3,0,24.1-2.6,59.5-2.9h0.3
			c35.5,0.3,59.5,2.9,59.5,2.9c3.9,0.3,6.2,1.3,7.2,2.6c0.3,0.7,0.3,1,0.3,1.3v19.2H562.2z M428.2,102.6h132.7V84.7l0,0
			c0,0-0.3-2-6.5-2.3c-0.3,0-24.1-2.6-59.5-2.9h-0.3c-35.5,0.3-59.2,2.9-59.5,2.9c-6.5,0.7-6.5,2.3-6.5,2.6l0,0l0,0v17.6H428.2z"/>
	</g>
	<rect x="428.5" y="137.7" fill="none" width="133.7" height="33.5"/>
	<text transform="matrix(1 0 0 1 450.4845 156.3343)" fill="#FFFFFF" font-family="'Helvetica'" font-size="26.0251">TV-Hub</text>
</g>
</svg>
