<?xml version="1.0" encoding="utf-8"?>
<!-- Generator: Adobe Illustrator 17.1.0, SVG Export Plug-In . SVG Version: 6.00 Build 0)  -->
<!DOCTYPE svg PUBLIC "-//W3C//DTD SVG 1.1//EN" "http://www.w3.org/Graphics/SVG/1.1/DTD/svg11.dtd">
<svg version="1.1" id="Layer_1" xmlns="http://www.w3.org/2000/svg" xmlns:xlink="http://www.w3.org/1999/xlink" x="0px" y="0px"
	 viewBox="0 0 653.5 678.7" enable-background="new 0 0 653.5 678.7" xml:space="preserve">
<g>
	<g>
		<path fill="#FFFFFF" d="M441.9,165.8C424,71.4,340.4,0,240,0S56,71.4,38.1,165.8c-6.8-0.9-13.5-1.8-18.1-2.7c0,0,9.5,26.5,12,72
			c0,0,8-33.5,30-66.5c0,0-6.8-0.7-15.3-1.7C64.2,79.7,142.7,8.2,240,9.3c97.3-1.2,175.8,70.4,193.3,157.6c-8.5,1-15.3,1.7-15.3,1.7
			c22,33,30,66.5,30,66.5c2.5-45.5,12-72,12-72C455.5,164,448.7,165,441.9,165.8z"/>
		<g>
			<path fill="#FFFFFF" d="M238.9,589.4c-31.5,0-62.8-7.4-93.1-21.9c-27.2-13.1-53.5-32.1-75.9-55.1C26.8,468.2,0,412,0,365.7
				c0-45.1,24.9-87.5,70.2-119.4c45.1-31.7,105-49.2,168.7-49.2s123.6,17.5,168.7,49.2c45.3,31.9,70.2,74.3,70.2,119.4
				c0,46.3-26.8,102.6-70,146.8c-22.4,23-48.6,42-75.9,55.1C301.7,582,270.4,589.4,238.9,589.4z M238.9,200.1
				C108.8,200.1,3,274.4,3,365.7c0,45.6,26.5,101,69.1,144.7c22.2,22.7,48.1,41.5,75,54.5c29.9,14.3,60.8,21.6,91.8,21.6
				s61.9-7.3,91.8-21.6c26.9-12.9,52.9-31.7,75-54.5c42.6-43.7,69.1-99.1,69.1-144.7C474.8,274.4,369,200.1,238.9,200.1z"/>
		</g>
		<g>
			<path fill="#6F7687" d="M147.4,179.4v143.4c0,0,13.2,78.2,93.1,78.2s93.1-78.2,93.1-78.2V179.4H147.4z"/>
			<path fill="#6F7687" d="M240.5,402.3c-41.8,0-65.2-21.6-77.5-39.6c-13.3-19.5-16.8-39.4-16.8-39.6l0-0.2V178.2h188.7l0,144.9
				c0,0.2-3.5,20-16.8,39.6C305.7,380.7,282.3,402.3,240.5,402.3z M148.7,322.7c0.3,1.5,3.9,20.2,16.4,38.6
				c17.4,25.5,42.7,38.5,75.4,38.5c32.7,0,58.1-13,75.4-38.5c12.5-18.4,16.1-37,16.4-38.5v-142H148.7V322.7z"/>
		</g>
		<g>
			<path fill="#6F7687" d="M130.2,125.4v170c0,0,15.7,92.7,110.3,92.7s110.3-92.7,110.3-92.7v-170H130.2z"/>
			<path fill="#FFFFFF" d="M240.5,389.6c-49.6,0-77.3-25.6-91.9-47c-15.8-23.2-19.9-46.7-19.9-46.9l0-0.2V123.9h223.7l0,171.8
				c0,0.2-4.2,23.8-19.9,46.9C317.8,364,290.1,389.6,240.5,389.6z M131.7,295.3c0.3,1.8,4.6,23.9,19.5,45.7
				c20.6,30.2,50.7,45.6,89.4,45.6c38.7,0,68.8-15.4,89.4-45.7c14.8-21.8,19.1-43.8,19.4-45.6V126.9H131.7V295.3z"/>
		</g>
		<g>
			<path fill="#6F7687" d="M130.2,75.4v170c0,0,15.7,92.7,110.3,92.7s110.3-92.7,110.3-92.7v-170H130.2z"/>
			<path fill="#FFFFFF" d="M240.5,339.6c-49.6,0-77.3-25.6-91.9-47c-15.8-23.2-19.9-46.7-19.9-46.9l0-0.2V73.9h223.7l0,171.8
				c0,0.2-4.2,23.8-19.9,46.9C317.8,314,290.1,339.6,240.5,339.6z M131.7,245.3c0.3,1.8,4.6,23.9,19.5,45.7
				c20.6,30.2,50.7,45.6,89.4,45.6c38.7,0,68.8-15.4,89.4-45.7c14.8-21.8,19.1-43.8,19.4-45.6V76.9H131.7V245.3z"/>
		</g>
	</g>
	<g>
		<g>
			<path fill="#FFFFFF" d="M138.7,492.1l1.6-2.3l-4.2-3l0.8-1.2l8.6-3l1,0.7l-4.4,6.2l1.4,1l-0.7,1l-1.4-1l-1.6,2.3L138.7,492.1z
				 M141,488.7l3.1-4.3l-6.1,2.2L141,488.7z"/>
			<path fill="#FFFFFF" d="M153.7,490.7c-0.1,1.1-0.7,2.3-1.6,3.7c-0.9,1.3-1.9,2.2-2.9,2.8c-1.4,0.8-2.8,0.8-4-0.1
				c-1.1-0.8-1.6-1.9-1.5-3.3c0.1-1.2,0.7-2.4,1.7-3.8c0.8-1.1,1.6-1.9,2.4-2.5c1.5-1.1,3-1.1,4.4-0.2
				C153.4,488.2,153.9,489.3,153.7,490.7z M148,496.2c0.8-0.3,1.7-1.2,2.7-2.7c0.8-1.1,1.3-2.1,1.5-3c0.2-0.9,0-1.6-0.8-2.1
				c-0.7-0.5-1.5-0.5-2.3-0.1c-0.8,0.4-1.7,1.3-2.6,2.6c-0.7,1-1.1,1.8-1.3,2.6c-0.3,1.1-0.1,2,0.7,2.5
				C146.6,496.4,147.3,496.5,148,496.2z"/>
		</g>
		<g>
			<path fill="#FFFFFF" d="M118.6,472.4c-0.5,0.7-0.6,1.4-0.4,2.1c0.1,0.4,0.4,0.7,0.7,1c0.6,0.6,1.3,0.9,2,0.7s1.3-0.4,1.7-0.9
				c0.6-0.6,0.8-1.2,0.8-1.9s-0.3-1.2-0.8-1.7c-0.4-0.4-0.7-0.6-1.1-0.7c-0.4-0.1-0.8-0.1-1.2-0.1l-0.9-0.9l5-3.9l4.4,4.2l-1,1
				l-3.6-3.5l-2.6,2c0.3,0,0.6,0.1,0.9,0.2c0.4,0.2,0.9,0.5,1.3,0.9c0.8,0.7,1.2,1.6,1.2,2.6c0.1,1-0.3,1.9-1,2.7
				c-0.8,0.8-1.7,1.3-2.8,1.4c-1.1,0.1-2.2-0.3-3.2-1.4c-0.7-0.7-1.1-1.4-1.3-2.3c-0.2-0.9,0.1-1.8,0.8-2.6L118.6,472.4z"/>
			<path fill="#FFFFFF" d="M134.1,478c-0.3,1.1-1,2.2-2.2,3.4c-1.1,1.1-2.2,1.9-3.2,2.3c-1.5,0.6-2.8,0.4-4-0.7c-1-1-1.3-2.1-1-3.5
				c0.3-1.1,1-2.3,2.2-3.5c0.9-1,1.8-1.7,2.7-2.1c1.7-0.8,3.1-0.7,4.3,0.5C134.2,475.4,134.5,476.6,134.1,478z M127.7,482.5
				c0.8-0.2,1.8-0.9,3.1-2.2c0.9-1,1.6-1.9,1.9-2.7c0.4-0.8,0.2-1.6-0.5-2.2c-0.6-0.6-1.4-0.7-2.2-0.4c-0.9,0.3-1.8,1-2.9,2.2
				c-0.8,0.9-1.4,1.6-1.7,2.3c-0.5,1.1-0.4,1.9,0.3,2.6C126.2,482.5,126.9,482.7,127.7,482.5z"/>
		</g>
		<g>
			<path fill="#FFFFFF" d="M111.6,453.9c-0.2,0.8-0.6,1.5-1.1,1.9l-0.9-1.1c0.3-0.4,0.5-0.7,0.6-1c0.1-0.6,0-1.2-0.5-1.7
				c-0.5-0.6-1.2-0.9-2.1-0.8c-0.9,0.1-1.9,0.6-3,1.5c0.6-0.1,1.2,0,1.7,0.3c0.5,0.2,0.9,0.5,1.3,1c0.6,0.7,0.9,1.6,0.9,2.6
				c0,1-0.5,1.8-1.4,2.6c-0.8,0.7-1.8,1-2.8,1c-1.1,0-2-0.5-2.8-1.5c-0.7-0.8-1-1.8-0.9-3s0.9-2.3,2.4-3.6c1.1-0.9,2.2-1.6,3.2-2
				c1.9-0.7,3.5-0.4,4.6,1C111.5,452.2,111.8,453.1,111.6,453.9z M104.1,458.8c0.6,0,1.2-0.3,1.8-0.7c0.5-0.4,0.8-0.9,1-1.5
				c0.2-0.6,0-1.3-0.6-2c-0.4-0.5-0.9-0.8-1.5-0.9c-0.6-0.1-1.3,0.1-1.9,0.7c-0.6,0.5-0.9,1-1,1.7c-0.1,0.7,0.1,1.3,0.6,1.9
				C102.9,458.6,103.4,458.8,104.1,458.8z"/>
			<path fill="#FFFFFF" d="M117,461.7c-0.4,1-1.2,2.1-2.5,3.1c-1.2,1-2.4,1.7-3.5,2c-1.6,0.4-2.9,0.1-3.9-1.1
				c-0.9-1.1-1.1-2.3-0.6-3.6c0.4-1.1,1.3-2.2,2.6-3.3c1-0.9,2-1.5,2.9-1.8c1.8-0.6,3.2-0.3,4.3,1
				C117.3,459.2,117.5,460.4,117,461.7z M110.1,465.6c0.8-0.1,1.9-0.7,3.3-1.9c1-0.9,1.7-1.7,2.2-2.5c0.4-0.8,0.4-1.6-0.2-2.3
				c-0.6-0.7-1.3-0.9-2.2-0.7c-0.9,0.2-1.9,0.8-3.1,1.8c-0.9,0.8-1.6,1.5-1.9,2.1c-0.6,1-0.6,1.9,0,2.6
				C108.7,465.4,109.3,465.7,110.1,465.6z"/>
		</g>
		<g>
			<path fill="#FFFFFF" d="M98.1,435.7l-1.1,0.7c-0.5-0.1-1.3-0.2-2.4-0.2c-1.1,0-2.2,0-3.3,0.2c-1.1,0.2-2.1,0.4-2.9,0.6
				c-0.5,0.2-1.4,0.5-2.5,0.9l-0.9-1.4c2.1-0.9,4.4-1.4,6.9-1.6c1.5-0.1,2.9,0,4.1,0.1l-3.5-5.4l1.2-0.8L98.1,435.7z"/>
			<path fill="#FFFFFF" d="M101.2,443.6c-0.5,1-1.5,1.9-2.9,2.8c-1.3,0.9-2.6,1.4-3.7,1.6c-1.6,0.2-2.9-0.3-3.7-1.6
				c-0.8-1.2-0.8-2.4-0.2-3.6c0.5-1,1.5-2,3-3c1.1-0.7,2.2-1.2,3.1-1.4c1.8-0.4,3.2,0.1,4.1,1.5
				C101.8,441.1,101.9,442.4,101.2,443.6z M93.9,446.6c0.8,0,2-0.5,3.5-1.5c1.1-0.7,1.9-1.5,2.5-2.2c0.5-0.7,0.6-1.5,0-2.3
				c-0.5-0.7-1.2-1-2.1-0.9c-0.9,0.1-2,0.6-3.3,1.5c-1,0.6-1.7,1.3-2.2,1.9c-0.7,0.9-0.8,1.8-0.3,2.6
				C92.5,446.3,93.1,446.6,93.9,446.6z"/>
		</g>
		<g>
			<path fill="#FFFFFF" d="M79.1,409c0.2-0.6,0.7-1,1.3-1.3c0.8-0.3,1.6-0.4,2.4,0c0.8,0.3,1.5,1,1.9,2.1c0.4,1,0.5,1.9,0.2,2.8
				c-0.3,0.8-0.8,1.4-1.5,1.7c-0.7,0.3-1.3,0.4-1.8,0.2c-0.3-0.1-0.7-0.3-1.1-0.6c0,0.5-0.1,1-0.2,1.4c-0.3,0.7-0.8,1.2-1.6,1.6
				c-0.9,0.4-1.9,0.4-2.8,0.1s-1.7-1.1-2.2-2.2c-0.5-1-0.6-2-0.3-3c0.2-1,0.9-1.7,2-2.2c0.6-0.3,1.2-0.4,1.8-0.3
				c0.6,0.1,1.1,0.4,1.7,0.9C78.9,409.6,79,409.3,79.1,409z M76.2,415.4c0.5,0.3,1.1,0.2,1.8,0c0.7-0.3,1.1-0.7,1.3-1.3
				s0.1-1.2-0.2-1.9c-0.3-0.6-0.7-1.1-1.2-1.3c-0.5-0.2-1.1-0.2-1.8,0.1c-0.6,0.2-1,0.6-1.2,1.2c-0.2,0.5-0.2,1.2,0.1,2
				C75.3,414.7,75.7,415.1,76.2,415.4z M81.4,412.8c0.5,0.2,0.9,0.2,1.4,0c0.4-0.2,0.7-0.5,0.9-1c0.2-0.5,0.1-1-0.1-1.7
				c-0.3-0.6-0.7-1-1.1-1.2c-0.5-0.1-0.9-0.1-1.4,0.1c-0.5,0.2-0.8,0.6-0.9,1.1c-0.1,0.5-0.1,1,0.2,1.5
				C80.5,412.3,80.9,412.7,81.4,412.8z"/>
			<path fill="#FFFFFF" d="M88.1,421.9c-0.7,0.9-1.8,1.6-3.3,2.3c-1.5,0.6-2.7,0.9-3.9,0.9c-1.6,0-2.8-0.8-3.4-2.2
				c-0.6-1.3-0.4-2.5,0.4-3.6c0.7-0.9,1.8-1.7,3.4-2.4c1.2-0.5,2.3-0.8,3.3-0.9c1.9-0.1,3.2,0.6,3.8,2.1
				C89.1,419.6,88.9,420.8,88.1,421.9z M80.4,423.7c0.8,0.1,2-0.2,3.7-0.9c1.2-0.5,2.1-1.1,2.8-1.8c0.7-0.6,0.8-1.4,0.4-2.3
				c-0.3-0.8-1-1.2-1.9-1.2c-0.9,0-2.1,0.3-3.5,0.9c-1.1,0.5-1.9,1-2.5,1.5c-0.9,0.8-1.1,1.6-0.7,2.5
				C79,423.2,79.6,423.6,80.4,423.7z"/>
		</g>
		<g>
			<g>
				<path fill="#FFFFFF" d="M206.2,510.9l0.2-1.1c1.1,0.1,1.8,0,2.3-0.2s0.9-0.7,1.2-1.5l1.1,0.2l-1.9,11.5l-1.5-0.3l1.3-8.2
					L206.2,510.9z"/>
				<path fill="#FFFFFF" d="M220.5,511.7c0.4,1,0.4,2.4,0.1,4c-0.3,1.6-0.7,2.8-1.3,3.8c-0.9,1.4-2.1,1.9-3.7,1.7
					c-1.4-0.2-2.3-1-2.8-2.3c-0.4-1.1-0.5-2.5-0.2-4.2c0.2-1.3,0.6-2.4,1.1-3.3c0.9-1.6,2.2-2.3,3.9-2.1
					C219,509.6,220,510.4,220.5,511.7z M217.8,519.1c0.6-0.6,1-1.8,1.3-3.6c0.2-1.3,0.2-2.4,0-3.3c-0.2-0.9-0.7-1.4-1.7-1.6
					c-0.9-0.1-1.5,0.2-2.1,0.9c-0.5,0.7-0.9,1.9-1.2,3.4c-0.2,1.2-0.2,2.1-0.1,2.9c0.2,1.2,0.8,1.8,1.7,2
					C216.6,520,217.2,519.7,217.8,519.1z"/>
			</g>
			<g>
				<path fill="#FFFFFF" d="M180.6,509.7c0.6-0.6,1.5-1,2.6-1.3l1.8-0.4c0.8-0.2,1.4-0.3,1.7-0.5c0.6-0.3,0.9-0.7,1.1-1.3
					c0.2-0.6,0.2-1.2-0.1-1.7c-0.3-0.5-0.7-0.9-1.4-1.1c-1-0.3-1.7-0.2-2.3,0.4c-0.3,0.3-0.6,0.8-0.9,1.5l-1.4-0.5
					c0.3-1,0.8-1.7,1.3-2.2c1-0.9,2.2-1.1,3.7-0.6c1.3,0.4,2.1,1.1,2.4,1.9c0.4,0.9,0.4,1.7,0.1,2.6c-0.3,0.9-0.9,1.5-1.7,2
					c-0.5,0.2-1.3,0.5-2.4,0.7l-1.3,0.2c-0.6,0.1-1.1,0.2-1.5,0.4c-0.7,0.3-1.2,0.7-1.5,1.2l6.1,2l-0.4,1.3l-7.6-2.5
					C179.5,511.1,180,510.3,180.6,509.7z"/>
				<path fill="#FFFFFF" d="M198,507.8c0.2,1.1,0,2.4-0.5,4c-0.5,1.5-1.1,2.7-1.9,3.5c-1.1,1.2-2.4,1.6-3.9,1.1
					c-1.3-0.4-2.1-1.3-2.4-2.7c-0.2-1.1-0.1-2.5,0.5-4.2c0.4-1.3,0.9-2.3,1.6-3.1c1.2-1.5,2.5-2,4.1-1.4
					C196.9,505.5,197.7,506.5,198,507.8z M194.1,514.8c0.6-0.5,1.2-1.6,1.8-3.4c0.4-1.3,0.6-2.3,0.6-3.3c0-0.9-0.5-1.5-1.4-1.8
					c-0.8-0.3-1.6-0.1-2.2,0.6c-0.6,0.6-1.2,1.7-1.7,3.2c-0.4,1.1-0.5,2.1-0.5,2.8c0,1.2,0.5,1.9,1.4,2.2
					C192.8,515.4,193.5,515.3,194.1,514.8z"/>
			</g>
			<g>
				<g>
					<path fill="#FFFFFF" d="M157.7,502c-0.2-1-0.1-1.9,0.4-2.9l1.4,0.7c-0.3,0.7-0.4,1.3-0.3,1.7c0.1,0.7,0.6,1.3,1.5,1.7
						c0.7,0.3,1.3,0.4,1.9,0.3c0.6-0.2,1-0.5,1.3-1.1c0.4-0.7,0.4-1.3,0.1-1.8c-0.3-0.5-0.8-0.9-1.6-1.3c-0.1,0-0.2-0.1-0.3-0.1
						c-0.1,0-0.2-0.1-0.3-0.1l0.6-1.2c0.1,0.1,0.2,0.1,0.3,0.2c0.1,0,0.2,0.1,0.3,0.2c0.5,0.2,0.9,0.4,1.3,0.4
						c0.7,0,1.2-0.4,1.5-1.1c0.3-0.5,0.3-1,0-1.5c-0.2-0.5-0.6-0.8-1.1-1.1c-0.9-0.4-1.6-0.4-2.3,0c-0.3,0.2-0.7,0.6-1,1.2l-1.3-0.6
						c0.4-0.8,0.9-1.4,1.4-1.8c1-0.7,2.2-0.7,3.5-0.1c1.1,0.5,1.8,1.2,2.1,1.9c0.4,0.8,0.3,1.6-0.1,2.5c-0.3,0.6-0.7,1.1-1.3,1.3
						c-0.3,0.1-0.7,0.2-1.1,0.2c0.5,0.4,0.8,0.9,0.9,1.5c0.1,0.6,0,1.2-0.3,1.8c-0.5,1-1.2,1.7-2.2,2s-2.1,0.2-3.3-0.4
						C158.7,503.7,157.9,502.9,157.7,502z"/>
				</g>
				<path fill="#FFFFFF" d="M175.8,500.8c0,1.1-0.3,2.4-1,3.9c-0.7,1.4-1.5,2.5-2.4,3.2c-1.3,1-2.6,1.2-4,0.5c-1.3-0.6-1.9-1.6-2-3
					c-0.1-1.2,0.3-2.5,1-4.1c0.6-1.2,1.2-2.1,2-2.8c1.3-1.3,2.8-1.6,4.3-0.9C175,498.3,175.7,499.4,175.8,500.8z M171.1,507.1
					c0.7-0.4,1.5-1.4,2.3-3.1c0.6-1.2,0.9-2.2,1-3.2c0.1-0.9-0.3-1.6-1.2-2c-0.8-0.4-1.5-0.3-2.2,0.3c-0.7,0.6-1.4,1.5-2.1,3
					c-0.5,1.1-0.8,2-0.9,2.7c-0.1,1.2,0.2,2,1.1,2.4C169.7,507.6,170.4,507.5,171.1,507.1z"/>
			</g>
			<g>
				<g>
					<g>
						<g>
							<g>
								<g>
									<path fill="#FFFFFF" d="M371.5,489.4c0.7,0.5,1.3,0.7,2.1,0.4c0.4-0.1,0.7-0.4,1-0.7c0.6-0.6,0.9-1.3,0.8-2
										c-0.1-0.7-0.4-1.3-0.9-1.7c-0.6-0.6-1.2-0.8-1.9-0.8s-1.2,0.3-1.7,0.8c-0.4,0.4-0.6,0.7-0.7,1.1c-0.1,0.4-0.1,0.8-0.1,1.2
										l-1,0.8l-3.8-5.1l4.3-4.3l1,1l-3.5,3.5l1.9,2.6c0-0.3,0.1-0.6,0.2-0.9c0.2-0.4,0.5-0.9,0.9-1.3c0.8-0.8,1.6-1.2,2.7-1.2
										c1,0,1.9,0.3,2.6,1.1c0.8,0.8,1.2,1.7,1.3,2.8c0.1,1.1-0.4,2.1-1.4,3.2c-0.7,0.7-1.5,1.1-2.4,1.2c-0.9,0.1-1.8-0.2-2.6-0.9
										L371.5,489.4z"/>
									<path fill="#FFFFFF" d="M378.1,482.8c0.7,0.5,1.3,0.7,2.1,0.4c0.4-0.1,0.7-0.4,1-0.7c0.6-0.6,0.9-1.3,0.8-2
										c-0.1-0.7-0.4-1.3-0.9-1.7c-0.6-0.6-1.2-0.8-1.9-0.8s-1.2,0.3-1.7,0.8c-0.4,0.4-0.6,0.7-0.7,1.1c-0.1,0.4-0.1,0.8-0.1,1.2
										l-1,0.8l-3.8-5.1l4.3-4.3l1,1l-3.5,3.5l1.9,2.6c0-0.3,0.1-0.6,0.2-0.9c0.2-0.4,0.5-0.9,0.9-1.3c0.8-0.8,1.6-1.2,2.7-1.2
										c1,0,1.9,0.3,2.6,1.1c0.8,0.8,1.2,1.7,1.3,2.8c0.1,1.1-0.4,2.1-1.4,3.2c-0.7,0.7-1.5,1.1-2.4,1.2s-1.8-0.2-2.6-0.9
										L378.1,482.8z"/>
								</g>
								<g>
									<path fill="#FFFFFF" d="M388.8,459.9c0.8,0,1.6,0.2,2.1,0.7l-0.9,1.2c-0.4-0.2-0.8-0.3-1.1-0.3c-0.6,0-1.1,0.3-1.6,0.8
										c-0.5,0.7-0.6,1.4-0.3,2.2c0.3,0.8,1,1.7,2.1,2.6c-0.2-0.6-0.2-1.1-0.1-1.7c0.1-0.5,0.3-1,0.7-1.4c0.6-0.8,1.4-1.3,2.3-1.5
										c0.9-0.2,1.9,0.1,2.9,0.8c0.8,0.6,1.4,1.5,1.6,2.5c0.2,1,0,2.1-0.8,3.1c-0.7,0.9-1.6,1.4-2.7,1.5c-1.1,0.1-2.5-0.4-4-1.6
										c-1.2-0.9-2-1.8-2.6-2.7c-1.1-1.7-1.1-3.3,0-4.7C387.1,460.5,387.9,459.9,388.8,459.9z M395.2,466.3
										c-0.2-0.6-0.5-1.1-1.1-1.6c-0.5-0.4-1-0.6-1.7-0.6c-0.6-0.1-1.2,0.3-1.8,1c-0.4,0.5-0.6,1.1-0.5,1.7s0.4,1.2,1.1,1.7
										c0.6,0.5,1.2,0.7,1.9,0.6c0.7,0,1.2-0.4,1.7-1C395.2,467.5,395.3,466.9,395.2,466.3z"/>
									<path fill="#FFFFFF" d="M397.2,461.7c0.7,0.4,1.4,0.5,2.1,0.1c0.3-0.2,0.7-0.4,0.9-0.8c0.5-0.7,0.7-1.4,0.5-2
										s-0.5-1.2-1.1-1.6c-0.6-0.5-1.3-0.7-2-0.6c-0.7,0.1-1.2,0.5-1.6,1c-0.3,0.4-0.5,0.8-0.6,1.2c-0.1,0.4,0,0.8,0.1,1.2l-0.8,1
										l-4.4-4.5l3.7-4.8l1.1,0.9l-3,3.9l2.3,2.4c0-0.3,0-0.6,0.1-0.9c0.1-0.5,0.4-0.9,0.7-1.4c0.7-0.8,1.5-1.4,2.5-1.5
										s1.9,0.1,2.8,0.7c0.9,0.7,1.4,1.5,1.7,2.6c0.3,1.1-0.1,2.2-1,3.4c-0.6,0.8-1.3,1.3-2.2,1.5s-1.8,0.1-2.7-0.5L397.2,461.7z"
										/>
								</g>
								<g>
									<path fill="#FFFFFF" d="M404.2,436.9l1.1,0.6c0.1,0.5,0.5,1.2,1,2.2s1.1,1.9,1.8,2.8c0.7,0.9,1.3,1.6,1.9,2.3
										c0.4,0.4,1.1,1,2,1.8l-0.8,1.4c-1.8-1.4-3.4-3.1-4.7-5.3c-0.8-1.3-1.4-2.5-1.8-3.7l-3,5.7l-1.3-0.7L404.2,436.9z"/>
									<path fill="#FFFFFF" d="M412.9,438.6c0.8,0.3,1.5,0.2,2.1-0.2c0.3-0.2,0.6-0.5,0.8-0.9c0.4-0.8,0.5-1.5,0.2-2.1
										c-0.3-0.6-0.7-1.1-1.3-1.4c-0.7-0.4-1.4-0.5-2-0.2c-0.6,0.2-1.1,0.6-1.4,1.3c-0.2,0.4-0.4,0.9-0.4,1.3
										c0,0.4,0.1,0.8,0.3,1.2l-0.7,1.1l-5.1-3.8l2.9-5.3l1.3,0.7l-2.3,4.4l2.6,2c-0.1-0.3-0.1-0.6,0-0.9c0-0.5,0.2-1,0.5-1.5
										c0.5-0.9,1.2-1.6,2.2-1.9s1.9-0.2,2.8,0.3c1,0.5,1.7,1.3,2.1,2.3s0.3,2.2-0.4,3.5c-0.4,0.8-1.1,1.5-1.9,1.8
										c-0.8,0.4-1.7,0.4-2.8-0.1L412.9,438.6z"/>
								</g>
								<g>
									<path fill="#FFFFFF" d="M418.1,419.8c-0.6,0.2-1.2,0.2-1.8,0c-0.8-0.3-1.4-0.9-1.7-1.7c-0.4-0.8-0.3-1.8,0.1-2.8
										c0.4-1,1-1.8,1.8-2.1c0.8-0.4,1.5-0.4,2.3-0.1c0.7,0.3,1.2,0.7,1.4,1.2c0.2,0.3,0.3,0.7,0.3,1.2c0.4-0.4,0.8-0.6,1.1-0.8
										c0.7-0.3,1.4-0.3,2.3,0c1,0.4,1.6,1,2.1,1.9c0.4,0.9,0.4,1.9-0.1,3.1c-0.4,1.1-1,1.8-1.9,2.3c-0.9,0.5-1.8,0.5-2.9,0.1
										c-0.6-0.3-1.1-0.6-1.5-1.1s-0.5-1.1-0.5-1.8C418.7,419.4,418.4,419.6,418.1,419.8z M424.7,417.3c-0.2-0.6-0.6-1-1.3-1.2
										c-0.7-0.3-1.3-0.3-1.9,0c-0.5,0.3-0.9,0.8-1.2,1.4c-0.3,0.7-0.3,1.3-0.1,1.8c0.2,0.6,0.6,1,1.3,1.2c0.6,0.2,1.1,0.2,1.7,0
										c0.6-0.2,1-0.7,1.3-1.5C424.9,418.4,424.9,417.8,424.7,417.3z M419.2,415.4c-0.2-0.5-0.5-0.8-1-1c-0.4-0.2-0.8-0.1-1.3,0
										c-0.5,0.2-0.8,0.6-1.1,1.3c-0.3,0.7-0.3,1.2,0,1.6c0.2,0.4,0.6,0.7,1,0.9c0.5,0.2,1,0.2,1.4-0.1c0.4-0.3,0.8-0.7,1-1.2
										C419.4,416.4,419.4,415.9,419.2,415.4z"/>
									<path fill="#FFFFFF" d="M425.2,412.1c0.8,0.2,1.5,0.1,2-0.5c0.3-0.3,0.5-0.6,0.7-1c0.3-0.8,0.3-1.5-0.1-2.1
										c-0.4-0.6-0.9-1-1.5-1.3c-0.8-0.3-1.4-0.3-2,0c-0.6,0.3-1,0.8-1.3,1.4c-0.2,0.5-0.3,0.9-0.2,1.3c0.1,0.4,0.2,0.8,0.4,1.2
										l-0.5,1.2l-5.5-3.1l2.2-5.6l1.3,0.5l-1.8,4.6l2.8,1.6c-0.1-0.3-0.1-0.6-0.2-0.9c0-0.5,0.1-1,0.3-1.5c0.4-1,1-1.7,2-2.2
										c0.9-0.4,1.9-0.5,2.9-0.1c1,0.4,1.8,1.1,2.3,2s0.5,2.1,0,3.5c-0.3,0.9-0.9,1.6-1.7,2.1s-1.7,0.6-2.7,0.2L425.2,412.1z"/>
								</g>
								<g>
									<g>
										<path fill="#FFFFFF" d="M355.2,506.1l-1.7-2.3l-4.1,3.1l-0.9-1.1l-0.2-9.1l1-0.7l4.5,6.1l1.4-1l0.8,1l-1.4,1l1.7,2.3
											L355.2,506.1z M352.7,502.8l-3.2-4.2l0.2,6.5L352.7,502.8z"/>
										<path fill="#FFFFFF" d="M358.1,500.3c0.6,0.6,1.2,0.8,2,0.7c0.4-0.1,0.7-0.3,1.1-0.5c0.7-0.5,1-1.1,1-1.8
											c0-0.7-0.2-1.3-0.6-1.9c-0.5-0.7-1.1-1-1.7-1.1s-1.3,0.1-1.8,0.5c-0.4,0.3-0.7,0.6-0.9,1c-0.2,0.4-0.3,0.8-0.3,1.2
											l-1.1,0.7l-3.1-5.6l4.9-3.6l0.8,1.1l-4,3l1.5,2.9c0.1-0.3,0.2-0.6,0.3-0.8c0.2-0.4,0.6-0.8,1-1.1c0.9-0.6,1.8-0.9,2.8-0.8
											s1.8,0.6,2.5,1.4c0.7,0.9,1,1.9,0.9,2.9c0,1.1-0.7,2.1-1.9,3c-0.8,0.6-1.6,0.9-2.5,0.9s-1.7-0.4-2.5-1.2L358.1,500.3z"/>
									</g>
									<g>
										<g>
											<path fill="#FFFFFF" d="M327.1,521.2c-0.9-0.4-1.6-1-2.1-2l1.3-0.7c0.4,0.6,0.8,1,1.2,1.2c0.6,0.4,1.4,0.3,2.3-0.2
												c0.7-0.4,1.1-0.8,1.3-1.4c0.2-0.6,0.2-1.2-0.2-1.7c-0.4-0.7-0.9-1.1-1.5-1.1c-0.6,0-1.3,0.1-2,0.6
												c-0.1,0-0.2,0.1-0.3,0.1c-0.1,0.1-0.2,0.1-0.3,0.2l-0.6-1.1c0.1-0.1,0.3-0.1,0.4-0.2s0.2-0.1,0.3-0.2
												c0.5-0.3,0.8-0.6,1.1-0.9c0.4-0.6,0.4-1.2,0-1.9c-0.3-0.5-0.7-0.8-1.2-0.9c-0.5-0.1-1,0-1.5,0.3
												c-0.9,0.5-1.3,1.1-1.3,1.8c0,0.4,0.1,0.9,0.4,1.5l-1.3,0.7c-0.4-0.8-0.6-1.5-0.6-2.2c0-1.2,0.7-2.2,2-2.9
												c1-0.6,2-0.8,2.8-0.6c0.8,0.2,1.5,0.7,2,1.6c0.3,0.6,0.5,1.2,0.3,1.8c-0.1,0.4-0.2,0.7-0.5,1c0.6-0.1,1.2-0.1,1.7,0.2
												c0.5,0.3,1,0.7,1.3,1.3c0.5,1,0.6,1.9,0.3,2.9c-0.3,1-1.1,1.8-2.2,2.4C329.1,521.4,328,521.6,327.1,521.2z"/>
											<path fill="#FFFFFF" d="M334.8,514.5c0.5,0.7,1.1,1,1.9,1c0.4,0,0.8-0.1,1.2-0.4c0.8-0.4,1.2-1,1.3-1.7
												c0.1-0.7,0-1.3-0.3-1.9c-0.4-0.7-0.9-1.1-1.6-1.3c-0.7-0.2-1.3-0.1-1.9,0.3c-0.4,0.2-0.8,0.5-1,0.9
												c-0.2,0.3-0.4,0.7-0.4,1.2l-1.2,0.5l-2.2-5.9l5.3-2.9l0.7,1.2l-4.4,2.4l1.1,3.1c0.1-0.3,0.3-0.6,0.5-0.8
												c0.3-0.4,0.7-0.7,1.2-1c0.9-0.5,1.9-0.6,2.9-0.4c1,0.2,1.7,0.8,2.2,1.8c0.5,1,0.7,2,0.5,3.1c-0.2,1.1-0.9,2-2.3,2.7
												c-0.8,0.5-1.7,0.6-2.6,0.5c-0.9-0.1-1.7-0.6-2.3-1.6L334.8,514.5z"/>
										</g>
										<g>
											<g>
												<path fill="#FFFFFF" d="M272.8,530.9l-0.3-1.1c1-0.3,1.7-0.7,2-1s0.5-1,0.5-1.9l1.1-0.3l2.7,11.3l-1.5,0.4l-1.9-8
													L272.8,530.9z"/>
												<path fill="#FFFFFF" d="M282.3,534c0.3,0.8,0.8,1.3,1.5,1.4c0.4,0.1,0.8,0.1,1.2,0c0.8-0.2,1.4-0.6,1.7-1.3
													s0.3-1.3,0.2-1.9c-0.2-0.8-0.6-1.3-1.2-1.7c-0.6-0.3-1.2-0.4-1.9-0.2c-0.5,0.1-0.9,0.3-1.2,0.6c-0.3,0.3-0.5,0.6-0.7,1
													l-1.3,0.2l-0.6-6.3l5.9-1.4l0.3,1.4l-4.8,1.2l0.3,3.3c0.2-0.3,0.4-0.5,0.6-0.6c0.4-0.3,0.8-0.5,1.4-0.6
													c1-0.3,2-0.1,2.9,0.4s1.5,1.3,1.7,2.3c0.3,1.1,0.2,2.1-0.3,3.1s-1.4,1.6-2.9,2c-0.9,0.2-1.8,0.2-2.6-0.2
													c-0.8-0.3-1.4-1.1-1.8-2.1L282.3,534z"/>
											</g>
											<g>
												<path fill="#FFFFFF" d="M300.1,529.9c0.1-0.8,0.5-1.7,1.3-2.6l1.2-1.4c0.5-0.6,0.9-1.1,1-1.5c0.3-0.6,0.3-1.1,0.1-1.7
													c-0.2-0.6-0.6-1.1-1.1-1.3c-0.5-0.2-1.1-0.2-1.7,0c-0.9,0.3-1.5,0.9-1.6,1.8c-0.1,0.5,0,1,0.3,1.7l-1.4,0.5
													c-0.3-1-0.5-1.8-0.3-2.5c0.2-1.3,1.1-2.2,2.6-2.8c1.3-0.5,2.3-0.5,3.1,0s1.4,1.1,1.7,1.9c0.3,0.9,0.3,1.7-0.1,2.6
													c-0.2,0.5-0.7,1.2-1.4,2l-0.8,1c-0.4,0.5-0.7,0.9-0.9,1.2c-0.3,0.6-0.5,1.2-0.4,1.8l6-2.2l0.5,1.3l-7.5,2.8
													C300.1,531.7,300,530.8,300.1,529.9z"/>
												<path fill="#FFFFFF" d="M309.5,526.1c0.4,0.8,0.9,1.2,1.7,1.2c0.4,0,0.8,0,1.2-0.2c0.8-0.3,1.3-0.8,1.5-1.5
													s0.2-1.3-0.1-1.9c-0.3-0.8-0.7-1.3-1.4-1.5c-0.6-0.2-1.3-0.2-1.9,0c-0.5,0.2-0.8,0.4-1.1,0.7c-0.3,0.3-0.5,0.7-0.6,1.1
													l-1.2,0.4l-1.4-6.2l5.7-2.1l0.5,1.3l-4.7,1.7l0.7,3.2c0.2-0.3,0.4-0.5,0.6-0.7c0.3-0.3,0.8-0.6,1.3-0.8
													c1-0.4,2-0.4,2.9,0c0.9,0.4,1.6,1.1,2,2.1c0.4,1,0.4,2.1,0.1,3.1c-0.3,1-1.2,1.8-2.6,2.3c-0.9,0.3-1.8,0.4-2.6,0.1
													c-0.9-0.2-1.5-0.9-2-1.9L309.5,526.1z"/>
											</g>
											<g>
												<path fill="#FFFFFF" d="M251,538.7c0.2,0.8,0.6,1.4,1.3,1.6c0.4,0.1,0.8,0.2,1.2,0.1c0.9-0.1,1.5-0.4,1.9-1
													c0.4-0.6,0.5-1.2,0.5-1.9c-0.1-0.8-0.4-1.4-0.9-1.8c-0.5-0.4-1.1-0.6-1.8-0.5c-0.5,0-0.9,0.2-1.3,0.4
													c-0.3,0.2-0.6,0.5-0.9,0.9l-1.3,0l0.4-6.3l6-0.5l0.1,1.4l-4.9,0.4l-0.2,3.3c0.3-0.2,0.5-0.4,0.7-0.5
													c0.4-0.2,0.9-0.3,1.5-0.4c1.1-0.1,2,0.2,2.8,0.8c0.8,0.6,1.2,1.5,1.3,2.5c0.1,1.1-0.2,2.1-0.8,3
													c-0.6,0.9-1.7,1.4-3.1,1.5c-0.9,0.1-1.8-0.1-2.6-0.6s-1.2-1.3-1.4-2.4L251,538.7z"/>
												<g>
													<g>
														<g>
															<g>
																<g>
																	<g>
																		<g>
																			<g>
																				<path fill="#FFFFFF" d="M61.2,423.4l-39.7,17.3l0.7,1.8L62,425.1C61.7,424.5,61.4,424,61.2,423.4z M109,428.7
																					l25.6-16.7l-1-1.6L108,427.1C108.3,427.7,108.7,428.2,109,428.7z M51.6,397.4L9.4,409.7l0.5,1.8l42.2-12.3
																					C52,398.6,51.8,398,51.6,397.4z M98,409.4l26.5-11.6l-0.9-1.7l-26.4,11.5C97.5,408.3,97.7,408.9,98,409.4z
																					 M116.9,380.3l-0.5-1.8l-27.1,7.9c0.2,0.6,0.4,1.2,0.5,1.8L116.9,380.3z M112.2,490.3l-29.1,33.1l1.4,1.3
																					l29.2-33.2C113.1,491.1,112.6,490.7,112.2,490.3z M136.5,561.6l1.7,0.9l20.8-43c-0.6-0.3-1.1-0.5-1.7-0.8
																					L136.5,561.6z M107.9,543l1.5,1.1l25.6-37.3c-0.5-0.3-1.1-0.7-1.6-1L107.9,543z M92.6,471.4L60,498.9l1.2,1.5
																					l32.7-27.6C93.5,472.3,93.1,471.8,92.6,471.4z M75.1,448.5l-35.2,22.9l1,1.6l35.2-22.9
																					C75.8,449.6,75.4,449.1,75.1,448.5z M123.9,447.4l21.4-18.1l-1.2-1.5L122.6,446
																					C123.1,446.5,123.5,447,123.9,447.4z M380.7,408.8l-25.1-11.3l-1,1.7l25.2,11.3
																					C380.2,410,380.5,409.4,380.7,408.8z M369.9,428l-24.5-16.3l-1,1.6l24.5,16.3
																					C369.2,429.1,369.6,428.5,369.9,428z M388.7,387.7l-25.7-7.8l-0.5,1.8l25.7,7.8
																					C388.3,388.9,388.5,388.3,388.7,387.7z M355.2,446.7L334.7,429l-1.2,1.5l20.4,17.7
																					C354.4,447.7,354.8,447.2,355.2,446.7z M339.8,461.3l-17.4-20.3l-1.4,1.3l17.4,20.3
																					C338.9,462.1,339.3,461.7,339.8,461.3z M157.2,474.4l15.5-22.6l-1.5-1.1l-15.5,22.7
																					C156.1,473.7,156.6,474,157.2,474.4z M322.3,473.8l-14.9-22.2l-1.5,1.1l14.8,22.1
																					C321.3,474.4,321.8,474.1,322.3,473.8z M139.5,462l18.2-20.7l-1.4-1.3l-18.3,20.8
																					C138.5,461.2,139,461.6,139.5,462z M342.6,507.4l25.5,38.2l1.5-1.1l-25.5-38.1
																					C343.6,506.7,343.1,507.1,342.6,507.4z M318.5,519.9l20.6,43.7l1.7-0.8l-20.5-43.7
																					C319.7,519.4,319.1,519.7,318.5,519.9z M363.9,492.3l29.4,34.2l1.4-1.3l-29.3-34.2
																					C364.9,491.5,364.4,491.9,363.9,492.3z M292.7,529.1l14.9,47.7l1.8-0.6l-14.9-47.6
																					C293.9,528.7,293.3,528.9,292.7,529.1z M426.3,399.2c-0.2,0.6-0.4,1.2-0.6,1.8l41.9,12.8l0.5-1.8L426.3,399.2z
																					 M415.8,426.6l39,17.5l0.7-1.8l-38.9-17.5C416.3,425.5,416,426,415.8,426.6z M383.6,473.8l33.2,28.7l1.2-1.5
																					l-33.1-28.6C384.5,472.9,384,473.3,383.6,473.8z M167.7,575.4l1.8,0.6l15.4-47.2c-0.6-0.2-1.2-0.4-1.8-0.5
																					L167.7,575.4z M401.5,451.3l34.9,23.2l1-1.6l-34.8-23.2C402.3,450.3,401.9,450.8,401.5,451.3z M303.5,483.6
																					l-11-23.5l-1.7,0.8l11,23.4C302.4,484.1,302.9,483.9,303.5,483.6z M203.5,465.5l-8.3,25.4
																					c0.6,0.2,1.2,0.3,1.8,0.5l8.2-25.3L203.5,465.5z M200.6,585.2l1.8,0.3l8.3-51.2c-0.6-0.1-1.2-0.2-1.8-0.3
																					L200.6,585.2z M215.2,495.2c0.6,0.1,1.2,0.2,1.8,0.3l4.2-26.1l-1.8-0.3L215.2,495.2z M174.4,483.4
																					c0.6,0.3,1.1,0.5,1.7,0.7l11.5-23.7l-1.7-0.9L174.4,483.4z M238,497c0.1,0,0.2,0,0.3,0c0.6,0,1.1,0,1.7,0
																					l0.2-26.5l-2,0L238,497z M266.8,534.5l7.7,51.5l1.8-0.3l-7.7-51.5C268.1,534.3,267.5,534.4,266.8,534.5z
																					 M257.2,469.6l3.9,26c0.6-0.1,1.2-0.2,1.8-0.3l-3.9-26L257.2,469.6z M237.8,536.4l-0.3,53l2,0l0.3-53
																					c-0.6,0-1.1,0-1.7,0C238,536.4,237.9,536.4,237.8,536.4z M273.2,466.5l7.8,25c0.6-0.2,1.2-0.3,1.8-0.5
																					l-7.8-25.1L273.2,466.5z"/>
																				<path fill="#FFFFFF" d="M152,569.7l1.7,0.7l11.5-30.1c-0.6-0.2-1.2-0.4-1.7-0.7L152,569.7z M121.9,553.1l1.6,1
																					l15-25.7c-0.6-0.3-1.1-0.6-1.7-0.9L121.9,553.1z M217.1,587.2l1.9,0.2l3.3-34.8c-0.6,0-1.2-0.1-1.9-0.2
																					L217.1,587.2z M95.5,533.1l1.5,1.2l16.5-21.5c-0.5-0.4-1-0.7-1.5-1.1L95.5,533.1z M181.9,580.8l1.8,0.5
																					l8.5-33.1c-0.6-0.1-1.2-0.3-1.8-0.4L181.9,580.8z M48.3,485.4l1.1,1.5l20.9-15.6c-0.4-0.5-0.8-1-1.2-1.5
																					L48.3,485.4z M39.9,417.1l-24.8,9.3l0.6,1.8l24.8-9.3C40.4,418.3,40.1,417.7,39.9,417.1z M73,377.6L4.9,395.2
																					l0.7,2.9l68-17.5C73.5,379.6,73.2,378.6,73,377.6z M71.1,510.6l1.3,1.4l18.4-18c-0.5-0.4-0.9-0.9-1.4-1.3
																					L71.1,510.6z M253.7,552.8l2.8,34.8l1.9-0.2l-2.8-34.8C255,552.7,254.3,552.7,253.7,552.8z M52.7,444.7
																					l-22.3,11.7l0.8,1.7l22.4-11.8C53.3,445.8,53,445.3,52.7,444.7z M423.6,448.6l22.3,12l0.9-1.7l-22.2-12
																					C424.3,447.5,423.9,448,423.6,448.6z M406.6,473.3l19.6,15l1.1-1.5l-19.5-15C407.4,472.3,407,472.8,406.6,473.3
																					z M446.3,390.8c-0.2,1-0.4,2-0.7,2.9l26.5,7.2l0.8-2.9L446.3,390.8z M385.9,495.7l18.1,18.2l1.3-1.4l-18.1-18.1
																					C386.8,494.9,386.3,495.3,385.9,495.7z M437,421.2l24.7,9.6l0.7-1.8l-24.7-9.6C437.4,420,437.2,420.6,437,421.2
																					z M363.1,514.3l16.2,21.7l1.5-1.2l-16.1-21.6C364.1,513.5,363.6,513.9,363.1,514.3z M310.8,541.1l11.2,30.3
																					l1.7-0.7l-11.2-30.2C312,540.7,311.4,540.9,310.8,541.1z M337.7,529.6l14.7,25.9l1.6-1l-14.6-25.8
																					C338.9,529,338.3,529.3,337.7,529.6z M283.8,548.6l8.1,33.2l1.8-0.5l-8.1-33.2
																					C285,548.4,284.4,548.5,283.8,548.6z M350.3,406.8c3.4-5.8,6.1-11.3,8.2-16.2l38.6,15c0.2-0.6,0.5-1.2,0.7-1.8
																					l-38.5-15c3.4-8,5.3-14.2,6-16.9l80.4,21.7c0.2-1,0.4-2,0.6-2.9l-83.2-22.5l-0.4,1.5c-0.1,0.2-6,25-24.2,49.4
																					c-16.6,22.3-48.8,49.1-100.1,49.8c-51.2-1.4-83.1-28.5-99.5-51c-17.9-24.7-23.6-49.5-23.7-49.7l-0.3-1.5
																					l-41.9,10.8c0.2,1,0.4,2,0.6,2.9l39.1-10.1c0.7,2.7,2.5,8.9,5.8,17L79.9,402c0.2,0.6,0.5,1.2,0.7,1.8l38.7-14.6
																					c2.1,4.9,4.8,10.5,8,16.3l-36.9,19.3c0.3,0.6,0.6,1.1,0.9,1.7l36.9-19.4c2.4,4.1,5,8.2,8,12.4l-33.1,24.7
																					c0.4,0.5,0.8,1,1.2,1.5l33-24.7c3.3,4.4,7,8.9,11.4,13.4l-28.9,28.3c0.5,0.4,0.9,0.9,1.4,1.3l28.9-28.3
																					c3.5,3.6,7.4,7.1,11.7,10.4l-24.1,31.5c0.5,0.4,1,0.7,1.5,1.1l24.1-31.5c4.5,3.4,9.3,6.6,14.6,9.5l-19.7,33.8
																					c0.6,0.3,1.1,0.6,1.7,0.9l19.6-33.7c4.1,2.1,8.4,4.1,13,5.9l-13.8,36.1c0.6,0.2,1.2,0.4,1.8,0.6l13.8-36.1
																					c5.1,1.9,10.5,3.4,16.2,4.7l-9.6,37.3c0.6,0.1,1.2,0.3,1.8,0.4l9.6-37.3c4.9,1,10.1,1.8,15.6,2.3l-3.6,38.2
																					c0.6,0.1,1.2,0.1,1.9,0.1l3.6-38.3c2.5,0.2,5.1,0.3,7.7,0.4l0,0.1c0.4,0,0.7,0,1,0c0.3,0,0.6,0,1,0l0-0.1
																					c2.6,0,5.2-0.1,7.7-0.3l3.1,38.3c0.6,0,1.2-0.1,1.9-0.1l-3.1-38.3c5.4-0.4,10.6-1.1,15.6-2.1l9.1,37.4
																					c0.6-0.1,1.2-0.2,1.8-0.4l-9.1-37.4c5.7-1.2,11.1-2.7,16.2-4.5L296,501c0.6-0.2,1.2-0.4,1.8-0.6l-13.4-36.3
																					c4.6-1.7,8.9-3.6,13-5.7l19.2,33.9c0.6-0.3,1.1-0.6,1.7-0.8l-19.3-34c5.3-2.8,10.2-6,14.7-9.3l23.7,31.8
																					c0.5-0.4,1-0.7,1.5-1.1l-23.7-31.8c4.3-3.3,8.3-6.7,11.8-10.3l28.6,28.6c0.5-0.4,0.9-0.9,1.4-1.3l-28.6-28.7
																					c4.4-4.4,8.2-8.9,11.5-13.2l32.7,25.1c0.4-0.5,0.8-1,1.2-1.5l-32.7-25.1c3.1-4.1,5.8-8.3,8.2-12.3l36.6,19.8
																					c0.3-0.5,0.6-1.1,1-1.6L350.3,406.8z"/>
																			</g>
																			<path fill="#FFFFFF" d="M242,512c0.5,1,0.8,2.3,0.8,4c0,1.6-0.3,2.9-0.7,3.9c-0.7,1.5-1.8,2.2-3.4,2.2
																				c-1.4,0-2.4-0.6-3.1-1.8c-0.6-1-0.8-2.4-0.8-4.1c0-1.3,0.2-2.5,0.5-3.4c0.7-1.8,1.8-2.6,3.5-2.6
																				C240.2,510.2,241.3,510.8,242,512z M240.5,519.8c0.5-0.7,0.7-1.9,0.7-3.8c0-1.3-0.1-2.4-0.5-3.3
																				c-0.3-0.9-1-1.3-1.9-1.3c-0.9,0-1.5,0.4-1.9,1.2c-0.4,0.8-0.6,2-0.6,3.6c0,1.2,0.1,2.1,0.4,2.9
																				c0.4,1.1,1.1,1.7,2,1.7C239.4,520.8,240,520.5,240.5,519.8z"/>
																		</g>
																		<g>
																			<path fill="#FFFFFF" d="M256.4,513.3l-0.2-1.1c1-0.3,1.7-0.5,2.1-0.8c0.4-0.3,0.6-0.9,0.7-1.8l1.1-0.2l1.7,11.5
																				l-1.5,0.2l-1.2-8.2L256.4,513.3z"/>
																			<path fill="#FFFFFF" d="M270.2,509.7c0.7,0.9,1.1,2.1,1.4,3.8c0.2,1.6,0.2,2.9-0.1,4c-0.5,1.6-1.5,2.5-3,2.7
																				c-1.4,0.2-2.5-0.2-3.4-1.3c-0.7-0.9-1.2-2.2-1.5-3.9c-0.2-1.3-0.2-2.5,0-3.5c0.4-1.8,1.4-2.9,3-3.1
																				C268.1,508.1,269.3,508.5,270.2,509.7z M269.9,517.6c0.3-0.7,0.4-2,0.1-3.8c-0.2-1.3-0.5-2.4-1-3.2
																				c-0.4-0.8-1.1-1.1-2.1-1c-0.9,0.1-1.4,0.6-1.7,1.5c-0.3,0.9-0.3,2.1-0.1,3.6c0.2,1.2,0.4,2.1,0.8,2.8
																				c0.6,1,1.3,1.5,2.2,1.3C269,518.7,269.5,518.3,269.9,517.6z"/>
																		</g>
																		<g>
																			<path fill="#FFFFFF" d="M281.6,515.3c0.1-0.8,0.6-1.7,1.4-2.6l1.2-1.3c0.5-0.6,0.9-1.1,1.1-1.4
																				c0.3-0.6,0.3-1.1,0.2-1.7c-0.2-0.6-0.6-1.1-1.1-1.4c-0.5-0.3-1.1-0.3-1.7-0.1c-1,0.3-1.5,0.9-1.7,1.7
																				c-0.1,0.5,0,1,0.2,1.7l-1.4,0.4c-0.3-1-0.4-1.8-0.2-2.5c0.3-1.3,1.2-2.1,2.7-2.6c1.3-0.4,2.3-0.3,3.1,0.2
																				c0.8,0.5,1.3,1.2,1.6,2c0.3,0.9,0.2,1.8-0.2,2.6c-0.2,0.5-0.8,1.1-1.5,1.9l-0.9,0.9c-0.4,0.4-0.7,0.8-0.9,1.2
																				c-0.4,0.6-0.5,1.2-0.5,1.8l6.1-1.9l0.4,1.3l-7.6,2.4C281.5,517,281.4,516.1,281.6,515.3z"/>
																			<path fill="#FFFFFF" d="M294.6,503.7c0.8,0.8,1.4,1.9,1.9,3.5c0.5,1.5,0.6,2.8,0.5,4c-0.2,1.6-1.1,2.7-2.5,3.1
																				c-1.3,0.4-2.5,0.1-3.5-0.8c-0.8-0.8-1.5-2-2-3.6c-0.4-1.3-0.6-2.4-0.5-3.4c0.1-1.9,0.9-3.1,2.5-3.6
																				C292.4,502.4,293.6,502.7,294.6,503.7z M295.5,511.5c0.2-0.8,0.1-2-0.5-3.8c-0.4-1.3-0.9-2.3-1.4-3
																				c-0.6-0.7-1.3-0.9-2.2-0.7c-0.8,0.3-1.3,0.8-1.4,1.7c-0.1,0.9,0,2.1,0.5,3.6c0.4,1.1,0.8,2,1.2,2.6
																				c0.7,0.9,1.5,1.3,2.4,1C294.8,512.8,295.3,512.3,295.5,511.5z"/>
																		</g>
																		<g>
																			<g>
																				<path fill="#FFFFFF" d="M305.1,510c-0.9-0.4-1.6-1.1-2-2.1l1.4-0.7c0.4,0.7,0.7,1.1,1.1,1.3
																					c0.6,0.4,1.4,0.4,2.3,0c0.7-0.3,1.2-0.8,1.4-1.3s0.2-1.2,0-1.7c-0.3-0.7-0.8-1.1-1.4-1.2s-1.3,0.1-2.1,0.4
																					c-0.1,0-0.2,0.1-0.3,0.1c-0.1,0-0.2,0.1-0.3,0.1l-0.6-1.2c0.1,0,0.3-0.1,0.4-0.1s0.2-0.1,0.3-0.1
																					c0.5-0.2,0.9-0.5,1.1-0.8c0.4-0.5,0.5-1.2,0.1-1.9c-0.2-0.5-0.6-0.8-1.1-1c-0.5-0.1-1,0-1.5,0.2
																					c-0.9,0.4-1.4,1-1.4,1.7c0,0.4,0.1,0.9,0.3,1.5l-1.3,0.6c-0.4-0.8-0.5-1.5-0.5-2.2c0.1-1.2,0.8-2.2,2.2-2.8
																					c1.1-0.5,2-0.7,2.8-0.5s1.4,0.8,1.9,1.7c0.3,0.6,0.4,1.3,0.2,1.8c-0.1,0.4-0.3,0.7-0.6,1c0.6-0.1,1.2,0,1.7,0.3
																					c0.5,0.3,0.9,0.7,1.2,1.4c0.5,1,0.5,2,0.2,2.9c-0.4,0.9-1.2,1.7-2.4,2.3C307.1,510.3,306,510.4,305.1,510z"/>
																			</g>
																			<path fill="#FFFFFF" d="M315.6,495.2c0.9,0.6,1.7,1.7,2.4,3.2c0.7,1.4,1,2.7,1,3.9c0,1.6-0.7,2.8-2.1,3.4
																				c-1.3,0.6-2.5,0.5-3.6-0.3c-0.9-0.7-1.8-1.8-2.5-3.3c-0.6-1.2-0.9-2.3-1-3.3c-0.2-1.9,0.5-3.2,2-3.9
																				C313.2,494.2,314.4,494.3,315.6,495.2z M317.5,502.8c0.1-0.8-0.2-2-1-3.7c-0.6-1.2-1.2-2.1-1.8-2.8
																				c-0.7-0.6-1.4-0.8-2.3-0.4c-0.8,0.4-1.2,1-1.2,1.9c0,0.9,0.3,2.1,1,3.5c0.5,1.1,1,1.9,1.6,2.4
																				c0.8,0.8,1.7,1,2.5,0.6C317,504.2,317.4,503.6,317.5,502.8z"/>
																		</g>
																	</g>
																	<g>
																		<path fill="#FFFFFF" d="M332.4,497.8l-1.6-2.4l-4.3,2.8l-0.8-1.2l0.3-9.1l1-0.7l4.2,6.3l1.4-1l0.7,1.1l-1.4,1
																			l1.6,2.4L332.4,497.8z M330.1,494.4l-2.9-4.4l-0.2,6.5L330.1,494.4z"/>
																		<path fill="#FFFFFF" d="M336.5,483.3c1,0.5,1.9,1.5,2.8,2.9c0.9,1.3,1.4,2.5,1.6,3.7c0.3,1.6-0.3,2.9-1.6,3.7
																			c-1.2,0.8-2.4,0.9-3.6,0.2c-1-0.5-2-1.5-3-2.9c-0.7-1.1-1.2-2.1-1.5-3.1c-0.4-1.8,0-3.2,1.4-4.1
																			C334,482.7,335.3,482.6,336.5,483.3z M339.6,490.6c0-0.8-0.5-2-1.5-3.5c-0.7-1.1-1.5-1.9-2.2-2.5
																			c-0.7-0.5-1.5-0.5-2.3,0c-0.7,0.5-1,1.2-0.9,2.1c0.1,0.9,0.6,2,1.5,3.3c0.7,1,1.3,1.7,1.9,2.2
																			c0.9,0.7,1.8,0.8,2.6,0.3C339.3,492,339.6,491.4,339.6,490.6z"/>
																	</g>
																</g>
																<g>
																	<path fill="#FFFFFF" d="M348.8,483.5c0.6,0.6,1.3,0.8,2,0.6c0.4-0.1,0.7-0.3,1.1-0.6c0.7-0.6,1-1.2,0.9-1.9
																		s-0.3-1.3-0.7-1.8c-0.5-0.6-1.1-0.9-1.8-1c-0.7,0-1.3,0.2-1.8,0.7c-0.4,0.3-0.6,0.7-0.8,1.1s-0.2,0.8-0.2,1.2
																		l-1,0.8l-3.4-5.4l4.6-3.9l0.9,1.1l-3.8,3.2l1.7,2.8c0.1-0.3,0.2-0.6,0.3-0.9c0.2-0.4,0.5-0.8,1-1.2
																		c0.8-0.7,1.7-1,2.7-1c1,0,1.9,0.5,2.6,1.3c0.7,0.8,1.1,1.8,1.1,2.9c0,1.1-0.5,2.1-1.7,3.1c-0.7,0.6-1.5,1-2.4,1
																		c-0.9,0.1-1.7-0.3-2.5-1.1L348.8,483.5z"/>
																	<path fill="#FFFFFF" d="M355.7,468.5c1,0.4,2.1,1.2,3.2,2.5c1,1.2,1.7,2.4,2,3.5c0.4,1.6,0.1,2.9-1.1,3.9
																		c-1.1,0.9-2.3,1.1-3.6,0.6c-1.1-0.4-2.2-1.3-3.3-2.6c-0.9-1-1.5-2-1.8-2.9c-0.7-1.8-0.4-3.2,0.9-4.3
																		C353.2,468.3,354.4,468,355.7,468.5z M359.7,475.4c-0.1-0.8-0.7-1.9-1.9-3.3c-0.9-1-1.7-1.7-2.5-2.2
																		c-0.8-0.4-1.6-0.3-2.3,0.3c-0.7,0.6-0.9,1.3-0.6,2.2c0.2,0.9,0.9,1.9,1.9,3.1c0.8,0.9,1.5,1.5,2.2,1.9
																		c1,0.6,1.9,0.6,2.6-0.1C359.5,476.8,359.8,476.2,359.7,475.4z"/>
																</g>
															</g>
															<g>
																<path fill="#FFFFFF" d="M365.2,458.1c0.8,0.1,1.5,0.3,2.1,0.8l-0.9,1.1c-0.4-0.2-0.8-0.4-1.1-0.4
																	c-0.6-0.1-1.1,0.2-1.6,0.7c-0.5,0.6-0.7,1.4-0.4,2.2c0.3,0.9,0.9,1.8,1.9,2.7c-0.2-0.6-0.2-1.1,0-1.7
																	c0.1-0.5,0.4-1,0.8-1.4c0.6-0.7,1.4-1.2,2.4-1.3s1.9,0.2,2.8,1c0.8,0.7,1.3,1.6,1.5,2.6c0.2,1.1-0.2,2.1-1,3
																	c-0.7,0.8-1.6,1.3-2.8,1.3c-1.1,0.1-2.5-0.6-3.9-1.8c-1.1-0.9-1.9-1.9-2.4-2.8c-1-1.8-0.9-3.3,0.2-4.7
																	C363.5,458.5,364.3,458,365.2,458.1z M371.2,464.8c-0.1-0.6-0.5-1.2-1-1.6c-0.5-0.4-1-0.6-1.6-0.7s-1.2,0.2-1.8,0.9
																	c-0.4,0.5-0.6,1-0.6,1.7c0,0.6,0.3,1.2,1,1.8c0.6,0.5,1.2,0.7,1.8,0.7c0.7,0,1.2-0.3,1.7-0.9
																	C371.2,466,371.3,465.4,371.2,464.8z"/>
																<path fill="#FFFFFF" d="M372,451.5c1.1,0.2,2.2,0.9,3.5,2c1.2,1,2,2.1,2.5,3.1c0.7,1.5,0.5,2.8-0.5,4
																	c-0.9,1.1-2.1,1.5-3.4,1.2c-1.1-0.2-2.4-0.9-3.7-2c-1-0.9-1.8-1.7-2.3-2.6c-0.9-1.6-0.8-3.1,0.3-4.4
																	C369.5,451.6,370.6,451.2,372,451.5z M377,457.7c-0.2-0.8-1-1.8-2.4-3c-1-0.9-1.9-1.5-2.8-1.8
																	c-0.9-0.3-1.6-0.1-2.2,0.6c-0.6,0.7-0.7,1.4-0.3,2.2c0.4,0.8,1.1,1.8,2.3,2.8c0.9,0.8,1.7,1.3,2.4,1.6
																	c1.1,0.4,1.9,0.3,2.6-0.4C377,459.2,377.2,458.5,377,457.7z"/>
															</g>
														</g>
														<g>
															<path fill="#FFFFFF" d="M380.8,437.7l1.1,0.7c0.1,0.5,0.3,1.3,0.8,2.3c0.4,1,0.9,2,1.5,3c0.6,1,1.2,1.8,1.7,2.4
																c0.4,0.4,1,1.1,1.8,1.9l-0.9,1.4c-1.7-1.5-3-3.4-4.2-5.7c-0.7-1.3-1.2-2.6-1.5-3.8l-3.6,5.4l-1.2-0.8L380.8,437.7z"
																/>
															<path fill="#FFFFFF" d="M386.8,431.6c1.1,0.1,2.3,0.6,3.7,1.5c1.3,0.9,2.3,1.8,2.9,2.8c0.9,1.4,0.9,2.7,0,4
																c-0.8,1.2-1.9,1.7-3.3,1.6c-1.2-0.1-2.5-0.6-3.9-1.6c-1.1-0.7-2-1.5-2.6-2.3c-1.1-1.5-1.2-3-0.3-4.4
																C384.3,432.1,385.4,431.5,386.8,431.6z M392.5,437.2c-0.3-0.7-1.2-1.6-2.8-2.6c-1.1-0.7-2.1-1.2-3-1.4
																c-0.9-0.2-1.6,0.1-2.1,0.9c-0.5,0.7-0.5,1.5,0,2.3c0.5,0.8,1.3,1.6,2.7,2.5c1,0.7,1.9,1.1,2.6,1.3
																c1.1,0.3,2,0,2.5-0.8C392.8,438.6,392.8,437.9,392.5,437.2z"/>
														</g>
													</g>
													<g>
														<path fill="#FFFFFF" d="M395.9,424.6c-0.6,0.2-1.2,0.2-1.8-0.1c-0.8-0.4-1.3-0.9-1.7-1.8c-0.3-0.8-0.2-1.8,0.2-2.8
															c0.5-1,1.1-1.7,1.9-2c0.8-0.3,1.6-0.3,2.3,0c0.7,0.3,1.1,0.7,1.4,1.2c0.1,0.3,0.2,0.7,0.3,1.2
															c0.4-0.4,0.8-0.6,1.2-0.7c0.7-0.3,1.5-0.2,2.3,0.2c0.9,0.4,1.6,1.1,2,2c0.4,0.9,0.3,2-0.2,3.1c-0.5,1-1.1,1.8-2,2.3
															s-1.9,0.5-2.9,0c-0.6-0.3-1.1-0.7-1.4-1.2c-0.3-0.5-0.5-1.1-0.4-1.8C396.5,424.3,396.2,424.5,395.9,424.6z
															 M402.6,422.4c-0.2-0.6-0.6-1-1.2-1.3c-0.7-0.3-1.3-0.3-1.9-0.1c-0.5,0.3-1,0.7-1.3,1.4c-0.3,0.6-0.3,1.2-0.2,1.8
															c0.2,0.6,0.6,1,1.2,1.3c0.6,0.2,1.1,0.3,1.7,0.1s1-0.7,1.4-1.4C402.7,423.6,402.8,423,402.6,422.4z M397.3,420.3
															c-0.2-0.5-0.5-0.8-1-1c-0.4-0.2-0.8-0.2-1.3,0c-0.5,0.2-0.9,0.6-1.1,1.2c-0.3,0.6-0.3,1.2-0.1,1.6
															c0.2,0.4,0.5,0.8,1,1c0.5,0.2,1,0.2,1.4,0c0.5-0.2,0.8-0.6,1-1.1C397.4,421.3,397.4,420.8,397.3,420.3z"/>
														<path fill="#FFFFFF" d="M399.5,409.2c1.1-0.1,2.4,0.2,3.9,0.9c1.4,0.6,2.5,1.4,3.3,2.3c1.1,1.2,1.3,2.6,0.7,4
															c-0.6,1.3-1.6,2-2.9,2.1c-1.2,0.1-2.5-0.2-4.1-0.9c-1.2-0.5-2.2-1.2-2.9-1.9c-1.4-1.3-1.7-2.7-1-4.3
															C397.1,410.1,398.1,409.3,399.5,409.2z M406,413.8c-0.4-0.7-1.5-1.4-3.2-2.2c-1.2-0.5-2.3-0.8-3.2-0.9
															c-0.9-0.1-1.6,0.4-1.9,1.2c-0.4,0.8-0.2,1.5,0.3,2.2c0.6,0.7,1.6,1.4,3,2c1.1,0.5,2,0.8,2.8,0.8
															c1.2,0.1,1.9-0.3,2.3-1.2C406.5,415.1,406.4,414.5,406,413.8z"/>
													</g>
												</g>
												<g>
													<path fill="#FFFFFF" d="M409.2,402.1c0.8,0.2,1.4,0.1,1.9-0.4c0.2-0.2,0.4-0.5,0.5-0.9c0.2-0.7,0.1-1.3-0.3-2
														c-0.4-0.6-1.4-1.3-3.1-2c0.4,0.5,0.6,1,0.7,1.5c0.1,0.5,0,1-0.2,1.6c-0.3,1.1-0.9,1.8-1.8,2.2
														c-0.9,0.4-1.8,0.5-2.9,0.2c-1-0.3-1.8-0.9-2.4-1.7c-0.6-0.9-0.7-1.9-0.3-3.1c0.5-1.6,1.6-2.5,3.2-2.7
														c0.9-0.1,2,0,3.2,0.4c1.4,0.4,2.5,1,3.4,1.7c1.6,1.2,2.1,2.6,1.6,4.3c-0.3,1.1-0.9,1.8-1.6,2.2s-1.5,0.5-2.4,0.2
														L409.2,402.1z M407.4,397.6c-0.2-0.6-0.8-1-1.7-1.3c-0.8-0.2-1.5-0.2-2,0.1c-0.5,0.3-0.9,0.8-1.1,1.4
														c-0.2,0.7-0.1,1.3,0.2,1.8c0.3,0.5,0.9,0.9,1.7,1.2c0.7,0.2,1.4,0.2,1.9,0c0.5-0.2,0.9-0.7,1.2-1.5
														C407.7,398.8,407.7,398.2,407.4,397.6z"/>
													<path fill="#FFFFFF" d="M406.8,385.9c1.1-0.2,2.4-0.1,4,0.4c1.5,0.5,2.7,1.1,3.6,1.8c1.2,1.1,1.6,2.4,1.2,3.9
														c-0.4,1.3-1.3,2.2-2.7,2.5c-1.1,0.3-2.5,0.1-4.2-0.4c-1.3-0.4-2.3-0.9-3.1-1.5c-1.5-1.1-2-2.5-1.5-4.1
														C404.5,387.1,405.4,386.2,406.8,385.9z M413.8,389.6c-0.5-0.6-1.6-1.2-3.4-1.7c-1.3-0.4-2.4-0.5-3.3-0.5
														c-0.9,0.1-1.5,0.5-1.8,1.4c-0.3,0.8,0,1.6,0.6,2.2c0.7,0.6,1.7,1.2,3.3,1.6c1.1,0.3,2.1,0.5,2.9,0.5
														c1.2-0.1,1.9-0.5,2.2-1.4C414.5,390.9,414.3,390.2,413.8,389.6z"/>
												</g>
											</g>
										</g>
									</g>
								</g>
							</g>
							<path fill="#FFFFFF" d="M220.6,538.2c0,0.8,0.4,1.5,1,1.8c0.3,0.2,0.7,0.3,1.2,0.4c0.9,0.1,1.5-0.1,2-0.6s0.7-1.1,0.8-1.8
								c0.1-0.8-0.1-1.5-0.6-2s-1-0.8-1.7-0.8c-0.5,0-0.9,0-1.3,0.2c-0.4,0.2-0.7,0.4-1,0.7l-1.3-0.2l1.5-6.2l6,0.6l-0.1,1.4
								l-4.9-0.5l-0.8,3.2c0.3-0.2,0.6-0.3,0.8-0.4c0.4-0.1,1-0.2,1.5-0.1c1.1,0.1,1.9,0.5,2.6,1.3s1,1.7,0.9,2.7
								c-0.1,1.1-0.5,2-1.3,2.8c-0.8,0.8-1.9,1.1-3.4,0.9c-0.9-0.1-1.8-0.4-2.4-1c-0.7-0.6-1-1.5-1-2.6L220.6,538.2z"/>
							<g>
								<path fill="#FFFFFF" d="M190,527.4l0.3-1.1c1.1,0.2,1.8,0.2,2.3,0.1c0.5-0.1,0.9-0.6,1.3-1.4l1.1,0.3l-2.9,11.3l-1.5-0.4
									l2.1-8L190,527.4z"/>
								<path fill="#FFFFFF" d="M196.8,534.6c-0.1,0.8,0.1,1.5,0.7,2c0.3,0.2,0.7,0.4,1.1,0.5c0.8,0.2,1.5,0.1,2.1-0.3
									c0.5-0.4,0.9-1,1.1-1.6c0.2-0.8,0.1-1.5-0.3-2c-0.4-0.6-0.9-0.9-1.6-1.1c-0.5-0.1-0.9-0.1-1.3,0c-0.4,0.1-0.8,0.3-1.1,0.6
									l-1.2-0.4l2.4-5.9l5.9,1.5l-0.4,1.4l-4.8-1.2l-1.3,3c0.3-0.1,0.6-0.2,0.9-0.3c0.5-0.1,1,0,1.5,0.1c1,0.3,1.8,0.8,2.4,1.7
									c0.5,0.9,0.7,1.8,0.4,2.8c-0.3,1.1-0.8,1.9-1.7,2.6s-2,0.8-3.5,0.4c-0.9-0.2-1.7-0.7-2.2-1.4c-0.6-0.7-0.8-1.6-0.6-2.7
									L196.8,534.6z"/>
							</g>
							<g>
								<path fill="#FFFFFF" d="M162.3,524c0.6-0.6,1.5-0.9,2.7-1.1l1.8-0.3c0.8-0.1,1.4-0.3,1.8-0.4c0.6-0.3,1-0.7,1.2-1.2
									c0.2-0.6,0.2-1.2,0-1.7c-0.2-0.5-0.7-0.9-1.3-1.1c-0.9-0.4-1.7-0.3-2.4,0.3c-0.3,0.3-0.6,0.8-0.9,1.5l-1.4-0.5
									c0.4-0.9,0.8-1.7,1.4-2.1c1-0.8,2.2-1,3.7-0.4c1.2,0.5,2,1.2,2.4,2.1c0.3,0.9,0.3,1.8,0,2.6c-0.3,0.9-0.9,1.5-1.8,1.9
									c-0.5,0.2-1.3,0.4-2.4,0.6l-1.3,0.2c-0.6,0.1-1.1,0.2-1.5,0.3c-0.7,0.2-1.2,0.6-1.5,1.1l6,2.3l-0.5,1.3l-7.5-2.9
									C161.2,525.3,161.7,524.6,162.3,524z"/>
								<path fill="#FFFFFF" d="M171.9,527.3c-0.2,0.8-0.1,1.5,0.5,2c0.3,0.3,0.6,0.5,1,0.7c0.8,0.3,1.5,0.3,2.1-0.1s1-0.9,1.2-1.5
									c0.3-0.8,0.3-1.4,0-2c-0.3-0.6-0.8-1-1.4-1.3c-0.5-0.2-0.9-0.2-1.3-0.2s-0.8,0.2-1.2,0.4l-1.2-0.5l3.1-5.6l5.7,2.2l-0.5,1.3
									l-4.6-1.8l-1.6,2.9c0.3-0.1,0.6-0.1,0.9-0.2c0.5,0,1,0.1,1.5,0.3c1,0.4,1.7,1,2.2,1.9c0.4,0.9,0.5,1.9,0.1,2.9
									c-0.4,1-1.1,1.8-2,2.4c-0.9,0.5-2.1,0.5-3.5,0c-0.9-0.3-1.6-0.9-2.1-1.7c-0.5-0.8-0.6-1.7-0.3-2.7L171.9,527.3z"/>
							</g>
						</g>
						<g>
							<path fill="#FFFFFF" d="M137,513.5c-0.2-1,0-1.9,0.6-2.9l1.3,0.8c-0.3,0.7-0.5,1.2-0.5,1.6c0,0.7,0.5,1.3,1.3,1.8
								c0.7,0.4,1.3,0.5,1.9,0.4c0.6-0.1,1.1-0.5,1.4-1c0.4-0.7,0.5-1.3,0.2-1.8c-0.3-0.5-0.8-1-1.5-1.4c-0.1,0-0.2-0.1-0.3-0.1
								s-0.2-0.1-0.3-0.1l0.7-1.1c0.1,0.1,0.2,0.2,0.3,0.2c0.1,0.1,0.2,0.1,0.3,0.2c0.5,0.3,0.9,0.4,1.3,0.5c0.7,0,1.2-0.3,1.6-0.9
								c0.3-0.5,0.3-1,0.1-1.5s-0.5-0.9-1-1.1c-0.8-0.5-1.6-0.6-2.2-0.2c-0.4,0.2-0.7,0.6-1.1,1.1l-1.3-0.7c0.4-0.8,1-1.3,1.6-1.7
								c1.1-0.6,2.2-0.6,3.5,0.2c1,0.6,1.7,1.3,2,2.1c0.3,0.8,0.2,1.6-0.3,2.5c-0.4,0.6-0.8,1-1.4,1.2c-0.3,0.1-0.7,0.2-1.1,0.1
								c0.4,0.5,0.7,1,0.8,1.6s-0.1,1.2-0.4,1.8c-0.6,1-1.3,1.6-2.3,1.8s-2.1,0-3.2-0.7C137.8,515.3,137.2,514.5,137,513.5z"/>
							<path fill="#FFFFFF" d="M146.7,516.7c-0.3,0.8-0.3,1.5,0.1,2.1c0.2,0.3,0.5,0.6,0.9,0.8c0.8,0.4,1.4,0.5,2.1,0.3
								c0.6-0.3,1.1-0.7,1.5-1.3c0.4-0.7,0.5-1.4,0.3-2c-0.2-0.6-0.6-1.1-1.2-1.5c-0.4-0.3-0.9-0.4-1.3-0.4c-0.4,0-0.8,0.1-1.2,0.2
								l-1.1-0.7l3.9-5l5.2,3.1l-0.7,1.2l-4.3-2.5l-2.1,2.6c0.3,0,0.6,0,0.9,0c0.5,0.1,0.9,0.2,1.4,0.5c0.9,0.5,1.5,1.3,1.8,2.3
								c0.3,1,0.2,1.9-0.4,2.8c-0.6,1-1.3,1.6-2.4,2c-1,0.4-2.2,0.2-3.5-0.6c-0.8-0.5-1.4-1.1-1.8-2c-0.4-0.8-0.3-1.7,0.2-2.7
								L146.7,516.7z"/>
						</g>
						<g>
							<path fill="#FFFFFF" d="M116.6,501.3l1.7-2.3l-4.1-3.1l0.9-1.1l8.7-2.7l1,0.8l-4.6,6l1.4,1l-0.8,1l-1.4-1l-1.7,2.3
								L116.6,501.3z M119.1,498l3.2-4.2l-6.2,2L119.1,498z"/>
							<path fill="#FFFFFF" d="M123,502.5c-0.4,0.7-0.5,1.4-0.1,2.1c0.2,0.3,0.4,0.6,0.8,0.9c0.7,0.5,1.4,0.7,2,0.5
								c0.7-0.2,1.2-0.5,1.6-1.1c0.5-0.6,0.7-1.3,0.6-2c-0.1-0.7-0.5-1.2-1-1.6c-0.4-0.3-0.8-0.5-1.2-0.6s-0.8,0-1.2,0.1l-1-0.8
								l4.5-4.5l4.8,3.7l-0.9,1.1l-3.9-3l-2.4,2.3c0.3,0,0.6,0,0.9,0.1c0.5,0.1,0.9,0.4,1.4,0.7c0.9,0.6,1.4,1.5,1.5,2.5
								c0.2,1-0.1,1.9-0.7,2.8c-0.7,0.9-1.5,1.4-2.6,1.7c-1.1,0.3-2.2-0.1-3.4-1c-0.8-0.6-1.3-1.3-1.5-2.2c-0.3-0.9-0.1-1.8,0.5-2.7
								L123,502.5z"/>
						</g>
					</g>
					<g>
						<path fill="#FFFFFF" d="M95.6,478.9c-0.5,0.7-0.7,1.3-0.4,2c0.1,0.4,0.4,0.7,0.7,1c0.6,0.6,1.3,0.9,1.9,0.8s1.3-0.4,1.8-0.8
							c0.6-0.6,0.9-1.2,0.8-1.9c0-0.7-0.3-1.2-0.8-1.7c-0.4-0.4-0.7-0.6-1.1-0.7c-0.4-0.1-0.8-0.2-1.2-0.1l-0.8-1l5.1-3.8l4.2,4.3
							l-1,1l-3.5-3.5l-2.7,1.9c0.3,0,0.6,0.1,0.9,0.2c0.4,0.2,0.8,0.5,1.2,0.9c0.7,0.8,1.1,1.7,1.2,2.7c0,1-0.3,1.9-1.1,2.6
							c-0.8,0.8-1.7,1.2-2.8,1.3s-2.1-0.4-3.2-1.4c-0.7-0.7-1.1-1.5-1.2-2.4c-0.1-0.9,0.2-1.8,0.9-2.6L95.6,478.9z"/>
						<path fill="#FFFFFF" d="M102.1,485.5c-0.5,0.7-0.7,1.3-0.4,2c0.1,0.4,0.4,0.7,0.7,1c0.6,0.6,1.3,0.9,1.9,0.8
							c0.7-0.1,1.3-0.4,1.8-0.8c0.6-0.6,0.9-1.2,0.8-1.9c0-0.7-0.3-1.2-0.8-1.7c-0.4-0.4-0.7-0.6-1.1-0.7s-0.8-0.2-1.2-0.1l-0.8-1
							l5.1-3.8l4.2,4.3l-1,1l-3.5-3.5l-2.7,1.9c0.3,0,0.6,0.1,0.9,0.2c0.4,0.2,0.8,0.5,1.2,0.9c0.7,0.8,1.1,1.7,1.2,2.7
							c0,1-0.3,1.9-1.1,2.6c-0.8,0.8-1.7,1.2-2.8,1.3c-1.1,0.1-2.1-0.4-3.2-1.4c-0.7-0.7-1.1-1.5-1.2-2.4c-0.1-0.9,0.2-1.8,0.9-2.6
							L102.1,485.5z"/>
					</g>
					<g>
						<path fill="#FFFFFF" d="M87.1,456.9c-0.2,0.8-0.6,1.4-1.2,1.9l-0.9-1.2c0.3-0.3,0.5-0.7,0.6-1c0.2-0.6,0.1-1.2-0.4-1.7
							c-0.5-0.7-1.2-1-2.1-0.9c-0.9,0.1-1.9,0.5-3.1,1.3c0.6,0,1.1,0.1,1.6,0.4c0.5,0.2,0.9,0.6,1.2,1.1c0.6,0.8,0.8,1.7,0.8,2.6
							c-0.1,1-0.6,1.8-1.6,2.5c-0.9,0.6-1.8,0.9-2.9,0.8s-2-0.6-2.7-1.6c-0.7-0.9-0.9-1.9-0.7-3c0.2-1.1,1.1-2.3,2.7-3.4
							c1.2-0.9,2.3-1.5,3.3-1.8c2-0.6,3.5-0.2,4.5,1.3C87.1,455.1,87.4,456,87.1,456.9z M79.3,461.3c0.6,0,1.3-0.2,1.8-0.6
							c0.5-0.4,0.8-0.8,1.1-1.4c0.2-0.6,0.1-1.3-0.5-2c-0.4-0.5-0.9-0.8-1.5-1c-0.6-0.1-1.3,0.1-1.9,0.6c-0.6,0.4-1,1-1.1,1.6
							c-0.1,0.6,0,1.3,0.5,1.9C78.1,461,78.7,461.3,79.3,461.3z"/>
						<path fill="#FFFFFF" d="M83.2,464.5c-0.6,0.6-0.8,1.2-0.7,2c0.1,0.4,0.3,0.7,0.5,1.1c0.5,0.7,1.1,1.1,1.8,1.1
							c0.7,0,1.3-0.2,1.9-0.6c0.7-0.5,1-1.1,1.1-1.7c0.1-0.7-0.1-1.3-0.5-1.8c-0.3-0.4-0.6-0.7-1-0.9s-0.8-0.3-1.2-0.3l-0.7-1.1
							l5.6-3l3.6,4.9l-1.1,0.8l-3-4l-2.9,1.5c0.3,0.1,0.6,0.2,0.8,0.3c0.4,0.2,0.8,0.6,1.1,1.1c0.6,0.9,0.9,1.8,0.8,2.8
							c-0.1,1-0.6,1.8-1.4,2.5c-0.9,0.7-1.9,1-3,0.9c-1.1,0-2.1-0.7-3-1.9c-0.6-0.8-0.9-1.6-0.9-2.5c0-0.9,0.4-1.7,1.2-2.5
							L83.2,464.5z"/>
					</g>
					<g>
						<path fill="#FFFFFF" d="M73.1,434.1l-1.1,0.6c-0.5-0.2-1.3-0.3-2.4-0.4c-1.1-0.1-2.2-0.2-3.4-0.1c-1.1,0.1-2.1,0.2-3,0.3
							c-0.5,0.1-1.4,0.3-2.6,0.7l-0.8-1.4c2.1-0.7,4.5-1,7-0.9c1.5,0.1,2.8,0.2,4.1,0.5l-3-5.7l1.3-0.7L73.1,434.1z"/>
						<path fill="#FFFFFF" d="M66.8,440.4c-0.7,0.5-1,1.1-1,1.8c0,0.4,0.1,0.8,0.3,1.2c0.4,0.8,0.9,1.2,1.6,1.3
							c0.7,0.1,1.3,0,1.9-0.3c0.7-0.4,1.2-0.9,1.3-1.5c0.2-0.6,0.1-1.3-0.2-1.9c-0.2-0.4-0.5-0.8-0.9-1c-0.3-0.2-0.7-0.4-1.2-0.4
							l-0.5-1.2l6-2.1l2.8,5.4l-1.3,0.7l-2.3-4.4l-3.1,1.1c0.3,0.1,0.6,0.3,0.8,0.5c0.4,0.3,0.7,0.7,0.9,1.2
							c0.5,0.9,0.6,1.9,0.3,2.9c-0.3,1-0.9,1.7-1.8,2.2c-1,0.5-2,0.7-3.1,0.5c-1.1-0.2-1.9-1-2.6-2.3c-0.4-0.8-0.6-1.7-0.5-2.6
							c0.1-0.9,0.7-1.6,1.6-2.2L66.8,440.4z"/>
					</g>
				</g>
				<g>
					<path fill="#FFFFFF" d="M54.6,405c0.3-0.6,0.7-1,1.4-1.2c0.8-0.3,1.6-0.3,2.4,0.1c0.8,0.4,1.4,1.1,1.8,2.2c0.4,1,0.4,2,0.1,2.8
						c-0.3,0.8-0.9,1.3-1.6,1.6c-0.7,0.3-1.3,0.3-1.9,0.1c-0.3-0.1-0.7-0.3-1-0.6c0,0.5-0.1,1-0.3,1.3c-0.3,0.7-0.9,1.2-1.7,1.5
						c-1,0.4-1.9,0.3-2.8-0.1s-1.6-1.2-2-2.4c-0.4-1.1-0.4-2.1-0.1-3c0.3-1,1-1.6,2.1-2c0.6-0.2,1.3-0.3,1.9-0.2
						c0.6,0.1,1.1,0.5,1.6,1C54.4,405.7,54.4,405.3,54.6,405z M51.3,411.3c0.5,0.3,1.1,0.3,1.8,0.1c0.7-0.3,1.2-0.7,1.4-1.3
						c0.2-0.6,0.2-1.2-0.1-1.9c-0.2-0.7-0.6-1.1-1.2-1.4c-0.5-0.3-1.1-0.3-1.8,0c-0.6,0.2-1,0.6-1.3,1.1c-0.3,0.5-0.3,1.2,0,2
						C50.4,410.5,50.8,411,51.3,411.3z M56.6,409c0.5,0.2,0.9,0.2,1.4,0.1c0.4-0.2,0.7-0.5,0.9-0.9c0.2-0.5,0.2-1,0-1.7
						c-0.2-0.7-0.6-1.1-1.1-1.2c-0.5-0.2-0.9-0.2-1.4,0c-0.5,0.2-0.8,0.5-1,1c-0.1,0.5-0.1,1,0.1,1.5
						C55.8,408.4,56.1,408.8,56.6,409z"/>
					<path fill="#FFFFFF" d="M54.4,415.5c-0.7,0.4-1.2,1-1.2,1.7c0,0.4,0,0.8,0.2,1.2c0.3,0.8,0.8,1.3,1.5,1.5
						c0.7,0.2,1.3,0.2,1.9-0.1c0.8-0.3,1.3-0.7,1.5-1.4s0.2-1.3,0-1.9c-0.2-0.5-0.4-0.8-0.7-1.1c-0.3-0.3-0.7-0.5-1.1-0.6l-0.4-1.2
						l6.2-1.4l2.1,5.7l-1.3,0.5l-1.7-4.6l-3.2,0.7c0.3,0.2,0.5,0.4,0.7,0.6c0.3,0.3,0.6,0.8,0.8,1.3c0.4,1,0.4,2,0,2.9
						c-0.4,0.9-1.1,1.6-2.1,2c-1,0.4-2.1,0.4-3.1,0.1s-1.8-1.2-2.3-2.6c-0.3-0.9-0.4-1.8-0.1-2.6c0.2-0.9,0.9-1.5,1.9-2L54.4,415.5z
						"/>
				</g>
			</g>
		</g>
		<g>
			<path fill="#FFFFFF" d="M67.2,386.9c-0.8,0.3-1.2,0.7-1.3,1.4c-0.1,0.3-0.1,0.7,0,1c0.2,0.7,0.6,1.2,1.3,1.5
				c0.7,0.3,1.9,0.3,3.7,0c-0.6-0.2-1-0.5-1.4-0.9c-0.3-0.4-0.6-0.9-0.7-1.4c-0.3-1.1-0.2-2,0.3-2.9c0.5-0.8,1.3-1.4,2.3-1.7
				c1-0.3,2-0.2,3,0.1c1,0.4,1.6,1.2,2,2.4c0.5,1.6,0.1,3-1.2,4c-0.7,0.6-1.7,1-2.9,1.4c-1.4,0.4-2.6,0.5-3.8,0.4
				c-2-0.2-3.2-1.1-3.7-2.7c-0.3-1.1-0.3-2,0.1-2.7c0.4-0.7,1-1.2,1.9-1.5L67.2,386.9z M71.2,389.8c0.5,0.4,1.2,0.4,2.1,0.1
				c0.8-0.2,1.4-0.6,1.7-1.2c0.3-0.5,0.3-1.1,0.1-1.8c-0.2-0.7-0.6-1.2-1.2-1.4c-0.6-0.3-1.3-0.3-2-0.1c-0.7,0.2-1.3,0.6-1.6,1
				c-0.3,0.5-0.4,1.1-0.1,1.9C70.3,389,70.6,389.4,71.2,389.8z"/>
			<path fill="#FFFFFF" d="M78.1,399.3c-0.8,0.8-2,1.4-3.6,1.9c-1.5,0.4-2.8,0.6-4,0.4c-1.6-0.2-2.6-1.1-3.1-2.6
				c-0.4-1.3-0.1-2.5,0.9-3.5c0.8-0.8,2-1.5,3.7-2c1.3-0.4,2.4-0.5,3.4-0.5c1.9,0.1,3.1,1,3.5,2.6C79.4,397,79.1,398.3,78.1,399.3z
				 M70.2,400c0.8,0.2,2,0.1,3.8-0.4c1.3-0.4,2.3-0.8,3-1.4c0.7-0.6,1-1.3,0.7-2.2c-0.2-0.8-0.8-1.3-1.7-1.5c-0.9-0.2-2.1,0-3.6,0.4
				c-1.1,0.3-2,0.7-2.6,1.2c-0.9,0.7-1.3,1.5-1,2.4C68.9,399.3,69.4,399.8,70.2,400z"/>
		</g>
	</g>
</g>
<g>
	<path fill="#FFFFFF" d="M205.7,199h3.5v23h13.1v3.1h-16.7V199z"/>
	<path fill="#FFFFFF" d="M226,199h4.2l13,21.1V199h3.4v26.1h-4L229.4,204v21.1H226V199z"/>
	<path fill="#FFFFFF" d="M252.2,199h11.3c3.1,0,5.3,0.9,6.6,2.7c0.8,1.1,1.1,2.3,1.1,3.7c0,1.6-0.5,3-1.4,4.1
		c-0.5,0.6-1.2,1.1-2.1,1.5c1.3,0.5,2.3,1.1,3,1.7c1.2,1.1,1.8,2.7,1.8,4.7c0,1.7-0.5,3.2-1.6,4.6c-1.6,2-4.1,3.1-7.6,3.1h-11.1V199
		z M262.2,210c1.5,0,2.7-0.2,3.5-0.6c1.3-0.7,2-1.8,2-3.5c0-1.7-0.7-2.9-2.1-3.5c-0.8-0.3-2-0.5-3.5-0.5h-6.4v8.1H262.2z
		 M263.4,222.1c2.2,0,3.8-0.6,4.7-1.9c0.6-0.8,0.9-1.8,0.9-2.9c0-1.9-0.9-3.2-2.6-3.9c-0.9-0.4-2.1-0.6-3.6-0.6h-7.1v9.2H263.4z"/>
</g>
<g>
	<g>
		<path fill="#FFFFFF" d="M579.9,277.6c1.6,1.6,2.5,3.3,2.7,5.3h-3.1c-0.3-1.5-1-2.7-2.1-3.6s-2.5-1.3-4.3-1.3
			c-2.3,0-4.1,0.8-5.5,2.4c-1.4,1.6-2.1,4.1-2.1,7.4c0,2.7,0.6,5,1.9,6.7c1.3,1.7,3.1,2.6,5.6,2.6c2.3,0,4-0.9,5.2-2.7
			c0.6-0.9,1.1-2.2,1.4-3.7h3.1c-0.3,2.5-1.2,4.5-2.7,6.2c-1.8,2-4.3,3-7.4,3c-2.7,0-4.9-0.8-6.8-2.5c-2.4-2.2-3.6-5.5-3.6-10.1
			c0-3.4,0.9-6.3,2.7-8.5c2-2.4,4.6-3.6,8.1-3.6C576,275.3,578.3,276,579.9,277.6z"/>
		<path fill="#FFFFFF" d="M586.5,275.8h2.9v8.7c0.7-0.9,1.3-1.5,1.8-1.8c0.9-0.6,2.1-0.9,3.5-0.9c2.5,0,4.1,0.9,5,2.6
			c0.5,0.9,0.7,2.3,0.7,3.9v10.9h-2.9v-10.7c0-1.3-0.2-2.2-0.5-2.8c-0.5-0.9-1.5-1.4-2.9-1.4c-1.2,0-2.3,0.4-3.2,1.2
			c-1,0.8-1.4,2.4-1.4,4.6v9h-2.9V275.8z"/>
		<path fill="#FFFFFF" d="M617,283.9c1.5,1.5,2.3,3.6,2.3,6.5c0,2.7-0.7,5-2,6.8c-1.3,1.8-3.4,2.7-6.2,2.7c-2.3,0-4.2-0.8-5.5-2.4
			c-1.4-1.6-2.1-3.7-2.1-6.4c0-2.9,0.7-5.1,2.2-6.8c1.4-1.7,3.4-2.5,5.8-2.5C613.6,281.7,615.5,282.5,617,283.9z M615.2,295.3
			c0.7-1.4,1-3,1-4.8c0-1.6-0.3-2.9-0.8-3.9c-0.8-1.6-2.2-2.4-4.1-2.4c-1.7,0-3,0.7-3.8,2c-0.8,1.3-1.2,2.9-1.2,4.8
			c0,1.8,0.4,3.3,1.2,4.5c0.8,1.2,2,1.8,3.7,1.8C613.2,297.4,614.5,296.7,615.2,295.3z"/>
		<path fill="#FFFFFF" d="M622.7,275.9h2.8v13.6l7.3-7.2h3.7l-6.5,6.3l6.9,10.7h-3.7l-5.4-8.7l-2.4,2.3v6.4h-2.8V275.9z"/>
		<path fill="#FFFFFF" d="M649.6,282.7c1.1,0.6,2,1.3,2.6,2.2c0.6,0.9,0.9,1.9,1.1,3c0.2,0.8,0.3,2,0.3,3.8h-12.4
			c0.1,1.7,0.5,3.1,1.2,4.2c0.8,1,1.9,1.6,3.5,1.6c1.5,0,2.7-0.5,3.6-1.5c0.5-0.6,0.8-1.2,1.1-2h2.8c-0.1,0.6-0.3,1.3-0.7,2.1
			c-0.4,0.8-0.9,1.4-1.4,1.9c-0.9,0.8-1.9,1.4-3.2,1.7c-0.7,0.2-1.5,0.3-2.3,0.3c-2.1,0-3.9-0.8-5.4-2.3c-1.5-1.5-2.2-3.7-2.2-6.5
			c0-2.7,0.7-5,2.2-6.7c1.5-1.7,3.4-2.6,5.8-2.6C647.3,281.9,648.4,282.1,649.6,282.7z M650.6,289.4c-0.1-1.2-0.4-2.2-0.8-3
			c-0.8-1.4-2.1-2.1-3.9-2.1c-1.3,0-2.4,0.5-3.3,1.4c-0.9,0.9-1.4,2.2-1.4,3.6H650.6z"/>
	</g>
	<g>
		<path fill="#FFFFFF" d="M562.3,312h16.2v2.9h-13v7.1H577v2.8h-11.5v10.6h-3.2V312z"/>
		<path fill="#FFFFFF" d="M592.1,318.8c1.1,0.6,2,1.3,2.6,2.2c0.6,0.9,0.9,1.9,1.1,3c0.2,0.8,0.3,2,0.3,3.8h-12.4
			c0.1,1.7,0.5,3.1,1.2,4.2c0.8,1,1.9,1.6,3.5,1.6c1.5,0,2.7-0.5,3.6-1.5c0.5-0.6,0.8-1.2,1.1-2h2.8c-0.1,0.6-0.3,1.3-0.7,2.1
			c-0.4,0.8-0.9,1.4-1.4,1.9c-0.9,0.8-1.9,1.4-3.2,1.7c-0.7,0.2-1.5,0.3-2.3,0.3c-2.1,0-3.9-0.8-5.4-2.3c-1.5-1.5-2.2-3.7-2.2-6.5
			c0-2.7,0.7-5,2.2-6.7c1.5-1.7,3.4-2.6,5.8-2.6C589.8,318,590.9,318.3,592.1,318.8z M593.1,325.5c-0.1-1.2-0.4-2.2-0.8-3
			c-0.8-1.4-2.1-2.1-3.9-2.1c-1.3,0-2.4,0.5-3.3,1.4c-0.9,0.9-1.4,2.2-1.4,3.6H593.1z"/>
		<path fill="#FFFFFF" d="M610.2,318.8c1.1,0.6,2,1.3,2.6,2.2c0.6,0.9,0.9,1.9,1.1,3c0.2,0.8,0.3,2,0.3,3.8h-12.4
			c0.1,1.7,0.5,3.1,1.2,4.2c0.8,1,1.9,1.6,3.5,1.6c1.5,0,2.7-0.5,3.6-1.5c0.5-0.6,0.8-1.2,1.1-2h2.8c-0.1,0.6-0.3,1.3-0.7,2.1
			c-0.4,0.8-0.9,1.4-1.4,1.9c-0.9,0.8-1.9,1.4-3.2,1.7c-0.7,0.2-1.5,0.3-2.3,0.3c-2.1,0-3.9-0.8-5.4-2.3c-1.5-1.5-2.2-3.7-2.2-6.5
			c0-2.7,0.7-5,2.2-6.7c1.5-1.7,3.4-2.6,5.8-2.6C607.9,318,609.1,318.3,610.2,318.8z M611.2,325.5c-0.1-1.2-0.4-2.2-0.8-3
			c-0.8-1.4-2.1-2.1-3.9-2.1c-1.3,0-2.4,0.5-3.3,1.4c-0.9,0.9-1.4,2.2-1.4,3.6H611.2z"/>
		<path fill="#FFFFFF" d="M627.1,318.9c0.5,0.3,1.1,0.9,1.7,1.7V312h2.8v23.4H629V333c-0.7,1-1.5,1.8-2.4,2.3
			c-0.9,0.5-2,0.7-3.1,0.7c-1.9,0-3.5-0.8-4.9-2.4c-1.4-1.6-2.1-3.7-2.1-6.4c0-2.5,0.6-4.6,1.9-6.5c1.3-1.8,3.1-2.7,5.4-2.7
			C625.2,318.1,626.3,318.3,627.1,318.9z M620.7,331.7c0.8,1.2,2,1.8,3.7,1.8c1.3,0,2.4-0.6,3.3-1.7c0.8-1.1,1.3-2.8,1.3-4.9
			c0-2.2-0.4-3.7-1.3-4.8c-0.9-1-2-1.6-3.2-1.6c-1.4,0-2.6,0.6-3.5,1.7c-0.9,1.1-1.3,2.7-1.3,4.9C619.6,328.9,620,330.4,620.7,331.7
			z"/>
	</g>
</g>
<g>
	<path fill="#FFFFFF" d="M216.6,353c0,0.7,0.2,1.3,0.5,1.8c0.6,0.9,1.6,1.3,3,1.3c0.6,0,1.2-0.1,1.7-0.3c1-0.4,1.5-1,1.5-2
		c0-0.7-0.2-1.2-0.6-1.5c-0.4-0.3-1.1-0.6-2-0.8l-1.7-0.4c-1.1-0.3-1.9-0.5-2.4-0.9c-0.8-0.5-1.2-1.4-1.2-2.4c0-1.2,0.4-2.1,1.2-2.9
		c0.8-0.7,1.9-1.1,3.3-1.1c1.3,0,2.4,0.3,3.4,1c0.9,0.7,1.4,1.7,1.4,3.1H223c-0.1-0.7-0.3-1.2-0.5-1.6c-0.5-0.7-1.4-1-2.6-1
		c-1,0-1.7,0.2-2.1,0.7c-0.4,0.4-0.7,0.9-0.7,1.5c0,0.6,0.3,1.1,0.8,1.4c0.3,0.2,1.1,0.4,2.3,0.7l1.8,0.4c0.9,0.2,1.5,0.5,2,0.8
		c0.8,0.6,1.2,1.5,1.2,2.6c0,1.4-0.5,2.5-1.5,3.1c-1,0.6-2.2,0.9-3.6,0.9c-1.6,0-2.8-0.4-3.7-1.2c-0.9-0.8-1.3-1.9-1.3-3.3H216.6z"
		/>
	<path fill="#FFFFFF" d="M227.5,344.2h1.7v6.4l6.5-6.4h2.5l-5.5,5.2l5.7,7.7H236l-4.6-6.5l-2.1,2v4.5h-1.7V344.2z"/>
	<path fill="#FFFFFF" d="M239.8,344.2h9.4v1.6h-7.7v3.9h7.1v1.5h-7.1v4.4h7.8v1.5h-9.5V344.2z"/>
	<path fill="#FFFFFF" d="M252.5,344.2l2.4,10.5l2.9-10.5h1.9l2.9,10.6l2.4-10.6h1.9l-3.4,13h-1.8l-3-10.8l-3,10.8H254l-3.4-13H252.5
		z"/>
</g>
<g>
	<g>
		<path fill="#FFFFFF" d="M38.1,582.9h3.7l11.6,18.8v-18.8h3v23.3h-3.6l-11.8-18.8v18.8h-3V582.9z"/>
		<path fill="#FFFFFF" d="M71.7,589.7c1.1,0.6,2,1.3,2.6,2.2c0.6,0.9,0.9,1.9,1.1,3c0.2,0.8,0.3,2,0.3,3.7H63.3
			c0.1,1.7,0.5,3.1,1.2,4.2c0.8,1,1.9,1.6,3.5,1.6c1.5,0,2.7-0.5,3.5-1.5c0.5-0.6,0.8-1.2,1-2h2.8c-0.1,0.6-0.3,1.3-0.7,2.1
			s-0.9,1.4-1.4,1.9c-0.9,0.8-1.9,1.4-3.2,1.7c-0.7,0.2-1.5,0.3-2.3,0.3c-2.1,0-3.9-0.8-5.3-2.3c-1.5-1.5-2.2-3.7-2.2-6.5
			c0-2.7,0.7-4.9,2.2-6.7c1.5-1.7,3.4-2.6,5.8-2.6C69.4,588.8,70.6,589.1,71.7,589.7z M72.7,596.3c-0.1-1.2-0.4-2.2-0.8-3
			c-0.8-1.4-2.1-2.1-3.9-2.1c-1.3,0-2.4,0.5-3.3,1.4c-0.9,0.9-1.3,2.2-1.4,3.6H72.7z"/>
		<path fill="#FFFFFF" d="M88.7,589.9c0.5,0.4,1.1,0.9,1.6,1.6v-2.1H93v15.5c0,2.2-0.3,3.9-1,5.1c-1.2,2.3-3.4,3.5-6.7,3.5
			c-1.8,0-3.4-0.4-4.6-1.2c-1.2-0.8-1.9-2.1-2.1-3.9h2.9c0.1,0.8,0.4,1.3,0.8,1.8c0.6,0.6,1.7,1,3,1c2.2,0,3.6-0.8,4.3-2.3
			c0.4-0.9,0.6-2.5,0.6-4.9c-0.6,0.9-1.3,1.5-2.1,1.9c-0.8,0.4-1.9,0.6-3.2,0.6c-1.8,0-3.4-0.7-4.8-2s-2.1-3.5-2.1-6.5
			c0-2.8,0.7-5.1,2.1-6.7c1.4-1.6,3.1-2.4,5-2.4C86.6,588.9,87.8,589.2,88.7,589.9z M89.1,592.9c-0.9-1-2-1.5-3.3-1.5
			c-2,0-3.4,0.9-4.1,2.8c-0.4,1-0.6,2.3-0.6,4c0,1.9,0.4,3.4,1.2,4.4c0.8,1,1.8,1.5,3.1,1.5c2,0,3.5-0.9,4.3-2.8
			c0.5-1,0.7-2.3,0.7-3.7C90.4,595.5,90,594,89.1,592.9z"/>
		<path fill="#FFFFFF" d="M106.5,595.9c0.7-0.1,1.1-0.4,1.3-0.8c0.1-0.3,0.2-0.6,0.2-1.1c0-1-0.3-1.7-1-2.1c-0.7-0.4-1.7-0.7-3-0.7
			c-1.5,0-2.5,0.4-3.2,1.2c-0.3,0.4-0.6,1.1-0.7,2h-2.7c0.1-2.1,0.7-3.6,2-4.4c1.3-0.8,2.8-1.2,4.5-1.2c2,0,3.6,0.4,4.9,1.1
			c1.2,0.8,1.9,1.9,1.9,3.6v9.8c0,0.3,0.1,0.5,0.2,0.7c0.1,0.2,0.4,0.3,0.8,0.3c0.1,0,0.3,0,0.4,0c0.2,0,0.3,0,0.5-0.1v2.1
			c-0.4,0.1-0.8,0.2-1,0.2c-0.2,0-0.6,0-1,0c-1,0-1.7-0.3-2.1-1c-0.2-0.4-0.4-0.9-0.5-1.6c-0.6,0.8-1.4,1.4-2.5,2s-2.3,0.8-3.6,0.8
			c-1.6,0-2.9-0.5-3.9-1.4c-1-1-1.5-2.2-1.5-3.6c0-1.6,0.5-2.8,1.5-3.7c1-0.9,2.3-1.4,3.9-1.6L106.5,595.9z M100.5,603.6
			c0.6,0.5,1.3,0.7,2.1,0.7c1,0,2-0.2,2.9-0.7c1.6-0.8,2.4-2,2.4-3.8v-2.3c-0.3,0.2-0.8,0.4-1.3,0.6c-0.5,0.1-1.1,0.3-1.6,0.3
			l-1.7,0.2c-1,0.1-1.8,0.4-2.3,0.6c-0.9,0.5-1.3,1.3-1.3,2.4C99.6,602.5,99.9,603.2,100.5,603.6z"/>
		<path fill="#FFFFFF" d="M116,584.5h2.9v4.7h2.7v2.3h-2.7v11.1c0,0.6,0.2,1,0.6,1.2c0.2,0.1,0.6,0.2,1.1,0.2c0.1,0,0.3,0,0.4,0
			c0.2,0,0.3,0,0.6-0.1v2.3c-0.3,0.1-0.7,0.2-1,0.2c-0.4,0-0.7,0.1-1.2,0.1c-1.3,0-2.2-0.3-2.7-1c-0.5-0.7-0.7-1.6-0.7-2.7v-11.3
			h-2.3v-2.3h2.3V584.5z"/>
		<path fill="#FFFFFF" d="M124.5,582.9h2.9v3.2h-2.9V582.9z M124.5,589.3h2.9v16.9h-2.9V589.3z"/>
		<path fill="#FFFFFF" d="M133.1,589.2l4.5,13.8l4.7-13.8h3.1l-6.4,17h-3l-6.3-17H133.1z"/>
		<path fill="#FFFFFF" d="M158.5,589.7c1.1,0.6,2,1.3,2.6,2.2c0.6,0.9,0.9,1.9,1.1,3c0.2,0.8,0.3,2,0.3,3.7h-12.4
			c0.1,1.7,0.5,3.1,1.2,4.2c0.8,1,1.9,1.6,3.5,1.6c1.5,0,2.7-0.5,3.5-1.5c0.5-0.6,0.8-1.2,1-2h2.8c-0.1,0.6-0.3,1.3-0.7,2.1
			s-0.9,1.4-1.4,1.9c-0.9,0.8-1.9,1.4-3.2,1.7c-0.7,0.2-1.5,0.3-2.3,0.3c-2.1,0-3.9-0.8-5.3-2.3c-1.5-1.5-2.2-3.7-2.2-6.5
			c0-2.7,0.7-4.9,2.2-6.7c1.5-1.7,3.4-2.6,5.8-2.6C156.2,588.8,157.4,589.1,158.5,589.7z M159.5,596.3c-0.1-1.2-0.4-2.2-0.8-3
			c-0.8-1.4-2.1-2.1-3.9-2.1c-1.3,0-2.4,0.5-3.3,1.4c-0.9,0.9-1.3,2.2-1.4,3.6H159.5z"/>
	</g>
	<g>
		<path fill="#FFFFFF" d="M72.2,634.8c0.1,1.3,0.4,2.4,0.9,3.2c1,1.5,2.8,2.3,5.3,2.3c1.1,0,2.2-0.2,3.1-0.5
			c1.8-0.7,2.7-1.8,2.7-3.5c0-1.3-0.4-2.2-1.2-2.7c-0.8-0.5-2-1-3.7-1.4l-3.1-0.7c-2-0.5-3.4-1-4.2-1.5c-1.4-1-2.2-2.4-2.2-4.4
			c0-2.1,0.7-3.8,2.1-5.2c1.4-1.3,3.4-2,6-2c2.4,0,4.4,0.6,6.1,1.8c1.7,1.2,2.5,3.1,2.5,5.7h-3c-0.2-1.2-0.5-2.2-1-2.9
			c-0.9-1.2-2.5-1.8-4.7-1.8c-1.8,0-3.1,0.4-3.9,1.2c-0.8,0.8-1.2,1.7-1.2,2.7c0,1.1,0.5,2,1.4,2.5c0.6,0.3,2,0.8,4.1,1.3l3.2,0.7
			c1.5,0.4,2.7,0.9,3.5,1.5c1.4,1.1,2.2,2.7,2.2,4.7c0,2.6-0.9,4.4-2.7,5.5s-4,1.7-6.4,1.7c-2.8,0-5-0.7-6.6-2.2
			c-1.6-1.5-2.4-3.5-2.4-6H72.2z"/>
		<path fill="#FFFFFF" d="M91.4,619h2.7v13.5l7.3-7.2h3.7l-6.5,6.3l6.9,10.7h-3.7l-5.3-8.7l-2.3,2.3v6.4h-2.7V619z"/>
		<path fill="#FFFFFF" d="M118.2,625.8c1.1,0.6,2,1.3,2.6,2.2c0.6,0.9,0.9,1.9,1.1,3c0.2,0.8,0.3,2,0.3,3.7h-12.4
			c0.1,1.7,0.5,3.1,1.2,4.2c0.8,1,1.9,1.6,3.5,1.6c1.5,0,2.7-0.5,3.5-1.5c0.5-0.6,0.8-1.2,1-2h2.8c-0.1,0.6-0.3,1.3-0.7,2.1
			s-0.9,1.4-1.4,1.9c-0.9,0.8-1.9,1.4-3.2,1.7c-0.7,0.2-1.5,0.3-2.3,0.3c-2.1,0-3.9-0.8-5.3-2.3c-1.5-1.5-2.2-3.7-2.2-6.5
			c0-2.7,0.7-4.9,2.2-6.7c1.5-1.7,3.4-2.6,5.8-2.6C115.9,625,117.1,625.2,118.2,625.8z M119.2,632.5c-0.1-1.2-0.4-2.2-0.8-3
			c-0.8-1.4-2.1-2.1-3.9-2.1c-1.3,0-2.4,0.5-3.3,1.4c-0.9,0.9-1.3,2.2-1.4,3.6H119.2z"/>
		<path fill="#FFFFFF" d="M127.1,625.3l3.3,13.4l3.3-13.4h3.2l3.3,13.3l3.5-13.3h2.9l-4.9,17h-3l-3.5-13.2l-3.4,13.2h-3l-4.9-17
			H127.1z"/>
		<path fill="#FFFFFF" d="M151,637c0.1,1,0.3,1.7,0.7,2.2c0.7,0.9,2,1.4,3.8,1.4c1.1,0,2-0.2,2.9-0.7s1.2-1.2,1.2-2.1
			c0-0.7-0.3-1.3-1-1.7c-0.4-0.2-1.2-0.5-2.5-0.8l-2.3-0.6c-1.5-0.4-2.6-0.8-3.3-1.2c-1.2-0.8-1.9-1.8-1.9-3.2
			c0-1.6,0.6-2.9,1.8-3.9c1.2-1,2.8-1.5,4.7-1.5c2.6,0,4.5,0.8,5.6,2.3c0.7,1,1.1,2,1,3.1h-2.7c-0.1-0.6-0.3-1.2-0.7-1.8
			c-0.7-0.7-1.8-1.1-3.5-1.1c-1.1,0-1.9,0.2-2.5,0.6c-0.6,0.4-0.9,1-0.9,1.6c0,0.7,0.4,1.3,1.1,1.8c0.4,0.3,1.1,0.5,1.9,0.7l1.9,0.5
			c2.1,0.5,3.5,1,4.2,1.4c1.1,0.7,1.7,1.9,1.7,3.4c0,1.5-0.6,2.8-1.7,3.9c-1.2,1.1-2.9,1.7-5.3,1.7c-2.6,0-4.4-0.6-5.4-1.7
			s-1.6-2.6-1.7-4.3H151z"/>
	</g>
</g>
<g>
	<path fill="#FFFFFF" d="M193.3,658.9c1,1.9,1.5,4.5,1.5,7.7c0,3.1-0.5,5.7-1.4,7.7c-1.3,2.9-3.5,4.4-6.6,4.4
		c-2.7,0-4.8-1.2-6.1-3.6c-1.1-2-1.7-4.7-1.7-8c0-2.6,0.3-4.8,1-6.7c1.3-3.5,3.5-5.2,6.8-5.2C189.8,655.2,192,656.4,193.3,658.9z
		 M190.4,674.1c0.9-1.3,1.3-3.8,1.3-7.4c0-2.6-0.3-4.7-1-6.4c-0.6-1.7-1.9-2.5-3.7-2.5c-1.7,0-2.9,0.8-3.7,2.4
		c-0.8,1.6-1.2,3.9-1.2,7c0,2.3,0.2,4.2,0.8,5.6c0.8,2.2,2.1,3.2,3.9,3.2C188.3,676,189.5,675.4,190.4,674.1z"/>
	<path fill="#FFFFFF" d="M206.2,656.6c0.9,0.9,1.4,2.1,1.4,3.4c0,1.4-0.5,2.5-1.4,3.4c-1,0.9-2.1,1.4-3.4,1.4
		c-1.4,0-2.6-0.5-3.5-1.4c-0.9-1-1.4-2.1-1.4-3.3c0-1.4,0.5-2.5,1.4-3.4s2.1-1.4,3.4-1.4C204.2,655.2,205.3,655.7,206.2,656.6z
		 M200.6,662.2c0.6,0.6,1.3,0.9,2.2,0.9c0.8,0,1.5-0.3,2.1-0.9s0.9-1.3,0.9-2.2c0-0.8-0.3-1.5-0.9-2.2c-0.6-0.6-1.3-0.9-2.2-0.9
		s-1.6,0.3-2.2,0.9s-0.9,1.3-0.9,2.2C199.7,660.9,200,661.6,200.6,662.2z"/>
	<path fill="#FFFFFF" d="M222.9,670.5c0.1,1.3,0.4,2.4,0.9,3.2c1,1.6,2.8,2.3,5.4,2.3c1.1,0,2.2-0.2,3.1-0.5
		c1.8-0.7,2.7-1.8,2.7-3.5c0-1.3-0.4-2.2-1.2-2.7c-0.8-0.5-2-1-3.7-1.4l-3.1-0.7c-2-0.5-3.4-1-4.3-1.5c-1.4-1-2.2-2.4-2.2-4.4
		c0-2.1,0.7-3.8,2.1-5.2c1.4-1.3,3.4-2,6-2c2.4,0,4.4,0.6,6.1,1.8c1.7,1.2,2.5,3.1,2.5,5.7h-3c-0.2-1.3-0.5-2.2-1-2.9
		c-0.9-1.2-2.5-1.8-4.7-1.8c-1.8,0-3.1,0.4-3.9,1.2c-0.8,0.8-1.2,1.7-1.2,2.7c0,1.1,0.5,2,1.4,2.5c0.6,0.3,2,0.8,4.1,1.3l3.2,0.7
		c1.5,0.4,2.7,0.9,3.6,1.5c1.4,1.1,2.2,2.7,2.2,4.8c0,2.6-0.9,4.4-2.8,5.6c-1.8,1.1-4,1.7-6.4,1.7c-2.8,0-5.1-0.7-6.7-2.2
		c-1.6-1.5-2.4-3.5-2.4-6H222.9z"/>
	<path fill="#FFFFFF" d="M242.1,654.6h2.8v13.6l7.4-7.2h3.7l-6.6,6.3l6.9,10.7h-3.7l-5.4-8.7l-2.4,2.3v6.4h-2.8V654.6z"/>
	<path fill="#FFFFFF" d="M269.1,661.4c1.1,0.6,2,1.3,2.6,2.2c0.6,0.9,1,1.9,1.1,3c0.2,0.8,0.3,2,0.3,3.8h-12.4
		c0.1,1.7,0.5,3.1,1.2,4.2c0.8,1,1.9,1.6,3.5,1.6c1.5,0,2.7-0.5,3.6-1.5c0.5-0.6,0.8-1.2,1.1-2h2.8c-0.1,0.6-0.3,1.3-0.7,2.1
		c-0.4,0.8-0.9,1.4-1.4,1.9c-0.9,0.8-1.9,1.4-3.2,1.7c-0.7,0.2-1.5,0.3-2.3,0.3c-2.1,0-3.9-0.8-5.4-2.3c-1.5-1.5-2.2-3.7-2.2-6.5
		c0-2.7,0.7-5,2.2-6.7c1.5-1.7,3.4-2.6,5.8-2.6C266.8,660.6,267.9,660.9,269.1,661.4z M270.1,668.1c-0.1-1.2-0.4-2.2-0.8-3
		c-0.8-1.4-2.1-2.1-3.9-2.1c-1.3,0-2.4,0.5-3.3,1.4c-0.9,1-1.4,2.2-1.4,3.6H270.1z"/>
	<path fill="#FFFFFF" d="M278,661l3.3,13.4l3.3-13.4h3.2l3.3,13.4l3.5-13.4h2.9l-5,17.1h-3l-3.5-13.2l-3.4,13.2h-3l-4.9-17.1H278z"
		/>
</g>
<g>
	<g>
		<path fill="#FFFFFF" d="M323.9,582.9h10.4c2.1,0,3.7,0.6,5,1.8c1.3,1.2,1.9,2.8,1.9,4.9c0,1.8-0.6,3.4-1.7,4.8
			c-1.1,1.3-2.9,2-5.2,2H327v9.9h-3.2V582.9z M336.1,586.1c-0.7-0.3-1.6-0.5-2.9-0.5H327v8.1h6.2c1.4,0,2.6-0.3,3.4-0.9
			c0.9-0.6,1.3-1.7,1.3-3.2C338,587.9,337.4,586.7,336.1,586.1z"/>
		<path fill="#FFFFFF" d="M357.2,590.9c1.5,1.5,2.3,3.6,2.3,6.4c0,2.7-0.7,5-2,6.8c-1.3,1.8-3.4,2.7-6.2,2.7c-2.3,0-4.2-0.8-5.5-2.4
			c-1.4-1.6-2-3.7-2-6.4c0-2.9,0.7-5.1,2.2-6.8c1.4-1.7,3.4-2.5,5.8-2.5C353.9,588.7,355.7,589.4,357.2,590.9z M355.4,602.2
			c0.7-1.4,1-3,1-4.8c0-1.6-0.3-2.9-0.8-3.9c-0.8-1.6-2.2-2.3-4.1-2.3c-1.7,0-3,0.7-3.8,2c-0.8,1.3-1.2,2.9-1.2,4.8
			c0,1.8,0.4,3.3,1.2,4.5c0.8,1.2,2,1.8,3.7,1.8C353.5,604.3,354.7,603.6,355.4,602.2z"/>
		<path fill="#FFFFFF" d="M364.7,600.9c0.1,1,0.3,1.7,0.7,2.2c0.7,0.9,2,1.4,3.8,1.4c1.1,0,2-0.2,2.9-0.7s1.2-1.2,1.2-2.1
			c0-0.7-0.3-1.3-1-1.7c-0.4-0.2-1.2-0.5-2.5-0.8l-2.3-0.6c-1.5-0.4-2.6-0.8-3.3-1.2c-1.2-0.8-1.9-1.8-1.9-3.2
			c0-1.6,0.6-2.9,1.8-3.9c1.2-1,2.8-1.5,4.7-1.5c2.6,0,4.5,0.8,5.6,2.3c0.7,1,1.1,2,1,3.1h-2.7c-0.1-0.6-0.3-1.2-0.7-1.8
			c-0.7-0.7-1.8-1.1-3.5-1.1c-1.1,0-1.9,0.2-2.5,0.6c-0.6,0.4-0.9,1-0.9,1.6c0,0.7,0.4,1.3,1.1,1.8c0.4,0.3,1.1,0.5,1.9,0.7l1.9,0.5
			c2.1,0.5,3.5,1,4.2,1.4c1.1,0.7,1.7,1.9,1.7,3.4c0,1.5-0.6,2.8-1.7,3.9c-1.2,1.1-2.9,1.7-5.3,1.7c-2.6,0-4.4-0.6-5.4-1.7
			c-1.1-1.1-1.6-2.6-1.7-4.3H364.7z"/>
		<path fill="#FFFFFF" d="M379.2,582.9h2.9v3.2h-2.9V582.9z M379.2,589.3h2.9v16.9h-2.9V589.3z"/>
		<path fill="#FFFFFF" d="M387,584.5h2.9v4.7h2.7v2.3h-2.7v11.1c0,0.6,0.2,1,0.6,1.2c0.2,0.1,0.6,0.2,1.1,0.2c0.1,0,0.3,0,0.4,0
			c0.2,0,0.3,0,0.6-0.1v2.3c-0.3,0.1-0.7,0.2-1,0.2c-0.4,0-0.7,0.1-1.2,0.1c-1.3,0-2.2-0.3-2.7-1c-0.5-0.7-0.7-1.6-0.7-2.7v-11.3
			h-2.3v-2.3h2.3V584.5z"/>
		<path fill="#FFFFFF" d="M395.5,582.9h2.9v3.2h-2.9V582.9z M395.5,589.3h2.9v16.9h-2.9V589.3z"/>
		<path fill="#FFFFFF" d="M404.1,589.2l4.5,13.8l4.7-13.8h3.1l-6.4,17h-3l-6.3-17H404.1z"/>
		<path fill="#FFFFFF" d="M429.5,589.7c1.1,0.6,2,1.3,2.6,2.2c0.6,0.9,0.9,1.9,1.1,3c0.2,0.8,0.3,2,0.3,3.7h-12.4
			c0.1,1.7,0.5,3.1,1.2,4.2c0.8,1,1.9,1.6,3.5,1.6c1.5,0,2.7-0.5,3.5-1.5c0.5-0.6,0.8-1.2,1-2h2.8c-0.1,0.6-0.3,1.3-0.7,2.1
			c-0.4,0.8-0.9,1.4-1.4,1.9c-0.9,0.8-1.9,1.4-3.2,1.7c-0.7,0.2-1.5,0.3-2.3,0.3c-2.1,0-3.9-0.8-5.3-2.3c-1.5-1.5-2.2-3.7-2.2-6.5
			c0-2.7,0.7-4.9,2.2-6.7c1.5-1.7,3.4-2.6,5.8-2.6C427.2,588.8,428.4,589.1,429.5,589.7z M430.5,596.3c-0.1-1.2-0.4-2.2-0.8-3
			c-0.8-1.4-2.1-2.1-3.9-2.1c-1.3,0-2.4,0.5-3.3,1.4c-0.9,0.9-1.3,2.2-1.4,3.6H430.5z"/>
	</g>
	<g>
		<path fill="#FFFFFF" d="M326.9,634.8c0.1,1.3,0.4,2.4,0.9,3.2c1,1.5,2.8,2.3,5.3,2.3c1.1,0,2.2-0.2,3.1-0.5
			c1.8-0.7,2.7-1.8,2.7-3.5c0-1.3-0.4-2.2-1.2-2.7c-0.8-0.5-2-1-3.7-1.4l-3.1-0.7c-2-0.5-3.4-1-4.2-1.5c-1.4-1-2.2-2.4-2.2-4.4
			c0-2.1,0.7-3.8,2.1-5.2c1.4-1.3,3.4-2,6-2c2.4,0,4.4,0.6,6.1,1.8c1.7,1.2,2.5,3.1,2.5,5.7h-3c-0.2-1.2-0.5-2.2-1-2.9
			c-0.9-1.2-2.5-1.8-4.7-1.8c-1.8,0-3.1,0.4-3.9,1.2c-0.8,0.8-1.2,1.7-1.2,2.7c0,1.1,0.5,2,1.4,2.5c0.6,0.3,2,0.8,4.1,1.3l3.2,0.7
			c1.5,0.4,2.7,0.9,3.5,1.5c1.4,1.1,2.2,2.7,2.2,4.7c0,2.6-0.9,4.4-2.7,5.5s-4,1.7-6.4,1.7c-2.8,0-5-0.7-6.6-2.2
			c-1.6-1.5-2.4-3.5-2.4-6H326.9z"/>
		<path fill="#FFFFFF" d="M346,619h2.7v13.5l7.3-7.2h3.7l-6.5,6.3l6.9,10.7h-3.7l-5.3-8.7l-2.3,2.3v6.4H346V619z"/>
		<path fill="#FFFFFF" d="M372.9,625.8c1.1,0.6,2,1.3,2.6,2.2c0.6,0.9,0.9,1.9,1.1,3c0.2,0.8,0.3,2,0.3,3.7h-12.4
			c0.1,1.7,0.5,3.1,1.2,4.2c0.8,1,1.9,1.6,3.5,1.6c1.5,0,2.7-0.5,3.5-1.5c0.5-0.6,0.8-1.2,1-2h2.8c-0.1,0.6-0.3,1.3-0.7,2.1
			s-0.9,1.4-1.4,1.9c-0.9,0.8-1.9,1.4-3.2,1.7c-0.7,0.2-1.5,0.3-2.3,0.3c-2.1,0-3.9-0.8-5.3-2.3c-1.5-1.5-2.2-3.7-2.2-6.5
			c0-2.7,0.7-4.9,2.2-6.7c1.5-1.7,3.4-2.6,5.8-2.6C370.6,625,371.7,625.2,372.9,625.8z M373.9,632.5c-0.1-1.2-0.4-2.2-0.8-3
			c-0.8-1.4-2.1-2.1-3.9-2.1c-1.3,0-2.4,0.5-3.3,1.4s-1.3,2.2-1.4,3.6H373.9z"/>
		<path fill="#FFFFFF" d="M381.8,625.3l3.3,13.4l3.3-13.4h3.2l3.3,13.3l3.5-13.3h2.9l-4.9,17h-3l-3.5-13.2l-3.4,13.2h-3l-4.9-17
			H381.8z"/>
		<path fill="#FFFFFF" d="M405.6,637c0.1,1,0.3,1.7,0.7,2.2c0.7,0.9,2,1.4,3.8,1.4c1.1,0,2-0.2,2.9-0.7s1.2-1.2,1.2-2.1
			c0-0.7-0.3-1.3-1-1.7c-0.4-0.2-1.2-0.5-2.5-0.8l-2.3-0.6c-1.5-0.4-2.6-0.8-3.3-1.2c-1.2-0.8-1.9-1.8-1.9-3.2
			c0-1.6,0.6-2.9,1.8-3.9c1.2-1,2.8-1.5,4.7-1.5c2.6,0,4.5,0.8,5.6,2.3c0.7,1,1.1,2,1,3.1h-2.7c-0.1-0.6-0.3-1.2-0.7-1.8
			c-0.7-0.7-1.8-1.1-3.5-1.1c-1.1,0-1.9,0.2-2.5,0.6c-0.6,0.4-0.9,1-0.9,1.6c0,0.7,0.4,1.3,1.1,1.8c0.4,0.3,1.1,0.5,1.9,0.7l1.9,0.5
			c2.1,0.5,3.5,1,4.2,1.4c1.1,0.7,1.7,1.9,1.7,3.4c0,1.5-0.6,2.8-1.7,3.9c-1.2,1.1-2.9,1.7-5.3,1.7c-2.6,0-4.4-0.6-5.4-1.7
			s-1.6-2.6-1.7-4.3H405.6z"/>
	</g>
</g>
<rect x="238.1" y="416.4" fill="#FFFFFF" width="3.4" height="11.7"/>
<rect x="238.1" y="429.7" fill="#FFFFFF" width="3.4" height="11.7"/>
<rect x="238.1" y="443.1" fill="#FFFFFF" width="3.4" height="11.7"/>
<g>
	<rect x="238.1" y="607.3" fill="#FFFFFF" width="3.4" height="11.7"/>
	<rect x="238.1" y="620.6" fill="#FFFFFF" width="3.4" height="11.7"/>
</g>
<polygon fill="#FFFFFF" points="244.1,368.7 244.1,364.5 244.1,364.5 244.1,362.4 237.3,362.4 237.3,364.5 237.3,364.5 237.3,368.7 
	231.1,368.7 240.7,381.9 250.3,368.7 "/>
<polygon fill="#FFFFFF" points="486.3,306.7 490.5,306.7 490.5,306.7 542.2,306.7 542.2,301.9 490.5,301.9 490.5,301.9 486.3,301.9 
	486.3,294.7 473.1,304.3 486.3,314 "/>
</svg>
