<?xml version="1.0" encoding="utf-8"?>
<!-- Generator: Adobe Illustrator 17.1.0, SVG Export Plug-In . SVG Version: 6.00 Build 0)  -->
<!DOCTYPE svg PUBLIC "-//W3C//DTD SVG 1.1//EN" "http://www.w3.org/Graphics/SVG/1.1/DTD/svg11.dtd">
<svg version="1.1" id="Layer_1" xmlns="http://www.w3.org/2000/svg" xmlns:xlink="http://www.w3.org/1999/xlink" x="0px" y="0px"
	 viewBox="0 0 800 600" enable-background="new 0 0 800 600" xml:space="preserve">
<rect x="-664.4" y="-296.8" opacity="0.42" width="2036.6" height="1137.2"/>
<g>
	<g>
		<g>
			<line fill="none" stroke="#000000" stroke-width="2" stroke-miterlimit="10" x1="468.6" y1="291.7" x2="468.6" y2="337.3"/>
			<g>
				<polygon points="463,333.1 468.6,335.5 474.1,333.1 468.6,346.3 				"/>
			</g>
		</g>
	</g>
	<g>
		<g>
			<line fill="none" stroke="#000000" stroke-width="2" stroke-miterlimit="10" x1="498.5" y1="291.7" x2="498.5" y2="337.3"/>
			<g>
				<polygon points="492.9,333.1 498.5,335.5 504.1,333.1 498.5,346.3 				"/>
			</g>
		</g>
	</g>
	<g>
		<g>
			<line fill="none" stroke="#000000" stroke-width="2" stroke-miterlimit="10" x1="528.1" y1="291.7" x2="528.1" y2="337.3"/>
			<g>
				<polygon points="522.6,333.1 528.1,335.5 533.7,333.1 528.1,346.3 				"/>
			</g>
		</g>
	</g>
	<polyline fill="none" stroke="#FFFFFF" stroke-width="2" stroke-miterlimit="10" points="379.1,280.4 379.1,327.7 66.3,327.7 
		66.3,556.5 126.3,556.5 	"/>
	<polyline fill="none" stroke="#FFFFFF" stroke-width="2" stroke-miterlimit="10" points="573.8,86.9 604.3,86.9 604.3,174.1 
		512.3,174.1 512.3,198.7 	"/>
	<line fill="none" stroke="#FFFFFF" stroke-width="2" stroke-miterlimit="10" x1="66.3" y1="470.7" x2="184.3" y2="470.7"/>
	<line fill="none" stroke="#FFFFFF" stroke-width="2" stroke-miterlimit="10" x1="66.3" y1="393.4" x2="184.3" y2="393.4"/>
	<line fill="none" stroke="#FFFFFF" stroke-width="2" stroke-miterlimit="10" x1="408" y1="505.1" x2="527.9" y2="505.1"/>
	<line fill="none" stroke="#FFFFFF" stroke-width="2" stroke-miterlimit="10" x1="409" y1="287.8" x2="409" y2="505.1"/>
	<line fill="none" stroke="#FFFFFF" stroke-width="2" stroke-miterlimit="10" x1="437.2" y1="432.9" x2="557.2" y2="432.9"/>
	<line fill="none" stroke="#FFFFFF" stroke-width="2" stroke-miterlimit="10" x1="438.3" y1="215.6" x2="438.3" y2="432.9"/>
	<line fill="none" stroke="#FFFFFF" stroke-width="2" stroke-miterlimit="10" x1="349.5" y1="287.8" x2="349.5" y2="327.7"/>
	<line fill="none" stroke="#FFFFFF" stroke-width="2" stroke-miterlimit="10" x1="319.4" y1="287.8" x2="319.4" y2="327.7"/>
	<polyline fill="none" stroke="#FFFFFF" stroke-width="2" stroke-miterlimit="10" points="291.9,86.9 231.4,86.9 231.4,177.6 
		453.2,177.6 453.2,225 	"/>
	<line fill="none" stroke="#FFFFFF" stroke-width="2" stroke-miterlimit="10" x1="338.2" y1="217.5" x2="338.2" y2="177.6"/>
	<line fill="none" stroke="#FFFFFF" stroke-width="2" stroke-miterlimit="10" x1="395.9" y1="217.5" x2="395.9" y2="177.6"/>
	<text transform="matrix(1 0 0 1 549.0906 324.2461)" fill="#010101" font-family="'Helvetica-Light'" font-size="19.5188">Optional</text>
	<g>
		<g>
			<g>
				<g>
					<rect x="507.9" y="188" fill="#B5C0C9" width="8.8" height="11.1"/>
					<rect x="507.9" y="188" fill="none" stroke="#FFFFFF" stroke-width="0.25" stroke-miterlimit="10" width="8.8" height="11.1"/>
					<path fill="#B5C0C9" d="M519.3,203.6c0.7,0,1.3-0.7,1.3-1.3v-2c0-0.7-0.7-1.3-1.3-1.3H505c-0.7,0-1.3,0.7-1.3,1.3v2
						c0,0.7,0.7,1.3,1.3,1.3H519.3z"/>
					<path fill="#FFFFFF" d="M519.3,203.9H505c-1,0-1.6-0.7-1.6-1.6v-2c0-1,0.7-1.6,1.6-1.6h14.3c1,0,1.6,0.7,1.6,1.6v2
						C521,203.3,520.3,203.9,519.3,203.9z M505,199.4c-0.7,0-1,0.3-1,1v2c0,0.7,0.3,1,1,1h14.3c0.7,0,1-0.3,1-1v-2c0-0.7-0.3-1-1-1
						H505z"/>
				</g>
			</g>
			<g>
				<g>
					<rect x="450" y="188" fill="#B5C0C9" width="8.8" height="11.1"/>
					<rect x="450" y="188" fill="none" stroke="#FFFFFF" stroke-width="0.25" stroke-miterlimit="10" width="8.8" height="11.1"/>
					<path fill="#B5C0C9" d="M461.4,203.6c0.7,0,1.3-0.7,1.3-1.3v-2c0-0.7-0.7-1.3-1.3-1.3h-14.3c-0.7,0-1.3,0.7-1.3,1.3v2
						c0,0.7,0.7,1.3,1.3,1.3H461.4z"/>
					<path fill="#FFFFFF" d="M461.4,203.9h-14.3c-1,0-1.6-0.7-1.6-1.6v-2c0-1,0.7-1.6,1.6-1.6h14.3c1,0,1.6,0.7,1.6,1.6v2
						C463,203.3,462.4,203.9,461.4,203.9z M447.1,199.4c-0.7,0-1,0.3-1,1v2c0,0.7,0.3,1,1,1h14.3c0.7,0,1-0.3,1-1v-2
						c0-0.7-0.3-1-1-1H447.1z"/>
				</g>
			</g>
			<g>
				<g>
					<rect x="392.1" y="188" fill="#B5C0C9" width="8.8" height="11.1"/>
					<rect x="392.1" y="188" fill="none" stroke="#FFFFFF" stroke-width="0.25" stroke-miterlimit="10" width="8.8" height="11.1"/>
					<path fill="#B5C0C9" d="M403.5,203.6c0.7,0,1.3-0.7,1.3-1.3v-2c0-0.7-0.7-1.3-1.3-1.3h-14.3c-0.7,0-1.3,0.7-1.3,1.3v2
						c0,0.7,0.7,1.3,1.3,1.3H403.5z"/>
					<path fill="#FFFFFF" d="M403.5,203.9h-14.3c-1,0-1.6-0.7-1.6-1.6v-2c0-1,0.7-1.6,1.6-1.6h14.3c1,0,1.6,0.7,1.6,1.6v2
						C405.1,203.3,404.5,203.9,403.5,203.9z M389.2,199.4c-0.7,0-1,0.3-1,1v2c0,0.7,0.3,1,1,1h14.3c0.7,0,1-0.3,1-1v-2
						c0-0.7-0.3-1-1-1H389.2z"/>
				</g>
			</g>
			<g>
				<g>
					<rect x="334.2" y="188" fill="#B5C0C9" width="8.8" height="11.1"/>
					<rect x="334.2" y="188" fill="none" stroke="#FFFFFF" stroke-width="0.25" stroke-miterlimit="10" width="8.8" height="11.1"/>
					<path fill="#B5C0C9" d="M345.6,203.6c0.7,0,1.3-0.7,1.3-1.3v-2c0-0.7-0.7-1.3-1.3-1.3h-14.3c-0.7,0-1.3,0.7-1.3,1.3v2
						c0,0.7,0.7,1.3,1.3,1.3H345.6z"/>
					<path fill="#FFFFFF" d="M345.6,203.9h-14.3c-1,0-1.6-0.7-1.6-1.6v-2c0-1,0.7-1.6,1.6-1.6h14.3c1,0,1.6,0.7,1.6,1.6v2
						C347.2,203.3,346.6,203.9,345.6,203.9z M331.3,199.4c-0.7,0-1,0.3-1,1v2c0,0.7,0.3,1,1,1h14.3c0.7,0,1-0.3,1-1v-2
						c0-0.7-0.3-1-1-1H331.3z"/>
				</g>
			</g>
			<g>
				<g>
					<rect x="523.7" y="280.7" fill="#B5C0C9" width="8.8" height="11.1"/>
					
						<rect x="523.7" y="280.7" fill="none" stroke="#FFFFFF" stroke-width="0.25" stroke-miterlimit="10" width="8.8" height="11.1"/>
					<path fill="#B5C0C9" d="M535.1,275.8c0.7,0,1.3,0.7,1.3,1.3v2c0,0.7-0.7,1.3-1.3,1.3h-14.3c-0.7,0-1.3-0.7-1.3-1.3v-2
						c0-0.7,0.7-1.3,1.3-1.3H535.1z"/>
					<path fill="#FFFFFF" d="M536.7,277.1v2c0,1-0.7,1.6-1.6,1.6h-14.3c-1,0-1.6-0.7-1.6-1.6v-2c0-1,0.7-1.6,1.6-1.6h14.3
						C536.1,275.5,536.7,276.5,536.7,277.1z M535.1,280.4c0.7,0,1-0.3,1-1v-2c0-0.7-0.3-1-1-1h-14.3c-0.7,0-1,0.3-1,1v2
						c0,0.7,0.3,1,1,1H535.1z"/>
				</g>
				<g>
					<rect x="494.1" y="280.7" fill="#B5C0C9" width="8.8" height="11.1"/>
					
						<rect x="494.1" y="280.7" fill="none" stroke="#FFFFFF" stroke-width="0.25" stroke-miterlimit="10" width="8.8" height="11.1"/>
					<path fill="#B5C0C9" d="M505.5,275.8c0.7,0,1.3,0.7,1.3,1.3v2c0,0.7-0.7,1.3-1.3,1.3h-14.3c-0.7,0-1.3-0.7-1.3-1.3v-2
						c0-0.7,0.7-1.3,1.3-1.3H505.5z"/>
					<path fill="#FFFFFF" d="M507.1,277.1v2c0,1-0.7,1.6-1.6,1.6h-14.3c-1,0-1.6-0.7-1.6-1.6v-2c0-1,0.7-1.6,1.6-1.6h14.3
						C506.5,275.5,507.1,276.5,507.1,277.1z M505.5,280.4c0.7,0,1-0.3,1-1v-2c0-0.7-0.3-1-1-1h-14.3c-0.7,0-1,0.3-1,1v2
						c0,0.7,0.3,1,1,1H505.5z"/>
				</g>
				<g>
					<rect x="464.2" y="280.7" fill="#B5C0C9" width="8.8" height="11.1"/>
					
						<rect x="464.2" y="280.7" fill="none" stroke="#FFFFFF" stroke-width="0.25" stroke-miterlimit="10" width="8.8" height="11.1"/>
					<path fill="#B5C0C9" d="M475.6,275.8c0.7,0,1.3,0.7,1.3,1.3v2c0,0.7-0.7,1.3-1.3,1.3h-14.3c-0.7,0-1.3-0.7-1.3-1.3v-2
						c0-0.7,0.7-1.3,1.3-1.3H475.6z"/>
					<path fill="#FFFFFF" d="M477.5,277.1v2c0,1-0.7,1.6-1.6,1.6h-14.3c-1,0-1.6-0.7-1.6-1.6v-2c0-1,0.7-1.6,1.6-1.6h14.3
						C476.5,275.5,477.5,276.5,477.5,277.1z M475.6,280.4c0.7,0,1-0.3,1-1v-2c0-0.7-0.3-1-1-1h-14.3c-0.7,0-1,0.3-1,1v2
						c0,0.7,0.3,1,1,1H475.6z"/>
				</g>
				<g>
					<rect x="434.6" y="280.7" fill="#B5C0C9" width="8.8" height="11.1"/>
					
						<rect x="434.6" y="280.7" fill="none" stroke="#FFFFFF" stroke-width="0.25" stroke-miterlimit="10" width="8.8" height="11.1"/>
					<path fill="#B5C0C9" d="M446,275.8c0.7,0,1.3,0.7,1.3,1.3v2c0,0.7-0.7,1.3-1.3,1.3h-14.3c-0.7,0-1.3-0.7-1.3-1.3v-2
						c0-0.7,0.7-1.3,1.3-1.3H446z"/>
					<path fill="#FFFFFF" d="M447.6,277.1v2c0,1-0.7,1.6-1.6,1.6h-14.3c-1,0-1.6-0.7-1.6-1.6v-2c0-1,0.7-1.6,1.6-1.6H446
						C446.9,275.5,447.6,276.5,447.6,277.1z M446,280.4c0.7,0,1-0.3,1-1v-2c0-0.7-0.3-1-1-1h-14.3c-0.7,0-1,0.3-1,1v2
						c0,0.7,0.3,1,1,1H446z"/>
				</g>
				<g>
					<rect x="404.7" y="280.7" fill="#B5C0C9" width="8.8" height="11.1"/>
					
						<rect x="404.7" y="280.7" fill="none" stroke="#FFFFFF" stroke-width="0.25" stroke-miterlimit="10" width="8.8" height="11.1"/>
					<path fill="#B5C0C9" d="M416,275.8c0.7,0,1.3,0.7,1.3,1.3v2c0,0.7-0.7,1.3-1.3,1.3h-14.3c-0.7,0-1.3-0.7-1.3-1.3v-2
						c0-0.7,0.7-1.3,1.3-1.3H416z"/>
					<path fill="#FFFFFF" d="M417.7,277.1v2c0,1-0.7,1.6-1.6,1.6h-14.3c-1,0-1.6-0.7-1.6-1.6v-2c0-1,0.7-1.6,1.6-1.6H416
						C417,275.5,417.7,276.5,417.7,277.1z M416,280.4c0.7,0,1-0.3,1-1v-2c0-0.7-0.3-1-1-1h-14.3c-0.7,0-1,0.3-1,1v2c0,0.7,0.3,1,1,1
						H416z"/>
				</g>
				<g>
					<rect x="374.7" y="280.7" fill="#B5C0C9" width="8.8" height="11.1"/>
					
						<rect x="374.7" y="280.7" fill="none" stroke="#FFFFFF" stroke-width="0.25" stroke-miterlimit="10" width="8.8" height="11.1"/>
					<path fill="#B5C0C9" d="M386.4,275.8c0.7,0,1.3,0.7,1.3,1.3v2c0,0.7-0.7,1.3-1.3,1.3h-14.3c-0.7,0-1.3-0.7-1.3-1.3v-2
						c0-0.7,0.7-1.3,1.3-1.3H386.4z"/>
					<path fill="#FFFFFF" d="M388.1,277.1v2c0,1-0.7,1.6-1.6,1.6h-14.3c-1,0-1.6-0.7-1.6-1.6v-2c0-1,0.7-1.6,1.6-1.6h14.3
						C387.1,275.5,388.1,276.5,388.1,277.1z M386.4,280.4c0.7,0,1-0.3,1-1v-2c0-0.7-0.3-1-1-1h-14.3c-0.7,0-1,0.3-1,1v2
						c0,0.7,0.3,1,1,1H386.4z"/>
				</g>
				<g>
					<rect x="345.1" y="280.7" fill="#B5C0C9" width="8.8" height="11.1"/>
					
						<rect x="345.1" y="280.7" fill="none" stroke="#FFFFFF" stroke-width="0.25" stroke-miterlimit="10" width="8.8" height="11.1"/>
					<path fill="#B5C0C9" d="M356.5,275.8c0.7,0,1.3,0.7,1.3,1.3v2c0,0.7-0.7,1.3-1.3,1.3h-14.3c-0.7,0-1.3-0.7-1.3-1.3v-2
						c0-0.7,0.7-1.3,1.3-1.3H356.5z"/>
					<path fill="#FFFFFF" d="M358.1,277.1v2c0,1-0.7,1.6-1.6,1.6h-14.3c-1,0-1.6-0.7-1.6-1.6v-2c0-1,0.7-1.6,1.6-1.6h14.3
						C357.5,275.5,358.1,276.5,358.1,277.1z M356.5,280.4c0.7,0,1-0.3,1-1v-2c0-0.7-0.3-1-1-1h-14.3c-0.7,0-1,0.3-1,1v2
						c0,0.7,0.3,1,1,1H356.5z"/>
				</g>
				<g>
					<rect x="315.2" y="280.7" fill="#B5C0C9" width="8.8" height="11.1"/>
					
						<rect x="315.2" y="280.7" fill="none" stroke="#FFFFFF" stroke-width="0.25" stroke-miterlimit="10" width="8.8" height="11.1"/>
					<path fill="#B5C0C9" d="M326.6,275.8c0.7,0,1.3,0.7,1.3,1.3v2c0,0.7-0.7,1.3-1.3,1.3h-14.3c-0.7,0-1.3-0.7-1.3-1.3v-2
						c0-0.7,0.7-1.3,1.3-1.3H326.6z"/>
					<path fill="#FFFFFF" d="M328.5,277.1v2c0,1-0.7,1.6-1.6,1.6h-14.3c-1,0-1.6-0.7-1.6-1.6v-2c0-1,0.7-1.6,1.6-1.6h14.3
						C327.6,275.5,328.5,276.5,328.5,277.1z M326.6,280.4c0.7,0,1-0.3,1-1v-2c0-0.7-0.3-1-1-1h-14.3c-0.7,0-1,0.3-1,1v2
						c0,0.7,0.3,1,1,1H326.6z"/>
				</g>
			</g>
			<rect x="301.5" y="202.3" fill="#B5C0C9" width="246.9" height="75.8"/>
			<path fill="#FFFFFF" d="M549.1,278.4H301.5V202h247.6V278.4z M301.9,277.8h246.3v-75.1H301.9V277.8z"/>
			<path fill="#B5C0C9" d="M547.1,279.4c-1,0-1.6-0.7-1.6-1.6v-75.5c0-1,0.7-1.6,1.6-1.6h3.6c1,0,1.6,0.7,1.6,1.6v75.5
				c0,1-0.7,1.6-1.6,1.6H547.1z"/>
			<path fill="#FFFFFF" d="M550.7,279.7h-3.6c-1,0-2-1-2-2v-75.5c0-1,1-2,2-2h3.6c1,0,2,1,2,2v75.5
				C552.7,278.7,551.7,279.7,550.7,279.7z M547.1,201c-0.7,0-1.3,0.7-1.3,1.3v75.5c0,0.7,0.7,1.3,1.3,1.3h3.6c0.7,0,1.3-0.7,1.3-1.3
				v-75.5c0-0.7-0.7-1.3-1.3-1.3H547.1z"/>
			<path fill="#B5C0C9" d="M297.9,279.4c-1,0-1.6-0.7-1.6-1.6v-75.5c0-1,0.7-1.6,1.6-1.6h3.6c1,0,1.6,0.7,1.6,1.6v75.5
				c0,1-0.7,1.6-1.6,1.6H297.9z"/>
			<path fill="#FFFFFF" d="M301.9,279.7h-3.6c-1,0-2-1-2-2v-75.5c0-1,1-2,2-2h3.6c1,0,2,1,2,2v75.5
				C303.8,278.7,302.8,279.7,301.9,279.7z M297.9,201c-0.7,0-1.3,0.7-1.3,1.3v75.5c0,0.7,0.7,1.3,1.3,1.3h3.6c0.7,0,1.3-0.7,1.3-1.3
				v-75.5c0-0.7-0.7-1.3-1.3-1.3H297.9z"/>
		</g>
		<rect x="296" y="228.3" fill="none" width="255.7" height="33.5"/>
		<text transform="matrix(1 0 0 1 343.4299 251.5925)" fill="#FFFFFF" font-family="'Helvetica-Light'" font-size="32.5314">Multiswitch</text>
	</g>
	<g>
		<g>
			<g>
				<g>
					<path fill="#B5C0C9" d="M253.2,570h133.7c1-5.9,2.9-17.2,2.9-21.8c0-6.2-1-27-1-27H253.2h-2H115.9c0,0-1,20.8-1,27
						c0,4.6,2,15.9,2.9,21.8h133.7H253.2z"/>
					<path fill="#B5C0C9" d="M386.9,570.4H117.6c0,0-0.3,0-0.3-0.3c-2-11.1-2.9-18.5-2.9-21.8c0-6.2,1-26.7,1-27c0,0,0-0.3,0.3-0.3
						h272.9c0,0,0.3,0,0.3,0.3c0,0.3,1,20.8,1,27C389.8,551.5,388.9,559.3,386.9,570.4C387.2,570.4,386.9,570.4,386.9,570.4z
						 M117.6,570h269c2-11.1,2.9-18.5,2.9-21.8c0-5.9-1-24.7-1-26.7H115.9c0,2.3-1,20.8-1,26.7C115,551.5,115.9,559,117.6,570z"/>
					<path fill="#8A9AA5" d="M160.5,521.6c0,0,19.2,43.6,21.5,47.2h141.5c0,0,17.2-34.8,21.8-47.5L160.5,521.6z"/>
					<path fill="#231F20" d="M317.3,570.4H160.8c0,0-0.3,0-0.3-0.3c0,0,0-0.3,0.3-0.3h156.5C317.6,570,317.6,570,317.3,570.4
						C317.6,570.4,317.6,570.4,317.3,570.4z"/>
					<g>
						<g>
							<g>
								<path fill="#8A9AA5" d="M359.3,546c0,1.3-2,2.3-4.2,2.3c-2.3,0-4.2-1-4.2-2.3c0-1.3,2-2.3,4.2-2.3S359.3,544.7,359.3,546z"
									/>
								<path fill="#8A9AA5" d="M383.3,545.7c0,1.3-2,2.3-4.2,2.3c-2.3,0-4.2-1-4.2-2.3s2-2.3,4.2-2.3
									C381.4,543.7,383.3,544.7,383.3,545.7z"/>
							</g>
							<g>
								<path fill="#8A9AA5" d="M367.1,553.8c1.3,0,2.3,2,2.3,4.2s-1,4.2-2.3,4.2c-1.3,0-2.3-2-2.3-4.2
									C364.8,555.7,365.8,553.8,367.1,553.8z"/>
								<path fill="#8A9AA5" d="M367.1,529.7c1.3,0,2.3,2,2.3,4.2c0,2.3-1,4.2-2.3,4.2c-1.3,0-2.3-2-2.3-4.2
									C364.8,531.3,365.8,529.7,367.1,529.7z"/>
							</g>
						</g>
						<path fill="#8A9AA5" d="M371.6,546c0,2.6-2,4.6-4.6,4.6c-2.6,0-4.6-2-4.6-4.6c0-2.6,2-4.6,4.6-4.6
							C369.7,541.4,371.6,543.4,371.6,546z"/>
					</g>
					<path fill="#FFFFFF" d="M388.5,571.4H117.2l-0.3-1c-2-11.4-2.9-18.5-2.9-22.1c0-6.2,1-26.4,1-27V520h275.2v1.3c0,1,1,20.8,1,27
						c0,3.3-1,10.7-2.9,22.1L388.5,571.4z M119.2,569.1h267.4c1.6-10.4,2.6-17.6,2.6-20.8c0-5.2-1-21.5-1-25.7H117.6
						c-0.3,4.6-1,20.5-1,25.7C116.6,551.5,117.6,558.7,119.2,569.1z"/>
					<path fill="#8A9AA5" d="M126.3,556.1c0-1,1-1.6,2.3-1.6h31.2c1.3,0,2.3,0.7,2.3,1.6v6.2c0,1-1,1.6-2.3,1.6h-31.2
						c-1.3,0-2.3-0.7-2.3-1.6C126.3,562.2,126.3,556.1,126.3,556.1z"/>
				</g>
				<rect x="120.2" y="532.3" fill="none" width="263.8" height="33.5"/>
				<text transform="matrix(1 0 0 1 187.7585 555.6833)" fill="#FFFFFF" font-family="'Helvetica-Light'" font-size="32.5314">Receiver</text>
			</g>
		</g>
		<g>
			<g>
				<g>
					<path fill="#B5C0C9" d="M253.2,492.8h133.7c1-5.9,2.9-17.2,2.9-21.8c0-6.2-1-27-1-27H253.2h-2H115.9c0,0-1,20.8-1,27
						c0,4.6,2,15.9,2.9,21.8h133.7H253.2z"/>
					<path fill="#B5C0C9" d="M386.9,493.1H117.6c0,0-0.3,0-0.3-0.3c-2-11.1-2.9-18.5-2.9-21.8c0-6.2,1-26.7,1-27c0,0,0-0.3,0.3-0.3
						h272.9c0,0,0.3,0,0.3,0.3s1,20.8,1,27C389.8,474.2,388.9,482.1,386.9,493.1C387.2,493.1,386.9,493.1,386.9,493.1z M117.6,492.8
						h269c2-11.1,2.9-18.5,2.9-21.8c0-5.9-1-24.7-1-26.7H115.9c0,2.3-1,20.8-1,26.7C115,474.2,115.9,481.7,117.6,492.8z"/>
					<path fill="#8A9AA5" d="M160.5,444.3c0,0,19.2,43.6,21.5,47.2h141.5c0,0,17.2-34.8,21.8-47.5L160.5,444.3z"/>
					<path fill="#231F20" d="M317.3,493.1H160.8c0,0-0.3,0-0.3-0.3c0,0,0-0.3,0.3-0.3h156.5C317.6,492.8,317.6,492.8,317.3,493.1
						C317.6,493.1,317.6,493.1,317.3,493.1z"/>
					<g>
						<g>
							<g>
								<path fill="#8A9AA5" d="M359.3,468.7c0,1.3-2,2.3-4.2,2.3c-2.3,0-4.2-1-4.2-2.3c0-1.3,2-2.3,4.2-2.3
									C357.3,466.4,359.3,467.4,359.3,468.7z"/>
								<path fill="#8A9AA5" d="M383.3,468.4c0,1.3-2,2.3-4.2,2.3c-2.3,0-4.2-1-4.2-2.3c0-1.3,2-2.3,4.2-2.3
									C381.4,466.4,383.3,467.4,383.3,468.4z"/>
							</g>
							<g>
								<path fill="#8A9AA5" d="M367.1,476.5c1.3,0,2.3,2,2.3,4.2s-1,4.2-2.3,4.2c-1.3,0-2.3-2-2.3-4.2
									C364.8,478.5,365.8,476.5,367.1,476.5z"/>
								<path fill="#8A9AA5" d="M367.1,452.4c1.3,0,2.3,2,2.3,4.2c0,2.3-1,4.2-2.3,4.2c-1.3,0-2.3-2-2.3-4.2
									C364.8,454.1,365.8,452.4,367.1,452.4z"/>
							</g>
						</g>
						<path fill="#8A9AA5" d="M371.6,468.7c0,2.6-2,4.6-4.6,4.6c-2.6,0-4.6-2-4.6-4.6c0-2.6,2-4.6,4.6-4.6
							C369.7,464.2,371.6,466.1,371.6,468.7z"/>
					</g>
					<path fill="#FFFFFF" d="M388.5,494.1H117.2l-0.3-1c-2-11.4-2.9-18.5-2.9-22.1c0-6.2,1-26.4,1-27v-1.3h275.2v1.3
						c0,1,1,20.8,1,27c0,3.3-1,10.7-2.9,22.1L388.5,494.1z M119.2,491.8h267.4c1.6-10.4,2.6-17.6,2.6-20.8c0-5.2-1-21.5-1-25.7
						H117.6c-0.3,4.6-1,20.5-1,25.7C116.6,474.2,117.6,481.4,119.2,491.8z"/>
					<path fill="#8A9AA5" d="M126.3,478.8c0-1,1-1.6,2.3-1.6h31.2c1.3,0,2.3,0.7,2.3,1.6v6.2c0,1-1,1.6-2.3,1.6h-31.2
						c-1.3,0-2.3-0.7-2.3-1.6C126.3,485,126.3,478.8,126.3,478.8z"/>
				</g>
				<rect x="120.2" y="455.1" fill="none" width="263.8" height="33.5"/>
				<text transform="matrix(1 0 0 1 187.7585 478.4212)" fill="#FFFFFF" font-family="'Helvetica-Light'" font-size="32.5314">Receiver</text>
			</g>
		</g>
		<g>
			<g>
				<g>
					<path fill="#B5C0C9" d="M595.8,527.2h133.7c1-5.9,2.9-17.2,2.9-21.8c0-6.2-1-27-1-27H595.8h-2H458.5c0,0-1,20.8-1,27
						c0,4.6,2,15.9,2.9,21.8h133.7H595.8z"/>
					<path fill="#B5C0C9" d="M729.5,527.5H460.1c0,0-0.3,0-0.3-0.3c-2-11.1-2.9-18.5-2.9-21.8c0-6.2,1-26.7,1-27c0,0,0-0.3,0.3-0.3
						h272.9c0,0,0.3,0,0.3,0.3c0,0.3,1,20.8,1,27C732.4,508.6,731.4,516.5,729.5,527.5C729.8,527.5,729.5,527.5,729.5,527.5z
						 M460.1,527.2h269c2-11.1,2.9-18.5,2.9-21.8c0-5.9-1-24.7-1-26.7H458.5c0,2.3-1,20.8-1,26.7
						C457.5,508.6,458.5,516.1,460.1,527.2z"/>
					<path fill="#8A9AA5" d="M503.1,478.7c0,0,19.2,43.6,21.5,47.2H666c0,0,17.2-34.8,21.8-47.5L503.1,478.7z"/>
					<path fill="#231F20" d="M659.9,527.5H503.4c0,0-0.3,0-0.3-0.3c0,0,0-0.3,0.3-0.3h156.5C660.2,527.2,660.2,527.2,659.9,527.5
						C660.2,527.5,660.2,527.5,659.9,527.5z"/>
					<g>
						<g>
							<g>
								<path fill="#8A9AA5" d="M701.8,503.1c0,1.3-2,2.3-4.2,2.3c-2.3,0-4.2-1-4.2-2.3c0-1.3,2-2.3,4.2-2.3
									C699.9,500.8,701.8,501.8,701.8,503.1z"/>
								<path fill="#8A9AA5" d="M725.9,502.8c0,1.3-2,2.3-4.2,2.3c-2.3,0-4.2-1-4.2-2.3c0-1.3,2-2.3,4.2-2.3
									C723.9,500.8,725.9,501.8,725.9,502.8z"/>
							</g>
							<g>
								<path fill="#8A9AA5" d="M709.6,510.9c1.3,0,2.3,2,2.3,4.2c0,2.3-1,4.2-2.3,4.2s-2.3-2-2.3-4.2
									C707.4,512.9,708.3,510.9,709.6,510.9z"/>
								<path fill="#8A9AA5" d="M709.6,486.9c1.3,0,2.3,2,2.3,4.2s-1,4.2-2.3,4.2s-2.3-2-2.3-4.2
									C707.4,488.5,708.3,486.9,709.6,486.9z"/>
							</g>
						</g>
						<path fill="#8A9AA5" d="M714.2,503.1c0,2.6-2,4.6-4.6,4.6c-2.6,0-4.6-2-4.6-4.6c0-2.6,2-4.6,4.6-4.6
							C712.2,498.6,714.2,500.5,714.2,503.1z"/>
					</g>
					<path fill="#FFFFFF" d="M731.1,528.5H459.8l-0.3-1c-2-11.4-2.9-18.5-2.9-22.1c0-6.2,1-26.4,1-27v-1.3h275.2v1.3
						c0,1,1,20.8,1,27c0,3.3-1,10.7-2.9,22.1L731.1,528.5z M461.7,526.2h267.4c1.6-10.4,2.6-17.6,2.6-20.8c0-5.2-1-21.5-1-25.7
						H460.1c-0.3,4.6-1,20.5-1,25.7C459.1,508.6,460.1,515.8,461.7,526.2z"/>
					<path fill="#8A9AA5" d="M468.9,513.2c0-1,1-1.6,2.3-1.6h31.2c1.3,0,2.3,0.7,2.3,1.6v6.2c0,1-1,1.6-2.3,1.6h-31.2
						c-1.3,0-2.3-0.7-2.3-1.6C468.9,519.4,468.9,513.2,468.9,513.2z"/>
				</g>
				<rect x="462.7" y="489.5" fill="none" width="263.8" height="33.5"/>
				<text transform="matrix(1 0 0 1 530.3143 512.8232)" fill="#FFFFFF" font-family="'Helvetica-Light'" font-size="32.5314">Receiver</text>
			</g>
		</g>
		<g>
			<g>
				<g>
					<path fill="#B5C0C9" d="M595.8,449.9h133.7c1-5.9,2.9-17.2,2.9-21.8c0-6.2-1-27-1-27H595.8h-2H458.5c0,0-1,20.8-1,27
						c0,4.6,2,15.9,2.9,21.8h133.7H595.8z"/>
					<path fill="#B5C0C9" d="M729.5,450.3H460.1c0,0-0.3,0-0.3-0.3c-2-11.1-2.9-18.5-2.9-21.8c0-6.2,1-26.7,1-27c0,0,0-0.3,0.3-0.3
						h272.9c0,0,0.3,0,0.3,0.3c0,0.3,1,20.8,1,27C732.4,431.4,731.4,439.2,729.5,450.3C729.8,450.3,729.5,450.3,729.5,450.3z
						 M460.1,449.9h269c2-11.1,2.9-18.5,2.9-21.8c0-5.9-1-24.7-1-26.7H458.5c0,2.3-1,20.8-1,26.7
						C457.5,431.4,458.5,438.9,460.1,449.9z"/>
					<path fill="#8A9AA5" d="M503.1,401.5c0,0,19.2,43.6,21.5,47.2H666c0,0,17.2-34.8,21.8-47.5L503.1,401.5z"/>
					<path fill="#231F20" d="M659.9,450.3H503.4c0,0-0.3,0-0.3-0.3c0,0,0-0.3,0.3-0.3h156.5C660.2,449.9,660.2,449.9,659.9,450.3
						C660.2,450.3,660.2,450.3,659.9,450.3z"/>
					<g>
						<g>
							<g>
								<path fill="#8A9AA5" d="M701.8,425.9c0,1.3-2,2.3-4.2,2.3c-2.3,0-4.2-1-4.2-2.3c0-1.3,2-2.3,4.2-2.3
									C699.9,423.6,701.8,424.6,701.8,425.9z"/>
								<path fill="#8A9AA5" d="M725.9,425.5c0,1.3-2,2.3-4.2,2.3c-2.3,0-4.2-1-4.2-2.3s2-2.3,4.2-2.3
									C723.9,423.6,725.9,424.6,725.9,425.5z"/>
							</g>
							<g>
								<path fill="#8A9AA5" d="M709.6,433.7c1.3,0,2.3,2,2.3,4.2c0,2.3-1,4.2-2.3,4.2s-2.3-2-2.3-4.2S708.3,433.7,709.6,433.7z"/>
								<path fill="#8A9AA5" d="M709.6,409.6c1.3,0,2.3,2,2.3,4.2s-1,4.2-2.3,4.2s-2.3-2-2.3-4.2
									C707.4,411.2,708.3,409.6,709.6,409.6z"/>
							</g>
						</g>
						<path fill="#8A9AA5" d="M714.2,425.9c0,2.6-2,4.6-4.6,4.6c-2.6,0-4.6-2-4.6-4.6s2-4.6,4.6-4.6
							C712.2,421.3,714.2,423.3,714.2,425.9z"/>
					</g>
					<path fill="#FFFFFF" d="M731.1,451.2H459.8l-0.3-1c-2-11.4-2.9-18.5-2.9-22.1c0-6.2,1-26.4,1-27v-1.3h275.2v1.3
						c0,1,1,20.8,1,27c0,3.3-1,10.7-2.9,22.1L731.1,451.2z M461.7,449h267.4c1.6-10.4,2.6-17.6,2.6-20.8c0-5.2-1-21.5-1-25.7H460.1
						c-0.3,4.6-1,20.5-1,25.7C459.1,431.4,460.1,438.5,461.7,449z"/>
					<path fill="#8A9AA5" d="M468.9,435.9c0-1,1-1.6,2.3-1.6h31.2c1.3,0,2.3,0.7,2.3,1.6v6.2c0,1-1,1.6-2.3,1.6h-31.2
						c-1.3,0-2.3-0.7-2.3-1.6C468.9,442.1,468.9,435.9,468.9,435.9z"/>
				</g>
				<rect x="462.7" y="412.2" fill="none" width="263.8" height="33.5"/>
				<text transform="matrix(1 0 0 1 530.3143 435.5611)" fill="#FFFFFF" font-family="'Helvetica-Light'" font-size="32.5314">Receiver</text>
			</g>
		</g>
		<g>
			<g>
				<g>
					<path fill="#B5C0C9" d="M253.2,415.2h133.7c1-5.9,2.9-17.2,2.9-21.8c0-6.2-1-27-1-27H253.2h-2H115.9c0,0-1,20.8-1,27
						c0,4.6,2,15.9,2.9,21.8h133.7H253.2z"/>
					<path fill="#B5C0C9" d="M386.9,415.5H117.6c0,0-0.3,0-0.3-0.3c-2-11.1-2.9-18.5-2.9-21.8c0-6.2,1-26.7,1-27c0,0,0-0.3,0.3-0.3
						h272.9c0,0,0.3,0,0.3,0.3s1,20.8,1,27C389.8,396.7,388.9,404.5,386.9,415.5C387.2,415.5,386.9,415.5,386.9,415.5z M117.6,415.2
						h269c2-11.1,2.9-18.5,2.9-21.8c0-5.9-1-24.7-1-26.7H115.9c0,2.3-1,20.8-1,26.7C115,396.7,115.9,404.2,117.6,415.2z"/>
					<path fill="#8A9AA5" d="M160.5,366.7c0,0,19.2,43.6,21.5,47.2h141.5c0,0,17.2-34.8,21.8-47.5L160.5,366.7z"/>
					<path fill="#231F20" d="M317.3,415.5H160.8c0,0-0.3,0-0.3-0.3c0,0,0-0.3,0.3-0.3h156.5C317.6,415.2,317.6,415.2,317.3,415.5
						C317.6,415.5,317.6,415.5,317.3,415.5z"/>
					<g>
						<g>
							<g>
								<path fill="#8A9AA5" d="M359.3,391.1c0,1.3-2,2.3-4.2,2.3c-2.3,0-4.2-1-4.2-2.3c0-1.3,2-2.3,4.2-2.3
									C357.3,388.9,359.3,389.8,359.3,391.1z"/>
								<path fill="#8A9AA5" d="M383.3,390.8c0,1.3-2,2.3-4.2,2.3c-2.3,0-4.2-1-4.2-2.3c0-1.3,2-2.3,4.2-2.3
									C381.4,388.9,383.3,389.8,383.3,390.8z"/>
							</g>
							<g>
								<path fill="#8A9AA5" d="M367.1,398.9c1.3,0,2.3,2,2.3,4.2s-1,4.2-2.3,4.2c-1.3,0-2.3-2-2.3-4.2
									C364.8,400.9,365.8,398.9,367.1,398.9z"/>
								<path fill="#8A9AA5" d="M367.1,374.9c1.3,0,2.3,2,2.3,4.2c0,2.3-1,4.2-2.3,4.2c-1.3,0-2.3-2-2.3-4.2
									C364.8,376.5,365.8,374.9,367.1,374.9z"/>
							</g>
						</g>
						<path fill="#8A9AA5" d="M371.6,391.1c0,2.6-2,4.6-4.6,4.6c-2.6,0-4.6-2-4.6-4.6c0-2.6,2-4.6,4.6-4.6
							C369.7,386.6,371.6,388.5,371.6,391.1z"/>
					</g>
					<path fill="#FFFFFF" d="M388.5,416.5H117.2l-0.3-1c-2-11.4-2.9-18.5-2.9-22.1c0-6.2,1-26.4,1-27v-1.3h275.2v1.3
						c0,1,1,20.8,1,27c0,3.3-1,10.7-2.9,22.1L388.5,416.5z M119.2,414.2h267.4c1.6-10.4,2.6-17.6,2.6-20.8c0-5.2-1-21.5-1-25.7
						H117.6c-0.3,4.6-1,20.5-1,25.7C116.6,396.7,117.6,403.8,119.2,414.2z"/>
					<path fill="#8A9AA5" d="M126.3,401.2c0-1,1-1.6,2.3-1.6h31.2c1.3,0,2.3,0.7,2.3,1.6v6.2c0,1-1,1.6-2.3,1.6h-31.2
						c-1.3,0-2.3-0.7-2.3-1.6C126.3,407.4,126.3,401.2,126.3,401.2z"/>
				</g>
				<rect x="120.2" y="377.5" fill="none" width="263.8" height="33.5"/>
				<text transform="matrix(1 0 0 1 187.7585 400.8467)" fill="#FFFFFF" font-family="'Helvetica-Light'" font-size="32.5314">Receiver</text>
			</g>
		</g>
	</g>
	<g>
		<line fill="none" stroke="#FFFFFF" stroke-width="2" stroke-miterlimit="10" x1="369.8" y1="86.9" x2="515.3" y2="86.9"/>
		<g>
			<path fill="#FFFFFF" d="M361.1,112.6h-59.9l0,0c-0.3,0-6.8-2.3-9.4-9.1l0,0v-7.2l0.7-33.8l0,0c2.9-13.7,9.8-23.4,20.8-29.3
				c8.5-4.2,16.3-4.6,17.2-4.6l0,0c0,0,0.3,0,0.7,0c5.2,0,31.6,1.6,38.1,33.5l0,0l1.3,33.8v7.2l0,0c-1.6,3.9-4.2,6.2-5.9,7.5
				C362.7,112.3,361.1,112.6,361.1,112.6L361.1,112.6z M301.2,111.6h59.5c0.7,0,5.9-1.6,8.8-8.5v-6.8l-1-33.8
				C362,31.6,336.7,30,331.5,30c-0.3,0-0.7,0-0.7,0l0,0l0,0c-1,0-8.5,0-16.9,4.2c-10.7,5.5-17.6,15-20.2,28.3l-1,33.8v6.8
				C295,109,300.6,111.3,301.2,111.6z"/>
			<path fill="#B5C0C9" d="M292.1,96.6v6.8c2.3,6.2,9.1,8.5,9.1,8.5h59.9c5.9-1.3,8.8-8.5,8.8-8.5v-6.8H292.1z"/>
			<path fill="#FFFFFF" d="M370.2,97h-78.1c-0.3,0-0.7-0.3-0.7-0.7c0-0.3,0.3-0.7,0.7-0.7h78.1c0.3,0,0.7,0.3,0.7,0.7
				C370.5,96.6,370.5,97,370.2,97z"/>
			<path fill="#FFFFFF" d="M361.1,112.6h-59.9c0,0,0,0-0.3,0s-6.8-2.3-9.4-9.1c0,0,0,0,0-0.3v-6.8l1-33.8l0,0
				c2.9-13.7,9.8-23.4,20.8-29.3c8.5-4.2,16.3-4.6,17.2-4.6l0,0c0,0,0.3,0,0.7,0c5.2,0,31.6,1.6,38.1,33.5l0,0l1.3,33.8v6.8
				c0,0,0,0,0,0.3c-1.6,3.9-4.2,6.2-5.9,7.5C362.7,112.3,361.1,112.6,361.1,112.6L361.1,112.6z M301.2,111.6h59.5
				c0.7,0,5.9-1.6,8.8-8.5v-6.8l-1-33.8C362,31.6,336.7,30,331.5,30c-0.3,0-0.7,0-0.7,0l0,0l0,0c-1,0-8.5,0-16.9,4.2
				c-10.7,5.5-17.6,15-20.2,28.3l-1,33.8v6.8C295,109,300.6,111.3,301.2,111.6z"/>
		</g>
		<rect x="273.2" y="130.8" fill="none" width="115.5" height="33.5"/>
		<text transform="matrix(1 0 0 1 282.5668 149.4263)" fill="#FFFFFF" font-family="'Helvetica'" font-size="26.0251">Antenna</text>
		<g>
			<path fill="#FFFFFF" d="M547.1,73.9l-0.3-37.4c0,0,0-2.6-2.3-2.6l0,0c-2.3,0-2.3,2.6-2.3,2.6l-0.3,37.4H547.1z"/>
			<path fill="#B5C0C9" d="M507.1,96.3h67V77.8c0,0,0.3-2.3-7.2-3.3c0,0-23.7-2.6-59.5-2.9h-0.3c-35.8,0.3-59.5,2.9-59.5,2.9
				c-7.5,0.7-7.2,3.3-7.2,3.3v18.5H507.1L507.1,96.3z"/>
			<path fill="#8A9AA5" d="M501.3,80.4c0,0.7-0.7,1.3-1.3,1.3l0,0c-0.7,0-1.3-0.7-1.3-1.3v-8.1h2.6V80.4z"/>
			<path fill="#8A9AA5" d="M508.4,80.4c0,0.7-0.7,1.3-1.3,1.3l0,0c-0.7,0-1.3-0.7-1.3-1.3v-8.1h2.6V80.4z"/>
			<path fill="#8A9AA5" d="M515.3,80.4c0,0.7-0.7,1.3-1.3,1.3l0,0c-0.7,0-1.3-0.7-1.3-1.3v-8.1h2.6V80.4z"/>
			<path fill="#FFFFFF" d="M574.5,97h-135V77.8c0-0.3,0-0.7,0.3-1.3c1-1.3,3.6-2.3,7.2-2.6c0.3,0,24.1-2.6,59.5-2.9h0.3
				c35.5,0.3,59.5,2.9,59.5,2.9c3.9,0.3,6.2,1.3,7.2,2.6c0.3,0.7,0.3,1,0.3,1.3V97H574.5z M440.4,95.7h132.7V77.8l0,0
				c0,0-0.3-2-6.5-2.3c-0.3,0-24.1-2.6-59.5-2.9h-0.3c-35.5,0.3-59.2,2.9-59.5,2.9c-6.5,0.7-6.5,2.3-6.5,2.6l0,0l0,0v17.6H440.4z"/>
		</g>
		<rect x="440.8" y="130.8" fill="none" width="133.7" height="33.5"/>
		<text transform="matrix(1 0 0 1 462.7465 149.4263)" fill="#FFFFFF" font-family="'Helvetica'" font-size="26.0251">TV-Hub</text>
	</g>
</g>
</svg>
