<?xml version="1.0" encoding="utf-8"?>
<!-- Generator: Adobe Illustrator 17.1.0, SVG Export Plug-In . SVG Version: 6.00 Build 0)  -->
<!DOCTYPE svg PUBLIC "-//W3C//DTD SVG 1.1//EN" "http://www.w3.org/Graphics/SVG/1.1/DTD/svg11.dtd">
<svg version="1.1" id="Layer_1" xmlns="http://www.w3.org/2000/svg" xmlns:xlink="http://www.w3.org/1999/xlink" x="0px" y="0px"
	 viewBox="0 0 104 90" enable-background="new 0 0 104 90" xml:space="preserve">
<polyline fill="none" stroke="#FFFFFF" stroke-width="0.25" stroke-miterlimit="10" points="38.4,18.5 25.5,18.5 25.5,38.6 25.5,46 
	41.1,46 55.9,46 "/>
<polyline fill="none" stroke="#0CBC18" stroke-width="0.25" stroke-miterlimit="10" points="18.3,16.3 18.3,53.3 18.3,60 33.8,60 
	51.1,60 "/>
<polyline fill="none" stroke="#0CBC18" stroke-width="0.25" stroke-miterlimit="10" points="36.4,16.3 10.9,16.3 10.9,66.6 
	10.9,74.1 26.4,74 52.2,74 "/>
<g>
	<text transform="matrix(0 -1 1 0 7.7431 48.1698)" fill="#0CBC18" font-family="'Helvetica-Light'" font-size="2.5374">Optional</text>
</g>
<polyline fill="none" stroke="#FFFFFF" stroke-width="0.25" stroke-miterlimit="10" points="71.5,16.3 98.4,16.3 98.4,32 98.4,32.2 
	70.6,32.2 "/>
<g>
	<path fill="#B5C0C9" d="M53.6,35.3H71c0.1-0.8,0.4-2.2,0.4-2.8c0-0.8-0.1-3.5-0.1-3.5H53.6h-0.3H35.8c0,0-0.1,2.7-0.1,3.5
		c0,0.6,0.3,2.1,0.4,2.8h17.4H53.6z"/>
	<path fill="#B5C0C9" d="M71,35.4H36c0,0,0,0,0,0c-0.3-1.4-0.4-2.4-0.4-2.8c0-0.8,0.1-3.5,0.1-3.5c0,0,0,0,0,0h35.5c0,0,0,0,0,0
		c0,0,0.1,2.7,0.1,3.5C71.4,32.9,71.2,33.9,71,35.4C71,35.4,71,35.4,71,35.4z M36,35.3h35c0.3-1.4,0.4-2.4,0.4-2.8
		c0-0.8-0.1-3.2-0.1-3.5H35.8c0,0.3-0.1,2.7-0.1,3.5C35.6,32.9,35.8,33.9,36,35.3z"/>
	<path fill="#8A9AA5" d="M41.5,29c0,0,2.5,5.7,2.8,6.1h18.4c0,0,2.2-4.5,2.8-6.2L41.5,29z"/>
	<path fill="#231F20" d="M61.9,35.4H41.6c0,0,0,0,0,0c0,0,0,0,0,0L61.9,35.4C62,35.3,62,35.3,61.9,35.4C62,35.4,62,35.4,61.9,35.4z"
		/>
	<g>
		<g>
			<g>
				<path fill="#8A9AA5" d="M67.4,32.2c0,0.2-0.3,0.3-0.5,0.3c-0.3,0-0.5-0.1-0.5-0.3c0-0.2,0.3-0.3,0.5-0.3S67.4,32,67.4,32.2z"/>
				<path fill="#8A9AA5" d="M70.5,32.2c0,0.2-0.3,0.3-0.5,0.3c-0.3,0-0.5-0.1-0.5-0.3c0-0.2,0.3-0.3,0.5-0.3
					C70.3,31.9,70.5,32,70.5,32.2z"/>
			</g>
			<g>
				<path fill="#8A9AA5" d="M68.4,33.2c0.2,0,0.3,0.3,0.3,0.5c0,0.3-0.1,0.5-0.3,0.5s-0.3-0.3-0.3-0.5
					C68.1,33.5,68.2,33.2,68.4,33.2z"/>
				<path fill="#8A9AA5" d="M68.4,30.1c0.2,0,0.3,0.3,0.3,0.5c0,0.3-0.1,0.5-0.3,0.5s-0.3-0.3-0.3-0.5
					C68.1,30.3,68.2,30.1,68.4,30.1z"/>
			</g>
		</g>
		<path fill="#8A9AA5" d="M69,32.2c0,0.3-0.3,0.6-0.6,0.6s-0.6-0.3-0.6-0.6s0.3-0.6,0.6-0.6S69,31.9,69,32.2z"/>
	</g>
	<path fill="#FFFFFF" d="M71.2,35.5H35.9l0-0.1c-0.3-1.5-0.4-2.4-0.4-2.9c0-0.8,0.1-3.4,0.1-3.5v-0.2h35.8V29c0,0.1,0.1,2.7,0.1,3.5
		c0,0.4-0.1,1.4-0.4,2.9L71.2,35.5z M36.2,35.2h34.8c0.2-1.4,0.3-2.3,0.3-2.7c0-0.7-0.1-2.8-0.1-3.3H36c0,0.6-0.1,2.7-0.1,3.3
		C35.8,32.9,36,33.8,36.2,35.2z"/>
	<path fill="#8A9AA5" d="M37.1,33.5c0-0.1,0.1-0.2,0.3-0.2h4.1c0.2,0,0.3,0.1,0.3,0.2v0.8c0,0.1-0.1,0.2-0.3,0.2h-4.1
		c-0.2,0-0.3-0.1-0.3-0.2V33.5z"/>
</g>
<rect x="36.3" y="30.4" fill="none" width="34.3" height="4.4"/>
<g>
	<text transform="matrix(1 0 0 1 45.0804 33.4571)" fill="#0F1F30" font-family="'Helvetica-Light'" font-size="4.2291">Receiver</text>
</g>
<g>
	<text transform="matrix(1 0 0 1 42.1388 40.1508)" fill="#DEF93D" font-family="'Helvetica'" font-size="3.3833">Can Be Master</text>
</g>
<path fill="#B5C0C9" d="M53.6,62.9H71c0.1-0.8,0.4-2.2,0.4-2.8c0-0.8-0.1-3.5-0.1-3.5H53.6h-0.3H35.7c0,0-0.1,2.7-0.1,3.5
	c0,0.6,0.3,2.1,0.4,2.8h17.4H53.6z"/>
<path fill="#B5C0C9" d="M71,62.9h-35c0,0,0,0,0,0c-0.3-1.4-0.4-2.4-0.4-2.8c0-0.8,0.1-3.5,0.1-3.5c0,0,0,0,0,0h35.5c0,0,0,0,0,0
	c0,0,0.1,2.7,0.1,3.5C71.3,60.4,71.2,61.5,71,62.9C71,62.9,71,62.9,71,62.9z M35.9,62.9h35c0.3-1.4,0.4-2.4,0.4-2.8
	c0-0.8-0.1-3.2-0.1-3.5H35.7c0,0.3-0.1,2.7-0.1,3.5C35.6,60.4,35.7,61.4,35.9,62.9z"/>
<path fill="#8A9AA5" d="M41.5,56.6c0,0,2.5,5.7,2.8,6.1h18.4c0,0,2.2-4.5,2.8-6.2L41.5,56.6z"/>
<path fill="#231F20" d="M61.9,62.9H41.6c0,0,0,0,0,0c0,0,0,0,0,0L61.9,62.9C61.9,62.9,61.9,62.9,61.9,62.9
	C61.9,62.9,61.9,62.9,61.9,62.9z"/>
<g>
	<g>
		<g>
			<path fill="#8A9AA5" d="M67.4,59.7c0,0.2-0.3,0.3-0.5,0.3s-0.5-0.1-0.5-0.3s0.3-0.3,0.5-0.3S67.4,59.6,67.4,59.7z"/>
			<path fill="#8A9AA5" d="M70.5,59.7c0,0.2-0.3,0.3-0.5,0.3c-0.3,0-0.5-0.1-0.5-0.3s0.3-0.3,0.5-0.3C70.2,59.4,70.5,59.6,70.5,59.7
				z"/>
		</g>
		<g>
			<path fill="#8A9AA5" d="M68.4,60.7c0.2,0,0.3,0.3,0.3,0.5c0,0.3-0.1,0.5-0.3,0.5c-0.2,0-0.3-0.3-0.3-0.5
				C68.1,61,68.2,60.7,68.4,60.7z"/>
			<path fill="#8A9AA5" d="M68.4,57.6c0.2,0,0.3,0.3,0.3,0.5c0,0.3-0.1,0.5-0.3,0.5c-0.2,0-0.3-0.3-0.3-0.5
				C68.1,57.8,68.2,57.6,68.4,57.6z"/>
		</g>
	</g>
	<path fill="#8A9AA5" d="M69,59.7c0,0.3-0.3,0.6-0.6,0.6c-0.3,0-0.6-0.3-0.6-0.6s0.3-0.6,0.6-0.6C68.7,59.1,69,59.4,69,59.7z"/>
</g>
<path fill="#0CBC18" d="M71.2,63H35.9l0-0.1c-0.3-1.5-0.4-2.4-0.4-2.9c0-0.8,0.1-3.4,0.1-3.5v-0.2h35.8v0.2c0,0.1,0.1,2.7,0.1,3.5
	c0,0.4-0.1,1.4-0.4,2.9L71.2,63L71.2,63z M36.1,62.7h34.8c0.2-1.4,0.3-2.3,0.3-2.7c0-0.7-0.1-2.8-0.1-3.3H35.9
	c0,0.6-0.1,2.7-0.1,3.3C35.8,60.4,35.9,61.4,36.1,62.7z"/>
<path fill="#8A9AA5" d="M37.1,61c0-0.1,0.1-0.2,0.3-0.2h4.1c0.2,0,0.3,0.1,0.3,0.2v0.8c0,0.1-0.1,0.2-0.3,0.2h-4.1
	c-0.2,0-0.3-0.1-0.3-0.2V61z"/>
<rect x="36.3" y="57.9" fill="none" width="34.3" height="4.4"/>
<g>
	<text transform="matrix(1 0 0 1 45.0607 60.9965)" fill="#0F1F30" font-family="'Helvetica-Light'" font-size="4.2291">Receiver</text>
</g>
<g>
	<text transform="matrix(1 0 0 1 42.1388 67.5402)" fill="#DEF93D" font-family="'Helvetica'" font-size="3.3833">Can Be Master</text>
</g>
<path fill="#B5C0C9" d="M53.6,76.6H71c0.1-0.8,0.4-2.2,0.4-2.8c0-0.8-0.1-3.5-0.1-3.5H53.6h-0.3H35.7c0,0-0.1,2.7-0.1,3.5
	c0,0.6,0.3,2.1,0.4,2.8h17.4H53.6z"/>
<path fill="#B5C0C9" d="M71,76.6h-35c0,0,0,0,0,0c-0.3-1.4-0.4-2.4-0.4-2.8c0-0.8,0.1-3.5,0.1-3.5c0,0,0,0,0,0h35.5c0,0,0,0,0,0
	c0,0,0.1,2.7,0.1,3.5C71.3,74.2,71.2,75.1,71,76.6C71,76.6,71,76.6,71,76.6z M35.9,76.6h35c0.3-1.4,0.4-2.4,0.4-2.8
	c0-0.8-0.1-3.2-0.1-3.5H35.7c0,0.3-0.1,2.7-0.1,3.5C35.6,74.2,35.7,75.1,35.9,76.6z"/>
<path fill="#8A9AA5" d="M41.5,70.3c0,0,2.5,5.7,2.8,6.1h18.4c0,0,2.2-4.5,2.8-6.2L41.5,70.3z"/>
<path fill="#231F20" d="M61.9,76.6H41.6c0,0,0,0,0,0c0,0,0,0,0,0L61.9,76.6C61.9,76.6,61.9,76.6,61.9,76.6
	C61.9,76.6,61.9,76.6,61.9,76.6z"/>
<g>
	<g>
		<g>
			<path fill="#8A9AA5" d="M67.4,73.4c0,0.2-0.3,0.3-0.5,0.3s-0.5-0.1-0.5-0.3s0.3-0.3,0.5-0.3S67.4,73.2,67.4,73.4z"/>
			<path fill="#8A9AA5" d="M70.5,73.4c0,0.2-0.3,0.3-0.5,0.3c-0.3,0-0.5-0.1-0.5-0.3s0.3-0.3,0.5-0.3C70.2,73.1,70.5,73.2,70.5,73.4
				z"/>
		</g>
		<g>
			<path fill="#8A9AA5" d="M68.4,74.4c0.2,0,0.3,0.3,0.3,0.5c0,0.3-0.1,0.5-0.3,0.5c-0.2,0-0.3-0.3-0.3-0.5
				C68.1,74.7,68.2,74.4,68.4,74.4z"/>
			<path fill="#8A9AA5" d="M68.4,71.3c0.2,0,0.3,0.3,0.3,0.5c0,0.3-0.1,0.5-0.3,0.5c-0.2,0-0.3-0.3-0.3-0.5
				C68.1,71.6,68.2,71.3,68.4,71.3z"/>
		</g>
	</g>
	<path fill="#8A9AA5" d="M69,73.4c0,0.3-0.3,0.6-0.6,0.6c-0.3,0-0.6-0.3-0.6-0.6s0.3-0.6,0.6-0.6C68.7,72.8,69,73.1,69,73.4z"/>
</g>
<path fill="#0CBC18" d="M71.2,76.8H35.9l0-0.1c-0.3-1.5-0.4-2.4-0.4-2.9c0-0.8,0.1-3.4,0.1-3.5v-0.2h35.8v0.2c0,0.1,0.1,2.7,0.1,3.5
	c0,0.4-0.1,1.4-0.4,2.9L71.2,76.8L71.2,76.8z M36.1,76.4h34.8c0.2-1.4,0.3-2.3,0.3-2.7c0-0.7-0.1-2.8-0.1-3.3H35.9
	c0,0.6-0.1,2.7-0.1,3.3C35.8,74.1,35.9,75.1,36.1,76.4z"/>
<path fill="#8A9AA5" d="M37.1,74.7c0-0.1,0.1-0.2,0.3-0.2h4.1c0.2,0,0.3,0.1,0.3,0.2v0.8c0,0.1-0.1,0.2-0.3,0.2h-4.1
	c-0.2,0-0.3-0.1-0.3-0.2V74.7z"/>
<rect x="36.3" y="71.6" fill="none" width="34.3" height="4.4"/>
<g>
	<text transform="matrix(1 0 0 1 45.0607 74.6957)" fill="#0F1F30" font-family="'Helvetica-Light'" font-size="4.2291">Receiver</text>
</g>
<g>
	<text transform="matrix(1 0 0 1 42.1388 81.27)" fill="#DEF93D" font-family="'Helvetica'" font-size="3.3833">Can Be Master</text>
</g>
<line fill="none" stroke="#FFFFFF" stroke-width="0.25" stroke-miterlimit="10" x1="46.5" y1="16.2" x2="65.4" y2="16.2"/>
<g>
	<path fill="#FFFFFF" d="M45.3,19.6h-7.8l0,0c0,0-0.9-0.3-1.2-1.2l0,0v-0.9l0.1-4.4l0,0c0.4-1.8,1.3-3,2.7-3.8
		c1.1-0.5,2.1-0.6,2.2-0.6l0,0c0,0,0,0,0.1,0c0.7,0,4.1,0.2,5,4.4l0,0l0.2,4.4v0.9l0,0c-0.2,0.5-0.5,0.8-0.8,1
		C45.6,19.5,45.3,19.6,45.3,19.6L45.3,19.6z M37.6,19.5h7.7c0.1,0,0.8-0.2,1.1-1.1v-0.9l-0.1-4.4c-0.8-4-4.1-4.2-4.8-4.2
		c0,0-0.1,0-0.1,0l0,0l0,0c-0.1,0-1.1,0-2.2,0.5c-1.4,0.7-2.3,1.9-2.6,3.7l-0.1,4.4v0.9C36.8,19.1,37.5,19.4,37.6,19.5z"/>
	<path fill="#B5C0C9" d="M36.4,17.5v0.9c0.3,0.8,1.2,1.1,1.2,1.1h7.8c0.8-0.2,1.1-1.1,1.1-1.1v-0.9H36.4z"/>
	<path fill="#FFFFFF" d="M46.5,17.5H36.4c0,0-0.1,0-0.1-0.1c0-0.1,0-0.1,0.1-0.1h10.2C46.6,17.4,46.6,17.4,46.5,17.5
		C46.6,17.5,46.6,17.5,46.5,17.5z"/>
	<path fill="#FFFFFF" d="M45.3,19.6h-7.8c0,0,0,0,0,0c0,0-0.9-0.3-1.2-1.2c0,0,0,0,0,0v-0.9l0.1-4.4l0,0c0.4-1.8,1.3-3,2.7-3.8
		c1.1-0.5,2.1-0.6,2.2-0.6l0,0c0,0,0,0,0.1,0c0.7,0,4.1,0.2,5,4.4l0,0l0.2,4.4v0.9c0,0,0,0,0,0c-0.2,0.5-0.5,0.8-0.8,1
		C45.6,19.5,45.3,19.6,45.3,19.6L45.3,19.6z M37.6,19.5h7.7c0.1,0,0.8-0.2,1.1-1.1v-0.9l-0.1-4.4c-0.8-4-4.1-4.2-4.8-4.2
		c0,0-0.1,0-0.1,0l0,0l0,0c-0.1,0-1.1,0-2.2,0.5c-1.4,0.7-2.3,1.9-2.6,3.7l-0.1,4.4v0.9C36.8,19.1,37.5,19.4,37.6,19.5z"/>
</g>
<rect x="33.9" y="22" fill="none" width="15" height="4.4"/>
<text transform="matrix(1 0 0 1 35.139 24.3691)" fill="#FFFFFF" font-family="'Helvetica'" font-size="3.3833">Antenna</text>
<g>
	<path fill="#FFFFFF" d="M69.5,14.5l0-4.9c0,0,0-0.3-0.3-0.3l0,0c-0.3,0-0.3,0.3-0.3,0.3l0,4.9H69.5z"/>
	<path fill="#B5C0C9" d="M64.3,17.5H73V15c0,0,0-0.3-0.9-0.4c0,0-3.1-0.3-7.7-0.4h0c-4.7,0-7.7,0.4-7.7,0.4c-1,0.1-0.9,0.4-0.9,0.4
		v2.4L64.3,17.5L64.3,17.5z"/>
	<path fill="#8A9AA5" d="M63.6,15.4c0,0.1-0.1,0.2-0.2,0.2l0,0c-0.1,0-0.2-0.1-0.2-0.2v-1.1h0.3C63.6,14.3,63.6,15.4,63.6,15.4z"/>
	<path fill="#8A9AA5" d="M64.5,15.4c0,0.1-0.1,0.2-0.2,0.2l0,0c-0.1,0-0.2-0.1-0.2-0.2v-1.1h0.3C64.5,14.3,64.5,15.4,64.5,15.4z"/>
	<path fill="#8A9AA5" d="M65.4,15.4c0,0.1-0.1,0.2-0.2,0.2l0,0c-0.1,0-0.2-0.1-0.2-0.2v-1.1h0.3C65.4,14.3,65.4,15.4,65.4,15.4z"/>
	<path fill="#FFFFFF" d="M73.1,17.5H55.5V15c0,0,0-0.1,0-0.2c0.1-0.2,0.5-0.3,0.9-0.3c0,0,3.1-0.3,7.7-0.4h0c4.6,0,7.7,0.4,7.7,0.4
		c0.5,0,0.8,0.2,0.9,0.3c0,0.1,0,0.1,0,0.2L73.1,17.5L73.1,17.5z M55.7,17.4h17.3V15l0,0c0,0,0-0.3-0.8-0.3c0,0-3.1-0.3-7.7-0.4h0
		c-4.6,0-7.7,0.4-7.7,0.4c-0.8,0.1-0.8,0.3-0.8,0.3l0,0l0,0L55.7,17.4C55.7,17.4,55.7,17.4,55.7,17.4z"/>
</g>
<rect x="55.7" y="22" fill="none" width="17.4" height="4.4"/>
<text transform="matrix(1 0 0 1 58.5628 24.3691)" fill="#FFFFFF" font-family="'Helvetica'" font-size="3.3833">TV-Hub</text>
<g>
	
		<text transform="matrix(-1.346898e-10 -1 1 -1.346898e-10 23.38 40.4492)" fill="#FFFFFF" font-family="'Helvetica-Light'" font-size="2.5374">IP AutoSwitch</text>
	<g>
		<rect x="25.2" y="34.8" fill="#B5C0C9" width="0.6" height="1.1"/>
		<rect x="25.2" y="34.8" fill="none" stroke="#FFFFFF" stroke-width="0.15" stroke-miterlimit="10" width="0.6" height="1.1"/>
		<rect x="25.2" y="40.2" fill="#B5C0C9" width="0.6" height="1.1"/>
		<rect x="25.2" y="40.2" fill="none" stroke="#FFFFFF" stroke-width="0.15" stroke-miterlimit="10" width="0.6" height="1.1"/>
		<path fill="#B5C0C9" d="M27.1,36L27,35.7v-0.1c0,0-0.2,0-0.3,0c-0.1,0-0.3,0-0.3,0v0.1L26.2,36L27.1,36z"/>
		<path fill="#FFFFFF" d="M26.2,36.1l0.2-0.3v-0.1h0c0,0,0.2,0,0.3,0c0.1,0,0.3,0,0.3,0h0v0.1l0.2,0.3L26.2,36.1z M26.5,35.7
			L26.5,35.7L26.3,36l0.8,0L27,35.7v-0.1c0,0-0.2,0-0.3,0C26.6,35.6,26.5,35.7,26.5,35.7z"/>
		<rect x="24.5" y="36.1" fill="#B5C0C9" width="3.1" height="4.2"/>
		<path fill="#FFFFFF" d="M27.6,40.3h-3.2V36h3.2V40.3z M24.6,40.2h3v-4.1h-3V40.2z"/>
		<path fill="#B5C0C9" d="M24.5,36.1C24.5,36.2,24.5,36.2,24.5,36.1l3.1,0.1c0,0,0.1,0,0.1-0.1V36c0,0,0-0.1-0.1-0.1h-3
			c0,0-0.1,0-0.1,0.1V36.1z"/>
		<path fill="#FFFFFF" d="M27.6,36.2h-3c0,0-0.1,0-0.1-0.1v-0.2c0,0,0-0.1,0.1-0.1h3c0,0,0.1,0,0.1,0.1v0.2
			C27.7,36.2,27.6,36.2,27.6,36.2z M24.6,36C24.5,36,24.5,36,24.6,36l0,0.2c0,0,0,0,0,0h3c0,0,0,0,0,0V36l0,0H24.6z"/>
		<path fill="#B5C0C9" d="M24.5,40.4C24.5,40.4,24.5,40.5,24.5,40.4l3.1,0.1c0,0,0.1,0,0.1-0.1v-0.2c0,0,0-0.1-0.1-0.1h-3
			c0,0-0.1,0-0.1,0.1V40.4z"/>
		<path fill="#FFFFFF" d="M27.6,40.5h-3c0,0-0.1,0-0.1-0.1v-0.2c0,0,0-0.1,0.1-0.1h3c0,0,0.1,0,0.1,0.1v0.2
			C27.7,40.4,27.6,40.5,27.6,40.5z M24.6,40.2C24.5,40.2,24.5,40.2,24.6,40.2l0,0.2c0,0,0,0,0,0h3c0,0,0,0,0,0v-0.2l0,0H24.6z"/>
	</g>
</g>
<g>
	
		<text transform="matrix(-1.346898e-10 -1 1 -1.346898e-10 16.0868 54.9191)" fill="#FFFFFF" font-family="'Helvetica-Light'" font-size="2.5374">IP AutoSwitch</text>
	<g>
		<rect x="17.9" y="49.3" fill="#B5C0C9" width="0.6" height="1.1"/>
		<rect x="17.9" y="49.3" fill="none" stroke="#FFFFFF" stroke-width="0.15" stroke-miterlimit="10" width="0.6" height="1.1"/>
		<rect x="17.9" y="54.6" fill="#B5C0C9" width="0.6" height="1.1"/>
		<rect x="17.9" y="54.6" fill="none" stroke="#FFFFFF" stroke-width="0.15" stroke-miterlimit="10" width="0.6" height="1.1"/>
		<path fill="#B5C0C9" d="M19.8,50.4l-0.1-0.2v-0.1c0,0-0.2,0-0.3,0c-0.1,0-0.3,0-0.3,0v0.1l-0.2,0.3L19.8,50.4z"/>
		<path fill="#FFFFFF" d="M18.9,50.6l0.2-0.3v-0.1h0c0,0,0.2,0,0.3,0c0.1,0,0.3,0,0.3,0h0v0.1l0.2,0.3L18.9,50.6z M19.2,50.1
			L19.2,50.1L19,50.4l0.8,0l-0.1-0.2v-0.1c0,0-0.2,0-0.3,0C19.3,50.1,19.2,50.1,19.2,50.1z"/>
		<rect x="17.2" y="50.6" fill="#B5C0C9" width="3.1" height="4.2"/>
		<path fill="#FFFFFF" d="M20.3,54.8h-3.2v-4.3h3.2V54.8z M17.3,54.7h3v-4.1h-3V54.7z"/>
		<path fill="#B5C0C9" d="M17.2,50.6C17.2,50.6,17.2,50.7,17.2,50.6l3.1,0.1c0,0,0.1,0,0.1-0.1v-0.2c0,0,0-0.1-0.1-0.1h-3
			c0,0-0.1,0-0.1,0.1V50.6z"/>
		<path fill="#FFFFFF" d="M20.3,50.7h-3c0,0-0.1,0-0.1-0.1v-0.2c0,0,0-0.1,0.1-0.1h3c0,0,0.1,0,0.1,0.1v0.2
			C20.4,50.6,20.3,50.7,20.3,50.7z M17.3,50.4C17.2,50.4,17.2,50.4,17.3,50.4l0,0.2c0,0,0,0,0,0h3c0,0,0,0,0,0v-0.2l0,0H17.3z"/>
		<path fill="#B5C0C9" d="M17.2,54.9C17.2,54.9,17.2,55,17.2,54.9l3.1,0.1c0,0,0.1,0,0.1-0.1v-0.2c0,0,0-0.1-0.1-0.1h-3
			c0,0-0.1,0-0.1,0.1V54.9z"/>
		<path fill="#FFFFFF" d="M20.3,54.9h-3c0,0-0.1,0-0.1-0.1v-0.2c0,0,0-0.1,0.1-0.1h3c0,0,0.1,0,0.1,0.1v0.2
			C20.4,54.9,20.3,54.9,20.3,54.9z M17.3,54.7C17.2,54.7,17.2,54.7,17.3,54.7l0,0.2c0,0,0,0,0,0h3c0,0,0,0,0,0v-0.2l0,0H17.3z"/>
	</g>
</g>
<g>
	
		<text transform="matrix(-1.346898e-10 -1 1 -1.346898e-10 8.3737 68.7898)" fill="#FFFFFF" font-family="'Helvetica-Light'" font-size="2.5374">IP AutoSwitch</text>
	<g>
		<rect x="10.2" y="63.2" fill="#B5C0C9" width="0.6" height="1.1"/>
		<rect x="10.2" y="63.2" fill="none" stroke="#FFFFFF" stroke-width="0.15" stroke-miterlimit="10" width="0.6" height="1.1"/>
		<rect x="10.2" y="68.5" fill="#B5C0C9" width="0.6" height="1.1"/>
		<rect x="10.2" y="68.5" fill="none" stroke="#FFFFFF" stroke-width="0.15" stroke-miterlimit="10" width="0.6" height="1.1"/>
		<path fill="#B5C0C9" d="M12.1,64.3L12,64.1V64c0,0-0.2,0-0.3,0s-0.3,0-0.3,0v0.1l-0.2,0.3L12.1,64.3z"/>
		<path fill="#FFFFFF" d="M11.2,64.4l0.2-0.3V64h0c0,0,0.2,0,0.3,0c0.1,0,0.3,0,0.3,0h0v0.1l0.2,0.3L11.2,64.4z M11.5,64L11.5,64
			l-0.1,0.3l0.8,0L12,64.1V64c0,0-0.2,0-0.3,0C11.6,64,11.5,64,11.5,64z"/>
		<rect x="9.5" y="64.4" fill="#B5C0C9" width="3.1" height="4.2"/>
		<path fill="#FFFFFF" d="M12.6,68.6H9.5v-4.3h3.2C12.6,64.4,12.6,68.6,12.6,68.6z M9.6,68.6h3v-4.1h-3V68.6z"/>
		<path fill="#B5C0C9" d="M9.5,64.5C9.5,64.5,9.5,64.6,9.5,64.5l3.1,0.1c0,0,0.1,0,0.1-0.1v-0.2c0,0,0-0.1-0.1-0.1h-3
			c0,0-0.1,0-0.1,0.1V64.5z"/>
		<path fill="#FFFFFF" d="M12.6,64.6h-3c0,0-0.1,0-0.1-0.1v-0.2c0,0,0-0.1,0.1-0.1h3c0,0,0.1,0,0.1,0.1v0.2
			C12.7,64.5,12.6,64.6,12.6,64.6z M9.6,64.3C9.5,64.3,9.5,64.3,9.6,64.3l0,0.2c0,0,0,0,0,0h3c0,0,0,0,0,0v-0.2l0,0H9.6z"/>
		<path fill="#B5C0C9" d="M9.5,68.7C9.5,68.8,9.5,68.8,9.5,68.7l3.1,0.1c0,0,0.1,0,0.1-0.1v-0.2c0,0,0-0.1-0.1-0.1h-3
			c0,0-0.1,0-0.1,0.1V68.7z"/>
		<path fill="#FFFFFF" d="M12.6,68.8h-3c0,0-0.1,0-0.1-0.1v-0.2c0,0,0-0.1,0.1-0.1h3c0,0,0.1,0,0.1,0.1v0.2
			C12.7,68.8,12.6,68.8,12.6,68.8z M9.6,68.6C9.5,68.6,9.5,68.6,9.6,68.6l0,0.2c0,0,0,0,0,0h3c0,0,0,0,0,0v-0.2l0,0H9.6z"/>
	</g>
</g>
<g>
	<path fill="#B5C0C9" d="M53.6,49H71c0.1-0.8,0.4-2.2,0.4-2.8c0-0.8-0.1-3.5-0.1-3.5H53.6h-0.3H35.7c0,0-0.1,2.7-0.1,3.5
		c0,0.6,0.3,2.1,0.4,2.8h17.4H53.6z"/>
	<path fill="#B5C0C9" d="M71,49h-35c0,0,0,0,0,0c-0.3-1.4-0.4-2.4-0.4-2.8c0-0.8,0.1-3.5,0.1-3.5c0,0,0,0,0,0h35.5c0,0,0,0,0,0
		c0,0,0.1,2.7,0.1,3.5C71.3,46.6,71.2,47.6,71,49C71,49,71,49,71,49z M35.9,49h35c0.3-1.4,0.4-2.4,0.4-2.8c0-0.8-0.1-3.2-0.1-3.5
		H35.7c0,0.3-0.1,2.7-0.1,3.5C35.6,46.6,35.7,47.5,35.9,49z"/>
	<path fill="#8A9AA5" d="M41.5,42.7c0,0,2.5,5.7,2.8,6.1h18.4c0,0,2.2-4.5,2.8-6.2L41.5,42.7z"/>
	<path fill="#231F20" d="M61.9,49H41.6c0,0,0,0,0,0c0,0,0,0,0,0L61.9,49C61.9,49,61.9,49,61.9,49C61.9,49,61.9,49,61.9,49z"/>
	<g>
		<g>
			<g>
				<path fill="#8A9AA5" d="M67.4,45.8c0,0.2-0.3,0.3-0.5,0.3s-0.5-0.1-0.5-0.3s0.3-0.3,0.5-0.3C67.1,45.5,67.4,45.7,67.4,45.8z"/>
				<path fill="#8A9AA5" d="M70.5,45.8c0,0.2-0.3,0.3-0.5,0.3c-0.3,0-0.5-0.1-0.5-0.3s0.3-0.3,0.5-0.3
					C70.2,45.5,70.5,45.7,70.5,45.8z"/>
			</g>
			<g>
				<path fill="#8A9AA5" d="M68.4,46.8c0.2,0,0.3,0.3,0.3,0.5c0,0.3-0.1,0.5-0.3,0.5c-0.2,0-0.3-0.3-0.3-0.5
					C68.1,47.1,68.2,46.8,68.4,46.8z"/>
				<path fill="#8A9AA5" d="M68.4,43.7c0.2,0,0.3,0.3,0.3,0.5c0,0.3-0.1,0.5-0.3,0.5c-0.2,0-0.3-0.3-0.3-0.5
					C68.1,43.9,68.2,43.7,68.4,43.7z"/>
			</g>
		</g>
		<path fill="#8A9AA5" d="M69,45.8c0,0.3-0.3,0.6-0.6,0.6c-0.3,0-0.6-0.3-0.6-0.6s0.3-0.6,0.6-0.6C68.7,45.2,69,45.5,69,45.8z"/>
	</g>
	<path fill="#FFFFFF" d="M71.2,49.1H35.9l0-0.1c-0.3-1.5-0.4-2.4-0.4-2.9c0-0.8,0.1-3.4,0.1-3.5v-0.2h35.8v0.2
		c0,0.1,0.1,2.7,0.1,3.5c0,0.4-0.1,1.4-0.4,2.9L71.2,49.1L71.2,49.1z M36.1,48.8h34.8c0.2-1.4,0.3-2.3,0.3-2.7
		c0-0.7-0.1-2.8-0.1-3.3H35.9c0,0.6-0.1,2.7-0.1,3.3C35.8,46.6,35.9,47.5,36.1,48.8z"/>
	<path fill="#8A9AA5" d="M37.1,47.1c0-0.1,0.1-0.2,0.3-0.2h4.1c0.2,0,0.3,0.1,0.3,0.2V48c0,0.1-0.1,0.2-0.3,0.2h-4.1
		c-0.2,0-0.3-0.1-0.3-0.2V47.1z"/>
</g>
<rect x="36.3" y="44.1" fill="none" width="34.3" height="4.4"/>
<g>
	<text transform="matrix(1 0 0 1 45.0597 47.0951)" fill="#0F1F30" font-family="'Helvetica-Light'" font-size="4.2291">Receiver</text>
</g>
<g>
	<text transform="matrix(1 0 0 1 42.2023 53.7207)" fill="#DEF93D" font-family="'Helvetica'" font-size="3.3833">Can Be Master</text>
</g>
</svg>
