<?xml version="1.0" encoding="utf-8"?>
<!-- Generator: Adobe Illustrator 18.1.1, SVG Export Plug-In . SVG Version: 6.00 Build 0)  -->
<svg version="1.1" id="Layer_1" xmlns="http://www.w3.org/2000/svg" xmlns:xlink="http://www.w3.org/1999/xlink" x="0px" y="0px"
	 viewBox="0 0 612 792" enable-background="new 0 0 612 792" xml:space="preserve">
<g>
	<polygon fill="#FFFFFF" points="387.5,441.4 300.8,441.4 300.8,338.4 298.8,338.4 298.8,443.4 387.5,443.4 	"/>
	<polygon fill="#FFFFFF" points="390,604.3 250.7,604.3 250.7,350.1 248.7,350.1 248.7,606.3 390,606.3 	"/>
	<polygon fill="#FFFFFF" points="406.2,549.4 266.9,549.4 266.9,352.3 264.9,352.3 264.9,551.4 406.2,551.4 	"/>
	<polygon fill="#FFFFFF" points="423.1,495.9 283.9,495.9 283.9,352.3 281.9,352.3 281.9,497.9 423.1,497.9 	"/>
	<polygon fill="#FFFFFF" points="204.2,288.5 233.9,288.5 233.9,251.3 231.9,251.3 231.9,286.5 204.2,286.5 	"/>
	<polygon fill="#FFFFFF" points="213.2,318.7 213.2,306.2 139.7,306.2 139.7,295.3 137.7,295.3 137.7,308.2 211.2,308.2 
		211.2,318.7 	"/>
	<polyline fill="#0CBC18" points="197.3,364.6 197.3,386.3 199.3,386.3 199.3,364.6 	"/>
	<polygon fill="#0CBC18" points="192.7,382.1 198.3,384.5 203.8,382.1 198.3,395.3 	"/>
	<polyline fill="#0CBC18" points="214.2,364.6 214.2,386.3 216.2,386.3 216.2,364.6 	"/>
	<polygon fill="#0CBC18" points="209.7,382.1 215.2,384.5 220.8,382.1 215.2,395.3 	"/>
	<polyline fill="#0CBC18" points="231.6,364.6 231.6,386.3 233.6,386.3 233.6,364.6 	"/>
	<polygon fill="#0CBC18" points="227,382.1 232.6,384.5 238.1,382.1 232.6,395.3 	"/>
	<polyline fill="#FFFFFF" points="241.4,221 241.4,319.9 243.4,319.9 243.4,221 	"/>
	<path fill="#0CBC18" d="M153.1,405.5c0-2.9,0.8-5.1,2.3-6.7s3.5-2.4,5.9-2.4c1.6,0,3,0.4,4.3,1.1s2.2,1.8,2.9,3.2
		c0.7,1.4,1,2.9,1,4.6s-0.4,3.3-1.1,4.7s-1.7,2.4-3,3.1s-2.7,1.1-4.2,1.1c-1.6,0-3.1-0.4-4.3-1.2s-2.2-1.8-2.9-3.2
		S153.1,407,153.1,405.5z M155.5,405.6c0,2.1,0.6,3.7,1.7,4.9s2.5,1.8,4.2,1.8s3.1-0.6,4.2-1.8s1.7-2.9,1.7-5.1
		c0-1.4-0.2-2.6-0.7-3.7s-1.2-1.9-2.1-2.4c-0.9-0.5-1.9-0.9-3.1-0.9c-1.6,0-3,0.6-4.2,1.7S155.5,403,155.5,405.6z"/>
	<path fill="#0CBC18" d="M172.2,418.7v-17.2h1.9v1.6c0.5-0.6,1-1.1,1.5-1.4s1.3-0.5,2.1-0.5c1.1,0,2,0.3,2.8,0.8s1.4,1.3,1.8,2.3
		c0.4,1,0.6,2.1,0.6,3.3c0,1.3-0.2,2.4-0.7,3.4s-1.1,1.8-2,2.3s-1.8,0.8-2.7,0.8c-0.7,0-1.3-0.1-1.9-0.4s-1-0.7-1.4-1.1v6.1
		L172.2,418.7z M174.1,407.7c0,1.6,0.3,2.8,1,3.6c0.7,0.8,1.4,1.1,2.4,1.1c0.9,0,1.7-0.4,2.4-1.2c0.7-0.8,1-2,1-3.7
		c0-1.6-0.3-2.8-1-3.6c-0.7-0.8-1.4-1.2-2.3-1.2c-0.9,0-1.7,0.4-2.4,1.3S174.1,406.1,174.1,407.7z"/>
	<path fill="#0CBC18" d="M190.2,412l0.3,1.9c-0.6,0.1-1.1,0.2-1.6,0.2c-0.8,0-1.4-0.1-1.8-0.4c-0.4-0.3-0.7-0.6-0.9-1
		s-0.3-1.2-0.3-2.5V403h-1.5v-1.6h1.5v-3.1l2.1-1.3v4.3h2.1v1.6H188v7.3c0,0.6,0,1,0.1,1.2s0.2,0.3,0.4,0.4s0.4,0.2,0.7,0.2
		C189.5,412.1,189.8,412.1,190.2,412z"/>
	<path fill="#0CBC18" d="M192.3,399.1v-2.4h2.1v2.4H192.3z M192.3,413.9v-12.4h2.1v12.4H192.3z"/>
	<path fill="#0CBC18" d="M196.8,407.7c0-2.3,0.6-4,1.9-5.1c1.1-0.9,2.4-1.4,3.9-1.4c1.7,0,3.1,0.6,4.2,1.7c1.1,1.1,1.6,2.7,1.6,4.6
		c0,1.6-0.2,2.9-0.7,3.8s-1.2,1.6-2.1,2.1c-0.9,0.5-1.9,0.8-3,0.8c-1.7,0-3.2-0.6-4.2-1.7S196.8,409.8,196.8,407.7z M199,407.7
		c0,1.6,0.3,2.8,1,3.6c0.7,0.8,1.6,1.2,2.6,1.2s1.9-0.4,2.6-1.2s1-2,1-3.6c0-1.5-0.3-2.7-1-3.5s-1.6-1.2-2.6-1.2
		c-1.1,0-1.9,0.4-2.6,1.2S199,406.1,199,407.7z"/>
	<path fill="#0CBC18" d="M210.9,413.9v-12.4h1.9v1.8c0.9-1.4,2.2-2.1,4-2.1c0.8,0,1.4,0.1,2.1,0.4s1.1,0.6,1.4,1.1s0.5,1,0.7,1.6
		c0.1,0.4,0.1,1.1,0.1,2.1v7.7H219v-7.6c0-0.9-0.1-1.5-0.2-1.9c-0.1-0.4-0.5-0.8-0.9-1s-0.9-0.4-1.5-0.4c-0.9,0-1.7,0.3-2.3,0.9
		s-1,1.7-1,3.2v6.8h-2.2L210.9,413.9L210.9,413.9z"/>
	<path fill="#0CBC18" d="M232.4,412.4c-0.8,0.7-1.5,1.1-2.3,1.4s-1.5,0.4-2.3,0.4c-1.4,0-2.4-0.3-3.2-1s-1.1-1.5-1.1-2.6
		c0-0.6,0.1-1.2,0.4-1.7s0.6-0.9,1.1-1.2s1-0.5,1.5-0.7c0.4-0.1,1-0.2,1.9-0.3c1.7-0.2,3-0.4,3.8-0.7c0-0.3,0-0.5,0-0.6
		c0-0.9-0.2-1.5-0.6-1.8c-0.5-0.5-1.3-0.7-2.4-0.7c-1,0-1.7,0.2-2.2,0.5s-0.8,1-1,1.8l-2.1-0.3c0.2-0.9,0.5-1.6,0.9-2.1
		s1.1-1,1.9-1.3s1.8-0.4,2.8-0.4c1.1,0,1.9,0.1,2.6,0.4s1.2,0.6,1.5,0.9s0.5,0.9,0.7,1.4c0.1,0.4,0.1,1,0.1,1.9v2.8
		c0,2,0,3.2,0.1,3.7s0.3,1,0.5,1.5h-2.2C232.6,413.5,232.5,412.9,232.4,412.4z M232.2,407.6c-0.8,0.3-1.9,0.6-3.4,0.8
		c-0.9,0.1-1.5,0.3-1.8,0.4s-0.6,0.4-0.8,0.7c-0.2,0.3-0.3,0.6-0.3,1c0,0.6,0.2,1,0.6,1.4c0.4,0.4,1,0.6,1.9,0.6
		c0.8,0,1.5-0.2,2.2-0.5s1.1-0.8,1.4-1.5c0.2-0.5,0.3-1.2,0.3-2.1L232.2,407.6z"/>
	<rect x="237.6" y="396.7" fill="#0CBC18" width="2.1" height="17.2"/>
	<path fill="#FFFFFF" d="M177,273.2l-0.4-40.8c0,0,0-2.8-2.5-2.8s-2.5,2.8-2.5,2.8l-0.4,40.8H177z"/>
	<path fill="#B5C0C9" d="M132.9,297.9h73.4v-20.3c0,0,0.5-2.7-7.9-3.4c0,0-25.9-2.8-65.3-3.3h-0.5c-39.4,0.5-65.3,3.3-65.3,3.3
		c-8.3,0.8-7.9,3.4-7.9,3.4v20.3H132.9z"/>
	<path fill="#FFFFFF" d="M132.9,297.9v1h74.4v-21.3h-1l1,0.2c0-0.1,0-0.1,0-0.3c0-0.3-0.1-0.7-0.3-1.1c-0.4-0.7-1.1-1.4-2.4-1.9
		c-1.3-0.6-3.2-1-6.1-1.3l-0.1,1l0.1-1c0,0-26-2.8-65.4-3.3l0,0h-0.5h0l0,0c-39.4,0.5-65.4,3.3-65.4,3.3l0.1,1l-0.1-1
		c-3.9,0.4-6,1.1-7.3,2c-0.6,0.4-1,0.9-1.3,1.3c-0.2,0.4-0.3,0.8-0.3,1.1c0,0.1,0,0.2,0,0.2l1-0.2h-1v21.3h74.5V297.9v-1H60.4v-19.4
		l0-0.1l-0.6,0.1h0.6l0-0.1l-0.6,0.1h0.6h-0.2l0.2,0l0,0h-0.2l0.2,0c0,0,0-0.1,0.1-0.2c0.1-0.2,0.5-0.6,1.6-1.1
		c1-0.4,2.7-0.9,5.3-1.1l0,0l0,0c0,0,0.4,0,1.2-0.1c5.5-0.5,29.6-2.7,64-3.2l0-1v1h0.5v-1l0,1c19.7,0.2,36,1.1,47.4,1.8
		c5.7,0.4,10.2,0.7,13.2,1c1.5,0.1,2.7,0.2,3.5,0.3c0.8,0.1,1.2,0.1,1.2,0.1l0,0l0,0c3.7,0.3,5.5,1,6.3,1.6c0.4,0.3,0.6,0.5,0.6,0.6
		l0.1,0.1l0,0l0,0h0l0,0l0,0h0h0.5l-0.5-0.1l0,0.1h0.5l-0.5-0.1l0,0.1v19.4l-72.4,0V297.9z"/>
	<polygon points="98.4,293.7 98.4,278.5 92.7,278.5 92.7,276.5 106.4,276.5 106.4,278.5 100.7,278.5 100.7,293.7 	"/>
	<path d="M113.6,293.7l-6.7-17.2h2.5l4.5,12.5c0.4,1,0.7,1.9,0.9,2.8c0.3-0.9,0.6-1.9,0.9-2.8l4.6-12.5h2.3l-6.7,17.2H113.6z"/>
	<rect x="122.3" y="286.5" width="6.5" height="2.1"/>
	<polygon points="131.4,293.7 131.4,276.5 133.7,276.5 133.7,283.6 142.6,283.6 142.6,276.5 144.9,276.5 144.9,293.7 142.6,293.7 
		142.6,285.6 133.7,285.6 133.7,293.7 	"/>
	<path d="M156.6,293.7v-1.8c-1,1.4-2.3,2.1-3.9,2.1c-0.7,0-1.4-0.1-2.1-0.4c-0.7-0.3-1.1-0.6-1.4-1.1s-0.5-0.9-0.7-1.6
		c-0.1-0.4-0.1-1.1-0.1-2v-7.7h2.1v6.9c0,1.1,0,1.8,0.1,2.2c0.1,0.6,0.4,1,0.8,1.3c0.4,0.3,1,0.5,1.6,0.5s1.2-0.2,1.8-0.5
		s0.9-0.8,1.2-1.3s0.3-1.4,0.3-2.4v-6.7h2.1v12.4h-1.8L156.6,293.7L156.6,293.7z"/>
	<path d="M163.7,293.7h-2v-17.2h2.1v6.1c0.9-1.1,2-1.7,3.4-1.7c0.8,0,1.5,0.2,2.2,0.5s1.2,0.7,1.7,1.3s0.8,1.2,1,2s0.4,1.6,0.4,2.5
		c0,2.1-0.5,3.8-1.6,4.9s-2.3,1.7-3.8,1.7s-2.6-0.6-3.5-1.8v1.7H163.7z M163.7,287.4c0,1.5,0.2,2.6,0.6,3.2c0.7,1.1,1.6,1.6,2.7,1.6
		c0.9,0,1.7-0.4,2.4-1.2c0.7-0.8,1-2,1-3.6s-0.3-2.8-1-3.6c-0.7-0.8-1.4-1.2-2.3-1.2c-0.9,0-1.7,0.4-2.4,1.2
		S163.7,285.9,163.7,287.4z"/>
	<path fill="#B5C0C9" d="M469.1,511.2h80.8c0.6-3.8,1.8-11.1,1.8-14.1c0-4-0.7-15.3-0.7-15.3h-82h-1.2h-81c0,0-0.7,11.3-0.7,15.3
		c0,2.9,1.2,10.3,1.8,14.1h79.8H469.1z"/>
	<path fill="#FFFFFF" d="M469.1,511.2v1h81.7l0.1-0.8c0.3-1.9,0.8-4.7,1.1-7.4c0.4-2.7,0.7-5.3,0.7-6.9c0-2-0.2-5.9-0.4-9.2
		c-0.2-3.3-0.4-6.2-0.4-6.2l-0.1-0.9H469h-1.2h-81.9l-0.1,0.9c0,0-0.2,2.8-0.4,6.2c-0.2,3.3-0.4,7.2-0.4,9.2c0,1.6,0.3,4.1,0.7,6.9
		c0.4,2.7,0.8,5.5,1.1,7.4l0.1,0.8h80.7h1.4V511.2v-1h-1.4h-79.8v1l1-0.2c-0.3-1.9-0.7-4.7-1.1-7.4c-0.4-2.7-0.7-5.2-0.7-6.6
		c0-2,0.2-5.8,0.3-9.1c0.1-1.7,0.2-3.2,0.2-4.3c0.1-1.1,0.1-1.8,0.1-1.8l-1-0.1v1h81h1.2h82v-1l-1,0.1c0,0,0,0.7,0.1,1.8
		c0.2,3.4,0.6,10.5,0.6,13.4c0,1.4-0.3,4-0.7,6.6c-0.4,2.7-0.8,5.4-1.1,7.3l1,0.2v-1h-80.8V511.2z"/>
	<path fill="#0F1F30" d="M423.3,505.1v-17.2h7.6c1.5,0,2.7,0.2,3.5,0.5s1.4,0.9,1.9,1.6s0.7,1.6,0.7,2.6c0,1.2-0.4,2.2-1.2,3.1
		c-0.8,0.8-2,1.4-3.7,1.6c0.6,0.3,1.1,0.6,1.4,0.9c0.7,0.6,1.3,1.4,1.9,2.3l3,4.7h-2.9l-2.3-3.6c-0.7-1-1.2-1.8-1.6-2.4
		s-0.8-0.9-1.2-1.1s-0.7-0.4-1-0.5s-0.7-0.1-1.3-0.1h-2.6v7.6H423.3z M425.5,495.5h4.9c1,0,1.9-0.1,2.4-0.3c0.6-0.2,1-0.6,1.3-1
		s0.5-1,0.5-1.5c0-0.8-0.3-1.5-0.9-2s-1.5-0.8-2.8-0.8h-5.4V495.5z"/>
	<path fill="#0F1F30" d="M448.8,501.1l2.2,0.3c-0.3,1.3-1,2.3-1.9,3s-2.1,1.1-3.6,1.1c-1.8,0-3.3-0.6-4.3-1.7s-1.6-2.7-1.6-4.7
		c0-2.1,0.5-3.7,1.6-4.9c1.1-1.2,2.5-1.7,4.2-1.7s3,0.6,4.1,1.7s1.6,2.7,1.6,4.8c0,0.1,0,0.3,0,0.6h-9.3c0.1,1.4,0.5,2.4,1.2,3.1
		s1.6,1.1,2.6,1.1c0.8,0,1.4-0.2,2-0.6S448.5,502,448.8,501.1z M441.9,497.7h6.9c-0.1-1-0.4-1.8-0.8-2.4c-0.7-0.8-1.5-1.2-2.6-1.2
		c-1,0-1.8,0.3-2.4,1C442.3,495.7,441.9,496.6,441.9,497.7z"/>
	<path fill="#0F1F30" d="M461.8,500.5l2.1,0.3c-0.2,1.4-0.8,2.5-1.7,3.4s-2.1,1.2-3.4,1.2c-1.7,0-3.1-0.6-4.1-1.7s-1.6-2.7-1.6-4.8
		c0-1.3,0.2-2.5,0.7-3.5c0.4-1,1.1-1.8,2-2.3s1.9-0.8,3-0.8c1.4,0,2.5,0.3,3.3,1s1.4,1.7,1.7,2.9l-2.1,0.3c-0.2-0.8-0.5-1.5-1-1.9
		s-1.1-0.6-1.8-0.6c-1.1,0-1.9,0.4-2.6,1.1c-0.7,0.8-1,2-1,3.6c0,1.7,0.3,2.9,1,3.6s1.5,1.1,2.5,1.1c0.8,0,1.5-0.3,2.1-0.8
		S461.6,501.6,461.8,500.5z"/>
	<path fill="#0F1F30" d="M474.2,501.1l2.2,0.3c-0.3,1.3-1,2.3-1.9,3s-2.1,1.1-3.6,1.1c-1.8,0-3.3-0.6-4.3-1.7s-1.6-2.7-1.6-4.7
		c0-2.1,0.5-3.7,1.6-4.9c1.1-1.2,2.5-1.7,4.2-1.7s3,0.6,4.1,1.7s1.6,2.7,1.6,4.8c0,0.1,0,0.3,0,0.6h-9.3c0.1,1.4,0.5,2.4,1.2,3.1
		s1.6,1.1,2.6,1.1c0.8,0,1.4-0.2,2-0.6S473.8,502,474.2,501.1z M467.2,497.7h6.9c-0.1-1-0.4-1.8-0.8-2.4c-0.7-0.8-1.5-1.2-2.6-1.2
		c-1,0-1.8,0.3-2.4,1C467.7,495.7,467.3,496.6,467.2,497.7z"/>
	<path fill="#0F1F30" d="M479,490.3v-2.4h2.1v2.4H479z M479,505.1v-12.4h2.1v12.4H479z"/>
	<path fill="#0F1F30" d="M487.8,505.1l-4.7-12.4h2.2l2.7,7.5c0.3,0.8,0.6,1.6,0.8,2.5c0.2-0.7,0.4-1.4,0.8-2.4l2.8-7.6h2.2
		l-4.7,12.4H487.8z"/>
	<path fill="#0F1F30" d="M504.8,501.1l2.2,0.3c-0.3,1.3-1,2.3-1.9,3s-2.1,1.1-3.6,1.1c-1.8,0-3.3-0.6-4.3-1.7s-1.6-2.7-1.6-4.7
		c0-2.1,0.5-3.7,1.6-4.9c1.1-1.2,2.5-1.7,4.2-1.7s3,0.6,4.1,1.7s1.6,2.7,1.6,4.8c0,0.1,0,0.3,0,0.6h-9.3c0.1,1.4,0.5,2.4,1.2,3.1
		s1.6,1.1,2.6,1.1c0.8,0,1.4-0.2,2-0.6S504.5,502,504.8,501.1z M497.9,497.7h6.9c-0.1-1-0.4-1.8-0.8-2.4c-0.7-0.8-1.5-1.2-2.6-1.2
		c-1,0-1.8,0.3-2.4,1C498.3,495.7,498,496.6,497.9,497.7z"/>
	<path fill="#0F1F30" d="M509.6,505.1v-12.4h1.9v1.9c0.5-0.9,0.9-1.5,1.3-1.7s0.9-0.4,1.4-0.4c0.7,0,1.4,0.2,2.2,0.7l-0.7,2
		c-0.5-0.3-1-0.5-1.5-0.5s-0.9,0.1-1.2,0.4c-0.4,0.3-0.6,0.7-0.8,1.2c-0.2,0.8-0.4,1.6-0.4,2.5v6.5h-2.2V505.1z"/>
	<path fill="#8A9AA5" d="M530,496.7c0,1-1,1.7-2.3,1.7s-2.3-0.8-2.3-1.7c0-1,1-1.7,2.3-1.7S530,495.8,530,496.7z"/>
	<path fill="#8A9AA5" d="M541.5,496.7c0-1,1-1.7,2.3-1.7s2.3,0.8,2.3,1.7c0,1-1,1.7-2.3,1.7C542.5,498.5,541.5,497.7,541.5,496.7z"
		/>
	<path fill="#8A9AA5" d="M536.1,492.7c-1,0-1.7-1-1.7-2.3s0.8-2.3,1.7-2.3s1.7,1,1.7,2.3C537.9,491.7,537.1,492.7,536.1,492.7z"/>
	<path fill="#8A9AA5" d="M535.8,501.1c1,0,1.7,1,1.7,2.3s-0.8,2.3-1.7,2.3c-1,0-1.7-1-1.7-2.3C534,502.2,534.8,501.1,535.8,501.1z"
		/>
	<path fill="#8A9AA5" d="M538.3,497.1c0,1.4-1.1,2.5-2.5,2.5s-2.5-1.1-2.5-2.5s1.1-2.5,2.5-2.5S538.3,495.7,538.3,497.1z"/>
	<path fill="#8A9AA5" d="M391.8,502.2c0-0.6,0.7-1.1,1.5-1.1h20c0.8,0,1.5,0.5,1.5,1.1v3.9c0,0.6-0.7,1.1-1.5,1.1h-20
		c-0.8,0-1.5-0.5-1.5-1.1V502.2z"/>
	<path fill="#B5C0C9" d="M469.1,565.1h80.8c0.6-3.8,1.8-11.1,1.8-14.1c0-4-0.7-15.3-0.7-15.3h-82h-1.2h-81c0,0-0.7,11.3-0.7,15.3
		c0,2.9,1.2,10.3,1.8,14.1h79.8H469.1z"/>
	<path fill="#FFFFFF" d="M469.1,565.1v1h81.7l0.1-0.8c0.3-1.9,0.8-4.7,1.1-7.4c0.4-2.7,0.7-5.3,0.7-6.9c0-2-0.2-5.9-0.4-9.2
		c-0.2-3.3-0.4-6.2-0.4-6.2l-0.1-0.9H469h-1.2h-81.9l-0.1,0.9c0,0-0.2,2.8-0.4,6.2c-0.2,3.3-0.4,7.2-0.4,9.2c0,1.6,0.3,4.1,0.7,6.9
		c0.4,2.7,0.8,5.5,1.1,7.4l0.1,0.8h80.7h1.4V565.1v-1h-1.4h-79.8v1l1-0.2c-0.3-1.9-0.7-4.7-1.1-7.4c-0.4-2.7-0.7-5.2-0.7-6.6
		c0-2,0.2-5.8,0.3-9.1c0.1-1.7,0.2-3.2,0.2-4.3c0.1-1.1,0.1-1.8,0.1-1.8l-1-0.1v1h81h1.2h82v-1l-1,0.1c0,0,0,0.7,0.1,1.8
		c0.2,3.4,0.6,10.5,0.6,13.4c0,1.4-0.3,4-0.7,6.6c-0.4,2.7-0.8,5.4-1.1,7.3l1,0.2v-1h-80.8V565.1z"/>
	<path fill="#0F1F30" d="M423.3,559v-17.2h7.6c1.5,0,2.7,0.2,3.5,0.5s1.4,0.9,1.9,1.6s0.7,1.6,0.7,2.6c0,1.2-0.4,2.2-1.2,3.1
		c-0.8,0.9-2,1.4-3.7,1.6c0.6,0.3,1.1,0.6,1.4,0.9c0.7,0.6,1.3,1.4,1.9,2.3l3,4.7h-2.9l-2.3-3.6c-0.7-1-1.2-1.8-1.6-2.4
		c-0.4-0.6-0.8-0.9-1.2-1.1s-0.7-0.4-1-0.5s-0.7-0.1-1.3-0.1h-2.6v7.6L423.3,559L423.3,559z M425.5,549.4h4.9c1,0,1.9-0.1,2.4-0.3
		s1-0.6,1.3-1s0.5-1,0.5-1.5c0-0.8-0.3-1.5-0.9-2s-1.5-0.8-2.8-0.8h-5.4V549.4z"/>
	<path fill="#0F1F30" d="M448.8,555l2.2,0.3c-0.3,1.3-1,2.3-1.9,3s-2.1,1.1-3.6,1.1c-1.8,0-3.3-0.6-4.3-1.7c-1-1.1-1.6-2.7-1.6-4.7
		c0-2.1,0.5-3.7,1.6-4.9s2.5-1.7,4.2-1.7s3,0.6,4.1,1.7c1.1,1.1,1.6,2.7,1.6,4.8c0,0.1,0,0.3,0,0.6h-9.3c0.1,1.4,0.5,2.4,1.2,3.1
		s1.6,1.1,2.6,1.1c0.8,0,1.4-0.2,2-0.6C448.2,556.7,448.5,555.8,448.8,555z M441.9,551.5h6.9c-0.1-1-0.4-1.8-0.8-2.4
		c-0.7-0.8-1.5-1.2-2.6-1.2c-1,0-1.8,0.3-2.4,1S441.9,550.5,441.9,551.5z"/>
	<path fill="#0F1F30" d="M461.8,554.4l2.1,0.3c-0.2,1.4-0.8,2.5-1.7,3.4c-0.9,0.9-2.1,1.2-3.4,1.2c-1.7,0-3.1-0.6-4.1-1.7
		c-1-1.1-1.6-2.7-1.6-4.8c0-1.3,0.2-2.5,0.7-3.5s1.1-1.8,2-2.3s1.9-0.8,3-0.8c1.4,0,2.5,0.3,3.3,1s1.4,1.7,1.7,2.9l-2.1,0.3
		c-0.2-0.8-0.5-1.5-1-1.9s-1.1-0.6-1.8-0.6c-1.1,0-1.9,0.4-2.6,1.1s-1,2-1,3.6c0,1.7,0.3,2.9,1,3.6s1.5,1.1,2.5,1.1
		c0.8,0,1.5-0.3,2.1-0.8S461.6,555.5,461.8,554.4z"/>
	<path fill="#0F1F30" d="M474.2,555l2.2,0.3c-0.3,1.3-1,2.3-1.9,3s-2.1,1.1-3.6,1.1c-1.8,0-3.3-0.6-4.3-1.7c-1-1.1-1.6-2.7-1.6-4.7
		c0-2.1,0.5-3.7,1.6-4.9s2.5-1.7,4.2-1.7s3,0.6,4.1,1.7c1.1,1.1,1.6,2.7,1.6,4.8c0,0.1,0,0.3,0,0.6h-9.3c0.1,1.4,0.5,2.4,1.2,3.1
		s1.6,1.1,2.6,1.1c0.8,0,1.4-0.2,2-0.6C473.6,556.7,473.8,555.8,474.2,555z M467.2,551.5h6.9c-0.1-1-0.4-1.8-0.8-2.4
		c-0.7-0.8-1.5-1.2-2.6-1.2c-1,0-1.8,0.3-2.4,1S467.3,550.5,467.2,551.5z"/>
	<path fill="#0F1F30" d="M479,544.2v-2.4h2.1v2.4H479z M479,559v-12.4h2.1V559H479z"/>
	<path fill="#0F1F30" d="M487.8,559l-4.7-12.4h2.2l2.7,7.5c0.3,0.8,0.6,1.6,0.8,2.5c0.2-0.7,0.4-1.4,0.8-2.4l2.8-7.6h2.2l-4.7,12.4
		H487.8z"/>
	<path fill="#0F1F30" d="M504.8,555l2.2,0.3c-0.3,1.3-1,2.3-1.9,3s-2.1,1.1-3.6,1.1c-1.8,0-3.3-0.6-4.3-1.7c-1-1.1-1.6-2.7-1.6-4.7
		c0-2.1,0.5-3.7,1.6-4.9s2.5-1.7,4.2-1.7s3,0.6,4.1,1.7c1.1,1.1,1.6,2.7,1.6,4.8c0,0.1,0,0.3,0,0.6h-9.3c0.1,1.4,0.5,2.4,1.2,3.1
		s1.6,1.1,2.6,1.1c0.8,0,1.4-0.2,2-0.6C504.2,556.7,504.5,555.8,504.8,555z M497.9,551.5h6.9c-0.1-1-0.4-1.8-0.8-2.4
		c-0.7-0.8-1.5-1.2-2.6-1.2c-1,0-1.8,0.3-2.4,1S498,550.5,497.9,551.5z"/>
	<path fill="#0F1F30" d="M509.6,559v-12.4h1.9v1.9c0.5-0.9,0.9-1.5,1.3-1.7s0.9-0.4,1.4-0.4c0.7,0,1.4,0.2,2.2,0.7l-0.7,2
		c-0.5-0.3-1-0.5-1.5-0.5s-0.9,0.1-1.2,0.4s-0.6,0.7-0.8,1.2c-0.2,0.8-0.4,1.6-0.4,2.5v6.5h-2.2V559z"/>
	<path fill="#8A9AA5" d="M530,550.6c0,1-1,1.7-2.3,1.7s-2.3-0.8-2.3-1.7c0-1,1-1.7,2.3-1.7S530,549.7,530,550.6z"/>
	<path fill="#8A9AA5" d="M541.5,550.6c0-1,1-1.7,2.3-1.7s2.3,0.8,2.3,1.7c0,1-1,1.7-2.3,1.7S541.5,551.6,541.5,550.6z"/>
	<path fill="#8A9AA5" d="M536.1,546.6c-1,0-1.7-1-1.7-2.3s0.8-2.3,1.7-2.3s1.7,1,1.7,2.3C537.9,545.6,537.1,546.6,536.1,546.6z"/>
	<path fill="#8A9AA5" d="M535.8,555c1,0,1.7,1,1.7,2.3s-0.8,2.3-1.7,2.3c-1,0-1.7-1-1.7-2.3C534,556,534.8,555,535.8,555z"/>
	<path fill="#8A9AA5" d="M538.3,550.9c0,1.4-1.1,2.5-2.5,2.5s-2.5-1.1-2.5-2.5s1.1-2.5,2.5-2.5C537.2,548.5,538.3,549.6,538.3,550.9
		z"/>
	<path fill="#8A9AA5" d="M391.8,556c0-0.6,0.7-1.1,1.5-1.1h20c0.8,0,1.5,0.5,1.5,1.1v3.9c0,0.6-0.7,1.1-1.5,1.1h-20
		c-0.8,0-1.5-0.5-1.5-1.1V556z"/>
	<path fill="#B5C0C9" d="M469.1,618.9h80.8c0.6-3.8,1.8-11.1,1.8-14.1c0-4-0.7-15.3-0.7-15.3h-82h-1.2h-81c0,0-0.7,11.3-0.7,15.3
		c0,2.9,1.2,10.3,1.8,14.1h79.8H469.1z"/>
	<path fill="#FFFFFF" d="M469.1,618.9v1h81.7l0.1-0.8c0.3-1.9,0.8-4.7,1.1-7.4c0.4-2.7,0.7-5.3,0.7-6.9c0-2-0.2-5.9-0.4-9.2
		c-0.2-3.3-0.4-6.2-0.4-6.2l-0.1-0.9H469h-1.2h-81.9l-0.1,0.9c0,0-0.2,2.8-0.4,6.2c-0.2,3.3-0.4,7.2-0.4,9.2c0,1.6,0.3,4.1,0.7,6.9
		c0.4,2.7,0.8,5.5,1.1,7.4l0.1,0.8h80.7h1.4V618.9v-1h-1.4h-79.8v1l1-0.2c-0.3-1.9-0.7-4.7-1.1-7.4c-0.4-2.7-0.7-5.2-0.7-6.6
		c0-2,0.2-5.8,0.3-9.1c0.1-1.7,0.2-3.2,0.2-4.3c0.1-1.1,0.1-1.8,0.1-1.8l-1-0.1v1h81h1.2h82v-1l-1,0.1c0,0,0,0.7,0.1,1.8
		c0.2,3.4,0.6,10.5,0.6,13.4c0,1.4-0.3,4-0.7,6.6c-0.4,2.7-0.8,5.4-1.1,7.3l1,0.2v-1h-80.8V618.9z"/>
	<path fill="#0F1F30" d="M423.3,612.8v-17.2h7.6c1.5,0,2.7,0.2,3.5,0.5s1.4,0.9,1.9,1.6s0.7,1.6,0.7,2.6c0,1.2-0.4,2.2-1.2,3.1
		s-2,1.4-3.7,1.6c0.6,0.3,1.1,0.6,1.4,0.9c0.7,0.6,1.3,1.4,1.9,2.3l3,4.7h-2.9l-2.3-3.6c-0.7-1-1.2-1.8-1.6-2.4s-0.8-0.9-1.2-1.1
		s-0.7-0.4-1-0.5s-0.7-0.1-1.3-0.1h-2.6v7.6L423.3,612.8z M425.5,603.2h4.9c1,0,1.9-0.1,2.4-0.3s1-0.6,1.3-1s0.5-1,0.5-1.5
		c0-0.8-0.3-1.5-0.9-2s-1.5-0.8-2.8-0.8h-5.4V603.2z"/>
	<path fill="#0F1F30" d="M448.8,608.8l2.2,0.3c-0.3,1.3-1,2.3-1.9,3s-2.1,1.1-3.6,1.1c-1.8,0-3.3-0.6-4.3-1.7s-1.6-2.7-1.6-4.7
		c0-2.1,0.5-3.7,1.6-4.9s2.5-1.7,4.2-1.7s3,0.6,4.1,1.7s1.6,2.7,1.6,4.8c0,0.1,0,0.3,0,0.6h-9.3c0.1,1.4,0.5,2.4,1.2,3.1
		s1.6,1.1,2.6,1.1c0.8,0,1.4-0.2,2-0.6S448.5,609.6,448.8,608.8z M441.9,605.3h6.9c-0.1-1-0.4-1.8-0.8-2.4c-0.7-0.8-1.5-1.2-2.6-1.2
		c-1,0-1.8,0.3-2.4,1S441.9,604.3,441.9,605.3z"/>
	<path fill="#0F1F30" d="M461.8,608.2l2.1,0.3c-0.2,1.4-0.8,2.5-1.7,3.4s-2.1,1.2-3.4,1.2c-1.7,0-3.1-0.6-4.1-1.7s-1.6-2.7-1.6-4.8
		c0-1.3,0.2-2.5,0.7-3.5s1.1-1.8,2-2.3s1.9-0.8,3-0.8c1.4,0,2.5,0.3,3.3,1s1.4,1.7,1.7,2.9l-2.1,0.3c-0.2-0.8-0.5-1.5-1-1.9
		s-1.1-0.6-1.8-0.6c-1.1,0-1.9,0.4-2.6,1.1s-1,2-1,3.6c0,1.7,0.3,2.9,1,3.6s1.5,1.1,2.5,1.1c0.8,0,1.5-0.3,2.1-0.8
		S461.6,609.3,461.8,608.2z"/>
	<path fill="#0F1F30" d="M474.2,608.8l2.2,0.3c-0.3,1.3-1,2.3-1.9,3s-2.1,1.1-3.6,1.1c-1.8,0-3.3-0.6-4.3-1.7s-1.6-2.7-1.6-4.7
		c0-2.1,0.5-3.7,1.6-4.9s2.5-1.7,4.2-1.7s3,0.6,4.1,1.7s1.6,2.7,1.6,4.8c0,0.1,0,0.3,0,0.6h-9.3c0.1,1.4,0.5,2.4,1.2,3.1
		s1.6,1.1,2.6,1.1c0.8,0,1.4-0.2,2-0.6S473.8,609.6,474.2,608.8z M467.2,605.3h6.9c-0.1-1-0.4-1.8-0.8-2.4c-0.7-0.8-1.5-1.2-2.6-1.2
		c-1,0-1.8,0.3-2.4,1S467.3,604.3,467.2,605.3z"/>
	<path fill="#0F1F30" d="M479,598v-2.4h2.1v2.4H479z M479,612.8v-12.4h2.1v12.4H479z"/>
	<path fill="#0F1F30" d="M487.8,612.8l-4.7-12.4h2.2l2.7,7.5c0.3,0.8,0.6,1.6,0.8,2.5c0.2-0.7,0.4-1.4,0.8-2.4l2.8-7.6h2.2
		l-4.7,12.4H487.8z"/>
	<path fill="#0F1F30" d="M504.8,608.8l2.2,0.3c-0.3,1.3-1,2.3-1.9,3s-2.1,1.1-3.6,1.1c-1.8,0-3.3-0.6-4.3-1.7s-1.6-2.7-1.6-4.7
		c0-2.1,0.5-3.7,1.6-4.9s2.5-1.7,4.2-1.7s3,0.6,4.1,1.7s1.6,2.7,1.6,4.8c0,0.1,0,0.3,0,0.6h-9.3c0.1,1.4,0.5,2.4,1.2,3.1
		s1.6,1.1,2.6,1.1c0.8,0,1.4-0.2,2-0.6S504.5,609.6,504.8,608.8z M497.9,605.3h6.9c-0.1-1-0.4-1.8-0.8-2.4c-0.7-0.8-1.5-1.2-2.6-1.2
		c-1,0-1.8,0.3-2.4,1S498,604.3,497.9,605.3z"/>
	<path fill="#0F1F30" d="M509.6,612.8v-12.4h1.9v1.9c0.5-0.9,0.9-1.5,1.3-1.7s0.9-0.4,1.4-0.4c0.7,0,1.4,0.2,2.2,0.7l-0.7,2
		c-0.5-0.3-1-0.5-1.5-0.5s-0.9,0.1-1.2,0.4s-0.6,0.7-0.8,1.2c-0.2,0.8-0.4,1.6-0.4,2.5v6.5h-2.2V612.8z"/>
	<path fill="#8A9AA5" d="M530,604.4c0,1-1,1.7-2.3,1.7s-2.3-0.8-2.3-1.7c0-1,1-1.7,2.3-1.7S530,603.5,530,604.4z"/>
	<path fill="#8A9AA5" d="M541.5,604.4c0-1,1-1.7,2.3-1.7s2.3,0.8,2.3,1.7c0,1-1,1.7-2.3,1.7C542.5,606.2,541.5,605.4,541.5,604.4z"
		/>
	<path fill="#8A9AA5" d="M536.1,600.4c-1,0-1.7-1-1.7-2.3s0.8-2.3,1.7-2.3s1.7,1,1.7,2.3C537.9,599.4,537.1,600.4,536.1,600.4z"/>
	<path fill="#8A9AA5" d="M535.8,608.8c1,0,1.7,1,1.7,2.3s-0.8,2.3-1.7,2.3c-1,0-1.7-1-1.7-2.3C534,609.8,534.8,608.8,535.8,608.8z"
		/>
	<path fill="#8A9AA5" d="M538.3,604.7c0,1.4-1.1,2.5-2.5,2.5s-2.5-1.1-2.5-2.5s1.1-2.5,2.5-2.5C537.2,602.3,538.3,603.4,538.3,604.7
		z"/>
	<path fill="#8A9AA5" d="M391.8,609.8c0-0.6,0.7-1.1,1.5-1.1h20c0.8,0,1.5,0.5,1.5,1.1v3.9c0,0.6-0.7,1.1-1.5,1.1h-20
		c-0.8,0-1.5-0.5-1.5-1.1V609.8z"/>
	<polygon fill="#FFFFFF" points="251,255.5 251,298.5 271.7,298.5 271.7,336.2 273.7,336.2 273.7,296.5 253,296.5 253,255.5 	"/>
	<polygon fill="#FFFFFF" points="261.4,255.5 261.4,288.5 301.8,288.5 301.8,330.1 303.8,330.1 303.8,286.5 263.4,286.5 
		263.4,255.5 	"/>
	<path fill="#FFFFFF" d="M198.8,245.4v-8.7l1.3-42.3c8.7-42.3,47.1-41.4,47.1-41.4s39.1-2.2,47.8,41.4l1.5,42.3v8.7
		c-3.8,9.3-11.5,11-11.5,11h-74.7C210.2,256.5,202.2,253.7,198.8,245.4z"/>
	<path fill="#FFFFFF" d="M198.8,245.4h1v-8.7l1.3-42.3l-1,0l1,0.2c2.1-10,5.8-17.5,10.2-23.2c6.7-8.5,15.1-12.8,22.1-15.1
		c7-2.2,12.6-2.4,13.6-2.4l0.1,0l0,0l0.1,0l0,0c0.1,0,0.4,0,0.8,0c2.9,0,12.5,0.4,22.2,5.7c4.9,2.6,9.8,6.5,14,12.1
		c4.2,5.6,7.7,13,9.6,22.8l1-0.2l-1,0l1.5,42.3v8.7h1l-0.9-0.4c-1.8,4.4-4.5,7-6.8,8.5c-1.1,0.7-2.1,1.2-2.9,1.5
		c-0.4,0.1-0.7,0.2-0.8,0.3c-0.1,0-0.2,0-0.2,0.1l0,0l0,0l0.1,0.3l-0.1-0.3l0,0l0.1,0.3l-0.1-0.3l0.2,1v-1h-74.7
		c-0.3,0-0.5,0.1-0.7,0.3l0.7,0.7l-0.2-1c-0.1,0-0.3,0.1-0.5,0.3l0.7,0.7l-0.2-1l0.2,0.9v-1c0,0-0.1,0-0.2,0l0.2,0.9v-1v0.7l0.2-0.7
		c0,0,0,0-0.2,0v0.7l0.2-0.7l0,0c0,0-0.3-0.1-0.5-0.2c-1-0.4-2.9-1.3-4.8-3c-2-1.7-4-4-5.4-7.2L198.8,245.4h1H198.8l-0.9,0.4
		c1.8,4.3,4.7,7.2,7.2,9c1.3,0.9,2.4,1.5,3.3,2c0.4,0.2,0.8,0.4,1.1,0.5c0.1,0.1,0.3,0.1,0.4,0.1l0.2,0c0.1,0,0.1,0,0.3,0
		c0,0,0.1,0,0.2,0c0.1,0,0.3-0.1,0.5-0.3l-0.7-0.7v1H285l0.2,0c0.1,0,2.1-0.5,4.7-2.2c2.5-1.7,5.6-4.6,7.5-9.4
		c0.1-0.1,0.1-0.2,0.1-0.4v-8.7l0,0l-1.5-42.3l0-0.2c-2-10-5.6-17.7-10-23.6c-6.6-8.8-14.9-13.5-22.2-15.9
		c-7.2-2.5-13.4-2.7-15.7-2.7c-0.6,0-1,0-1,0l0.1,1l0-1c0,0-0.1,0-0.2,0c-1.5,0-11.3,0.2-21.9,5.6c-5.3,2.7-10.7,6.7-15.4,12.6
		c-4.7,5.9-8.5,13.7-10.6,24l0,0.2l-1.3,42.3l0,0v8.7c0,0.1,0,0.3,0.1,0.4L198.8,245.4z"/>
	<path d="M198.8,237h97.7c0.1,0,0.3-0.1,0.3-0.3c0-0.1-0.1-0.3-0.3-0.3h-97.7c-0.1,0-0.3,0.1-0.3,0.3
		C198.6,236.8,198.7,237,198.8,237"/>
	<path fill="#FFFFFF" d="M296.5,235.2h-97.7c-0.8,0-1.5,0.7-1.5,1.5c0,0.8,0.7,1.5,1.5,1.5h97.7c0.8,0,1.5-0.7,1.5-1.5
		C298,235.9,297.3,235.2,296.5,235.2"/>
	<path fill="#B5C0C9" d="M198.8,237v8.7c2.9,7.6,11.6,10.7,11.6,10.7h75c7.2-1.5,11.1-10.7,11.1-10.7V237H198.8z"/>
	<path fill="#FFFFFF" d="M198.8,237h-1v8.9l0.1,0.2c1.6,4.1,4.6,6.9,7.3,8.7c2.6,1.8,4.9,2.6,4.9,2.6l0.2,0.1h75.3l0.1,0
		c2-0.4,3.7-1.4,5.2-2.5c2.2-1.7,3.8-3.9,4.9-5.7c1.1-1.8,1.7-3.1,1.7-3.1l0.1-0.2V236h-99.7v1H198.8v1h96.7l0,7.7h1l-0.9-0.4l0,0
		c-0.1,0.2-1.1,2.5-2.9,4.8c-0.9,1.2-2,2.3-3.2,3.3c-1.3,1-2.7,1.7-4.2,2l0.2,1v-1h-75v1l0.3-0.9l0,0c-0.2-0.1-2.3-0.9-4.7-2.5
		c-2.4-1.7-5-4.2-6.3-7.6l-0.9,0.4h1V237H198.8v1V237z"/>
	<path fill="#293047" d="M202.9,216.3l6.6-17.2h2.4l7,17.2h-2.5l-2-5.2h-7.2l-1.9,5.2H202.9z M207.8,209.2h5.8l-1.8-4.8
		c-0.5-1.4-1-2.6-1.2-3.6c-0.2,1.1-0.5,2.2-0.9,3.3L207.8,209.2z"/>
	<path fill="#293047" d="M220.5,216.3v-12.4h1.9v1.8c0.9-1.4,2.2-2.1,4-2.1c0.8,0,1.4,0.1,2.1,0.4s1.1,0.6,1.4,1.1s0.5,1,0.7,1.6
		c0.1,0.4,0.1,1.1,0.1,2.1v7.7h-2.1v-7.6c0-0.9-0.1-1.5-0.2-1.9c-0.1-0.4-0.5-0.8-0.9-1c-0.4-0.2-0.9-0.4-1.5-0.4
		c-0.9,0-1.7,0.3-2.3,0.9s-1,1.7-1,3.2v6.8h-2.2V216.3z"/>
	<path fill="#293047" d="M238.5,214.4l0.3,1.9c-0.6,0.1-1.1,0.2-1.6,0.2c-0.8,0-1.4-0.1-1.8-0.4c-0.4-0.3-0.7-0.6-0.9-1
		c-0.2-0.4-0.3-1.2-0.3-2.5v-7.2h-1.5v-1.6h1.5v-3.1l2.1-1.3v4.3h2.1v1.6h-2.1v7.3c0,0.6,0,1,0.1,1.2s0.2,0.3,0.4,0.4
		c0.2,0.1,0.4,0.2,0.7,0.2C237.8,214.5,238.1,214.4,238.5,214.4z"/>
	<path fill="#293047" d="M249,212.3l2.2,0.3c-0.3,1.3-1,2.3-1.9,3c-0.9,0.7-2.1,1.1-3.6,1.1c-1.8,0-3.3-0.6-4.3-1.7
		s-1.6-2.7-1.6-4.7c0-2.1,0.5-3.7,1.6-4.9s2.5-1.7,4.2-1.7s3,0.6,4.1,1.7s1.6,2.7,1.6,4.8c0,0.1,0,0.3,0,0.6H242
		c0.1,1.4,0.5,2.4,1.2,3.1s1.6,1.1,2.6,1.1c0.8,0,1.4-0.2,2-0.6S248.7,213.2,249,212.3z M242.1,208.9h6.9c-0.1-1-0.4-1.8-0.8-2.4
		c-0.7-0.8-1.5-1.2-2.6-1.2c-1,0-1.8,0.3-2.4,1S242.2,207.8,242.1,208.9z"/>
	<path fill="#293047" d="M253.9,216.3v-12.4h1.9v1.8c0.9-1.4,2.2-2.1,4-2.1c0.8,0,1.4,0.1,2.1,0.4s1.1,0.6,1.4,1.1s0.5,1,0.7,1.6
		c0.1,0.4,0.1,1.1,0.1,2.1v7.7H262v-7.6c0-0.9-0.1-1.5-0.2-1.9c-0.1-0.4-0.5-0.8-0.9-1c-0.4-0.2-0.9-0.4-1.5-0.4
		c-0.9,0-1.7,0.3-2.3,0.9s-1,1.7-1,3.2v6.8h-2.2L253.9,216.3L253.9,216.3z"/>
	<path fill="#293047" d="M267.2,216.3v-12.4h1.9v1.8c0.9-1.4,2.2-2.1,4-2.1c0.8,0,1.4,0.1,2.1,0.4s1.1,0.6,1.4,1.1s0.5,1,0.7,1.6
		c0.1,0.4,0.1,1.1,0.1,2.1v7.7h-2.1v-7.6c0-0.9-0.1-1.5-0.2-1.9c-0.1-0.4-0.5-0.8-0.9-1c-0.4-0.2-0.9-0.4-1.5-0.4
		c-0.9,0-1.7,0.3-2.3,0.9s-1,1.7-1,3.2v6.8h-2.2V216.3z"/>
	<path fill="#293047" d="M288.7,214.7c-0.8,0.7-1.5,1.1-2.3,1.4c-0.8,0.3-1.5,0.4-2.3,0.4c-1.4,0-2.4-0.3-3.2-1
		c-0.8-0.7-1.1-1.5-1.1-2.6c0-0.6,0.1-1.2,0.4-1.7s0.6-0.9,1.1-1.2c0.5-0.3,1-0.5,1.5-0.7c0.4-0.1,1-0.2,1.9-0.3
		c1.7-0.2,3-0.4,3.8-0.7c0-0.3,0-0.5,0-0.6c0-0.9-0.2-1.5-0.6-1.8c-0.5-0.5-1.3-0.7-2.4-0.7c-1,0-1.7,0.2-2.2,0.5
		c-0.5,0.3-0.8,1-1,1.8l-2.1-0.3c0.2-0.9,0.5-1.6,0.9-2.1s1.1-1,1.9-1.3s1.8-0.4,2.8-0.4c1.1,0,1.9,0.1,2.6,0.4s1.2,0.6,1.5,0.9
		c0.3,0.3,0.5,0.9,0.7,1.4c0.1,0.4,0.1,1,0.1,1.9v2.8c0,2,0,3.2,0.1,3.7s0.3,1,0.5,1.5h-2.2C288.9,215.8,288.8,215.3,288.7,214.7z
		 M288.5,210c-0.8,0.3-1.9,0.6-3.4,0.8c-0.9,0.1-1.5,0.3-1.8,0.4c-0.3,0.1-0.6,0.4-0.8,0.7c-0.2,0.3-0.3,0.6-0.3,1
		c0,0.6,0.2,1,0.6,1.4s1,0.6,1.9,0.6c0.8,0,1.5-0.2,2.2-0.5c0.7-0.3,1.1-0.8,1.4-1.5c0.2-0.5,0.3-1.2,0.3-2.1L288.5,210z"/>
	<path fill="#B5C0C9" d="M469.1,457.3h80.8c0.6-3.8,1.8-11.1,1.8-14.1c0-4-0.7-15.3-0.7-15.3h-82h-1.2h-81c0,0-0.7,11.3-0.7,15.3
		c0,2.9,1.2,10.3,1.8,14.1h79.8H469.1z"/>
	<path fill="#FFFFFF" d="M469.1,457.3v1h81.7l0.1-0.8c0.3-1.9,0.8-4.7,1.1-7.4c0.4-2.7,0.7-5.3,0.7-6.9c0-2-0.2-5.9-0.4-9.2
		c-0.2-3.3-0.4-6.2-0.4-6.2l-0.1-0.9H469h-1.2h-81.9l-0.1,0.9c0,0-0.2,2.8-0.4,6.2c-0.2,3.3-0.4,7.2-0.4,9.2c0,1.6,0.3,4.1,0.7,6.9
		c0.4,2.7,0.8,5.5,1.1,7.4l0.1,0.8h80.7h1.4V457.3v-1h-1.4h-79.8v1l1-0.2c-0.3-1.9-0.7-4.7-1.1-7.4c-0.4-2.7-0.7-5.2-0.7-6.6
		c0-2,0.2-5.8,0.3-9.1c0.1-1.7,0.2-3.2,0.2-4.3c0.1-1.1,0.1-1.8,0.1-1.8l-1-0.1v1h81h1.2h82v-1l-1,0.1c0,0,0,0.7,0.1,1.8
		c0.2,3.4,0.6,10.5,0.6,13.4c0,1.4-0.3,4-0.7,6.6c-0.4,2.7-0.8,5.4-1.1,7.3l1,0.2v-1h-80.8V457.3z"/>
	<path fill="#0F1F30" d="M423.3,451.1v-17.2h7.6c1.5,0,2.7,0.2,3.5,0.5s1.4,0.9,1.9,1.6s0.7,1.6,0.7,2.6c0,1.2-0.4,2.2-1.2,3.1
		s-2,1.4-3.7,1.6c0.6,0.3,1.1,0.6,1.4,0.9c0.7,0.6,1.3,1.4,1.9,2.3l3,4.7h-2.9l-2.3-3.6c-0.7-1-1.2-1.8-1.6-2.4s-0.8-0.9-1.2-1.1
		s-0.7-0.4-1-0.5s-0.7-0.1-1.3-0.1h-2.6v7.6H423.3z M425.5,441.5h4.9c1,0,1.9-0.1,2.4-0.3s1-0.6,1.3-1s0.5-1,0.5-1.5
		c0-0.8-0.3-1.5-0.9-2s-1.5-0.8-2.8-0.8h-5.4V441.5z"/>
	<path fill="#0F1F30" d="M448.8,447.1l2.2,0.3c-0.3,1.3-1,2.3-1.9,3s-2.1,1.1-3.6,1.1c-1.8,0-3.3-0.6-4.3-1.7s-1.6-2.7-1.6-4.7
		c0-2.1,0.5-3.7,1.6-4.9s2.5-1.7,4.2-1.7s3,0.6,4.1,1.7s1.6,2.7,1.6,4.8c0,0.1,0,0.3,0,0.6h-9.3c0.1,1.4,0.5,2.4,1.2,3.1
		s1.6,1.1,2.6,1.1c0.8,0,1.4-0.2,2-0.6S448.5,448,448.8,447.1z M441.9,443.7h6.9c-0.1-1-0.4-1.8-0.8-2.4c-0.7-0.8-1.5-1.2-2.6-1.2
		c-1,0-1.8,0.3-2.4,1S441.9,442.6,441.9,443.7z"/>
	<path fill="#0F1F30" d="M461.8,446.6l2.1,0.3c-0.2,1.4-0.8,2.5-1.7,3.4s-2.1,1.2-3.4,1.2c-1.7,0-3.1-0.6-4.1-1.7s-1.6-2.7-1.6-4.8
		c0-1.3,0.2-2.5,0.7-3.5s1.1-1.8,2-2.3s1.9-0.8,3-0.8c1.4,0,2.5,0.3,3.3,1s1.4,1.7,1.7,2.9l-2.1,0.3c-0.2-0.8-0.5-1.5-1-1.9
		s-1.1-0.6-1.8-0.6c-1.1,0-1.9,0.4-2.6,1.1s-1,2-1,3.6c0,1.7,0.3,2.9,1,3.6s1.5,1.1,2.5,1.1c0.8,0,1.5-0.3,2.1-0.8
		S461.6,447.6,461.8,446.6z"/>
	<path fill="#0F1F30" d="M474.2,447.1l2.2,0.3c-0.3,1.3-1,2.3-1.9,3s-2.1,1.1-3.6,1.1c-1.8,0-3.3-0.6-4.3-1.7s-1.6-2.7-1.6-4.7
		c0-2.1,0.5-3.7,1.6-4.9s2.5-1.7,4.2-1.7s3,0.6,4.1,1.7s1.6,2.7,1.6,4.8c0,0.1,0,0.3,0,0.6h-9.3c0.1,1.4,0.5,2.4,1.2,3.1
		s1.6,1.1,2.6,1.1c0.8,0,1.4-0.2,2-0.6S473.8,448,474.2,447.1z M467.2,443.7h6.9c-0.1-1-0.4-1.8-0.8-2.4c-0.7-0.8-1.5-1.2-2.6-1.2
		c-1,0-1.8,0.3-2.4,1S467.3,442.6,467.2,443.7z"/>
	<path fill="#0F1F30" d="M479,436.4V434h2.1v2.4H479z M479,451.1v-12.4h2.1v12.4H479z"/>
	<path fill="#0F1F30" d="M487.8,451.1l-4.7-12.4h2.2l2.7,7.5c0.3,0.8,0.6,1.6,0.8,2.5c0.2-0.7,0.4-1.4,0.8-2.4l2.8-7.6h2.2
		l-4.7,12.4H487.8z"/>
	<path fill="#0F1F30" d="M504.8,447.1l2.2,0.3c-0.3,1.3-1,2.3-1.9,3s-2.1,1.1-3.6,1.1c-1.8,0-3.3-0.6-4.3-1.7s-1.6-2.7-1.6-4.7
		c0-2.1,0.5-3.7,1.6-4.9s2.5-1.7,4.2-1.7s3,0.6,4.1,1.7s1.6,2.7,1.6,4.8c0,0.1,0,0.3,0,0.6h-9.3c0.1,1.4,0.5,2.4,1.2,3.1
		s1.6,1.1,2.6,1.1c0.8,0,1.4-0.2,2-0.6S504.5,448,504.8,447.1z M497.9,443.7h6.9c-0.1-1-0.4-1.8-0.8-2.4c-0.7-0.8-1.5-1.2-2.6-1.2
		c-1,0-1.8,0.3-2.4,1S498,442.6,497.9,443.7z"/>
	<path fill="#0F1F30" d="M509.6,451.1v-12.4h1.9v1.9c0.5-0.9,0.9-1.5,1.3-1.7s0.9-0.4,1.4-0.4c0.7,0,1.4,0.2,2.2,0.7l-0.7,2
		c-0.5-0.3-1-0.5-1.5-0.5s-0.9,0.1-1.2,0.4s-0.6,0.7-0.8,1.2c-0.2,0.8-0.4,1.6-0.4,2.5v6.5h-2.2V451.1z"/>
	<path fill="#8A9AA5" d="M530,442.8c0,1-1,1.7-2.3,1.7s-2.3-0.8-2.3-1.7c0-1,1-1.7,2.3-1.7S530,441.8,530,442.8z"/>
	<path fill="#8A9AA5" d="M541.5,442.8c0-1,1-1.7,2.3-1.7s2.3,0.8,2.3,1.7c0,1-1,1.7-2.3,1.7S541.5,443.7,541.5,442.8z"/>
	<path fill="#8A9AA5" d="M536.1,438.7c-1,0-1.7-1-1.7-2.3s0.8-2.3,1.7-2.3s1.7,1,1.7,2.3C537.9,437.7,537.1,438.7,536.1,438.7z"/>
	<path fill="#8A9AA5" d="M535.8,447.2c1,0,1.7,1,1.7,2.3s-0.8,2.3-1.7,2.3c-1,0-1.7-1-1.7-2.3C534,448.2,534.8,447.2,535.8,447.2z"
		/>
	<path fill="#8A9AA5" d="M538.3,443.1c0,1.4-1.1,2.5-2.5,2.5s-2.5-1.1-2.5-2.5s1.1-2.5,2.5-2.5S538.3,441.7,538.3,443.1z"/>
	<path fill="#8A9AA5" d="M391.8,448.2c0-0.6,0.7-1.1,1.5-1.1h20c0.8,0,1.5,0.5,1.5,1.1v3.9c0,0.6-0.7,1.1-1.5,1.1h-20
		c-0.8,0-1.5-0.5-1.5-1.1V448.2z"/>
	<polygon fill="#FFFFFF" points="387.5,388.3 317.8,388.3 317.8,343.5 315.8,343.5 315.8,390.3 387.5,390.3 	"/>
	<path fill="#B5C0C9" d="M469.1,403.4h80.8c0.6-3.8,1.8-11.1,1.8-14.1c0-4-0.7-15.3-0.7-15.3h-82h-1.2h-81c0,0-0.7,11.3-0.7,15.3
		c0,2.9,1.2,10.3,1.8,14.1h79.8H469.1z"/>
	<path fill="#FFFFFF" d="M469.1,403.4v1h81.7l0.1-0.8c0.3-1.9,0.8-4.7,1.1-7.4c0.4-2.7,0.7-5.3,0.7-6.9c0-2-0.2-5.9-0.4-9.2
		c-0.2-3.3-0.4-6.2-0.4-6.2l-0.1-0.9H469h-1.2h-81.9l-0.1,0.9c0,0-0.2,2.8-0.4,6.2c-0.2,3.3-0.4,7.2-0.4,9.2c0,1.6,0.3,4.1,0.7,6.9
		c0.4,2.7,0.8,5.5,1.1,7.4l0.1,0.8h80.7h1.4V403.4v-1h-1.4h-79.8v1l1-0.2c-0.3-1.9-0.7-4.7-1.1-7.4c-0.4-2.7-0.7-5.2-0.7-6.6
		c0-2,0.2-5.8,0.3-9.1c0.1-1.7,0.2-3.2,0.2-4.3c0.1-1.1,0.1-1.8,0.1-1.8l-1-0.1v1h81h1.2h82v-1l-1,0.1c0,0,0,0.7,0.1,1.8
		c0.2,3.4,0.6,10.5,0.6,13.4c0,1.4-0.3,4-0.7,6.6c-0.4,2.7-0.8,5.4-1.1,7.3l1,0.2v-1h-80.8V403.4z"/>
	<path fill="#0F1F30" d="M423.3,397.2V380h7.6c1.5,0,2.7,0.2,3.5,0.5s1.4,0.9,1.9,1.6s0.7,1.6,0.7,2.6c0,1.2-0.4,2.2-1.2,3.1
		s-2,1.4-3.7,1.6c0.6,0.3,1.1,0.6,1.4,0.9c0.7,0.6,1.3,1.4,1.9,2.3l3,4.7h-2.9l-2.3-3.6c-0.7-1-1.2-1.8-1.6-2.4s-0.8-0.9-1.2-1.1
		s-0.7-0.4-1-0.5s-0.7-0.1-1.3-0.1h-2.6v7.6H423.3z M425.5,387.6h4.9c1,0,1.9-0.1,2.4-0.3s1-0.6,1.3-1s0.5-1,0.5-1.5
		c0-0.8-0.3-1.5-0.9-2s-1.5-0.8-2.8-0.8h-5.4V387.6z"/>
	<path fill="#0F1F30" d="M448.8,393.2l2.2,0.3c-0.3,1.3-1,2.3-1.9,3s-2.1,1.1-3.6,1.1c-1.8,0-3.3-0.6-4.3-1.7s-1.6-2.7-1.6-4.7
		c0-2.1,0.5-3.7,1.6-4.9s2.5-1.7,4.2-1.7s3,0.6,4.1,1.7s1.6,2.7,1.6,4.8c0,0.1,0,0.3,0,0.6h-9.3c0.1,1.4,0.5,2.4,1.2,3.1
		s1.6,1.1,2.6,1.1c0.8,0,1.4-0.2,2-0.6S448.5,394.1,448.8,393.2z M441.9,389.8h6.9c-0.1-1-0.4-1.8-0.8-2.4c-0.7-0.8-1.5-1.2-2.6-1.2
		c-1,0-1.8,0.3-2.4,1S441.9,388.7,441.9,389.8z"/>
	<path fill="#0F1F30" d="M461.8,392.7l2.1,0.3c-0.2,1.4-0.8,2.5-1.7,3.4s-2.1,1.2-3.4,1.2c-1.7,0-3.1-0.6-4.1-1.7s-1.6-2.7-1.6-4.8
		c0-1.3,0.2-2.5,0.7-3.5s1.1-1.8,2-2.3s1.9-0.8,3-0.8c1.4,0,2.5,0.3,3.3,1s1.4,1.7,1.7,2.9l-2.1,0.3c-0.2-0.8-0.5-1.5-1-1.9
		s-1.1-0.6-1.8-0.6c-1.1,0-1.9,0.4-2.6,1.1s-1,2-1,3.6c0,1.7,0.3,2.9,1,3.6s1.5,1.1,2.5,1.1c0.8,0,1.5-0.3,2.1-0.8
		S461.6,393.7,461.8,392.7z"/>
	<path fill="#0F1F30" d="M474.2,393.2l2.2,0.3c-0.3,1.3-1,2.3-1.9,3s-2.1,1.1-3.6,1.1c-1.8,0-3.3-0.6-4.3-1.7s-1.6-2.7-1.6-4.7
		c0-2.1,0.5-3.7,1.6-4.9s2.5-1.7,4.2-1.7s3,0.6,4.1,1.7s1.6,2.7,1.6,4.8c0,0.1,0,0.3,0,0.6h-9.3c0.1,1.4,0.5,2.4,1.2,3.1
		s1.6,1.1,2.6,1.1c0.8,0,1.4-0.2,2-0.6S473.8,394.1,474.2,393.2z M467.2,389.8h6.9c-0.1-1-0.4-1.8-0.8-2.4c-0.7-0.8-1.5-1.2-2.6-1.2
		c-1,0-1.8,0.3-2.4,1S467.3,388.7,467.2,389.8z"/>
	<path fill="#0F1F30" d="M479,382.5v-2.4h2.1v2.4H479z M479,397.2v-12.4h2.1v12.4H479z"/>
	<path fill="#0F1F30" d="M487.8,397.2l-4.7-12.4h2.2l2.7,7.5c0.3,0.8,0.6,1.6,0.8,2.5c0.2-0.7,0.4-1.4,0.8-2.4l2.8-7.6h2.2
		l-4.7,12.4H487.8z"/>
	<path fill="#0F1F30" d="M504.8,393.2l2.2,0.3c-0.3,1.3-1,2.3-1.9,3s-2.1,1.1-3.6,1.1c-1.8,0-3.3-0.6-4.3-1.7s-1.6-2.7-1.6-4.7
		c0-2.1,0.5-3.7,1.6-4.9s2.5-1.7,4.2-1.7s3,0.6,4.1,1.7s1.6,2.7,1.6,4.8c0,0.1,0,0.3,0,0.6h-9.3c0.1,1.4,0.5,2.4,1.2,3.1
		s1.6,1.1,2.6,1.1c0.8,0,1.4-0.2,2-0.6S504.5,394.1,504.8,393.2z M497.9,389.8h6.9c-0.1-1-0.4-1.8-0.8-2.4c-0.7-0.8-1.5-1.2-2.6-1.2
		c-1,0-1.8,0.3-2.4,1S498,388.7,497.9,389.8z"/>
	<path fill="#0F1F30" d="M509.6,397.2v-12.4h1.9v1.9c0.5-0.9,0.9-1.5,1.3-1.7s0.9-0.4,1.4-0.4c0.7,0,1.4,0.2,2.2,0.7l-0.7,2
		c-0.5-0.3-1-0.5-1.5-0.5s-0.9,0.1-1.2,0.4s-0.6,0.7-0.8,1.2c-0.2,0.8-0.4,1.6-0.4,2.5v6.5h-2.2V397.2z"/>
	<path fill="#8A9AA5" d="M530,388.9c0,1-1,1.7-2.3,1.7s-2.3-0.8-2.3-1.7c0-1,1-1.7,2.3-1.7S530,387.9,530,388.9z"/>
	<path fill="#8A9AA5" d="M541.5,388.9c0-1,1-1.7,2.3-1.7s2.3,0.8,2.3,1.7c0,1-1,1.7-2.3,1.7S541.5,389.8,541.5,388.9z"/>
	<path fill="#8A9AA5" d="M536.1,384.8c-1,0-1.7-1-1.7-2.3s0.8-2.3,1.7-2.3s1.7,1,1.7,2.3C537.9,383.8,537.1,384.8,536.1,384.8z"/>
	<path fill="#8A9AA5" d="M535.8,393.3c1,0,1.7,1,1.7,2.3s-0.8,2.3-1.7,2.3c-1,0-1.7-1-1.7-2.3C534,394.3,534.8,393.3,535.8,393.3z"
		/>
	<path fill="#8A9AA5" d="M538.3,389.2c0,1.4-1.1,2.5-2.5,2.5s-2.5-1.1-2.5-2.5s1.1-2.5,2.5-2.5S538.3,387.8,538.3,389.2z"/>
	<path fill="#8A9AA5" d="M391.8,394.3c0-0.6,0.7-1.1,1.5-1.1h20c0.8,0,1.5,0.5,1.5,1.1v3.9c0,0.6-0.7,1.1-1.5,1.1h-20
		c-0.8,0-1.5-0.5-1.5-1.1V394.3z"/>
	<rect x="209.3" y="314.5" fill="#B5C0C9" width="6" height="7.6"/>
	<polygon fill="#FFFFFF" points="209.3,314.5 209.3,315.5 214.3,315.5 214.3,321.1 210.3,321.1 210.3,314.5 209.3,314.5 
		209.3,315.5 209.3,314.5 208.3,314.5 208.3,323.1 216.3,323.1 216.3,313.5 208.3,313.5 208.3,314.5 	"/>
	<rect x="239.4" y="314.5" fill="#B5C0C9" width="6" height="7.6"/>
	<polygon fill="#FFFFFF" points="239.4,314.5 239.4,315.5 244.4,315.5 244.4,321.1 240.4,321.1 240.4,314.5 239.4,314.5 
		239.4,315.5 239.4,314.5 238.4,314.5 238.4,323.1 246.4,323.1 246.4,313.5 238.4,313.5 238.4,314.5 	"/>
	<rect x="269.6" y="314.5" fill="#B5C0C9" width="6" height="7.6"/>
	<polygon fill="#FFFFFF" points="269.6,314.5 269.6,315.5 274.6,315.5 274.6,321.1 270.6,321.1 270.6,314.5 269.6,314.5 
		269.6,315.5 269.6,314.5 268.6,314.5 268.6,323.1 276.6,323.1 276.6,313.5 268.6,313.5 268.6,314.5 	"/>
	<rect x="299.8" y="314.5" fill="#B5C0C9" width="6" height="7.6"/>
	<polygon fill="#FFFFFF" points="299.8,314.5 299.8,315.5 304.8,315.5 304.8,321.1 300.8,321.1 300.8,314.5 299.8,314.5 
		299.8,315.5 299.8,314.5 298.8,314.5 298.8,323.1 306.8,323.1 306.8,313.5 298.8,313.5 298.8,314.5 	"/>
	<rect x="195.2" y="360.2" fill="#B5C0C9" width="6" height="7.6"/>
	<polygon fill="#FFFFFF" points="195.2,360.2 195.2,361.2 200.2,361.2 200.2,366.8 196.2,366.8 196.2,360.2 195.2,360.2 
		195.2,361.2 195.2,360.2 194.2,360.2 194.2,368.8 202.2,368.8 202.2,359.2 194.2,359.2 194.2,360.2 	"/>
	<rect x="212.2" y="360.2" fill="#B5C0C9" width="6" height="7.6"/>
	<polygon fill="#FFFFFF" points="212.2,360.2 212.2,361.2 217.2,361.2 217.2,366.8 213.2,366.8 213.2,360.2 212.2,360.2 
		212.2,361.2 212.2,360.2 211.2,360.2 211.2,368.8 219.2,368.8 219.2,359.2 211.2,359.2 211.2,360.2 	"/>
	<rect x="229.1" y="360.2" fill="#B5C0C9" width="6" height="7.6"/>
	<polygon fill="#FFFFFF" points="229.1,360.2 229.1,361.2 234.1,361.2 234.1,366.8 230.1,366.8 230.1,360.2 229.1,360.2 
		229.1,361.2 229.1,360.2 228.1,360.2 228.1,368.8 236.1,368.8 236.1,359.2 228.1,359.2 228.1,360.2 	"/>
	<rect x="246.1" y="360.2" fill="#B5C0C9" width="6" height="7.6"/>
	<polygon fill="#FFFFFF" points="246.1,360.2 246.1,361.2 251.1,361.2 251.1,366.8 247.1,366.8 247.1,360.2 246.1,360.2 
		246.1,361.2 246.1,360.2 245.1,360.2 245.1,368.8 253.1,368.8 253.1,359.2 245.1,359.2 245.1,360.2 	"/>
	<rect x="263" y="360.2" fill="#B5C0C9" width="6" height="7.6"/>
	<polygon fill="#FFFFFF" points="263,360.2 263,361.2 268,361.2 268,366.8 264,366.8 264,360.2 263,360.2 263,361.2 263,360.2 
		262,360.2 262,368.8 270,368.8 270,359.2 262,359.2 262,360.2 	"/>
	<rect x="279.9" y="360.2" fill="#B5C0C9" width="6" height="7.6"/>
	<polygon fill="#FFFFFF" points="279.9,360.2 279.9,361.2 284.9,361.2 284.9,366.8 280.9,366.8 280.9,360.2 279.9,360.2 
		279.9,361.2 279.9,360.2 278.9,360.2 278.9,368.8 286.9,368.8 286.9,359.2 278.9,359.2 278.9,360.2 	"/>
	<rect x="296.9" y="360.2" fill="#B5C0C9" width="6" height="7.6"/>
	<polygon fill="#FFFFFF" points="296.9,360.2 296.9,361.2 301.9,361.2 301.9,366.8 297.9,366.8 297.9,360.2 296.9,360.2 
		296.9,361.2 296.9,360.2 295.9,360.2 295.9,368.8 303.9,368.8 303.9,359.2 295.9,359.2 295.9,360.2 	"/>
	<rect x="313.8" y="360.2" fill="#B5C0C9" width="6" height="7.6"/>
	<polygon fill="#FFFFFF" points="313.8,360.2 313.8,361.2 318.8,361.2 318.8,366.8 314.8,366.8 314.8,360.2 313.8,360.2 
		313.8,361.2 313.8,360.2 312.8,360.2 312.8,368.8 320.8,368.8 320.8,359.2 312.8,359.2 312.8,360.2 	"/>
	<path fill="#D9D9D9" d="M217.1,323c0.5,0,0.9-0.4,0.9-0.9v-1.4c0-0.5-0.4-0.9-0.9-0.9h-9.7c-0.5,0-0.9,0.4-0.9,0.9v1.4
		c0,0.5,0.4,0.9,0.9,0.9H217.1z"/>
	<path fill="#FFFFFF" d="M217.1,323v1c0.5,0,1-0.2,1.3-0.6c0.3-0.3,0.6-0.8,0.6-1.3v-1.4c0-0.5-0.2-1-0.6-1.3
		c-0.3-0.3-0.8-0.6-1.3-0.6h-9.7c-0.5,0-1,0.2-1.3,0.6c-0.3,0.3-0.6,0.8-0.6,1.3v1.4c0,0.5,0.2,1,0.6,1.3c0.3,0.3,0.8,0.6,1.3,0.6
		h9.7V323v-1h-9.7v0.1l0.1-0.1l-0.1,0v0.1l0.1-0.1l-0.1,0.1h0.1l0-0.1l-0.1,0.1h0.1v-1.4h-0.1l0.1,0.1l0-0.1h-0.1l0.1,0.1l-0.1-0.1
		v0.1l0.1,0l-0.1-0.1v0.1h9.7v-0.1l-0.1,0.1l0.1,0v-0.1l-0.1,0.1l0.1-0.1H217l0,0.1l0.1-0.1H217v1.4h0.1L217,322l0,0.1h0.1L217,322
		l0.1,0.1V322l-0.1,0l0.1,0.1V322V323z"/>
	<path fill="#D9D9D9" d="M247.3,323c0.5,0,0.9-0.4,0.9-0.9v-1.4c0-0.5-0.4-0.9-0.9-0.9h-9.6c-0.5,0-0.9,0.4-0.9,0.9v1.4
		c0,0.5,0.4,0.9,0.9,0.9H247.3z"/>
	<path fill="#FFFFFF" d="M247.3,323v1c0.5,0,1-0.2,1.3-0.6c0.3-0.3,0.6-0.8,0.6-1.3v-1.4c0-0.5-0.2-1-0.6-1.3
		c-0.3-0.3-0.8-0.6-1.3-0.6h-9.6c-0.5,0-1,0.2-1.3,0.6c-0.3,0.3-0.6,0.8-0.6,1.3v1.4c0,0.5,0.2,1,0.6,1.3c0.3,0.3,0.8,0.6,1.3,0.6
		h9.6V323v-1h-9.6v0.1l0.1-0.1l-0.1,0v0.1l0.1-0.1l-0.1,0.1h0.1l0-0.1l-0.1,0.1h0.1v-1.4h-0.1l0.1,0.1l0-0.1h-0.1l0.1,0.1l-0.1-0.1
		v0.1l0.1,0l-0.1-0.1v0.1h9.6v-0.1l-0.1,0.1l0.1,0v-0.1l-0.1,0.1l0.1-0.1h-0.1l0,0.1l0.1-0.1h-0.1v1.4h0.1l-0.1-0.1l0,0.1h0.1
		l-0.1-0.1l0.1,0.1V322l-0.1,0l0.1,0.1V322V323z"/>
	<path fill="#D9D9D9" d="M277.4,323c0.5,0,0.9-0.4,0.9-0.9v-1.4c0-0.5-0.4-0.9-0.9-0.9h-9.6c-0.5,0-0.9,0.4-0.9,0.9v1.4
		c0,0.5,0.4,0.9,0.9,0.9H277.4z"/>
	<path fill="#FFFFFF" d="M277.4,323v1c0.5,0,1-0.2,1.3-0.6c0.3-0.3,0.6-0.8,0.6-1.3v-1.4c0-0.5-0.2-1-0.6-1.3
		c-0.3-0.3-0.8-0.6-1.3-0.6h-9.6c-0.5,0-1,0.2-1.3,0.6c-0.3,0.3-0.6,0.8-0.6,1.3v1.4c0,0.5,0.2,1,0.6,1.3c0.3,0.3,0.8,0.6,1.3,0.6
		h9.6V323v-1h-9.6v0.1l0.1-0.1l-0.1,0v0.1l0.1-0.1l-0.1,0.1h0.1l0-0.1l-0.1,0.1h0.1v-1.4h-0.1l0.1,0.1l0-0.1h-0.1l0.1,0.1l-0.1-0.1
		v0.1l0.1,0l-0.1-0.1v0.1h9.6v-0.1l-0.1,0.1l0.1,0v-0.1l-0.1,0.1l0.1-0.1h-0.1l0,0.1l0.1-0.1h-0.1v1.4h0.1l-0.1-0.1l0,0.1h0.1
		l-0.1-0.1l0.1,0.1V322l-0.1,0l0.1,0.1V322V323z"/>
	<path fill="#D9D9D9" d="M307.6,323c0.5,0,0.9-0.4,0.9-0.9v-1.4c0-0.5-0.4-0.9-0.9-0.9H298c-0.5,0-0.9,0.4-0.9,0.9v1.4
		c0,0.5,0.4,0.9,0.9,0.9H307.6z"/>
	<path fill="#FFFFFF" d="M307.6,323v1c0.5,0,1-0.2,1.3-0.6c0.3-0.3,0.6-0.8,0.6-1.3v-1.4c0-0.5-0.2-1-0.6-1.3
		c-0.3-0.3-0.8-0.6-1.3-0.6H298c-0.5,0-1,0.2-1.3,0.6c-0.3,0.3-0.6,0.8-0.6,1.3v1.4c0,0.5,0.2,1,0.6,1.3c0.3,0.3,0.8,0.6,1.3,0.6
		h9.6V323v-1H298v0.1l0.1-0.1l-0.1,0v0.1l0.1-0.1l-0.1,0.1h0.1l0-0.1l-0.1,0.1h0.1v-1.4H298l0.1,0.1l0-0.1H298l0.1,0.1l-0.1-0.1v0.1
		l0.1,0l-0.1-0.1v0.1h9.6v-0.1l-0.1,0.1l0.1,0v-0.1l-0.1,0.1l0.1-0.1h-0.1l0,0.1l0.1-0.1h-0.1v1.4h0.1l-0.1-0.1l0,0.1h0.1l-0.1-0.1
		l0.1,0.1V322l-0.1,0l0.1,0.1V322V323z"/>
	<path fill="#D9D9D9" d="M236.9,359c0.5,0,0.9,0.4,0.9,0.9v1.4c0,0.5-0.4,0.9-0.9,0.9h-9.6c-0.5,0-0.9-0.4-0.9-0.9v-1.4
		c0-0.5,0.4-0.9,0.9-0.9H236.9z"/>
	<path fill="#FFFFFF" d="M236.9,359v1v-0.1l-0.1,0.1l0.1,0v-0.1l-0.1,0.1l0.1-0.1h-0.1l0,0.1l0.1-0.1h-0.1v1.4h0.1l-0.1-0.1l0,0.1
		h0.1l-0.1-0.1l0.1,0.1v-0.1l-0.1,0l0.1,0.1v-0.1h-9.6v0.1l0.1-0.1l-0.1,0v0.1l0.1-0.1l-0.1,0.1h0.1l0-0.1l-0.1,0.1h0.1v-1.4h-0.1
		l0.1,0.1l0-0.1h-0.1l0.1,0.1l-0.1-0.1v0.1l0.1,0l-0.1-0.1v0.1h9.6V359v-1h-9.6c-0.5,0-1,0.2-1.3,0.6c-0.3,0.3-0.6,0.8-0.6,1.3v1.4
		c0,0.5,0.2,1,0.6,1.3c0.3,0.3,0.8,0.6,1.3,0.6h9.6c0.5,0,1-0.2,1.3-0.6c0.3-0.3,0.6-0.8,0.6-1.3v-1.4c0-0.5-0.2-1-0.6-1.3
		c-0.3-0.3-0.8-0.6-1.3-0.6V359z"/>
	<path fill="#D9D9D9" d="M253.9,359c0.5,0,0.9,0.4,0.9,0.9v1.4c0,0.5-0.4,0.9-0.9,0.9h-9.6c-0.5,0-0.9-0.4-0.9-0.9v-1.4
		c0-0.5,0.4-0.9,0.9-0.9H253.9z"/>
	<path fill="#FFFFFF" d="M253.9,359v1v-0.1l-0.1,0.1l0.1,0v-0.1l-0.1,0.1l0.1-0.1h-0.1l0,0.1l0.1-0.1h-0.1v1.4h0.1l-0.1-0.1l0,0.1
		h0.1l-0.1-0.1l0.1,0.1v-0.1l-0.1,0l0.1,0.1v-0.1h-9.6v0.1l0.1-0.1l-0.1,0v0.1l0.1-0.1l-0.1,0.1h0.1l0-0.1l-0.1,0.1h0.1v-1.4h-0.1
		l0.1,0.1l0-0.1h-0.1l0.1,0.1l-0.1-0.1v0.1l0.1,0l-0.1-0.1v0.1h9.6V359v-1h-9.6c-0.5,0-1,0.2-1.3,0.6c-0.3,0.3-0.6,0.8-0.6,1.3v1.4
		c0,0.5,0.2,1,0.6,1.3c0.3,0.3,0.8,0.6,1.3,0.6h9.6c0.5,0,1-0.2,1.3-0.6c0.3-0.3,0.6-0.8,0.6-1.3v-1.4c0-0.5-0.2-1-0.6-1.3
		c-0.3-0.3-0.8-0.6-1.3-0.6V359z"/>
	<path fill="#D9D9D9" d="M270.8,359c0.5,0,0.9,0.4,0.9,0.9v1.4c0,0.5-0.4,0.9-0.9,0.9h-9.6c-0.5,0-0.9-0.4-0.9-0.9v-1.4
		c0-0.5,0.4-0.9,0.9-0.9H270.8z"/>
	<path fill="#FFFFFF" d="M270.8,359v1v-0.1l-0.1,0.1l0.1,0v-0.1l-0.1,0.1l0.1-0.1h-0.1l0,0.1l0.1-0.1h-0.1v1.4h0.1l-0.1-0.1l0,0.1
		h0.1l-0.1-0.1l0.1,0.1v-0.1l-0.1,0l0.1,0.1v-0.1h-9.6v0.1l0.1-0.1l-0.1,0v0.1l0.1-0.1l-0.1,0.1h0.1l0-0.1l-0.1,0.1h0.1v-1.4h-0.1
		l0.1,0.1l0-0.1h-0.1l0.1,0.1l-0.1-0.1v0.1l0.1,0l-0.1-0.1v0.1h9.6V359v-1h-9.6c-0.5,0-1,0.2-1.3,0.6c-0.3,0.3-0.6,0.8-0.6,1.3v1.4
		c0,0.5,0.2,1,0.6,1.3c0.3,0.3,0.8,0.6,1.3,0.6h9.6c0.5,0,1-0.2,1.3-0.6c0.3-0.3,0.6-0.8,0.6-1.3v-1.4c0-0.5-0.2-1-0.6-1.3
		c-0.3-0.3-0.8-0.6-1.3-0.6V359z"/>
	<path fill="#D9D9D9" d="M287.8,359c0.5,0,0.9,0.4,0.9,0.9v1.4c0,0.5-0.4,0.9-0.9,0.9h-9.6c-0.5,0-0.9-0.4-0.9-0.9v-1.4
		c0-0.5,0.4-0.9,0.9-0.9H287.8z"/>
	<path fill="#FFFFFF" d="M287.8,359v1v-0.1l-0.1,0.1l0.1,0v-0.1l-0.1,0.1l0.1-0.1h-0.1l0,0.1l0.1-0.1h-0.1v1.4h0.1l-0.1-0.1l0,0.1
		h0.1l-0.1-0.1l0.1,0.1v-0.1l-0.1,0l0.1,0.1v-0.1h-9.6v0.1l0.1-0.1l-0.1,0v0.1l0.1-0.1l-0.1,0.1h0.1l0-0.1l-0.1,0.1h0.1v-1.4h-0.1
		l0.1,0.1l0-0.1h-0.1l0.1,0.1l-0.1-0.1v0.1l0.1,0l-0.1-0.1v0.1h9.6V359v-1h-9.6c-0.5,0-1,0.2-1.3,0.6c-0.3,0.3-0.6,0.8-0.6,1.3v1.4
		c0,0.5,0.2,1,0.6,1.3c0.3,0.3,0.8,0.6,1.3,0.6h9.6c0.5,0,1-0.2,1.3-0.6c0.3-0.3,0.6-0.8,0.6-1.3v-1.4c0-0.5-0.2-1-0.6-1.3
		c-0.3-0.3-0.8-0.6-1.3-0.6V359z"/>
	<path fill="#D9D9D9" d="M304.7,359c0.5,0,0.9,0.4,0.9,0.9v1.4c0,0.5-0.4,0.9-0.9,0.9h-9.6c-0.5,0-0.9-0.4-0.9-0.9v-1.4
		c0-0.5,0.4-0.9,0.9-0.9H304.7z"/>
	<path fill="#FFFFFF" d="M304.7,359v1v-0.1l-0.1,0.1l0.1,0v-0.1l-0.1,0.1l0.1-0.1h-0.1l0,0.1l0.1-0.1h-0.1v1.4h0.1l-0.1-0.1l0,0.1
		h0.1l-0.1-0.1l0.1,0.1v-0.1l-0.1,0l0.1,0.1v-0.1h-9.6v0.1l0.1-0.1l-0.1,0v0.1l0.1-0.1l-0.1,0.1h0.1l0-0.1l-0.1,0.1h0.1v-1.4h-0.1
		l0.1,0.1l0-0.1h-0.1l0.1,0.1l-0.1-0.1v0.1l0.1,0l-0.1-0.1v0.1h9.6V359v-1h-9.6c-0.5,0-1,0.2-1.3,0.6c-0.3,0.3-0.6,0.8-0.6,1.3v1.4
		c0,0.5,0.2,1,0.6,1.3c0.3,0.3,0.8,0.6,1.3,0.6h9.6c0.5,0,1-0.2,1.3-0.6c0.3-0.3,0.6-0.8,0.6-1.3v-1.4c0-0.5-0.2-1-0.6-1.3
		c-0.3-0.3-0.8-0.6-1.3-0.6V359z"/>
	<path fill="#D9D9D9" d="M321.6,359c0.5,0,0.9,0.4,0.9,0.9v1.4c0,0.5-0.4,0.9-0.9,0.9H312c-0.5,0-0.9-0.4-0.9-0.9v-1.4
		c0-0.5,0.4-0.9,0.9-0.9H321.6z"/>
	<path fill="#FFFFFF" d="M321.6,359v1v-0.1l-0.1,0.1l0.1,0v-0.1l-0.1,0.1l0.1-0.1h-0.1l0,0.1l0.1-0.1h-0.1v1.4h0.1l-0.1-0.1l0,0.1
		h0.1l-0.1-0.1l0.1,0.1v-0.1l-0.1,0l0.1,0.1v-0.1H312v0.1l0.1-0.1l-0.1,0v0.1l0.1-0.1l-0.1,0.1h0.1l0-0.1l-0.1,0.1h0.1v-1.4H312
		l0.1,0.1l0-0.1H312l0.1,0.1l-0.1-0.1v0.1l0.1,0l-0.1-0.1v0.1h9.6V359v-1H312c-0.5,0-1,0.2-1.3,0.6c-0.3,0.3-0.6,0.8-0.6,1.3v1.4
		c0,0.5,0.2,1,0.6,1.3c0.3,0.3,0.8,0.6,1.3,0.6h9.6c0.5,0,1-0.2,1.3-0.6c0.3-0.3,0.6-0.8,0.6-1.3v-1.4c0-0.5-0.2-1-0.6-1.3
		c-0.3-0.3-0.8-0.6-1.3-0.6V359z"/>
	<path fill="#D9D9D9" d="M220,359c0.5,0,0.9,0.4,0.9,0.9v1.4c0,0.5-0.4,0.9-0.9,0.9h-9.6c-0.5,0-0.9-0.4-0.9-0.9v-1.4
		c0-0.5,0.4-0.9,0.9-0.9H220z"/>
	<path fill="#FFFFFF" d="M220,359v1v-0.1l-0.1,0.1l0.1,0v-0.1l-0.1,0.1l0.1-0.1h-0.1l0,0.1l0.1-0.1h-0.1v1.4h0.1l-0.1-0.1l0,0.1h0.1
		l-0.1-0.1l0.1,0.1v-0.1l-0.1,0l0.1,0.1v-0.1h-9.6v0.1l0.1-0.1l-0.1,0v0.1l0.1-0.1l-0.1,0.1h0.1l0-0.1l-0.1,0.1h0.1v-1.4h-0.1
		l0.1,0.1l0-0.1h-0.1l0.1,0.1l-0.1-0.1v0.1l0.1,0l-0.1-0.1v0.1h9.6V359v-1h-9.6c-0.5,0-1,0.2-1.3,0.6c-0.3,0.3-0.6,0.8-0.6,1.3v1.4
		c0,0.5,0.2,1,0.6,1.3c0.3,0.3,0.8,0.6,1.3,0.6h9.6c0.5,0,1-0.2,1.3-0.6c0.3-0.3,0.6-0.8,0.6-1.3v-1.4c0-0.5-0.2-1-0.6-1.3
		c-0.3-0.3-0.8-0.6-1.3-0.6V359z"/>
	<path fill="#D9D9D9" d="M203.1,359c0.5,0,0.9,0.4,0.9,0.9v1.4c0,0.5-0.4,0.9-0.9,0.9h-9.7c-0.5,0-0.9-0.4-0.9-0.9v-1.4
		c0-0.5,0.4-0.9,0.9-0.9H203.1z"/>
	<path fill="#FFFFFF" d="M203.1,359v1v-0.1L203,360l0.1,0v-0.1L203,360l0.1-0.1H203l0,0.1l0.1-0.1H203v1.4h0.1l-0.1-0.1l0,0.1h0.1
		l-0.1-0.1l0.1,0.1v-0.1l-0.1,0l0.1,0.1v-0.1h-9.7v0.1l0.1-0.1l-0.1,0v0.1l0.1-0.1l-0.1,0.1h0.1l0-0.1l-0.1,0.1h0.1v-1.4h-0.1
		l0.1,0.1l0-0.1h-0.1l0.1,0.1l-0.1-0.1v0.1l0.1,0l-0.1-0.1v0.1h9.7V359v-1h-9.7c-0.5,0-1,0.2-1.3,0.6c-0.3,0.3-0.6,0.8-0.6,1.3v1.4
		c0,0.5,0.2,1,0.6,1.3c0.3,0.3,0.8,0.6,1.3,0.6h9.7c0.5,0,1-0.2,1.3-0.6c0.3-0.3,0.6-0.8,0.6-1.3v-1.4c0-0.5-0.2-1-0.6-1.3
		c-0.3-0.3-0.8-0.6-1.3-0.6V359z"/>
	<rect x="188.3" y="321.5" fill="#B5C0C9" width="139.2" height="38.9"/>
	<polygon fill="#FFFFFF" points="188.3,321.5 188.3,322.5 326.5,322.5 326.5,359.4 189.3,359.4 189.3,321.5 188.3,321.5 
		188.3,322.5 188.3,321.5 187.3,321.5 187.3,361.4 328.5,361.4 328.5,320.5 187.3,320.5 187.3,321.5 	"/>
	<path fill="#0F1F30" d="M201,348.9v-17.2h3.4l4.1,12.2c0.4,1.1,0.6,2,0.8,2.5c0.2-0.6,0.5-1.5,0.9-2.8l4.1-12h3.1v17.2h-2.2v-14.4
		l-5,14.4h-2.1l-5-14.6v14.6L201,348.9z"/>
	<path fill="#0F1F30" d="M229,348.9v-1.8c-1,1.4-2.3,2.1-3.9,2.1c-0.7,0-1.4-0.1-2.1-0.4s-1.1-0.6-1.4-1.1s-0.5-0.9-0.7-1.6
		c-0.1-0.4-0.1-1.1-0.1-2v-7.7h2.1v6.9c0,1.1,0,1.8,0.1,2.2c0.1,0.6,0.4,1,0.8,1.3c0.4,0.3,1,0.5,1.6,0.5s1.2-0.2,1.8-0.5
		s0.9-0.8,1.2-1.3s0.3-1.4,0.3-2.4v-6.7h2.1v12.4H229V348.9z"/>
	<rect x="234.1" y="331.7" fill="#0F1F30" width="2.1" height="17.2"/>
	<path fill="#0F1F30" d="M244.1,347l0.3,1.9c-0.6,0.1-1.1,0.2-1.6,0.2c-0.8,0-1.4-0.1-1.8-0.4c-0.4-0.3-0.7-0.6-0.9-1
		s-0.3-1.2-0.3-2.5V338h-1.5v-1.6h1.5v-3.1l2.1-1.3v4.3h2.1v1.6h-2.1v7.3c0,0.6,0,1,0.1,1.2s0.2,0.3,0.4,0.4s0.4,0.2,0.7,0.2
		C243.4,347.1,243.7,347.1,244.1,347z"/>
	<path fill="#0F1F30" d="M246.2,334.1v-2.4h2.1v2.4H246.2z M246.2,348.9v-12.4h2.1v12.4H246.2z"/>
	<path fill="#0F1F30" d="M250.6,345.2l2.1-0.3c0.1,0.8,0.4,1.5,1,1.9s1.3,0.7,2.2,0.7c1,0,1.7-0.2,2.2-0.6s0.7-0.9,0.7-1.4
		s-0.2-0.9-0.6-1.1c-0.3-0.2-1-0.4-2.2-0.7c-1.5-0.4-2.6-0.7-3.2-1c-0.6-0.3-1.1-0.7-1.4-1.2s-0.5-1.1-0.5-1.7s0.1-1.1,0.4-1.5
		s0.6-0.9,1-1.2c0.3-0.2,0.8-0.4,1.3-0.6s1.2-0.3,1.8-0.3c1,0,1.8,0.1,2.6,0.4s1.3,0.7,1.6,1.1c0.3,0.4,0.6,1.1,0.7,1.9l-2.1,0.3
		c-0.1-0.6-0.4-1.1-0.8-1.5s-1.1-0.5-1.9-0.5c-1,0-1.7,0.2-2.1,0.5c-0.4,0.3-0.6,0.7-0.6,1.1c0,0.3,0.1,0.5,0.3,0.7s0.4,0.4,0.8,0.6
		c0.2,0.1,0.8,0.3,1.9,0.5c1.5,0.4,2.5,0.7,3.1,1s1.1,0.6,1.4,1.1s0.5,1.1,0.5,1.8c0,0.7-0.2,1.4-0.6,2s-1,1.1-1.8,1.4
		s-1.6,0.5-2.6,0.5c-1.6,0-2.8-0.3-3.7-1S250.9,346.5,250.6,345.2z"/>
	<path fill="#0F1F30" d="M265.8,348.9l-3.8-12.4h2.2l2,7.2l0.7,2.7c0-0.1,0.2-1,0.6-2.6l2-7.3h2.2l1.9,7.2l0.6,2.4l0.7-2.4l2.1-7.2
		h2.1l-3.9,12.4H273l-2-7.5l-0.5-2.1l-2.5,9.6L265.8,348.9z"/>
	<path fill="#0F1F30" d="M280.8,334.1v-2.4h2.1v2.4H280.8z M280.8,348.9v-12.4h2.1v12.4H280.8z"/>
	<path fill="#0F1F30" d="M290.8,347l0.3,1.9c-0.6,0.1-1.1,0.2-1.6,0.2c-0.8,0-1.4-0.1-1.8-0.4s-0.7-0.6-0.9-1
		c-0.2-0.4-0.3-1.2-0.3-2.5V338H285v-1.6h1.5v-3.1l2.1-1.3v4.3h2.1v1.6h-2.1v7.3c0,0.6,0,1,0.1,1.2s0.2,0.3,0.4,0.4
		c0.2,0.1,0.4,0.2,0.7,0.2C290.1,347.1,290.4,347.1,290.8,347z"/>
	<path fill="#0F1F30" d="M300.9,344.3l2.1,0.3c-0.2,1.4-0.8,2.5-1.7,3.4s-2.1,1.2-3.4,1.2c-1.7,0-3.1-0.6-4.1-1.7s-1.6-2.7-1.6-4.8
		c0-1.3,0.2-2.5,0.7-3.5s1.1-1.8,2-2.3s1.9-0.8,3-0.8c1.4,0,2.5,0.3,3.3,1s1.4,1.7,1.7,2.9l-2.1,0.3c-0.2-0.8-0.5-1.5-1-1.9
		s-1.1-0.6-1.8-0.6c-1.1,0-1.9,0.4-2.6,1.1s-1,2-1,3.6c0,1.7,0.3,2.9,1,3.6s1.5,1.1,2.5,1.1c0.8,0,1.5-0.3,2.1-0.8
		S300.8,345.4,300.9,344.3z"/>
	<path fill="#0F1F30" d="M304.8,348.9v-17.2h2.1v6.2c1-1.1,2.2-1.7,3.7-1.7c0.9,0,1.7,0.2,2.4,0.5s1.2,0.9,1.5,1.5s0.4,1.6,0.4,2.8
		v7.9h-2.1V341c0-1.1-0.2-1.8-0.7-2.3s-1.1-0.7-1.9-0.7c-0.6,0-1.2,0.2-1.8,0.5s-0.9,0.8-1.2,1.3c-0.3,0.5-0.4,1.3-0.4,2.3v6.8
		L304.8,348.9z"/>
</g>
</svg>
