<?xml version="1.0" encoding="utf-8"?>
<!-- Generator: Adobe Illustrator 18.1.1, SVG Export Plug-In . SVG Version: 6.00 Build 0)  -->
<svg version="1.1" id="Layer_1" xmlns="http://www.w3.org/2000/svg" xmlns:xlink="http://www.w3.org/1999/xlink" x="0px" y="0px"
	 viewBox="0 0 612 792" enable-background="new 0 0 612 792" xml:space="preserve">
<g>
	<polygon fill="#FFFFFF" points="441.1,404.1 300.6,404.1 300.6,370.2 298.6,370.2 298.6,406.1 441.1,406.1 	"/>
	<polygon fill="#0CBC18" points="459.8,549.1 241.6,549.1 241.6,364.4 239.6,364.4 239.6,551.1 459.8,551.1 	"/>
	<polygon fill="#0CBC18" points="476.7,476.3 271.6,476.3 271.6,363 269.6,363 269.6,478.3 476.7,478.3 	"/>
	<polyline fill="#FFFFFF" points="87.6,318.1 87.6,251.9 85.6,251.9 85.6,318.1 	"/>
	<path fill="#FFFF33" d="M451.3,582.8l2.3,0.6c-0.5,1.9-1.3,3.3-2.6,4.3s-2.8,1.5-4.5,1.5c-1.9,0-3.4-0.4-4.5-1.1s-2-1.8-2.6-3.3
		s-0.9-3-0.9-4.6c0-1.8,0.3-3.3,1-4.7s1.7-2.3,2.9-3s2.7-1,4.2-1c1.7,0,3.2,0.4,4.3,1.3c1.1,0.9,2,2.1,2.4,3.7l-2.2,0.5
		c-0.4-1.3-1-2.2-1.7-2.7s-1.7-0.9-2.9-0.9c-1.3,0-2.4,0.3-3.3,0.9c-0.9,0.6-1.5,1.5-1.9,2.5s-0.5,2.2-0.5,3.3
		c0,1.5,0.2,2.7,0.6,3.8s1.1,1.9,2,2.4s1.9,0.8,2.9,0.8c1.3,0,2.4-0.4,3.2-1.1S451,584.2,451.3,582.8z"/>
	<path fill="#FFFF33" d="M464.2,587.3c-0.8,0.7-1.5,1.1-2.3,1.4s-1.5,0.4-2.3,0.4c-1.4,0-2.4-0.3-3.2-1s-1.1-1.5-1.1-2.6
		c0-0.6,0.1-1.2,0.4-1.7s0.6-0.9,1.1-1.2c0.5-0.3,1-0.5,1.5-0.7c0.4-0.1,1-0.2,1.9-0.3c1.7-0.2,3-0.4,3.8-0.7c0-0.3,0-0.5,0-0.6
		c0-0.9-0.2-1.5-0.6-1.8c-0.5-0.5-1.3-0.7-2.4-0.7c-1,0-1.7,0.2-2.2,0.5s-0.8,1-1,1.8l-2.1-0.3c0.2-0.9,0.5-1.6,0.9-2.1
		s1.1-1,1.9-1.3s1.8-0.4,2.8-0.4c1.1,0,1.9,0.1,2.6,0.4s1.2,0.6,1.5,0.9s0.5,0.9,0.7,1.4c0.1,0.4,0.1,1,0.1,1.9v2.8
		c0,2,0,3.2,0.1,3.7s0.3,1,0.5,1.5h-2.2C464.4,588.4,464.3,587.9,464.2,587.3z M464,582.6c-0.8,0.3-1.9,0.6-3.4,0.8
		c-0.9,0.1-1.5,0.3-1.8,0.4c-0.3,0.1-0.6,0.4-0.8,0.7c-0.2,0.3-0.3,0.6-0.3,1c0,0.6,0.2,1,0.6,1.4c0.4,0.4,1,0.6,1.9,0.6
		c0.8,0,1.5-0.2,2.2-0.5s1.1-0.8,1.4-1.5c0.2-0.5,0.3-1.2,0.3-2.1v-0.8H464z"/>
	<path fill="#FFFF33" d="M469.4,588.8v-12.4h1.9v1.8c0.9-1.4,2.2-2.1,4-2.1c0.8,0,1.4,0.1,2.1,0.4s1.1,0.6,1.4,1.1s0.5,1,0.7,1.6
		c0.1,0.4,0.1,1.1,0.1,2.1v7.7h-2.1v-7.6c0-0.9-0.1-1.5-0.2-1.9c-0.1-0.4-0.5-0.8-0.9-1s-0.9-0.4-1.5-0.4c-0.9,0-1.7,0.3-2.3,0.9
		c-0.6,0.6-1,1.7-1,3.2v6.8h-2.2V588.8z"/>
	<path fill="#FFFF33" d="M489.6,588.8v-17.2h6.4c1.3,0,2.4,0.2,3.2,0.5s1.4,0.9,1.9,1.6s0.7,1.5,0.7,2.3c0,0.7-0.2,1.4-0.6,2.1
		s-1,1.2-1.8,1.6c1,0.3,1.8,0.8,2.4,1.6c0.6,0.8,0.8,1.6,0.8,2.6c0,0.8-0.2,1.6-0.5,2.2c-0.3,0.6-0.8,1.2-1.3,1.6
		c-0.5,0.4-1.1,0.7-1.9,0.8s-1.7,0.3-2.8,0.3H489.6z M491.9,578.8h3.7c1,0,1.7-0.1,2.2-0.2c0.6-0.2,1-0.5,1.3-0.9
		c0.3-0.4,0.4-0.9,0.4-1.5c0-0.6-0.1-1.1-0.4-1.5c-0.3-0.4-0.7-0.7-1.2-0.9c-0.5-0.2-1.4-0.2-2.6-0.2h-3.4V578.8z M491.9,586.8h4.3
		c0.7,0,1.3,0,1.5-0.1c0.5-0.1,1-0.3,1.3-0.5s0.6-0.5,0.9-1s0.3-0.9,0.3-1.4c0-0.6-0.2-1.2-0.5-1.7s-0.8-0.8-1.4-1s-1.4-0.3-2.5-0.3
		h-4v6H491.9z"/>
	<path fill="#FFFF33" d="M514,584.8l2.2,0.3c-0.3,1.3-1,2.3-1.9,3c-0.9,0.7-2.1,1.1-3.6,1.1c-1.8,0-3.3-0.6-4.3-1.7
		c-1-1.1-1.6-2.7-1.6-4.7c0-2.1,0.5-3.7,1.6-4.9c1.1-1.2,2.5-1.7,4.2-1.7c1.7,0,3,0.6,4.1,1.7c1.1,1.1,1.6,2.7,1.6,4.8
		c0,0.1,0,0.3,0,0.6H507c0.1,1.4,0.5,2.4,1.2,3.1s1.6,1.1,2.6,1.1c0.8,0,1.4-0.2,2-0.6C513.4,586.5,513.7,585.7,514,584.8z
		 M507.1,581.4h6.9c-0.1-1-0.4-1.8-0.8-2.4c-0.7-0.8-1.5-1.2-2.6-1.2c-1,0-1.8,0.3-2.4,1S507.1,580.3,507.1,581.4z"/>
	<path fill="#FFFF33" d="M525.7,588.8v-17.2h3.4l4.1,12.2c0.4,1.1,0.6,2,0.8,2.5c0.2-0.6,0.5-1.5,0.9-2.8l4.1-12h3.1v17.2h-2.2
		v-14.4l-5,14.4h-2.1l-5-14.6v14.6L525.7,588.8z"/>
	<path fill="#FFFF33" d="M553.6,587.3c-0.8,0.7-1.5,1.1-2.3,1.4s-1.5,0.4-2.3,0.4c-1.4,0-2.4-0.3-3.2-1s-1.1-1.5-1.1-2.6
		c0-0.6,0.1-1.2,0.4-1.7s0.6-0.9,1.1-1.2c0.5-0.3,1-0.5,1.5-0.7c0.4-0.1,1-0.2,1.9-0.3c1.7-0.2,3-0.4,3.8-0.7c0-0.3,0-0.5,0-0.6
		c0-0.9-0.2-1.5-0.6-1.8c-0.5-0.5-1.3-0.7-2.4-0.7c-1,0-1.7,0.2-2.2,0.5s-0.8,1-1,1.8l-2.1-0.3c0.2-0.9,0.5-1.6,0.9-2.1
		s1.1-1,1.9-1.3s1.8-0.4,2.8-0.4c1.1,0,1.9,0.1,2.6,0.4s1.2,0.6,1.5,0.9s0.5,0.9,0.7,1.4c0.1,0.4,0.1,1,0.1,1.9v2.8
		c0,2,0,3.2,0.1,3.7s0.3,1,0.5,1.5H554C553.8,588.4,553.7,587.9,553.6,587.3z M553.4,582.6c-0.8,0.3-1.9,0.6-3.4,0.8
		c-0.9,0.1-1.5,0.3-1.8,0.4c-0.3,0.1-0.6,0.4-0.8,0.7c-0.2,0.3-0.3,0.6-0.3,1c0,0.6,0.2,1,0.6,1.4c0.4,0.4,1,0.6,1.9,0.6
		c0.8,0,1.5-0.2,2.2-0.5s1.1-0.8,1.4-1.5c0.2-0.5,0.3-1.2,0.3-2.1v-0.8H553.4z"/>
	<path fill="#FFFF33" d="M558,585.1l2.1-0.3c0.1,0.8,0.4,1.5,1,1.9c0.6,0.4,1.3,0.7,2.2,0.7c1,0,1.7-0.2,2.2-0.6
		c0.5-0.4,0.7-0.9,0.7-1.4s-0.2-0.9-0.6-1.1c-0.3-0.2-1-0.4-2.2-0.7c-1.5-0.4-2.6-0.7-3.2-1s-1.1-0.7-1.4-1.2s-0.5-1.1-0.5-1.7
		c0-0.6,0.1-1.1,0.4-1.5c0.3-0.4,0.6-0.9,1-1.2c0.3-0.2,0.8-0.4,1.3-0.6s1.2-0.3,1.8-0.3c1,0,1.8,0.1,2.6,0.4s1.3,0.7,1.6,1.1
		c0.3,0.4,0.6,1.1,0.7,1.9l-2.1,0.3c-0.1-0.6-0.4-1.1-0.8-1.5c-0.4-0.4-1.1-0.5-1.9-0.5c-1,0-1.7,0.2-2.1,0.5s-0.6,0.7-0.6,1.1
		c0,0.3,0.1,0.5,0.3,0.7s0.4,0.4,0.8,0.6c0.2,0.1,0.8,0.3,1.9,0.5c1.5,0.4,2.5,0.7,3.1,1s1.1,0.6,1.4,1.1s0.5,1.1,0.5,1.8
		s-0.2,1.4-0.6,2c-0.4,0.6-1,1.1-1.8,1.4s-1.6,0.5-2.6,0.5c-1.6,0-2.8-0.3-3.7-1S558.2,586.4,558,585.1z"/>
	<path fill="#FFFF33" d="M575.4,586.9l0.3,1.9c-0.6,0.1-1.1,0.2-1.6,0.2c-0.8,0-1.4-0.1-1.8-0.4s-0.7-0.6-0.9-1
		c-0.2-0.4-0.3-1.2-0.3-2.5V578h-1.5v-1.6h1.5v-3.1l2.1-1.3v4.3h2.1v1.6h-2.1v7.3c0,0.6,0,1,0.1,1.2s0.2,0.3,0.4,0.4
		c0.2,0.1,0.4,0.2,0.7,0.2S575,587,575.4,586.9z"/>
	<path fill="#FFFF33" d="M586,584.8l2.2,0.3c-0.3,1.3-1,2.3-1.9,3s-2.1,1.1-3.6,1.1c-1.8,0-3.3-0.6-4.3-1.7c-1-1.1-1.6-2.7-1.6-4.7
		c0-2.1,0.5-3.7,1.6-4.9c1.1-1.2,2.5-1.7,4.2-1.7s3,0.6,4.1,1.7c1.1,1.1,1.6,2.7,1.6,4.8c0,0.1,0,0.3,0,0.6H579
		c0.1,1.4,0.5,2.4,1.2,3.1s1.6,1.1,2.6,1.1c0.8,0,1.4-0.2,2-0.6C585.4,586.5,585.7,585.7,586,584.8z M579.1,581.4h6.9
		c-0.1-1-0.4-1.8-0.8-2.4c-0.7-0.8-1.5-1.2-2.6-1.2c-1,0-1.8,0.3-2.4,1S579.2,580.3,579.1,581.4z"/>
	<path fill="#FFFF33" d="M590.8,588.8v-12.4h1.9v1.9c0.5-0.9,0.9-1.5,1.3-1.7s0.9-0.4,1.4-0.4c0.7,0,1.4,0.2,2.2,0.7l-0.7,2
		c-0.5-0.3-1-0.5-1.5-0.5s-0.9,0.1-1.2,0.4s-0.6,0.7-0.8,1.2c-0.2,0.8-0.4,1.6-0.4,2.5v6.5h-2.2V588.8z"/>
	<path fill="#FFFF33" d="M598,574.8l0.5-1.7c1.2,0.4,2.1,0.8,2.7,1.1c-0.1-1.4-0.2-2.4-0.2-2.9h1.7c0,0.8-0.1,1.7-0.3,2.9
		c0.8-0.4,1.7-0.8,2.8-1.1l0.5,1.7c-1,0.3-2,0.5-2.9,0.7c0.5,0.4,1.1,1.2,2,2.2l-1.4,1c-0.5-0.6-1-1.5-1.6-2.5
		c-0.6,1.1-1.1,1.9-1.5,2.5l-1.4-1c0.9-1.1,1.6-1.9,1.9-2.2C599.9,575.2,598.9,575,598,574.8z"/>
	<path fill="#FFFF33" d="M451.3,509.7l2.3,0.6c-0.5,1.9-1.3,3.3-2.6,4.3s-2.8,1.5-4.5,1.5c-1.9,0-3.4-0.4-4.5-1.1
		c-1.1-0.7-2-1.8-2.6-3.3c-0.6-1.5-0.9-3-0.9-4.6c0-1.8,0.3-3.3,1-4.7s1.7-2.3,2.9-3s2.7-1,4.2-1c1.7,0,3.2,0.4,4.3,1.3
		s2,2.1,2.4,3.7l-2.2,0.5c-0.4-1.3-1-2.2-1.7-2.7s-1.7-0.9-2.9-0.9c-1.3,0-2.4,0.3-3.3,0.9s-1.5,1.5-1.9,2.5s-0.5,2.2-0.5,3.3
		c0,1.5,0.2,2.7,0.6,3.8s1.1,1.9,2,2.4s1.9,0.8,2.9,0.8c1.3,0,2.4-0.4,3.2-1.1S451,511.1,451.3,509.7z"/>
	<path fill="#FFFF33" d="M464.2,514.2c-0.8,0.7-1.5,1.1-2.3,1.4s-1.5,0.4-2.3,0.4c-1.4,0-2.4-0.3-3.2-1c-0.8-0.7-1.1-1.5-1.1-2.6
		c0-0.6,0.1-1.2,0.4-1.7s0.6-0.9,1.1-1.2s1-0.5,1.5-0.7c0.4-0.1,1-0.2,1.9-0.3c1.7-0.2,3-0.4,3.8-0.7c0-0.3,0-0.5,0-0.6
		c0-0.9-0.2-1.5-0.6-1.8c-0.5-0.5-1.3-0.7-2.4-0.7c-1,0-1.7,0.2-2.2,0.5s-0.8,1-1,1.8l-2.1-0.3c0.2-0.9,0.5-1.6,0.9-2.1
		s1.1-1,1.9-1.3s1.8-0.4,2.8-0.4c1.1,0,1.9,0.1,2.6,0.4s1.2,0.6,1.5,0.9s0.5,0.9,0.7,1.4c0.1,0.4,0.1,1,0.1,1.9v2.8
		c0,2,0,3.2,0.1,3.7s0.3,1,0.5,1.5h-2.2C464.4,515.3,464.3,514.7,464.2,514.2z M464,509.4c-0.8,0.3-1.9,0.6-3.4,0.8
		c-0.9,0.1-1.5,0.3-1.8,0.4s-0.6,0.4-0.8,0.7s-0.3,0.6-0.3,1c0,0.6,0.2,1,0.6,1.4s1,0.6,1.9,0.6c0.8,0,1.5-0.2,2.2-0.5
		c0.7-0.3,1.1-0.8,1.4-1.5c0.2-0.5,0.3-1.2,0.3-2.1v-0.8H464z"/>
	<path fill="#FFFF33" d="M469.4,515.7v-12.4h1.9v1.8c0.9-1.4,2.2-2.1,4-2.1c0.8,0,1.4,0.1,2.1,0.4s1.1,0.6,1.4,1.1s0.5,1,0.7,1.6
		c0.1,0.4,0.1,1.1,0.1,2.1v7.7h-2.1v-7.6c0-0.9-0.1-1.5-0.2-1.9s-0.5-0.8-0.9-1s-0.9-0.4-1.5-0.4c-0.9,0-1.7,0.3-2.3,0.9
		s-1,1.7-1,3.2v6.8h-2.2V515.7z"/>
	<path fill="#FFFF33" d="M489.6,515.7v-17.2h6.4c1.3,0,2.4,0.2,3.2,0.5s1.4,0.9,1.9,1.6s0.7,1.5,0.7,2.3c0,0.7-0.2,1.4-0.6,2.1
		s-1,1.2-1.8,1.6c1,0.3,1.8,0.8,2.4,1.6s0.8,1.6,0.8,2.6c0,0.8-0.2,1.6-0.5,2.2s-0.8,1.2-1.3,1.6c-0.5,0.4-1.1,0.7-1.9,0.8
		s-1.7,0.3-2.8,0.3H489.6z M491.9,505.7h3.7c1,0,1.7-0.1,2.2-0.2c0.6-0.2,1-0.5,1.3-0.9s0.4-0.9,0.4-1.5s-0.1-1.1-0.4-1.5
		s-0.7-0.7-1.2-0.9s-1.4-0.2-2.6-0.2h-3.4V505.7z M491.9,513.7h4.3c0.7,0,1.3,0,1.5-0.1c0.5-0.1,1-0.3,1.3-0.5s0.6-0.5,0.9-1
		s0.3-0.9,0.3-1.4c0-0.6-0.2-1.2-0.5-1.7s-0.8-0.8-1.4-1s-1.4-0.3-2.5-0.3h-4v6H491.9z"/>
	<path fill="#FFFF33" d="M514,511.7l2.2,0.3c-0.3,1.3-1,2.3-1.9,3c-0.9,0.7-2.1,1.1-3.6,1.1c-1.8,0-3.3-0.6-4.3-1.7
		s-1.6-2.7-1.6-4.7c0-2.1,0.5-3.7,1.6-4.9s2.5-1.7,4.2-1.7c1.7,0,3,0.6,4.1,1.7c1.1,1.1,1.6,2.7,1.6,4.8c0,0.1,0,0.3,0,0.6H507
		c0.1,1.4,0.5,2.4,1.2,3.1c0.7,0.7,1.6,1.1,2.6,1.1c0.8,0,1.4-0.2,2-0.6C513.4,513.4,513.7,512.6,514,511.7z M507.1,508.3h6.9
		c-0.1-1-0.4-1.8-0.8-2.4c-0.7-0.8-1.5-1.2-2.6-1.2c-1,0-1.8,0.3-2.4,1S507.1,507.2,507.1,508.3z"/>
	<path fill="#FFFF33" d="M525.7,515.7v-17.2h3.4l4.1,12.2c0.4,1.1,0.6,2,0.8,2.5c0.2-0.6,0.5-1.5,0.9-2.8l4.1-12h3.1v17.2h-2.2
		v-14.4l-5,14.4h-2.1l-5-14.6v14.6L525.7,515.7z"/>
	<path fill="#FFFF33" d="M553.6,514.2c-0.8,0.7-1.5,1.1-2.3,1.4s-1.5,0.4-2.3,0.4c-1.4,0-2.4-0.3-3.2-1c-0.8-0.7-1.1-1.5-1.1-2.6
		c0-0.6,0.1-1.2,0.4-1.7s0.6-0.9,1.1-1.2s1-0.5,1.5-0.7c0.4-0.1,1-0.2,1.9-0.3c1.7-0.2,3-0.4,3.8-0.7c0-0.3,0-0.5,0-0.6
		c0-0.9-0.2-1.5-0.6-1.8c-0.5-0.5-1.3-0.7-2.4-0.7c-1,0-1.7,0.2-2.2,0.5s-0.8,1-1,1.8l-2.1-0.3c0.2-0.9,0.5-1.6,0.9-2.1
		s1.1-1,1.9-1.3s1.8-0.4,2.8-0.4c1.1,0,1.9,0.1,2.6,0.4s1.2,0.6,1.5,0.9s0.5,0.9,0.7,1.4c0.1,0.4,0.1,1,0.1,1.9v2.8
		c0,2,0,3.2,0.1,3.7s0.3,1,0.5,1.5H554C553.8,515.3,553.7,514.7,553.6,514.2z M553.4,509.4c-0.8,0.3-1.9,0.6-3.4,0.8
		c-0.9,0.1-1.5,0.3-1.8,0.4s-0.6,0.4-0.8,0.7s-0.3,0.6-0.3,1c0,0.6,0.2,1,0.6,1.4s1,0.6,1.9,0.6c0.8,0,1.5-0.2,2.2-0.5
		c0.7-0.3,1.1-0.8,1.4-1.5c0.2-0.5,0.3-1.2,0.3-2.1v-0.8H553.4z"/>
	<path fill="#FFFF33" d="M558,512l2.1-0.3c0.1,0.8,0.4,1.5,1,1.9s1.3,0.7,2.2,0.7c1,0,1.7-0.2,2.2-0.6c0.5-0.4,0.7-0.9,0.7-1.4
		s-0.2-0.9-0.6-1.1c-0.3-0.2-1-0.4-2.2-0.7c-1.5-0.4-2.6-0.7-3.2-1s-1.1-0.7-1.4-1.2s-0.5-1.1-0.5-1.7s0.1-1.1,0.4-1.5
		s0.6-0.9,1-1.2c0.3-0.2,0.8-0.4,1.3-0.6s1.2-0.3,1.8-0.3c1,0,1.8,0.1,2.6,0.4s1.3,0.7,1.6,1.1s0.6,1.1,0.7,1.9l-2.1,0.3
		c-0.1-0.6-0.4-1.1-0.8-1.5s-1.1-0.5-1.9-0.5c-1,0-1.7,0.2-2.1,0.5s-0.6,0.7-0.6,1.1c0,0.3,0.1,0.5,0.3,0.7s0.4,0.4,0.8,0.6
		c0.2,0.1,0.8,0.3,1.9,0.5c1.5,0.4,2.5,0.7,3.1,1s1.1,0.6,1.4,1.1s0.5,1.1,0.5,1.8c0,0.7-0.2,1.4-0.6,2s-1,1.1-1.8,1.4
		c-0.8,0.3-1.6,0.5-2.6,0.5c-1.6,0-2.8-0.3-3.7-1C558.6,514.2,558.2,513.3,558,512z"/>
	<path fill="#FFFF33" d="M575.4,513.8l0.3,1.9c-0.6,0.1-1.1,0.2-1.6,0.2c-0.8,0-1.4-0.1-1.8-0.4c-0.4-0.3-0.7-0.6-0.9-1
		c-0.2-0.4-0.3-1.2-0.3-2.5v-7.2h-1.5v-1.6h1.5v-3.1l2.1-1.3v4.3h2.1v1.6h-2.1v7.3c0,0.6,0,1,0.1,1.2s0.2,0.3,0.4,0.4
		c0.2,0.1,0.4,0.2,0.7,0.2C574.7,513.9,575,513.9,575.4,513.8z"/>
	<path fill="#FFFF33" d="M586,511.7l2.2,0.3c-0.3,1.3-1,2.3-1.9,3c-0.9,0.7-2.1,1.1-3.6,1.1c-1.8,0-3.3-0.6-4.3-1.7
		s-1.6-2.7-1.6-4.7c0-2.1,0.5-3.7,1.6-4.9s2.5-1.7,4.2-1.7s3,0.6,4.1,1.7s1.6,2.7,1.6,4.8c0,0.1,0,0.3,0,0.6H579
		c0.1,1.4,0.5,2.4,1.2,3.1c0.7,0.7,1.6,1.1,2.6,1.1c0.8,0,1.4-0.2,2-0.6C585.4,513.4,585.7,512.6,586,511.7z M579.1,508.3h6.9
		c-0.1-1-0.4-1.8-0.8-2.4c-0.7-0.8-1.5-1.2-2.6-1.2c-1,0-1.8,0.3-2.4,1S579.2,507.2,579.1,508.3z"/>
	<path fill="#FFFF33" d="M590.8,515.7v-12.4h1.9v1.9c0.5-0.9,0.9-1.5,1.3-1.7s0.9-0.4,1.4-0.4c0.7,0,1.4,0.2,2.2,0.7l-0.7,2
		c-0.5-0.3-1-0.5-1.5-0.5s-0.9,0.1-1.2,0.4s-0.6,0.7-0.8,1.2c-0.2,0.8-0.4,1.6-0.4,2.5v6.5h-2.2V515.7z"/>
	<path fill="#FFFF33" d="M598,501.7l0.5-1.7c1.2,0.4,2.1,0.8,2.7,1.1c-0.1-1.4-0.2-2.4-0.2-2.9h1.7c0,0.8-0.1,1.7-0.3,2.9
		c0.8-0.4,1.7-0.8,2.8-1.1l0.5,1.7c-1,0.3-2,0.5-2.9,0.7c0.5,0.4,1.1,1.2,2,2.2l-1.4,1c-0.5-0.6-1-1.5-1.6-2.5
		c-0.6,1.1-1.1,1.9-1.5,2.5l-1.4-1c0.9-1.1,1.6-1.9,1.9-2.2C599.9,502.1,598.9,501.9,598,501.7z"/>
	<path fill="#FFFF33" d="M455.4,326.3l2.3,0.6c-0.5,1.9-1.3,3.3-2.6,4.3c-1.3,1-2.8,1.5-4.5,1.5c-1.9,0-3.4-0.4-4.5-1.1
		s-2-1.8-2.6-3.3s-0.9-3-0.9-4.6c0-1.8,0.3-3.3,1-4.7s1.7-2.3,2.9-3c1.2-0.7,2.7-1,4.2-1c1.7,0,3.2,0.4,4.3,1.3s2,2.1,2.4,3.7
		l-2.2,0.5c-0.4-1.3-1-2.2-1.7-2.7c-0.7-0.5-1.7-0.9-2.9-0.9c-1.3,0-2.4,0.3-3.3,0.9c-0.9,0.6-1.5,1.5-1.9,2.5
		c-0.4,1-0.5,2.2-0.5,3.3c0,1.5,0.2,2.7,0.6,3.8s1.1,1.9,2,2.4s1.9,0.8,2.9,0.8c1.3,0,2.4-0.4,3.2-1.1S455.1,327.7,455.4,326.3z"/>
	<path fill="#FFFF33" d="M468.3,330.8c-0.8,0.7-1.5,1.1-2.3,1.4s-1.5,0.4-2.3,0.4c-1.4,0-2.4-0.3-3.2-1s-1.1-1.5-1.1-2.6
		c0-0.6,0.1-1.2,0.4-1.7c0.3-0.5,0.6-0.9,1.1-1.2s1-0.5,1.5-0.7c0.4-0.1,1-0.2,1.9-0.3c1.7-0.2,3-0.4,3.8-0.7c0-0.3,0-0.5,0-0.6
		c0-0.9-0.2-1.5-0.6-1.8c-0.5-0.5-1.3-0.7-2.4-0.7c-1,0-1.7,0.2-2.2,0.5s-0.8,1-1,1.8l-2.1-0.3c0.2-0.9,0.5-1.6,0.9-2.1
		s1.1-1,1.9-1.3c0.8-0.3,1.8-0.4,2.8-0.4c1.1,0,1.9,0.1,2.6,0.4c0.7,0.3,1.2,0.6,1.5,0.9c0.3,0.3,0.5,0.9,0.7,1.4
		c0.1,0.4,0.1,1,0.1,1.9v2.8c0,2,0,3.2,0.1,3.7c0.1,0.5,0.3,1,0.5,1.5h-2.2C468.5,331.8,468.4,331.3,468.3,330.8z M468.2,326
		c-0.8,0.3-1.9,0.6-3.4,0.8c-0.9,0.1-1.5,0.3-1.8,0.4s-0.6,0.4-0.8,0.7c-0.2,0.3-0.3,0.6-0.3,1c0,0.6,0.2,1,0.6,1.4s1,0.6,1.9,0.6
		c0.8,0,1.5-0.2,2.2-0.5s1.1-0.8,1.4-1.5c0.2-0.5,0.3-1.2,0.3-2.1V326L468.2,326L468.2,326z"/>
	<path fill="#FFFF33" d="M473.6,332.3v-12.4h1.9v1.8c0.9-1.4,2.2-2.1,4-2.1c0.8,0,1.4,0.1,2.1,0.4c0.7,0.3,1.1,0.6,1.4,1.1
		c0.3,0.5,0.5,1,0.7,1.6c0.1,0.4,0.1,1.1,0.1,2.1v7.7h-2.1v-7.6c0-0.9-0.1-1.5-0.2-1.9s-0.5-0.8-0.9-1c-0.4-0.2-0.9-0.4-1.5-0.4
		c-0.9,0-1.7,0.3-2.3,0.9s-1,1.7-1,3.2v6.8h-2.2V332.3z"/>
	<path fill="#FFFF33" d="M493.7,332.3v-17.2h6.4c1.3,0,2.4,0.2,3.2,0.5c0.8,0.3,1.4,0.9,1.9,1.6s0.7,1.5,0.7,2.3
		c0,0.7-0.2,1.4-0.6,2.1c-0.4,0.7-1,1.2-1.8,1.6c1,0.3,1.8,0.8,2.4,1.6s0.8,1.6,0.8,2.6c0,0.8-0.2,1.6-0.5,2.2
		c-0.3,0.6-0.8,1.2-1.3,1.6s-1.1,0.7-1.9,0.8c-0.8,0.1-1.7,0.3-2.8,0.3L493.7,332.3z M496,322.3h3.7c1,0,1.7-0.1,2.2-0.2
		c0.6-0.2,1-0.5,1.3-0.9c0.3-0.4,0.4-0.9,0.4-1.5s-0.1-1.1-0.4-1.5c-0.3-0.4-0.7-0.7-1.2-0.9s-1.4-0.2-2.6-0.2H496V322.3z
		 M496,330.3h4.3c0.7,0,1.3,0,1.5-0.1c0.5-0.1,1-0.3,1.3-0.5c0.3-0.2,0.6-0.5,0.9-1c0.3-0.5,0.3-0.9,0.3-1.4c0-0.6-0.2-1.2-0.5-1.7
		c-0.3-0.5-0.8-0.8-1.4-1c-0.6-0.2-1.4-0.3-2.5-0.3h-4L496,330.3z"/>
	<path fill="#FFFF33" d="M518.1,328.3l2.2,0.3c-0.3,1.3-1,2.3-1.9,3c-0.9,0.7-2.1,1.1-3.6,1.1c-1.8,0-3.3-0.6-4.3-1.7
		s-1.6-2.7-1.6-4.7c0-2.1,0.5-3.7,1.6-4.9s2.5-1.7,4.2-1.7c1.7,0,3,0.6,4.1,1.7s1.6,2.7,1.6,4.8c0,0.1,0,0.3,0,0.6h-9.3
		c0.1,1.4,0.5,2.4,1.2,3.1s1.6,1.1,2.6,1.1c0.8,0,1.4-0.2,2-0.6C517.5,330,517.8,329.2,518.1,328.3z M511.2,324.9h6.9
		c-0.1-1-0.4-1.8-0.8-2.4c-0.7-0.8-1.5-1.2-2.6-1.2c-1,0-1.8,0.3-2.4,1C511.7,323,511.2,323.8,511.2,324.9z"/>
	<path fill="#FFFF33" d="M529.8,332.3v-17.2h3.4l4.1,12.2c0.4,1.1,0.6,2,0.8,2.5c0.2-0.6,0.5-1.5,0.9-2.8l4.1-12h3.1v17.2H544v-14.3
		l-5,14.4h-2.1l-5-14.6v14.6H529.8z"/>
	<path fill="#FFFF33" d="M557.7,330.8c-0.8,0.7-1.5,1.1-2.3,1.4c-0.8,0.3-1.5,0.4-2.3,0.4c-1.4,0-2.4-0.3-3.2-1
		c-0.8-0.7-1.1-1.5-1.1-2.6c0-0.6,0.1-1.2,0.4-1.7s0.6-0.9,1.1-1.2s1-0.5,1.5-0.7c0.4-0.1,1-0.2,1.9-0.3c1.7-0.2,3-0.4,3.8-0.7
		c0-0.3,0-0.5,0-0.6c0-0.9-0.2-1.5-0.6-1.8c-0.5-0.5-1.3-0.7-2.4-0.7c-1,0-1.7,0.2-2.2,0.5s-0.8,1-1,1.8l-2.1-0.3
		c0.2-0.9,0.5-1.6,0.9-2.1c0.4-0.5,1.1-1,1.9-1.3s1.8-0.4,2.8-0.4c1.1,0,1.9,0.1,2.6,0.4s1.2,0.6,1.5,0.9s0.5,0.9,0.7,1.4
		c0.1,0.4,0.1,1,0.1,1.9v2.8c0,2,0,3.2,0.1,3.7c0.1,0.5,0.3,1,0.5,1.5h-2.2C557.9,331.8,557.8,331.3,557.7,330.8z M557.5,326
		c-0.8,0.3-1.9,0.6-3.4,0.8c-0.9,0.1-1.5,0.3-1.8,0.4s-0.6,0.4-0.8,0.7s-0.3,0.6-0.3,1c0,0.6,0.2,1,0.6,1.4s1,0.6,1.9,0.6
		c0.8,0,1.5-0.2,2.2-0.5c0.7-0.3,1.1-0.8,1.4-1.5c0.2-0.5,0.3-1.2,0.3-2.1L557.5,326z"/>
	<path fill="#FFFF33" d="M562.1,328.6l2.1-0.3c0.1,0.8,0.4,1.5,1,1.9c0.6,0.4,1.3,0.7,2.2,0.7c1,0,1.7-0.2,2.2-0.6s0.7-0.9,0.7-1.4
		s-0.2-0.9-0.6-1.1c-0.3-0.2-1-0.4-2.2-0.7c-1.5-0.4-2.6-0.7-3.2-1s-1.1-0.7-1.4-1.2s-0.5-1.1-0.5-1.7c0-0.6,0.1-1.1,0.4-1.5
		s0.6-0.9,1-1.2c0.3-0.2,0.8-0.4,1.3-0.6s1.2-0.3,1.8-0.3c1,0,1.8,0.1,2.6,0.4s1.3,0.7,1.6,1.1c0.3,0.4,0.6,1.1,0.7,1.9l-2.1,0.3
		c-0.1-0.6-0.4-1.1-0.8-1.5c-0.4-0.4-1.1-0.5-1.9-0.5c-1,0-1.7,0.2-2.1,0.5c-0.4,0.3-0.6,0.7-0.6,1.1c0,0.3,0.1,0.5,0.3,0.7
		c0.2,0.2,0.4,0.4,0.8,0.6c0.2,0.1,0.8,0.3,1.9,0.5c1.5,0.4,2.5,0.7,3.1,1c0.6,0.3,1.1,0.6,1.4,1.1s0.5,1.1,0.5,1.8s-0.2,1.4-0.6,2
		c-0.4,0.6-1,1.1-1.8,1.4c-0.8,0.3-1.6,0.5-2.6,0.5c-1.6,0-2.8-0.3-3.7-1C562.7,330.8,562.3,329.9,562.1,328.6z"/>
	<path fill="#FFFF33" d="M579.5,330.4l0.3,1.9c-0.6,0.1-1.1,0.2-1.6,0.2c-0.8,0-1.4-0.1-1.8-0.4c-0.4-0.3-0.7-0.6-0.9-1
		s-0.3-1.2-0.3-2.5v-7.2h-1.5v-1.6h1.5v-3.1l2.1-1.3v4.3h2.1v1.6h-2.1v7.3c0,0.6,0,1,0.1,1.2c0.1,0.2,0.2,0.3,0.4,0.4
		s0.4,0.2,0.7,0.2C578.9,330.5,579.2,330.5,579.5,330.4z"/>
	<path fill="#FFFF33" d="M590.1,328.3l2.2,0.3c-0.3,1.3-1,2.3-1.9,3c-0.9,0.7-2.1,1.1-3.6,1.1c-1.8,0-3.3-0.6-4.3-1.7
		s-1.6-2.7-1.6-4.7c0-2.1,0.5-3.7,1.6-4.9c1.1-1.2,2.5-1.7,4.2-1.7c1.7,0,3,0.6,4.1,1.7c1.1,1.1,1.6,2.7,1.6,4.8c0,0.1,0,0.3,0,0.6
		h-9.3c0.1,1.4,0.5,2.4,1.2,3.1s1.6,1.1,2.6,1.1c0.8,0,1.4-0.2,2-0.6C589.5,330,589.8,329.2,590.1,328.3z M583.2,324.9h6.9
		c-0.1-1-0.4-1.8-0.8-2.4c-0.7-0.8-1.5-1.2-2.6-1.2c-1,0-1.8,0.3-2.4,1S583.3,323.8,583.2,324.9z"/>
	<path fill="#FFFF33" d="M594.9,332.3v-12.4h1.9v1.9c0.5-0.9,0.9-1.5,1.3-1.7c0.4-0.2,0.9-0.4,1.4-0.4c0.7,0,1.4,0.2,2.2,0.7l-0.7,2
		c-0.5-0.3-1-0.5-1.5-0.5s-0.9,0.1-1.2,0.4s-0.6,0.7-0.8,1.2c-0.2,0.8-0.4,1.6-0.4,2.5v6.5h-2.2V332.3z"/>
	<path fill="#FFFFFF" d="M220.2,613.4l0.5-1.7c1.2,0.4,2.1,0.8,2.7,1.1c-0.1-1.4-0.2-2.4-0.2-2.9h1.7c0,0.8-0.1,1.7-0.3,2.9
		c0.8-0.4,1.7-0.8,2.8-1.1l0.5,1.7c-1,0.3-2,0.5-2.9,0.7c0.5,0.4,1.1,1.2,2,2.2l-1.4,1c-0.5-0.6-1-1.5-1.6-2.5
		c-0.6,1.1-1.1,1.9-1.5,2.5l-1.4-1c0.9-1.1,1.6-1.9,1.9-2.2C222.1,613.8,221.1,613.6,220.2,613.4z"/>
	<rect x="231.1" y="610.2" fill="#FFFFFF" width="2.3" height="17.2"/>
	<path fill="#FFFFFF" d="M237.6,627.4v-10.8h-1.9V615h1.9v-1.3c0-0.8,0.1-1.5,0.2-1.9c0.2-0.5,0.6-1,1.1-1.3s1.2-0.5,2.2-0.5
		c0.6,0,1.3,0.1,2,0.2l-0.3,1.8c-0.4-0.1-0.9-0.1-1.2-0.1c-0.6,0-1.1,0.1-1.4,0.4s-0.4,0.8-0.4,1.5v1.1h2.4v1.6h-2.4v10.8
		L237.6,627.4z"/>
	<path fill="#FFFFFF" d="M249.6,621.2c0-2.3,0.6-4,1.9-5.1c1.1-0.9,2.4-1.4,3.9-1.4c1.7,0,3.1,0.6,4.2,1.7s1.6,2.7,1.6,4.6
		c0,1.6-0.2,2.9-0.7,3.8s-1.2,1.6-2.1,2.1c-0.9,0.5-1.9,0.8-3,0.8c-1.7,0-3.2-0.6-4.2-1.7S249.6,623.3,249.6,621.2z M251.8,621.2
		c0,1.6,0.3,2.8,1,3.6s1.6,1.2,2.6,1.2s1.9-0.4,2.6-1.2s1-2,1-3.6c0-1.5-0.3-2.7-1-3.5s-1.6-1.2-2.6-1.2c-1.1,0-1.9,0.4-2.6,1.2
		S251.8,619.6,251.8,621.2z"/>
	<path fill="#FFFFFF" d="M263.8,632.2V615h1.9v1.6c0.5-0.6,1-1.1,1.5-1.4s1.3-0.5,2.1-0.5c1.1,0,2,0.3,2.8,0.8s1.4,1.3,1.8,2.3
		c0.4,1,0.6,2.1,0.6,3.3c0,1.3-0.2,2.4-0.7,3.4s-1.1,1.8-2,2.3c-0.9,0.5-1.8,0.8-2.7,0.8c-0.7,0-1.3-0.1-1.9-0.4
		c-0.6-0.3-1-0.7-1.4-1.1v6.1L263.8,632.2z M265.7,621.2c0,1.6,0.3,2.8,1,3.6s1.4,1.1,2.4,1.1c0.9,0,1.7-0.4,2.4-1.2
		c0.7-0.8,1-2,1-3.7c0-1.6-0.3-2.8-1-3.6s-1.4-1.2-2.3-1.2c-0.9,0-1.7,0.4-2.4,1.3C266.1,618.4,265.7,619.6,265.7,621.2z"/>
	<path fill="#FFFFFF" d="M281.7,625.5l0.3,1.9c-0.6,0.1-1.1,0.2-1.6,0.2c-0.8,0-1.4-0.1-1.8-0.4c-0.4-0.3-0.7-0.6-0.9-1
		c-0.2-0.4-0.3-1.2-0.3-2.5v-7.2h-1.5v-1.6h1.5v-3.1l2.1-1.3v4.3h2.1v1.6h-2.1v7.3c0,0.6,0,1,0.1,1.2c0.1,0.2,0.2,0.3,0.4,0.4
		c0.2,0.1,0.4,0.2,0.7,0.2C281,625.6,281.3,625.5,281.7,625.5z"/>
	<path fill="#FFFFFF" d="M283.8,612.6v-2.4h2.1v2.4H283.8z M283.8,627.4V615h2.1v12.4H283.8z"/>
	<path fill="#FFFFFF" d="M288.3,621.2c0-2.3,0.6-4,1.9-5.1c1.1-0.9,2.4-1.4,3.9-1.4c1.7,0,3.1,0.6,4.2,1.7c1.1,1.1,1.6,2.7,1.6,4.6
		c0,1.6-0.2,2.9-0.7,3.8s-1.2,1.6-2.1,2.1c-0.9,0.5-1.9,0.8-3,0.8c-1.7,0-3.2-0.6-4.2-1.7S288.3,623.3,288.3,621.2z M290.5,621.2
		c0,1.6,0.3,2.8,1,3.6s1.6,1.2,2.6,1.2s1.9-0.4,2.6-1.2s1-2,1-3.6c0-1.5-0.3-2.7-1-3.5s-1.6-1.2-2.6-1.2c-1.1,0-1.9,0.4-2.6,1.2
		S290.5,619.6,290.5,621.2z"/>
	<path fill="#FFFFFF" d="M302.5,627.4V615h1.9v1.8c0.9-1.4,2.2-2.1,4-2.1c0.8,0,1.4,0.1,2.1,0.4s1.1,0.6,1.4,1.1s0.5,1,0.7,1.6
		c0.1,0.4,0.1,1.1,0.1,2.1v7.7h-2.1V620c0-0.9-0.1-1.5-0.2-1.9c-0.1-0.4-0.5-0.8-0.9-1c-0.4-0.2-0.9-0.4-1.5-0.4
		c-0.9,0-1.7,0.3-2.3,0.9s-1,1.7-1,3.2v6.8h-2.2V627.4z"/>
	<path fill="#FFFFFF" d="M323.9,625.8c-0.8,0.7-1.5,1.1-2.3,1.4s-1.5,0.4-2.3,0.4c-1.4,0-2.4-0.3-3.2-1c-0.8-0.7-1.1-1.5-1.1-2.6
		c0-0.6,0.1-1.2,0.4-1.7s0.6-0.9,1.1-1.2s1-0.5,1.5-0.7c0.4-0.1,1-0.2,1.9-0.3c1.7-0.2,3-0.4,3.8-0.7c0-0.3,0-0.5,0-0.6
		c0-0.9-0.2-1.5-0.6-1.8c-0.5-0.5-1.3-0.7-2.4-0.7c-1,0-1.7,0.2-2.2,0.5s-0.8,1-1,1.8l-2.1-0.3c0.2-0.9,0.5-1.6,0.9-2.1
		c0.4-0.5,1.1-1,1.9-1.3s1.8-0.4,2.8-0.4c1.1,0,1.9,0.1,2.6,0.4s1.2,0.6,1.5,0.9s0.5,0.9,0.7,1.4c0.1,0.4,0.1,1,0.1,1.9v2.8
		c0,2,0,3.2,0.1,3.7c0.1,0.5,0.3,1,0.5,1.5h-2.2C324.1,626.9,324,626.4,323.9,625.8z M323.8,621.1c-0.8,0.3-1.9,0.6-3.4,0.8
		c-0.9,0.1-1.5,0.3-1.8,0.4s-0.6,0.4-0.8,0.7c-0.2,0.3-0.3,0.6-0.3,1c0,0.6,0.2,1,0.6,1.4c0.4,0.4,1,0.6,1.9,0.6
		c0.8,0,1.5-0.2,2.2-0.5s1.1-0.8,1.4-1.5c0.2-0.5,0.3-1.2,0.3-2.1v-0.8L323.8,621.1L323.8,621.1z"/>
	<rect x="329.1" y="610.2" fill="#FFFFFF" width="2.1" height="17.2"/>
	<rect x="341.8" y="610.2" fill="#FFFFFF" width="2.3" height="17.2"/>
	<path fill="#FFFFFF" d="M348.1,627.4v-17.2h6.5c1.1,0,2,0.1,2.6,0.2c0.8,0.1,1.6,0.4,2.1,0.8s1,0.9,1.4,1.7
		c0.4,0.8,0.5,1.5,0.5,2.3c0,1.5-0.5,2.7-1.4,3.7c-0.9,1-2.6,1.5-5,1.5h-4.4v7H348.1z M350.4,618.4h4.4c1.5,0,2.5-0.3,3.1-0.8
		c0.6-0.5,0.9-1.3,0.9-2.3c0-0.7-0.2-1.3-0.5-1.8s-0.8-0.8-1.4-1c-0.4-0.1-1.1-0.2-2.1-0.2h-4.4V618.4z"/>
	<path fill="#FFFFFF" d="M367.1,627.4l6.6-17.2h2.4l7,17.2h-2.6l-2-5.2h-7.2l-1.9,5.2H367.1z M372.1,620.3h5.8l-1.8-4.8
		c-0.5-1.4-1-2.6-1.2-3.6c-0.2,1.1-0.5,2.2-0.9,3.3L372.1,620.3z"/>
	<path fill="#FFFFFF" d="M392.9,627.4v-1.8c-1,1.4-2.3,2.1-3.9,2.1c-0.7,0-1.4-0.1-2.1-0.4s-1.1-0.6-1.4-1.1s-0.5-0.9-0.7-1.6
		c-0.1-0.4-0.1-1.1-0.1-2v-7.7h2.1v6.9c0,1.1,0,1.8,0.1,2.2c0.1,0.6,0.4,1,0.8,1.3c0.4,0.3,1,0.5,1.6,0.5c0.6,0,1.2-0.2,1.8-0.5
		s0.9-0.8,1.2-1.3c0.3-0.5,0.3-1.4,0.3-2.4v-6.7h2.1v12.4L392.9,627.4z"/>
	<path fill="#FFFFFF" d="M402.7,625.5l0.3,1.9c-0.6,0.1-1.1,0.2-1.6,0.2c-0.8,0-1.4-0.1-1.8-0.4c-0.4-0.3-0.7-0.6-0.9-1
		c-0.2-0.4-0.3-1.2-0.3-2.5v-7.2h-1.5v-1.6h1.5v-3.1l2.1-1.3v4.3h2.1v1.6h-2.1v7.3c0,0.6,0,1,0.1,1.2c0.1,0.2,0.2,0.3,0.4,0.4
		c0.2,0.1,0.4,0.2,0.7,0.2C402,625.6,402.3,625.5,402.7,625.5z"/>
	<path fill="#FFFFFF" d="M404,621.2c0-2.3,0.6-4,1.9-5.1c1.1-0.9,2.4-1.4,3.9-1.4c1.7,0,3.1,0.6,4.2,1.7c1.1,1.1,1.6,2.7,1.6,4.6
		c0,1.6-0.2,2.9-0.7,3.8s-1.2,1.6-2.1,2.1c-0.9,0.5-1.9,0.8-3,0.8c-1.7,0-3.2-0.6-4.2-1.7S404,623.3,404,621.2z M406.1,621.2
		c0,1.6,0.3,2.8,1,3.6s1.6,1.2,2.6,1.2s1.9-0.4,2.6-1.2s1-2,1-3.6c0-1.5-0.3-2.7-1-3.5s-1.6-1.2-2.6-1.2c-1.1,0-1.9,0.4-2.6,1.2
		S406.1,619.6,406.1,621.2z"/>
	<path fill="#FFFFFF" d="M417.6,621.9l2.1-0.2c0.1,0.9,0.3,1.6,0.7,2.1s0.9,1,1.7,1.3c0.8,0.3,1.7,0.5,2.6,0.5
		c0.9,0,1.6-0.1,2.3-0.4c0.7-0.3,1.2-0.6,1.5-1.1s0.5-0.9,0.5-1.5c0-0.5-0.2-1-0.5-1.4s-0.8-0.7-1.5-1c-0.5-0.2-1.5-0.5-3.1-0.8
		c-1.6-0.3-2.7-0.7-3.3-1.1c-0.8-0.4-1.4-1-1.8-1.6c-0.4-0.6-0.6-1.3-0.6-2.1c0-0.9,0.2-1.7,0.7-2.4s1.2-1.3,2.2-1.7s2-0.6,3.2-0.6
		c1.3,0,2.4,0.2,3.4,0.6s1.7,1,2.2,1.8s0.8,1.7,0.8,2.7l-2.2,0.2c-0.1-1.1-0.5-1.9-1.2-2.5s-1.7-0.8-3-0.8c-1.4,0-2.4,0.3-3,0.8
		c-0.6,0.5-0.9,1.1-0.9,1.8c0,0.6,0.2,1.1,0.7,1.5c0.4,0.4,1.6,0.8,3.4,1.2s3.1,0.8,3.8,1.1c1,0.5,1.7,1,2.2,1.8s0.7,1.5,0.7,2.4
		s-0.3,1.8-0.8,2.6s-1.3,1.4-2.3,1.9s-2.1,0.7-3.3,0.7c-1.6,0-2.9-0.2-3.9-0.7s-1.9-1.1-2.5-2C417.8,624.1,417.6,623,417.6,621.9z"
		/>
	<path fill="#FFFFFF" d="M436.4,627.4l-3.8-12.4h2.2l2,7.2l0.7,2.7c0-0.1,0.2-1,0.6-2.6l2-7.3h2.2l1.9,7.2l0.6,2.4l0.7-2.4l2.1-7.2
		h2.1l-3.9,12.4h-2.2l-2-7.5l-0.5-2.1l-2.5,9.6L436.4,627.4z"/>
	<path fill="#FFFFFF" d="M451.5,612.6v-2.4h2.1v2.4H451.5z M451.5,627.4V615h2.1v12.4H451.5z"/>
	<path fill="#FFFFFF" d="M461.4,625.5l0.3,1.9c-0.6,0.1-1.1,0.2-1.6,0.2c-0.8,0-1.4-0.1-1.8-0.4c-0.4-0.3-0.7-0.6-0.9-1
		c-0.2-0.4-0.3-1.2-0.3-2.5v-7.2h-1.5v-1.6h1.5v-3.1l2.1-1.3v4.3h2.1v1.6h-2.1v7.3c0,0.6,0,1,0.1,1.2c0.1,0.2,0.2,0.3,0.4,0.4
		c0.2,0.1,0.4,0.2,0.7,0.2C460.7,625.6,461,625.5,461.4,625.5z"/>
	<path fill="#FFFFFF" d="M471.6,622.8l2.1,0.3c-0.2,1.4-0.8,2.5-1.7,3.4s-2.1,1.2-3.4,1.2c-1.7,0-3.1-0.6-4.1-1.7s-1.6-2.7-1.6-4.8
		c0-1.3,0.2-2.5,0.7-3.5s1.1-1.8,2-2.3c0.9-0.5,1.9-0.8,3-0.8c1.4,0,2.5,0.3,3.3,1s1.4,1.7,1.7,2.9l-2.1,0.3c-0.2-0.8-0.5-1.5-1-1.9
		s-1.1-0.6-1.8-0.6c-1.1,0-1.9,0.4-2.6,1.1s-1,2-1,3.6c0,1.7,0.3,2.9,1,3.6s1.5,1.1,2.5,1.1c0.8,0,1.5-0.3,2.1-0.8
		C471.3,624.4,471.4,623.9,471.6,622.8z"/>
	<path fill="#FFFFFF" d="M475.5,627.4v-17.2h2.1v6.2c1-1.1,2.2-1.7,3.7-1.7c0.9,0,1.7,0.2,2.4,0.5c0.7,0.3,1.2,0.9,1.5,1.5
		s0.4,1.6,0.4,2.8v7.9h-2.1v-7.9c0-1.1-0.2-1.8-0.7-2.3s-1.1-0.7-1.9-0.7c-0.6,0-1.2,0.2-1.8,0.5s-0.9,0.8-1.2,1.3
		c-0.3,0.5-0.4,1.3-0.4,2.3v6.8L475.5,627.4z"/>
	<path fill="#FFFFFF" d="M495.5,612.6v-2.4h2.1v2.4H495.5z M495.5,627.4V615h2.1v12.4H495.5z"/>
	<path fill="#FFFFFF" d="M500,623.7l2.1-0.3c0.1,0.8,0.4,1.5,1,1.9c0.6,0.4,1.3,0.7,2.2,0.7c1,0,1.7-0.2,2.2-0.6s0.7-0.9,0.7-1.4
		s-0.2-0.9-0.6-1.1c-0.3-0.2-1-0.4-2.2-0.7c-1.5-0.4-2.6-0.7-3.2-1c-0.6-0.3-1.1-0.7-1.4-1.2s-0.5-1.1-0.5-1.7
		c0-0.6,0.1-1.1,0.4-1.5s0.6-0.9,1-1.2c0.3-0.2,0.8-0.4,1.3-0.6s1.2-0.3,1.8-0.3c1,0,1.8,0.1,2.6,0.4c0.8,0.3,1.3,0.7,1.6,1.1
		c0.3,0.4,0.6,1.1,0.7,1.9l-2.1,0.3c-0.1-0.6-0.4-1.1-0.8-1.5c-0.4-0.4-1.1-0.5-1.9-0.5c-1,0-1.7,0.2-2.1,0.5
		c-0.4,0.3-0.6,0.7-0.6,1.1c0,0.3,0.1,0.5,0.3,0.7c0.2,0.2,0.4,0.4,0.8,0.6c0.2,0.1,0.8,0.3,1.9,0.5c1.5,0.4,2.5,0.7,3.1,1
		c0.6,0.3,1.1,0.6,1.4,1.1s0.5,1.1,0.5,1.8s-0.2,1.4-0.6,2c-0.4,0.6-1,1.1-1.8,1.4s-1.6,0.5-2.6,0.5c-1.6,0-2.8-0.3-3.7-1
		S500.2,625,500,623.7z"/>
	<path fill="#FFFFFF" d="M519.5,612.6v-2.4h2.1v2.4H519.5z M519.5,627.4V615h2.1v12.4H519.5z"/>
	<path fill="#FFFFFF" d="M524.8,627.4V615h1.9v1.8c0.9-1.4,2.2-2.1,4-2.1c0.8,0,1.4,0.1,2.1,0.4s1.1,0.6,1.4,1.1s0.5,1,0.7,1.6
		c0.1,0.4,0.1,1.1,0.1,2.1v7.7h-2.1V620c0-0.9-0.1-1.5-0.2-1.9s-0.5-0.8-0.9-1s-0.9-0.4-1.5-0.4c-0.9,0-1.7,0.3-2.3,0.9
		s-1,1.7-1,3.2v6.8h-2.2V627.4z"/>
	<path fill="#FFFFFF" d="M537.3,623.7l2.1-0.3c0.1,0.8,0.4,1.5,1,1.9s1.3,0.7,2.2,0.7c1,0,1.7-0.2,2.2-0.6s0.7-0.9,0.7-1.4
		s-0.2-0.9-0.6-1.1c-0.3-0.2-1-0.4-2.2-0.7c-1.5-0.4-2.6-0.7-3.2-1s-1.1-0.7-1.4-1.2s-0.5-1.1-0.5-1.7c0-0.6,0.1-1.1,0.4-1.5
		s0.6-0.9,1-1.2c0.3-0.2,0.8-0.4,1.3-0.6s1.2-0.3,1.8-0.3c1,0,1.8,0.1,2.6,0.4s1.3,0.7,1.6,1.1s0.6,1.1,0.7,1.9l-2.1,0.3
		c-0.1-0.6-0.4-1.1-0.8-1.5s-1.1-0.5-1.9-0.5c-1,0-1.7,0.2-2.1,0.5s-0.6,0.7-0.6,1.1c0,0.3,0.1,0.5,0.3,0.7s0.4,0.4,0.8,0.6
		c0.2,0.1,0.8,0.3,1.9,0.5c1.5,0.4,2.5,0.7,3.1,1s1.1,0.6,1.4,1.1s0.5,1.1,0.5,1.8s-0.2,1.4-0.6,2s-1,1.1-1.8,1.4s-1.6,0.5-2.6,0.5
		c-1.6,0-2.8-0.3-3.7-1S537.5,625,537.3,623.7z"/>
	<path fill="#FFFFFF" d="M554.8,625.5l0.3,1.9c-0.6,0.1-1.1,0.2-1.6,0.2c-0.8,0-1.4-0.1-1.8-0.4s-0.7-0.6-0.9-1s-0.3-1.2-0.3-2.5
		v-7.2H549v-1.6h1.5v-3.1l2.1-1.3v4.3h2.1v1.6h-2.1v7.3c0,0.6,0,1,0.1,1.2s0.2,0.3,0.4,0.4s0.4,0.2,0.7,0.2
		C554.1,625.6,554.4,625.5,554.8,625.5z"/>
	<path fill="#FFFFFF" d="M564.9,625.8c-0.8,0.7-1.5,1.1-2.3,1.4s-1.5,0.4-2.3,0.4c-1.4,0-2.4-0.3-3.2-1s-1.1-1.5-1.1-2.6
		c0-0.6,0.1-1.2,0.4-1.7s0.6-0.9,1.1-1.2s1-0.5,1.5-0.7c0.4-0.1,1-0.2,1.9-0.3c1.7-0.2,3-0.4,3.8-0.7c0-0.3,0-0.5,0-0.6
		c0-0.9-0.2-1.5-0.6-1.8c-0.5-0.5-1.3-0.7-2.4-0.7c-1,0-1.7,0.2-2.2,0.5s-0.8,1-1,1.8l-2.1-0.3c0.2-0.9,0.5-1.6,0.9-2.1
		s1.1-1,1.9-1.3s1.8-0.4,2.8-0.4c1.1,0,1.9,0.1,2.6,0.4s1.2,0.6,1.5,0.9s0.5,0.9,0.7,1.4c0.1,0.4,0.1,1,0.1,1.9v2.8
		c0,2,0,3.2,0.1,3.7s0.3,1,0.5,1.5h-2.2C565.1,626.9,565,626.4,564.9,625.8z M564.8,621.1c-0.8,0.3-1.9,0.6-3.4,0.8
		c-0.9,0.1-1.5,0.3-1.8,0.4s-0.6,0.4-0.8,0.7s-0.3,0.6-0.3,1c0,0.6,0.2,1,0.6,1.4s1,0.6,1.9,0.6c0.8,0,1.5-0.2,2.2-0.5
		s1.1-0.8,1.4-1.5c0.2-0.5,0.3-1.2,0.3-2.1v-0.8L564.8,621.1L564.8,621.1z"/>
	<rect x="570.1" y="610.2" fill="#FFFFFF" width="2.1" height="17.2"/>
	<rect x="575.5" y="610.2" fill="#FFFFFF" width="2.1" height="17.2"/>
	<path fill="#FFFFFF" d="M589.3,623.4l2.2,0.3c-0.3,1.3-1,2.3-1.9,3s-2.1,1.1-3.6,1.1c-1.8,0-3.3-0.6-4.3-1.7s-1.6-2.7-1.6-4.7
		c0-2.1,0.5-3.7,1.6-4.9s2.5-1.7,4.2-1.7s3,0.6,4.1,1.7s1.6,2.7,1.6,4.8c0,0.1,0,0.3,0,0.6h-9.3c0.1,1.4,0.5,2.4,1.2,3.1
		s1.6,1.1,2.6,1.1c0.8,0,1.4-0.2,2-0.6S589,624.3,589.3,623.4z M582.4,620h6.9c-0.1-1-0.4-1.8-0.8-2.4c-0.7-0.8-1.5-1.2-2.6-1.2
		c-1,0-1.8,0.3-2.4,1S582.5,618.9,582.4,620z"/>
	<path fill="#FFFFFF" d="M602.3,627.4v-1.6c-0.8,1.2-1.9,1.9-3.5,1.9c-1,0-1.9-0.3-2.7-0.8s-1.5-1.3-1.9-2.3s-0.7-2.1-0.7-3.4
		c0-1.2,0.2-2.4,0.6-3.4s1-1.8,1.9-2.3s1.8-0.8,2.8-0.8c0.8,0,1.4,0.2,2,0.5s1.1,0.7,1.4,1.2v-6.2h2.1v17.2L602.3,627.4z
		 M595.6,621.2c0,1.6,0.3,2.8,1,3.6s1.5,1.2,2.4,1.2s1.7-0.4,2.3-1.1s1-1.9,1-3.5c0-1.7-0.3-3-1-3.8s-1.5-1.2-2.4-1.2
		s-1.7,0.4-2.3,1.1S595.6,619.5,595.6,621.2z"/>
	<path fill="#B5C0C9" d="M522.3,492h80.8c0.6-3.8,1.8-11.1,1.8-14.1c0-4-0.7-15.3-0.7-15.3h-82H521h-81c0,0-0.7,11.3-0.7,15.3
		c0,2.9,1.2,10.3,1.8,14.1h79.8H522.3z"/>
	<path fill="#0CBC18" d="M522.3,492v1.5h82.1l0.2-1.3c0.3-1.9,0.8-4.7,1.1-7.4c0.2-1.3,0.4-2.7,0.5-3.9c0.1-1.2,0.2-2.2,0.2-3.1
		c0-2.1-0.2-5.9-0.4-9.2c-0.2-3.3-0.4-6.2-0.4-6.2l-0.1-1.4h-83.4H521h-82.4l-0.1,1.4c0,0-0.2,2.8-0.4,6.2c-0.2,3.3-0.4,7.2-0.4,9.2
		c0,0.8,0.1,1.9,0.2,3c0.4,3.6,1.2,8.4,1.6,11.3l0.2,1.3h81.1h1.4V492v-1.5h-1.4h-79.8v1.5l1.5-0.2c-0.3-1.9-0.7-4.7-1.1-7.4
		c-0.2-1.3-0.4-2.6-0.5-3.8c-0.1-1.1-0.2-2.1-0.2-2.7c0-1.9,0.2-5.8,0.3-9.1c0.1-1.7,0.2-3.2,0.2-4.3s0.1-1.8,0.1-1.8l-1.5-0.1v1.5
		h81h1.2h82v-1.5l-1.5,0.1c0,0,0,0.7,0.1,1.8c0.1,1.7,0.2,4.3,0.4,6.9c0.1,2.6,0.2,5.1,0.2,6.5c0,0.7-0.1,1.6-0.2,2.8
		c-0.4,3.4-1.1,8.2-1.6,11.1l1.5,0.2v-1.5h-80.8V492z"/>
	<path fill="#0F1F30" d="M476.5,485.9v-17.2h7.6c1.5,0,2.7,0.2,3.5,0.5s1.4,0.9,1.9,1.6s0.7,1.6,0.7,2.6c0,1.2-0.4,2.2-1.2,3.1
		c-0.8,0.8-2,1.4-3.7,1.6c0.6,0.3,1.1,0.6,1.4,0.9c0.7,0.6,1.3,1.4,1.9,2.3l3,4.7h-2.9l-2.3-3.6c-0.7-1-1.2-1.8-1.6-2.4
		s-0.8-0.9-1.2-1.1s-0.7-0.4-1-0.5s-0.7-0.1-1.3-0.1h-2.6v7.6H476.5z M478.7,476.3h4.9c1,0,1.9-0.1,2.4-0.3c0.6-0.2,1-0.6,1.3-1
		s0.5-1,0.5-1.5c0-0.8-0.3-1.5-0.9-2s-1.5-0.8-2.8-0.8h-5.4V476.3z"/>
	<path fill="#0F1F30" d="M502,481.9l2.2,0.3c-0.3,1.3-1,2.3-1.9,3s-2.1,1.1-3.6,1.1c-1.8,0-3.3-0.6-4.3-1.7s-1.6-2.7-1.6-4.7
		c0-2.1,0.5-3.7,1.6-4.9c1.1-1.2,2.5-1.7,4.2-1.7s3,0.6,4.1,1.7s1.6,2.7,1.6,4.8c0,0.1,0,0.3,0,0.6H495c0.1,1.4,0.5,2.4,1.2,3.1
		s1.6,1.1,2.6,1.1c0.8,0,1.4-0.2,2-0.6S501.7,482.8,502,481.9z M495.1,478.5h6.9c-0.1-1-0.4-1.8-0.8-2.4c-0.7-0.8-1.5-1.2-2.6-1.2
		c-1,0-1.8,0.3-2.4,1C495.5,476.5,495.1,477.4,495.1,478.5z"/>
	<path fill="#0F1F30" d="M515,481.3l2.1,0.3c-0.2,1.4-0.8,2.5-1.7,3.4s-2.1,1.2-3.4,1.2c-1.7,0-3.1-0.6-4.1-1.7s-1.6-2.7-1.6-4.8
		c0-1.3,0.2-2.5,0.7-3.5c0.4-1,1.1-1.8,2-2.3s1.9-0.8,3-0.8c1.4,0,2.5,0.3,3.3,1s1.4,1.7,1.7,2.9l-2.1,0.3c-0.2-0.8-0.5-1.5-1-1.9
		s-1.1-0.6-1.8-0.6c-1.1,0-1.9,0.4-2.6,1.1c-0.7,0.8-1,2-1,3.6c0,1.7,0.3,2.9,1,3.6s1.5,1.1,2.5,1.1c0.8,0,1.5-0.3,2.1-0.8
		C514.7,482.9,514.8,482.4,515,481.3z"/>
	<path fill="#0F1F30" d="M527.4,481.9l2.2,0.3c-0.3,1.3-1,2.3-1.9,3s-2.1,1.1-3.6,1.1c-1.8,0-3.3-0.6-4.3-1.7s-1.6-2.7-1.6-4.7
		c0-2.1,0.5-3.7,1.6-4.9c1.1-1.2,2.5-1.7,4.2-1.7s3,0.6,4.1,1.7s1.6,2.7,1.6,4.8c0,0.1,0,0.3,0,0.6h-9.3c0.1,1.4,0.5,2.4,1.2,3.1
		s1.6,1.1,2.6,1.1c0.8,0,1.4-0.2,2-0.6S527,482.8,527.4,481.9z M520.4,478.5h6.9c-0.1-1-0.4-1.8-0.8-2.4c-0.7-0.8-1.5-1.2-2.6-1.2
		c-1,0-1.8,0.3-2.4,1C520.9,476.5,520.5,477.4,520.4,478.5z"/>
	<path fill="#0F1F30" d="M532.2,471.1v-2.4h2.1v2.4H532.2z M532.2,485.9v-12.4h2.1v12.4H532.2z"/>
	<path fill="#0F1F30" d="M541,485.9l-4.7-12.4h2.2l2.7,7.5c0.3,0.8,0.6,1.6,0.8,2.5c0.2-0.7,0.4-1.4,0.8-2.4l2.8-7.6h2.2l-4.7,12.4
		H541z"/>
	<path fill="#0F1F30" d="M558,481.9l2.2,0.3c-0.3,1.3-1,2.3-1.9,3s-2.1,1.1-3.6,1.1c-1.8,0-3.3-0.6-4.3-1.7s-1.6-2.7-1.6-4.7
		c0-2.1,0.5-3.7,1.6-4.9c1.1-1.2,2.5-1.7,4.2-1.7s3,0.6,4.1,1.7s1.6,2.7,1.6,4.8c0,0.1,0,0.3,0,0.6H551c0.1,1.4,0.5,2.4,1.2,3.1
		s1.6,1.1,2.6,1.1c0.8,0,1.4-0.2,2-0.6S557.7,482.8,558,481.9z M551.1,478.5h6.9c-0.1-1-0.4-1.8-0.8-2.4c-0.7-0.8-1.5-1.2-2.6-1.2
		c-1,0-1.8,0.3-2.4,1C551.5,476.5,551.2,477.4,551.1,478.5z"/>
	<path fill="#0F1F30" d="M562.8,485.9v-12.4h1.9v1.9c0.5-0.9,0.9-1.5,1.3-1.7s0.9-0.4,1.4-0.4c0.7,0,1.4,0.2,2.2,0.7l-0.7,2
		c-0.5-0.3-1-0.5-1.5-0.5s-0.9,0.1-1.2,0.4c-0.4,0.3-0.6,0.7-0.8,1.2c-0.2,0.8-0.4,1.6-0.4,2.5v6.5h-2.2V485.9z"/>
	<path fill="#8A9AA5" d="M583.2,477.5c0,1-1,1.7-2.3,1.7s-2.3-0.8-2.3-1.7c0-1,1-1.7,2.3-1.7S583.2,476.6,583.2,477.5z"/>
	<path fill="#8A9AA5" d="M594.7,477.5c0-1,1-1.7,2.3-1.7s2.3,0.8,2.3,1.7c0,1-1,1.7-2.3,1.7C595.7,479.3,594.7,478.5,594.7,477.5z"
		/>
	<path fill="#8A9AA5" d="M589.3,473.5c-1,0-1.7-1-1.7-2.3s0.8-2.3,1.7-2.3s1.7,1,1.7,2.3C591.1,472.5,590.3,473.5,589.3,473.5z"/>
	<path fill="#8A9AA5" d="M589,481.9c1,0,1.7,1,1.7,2.3s-0.8,2.3-1.7,2.3c-1,0-1.7-1-1.7-2.3C587.2,483,588,481.9,589,481.9z"/>
	<path fill="#8A9AA5" d="M591.5,477.9c0,1.4-1.1,2.5-2.5,2.5s-2.5-1.1-2.5-2.5s1.1-2.5,2.5-2.5S591.5,476.5,591.5,477.9z"/>
	<path fill="#8A9AA5" d="M445,483c0-0.6,0.7-1.1,1.5-1.1h20c0.8,0,1.5,0.5,1.5,1.1v3.9c0,0.6-0.7,1.1-1.5,1.1h-20
		c-0.8,0-1.5-0.5-1.5-1.1V483z"/>
	<path fill="#B5C0C9" d="M522.3,565.1h80.8c0.6-3.8,1.8-11.1,1.8-14.1c0-4-0.7-15.3-0.7-15.3h-82H521h-81c0,0-0.7,11.3-0.7,15.3
		c0,2.9,1.2,10.3,1.8,14.1h79.8H522.3z"/>
	<path fill="#0CBC18" d="M522.3,565.1v1.5h82.1l0.2-1.3c0.3-1.9,0.8-4.7,1.1-7.4c0.2-1.3,0.4-2.7,0.5-3.9c0.1-1.2,0.2-2.2,0.2-3.1
		c0-2.1-0.2-5.9-0.4-9.2c-0.2-3.3-0.4-6.2-0.4-6.2l-0.1-1.4h-83.4H521h-82.4l-0.1,1.4c0,0-0.2,2.8-0.4,6.2c-0.2,3.3-0.4,7.2-0.4,9.2
		c0,0.8,0.1,1.9,0.2,3c0.4,3.6,1.2,8.4,1.6,11.3l0.2,1.3h81.1h1.4V565.1v-1.5h-1.4h-79.8v1.5l1.5-0.2c-0.3-1.9-0.7-4.7-1.1-7.4
		c-0.2-1.3-0.4-2.6-0.5-3.8c-0.1-1.1-0.2-2.1-0.2-2.7c0-1.9,0.2-5.8,0.3-9.1c0.1-1.7,0.2-3.2,0.2-4.3c0.1-1.1,0.1-1.8,0.1-1.8
		l-1.5-0.1v1.5h81h1.2h82v-1.5l-1.5,0.1c0,0,0,0.7,0.1,1.8c0.1,1.7,0.2,4.3,0.4,6.9c0.1,2.6,0.2,5.1,0.2,6.5c0,0.7-0.1,1.6-0.2,2.8
		c-0.4,3.4-1.1,8.2-1.6,11.1l1.5,0.2v-1.5h-80.8V565.1z"/>
	<path fill="#0F1F30" d="M476.5,559v-17.2h7.6c1.5,0,2.7,0.2,3.5,0.5s1.4,0.9,1.9,1.6s0.7,1.6,0.7,2.6c0,1.2-0.4,2.2-1.2,3.1
		c-0.8,0.9-2,1.4-3.7,1.6c0.6,0.3,1.1,0.6,1.4,0.9c0.7,0.6,1.3,1.4,1.9,2.3l3,4.7h-2.9l-2.3-3.6c-0.7-1-1.2-1.8-1.6-2.4
		c-0.4-0.6-0.8-0.9-1.2-1.1s-0.7-0.4-1-0.5c-0.3-0.1-0.7-0.1-1.3-0.1h-2.6v7.6H476.5z M478.7,549.4h4.9c1,0,1.9-0.1,2.4-0.3
		c0.5-0.2,1-0.6,1.3-1c0.3-0.4,0.5-1,0.5-1.5c0-0.8-0.3-1.5-0.9-2s-1.5-0.8-2.8-0.8h-5.4V549.4z"/>
	<path fill="#0F1F30" d="M502,555l2.2,0.3c-0.3,1.3-1,2.3-1.9,3s-2.1,1.1-3.6,1.1c-1.8,0-3.3-0.6-4.3-1.7c-1-1.1-1.6-2.7-1.6-4.7
		c0-2.1,0.5-3.7,1.6-4.9c1.1-1.2,2.5-1.7,4.2-1.7s3,0.6,4.1,1.7c1.1,1.1,1.6,2.7,1.6,4.8c0,0.1,0,0.3,0,0.6H495
		c0.1,1.4,0.5,2.4,1.2,3.1s1.6,1.1,2.6,1.1c0.8,0,1.4-0.2,2-0.6C501.4,556.7,501.7,555.8,502,555z M495.1,551.5h6.9
		c-0.1-1-0.4-1.8-0.8-2.4c-0.7-0.8-1.5-1.2-2.6-1.2c-1,0-1.8,0.3-2.4,1S495.1,550.5,495.1,551.5z"/>
	<path fill="#0F1F30" d="M515,554.4l2.1,0.3c-0.2,1.4-0.8,2.5-1.7,3.4c-0.9,0.9-2.1,1.2-3.4,1.2c-1.7,0-3.1-0.6-4.1-1.7
		c-1-1.1-1.6-2.7-1.6-4.8c0-1.3,0.2-2.5,0.7-3.5s1.1-1.8,2-2.3s1.9-0.8,3-0.8c1.4,0,2.5,0.3,3.3,1s1.4,1.7,1.7,2.9l-2.1,0.3
		c-0.2-0.8-0.5-1.5-1-1.9c-0.5-0.4-1.1-0.6-1.8-0.6c-1.1,0-1.9,0.4-2.6,1.1s-1,2-1,3.6c0,1.7,0.3,2.9,1,3.6s1.5,1.1,2.5,1.1
		c0.8,0,1.5-0.3,2.1-0.8C514.7,556,514.8,555.5,515,554.4z"/>
	<path fill="#0F1F30" d="M527.4,555l2.2,0.3c-0.3,1.3-1,2.3-1.9,3s-2.1,1.1-3.6,1.1c-1.8,0-3.3-0.6-4.3-1.7c-1-1.1-1.6-2.7-1.6-4.7
		c0-2.1,0.5-3.7,1.6-4.9c1.1-1.2,2.5-1.7,4.2-1.7s3,0.6,4.1,1.7c1.1,1.1,1.6,2.7,1.6,4.8c0,0.1,0,0.3,0,0.6h-9.3
		c0.1,1.4,0.5,2.4,1.2,3.1s1.6,1.1,2.6,1.1c0.8,0,1.4-0.2,2-0.6C526.8,556.7,527,555.8,527.4,555z M520.4,551.5h6.9
		c-0.1-1-0.4-1.8-0.8-2.4c-0.7-0.8-1.5-1.2-2.6-1.2c-1,0-1.8,0.3-2.4,1S520.5,550.5,520.4,551.5z"/>
	<path fill="#0F1F30" d="M532.2,544.2v-2.4h2.1v2.4H532.2z M532.2,559v-12.4h2.1V559H532.2z"/>
	<path fill="#0F1F30" d="M541,559l-4.7-12.4h2.2l2.7,7.5c0.3,0.8,0.6,1.6,0.8,2.5c0.2-0.7,0.4-1.4,0.8-2.4l2.8-7.6h2.2l-4.7,12.4
		H541z"/>
	<path fill="#0F1F30" d="M558,555l2.2,0.3c-0.3,1.3-1,2.3-1.9,3s-2.1,1.1-3.6,1.1c-1.8,0-3.3-0.6-4.3-1.7c-1-1.1-1.6-2.7-1.6-4.7
		c0-2.1,0.5-3.7,1.6-4.9c1.1-1.2,2.5-1.7,4.2-1.7s3,0.6,4.1,1.7c1.1,1.1,1.6,2.7,1.6,4.8c0,0.1,0,0.3,0,0.6H551
		c0.1,1.4,0.5,2.4,1.2,3.1s1.6,1.1,2.6,1.1c0.8,0,1.4-0.2,2-0.6C557.4,556.7,557.7,555.8,558,555z M551.1,551.5h6.9
		c-0.1-1-0.4-1.8-0.8-2.4c-0.7-0.8-1.5-1.2-2.6-1.2c-1,0-1.8,0.3-2.4,1S551.2,550.5,551.1,551.5z"/>
	<path fill="#0F1F30" d="M562.8,559v-12.4h1.9v1.9c0.5-0.9,0.9-1.5,1.3-1.7s0.9-0.4,1.4-0.4c0.7,0,1.4,0.2,2.2,0.7l-0.7,2
		c-0.5-0.3-1-0.5-1.5-0.5s-0.9,0.1-1.2,0.4s-0.6,0.7-0.8,1.2c-0.2,0.8-0.4,1.6-0.4,2.5v6.5h-2.2V559z"/>
	<path fill="#8A9AA5" d="M583.2,550.6c0,1-1,1.7-2.3,1.7s-2.3-0.8-2.3-1.7c0-1,1-1.7,2.3-1.7S583.2,549.7,583.2,550.6z"/>
	<path fill="#8A9AA5" d="M594.7,550.6c0-1,1-1.7,2.3-1.7s2.3,0.8,2.3,1.7c0,1-1,1.7-2.3,1.7S594.7,551.6,594.7,550.6z"/>
	<path fill="#8A9AA5" d="M589.3,546.6c-1,0-1.7-1-1.7-2.3s0.8-2.3,1.7-2.3s1.7,1,1.7,2.3C591.1,545.6,590.3,546.6,589.3,546.6z"/>
	<path fill="#8A9AA5" d="M589,555c1,0,1.7,1,1.7,2.3s-0.8,2.3-1.7,2.3c-1,0-1.7-1-1.7-2.3C587.2,556,588,555,589,555z"/>
	<path fill="#8A9AA5" d="M591.5,550.9c0,1.4-1.1,2.5-2.5,2.5s-2.5-1.1-2.5-2.5c0-1.4,1.1-2.5,2.5-2.5
		C590.4,548.5,591.5,549.6,591.5,550.9z"/>
	<path fill="#8A9AA5" d="M445,556c0-0.6,0.7-1.1,1.5-1.1h20c0.8,0,1.5,0.5,1.5,1.1v3.9c0,0.6-0.7,1.1-1.5,1.1h-20
		c-0.8,0-1.5-0.5-1.5-1.1V556z"/>
	<path fill="#FFFFFF" d="M37.7,240.8v-8.7l1.3-42.3c8.7-42.3,47.1-41.4,47.1-41.4s39.1-2.2,47.8,41.4l1.5,42.3v8.7
		c-3.8,9.3-11.5,11-11.5,11H49.2C49.1,251.9,41.1,249.1,37.7,240.8z"/>
	<path fill="#FFFFFF" d="M37.7,240.8h1v-8.7l1.3-42.3l-1,0l1,0.2c2.1-10,5.8-17.5,10.2-23.2c6.7-8.5,15.1-12.8,22.1-15.1
		c7-2.2,12.6-2.4,13.6-2.4l0.1,0l0,0l0.1,0l0,0c0.1,0,0.4,0,0.8,0c2.9,0,12.5,0.4,22.2,5.7c4.9,2.6,9.8,6.5,14,12.1
		c4.2,5.6,7.7,13,9.6,22.8l1-0.2l-1,0l1.5,42.3l0,8.7h1l-0.9-0.4c-1.8,4.4-4.5,7-6.8,8.5c-1.1,0.7-2.1,1.2-2.9,1.5
		c-0.4,0.1-0.7,0.2-0.8,0.3c-0.1,0-0.2,0-0.2,0.1l0,0l0,0l0.1,0.3l-0.1-0.3l0,0l0.1,0.3l-0.1-0.3l0.2,1v-1H49.2
		c-0.3,0-0.5,0.1-0.7,0.3l0.7,0.7l-0.2-1c-0.1,0-0.3,0.1-0.5,0.3l0.7,0.7l-0.2-1l0.2,0.9v-1c0,0-0.1,0-0.2,0l0.2,0.9v-1v0.7l0.2-0.7
		c0,0,0,0-0.2,0v0.7l0.2-0.7l0,0c0,0-0.3-0.1-0.5-0.2c-1-0.4-2.9-1.3-4.8-3c-2-1.7-4-4-5.4-7.2L37.7,240.8h1H37.7l-0.9,0.4
		c1.8,4.3,4.7,7.2,7.2,9c1.3,0.9,2.4,1.5,3.3,2c0.4,0.2,0.8,0.4,1.1,0.5c0.1,0.1,0.3,0.1,0.4,0.1l0.2,0c0.1,0,0.1,0,0.3,0
		c0,0,0.1,0,0.2,0c0.1,0,0.3-0.1,0.5-0.3l-0.7-0.7v1h74.7l0.2,0c0.1,0,2.1-0.5,4.7-2.2c2.5-1.7,5.6-4.6,7.5-9.4
		c0.1-0.1,0.1-0.2,0.1-0.4v-8.7l0,0l-1.5-42.3l0-0.2c-2-10-5.6-17.7-10-23.6c-6.6-8.8-14.9-13.5-22.2-15.9
		c-7.2-2.5-13.4-2.7-15.7-2.7c-0.6,0-1,0-1,0l0.1,1l0-1c0,0-0.1,0-0.2,0c-1.5,0-11.3,0.2-21.9,5.6c-5.3,2.7-10.7,6.7-15.4,12.6
		c-4.7,5.9-8.5,13.7-10.6,24l0,0.2l-1.3,42.3l0,0v8.7c0,0.1,0,0.3,0.1,0.4L37.7,240.8z"/>
	<path d="M37.7,232.4h97.7c0.1,0,0.3-0.1,0.3-0.3c0-0.1-0.1-0.3-0.3-0.3H37.7c-0.1,0-0.3,0.1-0.3,0.3
		C37.4,232.3,37.6,232.4,37.7,232.4"/>
	<path fill="#FFFFFF" d="M135.4,230.6H37.7c-0.8,0-1.5,0.7-1.5,1.5c0,0.8,0.7,1.5,1.5,1.5h97.7c0.8,0,1.5-0.7,1.5-1.5
		C136.9,231.3,136.2,230.6,135.4,230.6"/>
	<path fill="#B5C0C9" d="M37.7,232.4v8.7c2.9,7.6,11.6,10.7,11.6,10.7h75c7.2-1.5,11.1-10.7,11.1-10.7v-8.7H37.7z"/>
	<path fill="#FFFFFF" d="M37.7,232.4h-1v8.9l0.1,0.2c1.6,4.1,4.6,6.9,7.3,8.7c2.6,1.8,4.9,2.6,4.9,2.6l0.2,0.1h75.3l0.1,0
		c2-0.4,3.7-1.4,5.2-2.5c2.2-1.7,3.8-3.9,4.9-5.7c1.1-1.8,1.7-3.1,1.7-3.1l0.1-0.2v-9.9H36.7v1H37.7v1h96.7v7.7h1l-0.9-0.4l0,0
		c-0.1,0.2-1.1,2.5-2.9,4.8c-0.9,1.2-2,2.3-3.2,3.3c-1.3,1-2.7,1.7-4.2,2l0.2,1v-1h-75v1l0.3-0.9l0,0c-0.2-0.1-2.3-0.9-4.7-2.5
		c-2.4-1.7-5-4.2-6.3-7.6l-0.9,0.4h1v-8.7H37.7v1V232.4z"/>
	<path fill="#293047" d="M41.8,211.7l6.6-17.2h2.4l7,17.2h-2.5l-2-5.2h-7.2l-1.9,5.2H41.8z M46.7,204.6h5.8l-1.8-4.8
		c-0.5-1.4-1-2.6-1.2-3.6c-0.2,1.1-0.5,2.2-0.9,3.3L46.7,204.6z"/>
	<path fill="#293047" d="M59.4,211.7v-12.4h1.9v1.8c0.9-1.4,2.2-2.1,4-2.1c0.8,0,1.4,0.1,2.1,0.4s1.1,0.6,1.4,1.1s0.5,1,0.7,1.6
		c0.1,0.4,0.1,1.1,0.1,2.1v7.7h-2.1v-7.6c0-0.9-0.1-1.5-0.2-1.9c-0.1-0.4-0.5-0.8-0.9-1s-0.9-0.4-1.5-0.4c-0.9,0-1.7,0.3-2.3,0.9
		s-1,1.7-1,3.2v6.8h-2.2V211.7z"/>
	<path fill="#293047" d="M77.4,209.8l0.3,1.9c-0.6,0.1-1.1,0.2-1.6,0.2c-0.8,0-1.4-0.1-1.8-0.4s-0.7-0.6-0.9-1
		c-0.2-0.4-0.3-1.2-0.3-2.5v-7.2h-1.5v-1.6h1.5v-3.1l2.1-1.3v4.3h2.1v1.6h-2.1v7.3c0,0.6,0,1,0.1,1.2c0.1,0.2,0.2,0.3,0.4,0.4
		s0.4,0.2,0.7,0.2C76.7,209.9,77,209.8,77.4,209.8z"/>
	<path fill="#293047" d="M87.9,207.7l2.2,0.3c-0.3,1.3-1,2.3-1.9,3s-2.1,1.1-3.6,1.1c-1.8,0-3.3-0.6-4.3-1.7s-1.6-2.7-1.6-4.7
		c0-2.1,0.5-3.7,1.6-4.9c1.1-1.2,2.5-1.7,4.2-1.7s3,0.6,4.1,1.7c1.1,1.1,1.6,2.7,1.6,4.8c0,0.1,0,0.3,0,0.6h-9.3
		c0.1,1.4,0.5,2.4,1.2,3.1s1.6,1.1,2.6,1.1c0.8,0,1.4-0.2,2-0.6S87.6,208.6,87.9,207.7z M81,204.3h6.9c-0.1-1-0.4-1.8-0.8-2.4
		c-0.7-0.8-1.5-1.2-2.6-1.2c-1,0-1.8,0.3-2.4,1S81.1,203.2,81,204.3z"/>
	<path fill="#293047" d="M92.8,211.7v-12.4h1.9v1.8c0.9-1.4,2.2-2.1,4-2.1c0.8,0,1.4,0.1,2.1,0.4s1.1,0.6,1.4,1.1s0.5,1,0.7,1.6
		c0.1,0.4,0.1,1.1,0.1,2.1v7.7h-2.1v-7.6c0-0.9-0.1-1.5-0.2-1.9c-0.1-0.4-0.5-0.8-0.9-1s-0.9-0.4-1.5-0.4c-0.9,0-1.7,0.3-2.3,0.9
		s-1,1.7-1,3.2v6.8h-2.2V211.7z"/>
	<path fill="#293047" d="M106.1,211.7v-12.4h1.9v1.8c0.9-1.4,2.2-2.1,4-2.1c0.8,0,1.4,0.1,2.1,0.4s1.1,0.6,1.4,1.1s0.5,1,0.7,1.6
		c0.1,0.4,0.1,1.1,0.1,2.1v7.7h-2.1v-7.6c0-0.9-0.1-1.5-0.2-1.9c-0.1-0.4-0.5-0.8-0.9-1s-0.9-0.4-1.5-0.4c-0.9,0-1.7,0.3-2.3,0.9
		s-1,1.7-1,3.2v6.8h-2.2V211.7z"/>
	<path fill="#293047" d="M127.6,210.1c-0.8,0.7-1.5,1.1-2.3,1.4s-1.5,0.4-2.3,0.4c-1.4,0-2.4-0.3-3.2-1c-0.8-0.7-1.1-1.5-1.1-2.6
		c0-0.6,0.1-1.2,0.4-1.7s0.6-0.9,1.1-1.2c0.5-0.3,1-0.5,1.5-0.7c0.4-0.1,1-0.2,1.9-0.3c1.7-0.2,3-0.4,3.8-0.7c0-0.3,0-0.5,0-0.6
		c0-0.9-0.2-1.5-0.6-1.8c-0.5-0.5-1.3-0.7-2.4-0.7c-1,0-1.7,0.2-2.2,0.5s-0.8,1-1,1.8l-2.1-0.3c0.2-0.9,0.5-1.6,0.9-2.1
		s1.1-1,1.9-1.3c0.8-0.3,1.8-0.4,2.8-0.4c1.1,0,1.9,0.1,2.6,0.4s1.2,0.6,1.5,0.9s0.5,0.9,0.7,1.4c0.1,0.4,0.1,1,0.1,1.9v2.8
		c0,2,0,3.2,0.1,3.7s0.3,1,0.5,1.5H128C127.8,211.2,127.7,210.7,127.6,210.1z M127.4,205.4c-0.8,0.3-1.9,0.6-3.4,0.8
		c-0.9,0.1-1.5,0.3-1.8,0.4c-0.3,0.1-0.6,0.4-0.8,0.7s-0.3,0.6-0.3,1c0,0.6,0.2,1,0.6,1.4c0.4,0.4,1,0.6,1.9,0.6
		c0.8,0,1.5-0.2,2.2-0.5s1.1-0.8,1.4-1.5c0.2-0.5,0.3-1.2,0.3-2.1L127.4,205.4z"/>
	<rect x="400.4" y="472.9" fill="#B5C0C9" width="11.9" height="9.4"/>
	<polygon fill="#0CBC18" points="400.4,472.9 400.4,474.4 410.8,474.4 410.8,480.8 401.9,480.8 401.9,472.9 400.4,472.9 
		400.4,474.4 400.4,472.9 398.9,472.9 398.9,483.8 413.8,483.8 413.8,471.4 398.9,471.4 398.9,472.9 	"/>
	<path fill="#B5C0C9" d="M395.4,470.1c0-0.8,0.6-1.5,1.4-1.5h2.2c0.8,0,1.5,0.6,1.5,1.5v15.2c0,0.8-0.6,1.5-1.5,1.5h-2.2
		c-0.8,0-1.4-0.6-1.4-1.5V470.1z"/>
	<path fill="#0CBC18" d="M395.4,470.1h1.5l0,0l0,0l-0.1-0.1l0,0.1l0,0l-0.1-0.1l0,0.1l-0.1-0.2l0,0.2l0.1,0l-0.1-0.2l0,0.2h2.2v15.2
		h-2.2l0,0l0,0.2l0.1-0.1l-0.1-0.1l0,0.2l0.1-0.1l-0.1,0.1l0.1-0.1l0,0l-0.1,0.1l0.1-0.1l0,0l0,0l0,0l0,0l0,0l0-0.1v-15.2H395.4
		h-1.5v15.2c0,0.8,0.3,1.6,0.8,2.1c0.5,0.6,1.3,0.9,2.1,0.9h2.2c0.8,0,1.6-0.3,2.2-0.9c0.5-0.6,0.8-1.3,0.8-2.1v-15.2
		c0-0.8-0.3-1.6-0.9-2.2c-0.6-0.5-1.3-0.8-2.1-0.8h-2.2c-0.8,0-1.6,0.4-2.1,0.9c-0.5,0.6-0.8,1.3-0.8,2.1H395.4z"/>
	<rect x="321" y="472.9" fill="#B5C0C9" width="12" height="9.4"/>
	<polygon fill="#0CBC18" points="321,472.9 321,474.4 331.5,474.4 331.5,480.8 322.5,480.8 322.5,472.9 321,472.9 321,474.4 
		321,472.9 319.5,472.9 319.5,483.8 334.5,483.8 334.5,471.4 319.5,471.4 319.5,472.9 	"/>
	<path fill="#B5C0C9" d="M338,470.1c0-0.8-0.6-1.5-1.4-1.5h-2.2c-0.8,0-1.5,0.6-1.5,1.5v15.2c0,0.8,0.6,1.5,1.5,1.5h2.2
		c0.8,0,1.4-0.6,1.4-1.5V470.1z"/>
	<path fill="#0CBC18" d="M338,470.1h1.5c0-0.8-0.3-1.5-0.8-2.1c-0.5-0.6-1.3-0.9-2.1-0.9h-2.2c-0.8,0-1.5,0.3-2.1,0.8
		c-0.6,0.5-0.9,1.3-0.9,2.2v15.2c0,0.8,0.3,1.5,0.8,2.1c0.5,0.6,1.3,0.9,2.2,0.9h2.2c0.8,0,1.6-0.3,2.1-0.9c0.5-0.6,0.8-1.3,0.8-2.1
		v-15.2H338h-1.5v15.2l0,0.1l0.1,0l-0.1,0l0,0l0.1,0l-0.1,0l0.2,0.1l-0.1-0.2l-0.1,0.1l0.2,0.1l-0.1-0.2l0.1,0.1l0-0.1l0,0l0.1,0.1
		l0-0.1l0,0h-2.2v-15.2h2.2v-0.1l-0.1,0.1l0.1,0v-0.1l-0.1,0.1l0,0l0,0H338z"/>
	<polygon fill="#B5C0C9" points="397.7,500.9 403.5,498 403.5,491.1 397.8,487.5 	"/>
	<polygon fill="#0CBC18" points="397.7,500.9 398.3,502.2 405,498.9 405,490.3 396.3,484.8 396.1,503.3 398.3,502.2 397.7,500.9 
		399.2,500.9 399.2,490.2 402,491.9 402,497.1 397,499.5 397.7,500.9 399.2,500.9 	"/>
	<rect x="336.4" y="465.1" fill="#B5C0C9" width="60.6" height="40.2"/>
	<polygon fill="#0CBC18" points="336.4,465.1 336.4,466.6 395.5,466.6 395.5,503.8 337.9,503.8 337.9,465.1 336.4,465.1 
		336.4,466.6 336.4,465.1 334.9,465.1 334.9,506.8 398.5,506.8 398.5,463.6 334.9,463.6 334.9,465.1 	"/>
	<rect x="342.4" y="477.1" width="2.3" height="17.2"/>
	<path d="M348.7,494.3v-17.2h6.5c1.1,0,2,0.1,2.6,0.2c0.8,0.1,1.6,0.4,2.1,0.8s1,0.9,1.4,1.7s0.5,1.5,0.5,2.3c0,1.5-0.5,2.7-1.4,3.7
		s-2.6,1.5-5,1.5H351v7H348.7z M351,485.3h4.4c1.5,0,2.5-0.3,3.1-0.8s0.9-1.3,0.9-2.3c0-0.7-0.2-1.3-0.5-1.8s-0.8-0.8-1.4-1
		c-0.4-0.1-1.1-0.2-2.1-0.2H351V485.3z"/>
	<path d="M361.1,494.3l6.6-17.2h2.4l7,17.2h-2.6l-2-5.2h-7.2l-1.9,5.2H361.1z M366,487.3h5.8l-1.8-4.8c-0.5-1.4-1-2.6-1.2-3.6
		c-0.2,1.1-0.5,2.2-0.9,3.3L366,487.3z"/>
	<path d="M378.2,488.8l2.1-0.2c0.1,0.9,0.3,1.6,0.7,2.1s0.9,1,1.7,1.3s1.7,0.5,2.6,0.5s1.6-0.1,2.3-0.4s1.2-0.6,1.5-1.1
		s0.5-0.9,0.5-1.5c0-0.5-0.2-1-0.5-1.4s-0.8-0.7-1.5-1c-0.5-0.2-1.5-0.5-3.1-0.8s-2.7-0.7-3.3-1.1c-0.8-0.4-1.4-1-1.8-1.6
		s-0.6-1.3-0.6-2.1c0-0.9,0.2-1.7,0.7-2.4s1.2-1.3,2.2-1.7s2-0.6,3.2-0.6c1.3,0,2.4,0.2,3.4,0.6s1.7,1,2.2,1.8s0.8,1.7,0.8,2.7
		l-2.2,0.2c-0.1-1.1-0.5-1.9-1.2-2.5s-1.7-0.8-3-0.8c-1.4,0-2.4,0.3-3,0.8s-0.9,1.1-0.9,1.8c0,0.6,0.2,1.1,0.7,1.5
		c0.4,0.4,1.6,0.8,3.4,1.2s3.1,0.8,3.8,1.1c1,0.5,1.7,1,2.2,1.8s0.7,1.5,0.7,2.4s-0.3,1.8-0.8,2.6s-1.3,1.4-2.3,1.9
		s-2.1,0.7-3.3,0.7c-1.6,0-2.9-0.2-3.9-0.7s-1.9-1.1-2.5-2S378.2,489.9,378.2,488.8z"/>
	<path fill="#FFFF33" d="M455.4,436.9l2.3,0.6c-0.5,1.9-1.3,3.3-2.6,4.3s-2.8,1.5-4.5,1.5c-1.9,0-3.4-0.4-4.5-1.1s-2-1.8-2.6-3.3
		s-0.9-3-0.9-4.6c0-1.8,0.3-3.3,1-4.7s1.7-2.3,2.9-3s2.7-1,4.2-1c1.7,0,3.2,0.4,4.3,1.3s2,2.1,2.4,3.7l-2.2,0.5
		c-0.4-1.3-1-2.2-1.7-2.7s-1.7-0.9-2.9-0.9c-1.3,0-2.4,0.3-3.3,0.9s-1.5,1.5-1.9,2.5s-0.5,2.2-0.5,3.3c0,1.5,0.2,2.7,0.6,3.8
		s1.1,1.9,2,2.4s1.9,0.8,2.9,0.8c1.3,0,2.4-0.4,3.2-1.1S455.1,438.4,455.4,436.9z"/>
	<path fill="#FFFF33" d="M468.3,441.4c-0.8,0.7-1.5,1.1-2.3,1.4s-1.5,0.4-2.3,0.4c-1.4,0-2.4-0.3-3.2-1s-1.1-1.5-1.1-2.6
		c0-0.6,0.1-1.2,0.4-1.7s0.6-0.9,1.1-1.2s1-0.5,1.5-0.7c0.4-0.1,1-0.2,1.9-0.3c1.7-0.2,3-0.4,3.8-0.7c0-0.3,0-0.5,0-0.6
		c0-0.9-0.2-1.5-0.6-1.8c-0.5-0.5-1.3-0.7-2.4-0.7c-1,0-1.7,0.2-2.2,0.5s-0.8,1-1,1.8l-2.1-0.3c0.2-0.9,0.5-1.6,0.9-2.1
		s1.1-1,1.9-1.3s1.8-0.4,2.8-0.4c1.1,0,1.9,0.1,2.6,0.4s1.2,0.6,1.5,0.9s0.5,0.9,0.7,1.4c0.1,0.4,0.1,1,0.1,1.9v2.8
		c0,2,0,3.2,0.1,3.7s0.3,1,0.5,1.5h-2.2C468.5,442.5,468.4,442,468.3,441.4z M468.1,436.7c-0.8,0.3-1.9,0.6-3.4,0.8
		c-0.9,0.1-1.5,0.3-1.8,0.4s-0.6,0.4-0.8,0.7s-0.3,0.6-0.3,1c0,0.6,0.2,1,0.6,1.4s1,0.6,1.9,0.6c0.8,0,1.5-0.2,2.2-0.5
		s1.1-0.8,1.4-1.5c0.2-0.5,0.3-1.2,0.3-2.1v-0.8H468.1z"/>
	<path fill="#FFFF33" d="M473.5,442.9v-12.4h1.9v1.8c0.9-1.4,2.2-2.1,4-2.1c0.8,0,1.4,0.1,2.1,0.4s1.1,0.6,1.4,1.1s0.5,1,0.7,1.6
		c0.1,0.4,0.1,1.1,0.1,2.1v7.7h-2.1v-7.6c0-0.9-0.1-1.5-0.2-1.9s-0.5-0.8-0.9-1s-0.9-0.4-1.5-0.4c-0.9,0-1.7,0.3-2.3,0.9
		s-1,1.7-1,3.2v6.8h-2.2V442.9z"/>
	<path fill="#FFFF33" d="M493.7,442.9v-17.2h6.4c1.3,0,2.4,0.2,3.2,0.5s1.4,0.9,1.9,1.6s0.7,1.5,0.7,2.3c0,0.7-0.2,1.4-0.6,2.1
		s-1,1.2-1.8,1.6c1,0.3,1.8,0.8,2.4,1.6s0.8,1.6,0.8,2.6c0,0.8-0.2,1.6-0.5,2.2s-0.8,1.2-1.3,1.6s-1.1,0.7-1.9,0.8s-1.7,0.3-2.8,0.3
		H493.7z M496,433h3.7c1,0,1.7-0.1,2.2-0.2c0.6-0.2,1-0.5,1.3-0.9s0.4-0.9,0.4-1.5s-0.1-1.1-0.4-1.5s-0.7-0.7-1.2-0.9
		s-1.4-0.2-2.6-0.2H496V433z M496,440.9h4.3c0.7,0,1.3,0,1.5-0.1c0.5-0.1,1-0.3,1.3-0.5s0.6-0.5,0.9-1s0.3-0.9,0.3-1.4
		c0-0.6-0.2-1.2-0.5-1.7s-0.8-0.8-1.4-1s-1.4-0.3-2.5-0.3h-4v6H496z"/>
	<path fill="#FFFF33" d="M518.1,438.9l2.2,0.3c-0.3,1.3-1,2.3-1.9,3c-0.9,0.7-2.1,1.1-3.6,1.1c-1.8,0-3.3-0.6-4.3-1.7
		s-1.6-2.7-1.6-4.7c0-2.1,0.5-3.7,1.6-4.9s2.5-1.7,4.2-1.7s3,0.6,4.1,1.7c1.1,1.1,1.6,2.7,1.6,4.8c0,0.1,0,0.3,0,0.6h-9.3
		c0.1,1.4,0.5,2.4,1.2,3.1s1.6,1.1,2.6,1.1c0.8,0,1.4-0.2,2-0.6C517.5,440.6,517.8,439.8,518.1,438.9z M511.2,435.5h6.9
		c-0.1-1-0.4-1.8-0.8-2.4c-0.7-0.8-1.5-1.2-2.6-1.2c-1,0-1.8,0.3-2.4,1C511.7,433.6,511.2,434.4,511.2,435.5z"/>
	<path fill="#FFFF33" d="M529.8,442.9v-17.2h3.4l4.1,12.2c0.4,1.1,0.6,2,0.8,2.5c0.2-0.6,0.5-1.5,0.9-2.8l4.1-12h3.1v17.2H544v-14.4
		l-5,14.4h-2.1l-5-14.6v14.6L529.8,442.9z"/>
	<path fill="#FFFF33" d="M557.7,441.4c-0.8,0.7-1.5,1.1-2.3,1.4s-1.5,0.4-2.3,0.4c-1.4,0-2.4-0.3-3.2-1s-1.1-1.5-1.1-2.6
		c0-0.6,0.1-1.2,0.4-1.7s0.6-0.9,1.1-1.2s1-0.5,1.5-0.7c0.4-0.1,1-0.2,1.9-0.3c1.7-0.2,3-0.4,3.8-0.7c0-0.3,0-0.5,0-0.6
		c0-0.9-0.2-1.5-0.6-1.8c-0.5-0.5-1.3-0.7-2.4-0.7c-1,0-1.7,0.2-2.2,0.5s-0.8,1-1,1.8l-2.1-0.3c0.2-0.9,0.5-1.6,0.9-2.1
		s1.1-1,1.9-1.3s1.8-0.4,2.8-0.4c1.1,0,1.9,0.1,2.6,0.4s1.2,0.6,1.5,0.9s0.5,0.9,0.7,1.4c0.1,0.4,0.1,1,0.1,1.9v2.8
		c0,2,0,3.2,0.1,3.7s0.3,1,0.5,1.5h-2.2C557.9,442.5,557.8,442,557.7,441.4z M557.5,436.7c-0.8,0.3-1.9,0.6-3.4,0.8
		c-0.9,0.1-1.5,0.3-1.8,0.4s-0.6,0.4-0.8,0.7s-0.3,0.6-0.3,1c0,0.6,0.2,1,0.6,1.4s1,0.6,1.9,0.6c0.8,0,1.5-0.2,2.2-0.5
		s1.1-0.8,1.4-1.5c0.2-0.5,0.3-1.2,0.3-2.1v-0.8H557.5z"/>
	<path fill="#FFFF33" d="M562.1,439.2l2.1-0.3c0.1,0.8,0.4,1.5,1,1.9s1.3,0.7,2.2,0.7c1,0,1.7-0.2,2.2-0.6s0.7-0.9,0.7-1.4
		s-0.2-0.9-0.6-1.1c-0.3-0.2-1-0.4-2.2-0.7c-1.5-0.4-2.6-0.7-3.2-1s-1.1-0.7-1.4-1.2s-0.5-1.1-0.5-1.7s0.1-1.1,0.4-1.5
		s0.6-0.9,1-1.2c0.3-0.2,0.8-0.4,1.3-0.6s1.2-0.3,1.8-0.3c1,0,1.8,0.1,2.6,0.4s1.3,0.7,1.6,1.1s0.6,1.1,0.7,1.9l-2.1,0.3
		c-0.1-0.6-0.4-1.1-0.8-1.5s-1.1-0.5-1.9-0.5c-1,0-1.7,0.2-2.1,0.5s-0.6,0.7-0.6,1.1c0,0.3,0.1,0.5,0.3,0.7s0.4,0.4,0.8,0.6
		c0.2,0.1,0.8,0.3,1.9,0.5c1.5,0.4,2.5,0.7,3.1,1s1.1,0.6,1.4,1.1s0.5,1.1,0.5,1.8c0,0.7-0.2,1.4-0.6,2s-1,1.1-1.8,1.4
		s-1.6,0.5-2.6,0.5c-1.6,0-2.8-0.3-3.7-1S562.3,440.5,562.1,439.2z"/>
	<path fill="#FFFF33" d="M579.5,441l0.3,1.9c-0.6,0.1-1.1,0.2-1.6,0.2c-0.8,0-1.4-0.1-1.8-0.4s-0.7-0.6-0.9-1s-0.3-1.2-0.3-2.5v-7.1
		h-1.5v-1.6h1.5v-3.1l2.1-1.3v4.3h2.1v1.6h-2.1v7.3c0,0.6,0,1,0.1,1.2s0.2,0.3,0.4,0.4s0.4,0.2,0.7,0.2S579.1,441.1,579.5,441z"/>
	<path fill="#FFFF33" d="M590.1,438.9l2.2,0.3c-0.3,1.3-1,2.3-1.9,3s-2.1,1.1-3.6,1.1c-1.8,0-3.3-0.6-4.3-1.7s-1.6-2.7-1.6-4.7
		c0-2.1,0.5-3.7,1.6-4.9s2.5-1.7,4.2-1.7s3,0.6,4.1,1.7s1.6,2.7,1.6,4.8c0,0.1,0,0.3,0,0.6h-9.3c0.1,1.4,0.5,2.4,1.2,3.1
		s1.6,1.1,2.6,1.1c0.8,0,1.4-0.2,2-0.6S589.8,439.8,590.1,438.9z M583.2,435.5h6.9c-0.1-1-0.4-1.8-0.8-2.4c-0.7-0.8-1.5-1.2-2.6-1.2
		c-1,0-1.8,0.3-2.4,1S583.3,434.4,583.2,435.5z"/>
	<path fill="#FFFF33" d="M594.9,442.9v-12.4h1.9v1.9c0.5-0.9,0.9-1.5,1.3-1.7s0.9-0.4,1.4-0.4c0.7,0,1.4,0.2,2.2,0.7l-0.7,2
		c-0.5-0.3-1-0.5-1.5-0.5s-0.9,0.1-1.2,0.4s-0.6,0.7-0.8,1.2c-0.2,0.8-0.4,1.6-0.4,2.5v6.5h-2.2V442.9z"/>
	<path fill="#B5C0C9" d="M522.3,418.2h80.8c0.6-3.8,1.8-11.1,1.8-14.1c0-4-0.7-15.3-0.7-15.3h-82H521h-81c0,0-0.7,11.3-0.7,15.3
		c0,2.9,1.2,10.3,1.8,14.1h79.8H522.3z"/>
	<path fill="#FFFFFF" d="M522.3,418.2v1H604l0.1-0.8c0.3-1.9,0.8-4.7,1.1-7.4c0.4-2.7,0.7-5.3,0.7-6.9c0-2-0.2-5.9-0.4-9.2
		c-0.2-3.3-0.4-6.2-0.4-6.2l-0.1-0.9h-82.9H521h-81.9l-0.1,0.9c0,0-0.2,2.8-0.4,6.2c-0.2,3.3-0.4,7.2-0.4,9.2c0,1.6,0.3,4.1,0.7,6.9
		c0.4,2.7,0.8,5.5,1.1,7.4l0.1,0.8h80.7h1.4V418.2v-1h-1.4h-79.8v1l1-0.2c-0.3-1.9-0.7-4.7-1.1-7.4c-0.4-2.7-0.7-5.2-0.7-6.6
		c0-2,0.2-5.8,0.3-9.1c0.1-1.7,0.2-3.2,0.2-4.3c0.1-1.1,0.1-1.8,0.1-1.8l-1-0.1v1h81h1.2h82v-1l-1,0.1c0,0,0,0.7,0.1,1.8
		c0.2,3.4,0.6,10.5,0.6,13.4c0,1.4-0.3,4-0.7,6.6c-0.4,2.7-0.8,5.4-1.1,7.3l1,0.2v-1h-80.8V418.2z"/>
	<path fill="#0F1F30" d="M476.5,412v-17.2h7.6c1.5,0,2.7,0.2,3.5,0.5s1.4,0.9,1.9,1.6s0.7,1.6,0.7,2.6c0,1.2-0.4,2.2-1.2,3.1
		s-2,1.4-3.7,1.6c0.6,0.3,1.1,0.6,1.4,0.9c0.7,0.6,1.3,1.4,1.9,2.3l3,4.7h-2.9l-2.3-3.6c-0.7-1-1.2-1.8-1.6-2.4s-0.8-0.9-1.2-1.1
		s-0.7-0.4-1-0.5s-0.7-0.1-1.3-0.1h-2.6v7.6H476.5z M478.7,402.4h4.9c1,0,1.9-0.1,2.4-0.3s1-0.6,1.3-1s0.5-1,0.5-1.5
		c0-0.8-0.3-1.5-0.9-2s-1.5-0.8-2.8-0.8h-5.4V402.4z"/>
	<path fill="#0F1F30" d="M502,408l2.2,0.3c-0.3,1.3-1,2.3-1.9,3s-2.1,1.1-3.6,1.1c-1.8,0-3.3-0.6-4.3-1.7s-1.6-2.7-1.6-4.7
		c0-2.1,0.5-3.7,1.6-4.9s2.5-1.7,4.2-1.7s3,0.6,4.1,1.7s1.6,2.7,1.6,4.8c0,0.1,0,0.3,0,0.6H495c0.1,1.4,0.5,2.4,1.2,3.1
		s1.6,1.1,2.6,1.1c0.8,0,1.4-0.2,2-0.6S501.7,408.9,502,408z M495.1,404.6h6.9c-0.1-1-0.4-1.8-0.8-2.4c-0.7-0.8-1.5-1.2-2.6-1.2
		c-1,0-1.8,0.3-2.4,1S495.1,403.5,495.1,404.6z"/>
	<path fill="#0F1F30" d="M515,407.5l2.1,0.3c-0.2,1.4-0.8,2.5-1.7,3.4s-2.1,1.2-3.4,1.2c-1.7,0-3.1-0.6-4.1-1.7s-1.6-2.7-1.6-4.8
		c0-1.3,0.2-2.5,0.7-3.5s1.1-1.8,2-2.3s1.9-0.8,3-0.8c1.4,0,2.5,0.3,3.3,1s1.4,1.7,1.7,2.9l-2.1,0.3c-0.2-0.8-0.5-1.5-1-1.9
		s-1.1-0.6-1.8-0.6c-1.1,0-1.9,0.4-2.6,1.1s-1,2-1,3.6c0,1.7,0.3,2.9,1,3.6s1.5,1.1,2.5,1.1c0.8,0,1.5-0.3,2.1-0.8
		C514.7,409.1,514.8,408.5,515,407.5z"/>
	<path fill="#0F1F30" d="M527.4,408l2.2,0.3c-0.3,1.3-1,2.3-1.9,3s-2.1,1.1-3.6,1.1c-1.8,0-3.3-0.6-4.3-1.7s-1.6-2.7-1.6-4.7
		c0-2.1,0.5-3.7,1.6-4.9s2.5-1.7,4.2-1.7s3,0.6,4.1,1.7s1.6,2.7,1.6,4.8c0,0.1,0,0.3,0,0.6h-9.3c0.1,1.4,0.5,2.4,1.2,3.1
		s1.6,1.1,2.6,1.1c0.8,0,1.4-0.2,2-0.6S527,408.9,527.4,408z M520.4,404.6h6.9c-0.1-1-0.4-1.8-0.8-2.4c-0.7-0.8-1.5-1.2-2.6-1.2
		c-1,0-1.8,0.3-2.4,1S520.5,403.5,520.4,404.6z"/>
	<path fill="#0F1F30" d="M532.2,397.3v-2.4h2.1v2.4H532.2z M532.2,412v-12.4h2.1V412H532.2z"/>
	<path fill="#0F1F30" d="M541,412l-4.7-12.4h2.2l2.7,7.5c0.3,0.8,0.6,1.6,0.8,2.5c0.2-0.7,0.4-1.4,0.8-2.4l2.8-7.6h2.2l-4.7,12.4
		H541z"/>
	<path fill="#0F1F30" d="M558,408l2.2,0.3c-0.3,1.3-1,2.3-1.9,3s-2.1,1.1-3.6,1.1c-1.8,0-3.3-0.6-4.3-1.7s-1.6-2.7-1.6-4.7
		c0-2.1,0.5-3.7,1.6-4.9s2.5-1.7,4.2-1.7s3,0.6,4.1,1.7s1.6,2.7,1.6,4.8c0,0.1,0,0.3,0,0.6H551c0.1,1.4,0.5,2.4,1.2,3.1
		s1.6,1.1,2.6,1.1c0.8,0,1.4-0.2,2-0.6S557.7,408.9,558,408z M551.1,404.6h6.9c-0.1-1-0.4-1.8-0.8-2.4c-0.7-0.8-1.5-1.2-2.6-1.2
		c-1,0-1.8,0.3-2.4,1S551.2,403.5,551.1,404.6z"/>
	<path fill="#0F1F30" d="M562.8,412v-12.4h1.9v1.9c0.5-0.9,0.9-1.5,1.3-1.7s0.9-0.4,1.4-0.4c0.7,0,1.4,0.2,2.2,0.7l-0.7,2
		c-0.5-0.3-1-0.5-1.5-0.5s-0.9,0.1-1.2,0.4s-0.6,0.7-0.8,1.2c-0.2,0.8-0.4,1.6-0.4,2.5v6.5h-2.2V412z"/>
	<path fill="#8A9AA5" d="M583.2,403.7c0,1-1,1.7-2.3,1.7s-2.3-0.8-2.3-1.7c0-1,1-1.7,2.3-1.7S583.2,402.7,583.2,403.7z"/>
	<path fill="#8A9AA5" d="M594.7,403.7c0-1,1-1.7,2.3-1.7s2.3,0.8,2.3,1.7c0,1-1,1.7-2.3,1.7C595.7,405.4,594.7,404.6,594.7,403.7z"
		/>
	<path fill="#8A9AA5" d="M589.3,399.6c-1,0-1.7-1-1.7-2.3s0.8-2.3,1.7-2.3s1.7,1,1.7,2.3C591.1,398.6,590.3,399.6,589.3,399.6z"/>
	<path fill="#8A9AA5" d="M589,408.1c1,0,1.7,1,1.7,2.3s-0.8,2.3-1.7,2.3c-1,0-1.7-1-1.7-2.3C587.2,409.1,588,408.1,589,408.1z"/>
	<path fill="#8A9AA5" d="M591.5,404c0,1.4-1.1,2.5-2.5,2.5s-2.5-1.1-2.5-2.5s1.1-2.5,2.5-2.5S591.5,402.6,591.5,404z"/>
	<path fill="#8A9AA5" d="M445,409.1c0-0.6,0.7-1.1,1.5-1.1h20c0.8,0,1.5,0.5,1.5,1.1v3.9c0,0.6-0.7,1.1-1.5,1.1h-20
		c-0.8,0-1.5-0.5-1.5-1.1V409.1z"/>
	<rect x="400.4" y="400" fill="#B5C0C9" width="11.9" height="9.4"/>
	<path fill="#FFFFFF" d="M400.4,400v1h10.9v7.4h-9.9V400H400.4v1V400h-1v9.4c0,0.3,0.1,0.5,0.3,0.7c0.2,0.2,0.4,0.3,0.7,0.3h11.9
		c0.3,0,0.5-0.1,0.7-0.3c0.2-0.2,0.3-0.4,0.3-0.7V400c0-0.3-0.1-0.5-0.3-0.7c-0.2-0.2-0.4-0.3-0.7-0.3h-11.9c-0.3,0-0.5,0.1-0.7,0.3
		c-0.2,0.2-0.3,0.4-0.3,0.7H400.4z"/>
	<path fill="#B5C0C9" d="M395.4,397.2c0-0.8,0.6-1.5,1.4-1.5h2.2c0.8,0,1.5,0.6,1.5,1.5v15.2c0,0.8-0.6,1.5-1.5,1.5h-2.2
		c-0.8,0-1.4-0.6-1.4-1.5V397.2z"/>
	<path fill="#FFFFFF" d="M395.4,397.2h1c0-0.1,0.1-0.3,0.1-0.4c0.1-0.1,0.2-0.1,0.3-0.1h2.2c0.1,0,0.3,0.1,0.4,0.1
		c0.1,0.1,0.1,0.2,0.1,0.4v15.2c0,0.1-0.1,0.3-0.1,0.4c-0.1,0.1-0.2,0.1-0.4,0.1h-2.2c-0.2,0-0.2,0-0.3-0.1
		c-0.1-0.1-0.1-0.2-0.1-0.4v-15.2H395.4h-1v15.2c0,0.7,0.2,1.3,0.7,1.8c0.4,0.5,1.1,0.7,1.7,0.7h2.2c0.7,0,1.4-0.3,1.8-0.8
		c0.4-0.5,0.7-1.1,0.7-1.7v-15.2c0-0.7-0.3-1.4-0.8-1.8c-0.5-0.4-1.1-0.7-1.7-0.7h-2.2c-0.7,0-1.3,0.3-1.7,0.8
		c-0.4,0.5-0.7,1.1-0.7,1.7H395.4z"/>
	<rect x="321" y="400" fill="#B5C0C9" width="12" height="9.4"/>
	<path fill="#FFFFFF" d="M321,400v1h11l0,7.4h-10l0-8.4H321v1V400h-1v9.4c0,0.3,0.1,0.5,0.3,0.7c0.2,0.2,0.4,0.3,0.7,0.3h12
		c0.3,0,0.5-0.1,0.7-0.3c0.2-0.2,0.3-0.4,0.3-0.7V400c0-0.3-0.1-0.5-0.3-0.7c-0.2-0.2-0.4-0.3-0.7-0.3h-12c-0.3,0-0.5,0.1-0.7,0.3
		c-0.2,0.2-0.3,0.4-0.3,0.7H321z"/>
	<path fill="#B5C0C9" d="M338,397.2c0-0.8-0.6-1.5-1.4-1.5h-2.2c-0.8,0-1.5,0.6-1.5,1.5v15.2c0,0.8,0.6,1.5,1.5,1.5h2.2
		c0.8,0,1.4-0.6,1.4-1.5V397.2z"/>
	<path fill="#FFFFFF" d="M338,397.2h1c0-0.7-0.2-1.3-0.7-1.7c-0.4-0.5-1-0.8-1.7-0.8h-2.2c-0.6,0-1.3,0.2-1.7,0.7
		c-0.5,0.4-0.8,1.1-0.8,1.8v15.2c0,0.6,0.2,1.3,0.7,1.7c0.4,0.5,1.1,0.8,1.8,0.8h2.2c0.6,0,1.3-0.3,1.7-0.7c0.4-0.5,0.7-1.1,0.7-1.8
		v-15.2H338h-1v15.2c0,0.2-0.1,0.3-0.1,0.4c-0.1,0.1-0.1,0.1-0.3,0.1h-2.2c-0.2,0-0.3-0.1-0.4-0.1c-0.1-0.1-0.1-0.2-0.1-0.4v-15.2
		c0-0.2,0.1-0.3,0.1-0.4c0.1-0.1,0.2-0.1,0.4-0.1h2.2c0.1,0,0.2,0,0.3,0.1c0.1,0.1,0.1,0.2,0.1,0.4H338z"/>
	<polygon fill="#B5C0C9" points="397.7,428 403.5,425.2 403.5,418.2 397.8,414.6 	"/>
	<path fill="#FFFFFF" d="M397.7,428l0.4,0.9l5.8-2.8c0.3-0.2,0.6-0.5,0.6-0.9v-7c0-0.3-0.2-0.7-0.5-0.8l-5.7-3.6
		c-0.3-0.2-0.7-0.2-1,0c-0.3,0.2-0.5,0.5-0.5,0.9l-0.1,13.4c0,0.3,0.2,0.7,0.5,0.9c0.3,0.2,0.7,0.2,1,0.1L397.7,428l1,0l0.1-11.6
		l3.7,2.3v5.8l-5.2,2.5L397.7,428l1,0L397.7,428z"/>
	<rect x="336.4" y="392.2" fill="#B5C0C9" width="60.6" height="40.2"/>
	<path fill="#FFFFFF" d="M336.4,392.2v1H396v38.2h-58.6v-39.2H336.4v1V392.2h-1v40.2c0,0.3,0.1,0.5,0.3,0.7c0.2,0.2,0.4,0.3,0.7,0.3
		H397c0.3,0,0.5-0.1,0.7-0.3c0.2-0.2,0.3-0.4,0.3-0.7v-40.2c0-0.3-0.1-0.5-0.3-0.7c-0.2-0.2-0.4-0.3-0.7-0.3h-60.6
		c-0.3,0-0.5,0.1-0.7,0.3c-0.2,0.2-0.3,0.4-0.3,0.7H336.4z"/>
	<rect x="342.4" y="404.2" width="2.3" height="17.2"/>
	<path d="M348.7,421.4v-17.2h6.5c1.1,0,2,0.1,2.6,0.2c0.8,0.1,1.6,0.4,2.1,0.8s1,0.9,1.4,1.7s0.5,1.5,0.5,2.3c0,1.5-0.5,2.7-1.4,3.7
		s-2.6,1.5-5,1.5H351v7H348.7z M351,412.4h4.4c1.5,0,2.5-0.3,3.1-0.8s0.9-1.3,0.9-2.3c0-0.7-0.2-1.3-0.5-1.8s-0.8-0.8-1.4-1
		c-0.4-0.1-1.1-0.2-2.1-0.2H351V412.4z"/>
	<path d="M361.1,421.4l6.6-17.2h2.4l7,17.2h-2.6l-2-5.2h-7.2l-1.9,5.2H361.1z M366,414.4h5.8l-1.8-4.8c-0.5-1.4-1-2.6-1.2-3.6
		c-0.2,1.1-0.5,2.2-0.9,3.3L366,414.4z"/>
	<path d="M378.2,415.9l2.1-0.2c0.1,0.9,0.3,1.6,0.7,2.1s0.9,1,1.7,1.3s1.7,0.5,2.6,0.5s1.6-0.1,2.3-0.4s1.2-0.6,1.5-1.1
		s0.5-0.9,0.5-1.5c0-0.5-0.2-1-0.5-1.4s-0.8-0.7-1.5-1c-0.5-0.2-1.5-0.5-3.1-0.8s-2.7-0.7-3.3-1.1c-0.8-0.4-1.4-1-1.8-1.6
		s-0.6-1.3-0.6-2.1c0-0.9,0.2-1.7,0.7-2.4s1.2-1.3,2.2-1.7s2-0.6,3.2-0.6c1.3,0,2.4,0.2,3.4,0.6s1.7,1,2.2,1.8s0.8,1.7,0.8,2.7
		l-2.2,0.2c-0.1-1.1-0.5-1.9-1.2-2.5s-1.7-0.8-3-0.8c-1.4,0-2.4,0.3-3,0.8s-0.9,1.1-0.9,1.8c0,0.6,0.2,1.1,0.7,1.5
		c0.4,0.4,1.6,0.8,3.4,1.2s3.1,0.8,3.8,1.1c1,0.5,1.7,1,2.2,1.8s0.7,1.5,0.7,2.4s-0.3,1.8-0.8,2.6s-1.3,1.4-2.3,1.9
		s-2.1,0.7-3.3,0.7c-1.6,0-2.9-0.2-3.9-0.7s-1.9-1.1-2.5-2S378.2,417.1,378.2,415.9z"/>
	<rect x="342" y="357.5" fill="#FFFFFF" width="2.3" height="17.2"/>
	<path fill="#FFFFFF" d="M348.3,374.7v-17.2h6.5c1.1,0,2,0.1,2.6,0.2c0.8,0.1,1.6,0.4,2.1,0.8s1,0.9,1.4,1.7
		c0.4,0.8,0.5,1.5,0.5,2.3c0,1.5-0.5,2.7-1.4,3.7c-0.9,1-2.6,1.5-5,1.5h-4.4v7H348.3z M350.6,365.7h4.4c1.5,0,2.5-0.3,3.1-0.8
		c0.6-0.5,0.9-1.3,0.9-2.3c0-0.7-0.2-1.3-0.5-1.8s-0.8-0.8-1.4-1c-0.4-0.1-1.1-0.2-2.1-0.2h-4.4V365.7z"/>
	<path fill="#FFFFFF" d="M360.7,374.7l6.6-17.2h2.4l7,17.2h-2.6l-2-5.2h-7.2l-1.9,5.2H360.7z M365.6,367.7h5.8l-1.8-4.8
		c-0.5-1.4-1-2.6-1.2-3.6c-0.2,1.1-0.5,2.2-0.9,3.3L365.6,367.7z"/>
	<path fill="#FFFFFF" d="M377.8,369.2l2.1-0.2c0.1,0.9,0.3,1.6,0.7,2.1s0.9,1,1.7,1.3c0.8,0.3,1.7,0.5,2.6,0.5
		c0.9,0,1.6-0.1,2.3-0.4c0.7-0.3,1.2-0.6,1.5-1.1s0.5-0.9,0.5-1.5c0-0.5-0.2-1-0.5-1.4s-0.8-0.7-1.5-1c-0.5-0.2-1.5-0.5-3.1-0.8
		c-1.6-0.3-2.7-0.7-3.3-1.1c-0.8-0.4-1.4-1-1.8-1.6c-0.4-0.6-0.6-1.3-0.6-2.1c0-0.9,0.2-1.7,0.7-2.4s1.2-1.3,2.2-1.7s2-0.6,3.2-0.6
		c1.3,0,2.4,0.2,3.4,0.6s1.7,1,2.2,1.8s0.8,1.7,0.8,2.7l-2.2,0.2c-0.1-1.1-0.5-1.9-1.2-2.5s-1.7-0.8-3-0.8c-1.4,0-2.4,0.3-3,0.8
		c-0.6,0.5-0.9,1.1-0.9,1.8c0,0.6,0.2,1.1,0.7,1.5c0.4,0.4,1.6,0.8,3.4,1.2s3.1,0.8,3.8,1.1c1,0.5,1.7,1,2.2,1.8s0.7,1.5,0.7,2.4
		s-0.3,1.8-0.8,2.6s-1.3,1.4-2.3,1.9s-2.1,0.7-3.3,0.7c-1.6,0-2.9-0.2-3.9-0.7s-1.9-1.1-2.5-2C378,371.4,377.8,370.3,377.8,369.2z"
		/>
	<path fill="#FFFFFF" d="M412.1,364.6h-11.3v-2h11.3V364.6z M412.1,369.8h-11.3v-2h11.3V369.8z"/>
	<rect x="422.3" y="357.5" fill="#FFFFFF" width="2.3" height="17.2"/>
	<path fill="#FFFFFF" d="M428.6,374.7v-17.2h6.5c1.1,0,2,0.1,2.6,0.2c0.8,0.1,1.6,0.4,2.1,0.8s1,0.9,1.4,1.7
		c0.4,0.8,0.5,1.5,0.5,2.3c0,1.5-0.5,2.7-1.4,3.7c-0.9,1-2.6,1.5-5,1.5h-4.4v7H428.6z M430.9,365.7h4.4c1.5,0,2.5-0.3,3.1-0.8
		c0.6-0.5,0.9-1.3,0.9-2.3c0-0.7-0.2-1.3-0.5-1.8s-0.8-0.8-1.4-1c-0.4-0.1-1.1-0.2-2.1-0.2h-4.4V365.7z"/>
	<path fill="#FFFFFF" d="M447.6,374.7l6.6-17.2h2.4l7,17.2h-2.5l-2-5.2h-7.2l-1.9,5.2H447.6z M452.6,367.7h5.8l-1.8-4.8
		c-0.5-1.4-1-2.6-1.2-3.6c-0.2,1.1-0.5,2.2-0.9,3.3L452.6,367.7z"/>
	<path fill="#FFFFFF" d="M473.4,374.7v-1.8c-1,1.4-2.3,2.1-3.9,2.1c-0.7,0-1.4-0.1-2.1-0.4s-1.1-0.6-1.4-1.1s-0.5-0.9-0.7-1.6
		c-0.1-0.4-0.1-1.1-0.1-2v-7.7h2.1v6.9c0,1.1,0,1.8,0.1,2.2c0.1,0.6,0.4,1,0.8,1.3c0.4,0.3,1,0.5,1.6,0.5c0.6,0,1.2-0.2,1.8-0.5
		s0.9-0.8,1.2-1.3c0.3-0.5,0.3-1.4,0.3-2.4v-6.7h2.1v12.4h-1.8V374.7z"/>
	<path fill="#FFFFFF" d="M483.2,372.8l0.3,1.9c-0.6,0.1-1.1,0.2-1.6,0.2c-0.8,0-1.4-0.1-1.8-0.4c-0.4-0.3-0.7-0.6-0.9-1
		c-0.2-0.4-0.3-1.2-0.3-2.5v-7.2h-1.5v-1.6h1.5v-3.1l2.1-1.3v4.3h2.1v1.6h-2v7.3c0,0.6,0,1,0.1,1.2c0.1,0.2,0.2,0.3,0.4,0.4
		c0.2,0.1,0.4,0.2,0.7,0.2C482.5,372.9,482.8,372.9,483.2,372.8z"/>
	<path fill="#FFFFFF" d="M484.5,368.5c0-2.3,0.6-4,1.9-5.1c1.1-0.9,2.4-1.4,3.9-1.4c1.7,0,3.1,0.6,4.2,1.7c1.1,1.1,1.6,2.7,1.6,4.6
		c0,1.6-0.2,2.9-0.7,3.8s-1.2,1.6-2.1,2.1c-0.9,0.5-1.9,0.8-3,0.8c-1.7,0-3.2-0.6-4.2-1.7S484.5,370.6,484.5,368.5z M486.6,368.5
		c0,1.6,0.3,2.8,1,3.6s1.6,1.2,2.6,1.2s1.9-0.4,2.6-1.2s1-2,1-3.6c0-1.5-0.3-2.7-1-3.5s-1.6-1.2-2.6-1.2c-1.1,0-1.9,0.4-2.6,1.2
		S486.6,366.9,486.6,368.5z"/>
	<path fill="#FFFFFF" d="M498.1,369.2l2.1-0.2c0.1,0.9,0.3,1.6,0.7,2.1s0.9,1,1.7,1.3c0.8,0.3,1.7,0.5,2.6,0.5
		c0.9,0,1.6-0.1,2.3-0.4c0.7-0.3,1.2-0.6,1.5-1.1s0.5-0.9,0.5-1.5c0-0.5-0.2-1-0.5-1.4s-0.8-0.7-1.5-1c-0.5-0.2-1.5-0.5-3.1-0.8
		c-1.6-0.3-2.7-0.7-3.3-1.1c-0.8-0.4-1.4-1-1.8-1.6c-0.4-0.6-0.6-1.3-0.6-2.1c0-0.9,0.2-1.7,0.7-2.4s1.2-1.3,2.2-1.7s2-0.6,3.2-0.6
		c1.3,0,2.4,0.2,3.4,0.6s1.7,1,2.2,1.8s0.8,1.7,0.8,2.7l-2.2,0.2c-0.1-1.1-0.5-1.9-1.2-2.5s-1.7-0.8-3-0.8c-1.4,0-2.4,0.3-3,0.8
		c-0.6,0.5-0.9,1.1-0.9,1.8c0,0.6,0.2,1.1,0.7,1.5c0.4,0.4,1.6,0.8,3.4,1.2s3.1,0.8,3.8,1.1c1,0.5,1.7,1,2.2,1.8s0.7,1.5,0.7,2.4
		s-0.3,1.8-0.8,2.6s-1.3,1.4-2.3,1.9s-2.1,0.7-3.3,0.7c-1.6,0-2.9-0.2-3.9-0.7s-1.9-1.1-2.5-2C498.3,371.4,498.1,370.3,498.1,369.2z
		"/>
	<path fill="#FFFFFF" d="M516.9,374.7l-3.8-12.4h2.2l2,7.2l0.7,2.7c0-0.1,0.2-1,0.6-2.6l2-7.3h2.2l1.9,7.2l0.6,2.4l0.7-2.4l2.1-7.2
		h2.1l-3.9,12.4h-2.2l-2-7.5l-0.5-2.1l-2.5,9.6L516.9,374.7z"/>
	<path fill="#FFFFFF" d="M532,360v-2.4h2.1v2.4H532z M532,374.7v-12.4h2.1v12.4H532z"/>
	<path fill="#FFFFFF" d="M541.9,372.8l0.3,1.9c-0.6,0.1-1.1,0.2-1.6,0.2c-0.8,0-1.4-0.1-1.8-0.4s-0.7-0.6-0.9-1s-0.3-1.2-0.3-2.5
		v-7.2h-1.5v-1.6h1.5v-3.1l2.1-1.3v4.3h2.1v1.6h-2.1v7.3c0,0.6,0,1,0.1,1.2s0.2,0.3,0.4,0.4s0.4,0.2,0.7,0.2
		C541.2,372.9,541.5,372.9,541.9,372.8z"/>
	<path fill="#FFFFFF" d="M552.1,370.1l2.1,0.3c-0.2,1.4-0.8,2.5-1.7,3.4s-2.1,1.2-3.4,1.2c-1.7,0-3.1-0.6-4.1-1.7s-1.6-2.7-1.6-4.8
		c0-1.3,0.2-2.5,0.7-3.5s1.1-1.8,2-2.3s1.9-0.8,3-0.8c1.4,0,2.5,0.3,3.3,1s1.4,1.7,1.7,2.9l-2.1,0.3c-0.2-0.8-0.5-1.5-1-1.9
		s-1.1-0.6-1.8-0.6c-1.1,0-1.9,0.4-2.6,1.1s-1,2-1,3.6c0,1.7,0.3,2.9,1,3.6s1.5,1.1,2.5,1.1c0.8,0,1.5-0.3,2.1-0.8
		S551.9,371.2,552.1,370.1z"/>
	<path fill="#FFFFFF" d="M555.9,374.7v-17.2h2.1v6.2c1-1.1,2.2-1.7,3.7-1.7c0.9,0,1.7,0.2,2.4,0.5s1.2,0.9,1.5,1.5s0.4,1.6,0.4,2.8
		v7.9h-2.1v-7.9c0-1.1-0.2-1.8-0.7-2.3s-1.1-0.7-1.9-0.7c-0.6,0-1.2,0.2-1.8,0.5s-0.9,0.8-1.2,1.3s-0.4,1.3-0.4,2.3v6.8L555.9,374.7
		z"/>
	<polygon fill="#FFFFFF" points="497.1,291 281.1,291 281.1,267.9 279.1,267.9 279.1,293 497.1,293 	"/>
	<path fill="#B5C0C9" d="M522.3,308.6h80.8c0.6-3.8,1.8-11.1,1.8-14.1c0-4-0.7-15.3-0.7-15.3h-82H521h-81c0,0-0.7,11.3-0.7,15.3
		c0,2.9,1.2,10.3,1.8,14.1h79.8H522.3z"/>
	<path fill="#FFFFFF" d="M522.3,308.6v1H604l0.1-0.8c0.3-1.9,0.8-4.7,1.1-7.4c0.4-2.7,0.7-5.3,0.7-6.9c0-2-0.2-5.9-0.4-9.2
		c-0.2-3.3-0.4-6.2-0.4-6.2l-0.1-0.9h-82.9H521h-81.9l-0.1,0.9c0,0-0.2,2.8-0.4,6.2c-0.2,3.3-0.4,7.2-0.4,9.2c0,1.6,0.3,4.1,0.7,6.9
		c0.4,2.7,0.8,5.5,1.1,7.4l0.1,0.8h80.7h1.4V308.6v-1h-1.4h-79.8v1l1-0.2c-0.3-1.9-0.7-4.7-1.1-7.4c-0.4-2.7-0.7-5.2-0.7-6.6
		c0-2,0.2-5.8,0.3-9.1c0.1-1.7,0.2-3.2,0.2-4.3s0.1-1.8,0.1-1.8l-1-0.1v1h81h1.2h82v-1l-1,0.1c0,0,0,0.7,0.1,1.8
		c0.2,3.4,0.6,10.5,0.6,13.4c0,1.4-0.3,4-0.7,6.6c-0.4,2.7-0.8,5.4-1.1,7.3l1,0.2v-1h-80.8V308.6z"/>
	<path fill="#0F1F30" d="M476.5,302.4v-17.2h7.6c1.5,0,2.7,0.2,3.5,0.5s1.4,0.9,1.9,1.6s0.7,1.6,0.7,2.6c0,1.2-0.4,2.2-1.2,3.1
		s-2,1.4-3.7,1.6c0.6,0.3,1.1,0.6,1.4,0.9c0.7,0.6,1.3,1.4,1.9,2.3l3,4.7h-2.9l-2.3-3.6c-0.7-1-1.2-1.8-1.6-2.4s-0.8-0.9-1.2-1.1
		s-0.7-0.4-1-0.5s-0.7-0.1-1.3-0.1h-2.6v7.6H476.5z M478.7,292.8h4.9c1,0,1.9-0.1,2.4-0.3s1-0.6,1.3-1s0.5-1,0.5-1.5
		c0-0.8-0.3-1.5-0.9-2s-1.5-0.8-2.8-0.8h-5.4V292.8z"/>
	<path fill="#0F1F30" d="M502,298.4l2.2,0.3c-0.3,1.3-1,2.3-1.9,3s-2.1,1.1-3.6,1.1c-1.8,0-3.3-0.6-4.3-1.7s-1.6-2.7-1.6-4.7
		c0-2.1,0.5-3.7,1.6-4.9s2.5-1.7,4.2-1.7s3,0.6,4.1,1.7s1.6,2.7,1.6,4.8c0,0.1,0,0.3,0,0.6H495c0.1,1.4,0.5,2.4,1.2,3.1
		s1.6,1.1,2.6,1.1c0.8,0,1.4-0.2,2-0.6S501.7,299.3,502,298.4z M495.1,295h6.9c-0.1-1-0.4-1.8-0.8-2.4c-0.7-0.8-1.5-1.2-2.6-1.2
		c-1,0-1.8,0.3-2.4,1S495.1,293.9,495.1,295z"/>
	<path fill="#0F1F30" d="M515,297.9l2.1,0.3c-0.2,1.4-0.8,2.5-1.7,3.4s-2.1,1.2-3.4,1.2c-1.7,0-3.1-0.6-4.1-1.7s-1.6-2.7-1.6-4.8
		c0-1.3,0.2-2.5,0.7-3.5s1.1-1.8,2-2.3s1.9-0.8,3-0.8c1.4,0,2.5,0.3,3.3,1s1.4,1.7,1.7,2.9l-2.1,0.3c-0.2-0.8-0.5-1.5-1-1.9
		s-1.1-0.6-1.8-0.6c-1.1,0-1.9,0.4-2.6,1.1s-1,2-1,3.6c0,1.7,0.3,2.9,1,3.6s1.5,1.1,2.5,1.1c0.8,0,1.5-0.3,2.1-0.8
		C514.7,299.5,514.8,298.9,515,297.9z"/>
	<path fill="#0F1F30" d="M527.4,298.4l2.2,0.3c-0.3,1.3-1,2.3-1.9,3s-2.1,1.1-3.6,1.1c-1.8,0-3.3-0.6-4.3-1.7s-1.6-2.7-1.6-4.7
		c0-2.1,0.5-3.7,1.6-4.9s2.5-1.7,4.2-1.7s3,0.6,4.1,1.7s1.6,2.7,1.6,4.8c0,0.1,0,0.3,0,0.6h-9.3c0.1,1.4,0.5,2.4,1.2,3.1
		s1.6,1.1,2.6,1.1c0.8,0,1.4-0.2,2-0.6S527,299.3,527.4,298.4z M520.4,295h6.9c-0.1-1-0.4-1.8-0.8-2.4c-0.7-0.8-1.5-1.2-2.6-1.2
		c-1,0-1.8,0.3-2.4,1S520.5,293.9,520.4,295z"/>
	<path fill="#0F1F30" d="M532.2,287.7v-2.4h2.1v2.4H532.2z M532.2,302.4V290h2.1v12.4H532.2z"/>
	<path fill="#0F1F30" d="M541,302.4l-4.7-12.4h2.2l2.7,7.5c0.3,0.8,0.6,1.6,0.8,2.5c0.2-0.7,0.4-1.4,0.8-2.4l2.8-7.6h2.2l-4.7,12.4
		H541z"/>
	<path fill="#0F1F30" d="M558,298.4l2.2,0.3c-0.3,1.3-1,2.3-1.9,3s-2.1,1.1-3.6,1.1c-1.8,0-3.3-0.6-4.3-1.7s-1.6-2.7-1.6-4.7
		c0-2.1,0.5-3.7,1.6-4.9s2.5-1.7,4.2-1.7s3,0.6,4.1,1.7s1.6,2.7,1.6,4.8c0,0.1,0,0.3,0,0.6H551c0.1,1.4,0.5,2.4,1.2,3.1
		s1.6,1.1,2.6,1.1c0.8,0,1.4-0.2,2-0.6S557.7,299.3,558,298.4z M551.1,295h6.9c-0.1-1-0.4-1.8-0.8-2.4c-0.7-0.8-1.5-1.2-2.6-1.2
		c-1,0-1.8,0.3-2.4,1S551.2,293.9,551.1,295z"/>
	<path fill="#0F1F30" d="M562.8,302.4V290h1.9v1.9c0.5-0.9,0.9-1.5,1.3-1.7s0.9-0.4,1.4-0.4c0.7,0,1.4,0.2,2.2,0.7l-0.7,2
		c-0.5-0.3-1-0.5-1.5-0.5s-0.9,0.1-1.2,0.4s-0.6,0.7-0.8,1.2c-0.2,0.8-0.4,1.6-0.4,2.5v6.5h-2.2V302.4z"/>
	<path fill="#8A9AA5" d="M583.2,294.1c0,1-1,1.7-2.3,1.7s-2.3-0.8-2.3-1.7c0-1,1-1.7,2.3-1.7S583.2,293.1,583.2,294.1z"/>
	<path fill="#8A9AA5" d="M594.7,294.1c0-1,1-1.7,2.3-1.7s2.3,0.8,2.3,1.7c0,1-1,1.7-2.3,1.7C595.7,295.8,594.7,295,594.7,294.1z"/>
	<path fill="#8A9AA5" d="M589.3,290c-1,0-1.7-1-1.7-2.3s0.8-2.3,1.7-2.3s1.7,1,1.7,2.3C591.1,289,590.3,290,589.3,290z"/>
	<path fill="#8A9AA5" d="M589,298.5c1,0,1.7,1,1.7,2.3s-0.8,2.3-1.7,2.3c-1,0-1.7-1-1.7-2.3C587.2,299.5,588,298.5,589,298.5z"/>
	<path fill="#8A9AA5" d="M591.5,294.4c0,1.4-1.1,2.5-2.5,2.5s-2.5-1.1-2.5-2.5s1.1-2.5,2.5-2.5S591.5,293,591.5,294.4z"/>
	<path fill="#8A9AA5" d="M445,299.5c0-0.6,0.7-1.1,1.5-1.1h20c0.8,0,1.5,0.5,1.5,1.1v3.9c0,0.6-0.7,1.1-1.5,1.1h-20
		c-0.8,0-1.5-0.5-1.5-1.1V299.5z"/>
	<polyline fill="#FFFFFF" points="231.1,331.3 231.1,276.1 229.1,276.1 229.1,331.3 	"/>
	<rect x="225.4" y="322.4" fill="#B5C0C9" width="9.4" height="11.9"/>
	<path fill="#FFFFFF" d="M225.4,334.3h1v-10.9h7.4v9.9l-8.4,0V334.3h1H225.4v1h9.4c0.3,0,0.5-0.1,0.7-0.3c0.2-0.2,0.3-0.4,0.3-0.7
		v-11.9c0-0.3-0.1-0.5-0.3-0.7c-0.2-0.2-0.4-0.3-0.7-0.3h-9.4c-0.3,0-0.5,0.1-0.7,0.3c-0.2,0.2-0.3,0.4-0.3,0.7v11.9
		c0,0.3,0.1,0.5,0.3,0.7c0.2,0.2,0.4,0.3,0.7,0.3V334.3z"/>
	<rect x="225.4" y="322.4" fill="#B5C0C9" width="9.4" height="11.9"/>
	<path fill="#FFFFFF" d="M225.4,334.3h1v-10.9h7.4v9.9l-8.4,0V334.3h1H225.4v1h9.4c0.3,0,0.5-0.1,0.7-0.3c0.2-0.2,0.3-0.4,0.3-0.7
		v-11.9c0-0.3-0.1-0.5-0.3-0.7c-0.2-0.2-0.4-0.3-0.7-0.3h-9.4c-0.3,0-0.5,0.1-0.7,0.3c-0.2,0.2-0.3,0.4-0.3,0.7v11.9
		c0,0.3,0.1,0.5,0.3,0.7c0.2,0.2,0.4,0.3,0.7,0.3V334.3z"/>
	<path fill="#B5C0C9" d="M222.6,339.3c-0.8,0-1.5-0.6-1.5-1.4v-2.2c0-0.8,0.6-1.5,1.5-1.5h15.2c0.8,0,1.5,0.6,1.5,1.5v2.2
		c0,0.8-0.6,1.4-1.5,1.4H222.6z"/>
	<path fill="#FFFFFF" d="M222.6,339.3v-1c-0.1,0-0.3-0.1-0.4-0.1c-0.1-0.1-0.1-0.2-0.1-0.3v-2.2c0-0.1,0.1-0.3,0.1-0.4
		c0.1-0.1,0.2-0.1,0.4-0.1h15.2c0.1,0,0.3,0.1,0.4,0.1c0.1,0.1,0.1,0.2,0.1,0.4v2.2c0,0.2,0,0.2-0.1,0.3c-0.1,0.1-0.2,0.1-0.4,0.1
		h-15.2V339.3v1h15.2c0.7,0,1.3-0.2,1.8-0.7c0.5-0.4,0.7-1.1,0.7-1.7v-2.2c0-0.7-0.3-1.4-0.8-1.8c-0.5-0.4-1.1-0.7-1.7-0.7h-15.2
		c-0.7,0-1.4,0.3-1.8,0.8c-0.4,0.5-0.7,1.1-0.7,1.7v2.2c0,0.7,0.3,1.3,0.8,1.7c0.5,0.4,1.1,0.7,1.7,0.7V339.3z"/>
	<rect x="276" y="322.4" fill="#B5C0C9" width="9.4" height="11.9"/>
	<path fill="#FFFFFF" d="M276,334.3h1v-10.9h7.4v9.9l-8.4,0V334.3h1H276v1h9.4c0.3,0,0.5-0.1,0.7-0.3c0.2-0.2,0.3-0.4,0.3-0.7v-11.9
		c0-0.3-0.1-0.5-0.3-0.7c-0.2-0.2-0.4-0.3-0.7-0.3H276c-0.3,0-0.5,0.1-0.7,0.3c-0.2,0.2-0.3,0.4-0.3,0.7v11.9c0,0.3,0.1,0.5,0.3,0.7
		c0.2,0.2,0.4,0.3,0.7,0.3V334.3z"/>
	<rect x="276" y="322.4" fill="#B5C0C9" width="9.4" height="11.9"/>
	<path fill="#FFFFFF" d="M276,334.3h1v-10.9h7.4v9.9l-8.4,0V334.3h1H276v1h9.4c0.3,0,0.5-0.1,0.7-0.3c0.2-0.2,0.3-0.4,0.3-0.7v-11.9
		c0-0.3-0.1-0.5-0.3-0.7c-0.2-0.2-0.4-0.3-0.7-0.3H276c-0.3,0-0.5,0.1-0.7,0.3c-0.2,0.2-0.3,0.4-0.3,0.7v11.9c0,0.3,0.1,0.5,0.3,0.7
		c0.2,0.2,0.4,0.3,0.7,0.3V334.3z"/>
	<path fill="#B5C0C9" d="M273.2,339.3c-0.8,0-1.5-0.6-1.5-1.4v-2.2c0-0.8,0.6-1.5,1.5-1.5h15.2c0.8,0,1.5,0.6,1.5,1.5v2.2
		c0,0.8-0.6,1.4-1.5,1.4H273.2z"/>
	<path fill="#FFFFFF" d="M273.2,339.3v-1c-0.1,0-0.3-0.1-0.4-0.1c-0.1-0.1-0.1-0.2-0.1-0.3v-2.2c0-0.1,0.1-0.3,0.1-0.4
		c0.1-0.1,0.2-0.1,0.4-0.1h15.2c0.1,0,0.3,0.1,0.4,0.1c0.1,0.1,0.1,0.2,0.1,0.4v2.2c0,0.2,0,0.2-0.1,0.3c-0.1,0.1-0.2,0.1-0.4,0.1
		h-15.2V339.3v1h15.2c0.7,0,1.3-0.2,1.8-0.7c0.5-0.4,0.7-1.1,0.7-1.7v-2.2c0-0.7-0.3-1.4-0.8-1.8c-0.5-0.4-1.1-0.7-1.7-0.7h-15.2
		c-0.7,0-1.4,0.3-1.8,0.8c-0.4,0.5-0.7,1.1-0.7,1.7v2.2c0,0.7,0.3,1.3,0.8,1.7c0.5,0.4,1.1,0.7,1.7,0.7V339.3z"/>
	<rect x="265.4" y="379.1" fill="#B5C0C9" width="9.4" height="11.9"/>
	<path fill="#FFFFFF" d="M274.8,379.1h-1V390l-7.4,0v-9.9h8.4V379.1h-1H274.8v-1h-9.4c-0.3,0-0.5,0.1-0.7,0.3
		c-0.2,0.2-0.3,0.4-0.3,0.7V391c0,0.3,0.1,0.5,0.3,0.7c0.2,0.2,0.4,0.3,0.7,0.3h9.4c0.3,0,0.5-0.1,0.7-0.3c0.2-0.2,0.3-0.4,0.3-0.7
		v-11.9c0-0.3-0.1-0.5-0.3-0.7c-0.2-0.2-0.4-0.3-0.7-0.3V379.1z"/>
	<rect x="265.4" y="379.1" fill="#B5C0C9" width="9.4" height="11.9"/>
	<path fill="#FFFFFF" d="M274.8,379.1h-1V390l-7.4,0v-9.9h8.4V379.1h-1H274.8v-1h-9.4c-0.3,0-0.5,0.1-0.7,0.3
		c-0.2,0.2-0.3,0.4-0.3,0.7V391c0,0.3,0.1,0.5,0.3,0.7c0.2,0.2,0.4,0.3,0.7,0.3h9.4c0.3,0,0.5-0.1,0.7-0.3c0.2-0.2,0.3-0.4,0.3-0.7
		v-11.9c0-0.3-0.1-0.5-0.3-0.7c-0.2-0.2-0.4-0.3-0.7-0.3V379.1z"/>
	<path fill="#B5C0C9" d="M277.8,374.1c0.9,0,1.5,0.6,1.5,1.4v2.2c0,0.9-0.7,1.5-1.5,1.5h-15.2c-0.9,0-1.5-0.7-1.5-1.5v-2.2
		c0-0.8,0.7-1.4,1.5-1.4H277.8z"/>
	<path fill="#FFFFFF" d="M277.8,374.1v1c0.2,0,0.3,0.1,0.4,0.1c0.1,0.1,0.1,0.1,0.1,0.3v2.2c0,0.2-0.1,0.3-0.1,0.4
		c-0.1,0.1-0.2,0.1-0.4,0.1h-15.2c-0.2,0-0.3-0.1-0.4-0.1c-0.1-0.1-0.1-0.2-0.1-0.4v-2.2c0-0.1,0-0.2,0.1-0.3
		c0.1-0.1,0.2-0.1,0.4-0.1h15.2V374.1v-1h-15.2c-0.7,0-1.3,0.2-1.7,0.7c-0.5,0.4-0.8,1-0.8,1.7v2.2c0,0.6,0.2,1.3,0.7,1.7
		c0.4,0.5,1.1,0.8,1.8,0.8h15.2c0.6,0,1.3-0.2,1.7-0.7c0.5-0.4,0.8-1.1,0.8-1.8v-2.2c0-0.6-0.3-1.3-0.7-1.7
		c-0.5-0.4-1.1-0.7-1.8-0.7V374.1z"/>
	<rect x="206.5" y="379.1" fill="#B5C0C9" width="9.4" height="11.9"/>
	<path fill="#FFFFFF" d="M215.9,379.1h-1V390l-7.4,0l0-9.9h8.4V379.1h-1H215.9v-1h-9.4c-0.3,0-0.5,0.1-0.7,0.3
		c-0.2,0.2-0.3,0.4-0.3,0.7V391c0,0.3,0.1,0.5,0.3,0.7c0.2,0.2,0.4,0.3,0.7,0.3h9.4c0.3,0,0.5-0.1,0.7-0.3c0.2-0.2,0.3-0.4,0.3-0.7
		v-11.9c0-0.3-0.1-0.5-0.3-0.7c-0.2-0.2-0.4-0.3-0.7-0.3V379.1z"/>
	<rect x="206.5" y="379.1" fill="#B5C0C9" width="9.4" height="11.9"/>
	<path fill="#FFFFFF" d="M215.9,379.1h-1V390l-7.4,0l0-9.9h8.4V379.1h-1H215.9v-1h-9.4c-0.3,0-0.5,0.1-0.7,0.3
		c-0.2,0.2-0.3,0.4-0.3,0.7V391c0,0.3,0.1,0.5,0.3,0.7c0.2,0.2,0.4,0.3,0.7,0.3h9.4c0.3,0,0.5-0.1,0.7-0.3c0.2-0.2,0.3-0.4,0.3-0.7
		v-11.9c0-0.3-0.1-0.5-0.3-0.7c-0.2-0.2-0.4-0.3-0.7-0.3V379.1z"/>
	<path fill="#B5C0C9" d="M218.9,374.1c0.9,0,1.5,0.6,1.5,1.4v2.2c0,0.9-0.7,1.5-1.5,1.5h-15.2c-0.9,0-1.5-0.7-1.5-1.5v-2.2
		c0-0.8,0.7-1.4,1.5-1.4H218.9z"/>
	<path fill="#FFFFFF" d="M218.9,374.1v1c0.2,0,0.3,0.1,0.4,0.1c0.1,0.1,0.1,0.1,0.1,0.3v2.2c0,0.2-0.1,0.3-0.1,0.4
		c-0.1,0.1-0.2,0.1-0.4,0.1h-15.2c-0.2,0-0.3-0.1-0.4-0.1c-0.1-0.1-0.1-0.2-0.1-0.4v-2.2c0-0.1,0-0.2,0.1-0.3
		c0.1-0.1,0.2-0.1,0.4-0.1h15.2V374.1v-1h-15.2c-0.7,0-1.3,0.2-1.7,0.7c-0.5,0.4-0.8,1-0.8,1.7v2.2c0,0.6,0.2,1.3,0.7,1.7
		c0.4,0.5,1.1,0.8,1.8,0.8h15.2c0.6,0,1.3-0.2,1.7-0.7c0.5-0.4,0.8-1.1,0.8-1.8v-2.2c0-0.6-0.3-1.3-0.7-1.7
		c-0.5-0.4-1.1-0.7-1.8-0.7V374.1z"/>
	<rect x="294.9" y="379.1" fill="#B5C0C9" width="9.4" height="11.9"/>
	<path fill="#FFFFFF" d="M304.3,379.1h-1V390l-7.4,0v-9.9h8.4V379.1h-1H304.3v-1h-9.4c-0.3,0-0.5,0.1-0.7,0.3
		c-0.2,0.2-0.3,0.4-0.3,0.7V391c0,0.3,0.1,0.5,0.3,0.7c0.2,0.2,0.4,0.3,0.7,0.3h9.4c0.3,0,0.5-0.1,0.7-0.3c0.2-0.2,0.3-0.4,0.3-0.7
		v-11.9c0-0.3-0.1-0.5-0.3-0.7c-0.2-0.2-0.4-0.3-0.7-0.3V379.1z"/>
	<rect x="294.9" y="379.1" fill="#B5C0C9" width="9.4" height="11.9"/>
	<path fill="#FFFFFF" d="M304.3,379.1h-1V390l-7.4,0v-9.9h8.4V379.1h-1H304.3v-1h-9.4c-0.3,0-0.5,0.1-0.7,0.3
		c-0.2,0.2-0.3,0.4-0.3,0.7V391c0,0.3,0.1,0.5,0.3,0.7c0.2,0.2,0.4,0.3,0.7,0.3h9.4c0.3,0,0.5-0.1,0.7-0.3c0.2-0.2,0.3-0.4,0.3-0.7
		v-11.9c0-0.3-0.1-0.5-0.3-0.7c-0.2-0.2-0.4-0.3-0.7-0.3V379.1z"/>
	<path fill="#B5C0C9" d="M307.3,374.1c0.9,0,1.5,0.6,1.5,1.4v2.2c0,0.9-0.7,1.5-1.5,1.5h-15.2c-0.9,0-1.5-0.7-1.5-1.5v-2.2
		c0-0.8,0.7-1.4,1.5-1.4H307.3z"/>
	<path fill="#FFFFFF" d="M307.3,374.1v1c0.2,0,0.3,0.1,0.4,0.1c0.1,0.1,0.1,0.1,0.1,0.3v2.2c0,0.2-0.1,0.3-0.1,0.4
		c-0.1,0.1-0.2,0.1-0.4,0.1h-15.2c-0.2,0-0.3-0.1-0.4-0.1c-0.1-0.1-0.1-0.2-0.1-0.4v-2.2c0-0.1,0-0.2,0.1-0.3
		c0.1-0.1,0.2-0.1,0.4-0.1h15.2V374.1v-1h-15.2c-0.7,0-1.3,0.2-1.7,0.7c-0.5,0.4-0.8,1-0.8,1.7v2.2c0,0.6,0.2,1.3,0.7,1.7
		c0.4,0.5,1.1,0.8,1.8,0.8h15.2c0.6,0,1.3-0.2,1.7-0.7c0.5-0.4,0.8-1.1,0.8-1.8v-2.2c0-0.6-0.3-1.3-0.7-1.7
		c-0.5-0.4-1.1-0.7-1.8-0.7V374.1z"/>
	<rect x="235.9" y="379.1" fill="#B5C0C9" width="9.4" height="11.9"/>
	<path fill="#FFFFFF" d="M245.3,379.1h-1V390l-7.4,0v-9.9h8.4V379.1h-1H245.3v-1h-9.4c-0.3,0-0.5,0.1-0.7,0.3
		c-0.2,0.2-0.3,0.4-0.3,0.7V391c0,0.3,0.1,0.5,0.3,0.7c0.2,0.2,0.4,0.3,0.7,0.3h9.4c0.3,0,0.5-0.1,0.7-0.3c0.2-0.2,0.3-0.4,0.3-0.7
		v-11.9c0-0.3-0.1-0.5-0.3-0.7c-0.2-0.2-0.4-0.3-0.7-0.3V379.1z"/>
	<rect x="235.9" y="379.1" fill="#B5C0C9" width="9.4" height="11.9"/>
	<path fill="#FFFFFF" d="M245.3,379.1h-1V390l-7.4,0v-9.9h8.4V379.1h-1H245.3v-1h-9.4c-0.3,0-0.5,0.1-0.7,0.3
		c-0.2,0.2-0.3,0.4-0.3,0.7V391c0,0.3,0.1,0.5,0.3,0.7c0.2,0.2,0.4,0.3,0.7,0.3h9.4c0.3,0,0.5-0.1,0.7-0.3c0.2-0.2,0.3-0.4,0.3-0.7
		v-11.9c0-0.3-0.1-0.5-0.3-0.7c-0.2-0.2-0.4-0.3-0.7-0.3V379.1z"/>
	<path fill="#B5C0C9" d="M248.3,374.1c0.9,0,1.5,0.6,1.5,1.4v2.2c0,0.9-0.7,1.5-1.5,1.5h-15.2c-0.9,0-1.5-0.7-1.5-1.5v-2.2
		c0-0.8,0.7-1.4,1.5-1.4H248.3z"/>
	<path fill="#FFFFFF" d="M248.3,374.1v1c0.2,0,0.3,0.1,0.4,0.1c0.1,0.1,0.1,0.1,0.1,0.3v2.2c0,0.2-0.1,0.3-0.1,0.4
		c-0.1,0.1-0.2,0.1-0.4,0.1h-15.2c-0.2,0-0.3-0.1-0.4-0.1c-0.1-0.1-0.1-0.2-0.1-0.4v-2.2c0-0.1,0-0.2,0.1-0.3
		c0.1-0.1,0.2-0.1,0.4-0.1h15.2V374.1v-1h-15.2c-0.7,0-1.3,0.2-1.7,0.7c-0.5,0.4-0.8,1-0.8,1.7v2.2c0,0.6,0.2,1.3,0.7,1.7
		c0.4,0.5,1.1,0.8,1.8,0.8h15.2c0.6,0,1.3-0.2,1.7-0.7c0.5-0.4,0.8-1.1,0.8-1.8v-2.2c0-0.6-0.3-1.3-0.7-1.7
		c-0.5-0.4-1.1-0.7-1.8-0.7V374.1z"/>
	<rect x="193.8" y="337" fill="#B5C0C9" width="123.3" height="38.9"/>
	<path fill="#FFFFFF" d="M193.8,337v1h122.3v36.9H194.8V337H193.8v1V337h-1v38.9c0,0.3,0.1,0.5,0.3,0.7c0.2,0.2,0.4,0.3,0.7,0.3
		h123.3c0.3,0,0.5-0.1,0.7-0.3c0.2-0.2,0.3-0.4,0.3-0.7V337c0-0.3-0.1-0.5-0.3-0.7c-0.2-0.2-0.4-0.3-0.7-0.3H193.8
		c-0.3,0-0.5,0.1-0.7,0.3c-0.2,0.2-0.3,0.4-0.3,0.7H193.8z"/>
	<path d="M198.5,364.4v-17.2h3.4l4.1,12.2c0.4,1.1,0.6,2,0.8,2.5c0.2-0.6,0.5-1.5,0.9-2.8l4.1-12h3.1v17.2h-2.2v-14.4l-5,14.4h-2.1
		l-5-14.6v14.6L198.5,364.4z"/>
	<path d="M226.5,364.4v-1.8c-1,1.4-2.3,2.1-3.9,2.1c-0.7,0-1.4-0.1-2.1-0.4s-1.1-0.6-1.4-1.1s-0.5-0.9-0.7-1.6
		c-0.1-0.4-0.1-1.1-0.1-2v-7.7h2.1v6.9c0,1.1,0,1.8,0.1,2.2c0.1,0.6,0.4,1,0.8,1.3s1,0.5,1.6,0.5s1.2-0.2,1.8-0.5s0.9-0.8,1.2-1.3
		s0.3-1.4,0.3-2.4v-6.7h2.1v12.4h-1.8L226.5,364.4L226.5,364.4z"/>
	<rect x="231.6" y="347.2" width="2.1" height="17.2"/>
	<path d="M241.6,362.5l0.3,1.9c-0.6,0.1-1.1,0.2-1.6,0.2c-0.8,0-1.4-0.1-1.8-0.4s-0.7-0.6-0.9-1s-0.3-1.2-0.3-2.5v-7.2h-1.5v-1.6
		h1.5v-3.1l2.1-1.3v4.3h2.1v1.6h-2.1v7.3c0,0.6,0,1,0.1,1.2s0.2,0.3,0.4,0.4s0.4,0.2,0.7,0.2C240.9,362.6,241.2,362.6,241.6,362.5z"
		/>
	<path d="M243.7,349.6v-2.4h2.1v2.4H243.7z M243.7,364.4V352h2.1v12.4H243.7z"/>
	<path d="M248.1,360.7l2.1-0.3c0.1,0.8,0.4,1.5,1,1.9s1.3,0.7,2.2,0.7c1,0,1.7-0.2,2.2-0.6s0.7-0.9,0.7-1.4s-0.2-0.9-0.6-1.1
		c-0.3-0.2-1-0.4-2.2-0.7c-1.5-0.4-2.6-0.7-3.2-1s-1.1-0.7-1.4-1.2s-0.5-1.1-0.5-1.7s0.1-1.1,0.4-1.5s0.6-0.9,1-1.2
		c0.3-0.2,0.8-0.4,1.3-0.6s1.2-0.3,1.8-0.3c1,0,1.8,0.1,2.6,0.4s1.3,0.7,1.6,1.1c0.3,0.4,0.6,1.1,0.7,1.9l-2.1,0.3
		c-0.1-0.6-0.4-1.1-0.8-1.5s-1.1-0.5-1.9-0.5c-1,0-1.7,0.2-2.1,0.5s-0.6,0.7-0.6,1.1c0,0.3,0.1,0.5,0.3,0.7s0.4,0.4,0.8,0.6
		c0.2,0.1,0.8,0.3,1.9,0.5c1.5,0.4,2.5,0.7,3.1,1c0.6,0.3,1.1,0.6,1.4,1.1s0.5,1.1,0.5,1.8c0,0.7-0.2,1.4-0.6,2
		c-0.4,0.6-1,1.1-1.8,1.4c-0.8,0.3-1.6,0.5-2.6,0.5c-1.6,0-2.8-0.3-3.7-1S248.4,362,248.1,360.7z"/>
	<path d="M263.3,364.4l-3.8-12.4h2.2l2,7.2l0.7,2.7c0-0.1,0.2-1,0.6-2.6l2-7.3h2.2l1.9,7.2l0.6,2.4l0.7-2.4l2.1-7.2h2.1l-3.9,12.4
		h-2.2l-2-7.5l-0.5-2.1l-2.5,9.6L263.3,364.4z"/>
	<path d="M278.3,349.6v-2.4h2.1v2.4H278.3z M278.3,364.4V352h2.1v12.4H278.3z"/>
	<path d="M288.3,362.5l0.3,1.9c-0.6,0.1-1.1,0.2-1.6,0.2c-0.8,0-1.4-0.1-1.8-0.4c-0.4-0.3-0.7-0.6-0.9-1c-0.2-0.4-0.3-1.2-0.3-2.5
		v-7.2h-1.5v-1.6h1.5v-3.1l2.1-1.3v4.3h2.1v1.6h-2.1v7.3c0,0.6,0,1,0.1,1.2s0.2,0.3,0.4,0.4c0.2,0.1,0.4,0.2,0.7,0.2
		C287.6,362.6,287.9,362.6,288.3,362.5z"/>
	<path d="M298.4,359.8l2.1,0.3c-0.2,1.4-0.8,2.5-1.7,3.4s-2.1,1.2-3.4,1.2c-1.7,0-3.1-0.6-4.1-1.7s-1.6-2.7-1.6-4.8
		c0-1.3,0.2-2.5,0.7-3.5s1.1-1.8,2-2.3s1.9-0.8,3-0.8c1.4,0,2.5,0.3,3.3,1c0.8,0.7,1.4,1.7,1.7,2.9l-2.1,0.3c-0.2-0.8-0.5-1.5-1-1.9
		s-1.1-0.6-1.8-0.6c-1.1,0-1.9,0.4-2.6,1.1s-1,2-1,3.6c0,1.7,0.3,2.9,1,3.6c0.7,0.7,1.5,1.1,2.5,1.1c0.8,0,1.5-0.3,2.1-0.8
		S298.3,360.9,298.4,359.8z"/>
	<path d="M302.3,364.4v-17.2h2.1v6.2c1-1.1,2.2-1.7,3.7-1.7c0.9,0,1.7,0.2,2.4,0.5s1.2,0.9,1.5,1.5s0.4,1.6,0.4,2.8v7.9h-2.1v-7.9
		c0-1.1-0.2-1.8-0.7-2.3s-1.1-0.7-1.9-0.7c-0.6,0-1.2,0.2-1.8,0.5s-0.9,0.8-1.2,1.3c-0.3,0.5-0.4,1.3-0.4,2.3v6.8L302.3,364.4z"/>
	<path fill="#0CBC18" d="M144,432.4c0-2.9,0.8-5.1,2.3-6.7s3.5-2.4,5.9-2.4c1.6,0,3,0.4,4.3,1.1s2.2,1.8,2.9,3.2
		c0.7,1.4,1,2.9,1,4.6s-0.4,3.3-1.1,4.7s-1.7,2.4-3,3.1s-2.7,1.1-4.2,1.1c-1.6,0-3.1-0.4-4.3-1.2c-1.2-0.8-2.2-1.8-2.9-3.2
		C144.2,435.3,144,433.9,144,432.4z M146.4,432.5c0,2.1,0.6,3.7,1.7,4.9c1.1,1.2,2.5,1.8,4.2,1.8s3.1-0.6,4.2-1.8
		c1.1-1.2,1.7-2.9,1.7-5.1c0-1.4-0.2-2.6-0.7-3.7s-1.2-1.9-2.1-2.4c-0.9-0.5-1.9-0.9-3.1-0.9c-1.6,0-3,0.6-4.2,1.7
		S146.4,429.9,146.4,432.5z"/>
	<path fill="#0CBC18" d="M163.1,445.6v-17.2h1.9v1.6c0.5-0.6,1-1.1,1.5-1.4s1.3-0.5,2.1-0.5c1.1,0,2,0.3,2.8,0.8s1.4,1.3,1.8,2.3
		s0.6,2.1,0.6,3.3c0,1.3-0.2,2.4-0.7,3.4s-1.1,1.8-2,2.3c-0.9,0.5-1.8,0.8-2.7,0.8c-0.7,0-1.3-0.1-1.9-0.4c-0.6-0.3-1-0.7-1.4-1.1
		v6.1L163.1,445.6z M165,434.6c0,1.6,0.3,2.8,1,3.6s1.4,1.1,2.4,1.1c0.9,0,1.7-0.4,2.4-1.2c0.7-0.8,1-2,1-3.7c0-1.6-0.3-2.8-1-3.6
		s-1.4-1.2-2.3-1.2c-0.9,0-1.7,0.4-2.4,1.3C165.4,431.8,165,433,165,434.6z"/>
	<path fill="#0CBC18" d="M181.1,438.9l0.3,1.9c-0.6,0.1-1.1,0.2-1.6,0.2c-0.8,0-1.4-0.1-1.8-0.4s-0.7-0.6-0.9-1s-0.3-1.2-0.3-2.5
		v-7.2h-1.5v-1.6h1.5v-3.1l2.1-1.3v4.3h2.1v1.6h-2.1v7.3c0,0.6,0,1,0.1,1.2s0.2,0.3,0.4,0.4s0.4,0.2,0.7,0.2
		C180.4,439,180.7,439,181.1,438.9z"/>
	<path fill="#0CBC18" d="M183.2,426v-2.4h2.1v2.4H183.2z M183.2,440.8v-12.4h2.1v12.4H183.2z"/>
	<path fill="#0CBC18" d="M187.7,434.6c0-2.3,0.6-4,1.9-5.1c1.1-0.9,2.4-1.4,3.9-1.4c1.7,0,3.1,0.6,4.2,1.7s1.6,2.7,1.6,4.6
		c0,1.6-0.2,2.9-0.7,3.8s-1.2,1.6-2.1,2.1s-1.9,0.8-3,0.8c-1.7,0-3.2-0.6-4.2-1.7S187.7,436.7,187.7,434.6z M189.9,434.6
		c0,1.6,0.3,2.8,1,3.6s1.6,1.2,2.6,1.2s1.9-0.4,2.6-1.2s1-2,1-3.6c0-1.5-0.3-2.7-1-3.5s-1.6-1.2-2.6-1.2c-1.1,0-1.9,0.4-2.6,1.2
		S189.9,433,189.9,434.6z"/>
	<path fill="#0CBC18" d="M201.8,440.8v-12.4h1.9v1.8c0.9-1.4,2.2-2.1,4-2.1c0.8,0,1.4,0.1,2.1,0.4s1.1,0.6,1.4,1.1s0.5,1,0.7,1.6
		c0.1,0.4,0.1,1.1,0.1,2.1v7.7h-2.1v-7.6c0-0.9-0.1-1.5-0.2-1.9s-0.5-0.8-0.9-1s-0.9-0.4-1.5-0.4c-0.9,0-1.7,0.3-2.3,0.9
		s-1,1.7-1,3.2v6.8h-2.2V440.8z"/>
	<path fill="#0CBC18" d="M223.3,439.3c-0.8,0.7-1.5,1.1-2.3,1.4s-1.5,0.4-2.3,0.4c-1.4,0-2.4-0.3-3.2-1s-1.1-1.5-1.1-2.6
		c0-0.6,0.1-1.2,0.4-1.7s0.6-0.9,1.1-1.2s1-0.5,1.5-0.7c0.4-0.1,1-0.2,1.9-0.3c1.7-0.2,3-0.4,3.8-0.7c0-0.3,0-0.5,0-0.6
		c0-0.9-0.2-1.5-0.6-1.8c-0.5-0.5-1.3-0.7-2.4-0.7c-1,0-1.7,0.2-2.2,0.5s-0.8,1-1,1.8l-2.1-0.3c0.2-0.9,0.5-1.6,0.9-2.1
		s1.1-1,1.9-1.3s1.8-0.4,2.8-0.4c1.1,0,1.9,0.1,2.6,0.4s1.2,0.6,1.5,0.9s0.5,0.9,0.7,1.4c0.1,0.4,0.1,1,0.1,1.9v2.8
		c0,2,0,3.2,0.1,3.7s0.3,1,0.5,1.5h-2.2C223.5,440.4,223.4,439.8,223.3,439.3z M223.1,434.5c-0.8,0.3-1.9,0.6-3.4,0.8
		c-0.9,0.1-1.5,0.3-1.8,0.4s-0.6,0.4-0.8,0.7s-0.3,0.6-0.3,1c0,0.6,0.2,1,0.6,1.4s1,0.6,1.9,0.6c0.8,0,1.5-0.2,2.2-0.5
		s1.1-0.8,1.4-1.5c0.2-0.5,0.3-1.2,0.3-2.1L223.1,434.5z"/>
	<rect x="228.5" y="423.6" fill="#0CBC18" width="2.1" height="17.2"/>
	<polygon fill="#FFFFFF" points="146,323.6 175,323.6 175,200.1 255.2,200.1 255.2,237.2 257.2,237.2 257.2,198.1 173,198.1 
		173,321.6 146,321.6 	"/>
	<path fill="#FFFFFF" d="M130.7,310.5l-0.4-40.8c0,0,0-2.8-2.5-2.8s-2.5,2.8-2.5,2.8l-0.4,40.8H130.7z"/>
	<path fill="#B5C0C9" d="M86.6,335.2H160v-20.3c0,0,0.5-2.7-7.9-3.4c0,0-25.9-2.8-65.3-3.3h-0.5c-39.4,0.5-65.3,3.3-65.3,3.3
		c-8.3,0.8-7.9,3.4-7.9,3.4v20.3H86.6z"/>
	<path fill="#FFFFFF" d="M86.6,335.2v1H161v-21.3h-1l1,0.2c0-0.1,0-0.1,0-0.3c0-0.3-0.1-0.7-0.3-1.1c-0.4-0.7-1.1-1.4-2.4-1.9
		c-1.3-0.6-3.2-1-6.1-1.3l-0.1,1l0.1-1c0,0-26-2.8-65.4-3.3l0,0h-0.5h0l0,0c-39.4,0.5-65.4,3.3-65.4,3.3l0.1,1l-0.1-1
		c-3.9,0.4-6,1.1-7.3,2c-0.6,0.4-1,0.9-1.3,1.3c-0.2,0.4-0.3,0.8-0.3,1.1c0,0.1,0,0.2,0,0.2l1-0.2h-1v21.3h74.5V335.2v-1H14.1
		l0-19.4l0-0.1l-0.6,0.1h0.6l0-0.1l-0.6,0.1h0.6h-0.2l0.2,0l0,0h-0.2l0.2,0c0,0,0-0.1,0.1-0.2c0.1-0.2,0.5-0.6,1.6-1.1
		c1-0.4,2.7-0.9,5.3-1.1l0,0l0,0c0,0,0.4,0,1.2-0.1c5.5-0.5,29.6-2.7,64-3.2l0-1v1h0.5v-1l0,1c19.7,0.2,36,1.1,47.4,1.8
		c5.7,0.4,10.2,0.7,13.2,1c1.5,0.1,2.7,0.2,3.5,0.3c0.8,0.1,1.2,0.1,1.2,0.1l0,0l0,0c3.7,0.3,5.5,1,6.3,1.6c0.4,0.3,0.6,0.5,0.6,0.6
		l0.1,0.1l0,0l0,0h0l0,0l0,0h0h0.5l-0.5-0.1l0,0.1h0.5l-0.5-0.1l0,0.1v19.4l-72.4,0V335.2z"/>
	<polygon points="52.1,331 52.1,315.8 46.4,315.8 46.4,313.8 60.1,313.8 60.1,315.8 54.4,315.8 54.4,331 	"/>
	<path d="M67.3,331l-6.7-17.2h2.5l4.5,12.5c0.4,1,0.7,1.9,0.9,2.8c0.3-0.9,0.6-1.9,0.9-2.8l4.6-12.5h2.3L69.6,331H67.3z"/>
	<rect x="76" y="323.8" width="6.5" height="2.1"/>
	<polygon points="85.1,331 85.1,313.8 87.4,313.8 87.4,320.9 96.3,320.9 96.3,313.8 98.6,313.8 98.6,331 96.3,331 96.3,322.9 
		87.4,322.9 87.4,331 	"/>
	<path d="M110.3,331v-1.8c-1,1.4-2.3,2.1-3.9,2.1c-0.7,0-1.4-0.1-2.1-0.4s-1.1-0.6-1.4-1.1s-0.5-0.9-0.7-1.6c-0.1-0.4-0.1-1.1-0.1-2
		v-7.7h2.1v6.9c0,1.1,0,1.8,0.1,2.2c0.1,0.6,0.4,1,0.8,1.3s1,0.5,1.6,0.5s1.2-0.2,1.8-0.5s0.9-0.8,1.2-1.3s0.3-1.4,0.3-2.4v-6.7h2.1
		v12.4h-1.8V331z"/>
	<path d="M117.4,331h-2v-17.2h2.1v6.1c0.9-1.1,2-1.7,3.4-1.7c0.8,0,1.5,0.2,2.2,0.5s1.2,0.7,1.7,1.3s0.8,1.2,1,2s0.4,1.6,0.4,2.5
		c0,2.1-0.5,3.8-1.6,4.9s-2.3,1.7-3.8,1.7s-2.6-0.6-3.5-1.8v1.7H117.4z M117.4,324.7c0,1.5,0.2,2.6,0.6,3.2c0.7,1.1,1.6,1.6,2.7,1.6
		c0.9,0,1.7-0.4,2.4-1.2s1-2,1-3.6s-0.3-2.8-1-3.6s-1.4-1.2-2.3-1.2s-1.7,0.4-2.4,1.2S117.4,323.2,117.4,324.7z"/>
	<rect x="250.7" y="212.1" fill="#B5C0C9" width="9.4" height="11.9"/>
	<path fill="#FFFFFF" d="M250.7,224h1v-10.9h7.4v9.9l-8.4,0V224h1H250.7v1h9.4c0.3,0,0.5-0.1,0.7-0.3c0.2-0.2,0.3-0.4,0.3-0.7v-11.9
		c0-0.3-0.1-0.5-0.3-0.7c-0.2-0.2-0.4-0.3-0.7-0.3h-9.4c-0.3,0-0.5,0.1-0.7,0.3s-0.3,0.4-0.3,0.7V224c0,0.3,0.1,0.5,0.3,0.7
		s0.4,0.3,0.7,0.3V224z"/>
	<path fill="#B5C0C9" d="M247.9,229c-0.8,0-1.5-0.6-1.5-1.4v-2.2c0-0.8,0.6-1.5,1.5-1.5h15.2c0.8,0,1.5,0.6,1.5,1.5v2.2
		c0,0.8-0.6,1.4-1.5,1.4H247.9z"/>
	<path fill="#FFFFFF" d="M247.9,229v-1c-0.1,0-0.3-0.1-0.4-0.1c-0.1-0.1-0.1-0.2-0.1-0.3v-2.2c0-0.2,0.1-0.3,0.1-0.4
		c0.1-0.1,0.2-0.1,0.4-0.1h15.2c0.1,0,0.3,0.1,0.4,0.1c0.1,0.1,0.1,0.2,0.1,0.4v2.2c0,0.2,0,0.2-0.1,0.3c-0.1,0.1-0.2,0.1-0.4,0.1
		h-15.2V229v1h15.2c0.7,0,1.3-0.2,1.8-0.7c0.5-0.4,0.7-1.1,0.7-1.7v-2.2c0-0.7-0.3-1.4-0.8-1.8c-0.5-0.4-1.1-0.7-1.7-0.7h-15.2
		c-0.7,0-1.4,0.3-1.8,0.8c-0.4,0.5-0.7,1.1-0.7,1.7v2.2c0,0.7,0.3,1.3,0.8,1.7c0.5,0.4,1.1,0.7,1.7,0.7V229z"/>
	<rect x="276" y="268.8" fill="#B5C0C9" width="9.4" height="11.9"/>
	<path fill="#FFFFFF" d="M285.4,268.8h-1v10.9H277v-9.9h8.4V268.8h-1H285.4v-1H276c-0.3,0-0.5,0.1-0.7,0.3c-0.2,0.2-0.3,0.4-0.3,0.7
		v11.9c0,0.3,0.1,0.5,0.3,0.7c0.2,0.2,0.4,0.3,0.7,0.3h9.4c0.3,0,0.5-0.1,0.7-0.3c0.2-0.2,0.3-0.4,0.3-0.7v-11.9
		c0-0.3-0.1-0.5-0.3-0.7c-0.2-0.2-0.4-0.3-0.7-0.3V268.8z"/>
	<path fill="#B5C0C9" d="M288.4,263.8c0.9,0,1.5,0.6,1.5,1.4v2.2c0,0.9-0.7,1.5-1.5,1.5h-15.2c-0.9,0-1.5-0.7-1.5-1.5v-2.2
		c0-0.8,0.7-1.4,1.5-1.4H288.4z"/>
	<path fill="#FFFFFF" d="M288.4,263.8v1c0.2,0,0.3,0.1,0.4,0.1c0.1,0.1,0.1,0.1,0.1,0.3v2.2c0,0.2-0.1,0.3-0.1,0.4
		c-0.1,0.1-0.2,0.1-0.4,0.1h-15.2c-0.2,0-0.3-0.1-0.4-0.1c-0.1-0.1-0.1-0.2-0.1-0.4v-2.2c0-0.1,0-0.2,0.1-0.3
		c0.1-0.1,0.2-0.1,0.4-0.1h15.2V263.8v-1h-15.2c-0.7,0-1.3,0.2-1.7,0.7c-0.5,0.4-0.8,1-0.8,1.7v2.2c0,0.6,0.2,1.3,0.7,1.7
		c0.4,0.5,1.1,0.8,1.8,0.8h15.2c0.6,0,1.3-0.2,1.7-0.7c0.5-0.4,0.8-1.1,0.8-1.8v-2.2c0-0.6-0.3-1.3-0.7-1.7
		c-0.5-0.4-1.1-0.7-1.8-0.7V263.8z"/>
	<rect x="225.3" y="269.3" fill="#B5C0C9" width="9.4" height="11.9"/>
	<path fill="#FFFFFF" d="M234.7,269.3h-1v10.9h-7.4v-9.9h8.4V269.3h-1H234.7v-1h-9.4c-0.3,0-0.5,0.1-0.7,0.3s-0.3,0.4-0.3,0.7v11.9
		c0,0.3,0.1,0.5,0.3,0.7c0.2,0.2,0.4,0.3,0.7,0.3h9.4c0.3,0,0.5-0.1,0.7-0.3c0.2-0.2,0.3-0.4,0.3-0.7v-11.9c0-0.3-0.1-0.5-0.3-0.7
		s-0.4-0.3-0.7-0.3V269.3z"/>
	<path fill="#B5C0C9" d="M237.7,264.3c0.9,0,1.5,0.6,1.5,1.4v2.2c0,0.9-0.7,1.5-1.5,1.5h-15.2c-0.9,0-1.5-0.7-1.5-1.5v-2.2
		c0-0.8,0.7-1.4,1.5-1.4H237.7z"/>
	<path fill="#FFFFFF" d="M237.7,264.3v1c0.2,0,0.3,0.1,0.4,0.1c0.1,0.1,0.1,0.1,0.1,0.3v2.2c0,0.2-0.1,0.3-0.1,0.4
		c-0.1,0.1-0.2,0.1-0.4,0.1h-15.2c-0.2,0-0.3-0.1-0.4-0.1c-0.1-0.1-0.1-0.2-0.1-0.4v-2.2c0-0.1,0-0.2,0.1-0.3
		c0.1-0.1,0.2-0.1,0.4-0.1h15.2V264.3v-1h-15.2c-0.7,0-1.3,0.2-1.7,0.7c-0.5,0.4-0.8,1-0.8,1.7v2.2c0,0.6,0.2,1.3,0.7,1.7
		c0.4,0.5,1.1,0.8,1.8,0.8h15.2c0.6,0,1.3-0.2,1.7-0.7c0.5-0.4,0.8-1.1,0.8-1.8v-2.2c0-0.6-0.3-1.3-0.7-1.7
		c-0.5-0.4-1.1-0.7-1.8-0.7V264.3z"/>
	<rect x="214.7" y="227" fill="#B5C0C9" width="81.5" height="38.9"/>
	<polygon fill="#FFFFFF" points="214.7,227 214.7,228 295.2,228 295.2,264.9 215.7,264.9 215.7,227 214.7,227 214.7,228 214.7,227 
		213.7,227 213.7,266.9 297.2,266.9 297.2,226 213.7,226 213.7,227 	"/>
	<path d="M219,248.9l2.1-0.2c0.1,0.9,0.3,1.6,0.7,2.1s0.9,1,1.7,1.3s1.7,0.5,2.6,0.5c0.9,0,1.6-0.1,2.3-0.4s1.2-0.6,1.5-1.1
		s0.5-0.9,0.5-1.5c0-0.5-0.2-1-0.5-1.4s-0.8-0.7-1.5-1c-0.5-0.2-1.5-0.5-3.1-0.8s-2.7-0.7-3.3-1.1c-0.8-0.4-1.4-1-1.8-1.6
		s-0.6-1.3-0.6-2.1c0-0.9,0.2-1.7,0.7-2.4s1.2-1.3,2.2-1.7s2-0.6,3.2-0.6c1.3,0,2.4,0.2,3.4,0.6s1.7,1,2.2,1.8s0.8,1.7,0.8,2.7
		l-2.2,0.2c-0.1-1.1-0.5-1.9-1.2-2.5s-1.7-0.8-3-0.8c-1.4,0-2.4,0.3-3,0.8s-0.9,1.1-0.9,1.8c0,0.6,0.2,1.1,0.7,1.5
		c0.4,0.4,1.6,0.8,3.4,1.2s3.1,0.8,3.8,1.1c1,0.5,1.7,1,2.2,1.8s0.7,1.5,0.7,2.4c0,0.9-0.3,1.8-0.8,2.6s-1.3,1.4-2.3,1.9
		s-2.1,0.7-3.3,0.7c-1.6,0-2.9-0.2-3.9-0.7s-1.9-1.1-2.5-2S219.1,250,219,248.9z"/>
	<path d="M235.5,259.1v-17.2h1.9v1.6c0.5-0.6,1-1.1,1.5-1.4s1.3-0.5,2.1-0.5c1.1,0,2,0.3,2.8,0.8s1.4,1.3,1.8,2.3s0.6,2.1,0.6,3.3
		c0,1.3-0.2,2.4-0.7,3.4s-1.1,1.8-2,2.3s-1.8,0.8-2.7,0.8c-0.7,0-1.3-0.1-1.9-0.4s-1-0.7-1.4-1.1v6.1H235.5z M237.4,248.2
		c0,1.6,0.3,2.8,1,3.6s1.4,1.1,2.4,1.1c0.9,0,1.7-0.4,2.4-1.2s1-2,1-3.7c0-1.6-0.3-2.8-1-3.6s-1.4-1.2-2.3-1.2
		c-0.9,0-1.7,0.4-2.4,1.3S237.4,246.6,237.4,248.2z"/>
	<rect x="248.8" y="237.2" width="2.1" height="17.2"/>
	<path d="M254.2,239.6v-2.4h2.1v2.4H254.2z M254.2,254.4v-12.4h2.1v12.4H254.2z"/>
	<path d="M264.2,252.5l0.3,1.9c-0.6,0.1-1.1,0.2-1.6,0.2c-0.8,0-1.4-0.1-1.8-0.4s-0.7-0.6-0.9-1s-0.3-1.2-0.3-2.5v-7.2h-1.5v-1.6
		h1.5v-3.1l2.1-1.3v4.3h2.1v1.6H262v7.3c0,0.6,0,1,0.1,1.2s0.2,0.3,0.4,0.4s0.4,0.2,0.7,0.2C263.5,252.6,263.8,252.5,264.2,252.5z"
		/>
	<path d="M270.8,252.5l0.3,1.9c-0.6,0.1-1.1,0.2-1.6,0.2c-0.8,0-1.4-0.1-1.8-0.4s-0.7-0.6-0.9-1s-0.3-1.2-0.3-2.5v-7.2h-1.5v-1.6
		h1.5v-3.1l2.1-1.3v4.3h2.1v1.6h-2.1v7.3c0,0.6,0,1,0.1,1.2s0.2,0.3,0.4,0.4s0.4,0.2,0.7,0.2C270.1,252.6,270.4,252.5,270.8,252.5z"
		/>
	<path d="M281.4,250.4l2.2,0.3c-0.3,1.3-1,2.3-1.9,3s-2.1,1.1-3.6,1.1c-1.8,0-3.3-0.6-4.3-1.7s-1.6-2.7-1.6-4.7
		c0-2.1,0.5-3.7,1.6-4.9s2.5-1.7,4.2-1.7c1.7,0,3,0.6,4.1,1.7s1.6,2.7,1.6,4.8c0,0.1,0,0.3,0,0.6h-9.3c0.1,1.4,0.5,2.4,1.2,3.1
		s1.6,1.1,2.6,1.1c0.8,0,1.4-0.2,2-0.6S281.1,251.3,281.4,250.4z M274.5,247h6.9c-0.1-1-0.4-1.8-0.8-2.4c-0.7-0.8-1.5-1.2-2.6-1.2
		c-1,0-1.8,0.3-2.4,1S274.5,245.9,274.5,247z"/>
	<path d="M286.2,254.4v-12.4h1.9v1.9c0.5-0.9,0.9-1.5,1.3-1.7s0.9-0.4,1.4-0.4c0.7,0,1.4,0.2,2.2,0.7l-0.7,2c-0.5-0.3-1-0.5-1.5-0.5
		c-0.5,0-0.9,0.1-1.2,0.4s-0.6,0.7-0.8,1.2c-0.2,0.8-0.4,1.6-0.4,2.5v6.5H286.2z"/>
	<rect x="400.4" y="546.7" fill="#B5C0C9" width="11.9" height="9.4"/>
	<polygon fill="#0CBC18" points="400.4,546.7 400.4,548.2 410.8,548.2 410.8,554.6 401.9,554.6 401.9,546.7 400.4,546.7 
		400.4,548.2 400.4,546.7 398.9,546.7 398.9,557.6 413.8,557.6 413.8,545.2 398.9,545.2 398.9,546.7 	"/>
	<path fill="#B5C0C9" d="M395.4,543.9c0-0.8,0.6-1.5,1.4-1.5h2.2c0.8,0,1.5,0.6,1.5,1.5v15.2c0,0.8-0.6,1.5-1.5,1.5h-2.2
		c-0.8,0-1.4-0.6-1.4-1.5V543.9z"/>
	<path fill="#0CBC18" d="M395.4,543.9h1.5l0,0l0,0l-0.1-0.1l0,0.1l0,0l-0.1-0.1l0,0.1l-0.1-0.2l0,0.2l0.1,0l-0.1-0.2l0,0.2h2.2v15.2
		h-2.2l0,0l0,0.2l0.1-0.1l-0.1-0.1l0,0.2l0.1-0.1l-0.1,0.1l0.1-0.1l0,0l-0.1,0.1l0.1-0.1l0,0l0,0l0,0l0,0l0,0l0-0.1v-15.2H395.4
		h-1.5v15.2c0,0.8,0.3,1.6,0.8,2.1c0.5,0.6,1.3,0.9,2.1,0.9h2.2c0.8,0,1.6-0.3,2.2-0.9c0.5-0.6,0.8-1.3,0.8-2.1v-15.2
		c0-0.8-0.3-1.6-0.9-2.2c-0.6-0.5-1.3-0.8-2.1-0.8h-2.2c-0.8,0-1.6,0.4-2.1,0.9c-0.5,0.6-0.8,1.3-0.8,2.1H395.4z"/>
	<rect x="321" y="546.7" fill="#B5C0C9" width="12" height="9.4"/>
	<polygon fill="#0CBC18" points="321,546.7 321,548.2 331.5,548.2 331.5,554.6 322.5,554.6 322.5,546.7 321,546.7 321,548.2 
		321,546.7 319.5,546.7 319.5,557.6 334.5,557.6 334.5,545.2 319.5,545.2 319.5,546.7 	"/>
	<path fill="#B5C0C9" d="M338,543.9c0-0.8-0.6-1.5-1.4-1.5h-2.2c-0.8,0-1.5,0.6-1.5,1.5v15.2c0,0.8,0.6,1.5,1.5,1.5h2.2
		c0.8,0,1.4-0.6,1.4-1.5V543.9z"/>
	<path fill="#0CBC18" d="M338,543.9h1.5c0-0.8-0.3-1.5-0.8-2.1c-0.5-0.6-1.3-0.9-2.1-0.9h-2.2c-0.8,0-1.5,0.3-2.1,0.8
		c-0.6,0.5-0.9,1.3-0.9,2.2v15.2c0,0.8,0.3,1.5,0.8,2.1c0.5,0.6,1.3,0.9,2.2,0.9h2.2c0.8,0,1.6-0.3,2.1-0.9c0.5-0.6,0.8-1.3,0.8-2.1
		v-15.2H338h-1.5v15.2l0,0.1l0.1,0l-0.1,0l0,0l0.1,0l-0.1,0l0.2,0.1l-0.1-0.2l-0.1,0.1l0.2,0.1l-0.1-0.2l0.1,0.1l0-0.1l0,0l0.1,0.1
		l0-0.1l0,0h-2.2v-15.2h2.2v-0.1l-0.1,0.1l0.1,0v-0.1l-0.1,0.1l0,0l0,0H338z"/>
	<polygon fill="#B5C0C9" points="397.7,574.7 403.5,571.8 403.5,564.9 397.8,561.3 	"/>
	<polygon fill="#0CBC18" points="397.7,574.7 398.3,576 405,572.7 405,564.1 396.3,558.6 396.1,577.1 398.3,576 397.7,574.7 
		399.2,574.7 399.2,564 402,565.7 402,570.9 397,573.3 397.7,574.7 399.2,574.7 	"/>
	<rect x="336.4" y="538.9" fill="#B5C0C9" width="60.6" height="40.2"/>
	<polygon fill="#0CBC18" points="336.4,538.9 336.4,540.4 395.5,540.4 395.5,577.6 337.9,577.6 337.9,538.9 336.4,538.9 
		336.4,540.4 336.4,538.9 334.9,538.9 334.9,580.6 398.5,580.6 398.5,537.4 334.9,537.4 334.9,538.9 	"/>
	<rect x="342.4" y="550.9" width="2.3" height="17.2"/>
	<path d="M348.7,568.1v-17.2h6.5c1.1,0,2,0.1,2.6,0.2c0.8,0.1,1.6,0.4,2.1,0.8c0.5,0.4,1,0.9,1.4,1.7c0.4,0.8,0.5,1.5,0.5,2.3
		c0,1.5-0.5,2.7-1.4,3.7s-2.6,1.5-5,1.5H351v7H348.7z M351,559.1h4.4c1.5,0,2.5-0.3,3.1-0.8s0.9-1.3,0.9-2.3c0-0.7-0.2-1.3-0.5-1.8
		s-0.8-0.8-1.4-1c-0.4-0.1-1.1-0.2-2.1-0.2H351V559.1z"/>
	<path d="M361.1,568.1l6.6-17.2h2.4l7,17.2h-2.6l-2-5.2h-7.2l-1.9,5.2H361.1z M366,561.1h5.8l-1.8-4.8c-0.5-1.4-1-2.6-1.2-3.6
		c-0.2,1.1-0.5,2.2-0.9,3.3L366,561.1z"/>
	<path d="M378.2,562.6l2.1-0.2c0.1,0.9,0.3,1.6,0.7,2.1s0.9,1,1.7,1.3s1.7,0.5,2.6,0.5s1.6-0.1,2.3-0.4s1.2-0.6,1.5-1.1
		s0.5-0.9,0.5-1.5c0-0.5-0.2-1-0.5-1.4c-0.3-0.4-0.8-0.7-1.5-1c-0.5-0.2-1.5-0.5-3.1-0.8s-2.7-0.7-3.3-1.1c-0.8-0.4-1.4-1-1.8-1.6
		c-0.4-0.6-0.6-1.3-0.6-2.1c0-0.9,0.2-1.7,0.7-2.4c0.5-0.7,1.2-1.3,2.2-1.7s2-0.6,3.2-0.6c1.3,0,2.4,0.2,3.4,0.6
		c1,0.4,1.7,1,2.2,1.8s0.8,1.7,0.8,2.7l-2.2,0.2c-0.1-1.1-0.5-1.9-1.2-2.5c-0.7-0.6-1.7-0.8-3-0.8c-1.4,0-2.4,0.3-3,0.8
		s-0.9,1.1-0.9,1.8c0,0.6,0.2,1.1,0.7,1.5c0.4,0.4,1.6,0.8,3.4,1.2s3.1,0.8,3.8,1.1c1,0.5,1.7,1,2.2,1.8s0.7,1.5,0.7,2.4
		c0,0.9-0.3,1.8-0.8,2.6c-0.5,0.8-1.3,1.4-2.3,1.9s-2.1,0.7-3.3,0.7c-1.6,0-2.9-0.2-3.9-0.7s-1.9-1.1-2.5-2
		C378.4,564.8,378.2,563.7,378.2,562.6z"/>
</g>
</svg>
