<?xml version="1.0" encoding="utf-8"?>
<!-- Generator: Adobe Illustrator 18.1.1, SVG Export Plug-In . SVG Version: 6.00 Build 0)  -->
<svg version="1.1" id="Layer_1" xmlns="http://www.w3.org/2000/svg" xmlns:xlink="http://www.w3.org/1999/xlink" x="0px" y="0px"
	 viewBox="0 0 612 792" enable-background="new 0 0 612 792" xml:space="preserve">
<g>
	<polygon fill="#FFFFFF" points="431.9,360.1 228.8,360.1 228.8,258 226.8,258 226.8,362.1 431.9,362.1 	"/>
	<polygon fill="#0CBC18" points="450.6,506.1 202.1,506.1 202.1,245 200.1,245 200.1,508.1 450.6,508.1 	"/>
	<polygon fill="#0CBC18" points="467.5,433.3 215.5,433.3 215.5,251.3 213.5,251.3 213.5,435.3 467.5,435.3 	"/>
	<polygon fill="#FFFFFF" points="159.7,304.5 189.4,304.5 189.4,251.3 187.4,251.3 187.4,302.5 159.7,302.5 	"/>
	<polyline fill="#FFFFFF" points="95.2,347 95.2,311.3 93.2,311.3 93.2,347 	"/>
	<path fill="#FFFF33" d="M442.7,539.8l2.3,0.6c-0.5,1.9-1.3,3.3-2.6,4.3s-2.8,1.5-4.5,1.5c-1.9,0-3.4-0.4-4.5-1.1
		c-1.1-0.7-2-1.8-2.6-3.3s-0.9-3-0.9-4.6c0-1.8,0.3-3.3,1-4.7s1.7-2.3,2.9-3s2.7-1,4.2-1c1.7,0,3.2,0.4,4.3,1.3s2,2.1,2.4,3.7
		l-2.2,0.5c-0.4-1.3-1-2.2-1.7-2.7s-1.7-0.9-2.9-0.9c-1.3,0-2.4,0.3-3.3,0.9s-1.5,1.5-1.9,2.5s-0.5,2.2-0.5,3.3
		c0,1.5,0.2,2.7,0.6,3.8s1.1,1.9,2,2.4s1.9,0.8,2.9,0.8c1.3,0,2.4-0.4,3.2-1.1S442.4,541.2,442.7,539.8z"/>
	<path fill="#FFFF33" d="M455.6,544.3c-0.8,0.7-1.5,1.1-2.3,1.4s-1.5,0.4-2.3,0.4c-1.4,0-2.4-0.3-3.2-1c-0.8-0.7-1.1-1.5-1.1-2.6
		c0-0.6,0.1-1.2,0.4-1.7s0.6-0.9,1.1-1.2s1-0.5,1.5-0.7c0.4-0.1,1-0.2,1.9-0.3c1.7-0.2,3-0.4,3.8-0.7c0-0.3,0-0.5,0-0.6
		c0-0.9-0.2-1.5-0.6-1.8c-0.5-0.5-1.3-0.7-2.4-0.7c-1,0-1.7,0.2-2.2,0.5s-0.8,1-1,1.8l-2.1-0.3c0.2-0.9,0.5-1.6,0.9-2.1
		s1.1-1,1.9-1.3s1.8-0.4,2.8-0.4c1.1,0,1.9,0.1,2.6,0.4s1.2,0.6,1.5,0.9c0.3,0.3,0.5,0.9,0.7,1.4c0.1,0.4,0.1,1,0.1,1.9v2.8
		c0,2,0,3.2,0.1,3.7s0.3,1,0.5,1.5H456C455.8,545.4,455.7,544.9,455.6,544.3z M455.4,539.6c-0.8,0.3-1.9,0.6-3.4,0.8
		c-0.9,0.1-1.5,0.3-1.8,0.4c-0.3,0.1-0.6,0.4-0.8,0.7c-0.2,0.3-0.3,0.6-0.3,1c0,0.6,0.2,1,0.6,1.4s1,0.6,1.9,0.6
		c0.8,0,1.5-0.2,2.2-0.5s1.1-0.8,1.4-1.5c0.2-0.5,0.3-1.2,0.3-2.1v-0.8L455.4,539.6L455.4,539.6z"/>
	<path fill="#FFFF33" d="M460.8,545.8v-12.4h1.9v1.8c0.9-1.4,2.2-2.1,4-2.1c0.8,0,1.4,0.1,2.1,0.4s1.1,0.6,1.4,1.1s0.5,1,0.7,1.6
		c0.1,0.4,0.1,1.1,0.1,2.1v7.7h-2.1v-7.6c0-0.9-0.1-1.5-0.2-1.9s-0.5-0.8-0.9-1s-0.9-0.4-1.5-0.4c-0.9,0-1.7,0.3-2.3,0.9
		c-0.6,0.6-1,1.7-1,3.2v6.8h-2.2V545.8z"/>
	<path fill="#FFFF33" d="M481,545.8v-17.2h6.4c1.3,0,2.4,0.2,3.2,0.5c0.8,0.3,1.4,0.9,1.9,1.6s0.7,1.5,0.7,2.3
		c0,0.7-0.2,1.4-0.6,2.1c-0.4,0.7-1,1.2-1.8,1.6c1,0.3,1.8,0.8,2.4,1.6s0.8,1.6,0.8,2.6c0,0.8-0.2,1.6-0.5,2.2s-0.8,1.2-1.3,1.6
		c-0.5,0.4-1.1,0.7-1.9,0.8s-1.7,0.3-2.8,0.3L481,545.8L481,545.8z M483.3,535.8h3.7c1,0,1.7-0.1,2.2-0.2c0.6-0.2,1-0.5,1.3-0.9
		s0.4-0.9,0.4-1.5s-0.1-1.1-0.4-1.5s-0.7-0.7-1.2-0.9s-1.4-0.2-2.6-0.2h-3.4V535.8z M483.3,543.8h4.3c0.7,0,1.3,0,1.5-0.1
		c0.5-0.1,1-0.3,1.3-0.5s0.6-0.5,0.9-1s0.3-0.9,0.3-1.4c0-0.6-0.2-1.2-0.5-1.7s-0.8-0.8-1.4-1s-1.4-0.3-2.5-0.3h-4v6H483.3z"/>
	<path fill="#FFFF33" d="M505.4,541.8l2.2,0.3c-0.3,1.3-1,2.3-1.9,3s-2.1,1.1-3.6,1.1c-1.8,0-3.3-0.6-4.3-1.7s-1.6-2.7-1.6-4.7
		c0-2.1,0.5-3.7,1.6-4.9s2.5-1.7,4.2-1.7s3,0.6,4.1,1.7c1.1,1.1,1.6,2.7,1.6,4.8c0,0.1,0,0.3,0,0.6h-9.3c0.1,1.4,0.5,2.4,1.2,3.1
		c0.7,0.7,1.6,1.1,2.6,1.1c0.8,0,1.4-0.2,2-0.6C504.8,543.5,505.1,542.7,505.4,541.8z M498.5,538.4h6.9c-0.1-1-0.4-1.8-0.8-2.4
		c-0.7-0.8-1.5-1.2-2.6-1.2c-1,0-1.8,0.3-2.4,1S498.5,537.3,498.5,538.4z"/>
	<path fill="#FFFF33" d="M517.1,545.8v-17.2h3.4l4.1,12.2c0.4,1.1,0.6,2,0.8,2.5c0.2-0.6,0.5-1.5,0.9-2.8l4.1-12h3.1v17.2h-2.2
		v-14.4l-5,14.4h-2.1l-5-14.6v14.6L517.1,545.8z"/>
	<path fill="#FFFF33" d="M545,544.3c-0.8,0.7-1.5,1.1-2.3,1.4s-1.5,0.4-2.3,0.4c-1.4,0-2.4-0.3-3.2-1s-1.1-1.5-1.1-2.6
		c0-0.6,0.1-1.2,0.4-1.7s0.6-0.9,1.1-1.2s1-0.5,1.5-0.7c0.4-0.1,1-0.2,1.9-0.3c1.7-0.2,3-0.4,3.8-0.7c0-0.3,0-0.5,0-0.6
		c0-0.9-0.2-1.5-0.6-1.8c-0.5-0.5-1.3-0.7-2.4-0.7c-1,0-1.7,0.2-2.2,0.5s-0.8,1-1,1.8l-2.1-0.3c0.2-0.9,0.5-1.6,0.9-2.1
		s1.1-1,1.9-1.3s1.8-0.4,2.8-0.4c1.1,0,1.9,0.1,2.6,0.4s1.2,0.6,1.5,0.9c0.3,0.3,0.5,0.9,0.7,1.4c0.1,0.4,0.1,1,0.1,1.9v2.8
		c0,2,0,3.2,0.1,3.7s0.3,1,0.5,1.5h-2.2C545.2,545.4,545.1,544.9,545,544.3z M544.8,539.6c-0.8,0.3-1.9,0.6-3.4,0.8
		c-0.9,0.1-1.5,0.3-1.8,0.4c-0.3,0.1-0.6,0.4-0.8,0.7s-0.3,0.6-0.3,1c0,0.6,0.2,1,0.6,1.4s1,0.6,1.9,0.6c0.8,0,1.5-0.2,2.2-0.5
		s1.1-0.8,1.4-1.5c0.2-0.5,0.3-1.2,0.3-2.1v-0.8L544.8,539.6L544.8,539.6z"/>
	<path fill="#FFFF33" d="M549.4,542.1l2.1-0.3c0.1,0.8,0.4,1.5,1,1.9s1.3,0.7,2.2,0.7c1,0,1.7-0.2,2.2-0.6s0.7-0.9,0.7-1.4
		s-0.2-0.9-0.6-1.1c-0.3-0.2-1-0.4-2.2-0.7c-1.5-0.4-2.6-0.7-3.2-1s-1.1-0.7-1.4-1.2s-0.5-1.1-0.5-1.7s0.1-1.1,0.4-1.5
		s0.6-0.9,1-1.2c0.3-0.2,0.8-0.4,1.3-0.6c0.5-0.2,1.2-0.3,1.8-0.3c1,0,1.8,0.1,2.6,0.4s1.3,0.7,1.6,1.1c0.3,0.4,0.6,1.1,0.7,1.9
		l-2.1,0.3c-0.1-0.6-0.4-1.1-0.8-1.5s-1.1-0.5-1.9-0.5c-1,0-1.7,0.2-2.1,0.5s-0.6,0.7-0.6,1.1c0,0.3,0.1,0.5,0.3,0.7
		s0.4,0.4,0.8,0.6c0.2,0.1,0.8,0.3,1.9,0.5c1.5,0.4,2.5,0.7,3.1,1s1.1,0.6,1.4,1.1s0.5,1.1,0.5,1.8s-0.2,1.4-0.6,2
		c-0.4,0.6-1,1.1-1.8,1.4s-1.6,0.5-2.6,0.5c-1.6,0-2.8-0.3-3.7-1S549.6,543.4,549.4,542.1z"/>
	<path fill="#FFFF33" d="M566.8,543.9l0.3,1.9c-0.6,0.1-1.1,0.2-1.6,0.2c-0.8,0-1.4-0.1-1.8-0.4s-0.7-0.6-0.9-1s-0.3-1.2-0.3-2.5
		V535H561v-1.6h1.5v-3.1l2.1-1.3v4.3h2.1v1.6h-2.1v7.3c0,0.6,0,1,0.1,1.2s0.2,0.3,0.4,0.4c0.2,0.1,0.4,0.2,0.7,0.2
		S566.4,544,566.8,543.9z"/>
	<path fill="#FFFF33" d="M577.4,541.8l2.2,0.3c-0.3,1.3-1,2.3-1.9,3s-2.1,1.1-3.6,1.1c-1.8,0-3.3-0.6-4.3-1.7s-1.6-2.7-1.6-4.7
		c0-2.1,0.5-3.7,1.6-4.9s2.5-1.7,4.2-1.7s3,0.6,4.1,1.7c1.1,1.1,1.6,2.7,1.6,4.8c0,0.1,0,0.3,0,0.6h-9.3c0.1,1.4,0.5,2.4,1.2,3.1
		c0.7,0.7,1.6,1.1,2.6,1.1c0.8,0,1.4-0.2,2-0.6C576.8,543.5,577.1,542.7,577.4,541.8z M570.5,538.4h6.9c-0.1-1-0.4-1.8-0.8-2.4
		c-0.7-0.8-1.5-1.2-2.6-1.2c-1,0-1.8,0.3-2.4,1S570.6,537.3,570.5,538.4z"/>
	<path fill="#FFFF33" d="M582.2,545.8v-12.4h1.9v1.9c0.5-0.9,0.9-1.5,1.3-1.7c0.4-0.2,0.9-0.4,1.4-0.4c0.7,0,1.4,0.2,2.2,0.7l-0.7,2
		c-0.5-0.3-1-0.5-1.5-0.5s-0.9,0.1-1.2,0.4c-0.3,0.3-0.6,0.7-0.8,1.2c-0.2,0.8-0.4,1.6-0.4,2.5v6.5h-2.2V545.8z"/>
	<path fill="#FFFF33" d="M589.4,531.8l0.5-1.7c1.2,0.4,2.1,0.8,2.7,1.1c-0.1-1.4-0.2-2.4-0.2-2.9h1.7c0,0.8-0.1,1.7-0.3,2.9
		c0.8-0.4,1.7-0.8,2.8-1.1l0.5,1.7c-1,0.3-2,0.5-2.9,0.7c0.5,0.4,1.1,1.2,2,2.2l-1.4,1c-0.5-0.6-1-1.5-1.6-2.5
		c-0.6,1.1-1.1,1.9-1.5,2.5l-1.4-1c0.9-1.1,1.6-1.9,1.9-2.2C591.3,532.2,590.3,532,589.4,531.8z"/>
	<path fill="#FFFF33" d="M442.7,466.7l2.3,0.6c-0.5,1.9-1.3,3.3-2.6,4.3s-2.8,1.5-4.5,1.5c-1.9,0-3.4-0.4-4.5-1.1s-2-1.8-2.6-3.3
		s-0.9-3-0.9-4.6c0-1.8,0.3-3.3,1-4.7s1.7-2.3,2.9-3s2.7-1,4.2-1c1.7,0,3.2,0.4,4.3,1.3s2,2.1,2.4,3.7l-2.2,0.5
		c-0.4-1.3-1-2.2-1.7-2.7s-1.7-0.9-2.9-0.9c-1.3,0-2.4,0.3-3.3,0.9s-1.5,1.5-1.9,2.5s-0.5,2.2-0.5,3.3c0,1.5,0.2,2.7,0.6,3.8
		s1.1,1.9,2,2.4s1.9,0.8,2.9,0.8c1.3,0,2.4-0.4,3.2-1.1S442.4,468.1,442.7,466.7z"/>
	<path fill="#FFFF33" d="M455.6,471.2c-0.8,0.7-1.5,1.1-2.3,1.4s-1.5,0.4-2.3,0.4c-1.4,0-2.4-0.3-3.2-1s-1.1-1.5-1.1-2.6
		c0-0.6,0.1-1.2,0.4-1.7s0.6-0.9,1.1-1.2s1-0.5,1.5-0.7c0.4-0.1,1-0.2,1.9-0.3c1.7-0.2,3-0.4,3.8-0.7c0-0.3,0-0.5,0-0.6
		c0-0.9-0.2-1.5-0.6-1.8c-0.5-0.5-1.3-0.7-2.4-0.7c-1,0-1.7,0.2-2.2,0.5s-0.8,1-1,1.8l-2.1-0.3c0.2-0.9,0.5-1.6,0.9-2.1
		s1.1-1,1.9-1.3s1.8-0.4,2.8-0.4c1.1,0,1.9,0.1,2.6,0.4s1.2,0.6,1.5,0.9s0.5,0.9,0.7,1.4c0.1,0.4,0.1,1,0.1,1.9v2.8
		c0,2,0,3.2,0.1,3.7s0.3,1,0.5,1.5H456C455.8,472.3,455.7,471.7,455.6,471.2z M455.4,466.4c-0.8,0.3-1.9,0.6-3.4,0.8
		c-0.9,0.1-1.5,0.3-1.8,0.4s-0.6,0.4-0.8,0.7s-0.3,0.6-0.3,1c0,0.6,0.2,1,0.6,1.4s1,0.6,1.9,0.6c0.8,0,1.5-0.2,2.2-0.5
		s1.1-0.8,1.4-1.5c0.2-0.5,0.3-1.2,0.3-2.1v-0.8H455.4z"/>
	<path fill="#FFFF33" d="M460.8,472.7v-12.4h1.9v1.8c0.9-1.4,2.2-2.1,4-2.1c0.8,0,1.4,0.1,2.1,0.4s1.1,0.6,1.4,1.1s0.5,1,0.7,1.6
		c0.1,0.4,0.1,1.1,0.1,2.1v7.7h-2.1v-7.6c0-0.9-0.1-1.5-0.2-1.9s-0.5-0.8-0.9-1s-0.9-0.4-1.5-0.4c-0.9,0-1.7,0.3-2.3,0.9
		s-1,1.7-1,3.2v6.8h-2.2V472.7z"/>
	<path fill="#FFFF33" d="M481,472.7v-17.2h6.4c1.3,0,2.4,0.2,3.2,0.5s1.4,0.9,1.9,1.6s0.7,1.5,0.7,2.3c0,0.7-0.2,1.4-0.6,2.1
		s-1,1.2-1.8,1.6c1,0.3,1.8,0.8,2.4,1.6s0.8,1.6,0.8,2.6c0,0.8-0.2,1.6-0.5,2.2s-0.8,1.2-1.3,1.6s-1.1,0.7-1.9,0.8s-1.7,0.3-2.8,0.3
		H481z M483.3,462.7h3.7c1,0,1.7-0.1,2.2-0.2c0.6-0.2,1-0.5,1.3-0.9s0.4-0.9,0.4-1.5s-0.1-1.1-0.4-1.5s-0.7-0.7-1.2-0.9
		s-1.4-0.2-2.6-0.2h-3.4V462.7z M483.3,470.7h4.3c0.7,0,1.3,0,1.5-0.1c0.5-0.1,1-0.3,1.3-0.5s0.6-0.5,0.9-1s0.3-0.9,0.3-1.4
		c0-0.6-0.2-1.2-0.5-1.7s-0.8-0.8-1.4-1s-1.4-0.3-2.5-0.3h-4v6H483.3z"/>
	<path fill="#FFFF33" d="M505.4,468.7l2.2,0.3c-0.3,1.3-1,2.3-1.9,3s-2.1,1.1-3.6,1.1c-1.8,0-3.3-0.6-4.3-1.7s-1.6-2.7-1.6-4.7
		c0-2.1,0.5-3.7,1.6-4.9s2.5-1.7,4.2-1.7s3,0.6,4.1,1.7s1.6,2.7,1.6,4.8c0,0.1,0,0.3,0,0.6h-9.3c0.1,1.4,0.5,2.4,1.2,3.1
		s1.6,1.1,2.6,1.1c0.8,0,1.4-0.2,2-0.6S505.1,469.6,505.4,468.7z M498.5,465.3h6.9c-0.1-1-0.4-1.8-0.8-2.4c-0.7-0.8-1.5-1.2-2.6-1.2
		c-1,0-1.8,0.3-2.4,1S498.5,464.2,498.5,465.3z"/>
	<path fill="#FFFF33" d="M517.1,472.7v-17.2h3.4l4.1,12.2c0.4,1.1,0.6,2,0.8,2.5c0.2-0.6,0.5-1.5,0.9-2.8l4.1-12h3.1v17.2h-2.2
		v-14.4l-5,14.4h-2.1l-5-14.6v14.6L517.1,472.7z"/>
	<path fill="#FFFF33" d="M545,471.2c-0.8,0.7-1.5,1.1-2.3,1.4s-1.5,0.4-2.3,0.4c-1.4,0-2.4-0.3-3.2-1s-1.1-1.5-1.1-2.6
		c0-0.6,0.1-1.2,0.4-1.7s0.6-0.9,1.1-1.2s1-0.5,1.5-0.7c0.4-0.1,1-0.2,1.9-0.3c1.7-0.2,3-0.4,3.8-0.7c0-0.3,0-0.5,0-0.6
		c0-0.9-0.2-1.5-0.6-1.8c-0.5-0.5-1.3-0.7-2.4-0.7c-1,0-1.7,0.2-2.2,0.5s-0.8,1-1,1.8l-2.1-0.3c0.2-0.9,0.5-1.6,0.9-2.1
		s1.1-1,1.9-1.3s1.8-0.4,2.8-0.4c1.1,0,1.9,0.1,2.6,0.4s1.2,0.6,1.5,0.9s0.5,0.9,0.7,1.4c0.1,0.4,0.1,1,0.1,1.9v2.8
		c0,2,0,3.2,0.1,3.7s0.3,1,0.5,1.5h-2.2C545.2,472.3,545.1,471.7,545,471.2z M544.8,466.4c-0.8,0.3-1.9,0.6-3.4,0.8
		c-0.9,0.1-1.5,0.3-1.8,0.4s-0.6,0.4-0.8,0.7s-0.3,0.6-0.3,1c0,0.6,0.2,1,0.6,1.4s1,0.6,1.9,0.6c0.8,0,1.5-0.2,2.2-0.5
		s1.1-0.8,1.4-1.5c0.2-0.5,0.3-1.2,0.3-2.1v-0.8H544.8z"/>
	<path fill="#FFFF33" d="M549.4,469l2.1-0.3c0.1,0.8,0.4,1.5,1,1.9s1.3,0.7,2.2,0.7c1,0,1.7-0.2,2.2-0.6s0.7-0.9,0.7-1.4
		s-0.2-0.9-0.6-1.1c-0.3-0.2-1-0.4-2.2-0.7c-1.5-0.4-2.6-0.7-3.2-1s-1.1-0.7-1.4-1.2s-0.5-1.1-0.5-1.7s0.1-1.1,0.4-1.5
		s0.6-0.9,1-1.2c0.3-0.2,0.8-0.4,1.3-0.6s1.2-0.3,1.8-0.3c1,0,1.8,0.1,2.6,0.4s1.3,0.7,1.6,1.1s0.6,1.1,0.7,1.9l-2.1,0.3
		c-0.1-0.6-0.4-1.1-0.8-1.5s-1.1-0.5-1.9-0.5c-1,0-1.7,0.2-2.1,0.5s-0.6,0.7-0.6,1.1c0,0.3,0.1,0.5,0.3,0.7s0.4,0.4,0.8,0.6
		c0.2,0.1,0.8,0.3,1.9,0.5c1.5,0.4,2.5,0.7,3.1,1s1.1,0.6,1.4,1.1s0.5,1.1,0.5,1.8c0,0.7-0.2,1.4-0.6,2s-1,1.1-1.8,1.4
		s-1.6,0.5-2.6,0.5c-1.6,0-2.8-0.3-3.7-1S549.6,470.3,549.4,469z"/>
	<path fill="#FFFF33" d="M566.8,470.8l0.3,1.9c-0.6,0.1-1.1,0.2-1.6,0.2c-0.8,0-1.4-0.1-1.8-0.4s-0.7-0.6-0.9-1s-0.3-1.2-0.3-2.5
		v-7.2H561v-1.6h1.5v-3.1l2.1-1.3v4.3h2.1v1.6h-2.1v7.3c0,0.6,0,1,0.1,1.2s0.2,0.3,0.4,0.4s0.4,0.2,0.7,0.2
		C566.1,470.9,566.4,470.9,566.8,470.8z"/>
	<path fill="#FFFF33" d="M577.4,468.7l2.2,0.3c-0.3,1.3-1,2.3-1.9,3s-2.1,1.1-3.6,1.1c-1.8,0-3.3-0.6-4.3-1.7s-1.6-2.7-1.6-4.7
		c0-2.1,0.5-3.7,1.6-4.9s2.5-1.7,4.2-1.7s3,0.6,4.1,1.7s1.6,2.7,1.6,4.8c0,0.1,0,0.3,0,0.6h-9.3c0.1,1.4,0.5,2.4,1.2,3.1
		s1.6,1.1,2.6,1.1c0.8,0,1.4-0.2,2-0.6S577.1,469.6,577.4,468.7z M570.5,465.3h6.9c-0.1-1-0.4-1.8-0.8-2.4c-0.7-0.8-1.5-1.2-2.6-1.2
		c-1,0-1.8,0.3-2.4,1S570.6,464.2,570.5,465.3z"/>
	<path fill="#FFFF33" d="M582.2,472.7v-12.4h1.9v1.9c0.5-0.9,0.9-1.5,1.3-1.7s0.9-0.4,1.4-0.4c0.7,0,1.4,0.2,2.2,0.7l-0.7,2
		c-0.5-0.3-1-0.5-1.5-0.5s-0.9,0.1-1.2,0.4s-0.6,0.7-0.8,1.2c-0.2,0.8-0.4,1.6-0.4,2.5v6.5h-2.2V472.7z"/>
	<path fill="#FFFF33" d="M589.4,458.7l0.5-1.7c1.2,0.4,2.1,0.8,2.7,1.1c-0.1-1.4-0.2-2.4-0.2-2.9h1.7c0,0.8-0.1,1.7-0.3,2.9
		c0.8-0.4,1.7-0.8,2.8-1.1l0.5,1.7c-1,0.3-2,0.5-2.9,0.7c0.5,0.4,1.1,1.2,2,2.2l-1.4,1c-0.5-0.6-1-1.5-1.6-2.5
		c-0.6,1.1-1.1,1.9-1.5,2.5l-1.4-1c0.9-1.1,1.6-1.9,1.9-2.2C591.3,459.1,590.3,458.9,589.4,458.7z"/>
	<path fill="#FFFF33" d="M27.7,393.4L30,394c-0.5,1.9-1.3,3.3-2.6,4.3s-2.8,1.5-4.5,1.5c-1.9,0-3.4-0.4-4.5-1.1s-2-1.8-2.6-3.3
		s-0.9-3-0.9-4.6c0-1.8,0.3-3.3,1-4.7c0.7-1.4,1.7-2.3,2.9-3s2.7-1,4.2-1c1.7,0,3.2,0.4,4.3,1.3s2,2.1,2.4,3.7l-2.2,0.5
		c-0.4-1.3-1-2.2-1.7-2.7s-1.7-0.9-2.9-0.9c-1.3,0-2.4,0.3-3.3,0.9s-1.5,1.5-1.9,2.5s-0.5,2.2-0.5,3.3c0,1.5,0.2,2.7,0.6,3.8
		s1.1,1.9,2,2.4s1.9,0.8,2.9,0.8c1.3,0,2.4-0.4,3.2-1.1S27.4,394.8,27.7,393.4z"/>
	<path fill="#FFFF33" d="M40.6,397.9c-0.8,0.7-1.5,1.1-2.3,1.4s-1.5,0.4-2.3,0.4c-1.4,0-2.4-0.3-3.2-1s-1.1-1.5-1.1-2.6
		c0-0.6,0.1-1.2,0.4-1.7s0.6-0.9,1.1-1.2s1-0.5,1.5-0.7c0.4-0.1,1-0.2,1.9-0.3c1.7-0.2,3-0.4,3.8-0.7c0-0.3,0-0.5,0-0.6
		c0-0.9-0.2-1.5-0.6-1.8c-0.5-0.5-1.3-0.7-2.4-0.7c-1,0-1.7,0.2-2.2,0.5s-0.8,1-1,1.8l-2.1-0.3c0.2-0.9,0.5-1.6,0.9-2.1
		s1.1-1,1.9-1.3s1.8-0.4,2.8-0.4c1.1,0,1.9,0.1,2.6,0.4s1.2,0.6,1.5,0.9s0.5,0.9,0.7,1.4c0.1,0.4,0.1,1,0.1,1.9v2.8
		c0,2,0,3.2,0.1,3.7s0.3,1,0.5,1.5H41C40.8,398.9,40.7,398.4,40.6,397.9z M40.5,393.1c-0.8,0.3-1.9,0.6-3.4,0.8
		c-0.9,0.1-1.5,0.3-1.8,0.4s-0.6,0.4-0.8,0.7s-0.3,0.6-0.3,1c0,0.6,0.2,1,0.6,1.4s1,0.6,1.9,0.6c0.8,0,1.5-0.2,2.2-0.5
		s1.1-0.8,1.4-1.5c0.2-0.5,0.3-1.2,0.3-2.1v-0.8H40.5z"/>
	<path fill="#FFFF33" d="M45.9,399.4V387h1.9v1.8c0.9-1.4,2.2-2.1,4-2.1c0.8,0,1.4,0.1,2.1,0.4s1.1,0.6,1.4,1.1s0.5,1,0.7,1.6
		c0.1,0.4,0.1,1.1,0.1,2.1v7.7H54V392c0-0.9-0.1-1.5-0.2-1.9s-0.5-0.8-0.9-1s-0.9-0.4-1.5-0.4c-0.9,0-1.7,0.3-2.3,0.9s-1,1.7-1,3.2
		v6.8h-2.2L45.9,399.4z"/>
	<path fill="#FFFF33" d="M66,399.4v-17.2h6.4c1.3,0,2.4,0.2,3.2,0.5s1.4,0.9,1.9,1.6s0.7,1.5,0.7,2.3c0,0.7-0.2,1.4-0.6,2.1
		s-1,1.2-1.8,1.6c1,0.3,1.8,0.8,2.4,1.6s0.8,1.6,0.8,2.6c0,0.8-0.2,1.6-0.5,2.2s-0.8,1.2-1.3,1.6s-1.1,0.7-1.9,0.8s-1.7,0.3-2.8,0.3
		H66z M68.3,389.4H72c1,0,1.7-0.1,2.2-0.2c0.6-0.2,1-0.5,1.3-0.9s0.4-0.9,0.4-1.5s-0.1-1.1-0.4-1.5s-0.7-0.7-1.2-0.9
		s-1.4-0.2-2.6-0.2h-3.4V389.4z M68.3,397.4h4.3c0.7,0,1.3,0,1.5-0.1c0.5-0.1,1-0.3,1.3-0.5s0.6-0.5,0.9-1s0.3-0.9,0.3-1.4
		c0-0.6-0.2-1.2-0.5-1.7s-0.8-0.8-1.4-1s-1.4-0.3-2.5-0.3h-4L68.3,397.4z"/>
	<path fill="#FFFF33" d="M90.4,395.4l2.2,0.3c-0.3,1.3-1,2.3-1.9,3s-2.1,1.1-3.6,1.1c-1.8,0-3.3-0.6-4.3-1.7s-1.6-2.7-1.6-4.7
		c0-2.1,0.5-3.7,1.6-4.9s2.5-1.7,4.2-1.7s3,0.6,4.1,1.7s1.6,2.7,1.6,4.8c0,0.1,0,0.3,0,0.6h-9.3c0.1,1.4,0.5,2.4,1.2,3.1
		s1.6,1.1,2.6,1.1c0.8,0,1.4-0.2,2-0.6S90.1,396.3,90.4,395.4z M83.5,392h6.9c-0.1-1-0.4-1.8-0.8-2.4c-0.7-0.8-1.5-1.2-2.6-1.2
		c-1,0-1.8,0.3-2.4,1S83.5,390.9,83.5,392z"/>
	<path fill="#FFFF33" d="M102.1,399.4v-17.2h3.4l4.1,12.2c0.4,1.1,0.6,2,0.8,2.5c0.2-0.6,0.5-1.5,0.9-2.8l4.1-12h3.1v17.2h-2.2V385
		l-5,14.4h-2.1l-5-14.6v14.6H102.1z"/>
	<path fill="#FFFF33" d="M130,397.9c-0.8,0.7-1.5,1.1-2.3,1.4s-1.5,0.4-2.3,0.4c-1.4,0-2.4-0.3-3.2-1s-1.1-1.5-1.1-2.6
		c0-0.6,0.1-1.2,0.4-1.7s0.6-0.9,1.1-1.2s1-0.5,1.5-0.7c0.4-0.1,1-0.2,1.9-0.3c1.7-0.2,3-0.4,3.8-0.7c0-0.3,0-0.5,0-0.6
		c0-0.9-0.2-1.5-0.6-1.8c-0.5-0.5-1.3-0.7-2.4-0.7c-1,0-1.7,0.2-2.2,0.5s-0.8,1-1,1.8l-2.1-0.3c0.2-0.9,0.5-1.6,0.9-2.1
		s1.1-1,1.9-1.3s1.8-0.4,2.8-0.4c1.1,0,1.9,0.1,2.6,0.4s1.2,0.6,1.5,0.9s0.5,0.9,0.7,1.4c0.1,0.4,0.1,1,0.1,1.9v2.8
		c0,2,0,3.2,0.1,3.7s0.3,1,0.5,1.5h-2.2C130.2,398.9,130.1,398.4,130,397.9z M129.8,393.1c-0.8,0.3-1.9,0.6-3.4,0.8
		c-0.9,0.1-1.5,0.3-1.8,0.4s-0.6,0.4-0.8,0.7s-0.3,0.6-0.3,1c0,0.6,0.2,1,0.6,1.4s1,0.6,1.9,0.6c0.8,0,1.5-0.2,2.2-0.5
		c0.7-0.3,1.1-0.8,1.4-1.5c0.2-0.5,0.3-1.2,0.3-2.1L129.8,393.1z"/>
	<path fill="#FFFF33" d="M134.4,395.7l2.1-0.3c0.1,0.8,0.4,1.5,1,1.9s1.3,0.7,2.2,0.7c1,0,1.7-0.2,2.2-0.6s0.7-0.9,0.7-1.4
		s-0.2-0.9-0.6-1.1c-0.3-0.2-1-0.4-2.2-0.7c-1.5-0.4-2.6-0.7-3.2-1s-1.1-0.7-1.4-1.2s-0.5-1.1-0.5-1.7s0.1-1.1,0.4-1.5
		s0.6-0.9,1-1.2c0.3-0.2,0.8-0.4,1.3-0.6s1.2-0.3,1.8-0.3c1,0,1.8,0.1,2.6,0.4s1.3,0.7,1.6,1.1s0.6,1.1,0.7,1.9l-2.1,0.3
		c-0.1-0.6-0.4-1.1-0.8-1.5s-1.1-0.5-1.9-0.5c-1,0-1.7,0.2-2.1,0.5s-0.6,0.7-0.6,1.1c0,0.3,0.1,0.5,0.3,0.7s0.4,0.4,0.8,0.6
		c0.2,0.1,0.8,0.3,1.9,0.5c1.5,0.4,2.5,0.7,3.1,1s1.1,0.6,1.4,1.1s0.5,1.1,0.5,1.8s-0.2,1.4-0.6,2s-1,1.1-1.8,1.4s-1.6,0.5-2.6,0.5
		c-1.6,0-2.8-0.3-3.7-1S134.6,397,134.4,395.7z"/>
	<path fill="#FFFF33" d="M151.8,397.5l0.3,1.9c-0.6,0.1-1.1,0.2-1.6,0.2c-0.8,0-1.4-0.1-1.8-0.4s-0.7-0.6-0.9-1s-0.3-1.2-0.3-2.5
		v-7.2H146v-1.6h1.5v-3.1l2.1-1.3v4.3h2.1v1.6h-2.1v7.3c0,0.6,0,1,0.1,1.2s0.2,0.3,0.4,0.4s0.4,0.2,0.7,0.2
		C151.2,397.6,151.5,397.6,151.8,397.5z"/>
	<path fill="#FFFF33" d="M162.4,395.4l2.2,0.3c-0.3,1.3-1,2.3-1.9,3s-2.1,1.1-3.6,1.1c-1.8,0-3.3-0.6-4.3-1.7s-1.6-2.7-1.6-4.7
		c0-2.1,0.5-3.7,1.6-4.9s2.5-1.7,4.2-1.7s3,0.6,4.1,1.7s1.6,2.7,1.6,4.8c0,0.1,0,0.3,0,0.6h-9.3c0.1,1.4,0.5,2.4,1.2,3.1
		s1.6,1.1,2.6,1.1c0.8,0,1.4-0.2,2-0.6S162.1,396.3,162.4,395.4z M155.5,392h6.9c-0.1-1-0.4-1.8-0.8-2.4c-0.7-0.8-1.5-1.2-2.6-1.2
		c-1,0-1.8,0.3-2.4,1S155.6,390.9,155.5,392z"/>
	<path fill="#FFFF33" d="M167.2,399.4V387h1.9v1.9c0.5-0.9,0.9-1.5,1.3-1.7s0.9-0.4,1.4-0.4c0.7,0,1.4,0.2,2.2,0.7l-0.7,2
		c-0.5-0.3-1-0.5-1.5-0.5s-0.9,0.1-1.2,0.4s-0.6,0.7-0.8,1.2c-0.2,0.8-0.4,1.6-0.4,2.5v6.5h-2.2V399.4z"/>
	<path fill="#FFFFFF" d="M213,576.4l0.5-1.7c1.2,0.4,2.1,0.8,2.7,1.1c-0.1-1.4-0.2-2.4-0.2-2.9h1.7c0,0.8-0.1,1.7-0.3,2.9
		c0.8-0.4,1.7-0.8,2.8-1.1l0.5,1.7c-1,0.3-2,0.5-2.9,0.7c0.5,0.4,1.1,1.2,2,2.2l-1.4,1c-0.5-0.6-1-1.5-1.6-2.5
		c-0.6,1.1-1.1,1.9-1.5,2.5l-1.4-1c0.9-1.1,1.6-1.9,1.9-2.2C214.9,576.8,213.9,576.6,213,576.4z"/>
	<rect x="223.9" y="573.2" fill="#FFFFFF" width="2.3" height="17.2"/>
	<path fill="#FFFFFF" d="M230.4,590.4v-10.8h-1.9V578h1.9v-1.3c0-0.8,0.1-1.5,0.2-1.9c0.2-0.5,0.6-1,1.1-1.3s1.2-0.5,2.2-0.5
		c0.6,0,1.3,0.1,2,0.2l-0.3,1.8c-0.4-0.1-0.9-0.1-1.2-0.1c-0.6,0-1.1,0.1-1.4,0.4s-0.4,0.8-0.4,1.5v1.1h2.4v1.6h-2.4v10.8
		L230.4,590.4z"/>
	<path fill="#FFFFFF" d="M242.4,584.2c0-2.3,0.6-4,1.9-5.1c1.1-0.9,2.4-1.4,3.9-1.4c1.7,0,3.1,0.6,4.2,1.7c1.1,1.1,1.6,2.7,1.6,4.6
		c0,1.6-0.2,2.9-0.7,3.8c-0.5,0.9-1.2,1.6-2.1,2.1s-1.9,0.8-3,0.8c-1.7,0-3.2-0.6-4.2-1.7C243,587.9,242.4,586.3,242.4,584.2z
		 M244.6,584.2c0,1.6,0.3,2.8,1,3.6s1.6,1.2,2.6,1.2s1.9-0.4,2.6-1.2c0.7-0.8,1-2,1-3.6c0-1.5-0.3-2.7-1-3.5s-1.6-1.2-2.6-1.2
		c-1.1,0-1.9,0.4-2.6,1.2S244.6,582.6,244.6,584.2z"/>
	<path fill="#FFFFFF" d="M256.6,595.2V578h1.9v1.6c0.5-0.6,1-1.1,1.5-1.4s1.3-0.5,2.1-0.5c1.1,0,2,0.3,2.8,0.8s1.4,1.3,1.8,2.3
		s0.6,2.1,0.6,3.3c0,1.3-0.2,2.4-0.7,3.4s-1.1,1.8-2,2.3s-1.8,0.8-2.7,0.8c-0.7,0-1.3-0.1-1.9-0.4s-1-0.7-1.4-1.1v6.1L256.6,595.2z
		 M258.5,584.2c0,1.6,0.3,2.8,1,3.6s1.4,1.1,2.4,1.1c0.9,0,1.7-0.4,2.4-1.2c0.7-0.8,1-2,1-3.7c0-1.6-0.3-2.8-1-3.6s-1.4-1.2-2.3-1.2
		s-1.7,0.4-2.4,1.3C258.9,581.4,258.5,582.6,258.5,584.2z"/>
	<path fill="#FFFFFF" d="M274.5,588.5l0.3,1.9c-0.6,0.1-1.1,0.2-1.6,0.2c-0.8,0-1.4-0.1-1.8-0.4s-0.7-0.6-0.9-1s-0.3-1.2-0.3-2.5
		v-7.2h-1.5v-1.6h1.5v-3.1l2.1-1.3v4.3h2.1v1.6h-2.1v7.3c0,0.6,0,1,0.1,1.2s0.2,0.3,0.4,0.4c0.2,0.1,0.4,0.2,0.7,0.2
		C273.8,588.6,274.1,588.5,274.5,588.5z"/>
	<path fill="#FFFFFF" d="M276.6,575.6v-2.4h2.1v2.4H276.6z M276.6,590.4V578h2.1v12.4H276.6z"/>
	<path fill="#FFFFFF" d="M281.1,584.2c0-2.3,0.6-4,1.9-5.1c1.1-0.9,2.4-1.4,3.9-1.4c1.7,0,3.1,0.6,4.2,1.7c1.1,1.1,1.6,2.7,1.6,4.6
		c0,1.6-0.2,2.9-0.7,3.8c-0.5,0.9-1.2,1.6-2.1,2.1s-1.9,0.8-3,0.8c-1.7,0-3.2-0.6-4.2-1.7C281.7,587.9,281.1,586.3,281.1,584.2z
		 M283.3,584.2c0,1.6,0.3,2.8,1,3.6s1.6,1.2,2.6,1.2s1.9-0.4,2.6-1.2s1-2,1-3.6c0-1.5-0.3-2.7-1-3.5s-1.6-1.2-2.6-1.2
		c-1.1,0-1.9,0.4-2.6,1.2C283.6,581.5,283.3,582.6,283.3,584.2z"/>
	<path fill="#FFFFFF" d="M295.3,590.4V578h1.9v1.8c0.9-1.4,2.2-2.1,4-2.1c0.8,0,1.4,0.1,2.1,0.4s1.1,0.6,1.4,1.1s0.5,1,0.7,1.6
		c0.1,0.4,0.1,1.1,0.1,2.1v7.7h-2.1V583c0-0.9-0.1-1.5-0.2-1.9s-0.5-0.8-0.9-1s-0.9-0.4-1.5-0.4c-0.9,0-1.7,0.3-2.3,0.9
		c-0.6,0.6-1,1.7-1,3.2v6.8h-2.2V590.4z"/>
	<path fill="#FFFFFF" d="M316.7,588.8c-0.8,0.7-1.5,1.1-2.3,1.4s-1.5,0.4-2.3,0.4c-1.4,0-2.4-0.3-3.2-1c-0.8-0.7-1.1-1.5-1.1-2.6
		c0-0.6,0.1-1.2,0.4-1.7s0.6-0.9,1.1-1.2s1-0.5,1.5-0.7c0.4-0.1,1-0.2,1.9-0.3c1.7-0.2,3-0.4,3.8-0.7c0-0.3,0-0.5,0-0.6
		c0-0.9-0.2-1.5-0.6-1.8c-0.5-0.5-1.3-0.7-2.4-0.7c-1,0-1.7,0.2-2.2,0.5s-0.8,1-1,1.8l-2.1-0.3c0.2-0.9,0.5-1.6,0.9-2.1
		s1.1-1,1.9-1.3s1.8-0.4,2.8-0.4c1.1,0,1.9,0.1,2.6,0.4s1.2,0.6,1.5,0.9s0.5,0.9,0.7,1.4c0.1,0.4,0.1,1,0.1,1.9v2.8
		c0,2,0,3.2,0.1,3.7s0.3,1,0.5,1.5h-2.2C316.9,589.9,316.8,589.4,316.7,588.8z M316.6,584.1c-0.8,0.3-1.9,0.6-3.4,0.8
		c-0.9,0.1-1.5,0.3-1.8,0.4c-0.3,0.1-0.6,0.4-0.8,0.7c-0.2,0.3-0.3,0.6-0.3,1c0,0.6,0.2,1,0.6,1.4s1,0.6,1.9,0.6
		c0.8,0,1.5-0.2,2.2-0.5s1.1-0.8,1.4-1.5c0.2-0.5,0.3-1.2,0.3-2.1v-0.8L316.6,584.1z"/>
	<rect x="321.9" y="573.2" fill="#FFFFFF" width="2.1" height="17.2"/>
	<rect x="334.6" y="573.2" fill="#FFFFFF" width="2.3" height="17.2"/>
	<path fill="#FFFFFF" d="M340.9,590.4v-17.2h6.5c1.1,0,2,0.1,2.6,0.2c0.8,0.1,1.6,0.4,2.1,0.8c0.5,0.4,1,0.9,1.4,1.7
		s0.5,1.5,0.5,2.3c0,1.5-0.5,2.7-1.4,3.7s-2.6,1.5-5,1.5h-4.4v7H340.9z M343.2,581.4h4.4c1.5,0,2.5-0.3,3.1-0.8s0.9-1.3,0.9-2.3
		c0-0.7-0.2-1.3-0.5-1.8s-0.8-0.8-1.4-1c-0.4-0.1-1.1-0.2-2.1-0.2h-4.4V581.4z"/>
	<path fill="#FFFFFF" d="M359.9,590.4l6.6-17.2h2.4l7,17.2h-2.6l-2-5.2h-7.2l-1.9,5.2H359.9z M364.9,583.3h5.8l-1.8-4.8
		c-0.5-1.4-1-2.6-1.2-3.6c-0.2,1.1-0.5,2.2-0.9,3.3L364.9,583.3z"/>
	<path fill="#FFFFFF" d="M385.7,590.4v-1.8c-1,1.4-2.3,2.1-3.9,2.1c-0.7,0-1.4-0.1-2.1-0.4s-1.1-0.6-1.4-1.1s-0.5-0.9-0.7-1.6
		c-0.1-0.4-0.1-1.1-0.1-2v-7.7h2.1v6.9c0,1.1,0,1.8,0.1,2.2c0.1,0.6,0.4,1,0.8,1.3s1,0.5,1.6,0.5s1.2-0.2,1.8-0.5
		c0.6-0.3,0.9-0.8,1.2-1.3s0.3-1.4,0.3-2.4v-6.7h2.1v12.4L385.7,590.4z"/>
	<path fill="#FFFFFF" d="M395.5,588.5l0.3,1.9c-0.6,0.1-1.1,0.2-1.6,0.2c-0.8,0-1.4-0.1-1.8-0.4s-0.7-0.6-0.9-1s-0.3-1.2-0.3-2.5
		v-7.2h-1.5v-1.6h1.5v-3.1l2.1-1.3v4.3h2.1v1.6h-2.1v7.3c0,0.6,0,1,0.1,1.2s0.2,0.3,0.4,0.4c0.2,0.1,0.4,0.2,0.7,0.2
		C394.8,588.6,395.1,588.5,395.5,588.5z"/>
	<path fill="#FFFFFF" d="M396.8,584.2c0-2.3,0.6-4,1.9-5.1c1.1-0.9,2.4-1.4,3.9-1.4c1.7,0,3.1,0.6,4.2,1.7c1.1,1.1,1.6,2.7,1.6,4.6
		c0,1.6-0.2,2.9-0.7,3.8c-0.5,0.9-1.2,1.6-2.1,2.1s-1.9,0.8-3,0.8c-1.7,0-3.2-0.6-4.2-1.7C397.4,587.9,396.8,586.3,396.8,584.2z
		 M398.9,584.2c0,1.6,0.3,2.8,1,3.6s1.6,1.2,2.6,1.2s1.9-0.4,2.6-1.2s1-2,1-3.6c0-1.5-0.3-2.7-1-3.5s-1.6-1.2-2.6-1.2
		c-1.1,0-1.9,0.4-2.6,1.2C399.2,581.5,398.9,582.6,398.9,584.2z"/>
	<path fill="#FFFFFF" d="M410.4,584.9l2.1-0.2c0.1,0.9,0.3,1.6,0.7,2.1s0.9,1,1.7,1.3c0.8,0.3,1.7,0.5,2.6,0.5s1.6-0.1,2.3-0.4
		s1.2-0.6,1.5-1.1s0.5-0.9,0.5-1.5c0-0.5-0.2-1-0.5-1.4s-0.8-0.7-1.5-1c-0.5-0.2-1.5-0.5-3.1-0.8s-2.7-0.7-3.3-1.1
		c-0.8-0.4-1.4-1-1.8-1.6s-0.6-1.3-0.6-2.1c0-0.9,0.2-1.7,0.7-2.4s1.2-1.3,2.2-1.7s2-0.6,3.2-0.6c1.3,0,2.4,0.2,3.4,0.6
		c1,0.4,1.7,1,2.2,1.8s0.8,1.7,0.8,2.7l-2.2,0.2c-0.1-1.1-0.5-1.9-1.2-2.5s-1.7-0.8-3-0.8c-1.4,0-2.4,0.3-3,0.8s-0.9,1.1-0.9,1.8
		c0,0.6,0.2,1.1,0.7,1.5c0.4,0.4,1.6,0.8,3.4,1.2s3.1,0.8,3.8,1.1c1,0.5,1.7,1,2.2,1.8s0.7,1.5,0.7,2.4s-0.3,1.8-0.8,2.6
		s-1.3,1.4-2.3,1.9s-2.1,0.7-3.3,0.7c-1.6,0-2.9-0.2-3.9-0.7s-1.9-1.1-2.5-2S410.4,586,410.4,584.9z"/>
	<path fill="#FFFFFF" d="M429.2,590.4l-3.8-12.4h2.2l2,7.2l0.7,2.7c0-0.1,0.2-1,0.6-2.6l2-7.3h2.2l1.9,7.2l0.6,2.4l0.7-2.4l2.1-7.2
		h2.1l-3.9,12.4h-2.2l-2-7.5l-0.5-2.1l-2.5,9.6L429.2,590.4z"/>
	<path fill="#FFFFFF" d="M444.3,575.6v-2.4h2.1v2.4H444.3z M444.3,590.4V578h2.1v12.4H444.3z"/>
	<path fill="#FFFFFF" d="M454.2,588.5l0.3,1.9c-0.6,0.1-1.1,0.2-1.6,0.2c-0.8,0-1.4-0.1-1.8-0.4s-0.7-0.6-0.9-1s-0.3-1.2-0.3-2.5
		v-7.2h-1.5v-1.6h1.5v-3.1l2.1-1.3v4.3h2.1v1.6H452v7.3c0,0.6,0,1,0.1,1.2s0.2,0.3,0.4,0.4c0.2,0.1,0.4,0.2,0.7,0.2
		C453.5,588.6,453.8,588.5,454.2,588.5z"/>
	<path fill="#FFFFFF" d="M464.4,585.8l2.1,0.3c-0.2,1.4-0.8,2.5-1.7,3.4s-2.1,1.2-3.4,1.2c-1.7,0-3.1-0.6-4.1-1.7
		c-1-1.1-1.6-2.7-1.6-4.8c0-1.3,0.2-2.5,0.7-3.5s1.1-1.8,2-2.3s1.9-0.8,3-0.8c1.4,0,2.5,0.3,3.3,1s1.4,1.7,1.7,2.9l-2.1,0.3
		c-0.2-0.8-0.5-1.5-1-1.9s-1.1-0.6-1.8-0.6c-1.1,0-1.9,0.4-2.6,1.1s-1,2-1,3.6c0,1.7,0.3,2.9,1,3.6s1.5,1.1,2.5,1.1
		c0.8,0,1.5-0.3,2.1-0.8S464.2,586.9,464.4,585.8z"/>
	<path fill="#FFFFFF" d="M468.3,590.4v-17.2h2.1v6.2c1-1.1,2.2-1.7,3.7-1.7c0.9,0,1.7,0.2,2.4,0.5c0.7,0.3,1.2,0.9,1.5,1.5
		s0.4,1.6,0.4,2.8v7.9h-2.1v-7.9c0-1.1-0.2-1.8-0.7-2.3s-1.1-0.7-1.9-0.7c-0.6,0-1.2,0.2-1.8,0.5c-0.6,0.3-0.9,0.8-1.2,1.3
		s-0.4,1.3-0.4,2.3v6.8L468.3,590.4L468.3,590.4z"/>
	<path fill="#FFFFFF" d="M488.3,575.6v-2.4h2.1v2.4H488.3z M488.3,590.4V578h2.1v12.4H488.3z"/>
	<path fill="#FFFFFF" d="M492.8,586.7l2.1-0.3c0.1,0.8,0.4,1.5,1,1.9s1.3,0.7,2.2,0.7c1,0,1.7-0.2,2.2-0.6c0.5-0.4,0.7-0.9,0.7-1.4
		s-0.2-0.9-0.6-1.1c-0.3-0.2-1-0.4-2.2-0.7c-1.5-0.4-2.6-0.7-3.2-1s-1.1-0.7-1.4-1.2s-0.5-1.1-0.5-1.7c0-0.6,0.1-1.1,0.4-1.5
		s0.6-0.9,1-1.2c0.3-0.2,0.8-0.4,1.3-0.6s1.2-0.3,1.8-0.3c1,0,1.8,0.1,2.6,0.4s1.3,0.7,1.6,1.1c0.3,0.4,0.6,1.1,0.7,1.9l-2.1,0.3
		c-0.1-0.6-0.4-1.1-0.8-1.5s-1.1-0.5-1.9-0.5c-1,0-1.7,0.2-2.1,0.5s-0.6,0.7-0.6,1.1c0,0.3,0.1,0.5,0.3,0.7c0.2,0.2,0.4,0.4,0.8,0.6
		c0.2,0.1,0.8,0.3,1.9,0.5c1.5,0.4,2.5,0.7,3.1,1s1.1,0.6,1.4,1.1s0.5,1.1,0.5,1.8s-0.2,1.4-0.6,2s-1,1.1-1.8,1.4s-1.6,0.5-2.6,0.5
		c-1.6,0-2.8-0.3-3.7-1C493.4,588.9,493,588,492.8,586.7z"/>
	<path fill="#FFFFFF" d="M512.3,575.6v-2.4h2.1v2.4H512.3z M512.3,590.4V578h2.1v12.4H512.3z"/>
	<path fill="#FFFFFF" d="M517.6,590.4V578h1.9v1.8c0.9-1.4,2.2-2.1,4-2.1c0.8,0,1.4,0.1,2.1,0.4s1.1,0.6,1.4,1.1s0.5,1,0.7,1.6
		c0.1,0.4,0.1,1.1,0.1,2.1v7.7h-2.1V583c0-0.9-0.1-1.5-0.2-1.9s-0.5-0.8-0.9-1s-0.9-0.4-1.5-0.4c-0.9,0-1.7,0.3-2.3,0.9
		c-0.6,0.6-1,1.7-1,3.2v6.8h-2.2V590.4z"/>
	<path fill="#FFFFFF" d="M530.1,586.7l2.1-0.3c0.1,0.8,0.4,1.5,1,1.9s1.3,0.7,2.2,0.7c1,0,1.7-0.2,2.2-0.6c0.5-0.4,0.7-0.9,0.7-1.4
		s-0.2-0.9-0.6-1.1c-0.3-0.2-1-0.4-2.2-0.7c-1.5-0.4-2.6-0.7-3.2-1c-0.6-0.3-1.1-0.7-1.4-1.2s-0.5-1.1-0.5-1.7
		c0-0.6,0.1-1.1,0.4-1.5s0.6-0.9,1-1.2c0.3-0.2,0.8-0.4,1.3-0.6s1.2-0.3,1.8-0.3c1,0,1.8,0.1,2.6,0.4s1.3,0.7,1.6,1.1
		c0.3,0.4,0.6,1.1,0.7,1.9l-2.1,0.3c-0.1-0.6-0.4-1.1-0.8-1.5s-1.1-0.5-1.9-0.5c-1,0-1.7,0.2-2.1,0.5c-0.4,0.3-0.6,0.7-0.6,1.1
		c0,0.3,0.1,0.5,0.3,0.7s0.4,0.4,0.8,0.6c0.2,0.1,0.8,0.3,1.9,0.5c1.5,0.4,2.5,0.7,3.1,1s1.1,0.6,1.4,1.1s0.5,1.1,0.5,1.8
		s-0.2,1.4-0.6,2s-1,1.1-1.8,1.4s-1.6,0.5-2.6,0.5c-1.6,0-2.8-0.3-3.7-1S530.3,588,530.1,586.7z"/>
	<path fill="#FFFFFF" d="M547.6,588.5l0.3,1.9c-0.6,0.1-1.1,0.2-1.6,0.2c-0.8,0-1.4-0.1-1.8-0.4s-0.7-0.6-0.9-1s-0.3-1.2-0.3-2.5
		v-7.2h-1.5v-1.6h1.5v-3.1l2.1-1.3v4.3h2.1v1.6h-2.1v7.3c0,0.6,0,1,0.1,1.2s0.2,0.3,0.4,0.4c0.2,0.1,0.4,0.2,0.7,0.2
		C546.9,588.6,547.2,588.5,547.6,588.5z"/>
	<path fill="#FFFFFF" d="M557.7,588.8c-0.8,0.7-1.5,1.1-2.3,1.4s-1.5,0.4-2.3,0.4c-1.4,0-2.4-0.3-3.2-1s-1.1-1.5-1.1-2.6
		c0-0.6,0.1-1.2,0.4-1.7s0.6-0.9,1.1-1.2s1-0.5,1.5-0.7c0.4-0.1,1-0.2,1.9-0.3c1.7-0.2,3-0.4,3.8-0.7c0-0.3,0-0.5,0-0.6
		c0-0.9-0.2-1.5-0.6-1.8c-0.5-0.5-1.3-0.7-2.4-0.7c-1,0-1.7,0.2-2.2,0.5s-0.8,1-1,1.8l-2.1-0.3c0.2-0.9,0.5-1.6,0.9-2.1
		s1.1-1,1.9-1.3c0.8-0.3,1.8-0.4,2.8-0.4c1.1,0,1.9,0.1,2.6,0.4s1.2,0.6,1.5,0.9s0.5,0.9,0.7,1.4c0.1,0.4,0.1,1,0.1,1.9v2.8
		c0,2,0,3.2,0.1,3.7s0.3,1,0.5,1.5h-2.2C557.9,589.9,557.8,589.4,557.7,588.8z M557.6,584.1c-0.8,0.3-1.9,0.6-3.4,0.8
		c-0.9,0.1-1.5,0.3-1.8,0.4c-0.3,0.1-0.6,0.4-0.8,0.7s-0.3,0.6-0.3,1c0,0.6,0.2,1,0.6,1.4s1,0.6,1.9,0.6c0.8,0,1.5-0.2,2.2-0.5
		s1.1-0.8,1.4-1.5c0.2-0.5,0.3-1.2,0.3-2.1v-0.8L557.6,584.1z"/>
	<rect x="562.9" y="573.2" fill="#FFFFFF" width="2.1" height="17.2"/>
	<rect x="568.3" y="573.2" fill="#FFFFFF" width="2.1" height="17.2"/>
	<path fill="#FFFFFF" d="M582.1,586.4l2.2,0.3c-0.3,1.3-1,2.3-1.9,3s-2.1,1.1-3.6,1.1c-1.8,0-3.3-0.6-4.3-1.7
		c-1-1.1-1.6-2.7-1.6-4.7c0-2.1,0.5-3.7,1.6-4.9s2.5-1.7,4.2-1.7s3,0.6,4.1,1.7c1.1,1.1,1.6,2.7,1.6,4.8c0,0.1,0,0.3,0,0.6h-9.3
		c0.1,1.4,0.5,2.4,1.2,3.1s1.6,1.1,2.6,1.1c0.8,0,1.4-0.2,2-0.6C581.5,588.1,581.8,587.3,582.1,586.4z M575.2,583h6.9
		c-0.1-1-0.4-1.8-0.8-2.4c-0.7-0.8-1.5-1.2-2.6-1.2c-1,0-1.8,0.3-2.4,1S575.3,581.9,575.2,583z"/>
	<path fill="#FFFFFF" d="M595.1,590.4v-1.6c-0.8,1.2-1.9,1.9-3.5,1.9c-1,0-1.9-0.3-2.7-0.8s-1.5-1.3-1.9-2.3s-0.7-2.1-0.7-3.4
		c0-1.2,0.2-2.4,0.6-3.4s1-1.8,1.9-2.3s1.8-0.8,2.8-0.8c0.8,0,1.4,0.2,2,0.5s1.1,0.7,1.4,1.2v-6.2h2.1v17.2L595.1,590.4z
		 M588.4,584.2c0,1.6,0.3,2.8,1,3.6s1.5,1.2,2.4,1.2s1.7-0.4,2.3-1.1s1-1.9,1-3.5c0-1.7-0.3-3-1-3.8s-1.5-1.2-2.4-1.2
		s-1.7,0.4-2.3,1.1S588.4,582.5,588.4,584.2z"/>
	<path fill="#FFFFFF" d="M132.5,289.2l-0.4-40.8c0,0,0-2.8-2.5-2.8s-2.5,2.8-2.5,2.8l-0.4,40.8H132.5z"/>
	<path fill="#B5C0C9" d="M88.4,313.9h73.4v-20.3c0,0,0.5-2.7-7.9-3.4c0,0-25.9-2.8-65.3-3.3h-0.5c-39.4,0.5-65.3,3.3-65.3,3.3
		c-8.3,0.8-7.9,3.4-7.9,3.4v20.3H88.4z"/>
	<path fill="#FFFFFF" d="M88.4,313.9v1h74.4v-21.3h-1l1,0.2c0-0.1,0-0.1,0-0.3c0-0.3-0.1-0.7-0.3-1.1c-0.4-0.7-1.1-1.4-2.4-1.9
		c-1.3-0.6-3.2-1-6.1-1.3l-0.1,1l0.1-1c0,0-26-2.8-65.4-3.3h-0.5c-39.4,0.5-65.4,3.3-65.4,3.3l0.1,1l-0.1-1c-3.9,0.4-6,1.1-7.3,2
		c-0.6,0.4-1,0.9-1.3,1.3c-0.2,0.4-0.3,0.8-0.3,1.1c0,0.1,0,0.2,0,0.2l1-0.2h-1v21.3h74.5v-1v-1H15.9v-19.4v-0.1l-0.6,0.1h0.6v-0.1
		l-0.6,0.1h0.6h-0.2h0.2h-0.2h0.2c0,0,0-0.1,0.1-0.2c0.1-0.2,0.5-0.6,1.6-1.1c1-0.4,2.7-0.9,5.3-1.1c0,0,0.4,0,1.2-0.1
		c5.5-0.5,29.6-2.7,64-3.2v-1v1h0.5v-1v1c19.7,0.2,36,1.1,47.4,1.8c5.7,0.4,10.2,0.7,13.2,1c1.5,0.1,2.7,0.2,3.5,0.3
		c0.8,0.1,1.2,0.1,1.2,0.1c3.7,0.3,5.5,1,6.3,1.6c0.4,0.3,0.6,0.5,0.6,0.6l0.1,0.1h0.5l-0.5-0.1v0.1h0.5l-0.5-0.1v0.1v19.4H88.5v1.2
		H88.4z"/>
	<polygon points="53.9,309.7 53.9,294.5 48.2,294.5 48.2,292.5 61.9,292.5 61.9,294.5 56.2,294.5 56.2,309.7 	"/>
	<path d="M69.1,309.7l-6.7-17.2h2.5l4.5,12.5c0.4,1,0.7,1.9,0.9,2.8c0.3-0.9,0.6-1.9,0.9-2.8l4.6-12.5h2.3l-6.7,17.2H69.1z"/>
	<rect x="77.8" y="302.5" width="6.5" height="2.1"/>
	<polygon points="86.9,309.7 86.9,292.5 89.2,292.5 89.2,299.6 98.1,299.6 98.1,292.5 100.4,292.5 100.4,309.7 98.1,309.7 
		98.1,301.6 89.2,301.6 89.2,309.7 	"/>
	<path d="M112.1,309.7v-1.8c-1,1.4-2.3,2.1-3.9,2.1c-0.7,0-1.4-0.1-2.1-0.4s-1.1-0.6-1.4-1.1s-0.5-0.9-0.7-1.6
		c-0.1-0.4-0.1-1.1-0.1-2v-7.7h2.1v6.9c0,1.1,0,1.8,0.1,2.2c0.1,0.6,0.4,1,0.8,1.3s1,0.5,1.6,0.5s1.2-0.2,1.8-0.5s0.9-0.8,1.2-1.3
		s0.3-1.4,0.3-2.4v-6.7h2.1v12.4h-1.8V309.7z"/>
	<path d="M119.2,309.7h-2v-17.2h2.1v6.1c0.9-1.1,2-1.7,3.4-1.7c0.8,0,1.5,0.2,2.2,0.5s1.2,0.7,1.7,1.3s0.8,1.2,1,2s0.4,1.6,0.4,2.5
		c0,2.1-0.5,3.8-1.6,4.9s-2.3,1.7-3.8,1.7s-2.6-0.6-3.5-1.8v1.7H119.2z M119.2,303.4c0,1.5,0.2,2.6,0.6,3.2c0.7,1.1,1.6,1.6,2.7,1.6
		c0.9,0,1.7-0.4,2.4-1.2s1-2,1-3.6s-0.3-2.8-1-3.6s-1.4-1.2-2.3-1.2s-1.7,0.4-2.4,1.2S119.2,301.9,119.2,303.4z"/>
	<path fill="#B5C0C9" d="M93.9,375.3h80.8c0.6-3.8,1.8-11.1,1.8-14.1c0-4-0.7-15.3-0.7-15.3h-82h-1.2h-81c0,0-0.7,11.3-0.7,15.3
		c0,2.9,1.2,10.3,1.8,14.1h79.8H93.9z"/>
	<path fill="#FFFFFF" d="M93.9,375.3v1h81.7l0.1-0.8c0.3-1.9,0.8-4.7,1.1-7.4c0.4-2.7,0.7-5.3,0.7-6.9c0-2-0.2-5.9-0.4-9.2
		c-0.2-3.3-0.4-6.2-0.4-6.2l-0.1-0.9H93.8h-1.2h-82l-0.1,0.9c0,0-0.2,2.8-0.4,6.2c-0.2,3.3-0.4,7.2-0.4,9.2c0,1.6,0.3,4.1,0.7,6.9
		c0.4,2.7,0.8,5.5,1.1,7.4l0.1,0.8h80.7h1.4v-1v-1h-1.4H12.7v1l1-0.2c-0.3-1.9-0.7-4.7-1.1-7.4c-0.4-2.7-0.7-5.2-0.7-6.6
		c0-2,0.2-5.8,0.3-9.1c0.1-1.7,0.2-3.2,0.2-4.3c0.1-1.1,0.1-1.8,0.1-1.8l-1-0.1v1h81h1.2h82v-1l-1,0.1c0,0,0,0.7,0.1,1.8
		c0.2,3.4,0.6,10.5,0.6,13.4c0,1.4-0.3,4-0.7,6.6c-0.4,2.7-0.8,5.4-1.1,7.3l1,0.2v-1H93.9V375.3z"/>
	<path fill="#0F1F30" d="M48.1,369.2V352h7.6c1.5,0,2.7,0.2,3.5,0.5s1.4,0.9,1.9,1.6s0.7,1.6,0.7,2.6c0,1.2-0.4,2.2-1.2,3.1
		s-2,1.4-3.7,1.6c0.6,0.3,1.1,0.6,1.4,0.9c0.7,0.6,1.3,1.4,1.9,2.3l3,4.7h-2.9l-2.3-3.6c-0.7-1-1.2-1.8-1.6-2.4s-0.8-0.9-1.2-1.1
		s-0.7-0.4-1-0.5s-0.7-0.1-1.3-0.1h-2.6v7.6H48.1z M50.4,359.6h4.9c1,0,1.9-0.1,2.4-0.3s1-0.6,1.3-1s0.5-1,0.5-1.5
		c0-0.8-0.3-1.5-0.9-2s-1.5-0.8-2.8-0.8h-5.4V359.6z"/>
	<path fill="#0F1F30" d="M73.6,365.2l2.2,0.3c-0.3,1.3-1,2.3-1.9,3s-2.1,1.1-3.6,1.1c-1.8,0-3.3-0.6-4.3-1.7s-1.6-2.7-1.6-4.7
		c0-2.1,0.5-3.7,1.6-4.9s2.5-1.7,4.2-1.7s3,0.6,4.1,1.7s1.6,2.7,1.6,4.8c0,0.1,0,0.3,0,0.6h-9.3c0.1,1.4,0.5,2.4,1.2,3.1
		s1.6,1.1,2.6,1.1c0.8,0,1.4-0.2,2-0.6S73.3,366,73.6,365.2z M66.7,361.7h6.9c-0.1-1-0.4-1.8-0.8-2.4c-0.7-0.8-1.5-1.2-2.6-1.2
		c-1,0-1.8,0.3-2.4,1S66.8,360.7,66.7,361.7z"/>
	<path fill="#0F1F30" d="M86.6,364.6l2.1,0.3c-0.2,1.4-0.8,2.5-1.7,3.4s-2.1,1.2-3.4,1.2c-1.7,0-3.1-0.6-4.1-1.7s-1.6-2.7-1.6-4.8
		c0-1.3,0.2-2.5,0.7-3.5s1.1-1.8,2-2.3s1.9-0.8,3-0.8c1.4,0,2.5,0.3,3.3,1s1.4,1.7,1.7,2.9l-2.1,0.3c-0.2-0.8-0.5-1.5-1-1.9
		s-1.1-0.6-1.8-0.6c-1.1,0-1.9,0.4-2.6,1.1s-1,2-1,3.6c0,1.7,0.3,2.9,1,3.6s1.5,1.1,2.5,1.1c0.8,0,1.5-0.3,2.1-0.8
		S86.4,365.7,86.6,364.6z"/>
	<path fill="#0F1F30" d="M99,365.2l2.2,0.3c-0.3,1.3-1,2.3-1.9,3s-2.1,1.1-3.6,1.1c-1.8,0-3.3-0.6-4.3-1.7s-1.6-2.7-1.6-4.7
		c0-2.1,0.5-3.7,1.6-4.9s2.5-1.7,4.2-1.7s3,0.6,4.1,1.7s1.6,2.7,1.6,4.8c0,0.1,0,0.3,0,0.6h-9.4c0.1,1.4,0.5,2.4,1.2,3.1
		s1.6,1.1,2.6,1.1c0.8,0,1.4-0.2,2-0.6S98.7,366,99,365.2z M92.1,361.7H99c-0.1-1-0.4-1.8-0.8-2.4c-0.7-0.8-1.5-1.2-2.6-1.2
		c-1,0-1.8,0.3-2.4,1S92.1,360.7,92.1,361.7z"/>
	<path fill="#0F1F30" d="M103.8,354.4V352h2.1v2.4H103.8z M103.8,369.2v-12.4h2.1v12.4H103.8z"/>
	<path fill="#0F1F30" d="M112.6,369.2l-4.7-12.4h2.2l2.7,7.5c0.3,0.8,0.6,1.6,0.8,2.5c0.2-0.7,0.4-1.4,0.8-2.4l2.8-7.6h2.2
		l-4.7,12.4H112.6z"/>
	<path fill="#0F1F30" d="M129.7,365.2l2.2,0.3c-0.3,1.3-1,2.3-1.9,3s-2.1,1.1-3.6,1.1c-1.8,0-3.3-0.6-4.3-1.7s-1.6-2.7-1.6-4.7
		c0-2.1,0.5-3.7,1.6-4.9s2.5-1.7,4.2-1.7s3,0.6,4.1,1.7s1.6,2.7,1.6,4.8c0,0.1,0,0.3,0,0.6h-9.3c0.1,1.4,0.5,2.4,1.2,3.1
		s1.6,1.1,2.6,1.1c0.8,0,1.4-0.2,2-0.6S129.3,366,129.7,365.2z M122.7,361.7h6.9c-0.1-1-0.4-1.8-0.8-2.4c-0.7-0.8-1.5-1.2-2.6-1.2
		c-1,0-1.8,0.3-2.4,1S122.8,360.7,122.7,361.7z"/>
	<path fill="#0F1F30" d="M134.5,369.2v-12.4h1.9v1.9c0.5-0.9,0.9-1.5,1.3-1.7s0.9-0.4,1.4-0.4c0.7,0,1.4,0.2,2.2,0.7l-0.7,2
		c-0.5-0.3-1-0.5-1.5-0.5s-0.9,0.1-1.2,0.4s-0.6,0.7-0.8,1.2c-0.2,0.8-0.4,1.6-0.4,2.5v6.5h-2.2V369.2z"/>
	<path fill="#8A9AA5" d="M154.8,360.8c0,1-1,1.7-2.3,1.7s-2.3-0.8-2.3-1.7c0-1,1-1.7,2.3-1.7S154.8,359.9,154.8,360.8z"/>
	<path fill="#8A9AA5" d="M166.3,360.8c0-1,1-1.7,2.3-1.7s2.3,0.8,2.3,1.7c0,1-1,1.7-2.3,1.7C167.3,362.6,166.3,361.8,166.3,360.8z"
		/>
	<path fill="#8A9AA5" d="M161,356.8c-1,0-1.7-1-1.7-2.3s0.8-2.3,1.7-2.3s1.7,1,1.7,2.3S161.9,356.8,161,356.8z"/>
	<path fill="#8A9AA5" d="M160.6,365.2c1,0,1.7,1,1.7,2.3s-0.8,2.3-1.7,2.3c-1,0-1.7-1-1.7-2.3S159.6,365.2,160.6,365.2z"/>
	<path fill="#8A9AA5" d="M163.1,361.1c0,1.4-1.1,2.5-2.5,2.5s-2.5-1.1-2.5-2.5s1.1-2.5,2.5-2.5C162,358.7,163.1,359.8,163.1,361.1z"
		/>
	<path fill="#8A9AA5" d="M18.7,366.2c0-0.6-1.3-1.1-0.5-1.1h20c0.8,0,1.5,0.5,1.5,1.1v3.9c0,0.6-0.7,1.1-1.5,1.1h-20
		c-0.8,0-1.5-0.5-1.5-1.1L18.7,366.2z"/>
	<path fill="#B5C0C9" d="M513.5,449h80.8c0.6-3.8,1.8-11.1,1.8-14.1c0-4-0.7-15.3-0.7-15.3h-82h-1.2h-81c0,0-0.7,11.3-0.7,15.3
		c0,2.9,1.2,10.3,1.8,14.1h79.8H513.5z"/>
	<path fill="#0CBC18" d="M513.5,449v1.5h82.1l0.2-1.3c0.3-1.9,0.8-4.7,1.1-7.4c0.2-1.3,0.4-2.7,0.5-3.9c0.1-1.2,0.2-2.2,0.2-3.1
		c0-2.1-0.2-5.9-0.4-9.2c-0.2-3.3-0.4-6.2-0.4-6.2l-0.1-1.4h-83.4h-1.2h-82.4l-0.1,1.4c0,0-0.2,2.8-0.4,6.2
		c-0.2,3.3-0.4,7.2-0.4,9.2c0,0.8,0.1,1.9,0.2,3c0.4,3.6,1.2,8.4,1.6,11.3l0.2,1.3h81.1h1.4V449v-1.5h-1.4h-79.8v1.5l1.5-0.2
		c-0.3-1.9-0.7-4.7-1.1-7.4c-0.2-1.3-0.4-2.6-0.5-3.8c-0.1-1.1-0.2-2.1-0.2-2.7c0-1.9,0.2-5.8,0.3-9.1c0.1-1.7,0.2-3.2,0.2-4.3
		s0.1-1.8,0.1-1.8l-1.5-0.1v1.5h81h1.2h82v-1.5l-1.5,0.1c0,0,0,0.7,0.1,1.8c0.1,1.7,0.2,4.3,0.4,6.9c0.1,2.6,0.2,5.1,0.2,6.5
		c0,0.7-0.1,1.6-0.2,2.8c-0.4,3.4-1.1,8.2-1.6,11.1l1.5,0.2v-1.5h-80.8v1.5H513.5z"/>
	<path fill="#0F1F30" d="M467.7,442.9v-17.2h7.6c1.5,0,2.7,0.2,3.5,0.5s1.4,0.9,1.9,1.6s0.7,1.6,0.7,2.6c0,1.2-0.4,2.2-1.2,3.1
		c-0.8,0.8-2,1.4-3.7,1.6c0.6,0.3,1.1,0.6,1.4,0.9c0.7,0.6,1.3,1.4,1.9,2.3l3,4.7h-2.9l-2.3-3.6c-0.7-1-1.2-1.8-1.6-2.4
		s-0.8-0.9-1.2-1.1s-0.7-0.4-1-0.5s-0.7-0.1-1.3-0.1h-2.6v7.6H467.7z M469.9,433.3h4.9c1,0,1.9-0.1,2.4-0.3c0.6-0.2,1-0.6,1.3-1
		s0.5-1,0.5-1.5c0-0.8-0.3-1.5-0.9-2s-1.5-0.8-2.8-0.8h-5.4V433.3z"/>
	<path fill="#0F1F30" d="M493.2,438.9l2.2,0.3c-0.3,1.3-1,2.3-1.9,3s-2.1,1.1-3.6,1.1c-1.8,0-3.3-0.6-4.3-1.7s-1.6-2.7-1.6-4.7
		c0-2.1,0.5-3.7,1.6-4.9c1.1-1.2,2.5-1.7,4.2-1.7s3,0.6,4.1,1.7s1.6,2.7,1.6,4.8c0,0.1,0,0.3,0,0.6h-9.3c0.1,1.4,0.5,2.4,1.2,3.1
		s1.6,1.1,2.6,1.1c0.8,0,1.4-0.2,2-0.6S492.9,439.8,493.2,438.9z M486.3,435.5h6.9c-0.1-1-0.4-1.8-0.8-2.4c-0.7-0.8-1.5-1.2-2.6-1.2
		c-1,0-1.8,0.3-2.4,1C486.7,433.5,486.3,434.4,486.3,435.5z"/>
	<path fill="#0F1F30" d="M506.2,438.3l2.1,0.3c-0.2,1.4-0.8,2.5-1.7,3.4s-2.1,1.2-3.4,1.2c-1.7,0-3.1-0.6-4.1-1.7s-1.6-2.7-1.6-4.8
		c0-1.3,0.2-2.5,0.7-3.5c0.4-1,1.1-1.8,2-2.3s1.9-0.8,3-0.8c1.4,0,2.5,0.3,3.3,1s1.4,1.7,1.7,2.9l-2.1,0.3c-0.2-0.8-0.5-1.5-1-1.9
		s-1.1-0.6-1.8-0.6c-1.1,0-1.9,0.4-2.6,1.1c-0.7,0.8-1,2-1,3.6c0,1.7,0.3,2.9,1,3.6s1.5,1.1,2.5,1.1c0.8,0,1.5-0.3,2.1-0.8
		S506,439.4,506.2,438.3z"/>
	<path fill="#0F1F30" d="M518.6,438.9l2.2,0.3c-0.3,1.3-1,2.3-1.9,3s-2.1,1.1-3.6,1.1c-1.8,0-3.3-0.6-4.3-1.7s-1.6-2.7-1.6-4.7
		c0-2.1,0.5-3.7,1.6-4.9c1.1-1.2,2.5-1.7,4.2-1.7s3,0.6,4.1,1.7s1.6,2.7,1.6,4.8c0,0.1,0,0.3,0,0.6h-9.3c0.1,1.4,0.5,2.4,1.2,3.1
		s1.6,1.1,2.6,1.1c0.8,0,1.4-0.2,2-0.6S518.2,439.8,518.6,438.9z M511.6,435.5h6.9c-0.1-1-0.4-1.8-0.8-2.4c-0.7-0.8-1.5-1.2-2.6-1.2
		c-1,0-1.8,0.3-2.4,1C512.1,433.5,511.7,434.4,511.6,435.5z"/>
	<path fill="#0F1F30" d="M523.4,428.1v-2.4h2.1v2.4H523.4z M523.4,442.9v-12.4h2.1v12.4H523.4z"/>
	<path fill="#0F1F30" d="M532.2,442.9l-4.7-12.4h2.2l2.7,7.5c0.3,0.8,0.6,1.6,0.8,2.5c0.2-0.7,0.4-1.4,0.8-2.4l2.8-7.6h2.2
		l-4.7,12.4H532.2z"/>
	<path fill="#0F1F30" d="M549.2,438.9l2.2,0.3c-0.3,1.3-1,2.3-1.9,3s-2.1,1.1-3.6,1.1c-1.8,0-3.3-0.6-4.3-1.7s-1.6-2.7-1.6-4.7
		c0-2.1,0.5-3.7,1.6-4.9c1.1-1.2,2.5-1.7,4.2-1.7s3,0.6,4.1,1.7s1.6,2.7,1.6,4.8c0,0.1,0,0.3,0,0.6h-9.3c0.1,1.4,0.5,2.4,1.2,3.1
		s1.6,1.1,2.6,1.1c0.8,0,1.4-0.2,2-0.6S548.9,439.8,549.2,438.9z M542.3,435.5h6.9c-0.1-1-0.4-1.8-0.8-2.4c-0.7-0.8-1.5-1.2-2.6-1.2
		c-1,0-1.8,0.3-2.4,1C542.7,433.5,542.4,434.4,542.3,435.5z"/>
	<path fill="#0F1F30" d="M554,442.9v-12.4h1.9v1.9c0.5-0.9,0.9-1.5,1.3-1.7s0.9-0.4,1.4-0.4c0.7,0,1.4,0.2,2.2,0.7l-0.7,2
		c-0.5-0.3-1-0.5-1.5-0.5s-0.9,0.1-1.2,0.4c-0.4,0.3-0.6,0.7-0.8,1.2c-0.2,0.8-0.4,1.6-0.4,2.5v6.5H554V442.9z"/>
	<path fill="#8A9AA5" d="M574.4,434.5c0,1-1,1.7-2.3,1.7s-2.3-0.8-2.3-1.7c0-1,1-1.7,2.3-1.7S574.4,433.6,574.4,434.5z"/>
	<path fill="#8A9AA5" d="M585.9,434.5c0-1,1-1.7,2.3-1.7s2.3,0.8,2.3,1.7c0,1-1,1.7-2.3,1.7C586.9,436.3,585.9,435.5,585.9,434.5z"
		/>
	<path fill="#8A9AA5" d="M580.5,430.5c-1,0-1.7-1-1.7-2.3s0.8-2.3,1.7-2.3s1.7,1,1.7,2.3C582.3,429.5,581.5,430.5,580.5,430.5z"/>
	<path fill="#8A9AA5" d="M580.2,438.9c1,0,1.7,1,1.7,2.3s-0.8,2.3-1.7,2.3c-1,0-1.7-1-1.7-2.3C578.4,440,579.2,438.9,580.2,438.9z"
		/>
	<path fill="#8A9AA5" d="M582.7,434.9c0,1.4-1.1,2.5-2.5,2.5s-2.5-1.1-2.5-2.5s1.1-2.5,2.5-2.5S582.7,433.5,582.7,434.9z"/>
	<path fill="#8A9AA5" d="M436.2,440c0-0.6,0.7-1.1,1.5-1.1h20c0.8,0,1.5,0.5,1.5,1.1v3.9c0,0.6-0.7,1.1-1.5,1.1h-20
		c-0.8,0-1.5-0.5-1.5-1.1V440z"/>
	<path fill="#B5C0C9" d="M513.5,522.1h80.8c0.6-3.8,1.8-11.1,1.8-14.1c0-4-0.7-15.3-0.7-15.3h-82h-1.2h-81c0,0-0.7,11.3-0.7,15.3
		c0,2.9,1.2,10.3,1.8,14.1h79.8H513.5z"/>
	<path fill="#0CBC18" d="M513.5,522.1v1.5h82.1l0.2-1.3c0.3-1.9,0.8-4.7,1.1-7.4c0.2-1.3,0.4-2.7,0.5-3.9c0.1-1.2,0.2-2.2,0.2-3.1
		c0-2.1-0.2-5.9-0.4-9.2c-0.2-3.3-0.4-6.2-0.4-6.2l-0.1-1.4h-83.4h-1.2h-82.4l-0.1,1.4c0,0-0.2,2.8-0.4,6.2
		c-0.2,3.3-0.4,7.2-0.4,9.2c0,0.8,0.1,1.9,0.2,3c0.4,3.6,1.2,8.4,1.6,11.3l0.2,1.3h81.1h1.4v-1.4v-1.5h-1.4h-79.8v1.5l1.5-0.2
		c-0.3-1.9-0.7-4.7-1.1-7.4c-0.2-1.3-0.4-2.6-0.5-3.8c-0.1-1.1-0.2-2.1-0.2-2.7c0-1.9,0.2-5.8,0.3-9.1c0.1-1.7,0.2-3.2,0.2-4.3
		s0.1-1.8,0.1-1.8l-1.5-0.1v1.5h81h1.2h82v-1.5l-1.5,0.1c0,0,0,0.7,0.1,1.8c0.1,1.7,0.2,4.3,0.4,6.9c0.1,2.6,0.2,5.1,0.2,6.5
		c0,0.7-0.1,1.6-0.2,2.8c-0.4,3.4-1.1,8.2-1.6,11.1l1.5,0.2v-1.5h-80.8v1.5H513.5z"/>
	<path fill="#0F1F30" d="M467.7,516v-17.2h7.6c1.5,0,2.7,0.2,3.5,0.5s1.4,0.9,1.9,1.6s0.7,1.6,0.7,2.6c0,1.2-0.4,2.2-1.2,3.1
		s-2,1.4-3.7,1.6c0.6,0.3,1.1,0.6,1.4,0.9c0.7,0.6,1.3,1.4,1.9,2.3l3,4.7h-2.9l-2.3-3.6c-0.7-1-1.2-1.8-1.6-2.4s-0.8-0.9-1.2-1.1
		s-0.7-0.4-1-0.5s-0.7-0.1-1.3-0.1h-2.6v7.6H467.7z M469.9,506.4h4.9c1,0,1.9-0.1,2.4-0.3s1-0.6,1.3-1s0.5-1,0.5-1.5
		c0-0.8-0.3-1.5-0.9-2s-1.5-0.8-2.8-0.8h-5.4V506.4z"/>
	<path fill="#0F1F30" d="M493.2,512l2.2,0.3c-0.3,1.3-1,2.3-1.9,3s-2.1,1.1-3.6,1.1c-1.8,0-3.3-0.6-4.3-1.7S484,512,484,510
		c0-2.1,0.5-3.7,1.6-4.9s2.5-1.7,4.2-1.7s3,0.6,4.1,1.7s1.6,2.7,1.6,4.8c0,0.1,0,0.3,0,0.6h-9.3c0.1,1.4,0.5,2.4,1.2,3.1
		c0.7,0.7,1.6,1.1,2.6,1.1c0.8,0,1.4-0.2,2-0.6C492.6,513.7,492.9,512.8,493.2,512z M486.3,508.5h6.9c-0.1-1-0.4-1.8-0.8-2.4
		c-0.7-0.8-1.5-1.2-2.6-1.2c-1,0-1.8,0.3-2.4,1S486.3,507.5,486.3,508.5z"/>
	<path fill="#0F1F30" d="M506.2,511.4l2.1,0.3c-0.2,1.4-0.8,2.5-1.7,3.4c-0.9,0.9-2.1,1.2-3.4,1.2c-1.7,0-3.1-0.6-4.1-1.7
		c-1-1.1-1.6-2.7-1.6-4.8c0-1.3,0.2-2.5,0.7-3.5s1.1-1.8,2-2.3s1.9-0.8,3-0.8c1.4,0,2.5,0.3,3.3,1s1.4,1.7,1.7,2.9l-2.1,0.3
		c-0.2-0.8-0.5-1.5-1-1.9s-1.1-0.6-1.8-0.6c-1.1,0-1.9,0.4-2.6,1.1s-1,2-1,3.6c0,1.7,0.3,2.9,1,3.6s1.5,1.1,2.5,1.1
		c0.8,0,1.5-0.3,2.1-0.8S506,512.5,506.2,511.4z"/>
	<path fill="#0F1F30" d="M518.6,512l2.2,0.3c-0.3,1.3-1,2.3-1.9,3s-2.1,1.1-3.6,1.1c-1.8,0-3.3-0.6-4.3-1.7s-1.6-2.7-1.6-4.7
		c0-2.1,0.5-3.7,1.6-4.9c1.1-1.2,2.5-1.7,4.2-1.7s3,0.6,4.1,1.7s1.6,2.7,1.6,4.8c0,0.1,0,0.3,0,0.6h-9.3c0.1,1.4,0.5,2.4,1.2,3.1
		c0.7,0.7,1.6,1.1,2.6,1.1c0.8,0,1.4-0.2,2-0.6C518,513.7,518.2,512.8,518.6,512z M511.6,508.5h6.9c-0.1-1-0.4-1.8-0.8-2.4
		c-0.7-0.8-1.5-1.2-2.6-1.2c-1,0-1.8,0.3-2.4,1S511.7,507.5,511.6,508.5z"/>
	<path fill="#0F1F30" d="M523.4,501.2v-2.4h2.1v2.4H523.4z M523.4,516v-12.4h2.1V516H523.4z"/>
	<path fill="#0F1F30" d="M532.2,516l-4.7-12.4h2.2l2.7,7.5c0.3,0.8,0.6,1.6,0.8,2.5c0.2-0.7,0.4-1.4,0.8-2.4l2.8-7.6h2.2l-4.7,12.4
		H532.2z"/>
	<path fill="#0F1F30" d="M549.2,512l2.2,0.3c-0.3,1.3-1,2.3-1.9,3s-2.1,1.1-3.6,1.1c-1.8,0-3.3-0.6-4.3-1.7S540,512,540,510
		c0-2.1,0.5-3.7,1.6-4.9s2.5-1.7,4.2-1.7s3,0.6,4.1,1.7s1.6,2.7,1.6,4.8c0,0.1,0,0.3,0,0.6h-9.3c0.1,1.4,0.5,2.4,1.2,3.1
		c0.7,0.7,1.6,1.1,2.6,1.1c0.8,0,1.4-0.2,2-0.6C548.6,513.7,548.9,512.8,549.2,512z M542.3,508.5h6.9c-0.1-1-0.4-1.8-0.8-2.4
		c-0.7-0.8-1.5-1.2-2.6-1.2c-1,0-1.8,0.3-2.4,1S542.4,507.5,542.3,508.5z"/>
	<path fill="#0F1F30" d="M554,516v-12.4h1.9v1.9c0.5-0.9,0.9-1.5,1.3-1.7s0.9-0.4,1.4-0.4c0.7,0,1.4,0.2,2.2,0.7l-0.7,2
		c-0.5-0.3-1-0.5-1.5-0.5s-0.9,0.1-1.2,0.4s-0.6,0.7-0.8,1.2c-0.2,0.8-0.4,1.6-0.4,2.5v6.5H554V516z"/>
	<path fill="#8A9AA5" d="M574.4,507.6c0,1-1,1.7-2.3,1.7s-2.3-0.8-2.3-1.7c0-1,1-1.7,2.3-1.7S574.4,506.7,574.4,507.6z"/>
	<path fill="#8A9AA5" d="M585.9,507.6c0-1,1-1.7,2.3-1.7s2.3,0.8,2.3,1.7c0,1-1,1.7-2.3,1.7C586.9,509.3,585.9,508.6,585.9,507.6z"
		/>
	<path fill="#8A9AA5" d="M580.5,503.6c-1,0-1.7-1-1.7-2.3s0.8-2.3,1.7-2.3s1.7,1,1.7,2.3C582.3,502.6,581.5,503.6,580.5,503.6z"/>
	<path fill="#8A9AA5" d="M580.2,512c1,0,1.7,1,1.7,2.3s-0.8,2.3-1.7,2.3c-1,0-1.7-1-1.7-2.3C578.4,513,579.2,512,580.2,512z"/>
	<path fill="#8A9AA5" d="M582.7,507.9c0,1.4-1.1,2.5-2.5,2.5s-2.5-1.1-2.5-2.5s1.1-2.5,2.5-2.5C581.6,505.5,582.7,506.6,582.7,507.9
		z"/>
	<path fill="#8A9AA5" d="M436.2,513c0-0.6,0.7-1.1,1.5-1.1h20c0.8,0,1.5,0.5,1.5,1.1v3.9c0,0.6-0.7,1.1-1.5,1.1h-20
		c-0.8,0-1.5-0.5-1.5-1.1V513z"/>
	<path fill="#FFFFFF" d="M159.3,245.4v-8.7l1.3-42.3c8.7-42.3,47.1-41.4,47.1-41.4s39.1-2.2,47.8,41.4l1.5,42.3v8.7
		c-3.8,9.3-11.5,11-11.5,11h-74.7C170.7,256.5,162.7,253.7,159.3,245.4z"/>
	<path fill="#FFFFFF" d="M159.3,245.4h1v-8.7l1.3-42.3h-1l1,0.2c2.1-10,5.8-17.5,10.2-23.2c6.7-8.5,15.1-12.8,22.1-15.1
		c7-2.2,12.6-2.4,13.6-2.4h0.1h0.1c0.1,0,0.4,0,0.8,0c2.9,0,12.5,0.4,22.2,5.7c4.9,2.6,9.8,6.5,14,12.1c4.2,5.6,7.7,13,9.6,22.8
		l1-0.2h-1l1.5,42.3v8.7h1l-0.9-0.4c-1.8,4.4-4.5,7-6.8,8.5c-1.1,0.7-2.1,1.2-2.9,1.5c-0.4,0.1-0.7,0.2-0.8,0.3
		c-0.1,0-0.2,0-0.2,0.1l0.1,0.3l-0.1-0.3l0.1,0.3l-0.1-0.3l0.2,1v-1h-74.7c-0.3,0-0.5,0.1-0.7,0.3l0.7,0.7l-0.2-1
		c-0.1,0-0.3,0.1-0.5,0.3l0.7,0.7l-0.2-1l0.2,0.9v-1c0,0-0.1,0-0.2,0l0.2,0.9v-1v0.7l0.2-0.7c0,0,0,0-0.2,0v0.7l0.2-0.7
		c0,0-0.3-0.1-0.5-0.2c-1-0.4-2.9-1.3-4.8-3c-2-1.7-4-4-5.4-7.2L159.3,245.4h1H159.3l-0.9,0.4c1.8,4.3,4.7,7.2,7.2,9
		c1.3,0.9,2.4,1.5,3.3,2c0.4,0.2,0.8,0.4,1.1,0.5c0.1,0.1,0.3,0.1,0.4,0.1h0.2c0.1,0,0.1,0,0.3,0c0,0,0.1,0,0.2,0
		c0.1,0,0.3-0.1,0.5-0.3l-0.7-0.7v1h74.7h0.2c0.1,0,2.1-0.5,4.7-2.2c2.5-1.7,5.6-4.6,7.5-9.4c0.1-0.1,0.1-0.2,0.1-0.4v-8.7
		l-1.5-42.3v-0.2c-2-10-5.6-17.7-10-23.6c-6.6-8.8-14.9-13.5-22.2-15.9c-7.2-2.5-13.4-2.7-15.7-2.7c-0.6,0-1,0-1,0l0.1,1v-1
		c0,0-0.1,0-0.2,0c-1.5,0-11.3,0.2-21.9,5.6c-5.3,2.7-10.7,6.7-15.4,12.6c-4.7,5.9-8.5,13.7-10.6,24v0.2l-1.3,42.3v8.7
		c0,0.1,0,0.3,0.1,0.4L159.3,245.4z"/>
	<path d="M159.3,237H257c0.1,0,0.3-0.1,0.3-0.3c0-0.1-0.1-0.3-0.3-0.3h-97.7c-0.1,0-0.3,0.1-0.3,0.3
		C159.1,236.9,159.2,237,159.3,237"/>
	<path fill="#FFFFFF" d="M257,235.2h-97.7c-0.8,0-1.5,0.7-1.5,1.5s0.7,1.5,1.5,1.5H257c0.8,0,1.5-0.7,1.5-1.5S257.9,235.2,257,235.2
		"/>
	<path fill="#B5C0C9" d="M159.3,237v8.7c2.9,7.6,11.6,10.7,11.6,10.7h75c7.2-1.5,11.1-10.7,11.1-10.7V237H159.3z"/>
	<path fill="#FFFFFF" d="M159.3,237h-1v8.9l0.1,0.2c1.6,4.1,4.6,6.9,7.3,8.7c2.6,1.8,4.9,2.6,4.9,2.6l0.2,0.1H246h0.1
		c2-0.4,3.7-1.4,5.2-2.5c2.2-1.7,3.8-3.9,4.9-5.7s1.7-3.1,1.7-3.1l0.1-0.2v-10h-99.7v1H159.3v1H256v7.7h1l-0.9-0.4
		c-0.1,0.2-1.1,2.5-2.9,4.8c-0.9,1.2-2,2.3-3.2,3.3c-1.3,1-2.7,1.7-4.2,2l0.2,1v-1h-75v1l0.3-0.9c-0.2-0.1-2.3-0.9-4.7-2.5
		c-2.4-1.7-5-4.2-6.3-7.6l-0.9,0.4h1V237H159.3v1V237z"/>
	<path fill="#293047" d="M163.4,216.3l6.6-17.2h2.4l7,17.2h-2.5l-2-5.2h-7.2l-1.9,5.2H163.4z M168.3,209.2h5.8l-1.8-4.8
		c-0.5-1.4-1-2.6-1.2-3.6c-0.2,1.1-0.5,2.2-0.9,3.3L168.3,209.2z"/>
	<path fill="#293047" d="M181,216.3v-12.4h1.9v1.8c0.9-1.4,2.2-2.1,4-2.1c0.8,0,1.4,0.1,2.1,0.4s1.1,0.6,1.4,1.1s0.5,1,0.7,1.6
		c0.1,0.4,0.1,1.1,0.1,2.1v7.7h-2.1v-7.6c0-0.9-0.1-1.5-0.2-1.9c-0.1-0.4-0.5-0.8-0.9-1c-0.4-0.2-0.9-0.4-1.5-0.4
		c-0.9,0-1.7,0.3-2.3,0.9c-0.6,0.6-1,1.7-1,3.2v6.8H181V216.3z"/>
	<path fill="#293047" d="M199,214.4l0.3,1.9c-0.6,0.1-1.1,0.2-1.6,0.2c-0.8,0-1.4-0.1-1.8-0.4s-0.7-0.6-0.9-1
		c-0.2-0.4-0.3-1.2-0.3-2.5v-7.2h-1.5v-1.6h1.5v-3.1l2.1-1.3v4.3h2.1v1.6h-2.1v7.3c0,0.6,0,1,0.1,1.2s0.2,0.3,0.4,0.4
		c0.2,0.1,0.4,0.2,0.7,0.2C198.3,214.5,198.6,214.4,199,214.4z"/>
	<path fill="#293047" d="M209.5,212.3l2.2,0.3c-0.3,1.3-1,2.3-1.9,3c-0.9,0.7-2.1,1.1-3.6,1.1c-1.8,0-3.3-0.6-4.3-1.7
		s-1.6-2.7-1.6-4.7c0-2.1,0.5-3.7,1.6-4.9s2.5-1.7,4.2-1.7s3,0.6,4.1,1.7s1.6,2.7,1.6,4.8c0,0.1,0,0.3,0,0.6h-9.3
		c0.1,1.4,0.5,2.4,1.2,3.1s1.6,1.1,2.6,1.1c0.8,0,1.4-0.2,2-0.6C208.9,214,209.2,213.2,209.5,212.3z M202.6,208.9h6.9
		c-0.1-1-0.4-1.8-0.8-2.4c-0.7-0.8-1.5-1.2-2.6-1.2c-1,0-1.8,0.3-2.4,1S202.7,207.8,202.6,208.9z"/>
	<path fill="#293047" d="M214.4,216.3v-12.4h1.9v1.8c0.9-1.4,2.2-2.1,4-2.1c0.8,0,1.4,0.1,2.1,0.4s1.1,0.6,1.4,1.1s0.5,1,0.7,1.6
		c0.1,0.4,0.1,1.1,0.1,2.1v7.7h-2.1v-7.6c0-0.9-0.1-1.5-0.2-1.9c-0.1-0.4-0.5-0.8-0.9-1c-0.4-0.2-0.9-0.4-1.5-0.4
		c-0.9,0-1.7,0.3-2.3,0.9c-0.6,0.6-1,1.7-1,3.2v6.8h-2.2V216.3z"/>
	<path fill="#293047" d="M227.7,216.3v-12.4h1.9v1.8c0.9-1.4,2.2-2.1,4-2.1c0.8,0,1.4,0.1,2.1,0.4s1.1,0.6,1.4,1.1s0.5,1,0.7,1.6
		c0.1,0.4,0.1,1.1,0.1,2.1v7.7h-2.1v-7.6c0-0.9-0.1-1.5-0.2-1.9c-0.1-0.4-0.5-0.8-0.9-1c-0.4-0.2-0.9-0.4-1.5-0.4
		c-0.9,0-1.7,0.3-2.3,0.9c-0.6,0.6-1,1.7-1,3.2v6.8h-2.2V216.3z"/>
	<path fill="#293047" d="M249.2,214.7c-0.8,0.7-1.5,1.1-2.3,1.4s-1.5,0.4-2.3,0.4c-1.4,0-2.4-0.3-3.2-1c-0.8-0.7-1.1-1.5-1.1-2.6
		c0-0.6,0.1-1.2,0.4-1.7s0.6-0.9,1.1-1.2c0.5-0.3,1-0.5,1.5-0.7c0.4-0.1,1-0.2,1.9-0.3c1.7-0.2,3-0.4,3.8-0.7c0-0.3,0-0.5,0-0.6
		c0-0.9-0.2-1.5-0.6-1.8c-0.5-0.5-1.3-0.7-2.4-0.7c-1,0-1.7,0.2-2.2,0.5c-0.5,0.3-0.8,1-1,1.8l-2.1-0.3c0.2-0.9,0.5-1.6,0.9-2.1
		s1.1-1,1.9-1.3s1.8-0.4,2.8-0.4c1.1,0,1.9,0.1,2.6,0.4s1.2,0.6,1.5,0.9s0.5,0.9,0.7,1.4c0.1,0.4,0.1,1,0.1,1.9v2.8
		c0,2,0,3.2,0.1,3.7s0.3,1,0.5,1.5h-2.2C249.4,215.8,249.3,215.3,249.2,214.7z M249,210c-0.8,0.3-1.9,0.6-3.4,0.8
		c-0.9,0.1-1.5,0.3-1.8,0.4c-0.3,0.1-0.6,0.4-0.8,0.7c-0.2,0.3-0.3,0.6-0.3,1c0,0.6,0.2,1,0.6,1.4c0.4,0.4,1,0.6,1.9,0.6
		c0.8,0,1.5-0.2,2.2-0.5c0.7-0.3,1.1-0.8,1.4-1.5c0.2-0.5,0.3-1.2,0.3-2.1L249,210z"/>
	<path fill="#FFFF33" d="M445.7,392.8l2.3,0.6c-0.5,1.9-1.3,3.3-2.6,4.3s-2.8,1.5-4.5,1.5c-1.9,0-3.4-0.4-4.5-1.1s-2-1.8-2.6-3.3
		s-0.9-3-0.9-4.6c0-1.8,0.3-3.3,1-4.7s1.7-2.3,2.9-3s2.7-1,4.2-1c1.7,0,3.2,0.4,4.3,1.3s2,2.1,2.4,3.7l-2.2,0.5
		c-0.4-1.3-1-2.2-1.7-2.7s-1.7-0.9-2.9-0.9c-1.3,0-2.4,0.3-3.3,0.9s-1.5,1.5-1.9,2.5s-0.5,2.2-0.5,3.3c0,1.5,0.2,2.7,0.6,3.8
		s1.1,1.9,2,2.4s1.9,0.8,2.9,0.8c1.3,0,2.4-0.4,3.2-1.1S445.4,394.3,445.7,392.8z"/>
	<path fill="#FFFF33" d="M458.6,397.3c-0.8,0.7-1.5,1.1-2.3,1.4s-1.5,0.4-2.3,0.4c-1.4,0-2.4-0.3-3.2-1s-1.1-1.5-1.1-2.6
		c0-0.6,0.1-1.2,0.4-1.7s0.6-0.9,1.1-1.2s1-0.5,1.5-0.7c0.4-0.1,1-0.2,1.9-0.3c1.7-0.2,3-0.4,3.8-0.7c0-0.3,0-0.5,0-0.6
		c0-0.9-0.2-1.5-0.6-1.8c-0.5-0.5-1.3-0.7-2.4-0.7c-1,0-1.7,0.2-2.2,0.5s-0.8,1-1,1.8l-2.1-0.3c0.2-0.9,0.5-1.6,0.9-2.1
		s1.1-1,1.9-1.3s1.8-0.4,2.8-0.4c1.1,0,1.9,0.1,2.6,0.4s1.2,0.6,1.5,0.9s0.5,0.9,0.7,1.4c0.1,0.4,0.1,1,0.1,1.9v2.8
		c0,2,0,3.2,0.1,3.7s0.3,1,0.5,1.5H459C458.8,398.4,458.7,397.9,458.6,397.3z M458.4,392.6c-0.8,0.3-1.9,0.6-3.4,0.8
		c-0.9,0.1-1.5,0.3-1.8,0.4s-0.6,0.4-0.8,0.7s-0.3,0.6-0.3,1c0,0.6,0.2,1,0.6,1.4s1,0.6,1.9,0.6c0.8,0,1.5-0.2,2.2-0.5
		s1.1-0.8,1.4-1.5c0.2-0.5,0.3-1.2,0.3-2.1v-0.8H458.4z"/>
	<path fill="#FFFF33" d="M463.8,398.8v-12.4h1.9v1.8c0.9-1.4,2.2-2.1,4-2.1c0.8,0,1.4,0.1,2.1,0.4s1.1,0.6,1.4,1.1s0.5,1,0.7,1.6
		c0.1,0.4,0.1,1.1,0.1,2.1v7.7h-2.1v-7.6c0-0.9-0.1-1.5-0.2-1.9s-0.5-0.8-0.9-1s-0.9-0.4-1.5-0.4c-0.9,0-1.7,0.3-2.3,0.9
		s-1,1.7-1,3.2v6.8h-2.2V398.8z"/>
	<path fill="#FFFF33" d="M484,398.8v-17.2h6.4c1.3,0,2.4,0.2,3.2,0.5s1.4,0.9,1.9,1.6s0.7,1.5,0.7,2.3c0,0.7-0.2,1.4-0.6,2.1
		s-1,1.2-1.8,1.6c1,0.3,1.8,0.8,2.4,1.6s0.8,1.6,0.8,2.6c0,0.8-0.2,1.6-0.5,2.2s-0.8,1.2-1.3,1.6s-1.1,0.7-1.9,0.8s-1.7,0.3-2.8,0.3
		H484z M486.3,388.9h3.7c1,0,1.7-0.1,2.2-0.2c0.6-0.2,1-0.5,1.3-0.9s0.4-0.9,0.4-1.5s-0.1-1.1-0.4-1.5s-0.7-0.7-1.2-0.9
		s-1.4-0.2-2.6-0.2h-3.4V388.9z M486.3,396.8h4.3c0.7,0,1.3,0,1.5-0.1c0.5-0.1,1-0.3,1.3-0.5s0.6-0.5,0.9-1s0.3-0.9,0.3-1.4
		c0-0.6-0.2-1.2-0.5-1.7s-0.8-0.8-1.4-1s-1.4-0.3-2.5-0.3h-4v6H486.3z"/>
	<path fill="#FFFF33" d="M508.4,394.8l2.2,0.3c-0.3,1.3-1,2.3-1.9,3s-2.1,1.1-3.6,1.1c-1.8,0-3.3-0.6-4.3-1.7s-1.6-2.7-1.6-4.7
		c0-2.1,0.5-3.7,1.6-4.9s2.5-1.7,4.2-1.7s3,0.6,4.1,1.7s1.6,2.7,1.6,4.8c0,0.1,0,0.3,0,0.6h-9.3c0.1,1.4,0.5,2.4,1.2,3.1
		s1.6,1.1,2.6,1.1c0.8,0,1.4-0.2,2-0.6S508.1,395.7,508.4,394.8z M501.5,391.4h6.9c-0.1-1-0.4-1.8-0.8-2.4c-0.7-0.8-1.5-1.2-2.6-1.2
		c-1,0-1.8,0.3-2.4,1S501.5,390.3,501.5,391.4z"/>
	<path fill="#FFFF33" d="M520.1,398.8v-17.2h3.4l4.1,12.2c0.4,1.1,0.6,2,0.8,2.5c0.2-0.6,0.5-1.5,0.9-2.8l4.1-12h3.1v17.2h-2.2
		v-14.4l-5,14.4h-2.1l-5-14.6v14.6L520.1,398.8z"/>
	<path fill="#FFFF33" d="M548,397.3c-0.8,0.7-1.5,1.1-2.3,1.4s-1.5,0.4-2.3,0.4c-1.4,0-2.4-0.3-3.2-1s-1.1-1.5-1.1-2.6
		c0-0.6,0.1-1.2,0.4-1.7s0.6-0.9,1.1-1.2s1-0.5,1.5-0.7c0.4-0.1,1-0.2,1.9-0.3c1.7-0.2,3-0.4,3.8-0.7c0-0.3,0-0.5,0-0.6
		c0-0.9-0.2-1.5-0.6-1.8c-0.5-0.5-1.3-0.7-2.4-0.7c-1,0-1.7,0.2-2.2,0.5s-0.8,1-1,1.8l-2.1-0.3c0.2-0.9,0.5-1.6,0.9-2.1
		s1.1-1,1.9-1.3s1.8-0.4,2.8-0.4c1.1,0,1.9,0.1,2.6,0.4s1.2,0.6,1.5,0.9s0.5,0.9,0.7,1.4c0.1,0.4,0.1,1,0.1,1.9v2.8
		c0,2,0,3.2,0.1,3.7s0.3,1,0.5,1.5h-2.2C548.2,398.4,548.1,397.9,548,397.3z M547.8,392.6c-0.8,0.3-1.9,0.6-3.4,0.8
		c-0.9,0.1-1.5,0.3-1.8,0.4s-0.6,0.4-0.8,0.7s-0.3,0.6-0.3,1c0,0.6,0.2,1,0.6,1.4s1,0.6,1.9,0.6c0.8,0,1.5-0.2,2.2-0.5
		s1.1-0.8,1.4-1.5c0.2-0.5,0.3-1.2,0.3-2.1v-0.8H547.8z"/>
	<path fill="#FFFF33" d="M552.4,395.1l2.1-0.3c0.1,0.8,0.4,1.5,1,1.9s1.3,0.7,2.2,0.7c1,0,1.7-0.2,2.2-0.6s0.7-0.9,0.7-1.4
		s-0.2-0.9-0.6-1.1c-0.3-0.2-1-0.4-2.2-0.7c-1.5-0.4-2.6-0.7-3.2-1s-1.1-0.7-1.4-1.2s-0.5-1.1-0.5-1.7s0.1-1.1,0.4-1.5
		s0.6-0.9,1-1.2c0.3-0.2,0.8-0.4,1.3-0.6s1.2-0.3,1.8-0.3c1,0,1.8,0.1,2.6,0.4s1.3,0.7,1.6,1.1s0.6,1.1,0.7,1.9l-2.1,0.3
		c-0.1-0.6-0.4-1.1-0.8-1.5s-1.1-0.5-1.9-0.5c-1,0-1.7,0.2-2.1,0.5s-0.6,0.7-0.6,1.1c0,0.3,0.1,0.5,0.3,0.7s0.4,0.4,0.8,0.6
		c0.2,0.1,0.8,0.3,1.9,0.5c1.5,0.4,2.5,0.7,3.1,1s1.1,0.6,1.4,1.1s0.5,1.1,0.5,1.8c0,0.7-0.2,1.4-0.6,2s-1,1.1-1.8,1.4
		s-1.6,0.5-2.6,0.5c-1.6,0-2.8-0.3-3.7-1S552.6,396.4,552.4,395.1z"/>
	<path fill="#FFFF33" d="M569.8,396.9l0.3,1.9c-0.6,0.1-1.1,0.2-1.6,0.2c-0.8,0-1.4-0.1-1.8-0.4s-0.7-0.6-0.9-1s-0.3-1.2-0.3-2.5
		V388H564v-1.6h1.5v-3.1l2.1-1.3v4.3h2.1v1.6h-2.1v7.3c0,0.6,0,1,0.1,1.2s0.2,0.3,0.4,0.4s0.4,0.2,0.7,0.2S569.4,397,569.8,396.9z"
		/>
	<path fill="#FFFF33" d="M580.4,394.8l2.2,0.3c-0.3,1.3-1,2.3-1.9,3s-2.1,1.1-3.6,1.1c-1.8,0-3.3-0.6-4.3-1.7s-1.6-2.7-1.6-4.7
		c0-2.1,0.5-3.7,1.6-4.9s2.5-1.7,4.2-1.7s3,0.6,4.1,1.7s1.6,2.7,1.6,4.8c0,0.1,0,0.3,0,0.6h-9.3c0.1,1.4,0.5,2.4,1.2,3.1
		s1.6,1.1,2.6,1.1c0.8,0,1.4-0.2,2-0.6S580.1,395.7,580.4,394.8z M573.5,391.4h6.9c-0.1-1-0.4-1.8-0.8-2.4c-0.7-0.8-1.5-1.2-2.6-1.2
		c-1,0-1.8,0.3-2.4,1S573.6,390.3,573.5,391.4z"/>
	<path fill="#FFFF33" d="M585.2,398.8v-12.4h1.9v1.9c0.5-0.9,0.9-1.5,1.3-1.7s0.9-0.4,1.4-0.4c0.7,0,1.4,0.2,2.2,0.7l-0.7,2
		c-0.5-0.3-1-0.5-1.5-0.5s-0.9,0.1-1.2,0.4s-0.6,0.7-0.8,1.2c-0.2,0.8-0.4,1.6-0.4,2.5v6.5h-2.2V398.8z"/>
	<path fill="#B5C0C9" d="M513.5,375.3h80.8c0.6-3.8,1.8-11.1,1.8-14.1c0-4-0.7-15.3-0.7-15.3h-82h-1.2h-81c0,0-0.7,11.3-0.7,15.3
		c0,2.9,1.2,10.3,1.8,14.1h79.8H513.5z"/>
	<path fill="#FFFFFF" d="M513.5,375.3v1h81.7l0.1-0.8c0.3-1.9,0.8-4.7,1.1-7.4c0.4-2.7,0.7-5.3,0.7-6.9c0-2-0.2-5.9-0.4-9.2
		c-0.2-3.3-0.4-6.2-0.4-6.2l-0.1-0.9h-82.9h-1.2h-81.9l-0.1,0.9c0,0-0.2,2.8-0.4,6.2c-0.2,3.3-0.4,7.2-0.4,9.2
		c0,1.6,0.3,4.1,0.7,6.9c0.4,2.7,0.8,5.5,1.1,7.4l0.1,0.8h80.7h1.4v-1v-1h-1.4h-79.8v1l1-0.2c-0.3-1.9-0.7-4.7-1.1-7.4
		c-0.4-2.7-0.7-5.2-0.7-6.6c0-2,0.2-5.8,0.3-9.1c0.1-1.7,0.2-3.2,0.2-4.3c0.1-1.1,0.1-1.8,0.1-1.8l-1-0.1v1h81h1.2h82v-1l-1,0.1
		c0,0,0,0.7,0.1,1.8c0.2,3.4,0.6,10.5,0.6,13.4c0,1.4-0.3,4-0.7,6.6c-0.4,2.7-0.8,5.4-1.1,7.3l1,0.2v-1h-80.8v1.1H513.5z"/>
	<path fill="#0F1F30" d="M467.7,369.1v-17.2h7.6c1.5,0,2.7,0.2,3.5,0.5s1.4,0.9,1.9,1.6s0.7,1.6,0.7,2.6c0,1.2-0.4,2.2-1.2,3.1
		s-2,1.4-3.7,1.6c0.6,0.3,1.1,0.6,1.4,0.9c0.7,0.6,1.3,1.4,1.9,2.3l3,4.7h-2.9l-2.3-3.6c-0.7-1-1.2-1.8-1.6-2.4s-0.8-0.9-1.2-1.1
		s-0.7-0.4-1-0.5s-0.7-0.1-1.3-0.1h-2.6v7.6H467.7z M469.9,359.5h4.9c1,0,1.9-0.1,2.4-0.3s1-0.6,1.3-1s0.5-1,0.5-1.5
		c0-0.8-0.3-1.5-0.9-2s-1.5-0.8-2.8-0.8h-5.4V359.5z"/>
	<path fill="#0F1F30" d="M493.2,365.1l2.2,0.3c-0.3,1.3-1,2.3-1.9,3s-2.1,1.1-3.6,1.1c-1.8,0-3.3-0.6-4.3-1.7s-1.6-2.7-1.6-4.7
		c0-2.1,0.5-3.7,1.6-4.9s2.5-1.7,4.2-1.7s3,0.6,4.1,1.7s1.6,2.7,1.6,4.8c0,0.1,0,0.3,0,0.6h-9.3c0.1,1.4,0.5,2.4,1.2,3.1
		s1.6,1.1,2.6,1.1c0.8,0,1.4-0.2,2-0.6S492.9,366,493.2,365.1z M486.3,361.7h6.9c-0.1-1-0.4-1.8-0.8-2.4c-0.7-0.8-1.5-1.2-2.6-1.2
		c-1,0-1.8,0.3-2.4,1S486.3,360.6,486.3,361.7z"/>
	<path fill="#0F1F30" d="M506.2,364.6l2.1,0.3c-0.2,1.4-0.8,2.5-1.7,3.4s-2.1,1.2-3.4,1.2c-1.7,0-3.1-0.6-4.1-1.7s-1.6-2.7-1.6-4.8
		c0-1.3,0.2-2.5,0.7-3.5s1.1-1.8,2-2.3s1.9-0.8,3-0.8c1.4,0,2.5,0.3,3.3,1s1.4,1.7,1.7,2.9l-2.1,0.3c-0.2-0.8-0.5-1.5-1-1.9
		s-1.1-0.6-1.8-0.6c-1.1,0-1.9,0.4-2.6,1.1s-1,2-1,3.6c0,1.7,0.3,2.9,1,3.6s1.5,1.1,2.5,1.1c0.8,0,1.5-0.3,2.1-0.8
		S506,365.6,506.2,364.6z"/>
	<path fill="#0F1F30" d="M518.6,365.1l2.2,0.3c-0.3,1.3-1,2.3-1.9,3s-2.1,1.1-3.6,1.1c-1.8,0-3.3-0.6-4.3-1.7s-1.6-2.7-1.6-4.7
		c0-2.1,0.5-3.7,1.6-4.9c1.1-1.2,2.5-1.7,4.2-1.7s3,0.6,4.1,1.7s1.6,2.7,1.6,4.8c0,0.1,0,0.3,0,0.6h-9.3c0.1,1.4,0.5,2.4,1.2,3.1
		s1.6,1.1,2.6,1.1c0.8,0,1.4-0.2,2-0.6S518.2,366,518.6,365.1z M511.6,361.7h6.9c-0.1-1-0.4-1.8-0.8-2.4c-0.7-0.8-1.5-1.2-2.6-1.2
		c-1,0-1.8,0.3-2.4,1S511.7,360.6,511.6,361.7z"/>
	<path fill="#0F1F30" d="M523.4,354.4V352h2.1v2.4H523.4z M523.4,369.1v-12.4h2.1v12.4H523.4z"/>
	<path fill="#0F1F30" d="M532.2,369.1l-4.7-12.4h2.2l2.7,7.5c0.3,0.8,0.6,1.6,0.8,2.5c0.2-0.7,0.4-1.4,0.8-2.4l2.8-7.6h2.2
		l-4.7,12.4H532.2z"/>
	<path fill="#0F1F30" d="M549.2,365.1l2.2,0.3c-0.3,1.3-1,2.3-1.9,3s-2.1,1.1-3.6,1.1c-1.8,0-3.3-0.6-4.3-1.7s-1.6-2.7-1.6-4.7
		c0-2.1,0.5-3.7,1.6-4.9s2.5-1.7,4.2-1.7s3,0.6,4.1,1.7s1.6,2.7,1.6,4.8c0,0.1,0,0.3,0,0.6h-9.3c0.1,1.4,0.5,2.4,1.2,3.1
		s1.6,1.1,2.6,1.1c0.8,0,1.4-0.2,2-0.6S548.9,366,549.2,365.1z M542.3,361.7h6.9c-0.1-1-0.4-1.8-0.8-2.4c-0.7-0.8-1.5-1.2-2.6-1.2
		c-1,0-1.8,0.3-2.4,1S542.4,360.6,542.3,361.7z"/>
	<path fill="#0F1F30" d="M554,369.1v-12.4h1.9v1.9c0.5-0.9,0.9-1.5,1.3-1.7s0.9-0.4,1.4-0.4c0.7,0,1.4,0.2,2.2,0.7l-0.7,2
		c-0.5-0.3-1-0.5-1.5-0.5s-0.9,0.1-1.2,0.4s-0.6,0.7-0.8,1.2c-0.2,0.8-0.4,1.6-0.4,2.5v6.5H554V369.1z"/>
	<path fill="#8A9AA5" d="M574.4,360.8c0,1-1,1.7-2.3,1.7s-2.3-0.8-2.3-1.7c0-1,1-1.7,2.3-1.7S574.4,359.8,574.4,360.8z"/>
	<path fill="#8A9AA5" d="M585.9,360.8c0-1,1-1.7,2.3-1.7s2.3,0.8,2.3,1.7c0,1-1,1.7-2.3,1.7S585.9,361.7,585.9,360.8z"/>
	<path fill="#8A9AA5" d="M580.5,356.7c-1,0-1.7-1-1.7-2.3s0.8-2.3,1.7-2.3s1.7,1,1.7,2.3C582.3,355.7,581.5,356.7,580.5,356.7z"/>
	<path fill="#8A9AA5" d="M580.2,365.2c1,0,1.7,1,1.7,2.3s-0.8,2.3-1.7,2.3c-1,0-1.7-1-1.7-2.3C578.4,366.2,579.2,365.2,580.2,365.2z
		"/>
	<path fill="#8A9AA5" d="M582.7,361.1c0,1.4-1.1,2.5-2.5,2.5s-2.5-1.1-2.5-2.5s1.1-2.5,2.5-2.5S582.7,359.7,582.7,361.1z"/>
	<path fill="#8A9AA5" d="M436.2,366.2c0-0.6,0.7-1.1,1.5-1.1h20c0.8,0,1.5,0.5,1.5,1.1v3.9c0,0.6-0.7,1.1-1.5,1.1h-20
		c-0.8,0-1.5-0.5-1.5-1.1V366.2z"/>
	<rect x="390.4" y="357" fill="#B5C0C9" width="11.9" height="9.4"/>
	<path fill="#FFFFFF" d="M390.4,357v1h10.9v7.4h-9.9V357H390.4v1V357h-1v9.4c0,0.3,0.1,0.5,0.3,0.7c0.2,0.2,0.4,0.3,0.7,0.3h11.9
		c0.3,0,0.5-0.1,0.7-0.3c0.2-0.2,0.3-0.4,0.3-0.7V357c0-0.3-0.1-0.5-0.3-0.7c-0.2-0.2-0.4-0.3-0.7-0.3h-11.9c-0.3,0-0.5,0.1-0.7,0.3
		c-0.2,0.2-0.3,0.4-0.3,0.7H390.4z"/>
	<path fill="#B5C0C9" d="M385.4,354.2c0-0.8,0.6-1.5,1.4-1.5h2.2c0.8,0,1.5,0.6,1.5,1.5v15.2c0,0.8-0.6,1.5-1.5,1.5h-2.2
		c-0.8,0-1.4-0.6-1.4-1.5V354.2z"/>
	<path fill="#FFFFFF" d="M385.4,354.2h1c0-0.1,0.1-0.3,0.1-0.4c0.1-0.1,0.2-0.1,0.3-0.1h2.2c0.1,0,0.3,0.1,0.4,0.1
		c0.1,0.1,0.1,0.2,0.1,0.4v15.2c0,0.1-0.1,0.3-0.1,0.4c-0.1,0.1-0.2,0.1-0.4,0.1h-2.2c-0.2,0-0.2,0-0.3-0.1
		c-0.1-0.1-0.1-0.2-0.1-0.4v-15.2H385.4h-1v15.2c0,0.7,0.2,1.3,0.7,1.8c0.4,0.5,1.1,0.7,1.7,0.7h2.2c0.7,0,1.4-0.3,1.8-0.8
		s0.7-1.1,0.7-1.7v-15.2c0-0.7-0.3-1.4-0.8-1.8s-1.1-0.7-1.7-0.7h-2.2c-0.7,0-1.3,0.3-1.7,0.8c-0.4,0.5-0.7,1.1-0.7,1.7H385.4z"/>
	<rect x="311" y="357" fill="#B5C0C9" width="12" height="9.4"/>
	<path fill="#FFFFFF" d="M311,357v1h11v7.4h-10V357H311v1V357h-1v9.4c0,0.3,0.1,0.5,0.3,0.7c0.2,0.2,0.4,0.3,0.7,0.3h12
		c0.3,0,0.5-0.1,0.7-0.3c0.2-0.2,0.3-0.4,0.3-0.7V357c0-0.3-0.1-0.5-0.3-0.7c-0.2-0.2-0.4-0.3-0.7-0.3h-12c-0.3,0-0.5,0.1-0.7,0.3
		c-0.2,0.2-0.3,0.4-0.3,0.7H311z"/>
	<path fill="#B5C0C9" d="M328,354.2c0-0.8-0.6-1.5-1.4-1.5h-2.2c-0.8,0-1.5,0.6-1.5,1.5v15.2c0,0.8,0.6,1.5,1.5,1.5h2.2
		c0.8,0,1.4-0.6,1.4-1.5V354.2z"/>
	<path fill="#FFFFFF" d="M328,354.2h1c0-0.7-0.2-1.3-0.7-1.7c-0.4-0.5-1-0.8-1.7-0.8h-2.2c-0.6,0-1.3,0.2-1.7,0.7
		c-0.5,0.4-0.8,1.1-0.8,1.8v15.2c0,0.6,0.2,1.3,0.7,1.7c0.4,0.5,1.1,0.8,1.8,0.8h2.2c0.6,0,1.3-0.3,1.7-0.7c0.4-0.5,0.7-1.1,0.7-1.8
		v-15.2H328h-1v15.2c0,0.2-0.1,0.3-0.1,0.4c-0.1,0.1-0.1,0.1-0.3,0.1h-2.2c-0.2,0-0.3-0.1-0.4-0.1c-0.1-0.1-0.1-0.2-0.1-0.4v-15.2
		c0-0.2,0.1-0.3,0.1-0.4c0.1-0.1,0.2-0.1,0.4-0.1h2.2c0.1,0,0.2,0,0.3,0.1c0.1,0.1,0.1,0.2,0.1,0.4H328z"/>
	<polygon fill="#B5C0C9" points="387.7,385 393.5,382.2 393.5,375.2 387.8,371.6 	"/>
	<path fill="#FFFFFF" d="M387.7,385l0.4,0.9l5.8-2.8c0.3-0.2,0.6-0.5,0.6-0.9v-7c0-0.3-0.2-0.7-0.5-0.8l-5.7-3.6
		c-0.3-0.2-0.7-0.2-1,0s-0.5,0.5-0.5,0.9l-0.1,13.4c0,0.3,0.2,0.7,0.5,0.9c0.3,0.2,0.7,0.2,1,0.1L387.7,385h1l0.1-11.6l3.7,2.3v5.8
		l-5.2,2.5L387.7,385h1H387.7z"/>
	<rect x="326.4" y="349.2" fill="#B5C0C9" width="60.6" height="40.2"/>
	<path fill="#FFFFFF" d="M326.4,349.2v1H386v38.2h-58.6v-39.2H326.4v1V349.2h-1v40.2c0,0.3,0.1,0.5,0.3,0.7c0.2,0.2,0.4,0.3,0.7,0.3
		H387c0.3,0,0.5-0.1,0.7-0.3c0.2-0.2,0.3-0.4,0.3-0.7v-40.2c0-0.3-0.1-0.5-0.3-0.7c-0.2-0.2-0.4-0.3-0.7-0.3h-60.6
		c-0.3,0-0.5,0.1-0.7,0.3c-0.2,0.2-0.3,0.4-0.3,0.7H326.4z"/>
	<rect x="332.4" y="361.2" width="2.3" height="17.2"/>
	<path d="M338.7,378.4v-17.2h6.5c1.1,0,2,0.1,2.6,0.2c0.8,0.1,1.6,0.4,2.1,0.8s1,0.9,1.4,1.7s0.5,1.5,0.5,2.3c0,1.5-0.5,2.7-1.4,3.7
		s-2.6,1.5-5,1.5H341v7H338.7z M341,369.4h4.4c1.5,0,2.5-0.3,3.1-0.8s0.9-1.3,0.9-2.3c0-0.7-0.2-1.3-0.5-1.8s-0.8-0.8-1.4-1
		c-0.4-0.1-1.1-0.2-2.1-0.2H341V369.4z"/>
	<path d="M351.1,378.4l6.6-17.2h2.4l7,17.2h-2.6l-2-5.2h-7.2l-1.9,5.2H351.1z M356,371.4h5.8l-1.8-4.8c-0.5-1.4-1-2.6-1.2-3.6
		c-0.2,1.1-0.5,2.2-0.9,3.3L356,371.4z"/>
	<path d="M368.2,372.9l2.1-0.2c0.1,0.9,0.3,1.6,0.7,2.1s0.9,1,1.7,1.3s1.7,0.5,2.6,0.5s1.6-0.1,2.3-0.4s1.2-0.6,1.5-1.1
		s0.5-0.9,0.5-1.5c0-0.5-0.2-1-0.5-1.4s-0.8-0.7-1.5-1c-0.5-0.2-1.5-0.5-3.1-0.8s-2.7-0.7-3.3-1.1c-0.8-0.4-1.4-1-1.8-1.6
		s-0.6-1.3-0.6-2.1c0-0.9,0.2-1.7,0.7-2.4s1.2-1.3,2.2-1.7s2-0.6,3.2-0.6c1.3,0,2.4,0.2,3.4,0.6s1.7,1,2.2,1.8s0.8,1.7,0.8,2.7
		l-2.2,0.2c-0.1-1.1-0.5-1.9-1.2-2.5s-1.7-0.8-3-0.8c-1.4,0-2.4,0.3-3,0.8s-0.9,1.1-0.9,1.8c0,0.6,0.2,1.1,0.7,1.5
		c0.4,0.4,1.6,0.8,3.4,1.2s3.1,0.8,3.8,1.1c1,0.5,1.7,1,2.2,1.8s0.7,1.5,0.7,2.4s-0.3,1.8-0.8,2.6s-1.3,1.4-2.3,1.9
		s-2.1,0.7-3.3,0.7c-1.6,0-2.9-0.2-3.9-0.7s-1.9-1.1-2.5-2S368.2,374.1,368.2,372.9z"/>
	<rect x="331.8" y="307.5" fill="#FFFFFF" width="2.3" height="17.2"/>
	<path fill="#FFFFFF" d="M338.1,324.7v-17.2h6.5c1.1,0,2,0.1,2.6,0.2c0.8,0.1,1.6,0.4,2.1,0.8s1,0.9,1.4,1.7s0.5,1.5,0.5,2.3
		c0,1.5-0.5,2.7-1.4,3.7s-2.6,1.5-5,1.5h-4.4v7H338.1z M340.4,315.7h4.4c1.5,0,2.5-0.3,3.1-0.8s0.9-1.3,0.9-2.3
		c0-0.7-0.2-1.3-0.5-1.8s-0.8-0.8-1.4-1c-0.4-0.1-1.1-0.2-2.1-0.2h-4.4V315.7z"/>
	<path fill="#FFFFFF" d="M350.5,324.7l6.6-17.2h2.4l7,17.2h-2.6l-2-5.2h-7.2l-1.9,5.2H350.5z M355.4,317.7h5.8l-1.8-4.8
		c-0.5-1.4-1-2.6-1.2-3.6c-0.2,1.1-0.5,2.2-0.9,3.3L355.4,317.7z"/>
	<path fill="#FFFFFF" d="M367.6,319.2l2.1-0.2c0.1,0.9,0.3,1.6,0.7,2.1s0.9,1,1.7,1.3s1.7,0.5,2.6,0.5s1.6-0.1,2.3-0.4
		s1.2-0.6,1.5-1.1s0.5-0.9,0.5-1.5c0-0.5-0.2-1-0.5-1.4s-0.8-0.7-1.5-1c-0.5-0.2-1.5-0.5-3.1-0.8s-2.7-0.7-3.3-1.1
		c-0.8-0.4-1.4-1-1.8-1.6s-0.6-1.3-0.6-2.1c0-0.9,0.2-1.7,0.7-2.4s1.2-1.3,2.2-1.7s2-0.6,3.2-0.6c1.3,0,2.4,0.2,3.4,0.6
		s1.7,1,2.2,1.8s0.8,1.7,0.8,2.7l-2.2,0.2c-0.1-1.1-0.5-1.9-1.2-2.5s-1.7-0.8-3-0.8c-1.4,0-2.4,0.3-3,0.8s-0.9,1.1-0.9,1.8
		c0,0.6,0.2,1.1,0.7,1.5c0.4,0.4,1.6,0.8,3.4,1.2s3.1,0.8,3.8,1.1c1,0.5,1.7,1,2.2,1.8s0.7,1.5,0.7,2.4s-0.3,1.8-0.8,2.6
		s-1.3,1.4-2.3,1.9s-2.1,0.7-3.3,0.7c-1.6,0-2.9-0.2-3.9-0.7s-1.9-1.1-2.5-2S367.6,320.3,367.6,319.2z"/>
	<path fill="#FFFFFF" d="M401.9,314.6h-11.3v-2h11.3V314.6z M401.9,319.8h-11.3v-2h11.3V319.8z"/>
	<rect x="412.1" y="307.5" fill="#FFFFFF" width="2.3" height="17.2"/>
	<path fill="#FFFFFF" d="M418.4,324.7v-17.2h6.5c1.1,0,2,0.1,2.6,0.2c0.8,0.1,1.6,0.4,2.1,0.8s1,0.9,1.4,1.7s0.5,1.5,0.5,2.3
		c0,1.5-0.5,2.7-1.4,3.7s-2.6,1.5-5,1.5h-4.4v7H418.4z M420.7,315.7h4.4c1.5,0,2.5-0.3,3.1-0.8s0.9-1.3,0.9-2.3
		c0-0.7-0.2-1.3-0.5-1.8s-0.8-0.8-1.4-1c-0.4-0.1-1.1-0.2-2.1-0.2h-4.4V315.7z"/>
	<path fill="#FFFFFF" d="M437.4,324.7l6.6-17.2h2.4l7,17.2h-2.5l-2-5.2h-7.2l-1.9,5.2H437.4z M442.4,317.7h5.8l-1.8-4.8
		c-0.5-1.4-1-2.6-1.2-3.6c-0.2,1.1-0.5,2.2-0.9,3.3L442.4,317.7z"/>
	<path fill="#FFFFFF" d="M463.2,324.7v-1.8c-1,1.4-2.3,2.1-3.9,2.1c-0.7,0-1.4-0.1-2.1-0.4s-1.1-0.6-1.4-1.1s-0.5-0.9-0.7-1.6
		c-0.1-0.4-0.1-1.1-0.1-2v-7.7h2.1v6.9c0,1.1,0,1.8,0.1,2.2c0.1,0.6,0.4,1,0.8,1.3s1,0.5,1.6,0.5s1.2-0.2,1.8-0.5s0.9-0.8,1.2-1.3
		s0.3-1.4,0.3-2.4v-6.7h2.1v12.4h-1.8V324.7z"/>
	<path fill="#FFFFFF" d="M473,322.8l0.3,1.9c-0.6,0.1-1.1,0.2-1.6,0.2c-0.8,0-1.4-0.1-1.8-0.4s-0.7-0.6-0.9-1s-0.3-1.2-0.3-2.5v-7.2
		h-1.5v-1.6h1.5v-3.1l2.1-1.3v4.3h2.1v1.6h-2v7.3c0,0.6,0,1,0.1,1.2s0.2,0.3,0.4,0.4s0.4,0.2,0.7,0.2
		C472.3,322.9,472.6,322.9,473,322.8z"/>
	<path fill="#FFFFFF" d="M474.3,318.5c0-2.3,0.6-4,1.9-5.1c1.1-0.9,2.4-1.4,3.9-1.4c1.7,0,3.1,0.6,4.2,1.7s1.6,2.7,1.6,4.6
		c0,1.6-0.2,2.9-0.7,3.8s-1.2,1.6-2.1,2.1s-1.9,0.8-3,0.8c-1.7,0-3.2-0.6-4.2-1.7S474.3,320.6,474.3,318.5z M476.4,318.5
		c0,1.6,0.3,2.8,1,3.6s1.6,1.2,2.6,1.2s1.9-0.4,2.6-1.2s1-2,1-3.6c0-1.5-0.3-2.7-1-3.5s-1.6-1.2-2.6-1.2c-1.1,0-1.9,0.4-2.6,1.2
		S476.4,316.9,476.4,318.5z"/>
	<path fill="#FFFFFF" d="M487.9,319.2l2.1-0.2c0.1,0.9,0.3,1.6,0.7,2.1s0.9,1,1.7,1.3s1.7,0.5,2.6,0.5s1.6-0.1,2.3-0.4
		s1.2-0.6,1.5-1.1s0.5-0.9,0.5-1.5c0-0.5-0.2-1-0.5-1.4s-0.8-0.7-1.5-1c-0.5-0.2-1.5-0.5-3.1-0.8s-2.7-0.7-3.3-1.1
		c-0.8-0.4-1.4-1-1.8-1.6s-0.6-1.3-0.6-2.1c0-0.9,0.2-1.7,0.7-2.4s1.2-1.3,2.2-1.7s2-0.6,3.2-0.6c1.3,0,2.4,0.2,3.4,0.6
		s1.7,1,2.2,1.8s0.8,1.7,0.8,2.7l-2.2,0.2c-0.1-1.1-0.5-1.9-1.2-2.5s-1.7-0.8-3-0.8c-1.4,0-2.4,0.3-3,0.8s-0.9,1.1-0.9,1.8
		c0,0.6,0.2,1.1,0.7,1.5c0.4,0.4,1.6,0.8,3.4,1.2s3.1,0.8,3.8,1.1c1,0.5,1.7,1,2.2,1.8s0.7,1.5,0.7,2.4s-0.3,1.8-0.8,2.6
		s-1.3,1.4-2.3,1.9s-2.1,0.7-3.3,0.7c-1.6,0-2.9-0.2-3.9-0.7s-1.9-1.1-2.5-2S487.9,320.3,487.9,319.2z"/>
	<path fill="#FFFFFF" d="M506.7,324.7l-3.8-12.4h2.2l2,7.2l0.7,2.7c0-0.1,0.2-1,0.6-2.6l2-7.3h2.2l1.9,7.2l0.6,2.4l0.7-2.4l2.1-7.2
		h2.1l-3.9,12.4h-2.2l-2-7.5l-0.5-2.1l-2.5,9.6L506.7,324.7z"/>
	<path fill="#FFFFFF" d="M521.8,310v-2.4h2.1v2.4H521.8z M521.8,324.7v-12.4h2.1v12.4H521.8z"/>
	<path fill="#FFFFFF" d="M531.7,322.8l0.3,1.9c-0.6,0.1-1.1,0.2-1.6,0.2c-0.8,0-1.4-0.1-1.8-0.4s-0.7-0.6-0.9-1s-0.3-1.2-0.3-2.5
		v-7.2h-1.5v-1.6h1.5v-3.1l2.1-1.3v4.3h2.1v1.6h-2.1v7.3c0,0.6,0,1,0.1,1.2s0.2,0.3,0.4,0.4s0.4,0.2,0.7,0.2
		C531,322.9,531.3,322.9,531.7,322.8z"/>
	<path fill="#FFFFFF" d="M541.9,320.1l2.1,0.3c-0.2,1.4-0.8,2.5-1.7,3.4s-2.1,1.2-3.4,1.2c-1.7,0-3.1-0.6-4.1-1.7s-1.6-2.7-1.6-4.8
		c0-1.3,0.2-2.5,0.7-3.5s1.1-1.8,2-2.3s1.9-0.8,3-0.8c1.4,0,2.5,0.3,3.3,1s1.4,1.7,1.7,2.9l-2.1,0.3c-0.2-0.8-0.5-1.5-1-1.9
		s-1.1-0.6-1.8-0.6c-1.1,0-1.9,0.4-2.6,1.1s-1,2-1,3.6c0,1.7,0.3,2.9,1,3.6s1.5,1.1,2.5,1.1c0.8,0,1.5-0.3,2.1-0.8
		S541.7,321.2,541.9,320.1z"/>
	<path fill="#FFFFFF" d="M545.7,324.7v-17.2h2.1v6.2c1-1.1,2.2-1.7,3.7-1.7c0.9,0,1.7,0.2,2.4,0.5s1.2,0.9,1.5,1.5s0.4,1.6,0.4,2.8
		v7.9h-2.1v-7.9c0-1.1-0.2-1.8-0.7-2.3s-1.1-0.7-1.9-0.7c-0.6,0-1.2,0.2-1.8,0.5s-0.9,0.8-1.2,1.3s-0.4,1.3-0.4,2.3v6.8L545.7,324.7
		z"/>
	<path fill="#0CBC18" d="M215.7,468.9c0-2.9,0.8-5.1,2.3-6.7s3.5-2.4,5.9-2.4c1.6,0,3,0.4,4.3,1.1s2.2,1.8,2.9,3.2s1,2.9,1,4.6
		s-0.4,3.3-1.1,4.7c-0.7,1.4-1.7,2.4-3,3.1s-2.7,1.1-4.2,1.1c-1.6,0-3.1-0.4-4.3-1.2c-1.2-0.8-2.2-1.8-2.9-3.2
		S215.7,470.4,215.7,468.9z M218.1,469c0,2.1,0.6,3.7,1.7,4.9c1.1,1.2,2.5,1.8,4.2,1.8s3.1-0.6,4.2-1.8c1.1-1.2,1.7-2.9,1.7-5.1
		c0-1.4-0.2-2.6-0.7-3.7s-1.2-1.9-2.1-2.4s-1.9-0.9-3.1-0.9c-1.6,0-3,0.6-4.2,1.7C218.6,464.6,218.1,466.4,218.1,469z"/>
	<path fill="#0CBC18" d="M234.8,482.1v-17.2h1.9v1.6c0.5-0.6,1-1.1,1.5-1.4s1.3-0.5,2.1-0.5c1.1,0,2,0.3,2.8,0.8s1.4,1.3,1.8,2.3
		s0.6,2.1,0.6,3.3c0,1.3-0.2,2.4-0.7,3.4s-1.1,1.8-2,2.3s-1.8,0.8-2.7,0.8c-0.7,0-1.3-0.1-1.9-0.4c-0.6-0.3-1-0.7-1.4-1.1v6.1
		L234.8,482.1z M236.7,471.1c0,1.6,0.3,2.8,1,3.6s1.4,1.1,2.4,1.1c0.9,0,1.7-0.4,2.4-1.2s1-2,1-3.7c0-1.6-0.3-2.8-1-3.6
		s-1.4-1.2-2.3-1.2s-1.7,0.4-2.4,1.3C237.1,468.3,236.7,469.5,236.7,471.1z"/>
	<path fill="#0CBC18" d="M252.8,475.4l0.3,1.9c-0.6,0.1-1.1,0.2-1.6,0.2c-0.8,0-1.4-0.1-1.8-0.4s-0.7-0.6-0.9-1s-0.3-1.2-0.3-2.5
		v-7.2H247v-1.6h1.5v-3.1l2.1-1.3v4.3h2.1v1.6h-2.1v7.3c0,0.6,0,1,0.1,1.2s0.2,0.3,0.4,0.4s0.4,0.2,0.7,0.2
		C252.1,475.5,252.4,475.5,252.8,475.4z"/>
	<path fill="#0CBC18" d="M254.9,462.5v-2.4h2.1v2.4H254.9z M254.9,477.3v-12.4h2.1v12.4H254.9z"/>
	<path fill="#0CBC18" d="M259.4,471.1c0-2.3,0.6-4,1.9-5.1c1.1-0.9,2.4-1.4,3.9-1.4c1.7,0,3.1,0.6,4.2,1.7s1.6,2.7,1.6,4.6
		c0,1.6-0.2,2.9-0.7,3.8s-1.2,1.6-2.1,2.1s-1.9,0.8-3,0.8c-1.7,0-3.2-0.6-4.2-1.7S259.4,473.2,259.4,471.1z M261.6,471.1
		c0,1.6,0.3,2.8,1,3.6s1.6,1.2,2.6,1.2s1.9-0.4,2.6-1.2s1-2,1-3.6c0-1.5-0.3-2.7-1-3.5s-1.6-1.2-2.6-1.2c-1.1,0-1.9,0.4-2.6,1.2
		S261.6,469.5,261.6,471.1z"/>
	<path fill="#0CBC18" d="M273.5,477.3v-12.4h1.9v1.8c0.9-1.4,2.2-2.1,4-2.1c0.8,0,1.4,0.1,2.1,0.4s1.1,0.6,1.4,1.1s0.5,1,0.7,1.6
		c0.1,0.4,0.1,1.1,0.1,2.1v7.7h-2.1v-7.6c0-0.9-0.1-1.5-0.2-1.9s-0.5-0.8-0.9-1s-0.9-0.4-1.5-0.4c-0.9,0-1.7,0.3-2.3,0.9
		c-0.6,0.6-1,1.7-1,3.2v6.8h-2.2V477.3z"/>
	<path fill="#0CBC18" d="M295,475.8c-0.8,0.7-1.5,1.1-2.3,1.4s-1.5,0.4-2.3,0.4c-1.4,0-2.4-0.3-3.2-1c-0.8-0.7-1.1-1.5-1.1-2.6
		c0-0.6,0.1-1.2,0.4-1.7s0.6-0.9,1.1-1.2s1-0.5,1.5-0.7c0.4-0.1,1-0.2,1.9-0.3c1.7-0.2,3-0.4,3.8-0.7c0-0.3,0-0.5,0-0.6
		c0-0.9-0.2-1.5-0.6-1.8c-0.5-0.5-1.3-0.7-2.4-0.7c-1,0-1.7,0.2-2.2,0.5s-0.8,1-1,1.8l-2.1-0.3c0.2-0.9,0.5-1.6,0.9-2.1
		s1.1-1,1.9-1.3s1.8-0.4,2.8-0.4c1.1,0,1.9,0.1,2.6,0.4s1.2,0.6,1.5,0.9s0.5,0.9,0.7,1.4c0.1,0.4,0.1,1,0.1,1.9v2.8
		c0,2,0,3.2,0.1,3.7s0.3,1,0.5,1.5h-2.2C295.2,476.9,295.1,476.3,295,475.8z M294.8,471c-0.8,0.3-1.9,0.6-3.4,0.8
		c-0.9,0.1-1.5,0.3-1.8,0.4s-0.6,0.4-0.8,0.7c-0.2,0.3-0.3,0.6-0.3,1c0,0.6,0.2,1,0.6,1.4s1,0.6,1.9,0.6c0.8,0,1.5-0.2,2.2-0.5
		s1.1-0.8,1.4-1.5c0.2-0.5,0.3-1.2,0.3-2.1L294.8,471z"/>
	<rect x="300.2" y="460.1" fill="#0CBC18" width="2.1" height="17.2"/>
	<rect x="390.4" y="430.7" fill="#B5C0C9" width="11.9" height="9.4"/>
	<polygon fill="#0CBC18" points="390.4,430.7 390.4,432.2 400.8,432.2 400.8,438.6 391.9,438.6 391.9,430.7 390.4,430.7 
		390.4,432.2 390.4,430.7 388.9,430.7 388.9,441.6 403.8,441.6 403.8,429.2 388.9,429.2 388.9,430.7 	"/>
	<path fill="#B5C0C9" d="M385.4,427.9c0-0.8,0.6-1.5,1.4-1.5h2.2c0.8,0,1.5,0.6,1.5,1.5v15.2c0,0.8-0.6,1.5-1.5,1.5h-2.2
		c-0.8,0-1.4-0.6-1.4-1.5V427.9z"/>
	<path fill="#0CBC18" d="M385.4,427.9h1.5l0,0l0,0l-0.1-0.1l0,0.1l0,0l-0.1-0.1l0,0.1l-0.1-0.2l0,0.2l0.1,0l-0.1-0.2l0,0.2h2.2v15.2
		h-2.2l0,0l0,0.2l0.1-0.1l-0.1-0.1l0,0.2l0.1-0.1l-0.1,0.1l0.1-0.1l0,0l-0.1,0.1l0.1-0.1l0,0l0,0l0,0l0,0l0,0l0-0.1v-15.2H385.4
		h-1.5v15.2c0,0.8,0.3,1.6,0.8,2.1c0.5,0.6,1.3,0.9,2.1,0.9h2.2c0.8,0,1.6-0.3,2.2-0.9c0.5-0.6,0.8-1.3,0.8-2.1v-15.2
		c0-0.8-0.3-1.6-0.9-2.2c-0.6-0.5-1.3-0.8-2.1-0.8h-2.2c-0.8,0-1.6,0.4-2.1,0.9c-0.5,0.6-0.8,1.3-0.8,2.1H385.4z"/>
	<rect x="311" y="430.7" fill="#B5C0C9" width="12" height="9.4"/>
	<polygon fill="#0CBC18" points="311,430.7 311,432.2 321.5,432.2 321.5,438.6 312.5,438.6 312.5,430.7 311,430.7 311,432.2 
		311,430.7 309.5,430.7 309.5,441.6 324.5,441.6 324.5,429.2 309.5,429.2 309.5,430.7 	"/>
	<path fill="#B5C0C9" d="M328,427.9c0-0.8-0.6-1.5-1.4-1.5h-2.2c-0.8,0-1.5,0.6-1.5,1.5v15.2c0,0.8,0.6,1.5,1.5,1.5h2.2
		c0.8,0,1.4-0.6,1.4-1.5V427.9z"/>
	<path fill="#0CBC18" d="M328,427.9h1.5c0-0.8-0.3-1.5-0.8-2.1c-0.5-0.6-1.3-0.9-2.1-0.9h-2.2c-0.8,0-1.5,0.3-2.1,0.8
		c-0.6,0.5-0.9,1.3-0.9,2.2v15.2c0,0.8,0.3,1.5,0.8,2.1c0.5,0.6,1.3,0.9,2.2,0.9h2.2c0.8,0,1.6-0.3,2.1-0.9c0.5-0.6,0.8-1.3,0.8-2.1
		v-15.2H328h-1.5v15.2l0,0.1l0.1,0l-0.1,0l0,0l0.1,0l-0.1,0l0.2,0.1l-0.1-0.2l-0.1,0.1l0.2,0.1l-0.1-0.2l0.1,0.1l0-0.1l0,0l0.1,0.1
		l0-0.1l0,0h-2.2v-15.2h2.2v-0.1l-0.1,0.1l0.1,0v-0.1l-0.1,0.1l0,0l0,0H328z"/>
	<polygon fill="#B5C0C9" points="387.7,458.7 393.5,455.8 393.5,448.9 387.8,445.3 	"/>
	<polygon fill="#0CBC18" points="387.7,458.7 388.4,460 395,456.7 395,448.1 386.3,442.6 386.2,461.1 388.4,460 387.7,458.7 
		389.2,458.7 389.3,448 392,449.7 392,454.9 387,457.4 387.7,458.7 389.2,458.7 	"/>
	<rect x="326.4" y="422.9" fill="#B5C0C9" width="60.6" height="40.2"/>
	<polygon fill="#0CBC18" points="326.4,422.9 326.4,424.4 385.5,424.4 385.5,461.6 327.9,461.6 327.9,422.9 326.4,422.9 
		326.4,424.4 326.4,422.9 324.9,422.9 324.9,464.6 388.5,464.6 388.5,421.4 324.9,421.4 324.9,422.9 	"/>
	<rect x="332.4" y="434.9" width="2.3" height="17.2"/>
	<path d="M338.7,452.1v-17.2h6.5c1.1,0,2,0.1,2.6,0.2c0.8,0.1,1.6,0.4,2.1,0.8s1,0.9,1.4,1.7s0.5,1.5,0.5,2.3c0,1.5-0.5,2.7-1.4,3.7
		s-2.6,1.5-5,1.5H341v7H338.7z M341,443.1h4.4c1.5,0,2.5-0.3,3.1-0.8s0.9-1.3,0.9-2.3c0-0.7-0.2-1.3-0.5-1.8s-0.8-0.8-1.4-1
		c-0.4-0.1-1.1-0.2-2.1-0.2H341V443.1z"/>
	<path d="M351.1,452.1l6.6-17.2h2.4l7,17.2h-2.6l-2-5.2h-7.2l-1.9,5.2H351.1z M356,445.1h5.8l-1.8-4.8c-0.5-1.4-1-2.6-1.2-3.6
		c-0.2,1.1-0.5,2.2-0.9,3.3L356,445.1z"/>
	<path d="M368.2,446.6l2.1-0.2c0.1,0.9,0.3,1.6,0.7,2.1s0.9,1,1.7,1.3s1.7,0.5,2.6,0.5s1.6-0.1,2.3-0.4s1.2-0.6,1.5-1.1
		s0.5-0.9,0.5-1.5c0-0.5-0.2-1-0.5-1.4s-0.8-0.7-1.5-1c-0.5-0.2-1.5-0.5-3.1-0.8s-2.7-0.7-3.3-1.1c-0.8-0.4-1.4-1-1.8-1.6
		s-0.6-1.3-0.6-2.1c0-0.9,0.2-1.7,0.7-2.4s1.2-1.3,2.2-1.7s2-0.6,3.2-0.6c1.3,0,2.4,0.2,3.4,0.6s1.7,1,2.2,1.8s0.8,1.7,0.8,2.7
		l-2.2,0.2c-0.1-1.1-0.5-1.9-1.2-2.5s-1.7-0.8-3-0.8c-1.4,0-2.4,0.3-3,0.8s-0.9,1.1-0.9,1.8c0,0.6,0.2,1.1,0.7,1.5
		c0.4,0.4,1.6,0.8,3.4,1.2s3.1,0.8,3.8,1.1c1,0.5,1.7,1,2.2,1.8s0.7,1.5,0.7,2.4s-0.3,1.8-0.8,2.6s-1.3,1.4-2.3,1.9
		s-2.1,0.7-3.3,0.7c-1.6,0-2.9-0.2-3.9-0.7s-1.9-1.1-2.5-2S368.2,447.7,368.2,446.6z"/>
	<rect x="390.4" y="502" fill="#B5C0C9" width="11.9" height="9.4"/>
	<polygon fill="#0CBC18" points="390.4,502 390.4,503.5 400.8,503.5 400.8,509.9 391.9,509.9 391.9,502 390.4,502 390.4,503.5 
		390.4,502 388.9,502 388.9,512.9 403.8,512.9 403.8,500.5 388.9,500.5 388.9,502 	"/>
	<path fill="#B5C0C9" d="M385.4,499.2c0-0.8,0.6-1.5,1.4-1.5h2.2c0.8,0,1.5,0.6,1.5,1.5v15.2c0,0.8-0.6,1.5-1.5,1.5h-2.2
		c-0.8,0-1.4-0.6-1.4-1.5V499.2z"/>
	<path fill="#0CBC18" d="M385.4,499.2h1.5l0,0l0,0l-0.1-0.1l0,0.1l0,0l-0.1-0.1l0,0.1l-0.1-0.2l0,0.2l0.1,0l-0.1-0.2l0,0.2h2.2v15.2
		h-2.2l0,0l0,0.2l0.1-0.1l-0.1-0.1l0,0.2l0.1-0.1l-0.1,0.1l0.1-0.1l0,0l-0.1,0.1l0.1-0.1l0,0l0,0l0,0l0,0l0,0l0-0.1v-15.2H385.4
		h-1.5v15.2c0,0.8,0.3,1.6,0.8,2.1c0.5,0.6,1.3,0.9,2.1,0.9h2.2c0.8,0,1.6-0.3,2.2-0.9c0.5-0.6,0.8-1.3,0.8-2.1v-15.2
		c0-0.8-0.3-1.6-0.9-2.2c-0.6-0.5-1.3-0.8-2.1-0.8h-2.2c-0.8,0-1.6,0.4-2.1,0.9c-0.5,0.6-0.8,1.3-0.8,2.1H385.4z"/>
	<rect x="311" y="502" fill="#B5C0C9" width="12" height="9.4"/>
	<polygon fill="#0CBC18" points="311,502 311,503.5 321.5,503.5 321.5,509.9 312.5,509.9 312.5,502 311,502 311,503.5 311,502 
		309.5,502 309.5,512.9 324.5,512.9 324.5,500.5 309.5,500.5 309.5,502 	"/>
	<path fill="#B5C0C9" d="M328,499.2c0-0.8-0.6-1.5-1.4-1.5h-2.2c-0.8,0-1.5,0.6-1.5,1.5v15.2c0,0.8,0.6,1.5,1.5,1.5h2.2
		c0.8,0,1.4-0.6,1.4-1.5V499.2z"/>
	<path fill="#0CBC18" d="M328,499.2h1.5c0-0.8-0.3-1.5-0.8-2.1c-0.5-0.6-1.3-0.9-2.1-0.9h-2.2c-0.8,0-1.5,0.3-2.1,0.8
		c-0.6,0.5-0.9,1.3-0.9,2.2v15.2c0,0.8,0.3,1.5,0.8,2.1c0.5,0.6,1.3,0.9,2.2,0.9h2.2c0.8,0,1.6-0.3,2.1-0.9c0.5-0.6,0.8-1.3,0.8-2.1
		v-15.2H328h-1.5v15.2l0,0.1l0.1,0l-0.1,0l0,0l0.1,0l-0.1,0l0.2,0.1l-0.1-0.2l-0.1,0.1l0.2,0.1l-0.1-0.2l0.1,0.1l0-0.1l0,0l0.1,0.1
		l0-0.1l0,0h-2.2v-15.2h2.2v-0.1l-0.1,0.1l0.1,0v-0.1l-0.1,0.1l0,0l0,0H328z"/>
	<polygon fill="#B5C0C9" points="387.7,530 393.5,527.1 393.5,520.2 387.8,516.6 	"/>
	<polygon fill="#0CBC18" points="387.7,530 388.4,531.3 395,528 395,519.4 386.3,513.9 386.2,532.4 388.4,531.3 387.7,530 
		389.2,530 389.3,519.3 392,521 392,526.2 387,528.7 387.7,530 389.2,530 	"/>
	<rect x="326.4" y="494.2" fill="#B5C0C9" width="60.6" height="40.2"/>
	<polygon fill="#0CBC18" points="326.4,494.2 326.4,495.7 385.5,495.7 385.5,532.9 327.9,532.9 327.9,494.2 326.4,494.2 
		326.4,495.7 326.4,494.2 324.9,494.2 324.9,535.9 388.5,535.9 388.5,492.7 324.9,492.7 324.9,494.2 	"/>
	<rect x="332.4" y="506.2" width="2.3" height="17.2"/>
	<path d="M338.7,523.4v-17.2h6.5c1.1,0,2,0.1,2.6,0.2c0.8,0.1,1.6,0.4,2.1,0.8s1,0.9,1.4,1.7s0.5,1.5,0.5,2.3c0,1.5-0.5,2.7-1.4,3.7
		s-2.6,1.5-5,1.5H341v7H338.7z M341,514.4h4.4c1.5,0,2.5-0.3,3.1-0.8s0.9-1.3,0.9-2.3c0-0.7-0.2-1.3-0.5-1.8s-0.8-0.8-1.4-1
		c-0.4-0.1-1.1-0.2-2.1-0.2H341V514.4z"/>
	<path d="M351.1,523.4l6.6-17.2h2.4l7,17.2h-2.6l-2-5.2h-7.2l-1.9,5.2H351.1z M356,516.4h5.8l-1.8-4.8c-0.5-1.4-1-2.6-1.2-3.6
		c-0.2,1.1-0.5,2.2-0.9,3.3L356,516.4z"/>
	<path d="M368.2,517.9l2.1-0.2c0.1,0.9,0.3,1.6,0.7,2.1s0.9,1,1.7,1.3c0.8,0.3,1.7,0.5,2.6,0.5s1.6-0.1,2.3-0.4s1.2-0.6,1.5-1.1
		s0.5-0.9,0.5-1.5c0-0.5-0.2-1-0.5-1.4s-0.8-0.7-1.5-1c-0.5-0.2-1.5-0.5-3.1-0.8s-2.7-0.7-3.3-1.1c-0.8-0.4-1.4-1-1.8-1.6
		s-0.6-1.3-0.6-2.1c0-0.9,0.2-1.7,0.7-2.4s1.2-1.3,2.2-1.7s2-0.6,3.2-0.6c1.3,0,2.4,0.2,3.4,0.6s1.7,1,2.2,1.8s0.8,1.7,0.8,2.7
		l-2.2,0.2c-0.1-1.1-0.5-1.9-1.2-2.5s-1.7-0.8-3-0.8c-1.4,0-2.4,0.3-3,0.8s-0.9,1.1-0.9,1.8c0,0.6,0.2,1.1,0.7,1.5
		c0.4,0.4,1.6,0.8,3.4,1.2s3.1,0.8,3.8,1.1c1,0.5,1.7,1,2.2,1.8c0.5,0.8,0.7,1.5,0.7,2.4s-0.3,1.8-0.8,2.6c-0.5,0.8-1.3,1.4-2.3,1.9
		s-2.1,0.7-3.3,0.7c-1.6,0-2.9-0.2-3.9-0.7s-1.9-1.1-2.5-2S368.2,519,368.2,517.9z"/>
</g>
</svg>
