<?xml version="1.0" encoding="utf-8"?>
<!-- Generator: Adobe Illustrator 17.1.0, SVG Export Plug-In . SVG Version: 6.00 Build 0)  -->
<!DOCTYPE svg PUBLIC "-//W3C//DTD SVG 1.1//EN" "http://www.w3.org/Graphics/SVG/1.1/DTD/svg11.dtd">
<svg version="1.1" id="Layer_1" xmlns="http://www.w3.org/2000/svg" xmlns:xlink="http://www.w3.org/1999/xlink" x="0px" y="0px"
	 viewBox="0 0 1446.3 873.1" enable-background="new 0 0 1446.3 873.1" xml:space="preserve">
<g>
	<line fill="#FFFFFF" x1="740.1" y1="299" x2="740.1" y2="566.3"/>
	<rect x="737.4" y="299" fill="#FFFFFF" width="5.5" height="267.3"/>
	<line fill="#FFFFFF" x1="740.1" y1="270.8" x2="740.1" y2="573.3"/>
	<line fill="#FFFFFF" x1="1094.3" y1="740.4" x2="1094.3" y2="804.3"/>
	<rect x="1091.6" y="740.4" fill="#FFFFFF" width="5.5" height="63.9"/>
	<line fill="#FFFFFF" x1="929.8" y1="573.3" x2="929.8" y2="740.4"/>
	<rect x="927.1" y="573.3" fill="#FFFFFF" width="5.5" height="167.1"/>
	<line fill="#FFFFFF" x1="1097" y1="741.1" x2="927.1" y2="741.1"/>
	<rect x="927.1" y="738.4" fill="#FFFFFF" width="170" height="5.5"/>
	<g>
		<g>
			<path fill="#FFFFFF" d="M1062.9,523.4l-1.3-125.7c0,0-0.1-8.6-7.7-8.6h0.1c-7.6,0-7.7,8.6-7.7,8.6l-1.3,125.7H1062.9z"/>
		</g>
		<g>
			<path fill="#2C3B47" d="M927.1,599.6H1153v-62.5c0,0,1.5-8.2-24.2-10.5c0,0-79.8-8.6-200.9-10.2h-1.5
				c-121.1,1.6-200.9,10.2-200.9,10.2c-25.7,2.4-24.2,10.5-24.2,10.5v62.5H927H927.1z"/>
			<path fill="#FFFFFF" d="M1155,601.6H699.1v-64.4c-0.1-0.7,0-2.3,1.5-4.3c3.3-4.4,11.6-7.2,24.6-8.4c0.8-0.1,81.3-8.6,201.1-10.2
				h1.5c119.8,1.6,200.3,10.1,201.1,10.2c13,1.2,21.3,4,24.6,8.4c1.5,1.9,1.5,3.6,1.5,4.3V601.6z M703.2,597.5h447.7v-60.8l0,0
				c0,0-0.6-6.1-22.4-8.1c-0.8-0.1-81.1-8.6-200.7-10.1h-1.5c-119.6,1.6-199.9,10.1-200.7,10.1c-22,2-22.4,8.2-22.4,8.2l0.1,0.3
				l-0.1-0.1V597.5z"/>
		</g>
		<g>
			<path fill="#808080" d="M907.4,546c0,2.4-2,4.4-4.4,4.4l0,0c-2.4,0-4.4-2-4.4-4.4v-27.1h8.8V546z"/>
			<path fill="#FFFFFF" d="M903,551c-2.8,0-5.1-2.3-5.1-5.1v-27.1c0-0.4,0.3-0.7,0.7-0.7h8.8c0.4,0,0.7,0.3,0.7,0.7V546
				C908.1,548.8,905.8,551,903,551z M899.3,519.5V546c0,2,1.7,3.7,3.7,3.7c2,0,3.7-1.7,3.7-3.7v-26.4H899.3z"/>
		</g>
		<g>
			<path fill="#808080" d="M931.5,546c0,2.4-2,4.4-4.4,4.4l0,0c-2.4,0-4.4-2-4.4-4.4v-27.5h8.8V546z"/>
			<path fill="#FFFFFF" d="M927.1,551c-2.8,0-5.1-2.3-5.1-5.1v-27.5c0-0.4,0.3-0.7,0.7-0.7h8.8c0.4,0,0.7,0.3,0.7,0.7V546
				C932.1,548.8,929.9,551,927.1,551z M923.4,519.1V546c0,2,1.7,3.7,3.7,3.7c2,0,3.7-1.7,3.7-3.7v-26.8H923.4z"/>
		</g>
		<g>
			<path fill="#808080" d="M955.5,546c0,2.4-2,4.4-4.4,4.4l0,0c-2.4,0-4.4-2-4.4-4.4v-27.5h8.8V546z"/>
			<path fill="#FFFFFF" d="M951.1,551c-2.8,0-5.1-2.3-5.1-5.1v-27.5c0-0.4,0.3-0.7,0.7-0.7h8.8c0.4,0,0.7,0.3,0.7,0.7V546
				C956.2,548.8,953.9,551,951.1,551z M947.4,519.1V546c0,2,1.7,3.7,3.7,3.7c2,0,3.7-1.7,3.7-3.7v-26.8H947.4z"/>
		</g>
		<g>
			<g>
				<path fill="#FFFFFF" d="M719.7,550.1h23.6v2.6H733v29.8H730v-29.8h-10.3V550.1z"/>
			</g>
			<g>
				<path fill="#FFFFFF" d="M744.8,550.1h3.2l9.8,28.8l9.7-28.8h3.2l-11.2,32.4h-3.4L744.8,550.1z"/>
			</g>
			<g>
				<path fill="#FFFFFF" d="M784.7,569.4v2.8h-11.4v-2.8H784.7z"/>
			</g>
			<g>
				<path fill="#FFFFFF" d="M790.1,582.5v-32.4h3.1V564h19.2v-13.9h3.1v32.4h-3.1v-15.9h-19.2v15.9H790.1z"/>
			</g>
			<g>
				<path fill="#FFFFFF" d="M838,559.1h2.7v23.3H838v-3.2c-0.4,0.4-0.8,0.9-1.2,1.3c-0.5,0.5-1,0.9-1.6,1.2c-0.6,0.4-1.3,0.7-2,0.9
					c-0.8,0.3-1.7,0.4-2.7,0.4c-1.6,0-2.9-0.2-3.9-0.7c-1.1-0.4-1.9-1-2.5-1.8c-0.6-0.8-1.1-1.7-1.4-2.7c-0.3-1-0.4-2.2-0.4-3.4
					v-15.3h2.7v15.3c0,2,0.5,3.5,1.4,4.6c0.9,1.1,2.5,1.6,4.6,1.6c1.1,0,2.1-0.2,3-0.7c0.9-0.4,1.6-1,2.2-1.8
					c0.6-0.8,1.1-1.7,1.4-2.8s0.5-2.3,0.5-3.6V559.1z"/>
			</g>
			<g>
				<path fill="#FFFFFF" d="M850.2,582.5h-2.7v-32.4h2.7v12.8c0.9-1.4,2.1-2.5,3.6-3.3c1.5-0.7,3.1-1.1,4.7-1.1c1.8,0,3.3,0.3,4.6,1
					c1.3,0.7,2.4,1.6,3.2,2.7c0.9,1.1,1.5,2.4,1.9,3.9c0.4,1.5,0.6,3.1,0.6,4.7c0,1.7-0.2,3.3-0.6,4.8c-0.4,1.5-1,2.8-1.9,3.9
					c-0.9,1.1-1.9,2-3.3,2.6c-1.3,0.6-2.9,0.9-4.8,0.9c-0.8,0-1.5-0.1-2.3-0.3c-0.8-0.2-1.5-0.5-2.3-0.9c-0.7-0.4-1.4-0.9-2-1.5
					c-0.6-0.6-1.1-1.3-1.5-2h-0.1V582.5z M850.2,570.7c0,1.4,0.2,2.7,0.5,3.9c0.3,1.2,0.8,2.3,1.5,3.1c0.7,0.9,1.5,1.6,2.5,2.1
					c1,0.5,2.1,0.8,3.4,0.8c1.1,0,2.2-0.2,3.1-0.6c1-0.4,1.8-1,2.5-1.8c0.7-0.8,1.3-1.7,1.7-2.9c0.4-1.1,0.6-2.4,0.6-3.9
					c0.1-1.5-0.1-2.8-0.4-4.1c-0.3-1.3-0.8-2.4-1.4-3.4c-0.7-1-1.5-1.7-2.5-2.3c-1-0.6-2.2-0.8-3.6-0.8c-1.2,0-2.3,0.3-3.3,0.8
					c-1,0.5-1.8,1.2-2.5,2.1c-0.7,0.9-1.2,1.9-1.6,3.1C850.4,568.1,850.2,569.4,850.2,570.7z"/>
			</g>
		</g>
	</g>
	<line fill="#FFFFFF" x1="212.8" y1="740.4" x2="212.8" y2="804.3"/>
	<rect x="210.1" y="740.4" fill="#FFFFFF" width="5.5" height="63.9"/>
	<line fill="#FFFFFF" x1="642.6" y1="299" x2="642.6" y2="740.4"/>
	<rect x="639.8" y="299" fill="#FFFFFF" width="5.5" height="441.4"/>
	<line fill="#FFFFFF" x1="210.1" y1="741.1" x2="645.3" y2="741.1"/>
	<rect x="210.1" y="738.4" fill="#FFFFFF" width="435.2" height="5.5"/>
	<g>
		<g>
			<path fill="#010101" d="M155,829.7v14.7h-3.1V812h12.7c3.6,0,6.3,0.7,8.2,2c1.9,1.3,2.8,3.5,2.8,6.5c0,2-0.4,3.7-1.2,4.9
				c-0.8,1.2-2.2,2.2-4,3.1c1,0.3,1.7,0.8,2.2,1.4c0.5,0.6,0.9,1.4,1.2,2.2c0.3,0.8,0.4,1.7,0.5,2.6c0.1,0.9,0.1,1.8,0.2,2.6
				c0,1.2,0.1,2.2,0.2,3.1c0.1,0.8,0.2,1.5,0.3,2c0.1,0.5,0.2,0.9,0.4,1.2c0.2,0.3,0.3,0.5,0.5,0.7v0.3h-3.4
				c-0.3-0.5-0.6-1.3-0.7-2.2c-0.1-1-0.2-2-0.3-3c-0.1-1-0.1-2.1-0.2-3.1c0-1-0.1-1.8-0.2-2.4c-0.2-0.9-0.5-1.6-0.9-2.1
				s-0.9-0.9-1.5-1.2c-0.6-0.3-1.2-0.5-1.9-0.5c-0.7-0.1-1.4-0.1-2.2-0.1H155z M164.5,827c1.1,0,2.2-0.1,3.2-0.4
				c1-0.2,1.8-0.6,2.5-1.1c0.7-0.5,1.3-1.2,1.7-2c0.4-0.8,0.6-1.8,0.6-2.9c0-1.2-0.2-2.2-0.7-3c-0.4-0.8-1-1.4-1.8-1.8
				c-0.7-0.5-1.6-0.8-2.5-0.9c-0.9-0.2-1.9-0.3-2.9-0.3H155V827H164.5z"/>
			<path fill="#010101" d="M183.2,833.3c0,1.3,0.2,2.5,0.5,3.6c0.3,1.1,0.8,2.1,1.5,2.9c0.6,0.8,1.5,1.5,2.5,2
				c1,0.5,2.1,0.7,3.4,0.7c1.8,0,3.3-0.5,4.5-1.4c1.3-0.9,2.1-2.2,2.5-4h3c-0.3,1.1-0.8,2.1-1.3,3.1c-0.5,0.9-1.2,1.8-2,2.5
				c-0.8,0.7-1.8,1.3-2.9,1.6c-1.1,0.4-2.4,0.6-3.9,0.6c-1.9,0-3.5-0.3-4.8-0.9c-1.3-0.6-2.5-1.5-3.3-2.6c-0.9-1.1-1.5-2.4-1.9-3.9
				c-0.4-1.5-0.6-3.1-0.6-4.8s0.2-3.3,0.7-4.8c0.5-1.5,1.2-2.8,2.1-3.9c0.9-1.1,2-2,3.4-2.7c1.3-0.6,2.8-1,4.5-1
				c3.2,0,5.7,1.1,7.6,3.3c1.8,2.2,2.7,5.4,2.7,9.6H183.2z M198.4,831.1c0-1.1-0.2-2.2-0.5-3.2c-0.3-1-0.8-1.9-1.4-2.6
				c-0.6-0.7-1.4-1.3-2.3-1.8c-0.9-0.4-2-0.7-3.2-0.7c-1.2,0-2.3,0.2-3.2,0.7c-0.9,0.5-1.7,1.1-2.3,1.8c-0.6,0.8-1.2,1.6-1.6,2.6
				c-0.4,1-0.6,2-0.8,3.1H198.4z"/>
			<path fill="#010101" d="M223.1,828.4c-0.5-1.7-1.3-3.1-2.5-4.1c-1.2-1-2.7-1.5-4.5-1.5c-1.4,0-2.6,0.3-3.6,0.9
				c-1,0.6-1.8,1.3-2.4,2.3c-0.6,0.9-1.1,2-1.4,3.2c-0.3,1.2-0.5,2.4-0.5,3.6c0,1.2,0.1,2.4,0.4,3.6c0.3,1.2,0.7,2.2,1.4,3.1
				c0.6,0.9,1.4,1.7,2.4,2.2c1,0.6,2.2,0.8,3.6,0.8c2,0,3.6-0.6,4.8-1.7c1.2-1.1,2-2.6,2.3-4.6h2.9c-0.2,1.3-0.6,2.5-1.1,3.5
				c-0.5,1.1-1.2,2-2,2.7c-0.8,0.8-1.8,1.4-2.9,1.8c-1.1,0.4-2.4,0.6-3.9,0.6c-1.9,0-3.5-0.3-4.8-0.9c-1.3-0.6-2.5-1.5-3.3-2.6
				c-0.9-1.1-1.5-2.4-1.9-3.9c-0.4-1.5-0.6-3.1-0.6-4.8c0-1.6,0.2-3.2,0.7-4.7c0.5-1.5,1.1-2.8,2-3.9c0.9-1.1,2-2,3.4-2.7
				c1.3-0.7,2.9-1,4.6-1c2.7,0,4.9,0.6,6.5,1.9c1.7,1.3,2.7,3.3,3.1,6H223.1z"/>
			<path fill="#010101" d="M233.2,833.3c0,1.3,0.2,2.5,0.5,3.6c0.3,1.1,0.8,2.1,1.5,2.9c0.6,0.8,1.5,1.5,2.5,2
				c1,0.5,2.1,0.7,3.4,0.7c1.8,0,3.3-0.5,4.5-1.4c1.3-0.9,2.1-2.2,2.5-4h3c-0.3,1.1-0.8,2.1-1.3,3.1c-0.5,0.9-1.2,1.8-2,2.5
				c-0.8,0.7-1.8,1.3-2.9,1.6c-1.1,0.4-2.4,0.6-3.9,0.6c-1.9,0-3.5-0.3-4.8-0.9c-1.3-0.6-2.5-1.5-3.3-2.6c-0.9-1.1-1.5-2.4-1.9-3.9
				c-0.4-1.5-0.6-3.1-0.6-4.8s0.2-3.3,0.7-4.8c0.5-1.5,1.2-2.8,2.1-3.9s2-2,3.4-2.7c1.3-0.6,2.8-1,4.5-1c3.2,0,5.7,1.1,7.6,3.3
				c1.8,2.2,2.7,5.4,2.7,9.6H233.2z M248.5,831.1c0-1.1-0.2-2.2-0.5-3.2c-0.3-1-0.8-1.9-1.4-2.6c-0.6-0.7-1.4-1.3-2.3-1.8
				c-0.9-0.4-2-0.7-3.2-0.7c-1.2,0-2.3,0.2-3.2,0.7c-0.9,0.5-1.7,1.1-2.3,1.8c-0.6,0.8-1.2,1.6-1.6,2.6c-0.4,1-0.6,2-0.8,3.1H248.5z
				"/>
			<path fill="#010101" d="M256.9,816v-4h3v4H256.9z M257,844.4v-23.3h2.7v23.3H257z"/>
			<path fill="#010101" d="M264.1,821.1h2.9l7.6,20l7.6-20h2.9l-9,23.3h-3L264.1,821.1z"/>
			<path fill="#010101" d="M290.7,833.3c0,1.3,0.2,2.5,0.5,3.6c0.3,1.1,0.8,2.1,1.5,2.9c0.6,0.8,1.5,1.5,2.5,2
				c1,0.5,2.1,0.7,3.4,0.7c1.8,0,3.3-0.5,4.5-1.4c1.3-0.9,2.1-2.2,2.5-4h3c-0.3,1.1-0.8,2.1-1.3,3.1c-0.5,0.9-1.2,1.8-2,2.5
				c-0.8,0.7-1.8,1.3-2.9,1.6c-1.1,0.4-2.4,0.6-3.9,0.6c-1.9,0-3.5-0.3-4.8-0.9c-1.3-0.6-2.5-1.5-3.3-2.6c-0.9-1.1-1.5-2.4-1.9-3.9
				c-0.4-1.5-0.6-3.1-0.6-4.8s0.2-3.3,0.7-4.8c0.5-1.5,1.2-2.8,2.1-3.9s2-2,3.4-2.7c1.3-0.6,2.8-1,4.5-1c3.2,0,5.7,1.1,7.6,3.3
				c1.8,2.2,2.7,5.4,2.7,9.6H290.7z M306,831.1c0-1.1-0.2-2.2-0.5-3.2c-0.3-1-0.8-1.9-1.4-2.6c-0.6-0.7-1.4-1.3-2.3-1.8
				s-2-0.7-3.2-0.7s-2.3,0.2-3.2,0.7c-0.9,0.5-1.7,1.1-2.3,1.8c-0.6,0.8-1.2,1.6-1.6,2.6c-0.4,1-0.6,2-0.8,3.1H306z"/>
			<path fill="#010101" d="M316.9,844.4h-2.7v-23.3h2.7v4.4h0.1c0.7-1.9,1.7-3.2,2.9-3.9c1.2-0.7,2.8-1.1,4.7-1.1v2.9
				c-1.5,0-2.8,0.2-3.8,0.7c-1,0.5-1.8,1.2-2.4,2.1c-0.6,0.9-1,1.9-1.2,3.1c-0.2,1.2-0.3,2.4-0.3,3.7V844.4z"/>
		</g>
	</g>
	<path fill="none" stroke="#231F20" stroke-linecap="round" stroke-linejoin="round" d="M389,788.4c0,0-22.5,64.7-35.8,82.6"/>
	<path fill="#FFFFFF" stroke="#231F20" stroke-width="0.5" stroke-linecap="round" stroke-linejoin="round" d="M406.4,832.8
		c0,2.5-2.7,4.6-6,4.6c-3.3,0-6-2-6-4.6c0-2.5,2.7-4.5,6-4.5C403.7,828.3,406.4,830.3,406.4,832.8z"/>
	<path fill="#FFFFFF" stroke="#231F20" stroke-width="0.5" stroke-linecap="round" stroke-linejoin="round" d="M436.5,832.8
		c0-2.5,2.7-4.5,6-4.5c3.3,0,6,2,6,4.5c0,2.5-2.7,4.6-6,4.6C439.2,837.4,436.5,835.4,436.5,832.8z"/>
	<path fill="#FFFFFF" stroke="#231F20" stroke-width="0.5" stroke-linecap="round" stroke-linejoin="round" d="M422.5,822.2
		c-2.5,0-4.5-2.7-4.5-6c0-3.3,2-6,4.5-6c2.5,0,4.5,2.7,4.5,6C427,819.6,425,822.2,422.5,822.2z"/>
	<path fill="#FFFFFF" stroke="#231F20" stroke-width="0.5" stroke-linecap="round" stroke-linejoin="round" d="M421.5,844.4
		c2.5,0,4.5,2.7,4.5,6s-2,6-4.5,6c-2.5,0-4.5-2.7-4.5-6S419,844.4,421.5,844.4z"/>
	<path fill="#FFFFFF" stroke="#231F20" stroke-width="0.5" stroke-linecap="round" stroke-linejoin="round" d="M428.2,833.7
		c0,3.6-2.9,6.5-6.5,6.5c-3.6,0-6.5-2.9-6.5-6.5c0-3.6,2.9-6.5,6.5-6.5C425.3,827.2,428.2,830.1,428.2,833.7z"/>
	<line fill="#FFFFFF" x1="212.8" y1="561.5" x2="212.8" y2="625.4"/>
	<rect x="210.1" y="561.5" fill="#FFFFFF" width="5.5" height="63.9"/>
	<line fill="#FFFFFF" x1="210.1" y1="562.2" x2="645.3" y2="562.2"/>
	<rect x="210.1" y="559.5" fill="#FFFFFF" width="435.2" height="5.5"/>
	<g>
		<g>
			<path fill="#010101" d="M155,650.8v14.7h-3.1v-32.4h12.7c3.6,0,6.3,0.7,8.2,2c1.9,1.3,2.8,3.5,2.8,6.5c0,2-0.4,3.7-1.2,4.9
				c-0.8,1.2-2.2,2.2-4,3.1c1,0.3,1.7,0.8,2.2,1.4c0.5,0.6,0.9,1.4,1.2,2.2c0.3,0.8,0.4,1.7,0.5,2.6c0.1,0.9,0.1,1.8,0.2,2.6
				c0,1.2,0.1,2.2,0.2,3.1c0.1,0.8,0.2,1.5,0.3,2c0.1,0.5,0.2,0.9,0.4,1.2c0.2,0.3,0.3,0.5,0.5,0.7v0.3h-3.4
				c-0.3-0.5-0.6-1.3-0.7-2.2c-0.1-1-0.2-2-0.3-3c-0.1-1-0.1-2.1-0.2-3.1c0-1-0.1-1.8-0.2-2.4c-0.2-0.9-0.5-1.6-0.9-2.1
				c-0.4-0.5-0.9-0.9-1.5-1.2c-0.6-0.3-1.2-0.5-1.9-0.5c-0.7-0.1-1.4-0.1-2.2-0.1H155z M164.5,648.2c1.1,0,2.2-0.1,3.2-0.4
				c1-0.2,1.8-0.6,2.5-1.1c0.7-0.5,1.3-1.2,1.7-2c0.4-0.8,0.6-1.8,0.6-2.9c0-1.2-0.2-2.2-0.7-3c-0.4-0.8-1-1.4-1.8-1.8
				c-0.7-0.5-1.6-0.8-2.5-0.9c-0.9-0.2-1.9-0.3-2.9-0.3H155v12.5H164.5z"/>
			<path fill="#010101" d="M183.2,654.5c0,1.3,0.2,2.5,0.5,3.6c0.3,1.1,0.8,2.1,1.5,2.9c0.6,0.8,1.5,1.5,2.5,2
				c1,0.5,2.1,0.7,3.4,0.7c1.8,0,3.3-0.5,4.5-1.4c1.3-0.9,2.1-2.2,2.5-4h3c-0.3,1.1-0.8,2.1-1.3,3.1c-0.5,0.9-1.2,1.8-2,2.5
				c-0.8,0.7-1.8,1.3-2.9,1.6c-1.1,0.4-2.4,0.6-3.9,0.6c-1.9,0-3.5-0.3-4.8-0.9c-1.3-0.6-2.5-1.5-3.3-2.6c-0.9-1.1-1.5-2.4-1.9-3.9
				c-0.4-1.5-0.6-3.1-0.6-4.8c0-1.7,0.2-3.3,0.7-4.8c0.5-1.5,1.2-2.8,2.1-3.9c0.9-1.1,2-2,3.4-2.7c1.3-0.6,2.8-1,4.5-1
				c3.2,0,5.7,1.1,7.6,3.3c1.8,2.2,2.7,5.4,2.7,9.6H183.2z M198.4,652.2c0-1.1-0.2-2.2-0.5-3.2c-0.3-1-0.8-1.9-1.4-2.6
				c-0.6-0.7-1.4-1.3-2.3-1.8c-0.9-0.4-2-0.7-3.2-0.7c-1.2,0-2.3,0.2-3.2,0.7c-0.9,0.5-1.7,1.1-2.3,1.8c-0.6,0.8-1.2,1.6-1.6,2.6
				c-0.4,1-0.6,2-0.8,3.1H198.4z"/>
			<path fill="#010101" d="M223.1,649.5c-0.5-1.7-1.3-3.1-2.5-4.1c-1.2-1-2.7-1.5-4.5-1.5c-1.4,0-2.6,0.3-3.6,0.9
				c-1,0.6-1.8,1.3-2.4,2.3c-0.6,0.9-1.1,2-1.4,3.2c-0.3,1.2-0.5,2.4-0.5,3.6c0,1.2,0.1,2.4,0.4,3.6c0.3,1.2,0.7,2.2,1.4,3.1
				c0.6,0.9,1.4,1.7,2.4,2.2c1,0.6,2.2,0.8,3.6,0.8c2,0,3.6-0.6,4.8-1.7c1.2-1.1,2-2.6,2.3-4.6h2.9c-0.2,1.3-0.6,2.5-1.1,3.5
				c-0.5,1.1-1.2,2-2,2.7c-0.8,0.8-1.8,1.4-2.9,1.8c-1.1,0.4-2.4,0.6-3.9,0.6c-1.9,0-3.5-0.3-4.8-0.9c-1.3-0.6-2.5-1.5-3.3-2.6
				c-0.9-1.1-1.5-2.4-1.9-3.9c-0.4-1.5-0.6-3.1-0.6-4.8c0-1.6,0.2-3.2,0.7-4.7c0.5-1.5,1.1-2.8,2-3.9c0.9-1.1,2-2,3.4-2.7
				c1.3-0.7,2.9-1,4.6-1c2.7,0,4.9,0.6,6.5,1.9c1.7,1.3,2.7,3.3,3.1,6H223.1z"/>
			<path fill="#010101" d="M233.2,654.5c0,1.3,0.2,2.5,0.5,3.6c0.3,1.1,0.8,2.1,1.5,2.9c0.6,0.8,1.5,1.5,2.5,2
				c1,0.5,2.1,0.7,3.4,0.7c1.8,0,3.3-0.5,4.5-1.4c1.3-0.9,2.1-2.2,2.5-4h3c-0.3,1.1-0.8,2.1-1.3,3.1c-0.5,0.9-1.2,1.8-2,2.5
				c-0.8,0.7-1.8,1.3-2.9,1.6c-1.1,0.4-2.4,0.6-3.9,0.6c-1.9,0-3.5-0.3-4.8-0.9c-1.3-0.6-2.5-1.5-3.3-2.6c-0.9-1.1-1.5-2.4-1.9-3.9
				c-0.4-1.5-0.6-3.1-0.6-4.8c0-1.7,0.2-3.3,0.7-4.8c0.5-1.5,1.2-2.8,2.1-3.9c0.9-1.1,2-2,3.4-2.7c1.3-0.6,2.8-1,4.5-1
				c3.2,0,5.7,1.1,7.6,3.3c1.8,2.2,2.7,5.4,2.7,9.6H233.2z M248.5,652.2c0-1.1-0.2-2.2-0.5-3.2c-0.3-1-0.8-1.9-1.4-2.6
				c-0.6-0.7-1.4-1.3-2.3-1.8c-0.9-0.4-2-0.7-3.2-0.7c-1.2,0-2.3,0.2-3.2,0.7c-0.9,0.5-1.7,1.1-2.3,1.8c-0.6,0.8-1.2,1.6-1.6,2.6
				c-0.4,1-0.6,2-0.8,3.1H248.5z"/>
			<path fill="#010101" d="M256.9,637.1v-4h3v4H256.9z M257,665.5v-23.3h2.7v23.3H257z"/>
			<path fill="#010101" d="M264.1,642.2h2.9l7.6,20l7.6-20h2.9l-9,23.3h-3L264.1,642.2z"/>
			<path fill="#010101" d="M290.7,654.5c0,1.3,0.2,2.5,0.5,3.6c0.3,1.1,0.8,2.1,1.5,2.9c0.6,0.8,1.5,1.5,2.5,2
				c1,0.5,2.1,0.7,3.4,0.7c1.8,0,3.3-0.5,4.5-1.4c1.3-0.9,2.1-2.2,2.5-4h3c-0.3,1.1-0.8,2.1-1.3,3.1c-0.5,0.9-1.2,1.8-2,2.5
				c-0.8,0.7-1.8,1.3-2.9,1.6c-1.1,0.4-2.4,0.6-3.9,0.6c-1.9,0-3.5-0.3-4.8-0.9c-1.3-0.6-2.5-1.5-3.3-2.6c-0.9-1.1-1.5-2.4-1.9-3.9
				c-0.4-1.5-0.6-3.1-0.6-4.8c0-1.7,0.2-3.3,0.7-4.8c0.5-1.5,1.2-2.8,2.1-3.9c0.9-1.1,2-2,3.4-2.7c1.3-0.6,2.8-1,4.5-1
				c3.2,0,5.7,1.1,7.6,3.3c1.8,2.2,2.7,5.4,2.7,9.6H290.7z M306,652.2c0-1.1-0.2-2.2-0.5-3.2c-0.3-1-0.8-1.9-1.4-2.6
				c-0.6-0.7-1.4-1.3-2.3-1.8s-2-0.7-3.2-0.7s-2.3,0.2-3.2,0.7c-0.9,0.5-1.7,1.1-2.3,1.8c-0.6,0.8-1.2,1.6-1.6,2.6
				c-0.4,1-0.6,2-0.8,3.1H306z"/>
			<path fill="#010101" d="M316.9,665.5h-2.7v-23.3h2.7v4.4h0.1c0.7-1.9,1.7-3.2,2.9-3.9c1.2-0.7,2.8-1.1,4.7-1.1v2.9
				c-1.5,0-2.8,0.2-3.8,0.7c-1,0.5-1.8,1.2-2.4,2.1c-0.6,0.9-1,1.9-1.2,3.1c-0.2,1.2-0.3,2.4-0.3,3.7V665.5z"/>
		</g>
	</g>
	<path fill="none" stroke="#231F20" stroke-linecap="round" stroke-linejoin="round" d="M389,609.5c0,0-22.5,64.7-35.8,82.6"/>
	<line fill="none" stroke="#231F20" stroke-linecap="round" stroke-linejoin="round" x1="109.8" y1="686.1" x2="356.7" y2="686.1"/>
	<path fill="#FFFFFF" stroke="#231F20" stroke-width="0.5" stroke-linecap="round" stroke-linejoin="round" d="M406.4,654
		c0,2.5-2.7,4.6-6,4.6c-3.3,0-6-2-6-4.6c0-2.5,2.7-4.5,6-4.5C403.7,649.4,406.4,651.5,406.4,654z"/>
	<path fill="#FFFFFF" stroke="#231F20" stroke-width="0.5" stroke-linecap="round" stroke-linejoin="round" d="M436.5,654
		c0-2.5,2.7-4.5,6-4.5c3.3,0,6,2,6,4.5c0,2.5-2.7,4.6-6,4.6C439.2,658.5,436.5,656.5,436.5,654z"/>
	<path fill="#FFFFFF" stroke="#231F20" stroke-width="0.5" stroke-linecap="round" stroke-linejoin="round" d="M422.5,643.4
		c-2.5,0-4.5-2.7-4.5-6c0-3.3,2-6,4.5-6c2.5,0,4.5,2.7,4.5,6C427,640.7,425,643.4,422.5,643.4z"/>
	<path fill="#FFFFFF" stroke="#231F20" stroke-width="0.5" stroke-linecap="round" stroke-linejoin="round" d="M421.5,665.5
		c2.5,0,4.5,2.7,4.5,6s-2,6-4.5,6c-2.5,0-4.5-2.7-4.5-6S419,665.5,421.5,665.5z"/>
	<path fill="#FFFFFF" stroke="#231F20" stroke-width="0.5" stroke-linecap="round" stroke-linejoin="round" d="M428.2,654.8
		c0,3.6-2.9,6.5-6.5,6.5c-3.6,0-6.5-2.9-6.5-6.5c0-3.6,2.9-6.5,6.5-6.5C425.3,648.3,428.2,651.2,428.2,654.8z"/>
	<line fill="#FFFFFF" x1="212.8" y1="382.6" x2="212.8" y2="446.6"/>
	<rect x="210.1" y="382.6" fill="#FFFFFF" width="5.5" height="63.9"/>
	<line fill="#FFFFFF" x1="210.1" y1="383.4" x2="645.3" y2="383.4"/>
	<rect x="210.1" y="380.6" fill="#FFFFFF" width="435.2" height="5.5"/>
	<g>
		
			<path fill="#808080" stroke="#FFFFFF" stroke-width="0.5" stroke-linecap="round" stroke-linejoin="round" stroke-miterlimit="10" d="
			M234,513.1h225.1c1.7-9.9,4.8-29.2,4.8-36.9c0-10.5-1.9-45.5-1.9-45.5H233.7h-3.3H2.2c0,0-1.9,35-1.9,45.5c0,7.7,3.1,27,4.8,36.9
			h225.1H234z"/>
		<path fill="#3C4855" stroke="#FFFFFF" stroke-miterlimit="10" d="M77.7,431.4c0,0,27.8,64.8,31.8,71h247c0,0,24.5-49.9,32.3-71.3
			L77.7,431.4z"/>
		<g>
			<path fill="#FFFFFF" d="M155,469.2v14.7h-3.1v-32.4h12.7c3.6,0,6.3,0.7,8.2,2c1.9,1.3,2.8,3.5,2.8,6.5c0,2-0.4,3.7-1.2,4.9
				c-0.8,1.2-2.2,2.2-4,3.1c1,0.3,1.7,0.8,2.2,1.4c0.5,0.6,0.9,1.4,1.2,2.2c0.3,0.8,0.4,1.7,0.5,2.6c0.1,0.9,0.1,1.8,0.2,2.6
				c0,1.2,0.1,2.2,0.2,3.1c0.1,0.8,0.2,1.5,0.3,2c0.1,0.5,0.2,0.9,0.4,1.2c0.2,0.3,0.3,0.5,0.5,0.7v0.3h-3.4
				c-0.3-0.5-0.6-1.3-0.7-2.2c-0.1-1-0.2-2-0.3-3c-0.1-1-0.1-2.1-0.2-3.1c0-1-0.1-1.8-0.2-2.4c-0.2-0.9-0.5-1.6-0.9-2.1
				c-0.4-0.5-0.9-0.9-1.5-1.2c-0.6-0.3-1.2-0.5-1.9-0.5c-0.7-0.1-1.4-0.1-2.2-0.1H155z M164.5,466.6c1.1,0,2.2-0.1,3.2-0.4
				c1-0.2,1.8-0.6,2.5-1.1c0.7-0.5,1.3-1.2,1.7-2c0.4-0.8,0.6-1.8,0.6-2.9c0-1.2-0.2-2.2-0.7-3c-0.4-0.8-1-1.4-1.8-1.8
				c-0.7-0.5-1.6-0.8-2.5-0.9c-0.9-0.2-1.9-0.3-2.9-0.3H155v12.5H164.5z"/>
			<path fill="#FFFFFF" d="M183.2,472.9c0,1.3,0.2,2.5,0.5,3.6c0.3,1.1,0.8,2.1,1.5,2.9c0.6,0.8,1.5,1.5,2.5,2
				c1,0.5,2.1,0.7,3.4,0.7c1.8,0,3.3-0.5,4.5-1.4c1.3-0.9,2.1-2.2,2.5-4h3c-0.3,1.1-0.8,2.1-1.3,3.1c-0.5,0.9-1.2,1.8-2,2.5
				c-0.8,0.7-1.8,1.3-2.9,1.6c-1.1,0.4-2.4,0.6-3.9,0.6c-1.9,0-3.5-0.3-4.8-0.9c-1.3-0.6-2.5-1.5-3.3-2.6c-0.9-1.1-1.5-2.4-1.9-3.9
				c-0.4-1.5-0.6-3.1-0.6-4.8s0.2-3.3,0.7-4.8c0.5-1.5,1.2-2.8,2.1-3.9c0.9-1.1,2-2,3.4-2.7c1.3-0.6,2.8-1,4.5-1
				c3.2,0,5.7,1.1,7.6,3.3c1.8,2.2,2.7,5.4,2.7,9.6H183.2z M198.4,470.6c0-1.1-0.2-2.2-0.5-3.2c-0.3-1-0.8-1.9-1.4-2.6
				c-0.6-0.7-1.4-1.3-2.3-1.8c-0.9-0.4-2-0.7-3.2-0.7c-1.2,0-2.3,0.2-3.2,0.7c-0.9,0.5-1.7,1.1-2.3,1.8c-0.6,0.8-1.2,1.6-1.6,2.6
				c-0.4,1-0.6,2-0.8,3.1H198.4z"/>
			<path fill="#FFFFFF" d="M223.1,467.9c-0.5-1.7-1.3-3.1-2.5-4.1c-1.2-1-2.7-1.5-4.5-1.5c-1.4,0-2.6,0.3-3.6,0.9
				c-1,0.6-1.8,1.3-2.4,2.3c-0.6,0.9-1.1,2-1.4,3.2c-0.3,1.2-0.5,2.4-0.5,3.6c0,1.2,0.1,2.4,0.4,3.6c0.3,1.2,0.7,2.2,1.4,3.1
				c0.6,0.9,1.4,1.7,2.4,2.2c1,0.6,2.2,0.8,3.6,0.8c2,0,3.6-0.6,4.8-1.7c1.2-1.1,2-2.6,2.3-4.6h2.9c-0.2,1.3-0.6,2.5-1.1,3.5
				c-0.5,1.1-1.2,2-2,2.7c-0.8,0.8-1.8,1.4-2.9,1.8c-1.1,0.4-2.4,0.6-3.9,0.6c-1.9,0-3.5-0.3-4.8-0.9c-1.3-0.6-2.5-1.5-3.3-2.6
				c-0.9-1.1-1.5-2.4-1.9-3.9c-0.4-1.5-0.6-3.1-0.6-4.8c0-1.6,0.2-3.2,0.7-4.7c0.5-1.5,1.1-2.8,2-3.9c0.9-1.1,2-2,3.4-2.7
				c1.3-0.7,2.9-1,4.6-1c2.7,0,4.9,0.6,6.5,1.9c1.7,1.3,2.7,3.3,3.1,6H223.1z"/>
			<path fill="#FFFFFF" d="M233.2,472.9c0,1.3,0.2,2.5,0.5,3.6c0.3,1.1,0.8,2.1,1.5,2.9c0.6,0.8,1.5,1.5,2.5,2
				c1,0.5,2.1,0.7,3.4,0.7c1.8,0,3.3-0.5,4.5-1.4c1.3-0.9,2.1-2.2,2.5-4h3c-0.3,1.1-0.8,2.1-1.3,3.1c-0.5,0.9-1.2,1.8-2,2.5
				c-0.8,0.7-1.8,1.3-2.9,1.6c-1.1,0.4-2.4,0.6-3.9,0.6c-1.9,0-3.5-0.3-4.8-0.9c-1.3-0.6-2.5-1.5-3.3-2.6c-0.9-1.1-1.5-2.4-1.9-3.9
				c-0.4-1.5-0.6-3.1-0.6-4.8s0.2-3.3,0.7-4.8c0.5-1.5,1.2-2.8,2.1-3.9s2-2,3.4-2.7c1.3-0.6,2.8-1,4.5-1c3.2,0,5.7,1.1,7.6,3.3
				c1.8,2.2,2.7,5.4,2.7,9.6H233.2z M248.5,470.6c0-1.1-0.2-2.2-0.5-3.2c-0.3-1-0.8-1.9-1.4-2.6c-0.6-0.7-1.4-1.3-2.3-1.8
				c-0.9-0.4-2-0.7-3.2-0.7c-1.2,0-2.3,0.2-3.2,0.7c-0.9,0.5-1.7,1.1-2.3,1.8c-0.6,0.8-1.2,1.6-1.6,2.6c-0.4,1-0.6,2-0.8,3.1H248.5z
				"/>
			<path fill="#FFFFFF" d="M256.9,455.5v-4h3v4H256.9z M257,483.9v-23.3h2.7v23.3H257z"/>
			<path fill="#FFFFFF" d="M264.1,460.6h2.9l7.6,20l7.6-20h2.9l-9,23.3h-3L264.1,460.6z"/>
			<path fill="#FFFFFF" d="M290.7,472.9c0,1.3,0.2,2.5,0.5,3.6c0.3,1.1,0.8,2.1,1.5,2.9c0.6,0.8,1.5,1.5,2.5,2
				c1,0.5,2.1,0.7,3.4,0.7c1.8,0,3.3-0.5,4.5-1.4c1.3-0.9,2.1-2.2,2.5-4h3c-0.3,1.1-0.8,2.1-1.3,3.1c-0.5,0.9-1.2,1.8-2,2.5
				c-0.8,0.7-1.8,1.3-2.9,1.6c-1.1,0.4-2.4,0.6-3.9,0.6c-1.9,0-3.5-0.3-4.8-0.9c-1.3-0.6-2.5-1.5-3.3-2.6c-0.9-1.1-1.5-2.4-1.9-3.9
				c-0.4-1.5-0.6-3.1-0.6-4.8s0.2-3.3,0.7-4.8c0.5-1.5,1.2-2.8,2.1-3.9s2-2,3.4-2.7c1.3-0.6,2.8-1,4.5-1c3.2,0,5.7,1.1,7.6,3.3
				c1.8,2.2,2.7,5.4,2.7,9.6H290.7z M306,470.6c0-1.1-0.2-2.2-0.5-3.2c-0.3-1-0.8-1.9-1.4-2.6c-0.6-0.7-1.4-1.3-2.3-1.8
				s-2-0.7-3.2-0.7s-2.3,0.2-3.2,0.7c-0.9,0.5-1.7,1.1-2.3,1.8c-0.6,0.8-1.2,1.6-1.6,2.6c-0.4,1-0.6,2-0.8,3.1H306z"/>
			<path fill="#FFFFFF" d="M316.9,483.9h-2.7v-23.3h2.7v4.4h0.1c0.7-1.9,1.7-3.2,2.9-3.9c1.2-0.7,2.8-1.1,4.7-1.1v2.9
				c-1.5,0-2.8,0.2-3.8,0.7c-1,0.5-1.8,1.2-2.4,2.1c-0.6,0.9-1,1.9-1.2,3.1c-0.2,1.2-0.3,2.4-0.3,3.7V483.9z"/>
		</g>
		
			<line fill="none" stroke="#231F20" stroke-width="0.5" stroke-linecap="round" stroke-linejoin="round" x1="342" y1="513.3" x2="78.3" y2="513.3"/>
		<path fill="#3C4855" stroke="#FFFFFF" stroke-miterlimit="10" d="M406.4,475.1c0,2.5-2.7,4.6-6,4.6c-3.3,0-6-2-6-4.6
			c0-2.5,2.7-4.5,6-4.5C403.7,470.5,406.4,472.6,406.4,475.1z"/>
		<path fill="#3C4855" stroke="#FFFFFF" stroke-miterlimit="10" d="M436.5,475.1c0-2.5,2.7-4.5,6-4.5c3.3,0,6,2,6,4.5
			c0,2.5-2.7,4.6-6,4.6C439.2,479.6,436.5,477.6,436.5,475.1z"/>
		<path fill="#3C4855" stroke="#FFFFFF" stroke-miterlimit="10" d="M422.5,464.5c-2.5,0-4.5-2.7-4.5-6c0-3.3,2-6,4.5-6
			c2.5,0,4.5,2.7,4.5,6C427,461.8,425,464.5,422.5,464.5z"/>
		<path fill="#3C4855" stroke="#FFFFFF" stroke-miterlimit="10" d="M421.5,486.6c2.5,0,4.5,2.7,4.5,6s-2,6-4.5,6
			c-2.5,0-4.5-2.7-4.5-6S419,486.6,421.5,486.6z"/>
		<path fill="#3C4855" stroke="#FFFFFF" stroke-miterlimit="10" d="M428.2,475.9c0,3.6-2.9,6.5-6.5,6.5c-3.6,0-6.5-2.9-6.5-6.5
			c0-3.6,2.9-6.5,6.5-6.5C425.3,469.5,428.2,472.3,428.2,475.9z"/>
		<path fill="none" stroke="#FFFFFF" stroke-width="3" d="M235.1,513.1h225.1c1.7-9.9,4.8-29.2,4.8-36.9c0-10.5-1.9-45.5-1.9-45.5
			H234.9h-3.3H3.4c0,0-1.9,35-1.9,45.5c0,7.7,3.1,27,4.8,36.9h225.1H235.1z"/>
		<path fill="#3C4855" stroke="#FFFFFF" stroke-miterlimit="10" d="M20.2,489.3c0-1.6,1.8-3,3.9-3h52.5c2.2,0,3.9,1.3,3.9,3v10.2
			c0,1.6-1.8,3-3.9,3H24.1c-2.2,0-3.9-1.3-3.9-3V489.3z"/>
	</g>
	<g>
		
			<path fill="#808080" stroke="#FFFFFF" stroke-width="0.5" stroke-linecap="round" stroke-linejoin="round" stroke-miterlimit="10" d="
			M234,691.9h225.1c1.7-9.9,4.8-29.2,4.8-36.9c0-10.5-1.9-45.5-1.9-45.5H233.7h-3.3H2.2c0,0-1.9,35-1.9,45.5c0,7.7,3.1,27,4.8,36.9
			h225.1H234z"/>
		<path fill="#3C4855" stroke="#FFFFFF" stroke-miterlimit="10" d="M77.7,610.2c0,0,27.8,64.8,31.8,71h247c0,0,24.5-49.9,32.3-71.3
			L77.7,610.2z"/>
		<g>
			<path fill="#FFFFFF" d="M155,647.9v14.7h-3.1v-32.4h12.7c3.6,0,6.3,0.7,8.2,2c1.9,1.3,2.8,3.5,2.8,6.5c0,2-0.4,3.7-1.2,4.9
				c-0.8,1.2-2.2,2.2-4,3.1c1,0.3,1.7,0.8,2.2,1.4c0.5,0.6,0.9,1.4,1.2,2.2c0.3,0.8,0.4,1.7,0.5,2.6c0.1,0.9,0.1,1.8,0.2,2.6
				c0,1.2,0.1,2.2,0.2,3.1c0.1,0.8,0.2,1.5,0.3,2c0.1,0.5,0.2,0.9,0.4,1.2c0.2,0.3,0.3,0.5,0.5,0.7v0.3h-3.4
				c-0.3-0.5-0.6-1.3-0.7-2.2c-0.1-1-0.2-2-0.3-3c-0.1-1-0.1-2.1-0.2-3.1c0-1-0.1-1.8-0.2-2.4c-0.2-0.9-0.5-1.6-0.9-2.1
				c-0.4-0.5-0.9-0.9-1.5-1.2c-0.6-0.3-1.2-0.5-1.9-0.5c-0.7-0.1-1.4-0.1-2.2-0.1H155z M164.5,645.3c1.1,0,2.2-0.1,3.2-0.4
				c1-0.2,1.8-0.6,2.5-1.1c0.7-0.5,1.3-1.2,1.7-2c0.4-0.8,0.6-1.8,0.6-2.9c0-1.2-0.2-2.2-0.7-3c-0.4-0.8-1-1.4-1.8-1.8
				c-0.7-0.5-1.6-0.8-2.5-0.9c-0.9-0.2-1.9-0.3-2.9-0.3H155v12.5H164.5z"/>
			<path fill="#FFFFFF" d="M183.2,651.6c0,1.3,0.2,2.5,0.5,3.6c0.3,1.1,0.8,2.1,1.5,2.9c0.6,0.8,1.5,1.5,2.5,2
				c1,0.5,2.1,0.7,3.4,0.7c1.8,0,3.3-0.5,4.5-1.4c1.3-0.9,2.1-2.2,2.5-4h3c-0.3,1.1-0.8,2.1-1.3,3.1c-0.5,0.9-1.2,1.8-2,2.5
				c-0.8,0.7-1.8,1.3-2.9,1.6c-1.1,0.4-2.4,0.6-3.9,0.6c-1.9,0-3.5-0.3-4.8-0.9c-1.3-0.6-2.5-1.5-3.3-2.6c-0.9-1.1-1.5-2.4-1.9-3.9
				c-0.4-1.5-0.6-3.1-0.6-4.8c0-1.7,0.2-3.3,0.7-4.8c0.5-1.5,1.2-2.8,2.1-3.9c0.9-1.1,2-2,3.4-2.7c1.3-0.6,2.8-1,4.5-1
				c3.2,0,5.7,1.1,7.6,3.3c1.8,2.2,2.7,5.4,2.7,9.6H183.2z M198.4,649.4c0-1.1-0.2-2.2-0.5-3.2c-0.3-1-0.8-1.9-1.4-2.6
				c-0.6-0.7-1.4-1.3-2.3-1.8c-0.9-0.4-2-0.7-3.2-0.7c-1.2,0-2.3,0.2-3.2,0.7c-0.9,0.5-1.7,1.1-2.3,1.8c-0.6,0.8-1.2,1.6-1.6,2.6
				c-0.4,1-0.6,2-0.8,3.1H198.4z"/>
			<path fill="#FFFFFF" d="M223.1,646.7c-0.5-1.7-1.3-3.1-2.5-4.1c-1.2-1-2.7-1.5-4.5-1.5c-1.4,0-2.6,0.3-3.6,0.9
				c-1,0.6-1.8,1.3-2.4,2.3c-0.6,0.9-1.1,2-1.4,3.2c-0.3,1.2-0.5,2.4-0.5,3.6c0,1.2,0.1,2.4,0.4,3.6c0.3,1.2,0.7,2.2,1.4,3.1
				c0.6,0.9,1.4,1.7,2.4,2.2c1,0.6,2.2,0.8,3.6,0.8c2,0,3.6-0.6,4.8-1.7c1.2-1.1,2-2.6,2.3-4.6h2.9c-0.2,1.3-0.6,2.5-1.1,3.5
				c-0.5,1.1-1.2,2-2,2.7c-0.8,0.8-1.8,1.4-2.9,1.8c-1.1,0.4-2.4,0.6-3.9,0.6c-1.9,0-3.5-0.3-4.8-0.9c-1.3-0.6-2.5-1.5-3.3-2.6
				c-0.9-1.1-1.5-2.4-1.9-3.9c-0.4-1.5-0.6-3.1-0.6-4.8c0-1.6,0.2-3.2,0.7-4.7c0.5-1.5,1.1-2.8,2-3.9c0.9-1.1,2-2,3.4-2.7
				c1.3-0.7,2.9-1,4.6-1c2.7,0,4.9,0.6,6.5,1.9c1.7,1.3,2.7,3.3,3.1,6H223.1z"/>
			<path fill="#FFFFFF" d="M233.2,651.6c0,1.3,0.2,2.5,0.5,3.6c0.3,1.1,0.8,2.1,1.5,2.9c0.6,0.8,1.5,1.5,2.5,2
				c1,0.5,2.1,0.7,3.4,0.7c1.8,0,3.3-0.5,4.5-1.4c1.3-0.9,2.1-2.2,2.5-4h3c-0.3,1.1-0.8,2.1-1.3,3.1c-0.5,0.9-1.2,1.8-2,2.5
				c-0.8,0.7-1.8,1.3-2.9,1.6c-1.1,0.4-2.4,0.6-3.9,0.6c-1.9,0-3.5-0.3-4.8-0.9c-1.3-0.6-2.5-1.5-3.3-2.6c-0.9-1.1-1.5-2.4-1.9-3.9
				c-0.4-1.5-0.6-3.1-0.6-4.8c0-1.7,0.2-3.3,0.7-4.8c0.5-1.5,1.2-2.8,2.1-3.9c0.9-1.1,2-2,3.4-2.7c1.3-0.6,2.8-1,4.5-1
				c3.2,0,5.7,1.1,7.6,3.3c1.8,2.2,2.7,5.4,2.7,9.6H233.2z M248.5,649.4c0-1.1-0.2-2.2-0.5-3.2c-0.3-1-0.8-1.9-1.4-2.6
				c-0.6-0.7-1.4-1.3-2.3-1.8c-0.9-0.4-2-0.7-3.2-0.7c-1.2,0-2.3,0.2-3.2,0.7c-0.9,0.5-1.7,1.1-2.3,1.8c-0.6,0.8-1.2,1.6-1.6,2.6
				c-0.4,1-0.6,2-0.8,3.1H248.5z"/>
			<path fill="#FFFFFF" d="M256.9,634.3v-4h3v4H256.9z M257,662.7v-23.3h2.7v23.3H257z"/>
			<path fill="#FFFFFF" d="M264.1,639.4h2.9l7.6,20l7.6-20h2.9l-9,23.3h-3L264.1,639.4z"/>
			<path fill="#FFFFFF" d="M290.7,651.6c0,1.3,0.2,2.5,0.5,3.6c0.3,1.1,0.8,2.1,1.5,2.9c0.6,0.8,1.5,1.5,2.5,2
				c1,0.5,2.1,0.7,3.4,0.7c1.8,0,3.3-0.5,4.5-1.4c1.3-0.9,2.1-2.2,2.5-4h3c-0.3,1.1-0.8,2.1-1.3,3.1c-0.5,0.9-1.2,1.8-2,2.5
				c-0.8,0.7-1.8,1.3-2.9,1.6c-1.1,0.4-2.4,0.6-3.9,0.6c-1.9,0-3.5-0.3-4.8-0.9c-1.3-0.6-2.5-1.5-3.3-2.6c-0.9-1.1-1.5-2.4-1.9-3.9
				c-0.4-1.5-0.6-3.1-0.6-4.8c0-1.7,0.2-3.3,0.7-4.8c0.5-1.5,1.2-2.8,2.1-3.9c0.9-1.1,2-2,3.4-2.7c1.3-0.6,2.8-1,4.5-1
				c3.2,0,5.7,1.1,7.6,3.3c1.8,2.2,2.7,5.4,2.7,9.6H290.7z M306,649.4c0-1.1-0.2-2.2-0.5-3.2c-0.3-1-0.8-1.9-1.4-2.6
				c-0.6-0.7-1.4-1.3-2.3-1.8s-2-0.7-3.2-0.7s-2.3,0.2-3.2,0.7c-0.9,0.5-1.7,1.1-2.3,1.8c-0.6,0.8-1.2,1.6-1.6,2.6
				c-0.4,1-0.6,2-0.8,3.1H306z"/>
			<path fill="#FFFFFF" d="M316.9,662.7h-2.7v-23.3h2.7v4.4h0.1c0.7-1.9,1.7-3.2,2.9-3.9c1.2-0.7,2.8-1.1,4.7-1.1v2.9
				c-1.5,0-2.8,0.2-3.8,0.7c-1,0.5-1.8,1.2-2.4,2.1c-0.6,0.9-1,1.9-1.2,3.1c-0.2,1.2-0.3,2.4-0.3,3.7V662.7z"/>
		</g>
		
			<line fill="none" stroke="#231F20" stroke-width="0.5" stroke-linecap="round" stroke-linejoin="round" x1="342" y1="692.1" x2="78.3" y2="692.1"/>
		<path fill="#3C4855" stroke="#FFFFFF" stroke-miterlimit="10" d="M406.4,653.8c0,2.5-2.7,4.6-6,4.6c-3.3,0-6-2-6-4.6
			c0-2.5,2.7-4.5,6-4.5C403.7,649.3,406.4,651.4,406.4,653.8z"/>
		<path fill="#3C4855" stroke="#FFFFFF" stroke-miterlimit="10" d="M436.5,653.8c0-2.5,2.7-4.5,6-4.5c3.3,0,6,2,6,4.5
			c0,2.5-2.7,4.6-6,4.6C439.2,658.4,436.5,656.4,436.5,653.8z"/>
		<path fill="#3C4855" stroke="#FFFFFF" stroke-miterlimit="10" d="M422.5,643.3c-2.5,0-4.5-2.7-4.5-6c0-3.3,2-6,4.5-6
			c2.5,0,4.5,2.7,4.5,6C427,640.6,425,643.3,422.5,643.3z"/>
		<path fill="#3C4855" stroke="#FFFFFF" stroke-miterlimit="10" d="M421.5,665.4c2.5,0,4.5,2.7,4.5,6c0,3.3-2,6-4.5,6
			c-2.5,0-4.5-2.7-4.5-6C417,668.1,419,665.4,421.5,665.4z"/>
		<path fill="#3C4855" stroke="#FFFFFF" stroke-miterlimit="10" d="M428.2,654.7c0,3.6-2.9,6.5-6.5,6.5c-3.6,0-6.5-2.9-6.5-6.5
			c0-3.6,2.9-6.5,6.5-6.5C425.3,648.2,428.2,651.1,428.2,654.7z"/>
		<path fill="none" stroke="#FFFFFF" stroke-width="3" d="M235.1,691.9h225.1c1.7-9.9,4.8-29.2,4.8-36.9c0-10.5-1.9-45.5-1.9-45.5
			H234.9h-3.3H3.4c0,0-1.9,35-1.9,45.5c0,7.7,3.1,27,4.8,36.9h225.1H235.1z"/>
		<path fill="#3C4855" stroke="#FFFFFF" stroke-miterlimit="10" d="M20.2,668.1c0-1.6,1.8-3,3.9-3h52.5c2.2,0,3.9,1.3,3.9,3v10.2
			c0,1.6-1.8,3-3.9,3H24.1c-2.2,0-3.9-1.3-3.9-3V668.1z"/>
	</g>
	<g>
		
			<path fill="#808080" stroke="#FFFFFF" stroke-width="0.5" stroke-linecap="round" stroke-linejoin="round" stroke-miterlimit="10" d="
			M234,871h225.1c1.7-9.9,4.8-29.2,4.8-36.9c0-10.5-1.9-45.5-1.9-45.5H233.7h-3.3H2.2c0,0-1.9,35-1.9,45.5c0,7.7,3.1,27,4.8,36.9
			h225.1H234z"/>
		<path fill="#3C4855" stroke="#FFFFFF" stroke-miterlimit="10" d="M77.7,789.3c0,0,27.8,64.8,31.8,71h247c0,0,24.5-49.9,32.3-71.3
			L77.7,789.3z"/>
		<g>
			<path fill="#FFFFFF" d="M155,827.1v14.7h-3.1v-32.4h12.7c3.6,0,6.3,0.7,8.2,2c1.9,1.3,2.8,3.5,2.8,6.5c0,2-0.4,3.7-1.2,4.9
				c-0.8,1.2-2.2,2.2-4,3.1c1,0.3,1.7,0.8,2.2,1.4c0.5,0.6,0.9,1.4,1.2,2.2c0.3,0.8,0.4,1.7,0.5,2.6c0.1,0.9,0.1,1.8,0.2,2.6
				c0,1.2,0.1,2.2,0.2,3.1c0.1,0.8,0.2,1.5,0.3,2c0.1,0.5,0.2,0.9,0.4,1.2c0.2,0.3,0.3,0.5,0.5,0.7v0.3h-3.4
				c-0.3-0.5-0.6-1.3-0.7-2.2c-0.1-1-0.2-2-0.3-3c-0.1-1-0.1-2.1-0.2-3.1c0-1-0.1-1.8-0.2-2.4c-0.2-0.9-0.5-1.6-0.9-2.1
				c-0.4-0.5-0.9-0.9-1.5-1.2c-0.6-0.3-1.2-0.5-1.9-0.5c-0.7-0.1-1.4-0.1-2.2-0.1H155z M164.5,824.5c1.1,0,2.2-0.1,3.2-0.4
				c1-0.2,1.8-0.6,2.5-1.1c0.7-0.5,1.3-1.2,1.7-2c0.4-0.8,0.6-1.8,0.6-2.9c0-1.2-0.2-2.2-0.7-3c-0.4-0.8-1-1.4-1.8-1.8
				c-0.7-0.5-1.6-0.8-2.5-0.9c-0.9-0.2-1.9-0.3-2.9-0.3H155v12.5H164.5z"/>
			<path fill="#FFFFFF" d="M183.2,830.7c0,1.3,0.2,2.5,0.5,3.6c0.3,1.1,0.8,2.1,1.5,2.9c0.6,0.8,1.5,1.5,2.5,2
				c1,0.5,2.1,0.7,3.4,0.7c1.8,0,3.3-0.5,4.5-1.4c1.3-0.9,2.1-2.2,2.5-4h3c-0.3,1.1-0.8,2.1-1.3,3.1c-0.5,0.9-1.2,1.8-2,2.5
				c-0.8,0.7-1.8,1.3-2.9,1.6c-1.1,0.4-2.4,0.6-3.9,0.6c-1.9,0-3.5-0.3-4.8-0.9c-1.3-0.6-2.5-1.5-3.3-2.6c-0.9-1.1-1.5-2.4-1.9-3.9
				c-0.4-1.5-0.6-3.1-0.6-4.8s0.2-3.3,0.7-4.8c0.5-1.5,1.2-2.8,2.1-3.9c0.9-1.1,2-2,3.4-2.7c1.3-0.6,2.8-1,4.5-1
				c3.2,0,5.7,1.1,7.6,3.3c1.8,2.2,2.7,5.4,2.7,9.6H183.2z M198.4,828.5c0-1.1-0.2-2.2-0.5-3.2c-0.3-1-0.8-1.9-1.4-2.6
				c-0.6-0.7-1.4-1.3-2.3-1.8c-0.9-0.4-2-0.7-3.2-0.7c-1.2,0-2.3,0.2-3.2,0.7c-0.9,0.5-1.7,1.1-2.3,1.8c-0.6,0.8-1.2,1.6-1.6,2.6
				c-0.4,1-0.6,2-0.8,3.1H198.4z"/>
			<path fill="#FFFFFF" d="M223.1,825.8c-0.5-1.7-1.3-3.1-2.5-4.1c-1.2-1-2.7-1.5-4.5-1.5c-1.4,0-2.6,0.3-3.6,0.9
				c-1,0.6-1.8,1.3-2.4,2.3c-0.6,0.9-1.1,2-1.4,3.2c-0.3,1.2-0.5,2.4-0.5,3.6c0,1.2,0.1,2.4,0.4,3.6c0.3,1.2,0.7,2.2,1.4,3.1
				c0.6,0.9,1.4,1.7,2.4,2.2c1,0.6,2.2,0.8,3.6,0.8c2,0,3.6-0.6,4.8-1.7c1.2-1.1,2-2.6,2.3-4.6h2.9c-0.2,1.3-0.6,2.5-1.1,3.5
				c-0.5,1.1-1.2,2-2,2.7c-0.8,0.8-1.8,1.4-2.9,1.8c-1.1,0.4-2.4,0.6-3.9,0.6c-1.9,0-3.5-0.3-4.8-0.9c-1.3-0.6-2.5-1.5-3.3-2.6
				c-0.9-1.1-1.5-2.4-1.9-3.9c-0.4-1.5-0.6-3.1-0.6-4.8c0-1.6,0.2-3.2,0.7-4.7c0.5-1.5,1.1-2.8,2-3.9c0.9-1.1,2-2,3.4-2.7
				c1.3-0.7,2.9-1,4.6-1c2.7,0,4.9,0.6,6.5,1.9c1.7,1.3,2.7,3.3,3.1,6H223.1z"/>
			<path fill="#FFFFFF" d="M233.2,830.7c0,1.3,0.2,2.5,0.5,3.6c0.3,1.1,0.8,2.1,1.5,2.9c0.6,0.8,1.5,1.5,2.5,2
				c1,0.5,2.1,0.7,3.4,0.7c1.8,0,3.3-0.5,4.5-1.4c1.3-0.9,2.1-2.2,2.5-4h3c-0.3,1.1-0.8,2.1-1.3,3.1c-0.5,0.9-1.2,1.8-2,2.5
				c-0.8,0.7-1.8,1.3-2.9,1.6c-1.1,0.4-2.4,0.6-3.9,0.6c-1.9,0-3.5-0.3-4.8-0.9c-1.3-0.6-2.5-1.5-3.3-2.6c-0.9-1.1-1.5-2.4-1.9-3.9
				c-0.4-1.5-0.6-3.1-0.6-4.8s0.2-3.3,0.7-4.8c0.5-1.5,1.2-2.8,2.1-3.9s2-2,3.4-2.7c1.3-0.6,2.8-1,4.5-1c3.2,0,5.7,1.1,7.6,3.3
				c1.8,2.2,2.7,5.4,2.7,9.6H233.2z M248.5,828.5c0-1.1-0.2-2.2-0.5-3.2c-0.3-1-0.8-1.9-1.4-2.6c-0.6-0.7-1.4-1.3-2.3-1.8
				c-0.9-0.4-2-0.7-3.2-0.7c-1.2,0-2.3,0.2-3.2,0.7c-0.9,0.5-1.7,1.1-2.3,1.8c-0.6,0.8-1.2,1.6-1.6,2.6c-0.4,1-0.6,2-0.8,3.1H248.5z
				"/>
			<path fill="#FFFFFF" d="M256.9,813.4v-4h3v4H256.9z M257,841.8v-23.3h2.7v23.3H257z"/>
			<path fill="#FFFFFF" d="M264.1,818.5h2.9l7.6,20l7.6-20h2.9l-9,23.3h-3L264.1,818.5z"/>
			<path fill="#FFFFFF" d="M290.7,830.7c0,1.3,0.2,2.5,0.5,3.6c0.3,1.1,0.8,2.1,1.5,2.9c0.6,0.8,1.5,1.5,2.5,2
				c1,0.5,2.1,0.7,3.4,0.7c1.8,0,3.3-0.5,4.5-1.4c1.3-0.9,2.1-2.2,2.5-4h3c-0.3,1.1-0.8,2.1-1.3,3.1c-0.5,0.9-1.2,1.8-2,2.5
				c-0.8,0.7-1.8,1.3-2.9,1.6c-1.1,0.4-2.4,0.6-3.9,0.6c-1.9,0-3.5-0.3-4.8-0.9c-1.3-0.6-2.5-1.5-3.3-2.6c-0.9-1.1-1.5-2.4-1.9-3.9
				c-0.4-1.5-0.6-3.1-0.6-4.8s0.2-3.3,0.7-4.8c0.5-1.5,1.2-2.8,2.1-3.9s2-2,3.4-2.7c1.3-0.6,2.8-1,4.5-1c3.2,0,5.7,1.1,7.6,3.3
				c1.8,2.2,2.7,5.4,2.7,9.6H290.7z M306,828.5c0-1.1-0.2-2.2-0.5-3.2c-0.3-1-0.8-1.9-1.4-2.6c-0.6-0.7-1.4-1.3-2.3-1.8
				s-2-0.7-3.2-0.7s-2.3,0.2-3.2,0.7c-0.9,0.5-1.7,1.1-2.3,1.8c-0.6,0.8-1.2,1.6-1.6,2.6c-0.4,1-0.6,2-0.8,3.1H306z"/>
			<path fill="#FFFFFF" d="M316.9,841.8h-2.7v-23.3h2.7v4.4h0.1c0.7-1.9,1.7-3.2,2.9-3.9c1.2-0.7,2.8-1.1,4.7-1.1v2.9
				c-1.5,0-2.8,0.2-3.8,0.7c-1,0.5-1.8,1.2-2.4,2.1c-0.6,0.9-1,1.9-1.2,3.1c-0.2,1.2-0.3,2.4-0.3,3.7V841.8z"/>
		</g>
		
			<line fill="none" stroke="#231F20" stroke-width="0.5" stroke-linecap="round" stroke-linejoin="round" x1="342" y1="871.2" x2="78.3" y2="871.2"/>
		<path fill="#3C4855" stroke="#FFFFFF" stroke-miterlimit="10" d="M406.4,833c0,2.5-2.7,4.6-6,4.6c-3.3,0-6-2-6-4.6
			c0-2.5,2.7-4.5,6-4.5C403.7,828.4,406.4,830.5,406.4,833z"/>
		<path fill="#3C4855" stroke="#FFFFFF" stroke-miterlimit="10" d="M436.5,833c0-2.5,2.7-4.5,6-4.5c3.3,0,6,2,6,4.5
			c0,2.5-2.7,4.6-6,4.6C439.2,837.5,436.5,835.5,436.5,833z"/>
		<path fill="#3C4855" stroke="#FFFFFF" stroke-miterlimit="10" d="M422.5,822.4c-2.5,0-4.5-2.7-4.5-6c0-3.3,2-6,4.5-6
			c2.5,0,4.5,2.7,4.5,6C427,819.7,425,822.4,422.5,822.4z"/>
		<path fill="#3C4855" stroke="#FFFFFF" stroke-miterlimit="10" d="M421.5,844.5c2.5,0,4.5,2.7,4.5,6c0,3.3-2,6-4.5,6
			c-2.5,0-4.5-2.7-4.5-6C417,847.2,419,844.5,421.5,844.5z"/>
		<path fill="#3C4855" stroke="#FFFFFF" stroke-miterlimit="10" d="M428.2,833.8c0,3.6-2.9,6.5-6.5,6.5c-3.6,0-6.5-2.9-6.5-6.5
			c0-3.6,2.9-6.5,6.5-6.5C425.3,827.3,428.2,830.2,428.2,833.8z"/>
		<path fill="none" stroke="#FFFFFF" stroke-width="3" d="M235.1,871h225.1c1.7-9.9,4.8-29.2,4.8-36.9c0-10.5-1.9-45.5-1.9-45.5
			H234.9h-3.3H3.4c0,0-1.9,35-1.9,45.5c0,7.7,3.1,27,4.8,36.9h225.1H235.1z"/>
		<path fill="#3C4855" stroke="#FFFFFF" stroke-miterlimit="10" d="M20.2,847.2c0-1.6,1.8-3,3.9-3h52.5c2.2,0,3.9,1.3,3.9,3v10.2
			c0,1.6-1.8,3-3.9,3H24.1c-2.2,0-3.9-1.3-3.9-3V847.2z"/>
	</g>
	<g>
		<g>
			<path fill="#808080" d="M1095.6,871h225.1c1.7-9.9,4.8-29.2,4.8-36.9c0-10.5-1.9-45.5-1.9-45.5h-228.3h-3.3H863.8
				c0,0-1.9,35-1.9,45.5c0,7.7,3.1,27,4.8,36.9h225.1H1095.6z"/>
			<path fill="#FFFFFF" d="M1320.7,871.3h-454c-0.2,0-0.3-0.1-0.3-0.3c-3.1-18.6-4.8-31.4-4.8-37c0-10.4,1.9-45.2,1.9-45.5
				c0-0.2,0.2-0.3,0.3-0.3h459.8c0.2,0,0.3,0.1,0.3,0.3c0,0.4,1.9,35.1,1.9,45.5c0,5.6-1.7,18.3-4.8,37
				C1321,871.2,1320.9,871.3,1320.7,871.3z M867,870.7h453.4c3.1-18.4,4.7-31.1,4.7-36.6c0-9.8-1.7-41.6-1.9-45.2H864.1
				c-0.2,3.6-1.9,35.3-1.9,45.2C862.3,839.6,863.9,852.2,867,870.7z"/>
		</g>
		<g>
			<path fill="#3C4855" d="M939.4,789.3c0,0,27.8,64.8,31.8,71h247c0,0,24.5-49.9,32.3-71.3L939.4,789.3z"/>
			<path fill="#FFFFFF" d="M1218.6,861H970.8l-0.2-0.3c-4-6.2-30.7-68.5-31.8-71.1l-0.4-1l313-0.2l-0.3,0.9
				c-7.7,21.1-32.1,70.8-32.3,71.3L1218.6,861z M971.5,859.6h246.2c2.3-4.6,24.1-49.4,31.7-69.9l-309,0.2
				C943.8,797.9,967.3,852.4,971.5,859.6z"/>
		</g>
		<g>
			<g>
				<path fill="#FFFFFF" d="M1016.6,827.1v14.7h-3.1v-32.4h12.7c3.6,0,6.3,0.7,8.2,2c1.9,1.3,2.8,3.5,2.8,6.5c0,2-0.4,3.7-1.2,4.9
					c-0.8,1.2-2.2,2.2-4,3.1c1,0.3,1.7,0.8,2.2,1.4c0.5,0.6,0.9,1.4,1.2,2.2c0.3,0.8,0.4,1.7,0.5,2.6c0.1,0.9,0.1,1.8,0.2,2.6
					c0,1.2,0.1,2.2,0.2,3.1c0.1,0.8,0.2,1.5,0.3,2c0.1,0.5,0.2,0.9,0.4,1.2c0.2,0.3,0.3,0.5,0.5,0.7v0.3h-3.4
					c-0.3-0.5-0.6-1.3-0.7-2.2c-0.1-1-0.2-2-0.3-3c-0.1-1-0.1-2.1-0.2-3.1c0-1-0.1-1.8-0.2-2.4c-0.2-0.9-0.5-1.6-0.9-2.1
					c-0.4-0.5-0.9-0.9-1.5-1.2c-0.6-0.3-1.2-0.5-1.9-0.5c-0.7-0.1-1.4-0.1-2.2-0.1H1016.6z M1026.1,824.5c1.1,0,2.2-0.1,3.2-0.4
					c1-0.2,1.8-0.6,2.5-1.1c0.7-0.5,1.3-1.2,1.7-2c0.4-0.8,0.6-1.8,0.6-2.9c0-1.2-0.2-2.2-0.7-3c-0.4-0.8-1-1.4-1.8-1.8
					c-0.7-0.5-1.6-0.8-2.5-0.9c-0.9-0.2-1.9-0.3-2.9-0.3h-9.7v12.5H1026.1z"/>
			</g>
			<g>
				<path fill="#FFFFFF" d="M1044.8,830.7c0,1.3,0.2,2.5,0.5,3.6c0.3,1.1,0.8,2.1,1.5,2.9c0.6,0.8,1.5,1.5,2.5,2
					c1,0.5,2.1,0.7,3.4,0.7c1.8,0,3.3-0.5,4.5-1.4c1.3-0.9,2.1-2.2,2.5-4h3c-0.3,1.1-0.8,2.1-1.3,3.1c-0.5,0.9-1.2,1.8-2,2.5
					c-0.8,0.7-1.8,1.3-2.9,1.6c-1.1,0.4-2.4,0.6-3.9,0.6c-1.9,0-3.5-0.3-4.8-0.9c-1.3-0.6-2.5-1.5-3.3-2.6c-0.9-1.1-1.5-2.4-1.9-3.9
					c-0.4-1.5-0.6-3.1-0.6-4.8s0.2-3.3,0.7-4.8c0.5-1.5,1.2-2.8,2.1-3.9c0.9-1.1,2-2,3.4-2.7c1.3-0.6,2.8-1,4.5-1
					c3.2,0,5.7,1.1,7.6,3.3c1.8,2.2,2.7,5.4,2.7,9.6H1044.8z M1060,828.5c0-1.1-0.2-2.2-0.5-3.2c-0.3-1-0.8-1.9-1.4-2.6
					c-0.6-0.7-1.4-1.3-2.3-1.8c-0.9-0.4-2-0.7-3.2-0.7c-1.2,0-2.3,0.2-3.2,0.7c-0.9,0.5-1.7,1.1-2.3,1.8c-0.6,0.8-1.2,1.6-1.6,2.6
					c-0.4,1-0.6,2-0.8,3.1H1060z"/>
			</g>
			<g>
				<path fill="#FFFFFF" d="M1084.7,825.8c-0.5-1.7-1.3-3.1-2.5-4.1c-1.2-1-2.7-1.5-4.5-1.5c-1.4,0-2.6,0.3-3.6,0.9
					c-1,0.6-1.8,1.3-2.4,2.3c-0.6,0.9-1.1,2-1.4,3.2c-0.3,1.2-0.5,2.4-0.5,3.6c0,1.2,0.1,2.4,0.4,3.6c0.3,1.2,0.7,2.2,1.4,3.1
					c0.6,0.9,1.4,1.7,2.4,2.2c1,0.6,2.2,0.8,3.6,0.8c2,0,3.6-0.6,4.8-1.7c1.2-1.1,2-2.6,2.3-4.6h2.9c-0.2,1.3-0.6,2.5-1.1,3.5
					c-0.5,1.1-1.2,2-2,2.7c-0.8,0.8-1.8,1.4-2.9,1.8c-1.1,0.4-2.4,0.6-3.9,0.6c-1.9,0-3.5-0.3-4.8-0.9c-1.3-0.6-2.5-1.5-3.3-2.6
					c-0.9-1.1-1.5-2.4-1.9-3.9c-0.4-1.5-0.6-3.1-0.6-4.8c0-1.6,0.2-3.2,0.7-4.7c0.5-1.5,1.1-2.8,2-3.9c0.9-1.1,2-2,3.4-2.7
					c1.3-0.7,2.9-1,4.6-1c2.7,0,4.9,0.6,6.5,1.9c1.7,1.3,2.7,3.3,3.1,6H1084.7z"/>
			</g>
			<g>
				<path fill="#FFFFFF" d="M1094.9,830.7c0,1.3,0.2,2.5,0.5,3.6c0.3,1.1,0.8,2.1,1.5,2.9c0.6,0.8,1.5,1.5,2.5,2
					c1,0.5,2.1,0.7,3.4,0.7c1.8,0,3.3-0.5,4.5-1.4c1.3-0.9,2.1-2.2,2.5-4h3c-0.3,1.1-0.8,2.1-1.3,3.1c-0.5,0.9-1.2,1.8-2,2.5
					c-0.8,0.7-1.8,1.3-2.9,1.6c-1.1,0.4-2.4,0.6-3.9,0.6c-1.9,0-3.5-0.3-4.8-0.9c-1.3-0.6-2.5-1.5-3.3-2.6c-0.9-1.1-1.5-2.4-1.9-3.9
					c-0.4-1.5-0.6-3.1-0.6-4.8s0.2-3.3,0.7-4.8c0.5-1.5,1.2-2.8,2.1-3.9c0.9-1.1,2-2,3.4-2.7c1.3-0.6,2.8-1,4.5-1
					c3.2,0,5.7,1.1,7.6,3.3c1.8,2.2,2.7,5.4,2.7,9.6H1094.9z M1110.1,828.5c0-1.1-0.2-2.2-0.5-3.2c-0.3-1-0.8-1.9-1.4-2.6
					c-0.6-0.7-1.4-1.3-2.3-1.8c-0.9-0.4-2-0.7-3.2-0.7c-1.2,0-2.3,0.2-3.2,0.7c-0.9,0.5-1.7,1.1-2.3,1.8c-0.6,0.8-1.2,1.6-1.6,2.6
					c-0.4,1-0.6,2-0.8,3.1H1110.1z"/>
			</g>
			<g>
				<path fill="#FFFFFF" d="M1118.5,813.4v-4h3v4H1118.5z M1118.6,841.8v-23.3h2.7v23.3H1118.6z"/>
			</g>
			<g>
				<path fill="#FFFFFF" d="M1125.7,818.5h2.9l7.6,20l7.6-20h2.9l-9,23.3h-3L1125.7,818.5z"/>
			</g>
			<g>
				<path fill="#FFFFFF" d="M1152.4,830.7c0,1.3,0.2,2.5,0.5,3.6c0.3,1.1,0.8,2.1,1.5,2.9c0.6,0.8,1.5,1.5,2.5,2
					c1,0.5,2.1,0.7,3.4,0.7c1.8,0,3.3-0.5,4.5-1.4c1.3-0.9,2.1-2.2,2.5-4h3c-0.3,1.1-0.8,2.1-1.3,3.1c-0.5,0.9-1.2,1.8-2,2.5
					c-0.8,0.7-1.8,1.3-2.9,1.6c-1.1,0.4-2.4,0.6-3.9,0.6c-1.9,0-3.5-0.3-4.8-0.9c-1.3-0.6-2.5-1.5-3.3-2.6c-0.9-1.1-1.5-2.4-1.9-3.9
					c-0.4-1.5-0.6-3.1-0.6-4.8s0.2-3.3,0.7-4.8c0.5-1.5,1.2-2.8,2.1-3.9c0.9-1.1,2-2,3.4-2.7c1.3-0.6,2.8-1,4.5-1
					c3.2,0,5.7,1.1,7.6,3.3c1.8,2.2,2.7,5.4,2.7,9.6H1152.4z M1167.6,828.5c0-1.1-0.2-2.2-0.5-3.2c-0.3-1-0.8-1.9-1.4-2.6
					c-0.6-0.7-1.4-1.3-2.3-1.8c-0.9-0.4-2-0.7-3.2-0.7s-2.3,0.2-3.2,0.7c-0.9,0.5-1.7,1.1-2.3,1.8c-0.6,0.8-1.2,1.6-1.6,2.6
					c-0.4,1-0.6,2-0.8,3.1H1167.6z"/>
			</g>
			<g>
				<path fill="#FFFFFF" d="M1178.5,841.8h-2.7v-23.3h2.7v4.4h0.1c0.7-1.9,1.7-3.2,2.9-3.9c1.2-0.7,2.8-1.1,4.7-1.1v2.9
					c-1.5,0-2.8,0.2-3.8,0.7c-1,0.5-1.8,1.2-2.4,2.1c-0.6,0.9-1,1.9-1.2,3.1c-0.2,1.2-0.3,2.4-0.3,3.7V841.8z"/>
			</g>
		</g>
		<g>
			<path fill="#231F20" d="M1203.6,871.6H939.9c-0.2,0-0.3-0.2-0.3-0.3s0.2-0.3,0.3-0.3h263.7c0.2,0,0.3,0.2,0.3,0.3
				S1203.8,871.6,1203.6,871.6z"/>
		</g>
		<g>
			<path fill="#3C4855" d="M1268,833c0,2.5-2.7,4.6-6,4.6c-3.3,0-6-2-6-4.6c0-2.5,2.7-4.5,6-4.5C1265.3,828.4,1268,830.5,1268,833z"
				/>
			<path fill="#FFFFFF" d="M1262,838.2c-3.7,0-6.6-2.4-6.6-5.2c0-2.9,3-5.2,6.6-5.2c3.7,0,6.7,2.3,6.7,5.2
				C1268.7,835.9,1265.7,838.2,1262,838.2z M1262,829.1c-2.9,0-5.3,1.7-5.3,3.9c0,2.1,2.4,3.9,5.3,3.9c2.9,0,5.3-1.7,5.3-3.9
				C1267.3,830.8,1264.9,829.1,1262,829.1z"/>
		</g>
		<g>
			<path fill="#3C4855" d="M1298.1,833c0-2.5,2.7-4.5,6-4.5c3.3,0,6,2,6,4.5c0,2.5-2.7,4.6-6,4.6
				C1300.8,837.5,1298.1,835.5,1298.1,833z"/>
			<path fill="#FFFFFF" d="M1304.1,838.2c-3.7,0-6.7-2.4-6.7-5.2c0-2.9,3-5.2,6.7-5.2c3.7,0,6.6,2.3,6.6,5.2
				C1310.7,835.9,1307.7,838.2,1304.1,838.2z M1304.1,829.1c-2.9,0-5.3,1.7-5.3,3.9c0,2.1,2.4,3.9,5.3,3.9c2.9,0,5.3-1.7,5.3-3.9
				C1309.4,830.8,1307,829.1,1304.1,829.1z"/>
		</g>
		<g>
			<path fill="#3C4855" d="M1284.1,822.4c-2.5,0-4.5-2.7-4.5-6c0-3.3,2-6,4.5-6c2.5,0,4.5,2.7,4.5,6
				C1288.6,819.7,1286.6,822.4,1284.1,822.4z"/>
			<path fill="#FFFFFF" d="M1284.1,823.1c-2.9,0-5.2-3-5.2-6.7c0-3.7,2.3-6.7,5.2-6.7c2.9,0,5.2,3,5.2,6.7
				C1289.3,820.1,1287,823.1,1284.1,823.1z M1284.1,811.1c-2.1,0-3.9,2.4-3.9,5.3c0,2.9,1.7,5.3,3.9,5.3c2.1,0,3.9-2.4,3.9-5.3
				C1288,813.5,1286.2,811.1,1284.1,811.1z"/>
		</g>
		<g>
			<path fill="#3C4855" d="M1283.2,844.5c2.5,0,4.5,2.7,4.5,6c0,3.3-2,6-4.5,6c-2.5,0-4.5-2.7-4.5-6
				C1278.6,847.2,1280.7,844.5,1283.2,844.5z"/>
			<path fill="#FFFFFF" d="M1283.2,857.2c-2.9,0-5.2-3-5.2-6.7c0-3.7,2.3-6.7,5.2-6.7c2.9,0,5.2,3,5.2,6.7
				C1288.4,854.2,1286,857.2,1283.2,857.2z M1283.2,845.2c-2.1,0-3.9,2.4-3.9,5.3c0,2.9,1.7,5.3,3.9,5.3c2.1,0,3.9-2.4,3.9-5.3
				C1287,847.6,1285.3,845.2,1283.2,845.2z"/>
		</g>
		<g>
			<path fill="#3C4855" d="M1289.8,833.8c0,3.6-2.9,6.5-6.5,6.5c-3.6,0-6.5-2.9-6.5-6.5c0-3.6,2.9-6.5,6.5-6.5
				C1286.9,827.3,1289.8,830.2,1289.8,833.8z"/>
			<path fill="#FFFFFF" d="M1283.4,840.9c-3.9,0-7.1-3.2-7.1-7.1s3.2-7.1,7.1-7.1c3.9,0,7.1,3.2,7.1,7.1S1287.3,840.9,1283.4,840.9z
				 M1283.4,828c-3.2,0-5.8,2.6-5.8,5.8c0,3.2,2.6,5.8,5.8,5.8c3.2,0,5.8-2.6,5.8-5.8C1289.1,830.6,1286.5,828,1283.4,828z"/>
		</g>
		<g>
			<path fill="#FFFFFF" d="M1323.6,873.1H866.2l-0.3-1.7c-3.2-19-4.8-31.5-4.8-37.2c0-10.4,1.8-44.2,1.9-45.6l0.1-1.9h463.7l0.1,1.9
				c0.1,1.4,1.9,35.2,1.9,45.6c0,5.7-1.6,18.3-4.8,37.2L1323.6,873.1z M869.6,869h450.5c2.9-17.6,4.5-29.6,4.5-34.9
				c0-8.9-1.4-36-1.8-43.5H866.9c-0.4,7.5-1.8,34.5-1.8,43.5C865.2,839.4,866.7,851.4,869.6,869z"/>
		</g>
		<g>
			<path fill="#3C4855" d="M881.8,847.2c0-1.6,1.8-3,3.9-3h52.5c2.2,0,3.9,1.3,3.9,3v10.2c0,1.6-1.8,3-3.9,3h-52.5
				c-2.2,0-3.9-1.3-3.9-3V847.2z"/>
			<path fill="#FFFFFF" d="M938.2,861h-52.5c-2.5,0-4.6-1.6-4.6-3.7v-10.2c0-2,2.1-3.7,4.6-3.7h52.5c2.5,0,4.6,1.6,4.6,3.7v10.2
				C942.8,859.4,940.8,861,938.2,861z M885.8,844.9c-1.8,0-3.3,1-3.3,2.3v10.2c0,1.3,1.5,2.3,3.3,2.3h52.5c1.8,0,3.3-1,3.3-2.3
				v-10.2c0-1.3-1.5-2.3-3.3-2.3H885.8z"/>
		</g>
	</g>
	<g>
		<path fill="#FFFFFF" d="M798.1,336.5H557.4l-0.3-0.1c-1.1-0.4-26.9-9.5-38.1-36.6l-0.2-0.4V271l4.1-136l0-0.2
			c11.4-55.3,39.5-94.6,83.4-117c33.9-17.3,65.9-17.8,69.5-17.8l0.4,0c0.3,0,1.3-0.1,3-0.1c21,0,126.9,6.5,152.5,134.6l0,0.3
			l4.9,136l0,28.4l-0.2,0.4c-6.5,16-16.5,25.1-23.8,29.9c-7.9,5.3-14.2,6.7-14.5,6.8L798.1,336.5z M558.1,332.4h239.5
			c2.3-0.6,23.9-7,35-33.8V271l-4.9-135.8C802.8,10.4,699.8,4.1,679.3,4.1c-1.8,0-2.8,0.1-2.9,0.1l-0.1,0l-0.5,0
			c-3.4,0-34.5,0.5-67.6,17.3c-42.8,21.8-70.1,60.1-81.2,114L523,271.1l0,27.5C532.9,322.2,555.2,331.3,558.1,332.4z"/>
	</g>
	<g>
		<path fill="#2C3B47" d="M520.9,271.9v28c9.2,24.4,37.2,34.3,37.2,34.3h240.8c23.2-4.8,35.8-34.3,35.8-34.3v-28H520.9z"/>
	</g>
	<g>
		<path d="M834.7,271.3H520.9c-0.2,0-0.3-0.2-0.3-0.3c0-0.2,0.2-0.3,0.3-0.3h313.8c0.2,0,0.3,0.2,0.3,0.3
			C835,271.2,834.9,271.3,834.7,271.3z"/>
	</g>
	<g>
		<path d="M834.7,299.3H520.9c-0.2,0-0.3-0.2-0.3-0.3c0-0.2,0.2-0.3,0.3-0.3h313.8c0.2,0,0.3,0.2,0.3,0.3
			C835,299.1,834.9,299.3,834.7,299.3z"/>
	</g>
	<g>
		<path d="M834.7,300.2H520.9c-0.2,0-0.3-0.2-0.3-0.3v-28c0-0.2,0.2-0.3,0.3-0.3h313.8c0.2,0,0.3,0.2,0.3,0.3v28
			C835,300.1,834.9,300.2,834.7,300.2z M521.3,299.5h313.1v-27.3H521.3V299.5z"/>
	</g>
	<g>
		<path d="M798.9,334.5H558.1c0,0-0.1,0-0.1,0c-0.3-0.1-28.3-10.2-37.4-34.5c0-0.1,0-0.2,0-0.3c0.1-0.1,0.2-0.1,0.3-0.1h313.8
			c0.1,0,0.2,0.1,0.3,0.2c0.1,0.1,0.1,0.2,0,0.3C834.9,300.3,822.1,329.7,798.9,334.5C799,334.5,799,334.5,798.9,334.5z
			 M558.2,333.8h240.7c21.1-4.4,33.5-29.8,35.3-33.6H521.4C530.4,323.4,556.8,333.3,558.2,333.8z"/>
	</g>
	<g>
		<path fill="#FFFFFF" d="M834.7,301H520.9c-1.1,0-2-0.9-2-2c0-1.1,0.9-2,2-2h313.8c1.1,0,2,0.9,2,2
			C836.7,300.1,835.8,301,834.7,301z"/>
	</g>
	<g>
		<path fill="#FFFFFF" d="M834.7,273H520.9c-1.1,0-2-0.9-2-2c0-1.1,0.9-2,2-2h313.8c1.1,0,2,0.9,2,2
			C836.7,272.1,835.8,273,834.7,273z"/>
	</g>
	<g>
		<g>
			<path fill="#FFFFFF" d="M593.1,238.7l12.7-32.4h3.5l12.4,32.4h-3.1l-3.7-10.2h-14.8l-3.8,10.2H593.1z M601.1,225.9h12.7l-6.3-17
				L601.1,225.9z"/>
		</g>
		<g>
			<path fill="#FFFFFF" d="M628.4,238.7h-2.7v-23.3h2.7v3.2c1.1-1.1,2.2-2.1,3.4-2.8c1.2-0.7,2.5-1.1,4.2-1.1c1.4,0,2.8,0.2,4,0.7
				c1.2,0.5,2.3,1.4,3.1,2.6c0.6,0.8,0.9,1.7,1,2.6c0.1,0.9,0.2,1.8,0.2,2.8v15.3h-2.7v-15.2c0-2.1-0.5-3.7-1.4-4.7
				c-0.9-1-2.5-1.6-4.6-1.6c-0.8,0-1.6,0.1-2.3,0.4c-0.7,0.3-1.3,0.6-1.9,1c-0.6,0.4-1,0.9-1.4,1.4c-0.4,0.5-0.7,1.1-0.9,1.7
				c-0.3,0.8-0.4,1.5-0.5,2.2c-0.1,0.7-0.1,1.4-0.1,2.2V238.7z"/>
		</g>
		<g>
			<path fill="#FFFFFF" d="M658.9,238.8c-0.3,0.1-0.8,0.2-1.3,0.3c-0.5,0.2-1.1,0.2-1.8,0.2c-1.4,0-2.4-0.3-3.1-1
				c-0.7-0.7-1.1-1.9-1.1-3.6v-17.1h-3.3v-2.2h3.3v-6.5h2.7v6.5h4.4v2.2h-4.4v16c0,0.6,0,1.1,0,1.5c0,0.4,0.1,0.8,0.3,1
				c0.1,0.3,0.4,0.5,0.7,0.6c0.3,0.1,0.8,0.2,1.3,0.2c0.4,0,0.7,0,1.1-0.1c0.4-0.1,0.7-0.1,1.1-0.2V238.8z"/>
		</g>
		<g>
			<path fill="#FFFFFF" d="M664.9,227.7c0,1.3,0.2,2.5,0.5,3.6c0.3,1.1,0.8,2.1,1.5,2.9c0.6,0.8,1.5,1.5,2.5,2
				c1,0.5,2.1,0.7,3.4,0.7c1.8,0,3.3-0.5,4.5-1.4c1.3-0.9,2.1-2.2,2.5-4h3c-0.3,1.1-0.8,2.1-1.3,3.1c-0.5,0.9-1.2,1.8-2,2.5
				c-0.8,0.7-1.8,1.3-2.9,1.6c-1.1,0.4-2.4,0.6-3.9,0.6c-1.9,0-3.5-0.3-4.8-0.9c-1.3-0.6-2.5-1.5-3.3-2.6c-0.9-1.1-1.5-2.4-1.9-3.9
				c-0.4-1.5-0.6-3.1-0.6-4.8c0-1.7,0.2-3.3,0.7-4.8c0.5-1.5,1.2-2.8,2.1-3.9c0.9-1.1,2-2,3.4-2.7c1.3-0.6,2.8-1,4.5-1
				c3.2,0,5.7,1.1,7.6,3.3c1.8,2.2,2.7,5.4,2.7,9.6H664.9z M680.1,225.4c0-1.1-0.2-2.2-0.5-3.2c-0.3-1-0.8-1.9-1.4-2.6
				c-0.6-0.7-1.4-1.3-2.3-1.8c-0.9-0.4-2-0.7-3.2-0.7s-2.3,0.2-3.2,0.7c-0.9,0.5-1.7,1.1-2.3,1.8c-0.6,0.8-1.2,1.6-1.6,2.6
				c-0.4,1-0.6,2-0.8,3.1H680.1z"/>
		</g>
		<g>
			<path fill="#FFFFFF" d="M690.9,238.7h-2.7v-23.3h2.7v3.2c1.1-1.1,2.2-2.1,3.4-2.8c1.2-0.7,2.5-1.1,4.2-1.1c1.4,0,2.8,0.2,4,0.7
				c1.2,0.5,2.3,1.4,3.1,2.6c0.6,0.8,0.9,1.7,1,2.6c0.1,0.9,0.2,1.8,0.2,2.8v15.3H704v-15.2c0-2.1-0.5-3.7-1.4-4.7
				c-0.9-1-2.5-1.6-4.6-1.6c-0.8,0-1.6,0.1-2.3,0.4c-0.7,0.3-1.3,0.6-1.9,1c-0.6,0.4-1,0.9-1.4,1.4c-0.4,0.5-0.7,1.1-0.9,1.7
				c-0.3,0.8-0.4,1.5-0.5,2.2c-0.1,0.7-0.1,1.4-0.1,2.2V238.7z"/>
		</g>
		<g>
			<path fill="#FFFFFF" d="M716,238.7h-2.7v-23.3h2.7v3.2c1.1-1.1,2.2-2.1,3.4-2.8c1.2-0.7,2.5-1.1,4.2-1.1c1.4,0,2.8,0.2,4,0.7
				c1.2,0.5,2.3,1.4,3.1,2.6c0.6,0.8,0.9,1.7,1,2.6c0.1,0.9,0.2,1.8,0.2,2.8v15.3h-2.7v-15.2c0-2.1-0.5-3.7-1.4-4.7
				c-0.9-1-2.5-1.6-4.6-1.6c-0.8,0-1.6,0.1-2.3,0.4c-0.7,0.3-1.3,0.6-1.9,1c-0.6,0.4-1,0.9-1.4,1.4c-0.4,0.5-0.7,1.1-0.9,1.7
				c-0.3,0.8-0.4,1.5-0.5,2.2c-0.1,0.7-0.1,1.4-0.1,2.2V238.7z"/>
		</g>
		<g>
			<path fill="#FFFFFF" d="M749,225.1c0.5-0.1,1.1-0.1,1.8-0.3c0.7-0.1,1.3-0.3,1.7-0.5c0.5-0.2,0.7-0.6,0.8-1.1
				c0.1-0.5,0.2-1,0.2-1.4c0-1.4-0.4-2.5-1.3-3.4c-0.9-0.9-2.4-1.3-4.5-1.3c-0.9,0-1.8,0.1-2.6,0.2c-0.8,0.2-1.5,0.5-2,0.9
				c-0.6,0.4-1.1,0.9-1.4,1.6c-0.4,0.7-0.6,1.5-0.7,2.5h-2.7c0.1-1.4,0.4-2.6,0.9-3.5c0.5-1,1.2-1.8,2.1-2.4s1.8-1.1,3-1.4
				c1.1-0.3,2.3-0.4,3.6-0.4c1.2,0,2.3,0.1,3.3,0.4c1,0.3,1.9,0.7,2.7,1.2c0.8,0.6,1.4,1.3,1.8,2.2c0.4,0.9,0.7,2.1,0.7,3.4v12.7
				c0,1.1,0.2,1.7,0.6,2c0.4,0.3,1.1,0.2,2.3-0.2v2.1c-0.2,0.1-0.5,0.2-0.9,0.3c-0.4,0.1-0.8,0.2-1.2,0.2c-0.4,0-0.8,0-1.2-0.1
				c-0.5-0.1-0.8-0.2-1.1-0.4c-0.3-0.2-0.5-0.5-0.7-0.8c-0.2-0.3-0.3-0.7-0.3-1c-0.1-0.4-0.1-0.8-0.1-1.2c-1.1,1.3-2.4,2.2-3.9,2.9
				c-1.5,0.7-3.1,1-4.8,1c-1,0-2-0.1-2.9-0.4c-0.9-0.3-1.8-0.7-2.5-1.3c-0.7-0.6-1.3-1.3-1.7-2.1c-0.4-0.8-0.6-1.8-0.6-2.9
				c0-4,2.7-6.3,8.1-7L749,225.1z M753.5,226.5c-1.1,0.5-2.3,0.8-3.5,0.9c-1.2,0.2-2.3,0.3-3.5,0.4c-2.1,0.2-3.7,0.6-4.8,1.4
				c-1.2,0.8-1.7,2-1.7,3.6c0,0.7,0.1,1.3,0.4,1.9c0.3,0.5,0.7,1,1.1,1.3c0.5,0.3,1,0.6,1.6,0.8c0.6,0.2,1.2,0.2,1.9,0.2
				c1.1,0,2.1-0.1,3.1-0.4c1-0.3,1.9-0.7,2.7-1.2c0.8-0.6,1.4-1.3,1.9-2.1c0.5-0.9,0.7-1.9,0.7-3V226.5z"/>
		</g>
	</g>
	<g>
		<path fill="#FFFFFF" d="M797.9,336.5H557.7c-0.2,0-0.4,0-0.7-0.1c-1.1-0.4-26.9-9.5-38.1-36.6c-0.1-0.2-0.2-0.5-0.2-0.8v-28
			l4.1-135.8c0-0.1,0-0.2,0-0.4c11.4-55.3,39.5-94.6,83.4-117c33.9-17.3,65.9-17.8,69.5-17.8l0.4,0c0.3,0,1.3-0.1,3-0.1
			c21,0,126.9,6.5,152.5,134.6c0,0.1,0,0.2,0,0.3l4.9,136l0,28c0,0.3-0.1,0.5-0.2,0.8c-6.5,16-16.5,25.1-23.8,29.9
			c-7.9,5.3-14.2,6.7-14.5,6.8C798.2,336.5,798,336.5,797.9,336.5z M558.1,332.4h239.5c2.3-0.6,23.9-7,35-33.8V271l-4.9-135.8
			C802.8,10.4,699.8,4.1,679.3,4.1c-1.8,0-2.8,0.1-2.9,0.1c-0.1,0-0.1,0-0.2,0l-0.5,0c-3.4,0-34.5,0.5-67.6,17.3
			c-42.8,21.8-70.1,60.1-81.2,114L523,271.1l0,27.5C532.9,322.2,555.2,331.3,558.1,332.4z"/>
	</g>
	<text transform="matrix(1 0 0 1 1230.6869 772.328)" fill="#FFFFFF" font-family="'Helvetica-Light'" font-size="24">* Master</text>
</g>
</svg>
