<?xml version="1.0" encoding="utf-8"?>
<!-- Generator: Adobe Illustrator 17.1.0, SVG Export Plug-In . SVG Version: 6.00 Build 0)  -->
<!DOCTYPE svg PUBLIC "-//W3C//DTD SVG 1.1//EN" "http://www.w3.org/Graphics/SVG/1.1/DTD/svg11.dtd">
<svg version="1.1" id="Layer_1" xmlns="http://www.w3.org/2000/svg" xmlns:xlink="http://www.w3.org/1999/xlink" x="0px" y="0px"
	 viewBox="0 0 800 600" enable-background="new 0 0 800 600" xml:space="preserve">
<polyline fill="none" stroke="#000000" stroke-width="2" stroke-miterlimit="10" points="311.3,377.2 364.5,377.2 364.5,246.2 
	542.1,246.2 542.1,154.8 "/>
<g>
	<polyline fill="none" stroke="#FFFFFF" stroke-width="2" stroke-miterlimit="10" points="149.2,73.6 409,73.6 409,20.6 705.9,20.6 
		705.9,82.4 	"/>
	<g>
		<path fill="#FFFFFF" d="M140.4,99.3H80.5l0,0c-0.3,0-6.8-2.3-9.4-9.1l0,0V83l0.7-33.8l0,0c2.9-13.7,9.8-23.4,20.8-29.3
			c8.5-4.2,16.3-4.6,17.2-4.6l0,0c0,0,0.3,0,0.7,0c5.2,0,31.6,1.6,38.1,33.5l0,0l1.3,33.8v7.2l0,0c-1.6,3.9-4.2,6.2-5.9,7.5
			C142,99,140.4,99.3,140.4,99.3L140.4,99.3z M80.5,98.3h59.5c0.7,0,5.9-1.6,8.8-8.5V83l-1-33.8c-6.5-30.9-31.9-32.5-37.1-32.5
			c-0.3,0-0.7,0-0.7,0l0,0l0,0c-1,0-8.5,0-16.9,4.2c-10.7,5.5-17.6,15-20.2,28.3l-1,33.8v6.8C74.3,95.7,79.9,98,80.5,98.3z"/>
		<path fill="#B5C0C9" d="M71.4,83.3v6.8c2.3,6.2,9.1,8.5,9.1,8.5h59.9c5.9-1.3,8.8-8.5,8.8-8.5v-6.8H71.4z"/>
		<path fill="#FFFFFF" d="M149.5,83.7H71.4c-0.3,0-0.7-0.3-0.7-0.7c0-0.3,0.3-0.7,0.7-0.7h78.1c0.3,0,0.7,0.3,0.7,0.7
			C149.8,83.3,149.8,83.7,149.5,83.7z"/>
		<path fill="#FFFFFF" d="M140.4,99.3H80.5c0,0,0,0-0.3,0s-6.8-2.3-9.4-9.1c0,0,0,0,0-0.3V83l1-33.8l0,0
			c2.9-13.7,9.8-23.4,20.8-29.3c8.5-4.2,16.3-4.6,17.2-4.6l0,0c0,0,0.3,0,0.7,0c5.2,0,31.6,1.6,38.1,33.5l0,0l1.3,33.8v6.8
			c0,0,0,0,0,0.3c-1.6,3.9-4.2,6.2-5.9,7.5C142,99,140.4,99.3,140.4,99.3L140.4,99.3z M80.5,98.3h59.5c0.7,0,5.9-1.6,8.8-8.5V83
			l-1-33.8c-6.5-30.9-31.9-32.5-37.1-32.5c-0.3,0-0.7,0-0.7,0l0,0l0,0c-1,0-8.5,0-16.9,4.2c-10.7,5.5-17.6,15-20.2,28.3l-1,33.8v6.8
			C74.3,95.7,79.9,98,80.5,98.3z"/>
	</g>
	<rect x="52.5" y="117.5" fill="none" width="115.5" height="33.5"/>
	<text transform="matrix(1 0 0 1 61.8845 136.1346)" fill="#FFFFFF" font-family="'Helvetica'" font-size="26.0251">Antenna</text>
	<g>
		<path fill="#FFFFFF" d="M356,60.6l-0.3-37.4c0,0,0-2.6-2.3-2.6l0,0c-2.3,0-2.3,2.6-2.3,2.6l-0.3,37.4H356z"/>
		<path fill="#B5C0C9" d="M316,83h67V64.5c0,0,0.3-2.3-7.2-3.3c0,0-23.7-2.6-59.5-2.9H316c-35.8,0.3-59.5,2.9-59.5,2.9
			c-7.5,0.7-7.2,3.3-7.2,3.3V83L316,83L316,83z"/>
		<path fill="#8A9AA5" d="M310.1,67.1c0,0.7-0.7,1.3-1.3,1.3l0,0c-0.7,0-1.3-0.7-1.3-1.3v-8.1h2.6V67.1z"/>
		<path fill="#8A9AA5" d="M317.3,67.1c0,0.7-0.7,1.3-1.3,1.3l0,0c-0.7,0-1.3-0.7-1.3-1.3v-8.1h2.6V67.1z"/>
		<path fill="#8A9AA5" d="M324.1,67.1c0,0.7-0.7,1.3-1.3,1.3l0,0c-0.7,0-1.3-0.7-1.3-1.3v-8.1h2.6V67.1z"/>
		<path fill="#FFFFFF" d="M383.3,83.7h-135V64.5c0-0.3,0-0.7,0.3-1.3c1-1.3,3.6-2.3,7.2-2.6c0.3,0,24.1-2.6,59.5-2.9h0.3
			c35.5,0.3,59.5,2.9,59.5,2.9c3.9,0.3,6.2,1.3,7.2,2.6c0.3,0.7,0.3,1,0.3,1.3v19.2H383.3z M249.3,82.4H382V64.5l0,0
			c0,0-0.3-2-6.5-2.3c-0.3,0-24.1-2.6-59.5-2.9h-0.3c-35.5,0.3-59.2,2.9-59.5,2.9c-6.5,0.7-6.5,2.3-6.5,2.6l0,0l0,0v17.6H249.3z"/>
	</g>
	<rect x="191.7" y="117.5" fill="none" width="133.7" height="33.5"/>
	<text transform="matrix(1 0 0 1 271.6245 136.1346)" fill="#FFFFFF" font-family="'Helvetica'" font-size="26.0251">TV-Hub</text>
</g>
<g>
	<g>
		<line fill="none" stroke="#000000" stroke-width="2" stroke-miterlimit="10" x1="662.2" y1="166.8" x2="662.2" y2="199.4"/>
		<g>
			<polygon points="656.7,195.2 662.2,197.5 667.8,195.2 662.2,208.3 			"/>
		</g>
	</g>
</g>
<g>
	<g>
		<line fill="none" stroke="#000000" stroke-width="2" stroke-miterlimit="10" x1="692.2" y1="166.8" x2="692.2" y2="199.4"/>
		<g>
			<polygon points="686.6,195.2 692.2,197.5 697.7,195.2 692.2,208.3 			"/>
		</g>
	</g>
</g>
<g>
	<g>
		<line fill="none" stroke="#000000" stroke-width="2" stroke-miterlimit="10" x1="721.8" y1="166.8" x2="721.8" y2="199.4"/>
		<g>
			<polygon points="716.2,195.2 721.8,197.5 727.3,195.2 721.8,208.3 			"/>
		</g>
	</g>
</g>
<line fill="none" stroke="#000000" stroke-width="2" stroke-miterlimit="10" x1="632.6" y1="153.4" x2="632.6" y2="355.9"/>
<polyline fill="none" stroke="#FFFFFF" stroke-width="2" stroke-miterlimit="10" points="71.4,73.6 21.4,73.6 21.4,164.3 
	454.2,164.3 454.2,46.5 647.8,46.5 647.8,88 "/>
<line fill="none" stroke="#FFFFFF" stroke-width="2" stroke-miterlimit="10" x1="531.8" y1="103.6" x2="531.8" y2="46.5"/>
<line fill="none" stroke="#FFFFFF" stroke-width="2" stroke-miterlimit="10" x1="589.5" y1="103.6" x2="589.5" y2="46.5"/>
<text transform="matrix(1 0 0 1 656.1036 237.3862)" fill="#010101" font-family="'Helvetica-Light'" font-size="19.5188">Optional</text>
<g>
	<text transform="matrix(1 0 0 1 663.8318 314.4734)" font-family="'Helvetica-Light'" font-size="19.5188">IP AutoSwitch</text>
	<g>
		<rect x="630.9" y="283.3" fill="#B5C0C9" width="4.9" height="8.5"/>
		<rect x="630.9" y="283.3" fill="none" stroke="#FFFFFF" stroke-width="0.15" stroke-miterlimit="10" width="4.9" height="8.5"/>
		<rect x="630.9" y="324.3" fill="#B5C0C9" width="4.9" height="8.5"/>
		<rect x="630.9" y="324.3" fill="none" stroke="#FFFFFF" stroke-width="0.15" stroke-miterlimit="10" width="4.9" height="8.5"/>
		<path fill="#B5C0C9" d="M645.5,291.7l-1-1.6v-1c0,0-1.3-0.3-2.3-0.3s-2.3,0.3-2.3,0.3v1l-1.3,2.3L645.5,291.7z"/>
		<path fill="#FFFFFF" d="M638,292.7l1.6-2.6v-1h0.3c0,0,1.3-0.3,2.6-0.3c1,0,2.3,0.3,2.6,0.3h0.3v1l1.3,2L638,292.7z M640.3,289.5
			v0.7l-1,1.6l5.9-0.3l-0.7-1.3v-0.7c-0.3,0-1.3-0.3-2-0.3C641.6,289.1,640.6,289.5,640.3,289.5z"/>
		<rect x="625.4" y="292.7" fill="#B5C0C9" width="23.7" height="32.2"/>
		<path fill="#FFFFFF" d="M649.4,325.2H625v-32.9h24.4V325.2z M625.7,324.6h23.1V293h-23.1V324.6z"/>
		<path fill="#B5C0C9" d="M625,293c0,0.3,0.3,0.7,0.7,0.7h23.4c0.3,0,0.7-0.3,0.7-0.7v-1.3c0-0.3-0.3-0.7-0.7-0.7h-23.4
			c-0.3,0-0.7,0.3-0.7,0.7V293z"/>
		<path fill="#FFFFFF" d="M649.1,293.7h-23.4c-0.3,0-1-0.3-1-1v-1.3c0-0.3,0.3-1,1-1h23.4c0.3,0,1,0.3,1,1v1.3
			C649.7,293.4,649.4,293.7,649.1,293.7z M625.7,291.7C625.4,291.7,625.4,291.7,625.7,291.7l-0.3,1.3c0,0,0,0.3,0.3,0.3h23.4
			c0,0,0,0,0-0.3v-1.3l0,0H625.7z"/>
		<path fill="#B5C0C9" d="M625,325.9c0,0.3,0.3,0.7,0.7,0.7h23.4c0.3,0,0.7-0.3,0.7-0.7v-1.3c0-0.3-0.3-0.7-0.7-0.7h-23.4
			c-0.3,0-0.7,0.3-0.7,0.7V325.9z"/>
		<path fill="#FFFFFF" d="M649.1,326.5h-23.4c-0.3,0-1-0.3-1-1v-1.3c0-0.3,0.3-1,1-1h23.4c0.3,0,1,0.3,1,1v1.3
			C649.7,326.2,649.4,326.5,649.1,326.5z M625.7,324.6C625.4,324.6,625.4,324.6,625.7,324.6l-0.3,1.3c0,0,0,0.3,0.3,0.3h23.4
			c0,0,0,0,0-0.3v-1.3l0,0H625.7z"/>
	</g>
</g>
<g>
	<text transform="matrix(4.489659e-11 -1 1 4.489659e-11 408.5873 404.312)" font-family="'Helvetica-Light'" font-size="19.5188">IP AutoSwitch</text>
	<g>
		<rect x="362.5" y="319.1" fill="#B5C0C9" width="4.9" height="8.5"/>
		<rect x="362.5" y="319.1" fill="none" stroke="#FFFFFF" stroke-width="0.15" stroke-miterlimit="10" width="4.9" height="8.5"/>
		<rect x="362.5" y="360.1" fill="#B5C0C9" width="4.9" height="8.5"/>
		<rect x="362.5" y="360.1" fill="none" stroke="#FFFFFF" stroke-width="0.15" stroke-miterlimit="10" width="4.9" height="8.5"/>
		<path fill="#B5C0C9" d="M377.2,327.6l-1-1.6v-1c0,0-1.3-0.3-2.3-0.3s-2.3,0.3-2.3,0.3v1l-1.3,2.3L377.2,327.6z"/>
		<path fill="#FFFFFF" d="M369.7,328.5l1.6-2.6v-1h0.3c0,0,1.3-0.3,2.6-0.3c1,0,2.3,0.3,2.6,0.3h0.3v1l1.3,2L369.7,328.5z
			 M371.9,325.3v0.7l-1,1.6l5.9-0.3l-0.7-1.3v-0.7c-0.3,0-1.3-0.3-2-0.3C373.2,324.9,372.3,325.3,371.9,325.3z"/>
		<rect x="357" y="328.5" fill="#B5C0C9" width="23.7" height="32.2"/>
		<path fill="#FFFFFF" d="M381.1,361.1h-24.4v-32.9h24.4V361.1z M357.3,360.4h23.1v-31.6h-23.1V360.4z"/>
		<path fill="#B5C0C9" d="M356.7,328.9c0,0.3,0.3,0.7,0.7,0.7h23.4c0.3,0,0.7-0.3,0.7-0.7v-1.3c0-0.3-0.3-0.7-0.7-0.7h-23.4
			c-0.3,0-0.7,0.3-0.7,0.7V328.9z"/>
		<path fill="#FFFFFF" d="M380.7,329.5h-23.4c-0.3,0-1-0.3-1-1v-1.3c0-0.3,0.3-1,1-1h23.4c0.3,0,1,0.3,1,1v1.3
			C381.4,329.2,381.1,329.5,380.7,329.5z M357.3,327.6C357,327.6,357,327.6,357.3,327.6l-0.3,1.3c0,0,0,0.3,0.3,0.3h23.4
			c0,0,0,0,0-0.3v-1.3l0,0H357.3z"/>
		<path fill="#B5C0C9" d="M356.7,361.7c0,0.3,0.3,0.7,0.7,0.7h23.4c0.3,0,0.7-0.3,0.7-0.7v-1.3c0-0.3-0.3-0.7-0.7-0.7h-23.4
			c-0.3,0-0.7,0.3-0.7,0.7V361.7z"/>
		<path fill="#FFFFFF" d="M380.7,362.4h-23.4c-0.3,0-1-0.3-1-1v-1.3c0-0.3,0.3-1,1-1h23.4c0.3,0,1,0.3,1,1v1.3
			C381.4,362,381.1,362.4,380.7,362.4z M357.3,360.4C357,360.4,357,360.4,357.3,360.4l-0.3,1.3c0,0,0,0.3,0.3,0.3h23.4
			c0,0,0,0,0-0.3v-1.3l0,0H357.3z"/>
	</g>
</g>
<polyline fill="none" stroke="#000000" stroke-width="2" stroke-miterlimit="10" points="602.8,153.4 602.8,312.1 473.1,312.1 
	473.1,497.8 509.2,497.8 "/>
<g>
	<text transform="matrix(1 0 0 1 470.2735 286.9132)" font-family="'Helvetica-Light'" font-size="19.5188">IP AutoSwitch</text>
	<g>
		<rect x="544" y="310.3" fill="#B5C0C9" width="8.5" height="4.9"/>
		<rect x="544" y="310.3" fill="none" stroke="#FFFFFF" stroke-width="0.15" stroke-miterlimit="10" width="8.5" height="4.9"/>
		<rect x="503.1" y="310.3" fill="#B5C0C9" width="8.5" height="4.9"/>
		<rect x="503.1" y="310.3" fill="none" stroke="#FFFFFF" stroke-width="0.15" stroke-miterlimit="10" width="8.5" height="4.9"/>
		<path fill="#B5C0C9" d="M544,324.9l1.6-1h1c0,0,0.3-1.3,0.3-2.3s-0.3-2.3-0.3-2.3h-1l-2.3-1.3L544,324.9z"/>
		<path fill="#FFFFFF" d="M543.1,317.4l2.6,1.6h1v0.3c0,0,0.3,1.3,0.3,2.6c0,1-0.3,2.3-0.3,2.6v0.3h-1l-2,1.3L543.1,317.4z
			 M546.3,319.7h-0.7l-1.6-1l0.3,5.9l1.3-0.7h0.7c0-0.3,0.3-1.3,0.3-2C546.7,321,546.3,320,546.3,319.7z"/>
		<rect x="510.9" y="304.8" fill="#B5C0C9" width="32.2" height="23.7"/>
		<path fill="#FFFFFF" d="M510.5,328.8v-24.4h32.9v24.4H510.5z M511.2,305.1v23.1h31.6v-23.1H511.2z"/>
		<path fill="#B5C0C9" d="M542.7,304.4c-0.3,0-0.7,0.3-0.7,0.7v23.4c0,0.3,0.3,0.7,0.7,0.7h1.3c0.3,0,0.7-0.3,0.7-0.7v-23.4
			c0-0.3-0.3-0.7-0.7-0.7H542.7z"/>
		<path fill="#FFFFFF" d="M542.1,328.5v-23.4c0-0.3,0.3-1,1-1h1.3c0.3,0,1,0.3,1,1v23.4c0,0.3-0.3,1-1,1h-1.3
			C542.4,329.1,542.1,328.8,542.1,328.5z M544,305.1C544,304.8,544,304.8,544,305.1l-1.3-0.3c0,0-0.3,0-0.3,0.3v23.4c0,0,0,0,0.3,0
			h1.3l0,0V305.1z"/>
		<path fill="#B5C0C9" d="M509.9,304.4c-0.3,0-0.7,0.3-0.7,0.7v23.4c0,0.3,0.3,0.7,0.7,0.7h1.3c0.3,0,0.7-0.3,0.7-0.7v-23.4
			c0-0.3-0.3-0.7-0.7-0.7H509.9z"/>
		<path fill="#FFFFFF" d="M509.2,328.5v-23.4c0-0.3,0.3-1,1-1h1.3c0.3,0,1,0.3,1,1v23.4c0,0.3-0.3,1-1,1h-1.3
			C509.6,329.1,509.2,328.8,509.2,328.5z M511.2,305.1C511.2,304.8,511.2,304.8,511.2,305.1l-1.3-0.3c0,0-0.3,0-0.3,0.3v23.4
			c0,0,0,0,0.3,0h1.3l0,0V305.1z"/>
	</g>
</g>
<g>
	<g>
		<g>
			<path fill="#B5C0C9" d="M648.5,401.6h133.7c1-5.9,2.9-17.2,2.9-21.8c0-6.2-1-27-1-27H648.5h-2H511.2c0,0-1,20.8-1,27
				c0,4.6,2,15.9,2.9,21.8h133.7H648.5z"/>
			<path fill="#B5C0C9" d="M782.2,401.9H512.8c0,0-0.3,0-0.3-0.3c-2-11.1-2.9-18.5-2.9-21.8c0-6.2,1-26.7,1-27c0,0,0-0.3,0.3-0.3
				h272.9c0,0,0.3,0,0.3,0.3c0,0.3,1,20.8,1,27C785.1,383.1,784.1,390.9,782.2,401.9C782.5,401.9,782.2,401.9,782.2,401.9z
				 M512.8,401.6h269c2-11.1,2.9-18.5,2.9-21.8c0-5.9-1-24.7-1-26.7H511.2c0,2.3-1,20.8-1,26.7C510.2,383.1,511.2,390.6,512.8,401.6
				z"/>
			<path fill="#8A9AA5" d="M555.8,353.2c0,0,19.2,43.6,21.5,47.2h141.5c0,0,17.2-34.8,21.8-47.5L555.8,353.2z"/>
			<path fill="#231F20" d="M712.6,401.9H556.1c0,0-0.3,0-0.3-0.3c0-0.3,0-0.3,0.3-0.3h156.5C712.9,401.6,712.9,401.6,712.6,401.9
				C712.9,401.9,712.9,401.9,712.6,401.9z"/>
			<g>
				<g>
					<g>
						<path fill="#8A9AA5" d="M754.5,377.6c0,1.3-2,2.3-4.2,2.3c-2.3,0-4.2-1-4.2-2.3c0-1.3,2-2.3,4.2-2.3
							C752.6,375.3,754.5,376.2,754.5,377.6z"/>
						<path fill="#8A9AA5" d="M778.6,377.2c0,1.3-2,2.3-4.2,2.3c-2.3,0-4.2-1-4.2-2.3s2-2.3,4.2-2.3
							C776.6,375.3,778.6,376.2,778.6,377.2z"/>
					</g>
					<g>
						<path fill="#8A9AA5" d="M762.3,385.4c1.3,0,2.3,2,2.3,4.2c0,2.3-1,4.2-2.3,4.2c-1.3,0-2.3-2-2.3-4.2
							C760.1,387.3,761,385.4,762.3,385.4z"/>
						<path fill="#8A9AA5" d="M762.3,361c1.3,0,2.3,2,2.3,4.2c0,2.3-1,4.2-2.3,4.2c-1.3,0-2.3-2-2.3-4.2
							C760.1,362.9,761,361,762.3,361z"/>
					</g>
				</g>
				<path fill="#8A9AA5" d="M766.9,377.6c0,2.6-2,4.6-4.6,4.6c-2.6,0-4.6-2-4.6-4.6s2-4.6,4.6-4.6
					C764.9,373,766.9,374.9,766.9,377.6z"/>
			</g>
			<path d="M783.8,402.9H512.5l-0.3-1c-2-11.4-2.9-18.5-2.9-22.1c0-6.2,1-26.4,1-27v-1.3h275.5v1.3c0,1,1,20.8,1,27
				c0,3.3-1,10.7-2.9,22.1V402.9z M514.4,400.6h267.4c1.6-10.4,2.6-17.6,2.6-20.8c0-5.2-1-21.5-1-25.7H512.8c-0.3,4.6-1,20.5-1,25.7
				C511.8,383.1,512.8,390.2,514.4,400.6z"/>
			<path fill="#8A9AA5" d="M521.6,387.6c0-1,1-1.6,2.3-1.6h31.2c1.3,0,2.3,0.7,2.3,1.6v6.2c0,1-1,1.6-2.3,1.6h-31.2
				c-1.3,0-2.3-0.7-2.3-1.6V387.6z"/>
		</g>
		<rect x="515.4" y="363.9" fill="none" width="263.8" height="33.5"/>
		<text transform="matrix(1 0 0 1 583.0155 387.2387)" fill="#FFFFFF" font-family="'Helvetica-Light'" font-size="32.5314">Receiver</text>
	</g>
	<rect x="509.2" y="419.5" fill="none" width="277.2" height="26.6"/>
	<text transform="matrix(1 0 0 1 552.3577 438.2034)" fill="#FFFFFF" font-family="'Helvetica'" font-size="26.0251">Can Be Master *</text>
</g>
<g>
	<g>
		<g>
			<path fill="#B5C0C9" d="M648.5,519.9h133.7c1-5.9,2.9-17.2,2.9-21.8c0-6.2-1-27-1-27H648.5h-2H511.2c0,0-1,20.8-1,27
				c0,4.6,2,15.9,2.9,21.8h133.7H648.5z"/>
			<path fill="#B5C0C9" d="M782.2,520.2H512.8c0,0-0.3,0-0.3-0.3c-2-11.1-2.9-18.5-2.9-21.8c0-6.2,1-26.7,1-27c0,0,0-0.3,0.3-0.3
				h272.9c0,0,0.3,0,0.3,0.3c0,0.3,1,20.8,1,27C785.1,501.4,784.1,509.2,782.2,520.2C782.5,520.2,782.2,520.2,782.2,520.2z
				 M512.8,519.9h269c2-11.1,2.9-18.5,2.9-21.8c0-5.9-1-24.7-1-26.7H511.2c0,2.3-1,20.8-1,26.7C510.2,501.4,511.2,508.8,512.8,519.9
				z"/>
			<path fill="#8A9AA5" d="M555.8,471.4c0,0,19.2,43.6,21.5,47.2h141.5c0,0,17.2-34.8,21.8-47.5L555.8,471.4z"/>
			<path fill="#231F20" d="M712.6,520.2H556.1c0,0-0.3,0-0.3-0.3c0-0.3,0-0.3,0.3-0.3h156.5C712.9,519.9,712.9,519.9,712.6,520.2
				C712.9,520.2,712.9,520.2,712.6,520.2z"/>
			<g>
				<g>
					<g>
						<path fill="#8A9AA5" d="M754.5,495.8c0,1.3-2,2.3-4.2,2.3c-2.3,0-4.2-1-4.2-2.3c0-1.3,2-2.3,4.2-2.3
							C752.6,493.6,754.5,494.5,754.5,495.8z"/>
						<path fill="#8A9AA5" d="M778.6,495.5c0,1.3-2,2.3-4.2,2.3c-2.3,0-4.2-1-4.2-2.3s2-2.3,4.2-2.3
							C776.6,493.6,778.6,494.5,778.6,495.5z"/>
					</g>
					<g>
						<path fill="#8A9AA5" d="M762.3,503.6c1.3,0,2.3,2,2.3,4.2c0,2.3-1,4.2-2.3,4.2c-1.3,0-2.3-2-2.3-4.2
							C760.1,505.6,761,503.6,762.3,503.6z"/>
						<path fill="#8A9AA5" d="M762.3,479.2c1.3,0,2.3,2,2.3,4.2c0,2.3-1,4.2-2.3,4.2c-1.3,0-2.3-2-2.3-4.2
							C760.1,481.2,761,479.2,762.3,479.2z"/>
					</g>
				</g>
				<path fill="#8A9AA5" d="M766.9,495.8c0,2.6-2,4.6-4.6,4.6c-2.6,0-4.6-2-4.6-4.6c0-2.6,2-4.6,4.6-4.6
					C764.9,491.3,766.9,493.2,766.9,495.8z"/>
			</g>
			<path d="M783.8,521.2H512.5l-0.3-1c-2-11.4-2.9-18.5-2.9-22.1c0-6.2,1-26.4,1-27v-1.3h275.5v1.3c0,1,1,20.8,1,27
				c0,3.3-1,10.7-2.9,22.1V521.2z M514.4,518.9h267.4c1.6-10.4,2.6-17.6,2.6-20.8c0-5.2-1-21.5-1-25.7H512.8c-0.3,4.6-1,20.5-1,25.7
				C511.8,501.4,512.8,508.5,514.4,518.9z"/>
			<path fill="#8A9AA5" d="M521.6,505.9c0-1,1-1.6,2.3-1.6h31.2c1.3,0,2.3,0.7,2.3,1.6v6.2c0,1-1,1.6-2.3,1.6h-31.2
				c-1.3,0-2.3-0.7-2.3-1.6V505.9z"/>
		</g>
		<rect x="515.4" y="482.2" fill="none" width="263.8" height="33.5"/>
		<text transform="matrix(1 0 0 1 583.0155 505.5201)" fill="#FFFFFF" font-family="'Helvetica-Light'" font-size="32.5314">Receiver</text>
	</g>
	<rect x="509.2" y="537.8" fill="none" width="277.2" height="26.6"/>
	<text transform="matrix(1 0 0 1 552.3577 556.4858)" fill="#FFFFFF" font-family="'Helvetica'" font-size="26.0251">Can Be Master *</text>
</g>
<g>
	<g>
		<g>
			<path fill="#B5C0C9" d="M176.3,401.6H310c1-5.9,2.9-17.2,2.9-21.8c0-6.2-1-27-1-27H176.3h-2H39.1c0,0-1,20.8-1,27
				c0,4.6,2,15.9,2.9,21.8h133.7H176.3z"/>
			<path fill="#B5C0C9" d="M310,401.9H40.7c0,0-0.3,0-0.3-0.3c-2-11.1-2.9-18.5-2.9-21.8c0-6.2,1-26.7,1-27c0,0,0-0.3,0.3-0.3h272.9
				c0,0,0.3,0,0.3,0.3c0,0.3,1,20.8,1,27C313,383.1,312,390.9,310,401.9C310.4,401.9,310,401.9,310,401.9z M40.7,401.6h269
				c2-11.1,2.9-18.5,2.9-21.8c0-5.9-1-24.7-1-26.7H39.1c0,2.3-1,20.8-1,26.7C38.1,383.1,39.1,390.6,40.7,401.6z"/>
			<path fill="#8A9AA5" d="M83.6,353.2c0,0,19.2,43.6,21.5,47.2h141.5c0,0,17.2-34.8,21.8-47.5L83.6,353.2z"/>
			<path fill="#231F20" d="M240.4,401.9H84c0,0-0.3,0-0.3-0.3c0-0.3,0-0.3,0.3-0.3h156.5C240.8,401.6,240.8,401.6,240.4,401.9
				C240.8,401.9,240.8,401.9,240.4,401.9z"/>
			<g>
				<g>
					<g>
						<path fill="#8A9AA5" d="M282.4,377.6c0,1.3-2,2.3-4.2,2.3c-2.3,0-4.2-1-4.2-2.3c0-1.3,2-2.3,4.2-2.3
							C280.4,375.3,282.4,376.2,282.4,377.6z"/>
						<path fill="#8A9AA5" d="M306.5,377.2c0,1.3-2,2.3-4.2,2.3c-2.3,0-4.2-1-4.2-2.3s2-2.3,4.2-2.3
							C304.5,375.3,306.5,376.2,306.5,377.2z"/>
					</g>
					<g>
						<path fill="#8A9AA5" d="M290.2,385.4c1.3,0,2.3,2,2.3,4.2c0,2.3-1,4.2-2.3,4.2c-1.3,0-2.3-2-2.3-4.2
							C287.9,387.3,288.9,385.4,290.2,385.4z"/>
						<path fill="#8A9AA5" d="M290.2,361c1.3,0,2.3,2,2.3,4.2c0,2.3-1,4.2-2.3,4.2c-1.3,0-2.3-2-2.3-4.2
							C287.9,362.9,288.9,361,290.2,361z"/>
					</g>
				</g>
				<path fill="#8A9AA5" d="M294.8,377.6c0,2.6-2,4.6-4.6,4.6c-2.6,0-4.6-2-4.6-4.6s2-4.6,4.6-4.6
					C292.8,373,294.8,374.9,294.8,377.6z"/>
			</g>
			<path d="M311.7,402.9H40.4l-0.3-1c-2-11.4-2.9-18.5-2.9-22.1c0-6.2,1-26.4,1-27v-1.3h275.5v1.3c0,1,1,20.8,1,27
				c0,3.3-1,10.7-2.9,22.1V402.9z M42.3,400.6h267.4c1.6-10.4,2.6-17.6,2.6-20.8c0-5.2-1-21.5-1-25.7H40.7c-0.3,4.6-1,20.5-1,25.7
				C39.7,383.1,40.7,390.2,42.3,400.6z"/>
			<path fill="#8A9AA5" d="M49.5,387.6c0-1,1-1.6,2.3-1.6H83c1.3,0,2.3,0.7,2.3,1.6v6.2c0,1-1,1.6-2.3,1.6H51.7
				c-1.3,0-2.3-0.7-2.3-1.6V387.6z"/>
		</g>
		<rect x="43.3" y="363.9" fill="none" width="263.8" height="33.5"/>
		<text transform="matrix(1 0 0 1 110.8857 387.2387)" fill="#FFFFFF" font-family="'Helvetica-Light'" font-size="32.5314">Receiver</text>
	</g>
	<rect x="37.1" y="419.5" fill="none" width="277.2" height="26.6"/>
	<text transform="matrix(1 0 0 1 80.2279 438.2034)" fill="#FFFFFF" font-family="'Helvetica'" font-size="26.0251">Can Be Master *</text>
</g>
<g>
	<g>
		<g>
			<path fill="#B5C0C9" d="M175.7,519.9h133.7c1-5.9,2.9-17.2,2.9-21.8c0-6.2-1-27-1-27H175.7h-2H38.4c0,0-1,20.8-1,27
				c0,4.6,2,15.9,2.9,21.8h133.7H175.7z"/>
			<path fill="#B5C0C9" d="M309.4,520.2H40c0,0-0.3,0-0.3-0.3c-2-11.1-2.9-18.5-2.9-21.8c0-6.2,1-26.7,1-27c0,0,0-0.3,0.3-0.3H311
				c0,0,0.3,0,0.3,0.3c0,0.3,1,20.8,1,27C312.3,501.4,311.3,509.2,309.4,520.2C309.7,520.2,309.4,520.2,309.4,520.2z M40,519.9h269
				c2-11.1,2.9-18.5,2.9-21.8c0-5.9-1-24.7-1-26.7H38.4c0,2.3-1,20.8-1,26.7C37.4,501.4,38.4,508.8,40,519.9z"/>
			<path fill="#8A9AA5" d="M83,471.4c0,0,19.2,43.6,21.5,47.2H246c0,0,17.2-34.8,21.8-47.5L83,471.4z"/>
			<path fill="#231F20" d="M239.8,520.2H83.3c0,0-0.3,0-0.3-0.3c0-0.3,0-0.3,0.3-0.3h156.5C240.1,519.9,240.1,519.9,239.8,520.2
				C240.1,520.2,240.1,520.2,239.8,520.2z"/>
			<g>
				<g>
					<g>
						<path fill="#8A9AA5" d="M281.7,495.8c0,1.3-2,2.3-4.2,2.3c-2.3,0-4.2-1-4.2-2.3c0-1.3,2-2.3,4.2-2.3
							C279.8,493.6,281.7,494.5,281.7,495.8z"/>
						<path fill="#8A9AA5" d="M305.8,495.5c0,1.3-2,2.3-4.2,2.3c-2.3,0-4.2-1-4.2-2.3s2-2.3,4.2-2.3
							C303.9,493.6,305.8,494.5,305.8,495.5z"/>
					</g>
					<g>
						<path fill="#8A9AA5" d="M289.6,503.6c1.3,0,2.3,2,2.3,4.2c0,2.3-1,4.2-2.3,4.2c-1.3,0-2.3-2-2.3-4.2
							C287.3,505.6,288.3,503.6,289.6,503.6z"/>
						<path fill="#8A9AA5" d="M289.6,479.2c1.3,0,2.3,2,2.3,4.2c0,2.3-1,4.2-2.3,4.2c-1.3,0-2.3-2-2.3-4.2
							C287.3,481.2,288.3,479.2,289.6,479.2z"/>
					</g>
				</g>
				<path fill="#8A9AA5" d="M294.1,495.8c0,2.6-2,4.6-4.6,4.6c-2.6,0-4.6-2-4.6-4.6c0-2.6,2-4.6,4.6-4.6
					C292.2,491.3,294.1,493.2,294.1,495.8z"/>
			</g>
			<path d="M311,521.2H39.7l-0.3-1c-2-11.4-2.9-18.5-2.9-22.1c0-6.2,1-26.4,1-27v-1.3H313v1.3c0,1,1,20.8,1,27
				c0,3.3-1,10.7-2.9,22.1V521.2z M41.7,518.9h267.4c1.6-10.4,2.6-17.6,2.6-20.8c0-5.2-1-21.5-1-25.7H40c-0.3,4.6-1,20.5-1,25.7
				C39.1,501.4,40,508.5,41.7,518.9z"/>
			<path fill="#8A9AA5" d="M48.8,505.9c0-1,1-1.6,2.3-1.6h31.2c1.3,0,2.3,0.7,2.3,1.6v6.2c0,1-1,1.6-2.3,1.6H51.1
				c-1.3,0-2.3-0.7-2.3-1.6V505.9z"/>
		</g>
		<rect x="42.6" y="482.2" fill="none" width="263.8" height="33.5"/>
		<text transform="matrix(1 0 0 1 110.235 505.5201)" fill="#FFFFFF" font-family="'Helvetica-Light'" font-size="32.5314">Receiver</text>
	</g>
	<rect x="36.5" y="537.8" fill="none" width="277.2" height="26.6"/>
	<text transform="matrix(1 0 0 1 79.5772 556.4858)" fill="#FFFFFF" font-family="'Helvetica'" font-size="26.0251">Can Be Master *</text>
</g>
<polyline fill="none" stroke="#FFFFFF" stroke-width="2" stroke-miterlimit="10" points="291.3,219.3 513.3,219.3 513.3,162.8 "/>
<g>
	<g>
		<g>
			<path fill="#B5C0C9" d="M176.5,258.4h133.7c1-5.9,2.9-17.2,2.9-21.8c0-6.2-1-27-1-27H176.5h-2H39.2c0,0-1,20.8-1,27
				c0,4.6,2,15.9,2.9,21.8h133.7H176.5z"/>
			<path fill="#B5C0C9" d="M310.2,258.7H40.9c0,0-0.3,0-0.3-0.3c-2-11.1-2.9-18.5-2.9-21.8c0-6.2,1-26.7,1-27c0,0,0-0.3,0.3-0.3
				h272.9c0,0,0.3,0,0.3,0.3c0,0.3,1,20.8,1,27C313.1,239.9,312.2,247.7,310.2,258.7C310.5,258.7,310.2,258.7,310.2,258.7z
				 M40.9,258.4h269c2-11.1,2.9-18.5,2.9-21.8c0-5.9-1-24.7-1-26.7H39.2c0,2.3-1,20.8-1,26.7C38.2,239.9,39.2,247.4,40.9,258.4z"/>
			<path fill="#8A9AA5" d="M83.8,209.9c0,0,19.2,43.6,21.5,47.2h141.5c0,0,17.2-34.8,21.8-47.5L83.8,209.9z"/>
			<path fill="#231F20" d="M240.6,258.7H84.1c0,0-0.3,0-0.3-0.3c0-0.3,0-0.3,0.3-0.3h156.5C240.9,258.4,240.9,258.4,240.6,258.7
				C240.9,258.7,240.9,258.7,240.6,258.7z"/>
			<g>
				<g>
					<g>
						<path fill="#8A9AA5" d="M282.6,234.3c0,1.3-2,2.3-4.2,2.3c-2.3,0-4.2-1-4.2-2.3c0-1.3,2-2.3,4.2-2.3
							C280.6,232.1,282.6,233,282.6,234.3z"/>
						<path fill="#8A9AA5" d="M306.6,234c0,1.3-2,2.3-4.2,2.3s-4.2-1-4.2-2.3c0-1.3,2-2.3,4.2-2.3C304.7,232.1,306.6,233,306.6,234z
							"/>
					</g>
					<g>
						<path fill="#8A9AA5" d="M290.4,242.2c1.3,0,2.3,2,2.3,4.2c0,2.3-1,4.2-2.3,4.2c-1.3,0-2.3-2-2.3-4.2
							C288.1,244.1,289.1,242.2,290.4,242.2z"/>
						<path fill="#8A9AA5" d="M290.4,217.8c1.3,0,2.3,2,2.3,4.2c0,2.3-1,4.2-2.3,4.2c-1.3,0-2.3-2-2.3-4.2
							C288.1,219.7,289.1,217.8,290.4,217.8z"/>
					</g>
				</g>
				<path fill="#8A9AA5" d="M294.9,234.3c0,2.6-2,4.6-4.6,4.6s-4.6-2-4.6-4.6s2-4.6,4.6-4.6S294.9,231.7,294.9,234.3z"/>
			</g>
			<path fill="#FFFFFF" d="M311.8,259.7H40.5l-0.3-1c-2-11.4-2.9-18.5-2.9-22.1c0-6.2,1-26.4,1-27v-1.3h275.5v1.3c0,1,1,20.8,1,27
				c0,3.3-1,10.7-2.9,22.1V259.7z M42.5,257.4h267.4c1.6-10.4,2.6-17.6,2.6-20.8c0-5.2-1-21.5-1-25.7H40.9c-0.3,4.6-1,20.5-1,25.7
				C39.9,239.9,40.9,247,42.5,257.4z"/>
			<path fill="#8A9AA5" d="M49.6,244.4c0-1,1-1.6,2.3-1.6h31.2c1.3,0,2.3,0.7,2.3,1.6v6.2c0,1-1,1.6-2.3,1.6H51.9
				c-1.3,0-2.3-0.7-2.3-1.6V244.4z"/>
		</g>
		<rect x="43.5" y="220.7" fill="none" width="263.8" height="33.5"/>
		<text transform="matrix(1 0 0 1 111.0483 244.0343)" fill="#FFFFFF" font-family="'Helvetica-Light'" font-size="32.5314">Receiver</text>
	</g>
	<rect x="37.3" y="276.3" fill="none" width="277.2" height="26.6"/>
	<text transform="matrix(1 0 0 1 89.0692 294.9994)" fill="#FFFFFF" font-family="'Helvetica'" font-size="26.0251">Can Be Master</text>
</g>
<g>
	<text transform="matrix(1 0 0 1 339.8344 193.5107)" fill="#FFFFFF" font-family="'Helvetica-Light'" font-size="19.5188">IP AutoSwitch</text>
	<g>
		<rect x="413.6" y="216.9" fill="#B5C0C9" width="8.5" height="4.9"/>
		<rect x="413.6" y="216.9" fill="none" stroke="#FFFFFF" stroke-width="0.15" stroke-miterlimit="10" width="8.5" height="4.9"/>
		<rect x="372.6" y="216.9" fill="#B5C0C9" width="8.5" height="4.9"/>
		<rect x="372.6" y="216.9" fill="none" stroke="#FFFFFF" stroke-width="0.15" stroke-miterlimit="10" width="8.5" height="4.9"/>
		<path fill="#B5C0C9" d="M413.6,231.5l1.6-1h1c0,0,0.3-1.3,0.3-2.3s-0.3-2.3-0.3-2.3h-1l-2.3-1.3L413.6,231.5z"/>
		<path fill="#FFFFFF" d="M412.6,224l2.6,1.6h1v0.3c0,0,0.3,1.3,0.3,2.6c0,1-0.3,2.3-0.3,2.6v0.3h-1l-2,1.3L412.6,224z M415.9,226.3
			h-0.7l-1.6-1l0.3,5.9l1.3-0.7h0.7c0-0.3,0.3-1.3,0.3-2C416.2,227.6,415.9,226.6,415.9,226.3z"/>
		<rect x="380.4" y="211.3" fill="#B5C0C9" width="32.2" height="23.7"/>
		<path fill="#FFFFFF" d="M380.1,235.4V211H413v24.4H380.1z M380.8,211.7v23.1h31.6v-23.1H380.8z"/>
		<path fill="#B5C0C9" d="M412.3,211c-0.3,0-0.7,0.3-0.7,0.7v23.4c0,0.3,0.3,0.7,0.7,0.7h1.3c0.3,0,0.7-0.3,0.7-0.7v-23.4
			c0-0.3-0.3-0.7-0.7-0.7H412.3z"/>
		<path fill="#FFFFFF" d="M411.7,235.1v-23.4c0-0.3,0.3-1,1-1h1.3c0.3,0,1,0.3,1,1v23.4c0,0.3-0.3,1-1,1h-1.3
			C412,235.7,411.7,235.4,411.7,235.1z M413.6,211.7C413.6,211.3,413.6,211.3,413.6,211.7l-1.3-0.3c0,0-0.3,0-0.3,0.3v23.4
			c0,0,0,0,0.3,0h1.3l0,0V211.7z"/>
		<path fill="#B5C0C9" d="M379.5,211c-0.3,0-0.7,0.3-0.7,0.7v23.4c0,0.3,0.3,0.7,0.7,0.7h1.3c0.3,0,0.7-0.3,0.7-0.7v-23.4
			c0-0.3-0.3-0.7-0.7-0.7H379.5z"/>
		<path fill="#FFFFFF" d="M378.8,235.1v-23.4c0-0.3,0.3-1,1-1h1.3c0.3,0,1,0.3,1,1v23.4c0,0.3-0.3,1-1,1h-1.3
			C379.1,235.7,378.8,235.4,378.8,235.1z M380.8,211.7C380.8,211.3,380.8,211.3,380.8,211.7l-1.3-0.3c0,0-0.3,0-0.3,0.3v23.4
			c0,0,0,0,0.3,0h1.3l0,0V211.7z"/>
	</g>
</g>
<polyline fill="none" stroke="#000000" stroke-width="2" stroke-miterlimit="10" points="572.8,174.3 572.8,259.1 434.6,259.1 
	434.6,497.8 313.6,497.8 "/>
<g>
	<text transform="matrix(1 0 0 1 362.5134 541.8033)" font-family="'Helvetica-Light'" font-size="19.5188">IP AutoSwitch</text>
	<g>
		<rect x="403.2" y="495.7" fill="#B5C0C9" width="8.5" height="4.9"/>
		<rect x="403.2" y="495.7" fill="none" stroke="#FFFFFF" stroke-width="0.15" stroke-miterlimit="10" width="8.5" height="4.9"/>
		<rect x="362.2" y="495.7" fill="#B5C0C9" width="8.5" height="4.9"/>
		<rect x="362.2" y="495.7" fill="none" stroke="#FFFFFF" stroke-width="0.15" stroke-miterlimit="10" width="8.5" height="4.9"/>
		<path fill="#B5C0C9" d="M403.2,510.4l1.6-1h1c0,0,0.3-1.3,0.3-2.3s-0.3-2.3-0.3-2.3h-1l-2.3-1.3L403.2,510.4z"/>
		<path fill="#FFFFFF" d="M402.2,502.9l2.6,1.6h1v0.3c0,0,0.3,1.3,0.3,2.6c0,1-0.3,2.3-0.3,2.6v0.3h-1l-2,1.3L402.2,502.9z
			 M405.5,505.2h-0.7l-1.6-1l0.3,5.9l1.3-0.7h0.7c0-0.3,0.3-1.3,0.3-2C405.8,506.5,405.5,505.5,405.5,505.2z"/>
		<rect x="370" y="490.2" fill="#B5C0C9" width="32.2" height="23.7"/>
		<path fill="#FFFFFF" d="M369.7,514.3v-24.4h32.9v24.4H369.7z M370.4,490.5v23.1h31.6v-23.1H370.4z"/>
		<path fill="#B5C0C9" d="M401.9,489.9c-0.3,0-0.7,0.3-0.7,0.7v23.4c0,0.3,0.3,0.7,0.7,0.7h1.3c0.3,0,0.7-0.3,0.7-0.7v-23.4
			c0-0.3-0.3-0.7-0.7-0.7H401.9z"/>
		<path fill="#FFFFFF" d="M401.3,513.9v-23.4c0-0.3,0.3-1,1-1h1.3c0.3,0,1,0.3,1,1v23.4c0,0.3-0.3,1-1,1h-1.3
			C401.6,514.6,401.3,514.3,401.3,513.9z M403.2,490.5C403.2,490.2,403.2,490.2,403.2,490.5l-1.3-0.3c0,0-0.3,0-0.3,0.3v23.4
			c0,0,0,0,0.3,0h1.3l0,0V490.5z"/>
		<path fill="#B5C0C9" d="M369.1,489.9c-0.3,0-0.7,0.3-0.7,0.7v23.4c0,0.3,0.3,0.7,0.7,0.7h1.3c0.3,0,0.7-0.3,0.7-0.7v-23.4
			c0-0.3-0.3-0.7-0.7-0.7H369.1z"/>
		<path fill="#FFFFFF" d="M368.4,513.9v-23.4c0-0.3,0.3-1,1-1h1.3c0.3,0,1,0.3,1,1v23.4c0,0.3-0.3,1-1,1h-1.3
			C368.7,514.6,368.4,514.3,368.4,513.9z M370.4,490.5C370.4,490.2,370.4,490.2,370.4,490.5l-1.3-0.3c0,0-0.3,0-0.3,0.3v23.4
			c0,0,0,0,0.3,0h1.3l0,0V490.5z"/>
	</g>
</g>
<g>
	<g>
		<g>
			<g>
				<rect x="701.5" y="74.1" fill="#B5C0C9" width="8.8" height="11.1"/>
				<rect x="701.5" y="74.1" fill="none" stroke="#FFFFFF" stroke-width="0.25" stroke-miterlimit="10" width="8.8" height="11.1"/>
				<path fill="#B5C0C9" d="M712.9,89.7c0.7,0,1.3-0.7,1.3-1.3v-2c0-0.7-0.7-1.3-1.3-1.3h-14.3c-0.7,0-1.3,0.7-1.3,1.3v2
					c0,0.7,0.7,1.3,1.3,1.3H712.9z"/>
				<path fill="#FFFFFF" d="M712.9,90h-14.3c-1,0-1.6-0.7-1.6-1.6v-2c0-1,0.7-1.6,1.6-1.6h14.3c1,0,1.6,0.7,1.6,1.6v2
					C714.5,89.3,713.9,90,712.9,90z M698.6,85.4c-0.7,0-1,0.3-1,1v2c0,0.7,0.3,1,1,1h14.3c0.7,0,1-0.3,1-1v-2c0-0.7-0.3-1-1-1H698.6
					z"/>
			</g>
		</g>
		<g>
			<g>
				<rect x="643.6" y="74.1" fill="#B5C0C9" width="8.8" height="11.1"/>
				<rect x="643.6" y="74.1" fill="none" stroke="#FFFFFF" stroke-width="0.25" stroke-miterlimit="10" width="8.8" height="11.1"/>
				<path fill="#B5C0C9" d="M655,89.7c0.7,0,1.3-0.7,1.3-1.3v-2c0-0.7-0.7-1.3-1.3-1.3h-14.3c-0.7,0-1.3,0.7-1.3,1.3v2
					c0,0.7,0.7,1.3,1.3,1.3H655z"/>
				<path fill="#FFFFFF" d="M655,90h-14.3c-1,0-1.6-0.7-1.6-1.6v-2c0-1,0.7-1.6,1.6-1.6H655c1,0,1.6,0.7,1.6,1.6v2
					C656.6,89.3,656,90,655,90z M640.7,85.4c-0.7,0-1,0.3-1,1v2c0,0.7,0.3,1,1,1H655c0.7,0,1-0.3,1-1v-2c0-0.7-0.3-1-1-1H640.7z"/>
			</g>
		</g>
		<g>
			<g>
				<rect x="585.7" y="74.1" fill="#B5C0C9" width="8.8" height="11.1"/>
				<rect x="585.7" y="74.1" fill="none" stroke="#FFFFFF" stroke-width="0.25" stroke-miterlimit="10" width="8.8" height="11.1"/>
				<path fill="#B5C0C9" d="M597.1,89.7c0.7,0,1.3-0.7,1.3-1.3v-2c0-0.7-0.7-1.3-1.3-1.3h-14.3c-0.7,0-1.3,0.7-1.3,1.3v2
					c0,0.7,0.7,1.3,1.3,1.3H597.1z"/>
				<path fill="#FFFFFF" d="M597.1,90h-14.3c-1,0-1.6-0.7-1.6-1.6v-2c0-1,0.7-1.6,1.6-1.6h14.3c1,0,1.6,0.7,1.6,1.6v2
					C598.7,89.3,598.1,90,597.1,90z M582.8,85.4c-0.7,0-1,0.3-1,1v2c0,0.7,0.3,1,1,1h14.3c0.7,0,1-0.3,1-1v-2c0-0.7-0.3-1-1-1H582.8
					z"/>
			</g>
		</g>
		<g>
			<g>
				<rect x="527.8" y="74.1" fill="#B5C0C9" width="8.8" height="11.1"/>
				<rect x="527.8" y="74.1" fill="none" stroke="#FFFFFF" stroke-width="0.25" stroke-miterlimit="10" width="8.8" height="11.1"/>
				<path fill="#B5C0C9" d="M539.2,89.7c0.7,0,1.3-0.7,1.3-1.3v-2c0-0.7-0.7-1.3-1.3-1.3h-14.3c-0.7,0-1.3,0.7-1.3,1.3v2
					c0,0.7,0.7,1.3,1.3,1.3H539.2z"/>
				<path fill="#FFFFFF" d="M539.2,90h-14.3c-1,0-1.6-0.7-1.6-1.6v-2c0-1,0.7-1.6,1.6-1.6h14.3c1,0,1.6,0.7,1.6,1.6v2
					C540.8,89.3,540.1,90,539.2,90z M524.9,85.4c-0.7,0-1,0.3-1,1v2c0,0.7,0.3,1,1,1h14.3c0.7,0,1-0.3,1-1v-2c0-0.7-0.3-1-1-1H524.9
					z"/>
			</g>
		</g>
		<g>
			<g>
				<rect x="717.3" y="166.8" fill="#B5C0C9" width="8.8" height="11.1"/>
				
					<rect x="717.3" y="166.8" fill="none" stroke="#FFFFFF" stroke-width="0.25" stroke-miterlimit="10" width="8.8" height="11.1"/>
				<path fill="#B5C0C9" d="M728.7,161.9c0.7,0,1.3,0.7,1.3,1.3v2c0,0.7-0.7,1.3-1.3,1.3h-14.3c-0.7,0-1.3-0.7-1.3-1.3v-2
					c0-0.7,0.7-1.3,1.3-1.3H728.7z"/>
				<path fill="#FFFFFF" d="M730.3,163.2v2c0,1-0.7,1.6-1.6,1.6h-14.3c-1,0-1.6-0.7-1.6-1.6v-2c0-1,0.7-1.6,1.6-1.6h14.3
					C729.6,161.6,730.3,162.5,730.3,163.2z M728.7,166.4c0.7,0,1-0.3,1-1v-2c0-0.7-0.3-1-1-1h-14.3c-0.7,0-1,0.3-1,1v2
					c0,0.7,0.3,1,1,1H728.7z"/>
			</g>
			<g>
				<rect x="687.7" y="166.8" fill="#B5C0C9" width="8.8" height="11.1"/>
				
					<rect x="687.7" y="166.8" fill="none" stroke="#FFFFFF" stroke-width="0.25" stroke-miterlimit="10" width="8.8" height="11.1"/>
				<path fill="#B5C0C9" d="M699.1,161.9c0.7,0,1.3,0.7,1.3,1.3v2c0,0.7-0.7,1.3-1.3,1.3h-14.3c-0.7,0-1.3-0.7-1.3-1.3v-2
					c0-0.7,0.7-1.3,1.3-1.3H699.1z"/>
				<path fill="#FFFFFF" d="M700.7,163.2v2c0,1-0.7,1.6-1.6,1.6h-14.3c-1,0-1.6-0.7-1.6-1.6v-2c0-1,0.7-1.6,1.6-1.6h14.3
					C700,161.6,700.7,162.5,700.7,163.2z M699.1,166.4c0.7,0,1-0.3,1-1v-2c0-0.7-0.3-1-1-1h-14.3c-0.7,0-1,0.3-1,1v2
					c0,0.7,0.3,1,1,1H699.1z"/>
			</g>
			<g>
				<rect x="657.7" y="166.8" fill="#B5C0C9" width="8.8" height="11.1"/>
				
					<rect x="657.7" y="166.8" fill="none" stroke="#FFFFFF" stroke-width="0.25" stroke-miterlimit="10" width="8.8" height="11.1"/>
				<path fill="#B5C0C9" d="M669.1,161.9c0.7,0,1.3,0.7,1.3,1.3v2c0,0.7-0.7,1.3-1.3,1.3h-14.3c-0.7,0-1.3-0.7-1.3-1.3v-2
					c0-0.7,0.7-1.3,1.3-1.3H669.1z"/>
				<path fill="#FFFFFF" d="M671.1,163.2v2c0,1-0.7,1.6-1.6,1.6h-14.3c-1,0-1.6-0.7-1.6-1.6v-2c0-1,0.7-1.6,1.6-1.6h14.3
					C670.1,161.6,671.1,162.5,671.1,163.2z M669.1,166.4c0.7,0,1-0.3,1-1v-2c0-0.7-0.3-1-1-1h-14.3c-0.7,0-1,0.3-1,1v2
					c0,0.7,0.3,1,1,1H669.1z"/>
			</g>
			<g>
				<rect x="628.1" y="166.8" fill="#B5C0C9" width="8.8" height="11.1"/>
				
					<rect x="628.1" y="166.8" fill="none" stroke="#FFFFFF" stroke-width="0.25" stroke-miterlimit="10" width="8.8" height="11.1"/>
				<path fill="#B5C0C9" d="M639.5,161.9c0.7,0,1.3,0.7,1.3,1.3v2c0,0.7-0.7,1.3-1.3,1.3h-14.3c-0.7,0-1.3-0.7-1.3-1.3v-2
					c0-0.7,0.7-1.3,1.3-1.3H639.5z"/>
				<path fill="#FFFFFF" d="M641.2,163.2v2c0,1-0.7,1.6-1.6,1.6h-14.3c-1,0-1.6-0.7-1.6-1.6v-2c0-1,0.7-1.6,1.6-1.6h14.3
					C640.5,161.6,641.2,162.5,641.2,163.2z M639.5,166.4c0.7,0,1-0.3,1-1v-2c0-0.7-0.3-1-1-1h-14.3c-0.7,0-1,0.3-1,1v2
					c0,0.7,0.3,1,1,1H639.5z"/>
			</g>
			<g>
				<rect x="598.2" y="166.8" fill="#B5C0C9" width="8.8" height="11.1"/>
				
					<rect x="598.2" y="166.8" fill="none" stroke="#FFFFFF" stroke-width="0.25" stroke-miterlimit="10" width="8.8" height="11.1"/>
				<path fill="#B5C0C9" d="M609.6,161.9c0.7,0,1.3,0.7,1.3,1.3v2c0,0.7-0.7,1.3-1.3,1.3h-14.3c-0.7,0-1.3-0.7-1.3-1.3v-2
					c0-0.7,0.7-1.3,1.3-1.3H609.6z"/>
				<path fill="#FFFFFF" d="M611.2,163.2v2c0,1-0.7,1.6-1.6,1.6h-14.3c-1,0-1.6-0.7-1.6-1.6v-2c0-1,0.7-1.6,1.6-1.6h14.3
					C610.6,161.6,611.2,162.5,611.2,163.2z M609.6,166.4c0.7,0,1-0.3,1-1v-2c0-0.7-0.3-1-1-1h-14.3c-0.7,0-1,0.3-1,1v2
					c0,0.7,0.3,1,1,1H609.6z"/>
			</g>
			<g>
				<rect x="568.3" y="166.8" fill="#B5C0C9" width="8.8" height="11.1"/>
				
					<rect x="568.3" y="166.8" fill="none" stroke="#FFFFFF" stroke-width="0.25" stroke-miterlimit="10" width="8.8" height="11.1"/>
				<path fill="#B5C0C9" d="M580,161.9c0.7,0,1.3,0.7,1.3,1.3v2c0,0.7-0.7,1.3-1.3,1.3h-14.3c-0.7,0-1.3-0.7-1.3-1.3v-2
					c0-0.7,0.7-1.3,1.3-1.3H580z"/>
				<path fill="#FFFFFF" d="M581.6,163.2v2c0,1-0.7,1.6-1.6,1.6h-14.3c-1,0-1.6-0.7-1.6-1.6v-2c0-1,0.7-1.6,1.6-1.6H580
					C580.6,161.6,581.6,162.5,581.6,163.2z M580,166.4c0.7,0,1-0.3,1-1v-2c0-0.7-0.3-1-1-1h-14.3c-0.7,0-1,0.3-1,1v2
					c0,0.7,0.3,1,1,1H580z"/>
			</g>
			<g>
				<rect x="538.7" y="166.8" fill="#B5C0C9" width="8.8" height="11.1"/>
				
					<rect x="538.7" y="166.8" fill="none" stroke="#FFFFFF" stroke-width="0.25" stroke-miterlimit="10" width="8.8" height="11.1"/>
				<path fill="#B5C0C9" d="M550.1,161.9c0.7,0,1.3,0.7,1.3,1.3v2c0,0.7-0.7,1.3-1.3,1.3h-14.3c-0.7,0-1.3-0.7-1.3-1.3v-2
					c0-0.7,0.7-1.3,1.3-1.3H550.1z"/>
				<path fill="#FFFFFF" d="M551.7,163.2v2c0,1-0.7,1.6-1.6,1.6h-14.3c-1,0-1.6-0.7-1.6-1.6v-2c0-1,0.7-1.6,1.6-1.6h14.3
					C551,161.6,551.7,162.5,551.7,163.2z M550.1,166.4c0.7,0,1-0.3,1-1v-2c0-0.7-0.3-1-1-1h-14.3c-0.7,0-1,0.3-1,1v2
					c0,0.7,0.3,1,1,1H550.1z"/>
			</g>
			<g>
				<rect x="508.8" y="166.8" fill="#B5C0C9" width="8.8" height="11.1"/>
				
					<rect x="508.8" y="166.8" fill="none" stroke="#FFFFFF" stroke-width="0.25" stroke-miterlimit="10" width="8.8" height="11.1"/>
				<path fill="#B5C0C9" d="M520.1,161.9c0.7,0,1.3,0.7,1.3,1.3v2c0,0.7-0.7,1.3-1.3,1.3h-14.3c-0.7,0-1.3-0.7-1.3-1.3v-2
					c0-0.7,0.7-1.3,1.3-1.3H520.1z"/>
				<path fill="#FFFFFF" d="M522.1,163.2v2c0,1-0.7,1.6-1.6,1.6h-14.3c-1,0-1.6-0.7-1.6-1.6v-2c0-1,0.7-1.6,1.6-1.6h14.3
					C521.1,161.6,522.1,162.5,522.1,163.2z M520.1,166.4c0.7,0,1-0.3,1-1v-2c0-0.7-0.3-1-1-1h-14.3c-0.7,0-1,0.3-1,1v2
					c0,0.7,0.3,1,1,1H520.1z"/>
			</g>
		</g>
		<rect x="495.1" y="88.4" fill="#B5C0C9" width="246.9" height="75.8"/>
		<path fill="#FFFFFF" d="M742.7,164.5H495.1V88h247.6V164.5z M495.4,163.8h246.3V88.7H495.4V163.8z"/>
		<path fill="#B5C0C9" d="M740.7,165.5c-1,0-1.6-0.7-1.6-1.6V88.4c0-1,0.7-1.6,1.6-1.6h3.6c1,0,1.6,0.7,1.6,1.6v75.5
			c0,1-0.7,1.6-1.6,1.6H740.7z"/>
		<path fill="#FFFFFF" d="M744.3,165.8h-3.6c-1,0-2-1-2-2V88.4c0-1,1-2,2-2h3.6c1,0,2,1,2,2v75.5
			C746.2,164.8,745.3,165.8,744.3,165.8z M740.7,87.1c-0.7,0-1.3,0.7-1.3,1.3v75.5c0,0.7,0.7,1.3,1.3,1.3h3.6c0.7,0,1.3-0.7,1.3-1.3
			V88.4c0-0.7-0.7-1.3-1.3-1.3H740.7z"/>
		<path fill="#B5C0C9" d="M491.5,165.5c-1,0-1.6-0.7-1.6-1.6V88.4c0-1,0.7-1.6,1.6-1.6h3.6c1,0,1.6,0.7,1.6,1.6v75.5
			c0,1-0.7,1.6-1.6,1.6H491.5z"/>
		<path fill="#FFFFFF" d="M495.4,165.8h-3.6c-1,0-2-1-2-2V88.4c0-1,1-2,2-2h3.6c1,0,2,1,2,2v75.5
			C497.4,164.8,496.4,165.8,495.4,165.8z M491.5,87.1c-0.7,0-1.3,0.7-1.3,1.3v75.5c0,0.7,0.7,1.3,1.3,1.3h3.6c0.7,0,1.3-0.7,1.3-1.3
			V88.4c0-0.7-0.7-1.3-1.3-1.3H491.5z"/>
	</g>
	<rect x="489.6" y="114.4" fill="none" width="255.7" height="33.5"/>
	<text transform="matrix(1 0 0 1 536.9918 137.6795)" fill="#FFFFFF" font-family="'Helvetica-Light'" font-size="32.5314">Multiswitch</text>
</g>
<text transform="matrix(1 0 0 1 514.4384 585.47)" fill="#FFFFFF" font-family="'Helvetica-LightOblique'" font-size="16">* If optional IP Autoswitch is installed</text>
</svg>
