<?xml version="1.0" encoding="utf-8"?>
<!-- Generator: Adobe Illustrator 17.1.0, SVG Export Plug-In . SVG Version: 6.00 Build 0)  -->
<!DOCTYPE svg PUBLIC "-//W3C//DTD SVG 1.1//EN" "http://www.w3.org/Graphics/SVG/1.1/DTD/svg11.dtd">
<svg version="1.1" id="Layer_1" xmlns="http://www.w3.org/2000/svg" xmlns:xlink="http://www.w3.org/1999/xlink" x="0px" y="0px"
	 viewBox="0 0 255 220" enable-background="new 0 0 255 220" xml:space="preserve">
<g>
	<line fill="none" stroke="#FFFFFF" stroke-miterlimit="10" x1="42" y1="24.5" x2="226.7" y2="24.5"/>
	<line fill="none" stroke="#FFFFFF" stroke-miterlimit="10" x1="226.7" y1="24" x2="226.7" y2="40"/>
	<polyline fill="none" stroke="#FFFFFF" stroke-miterlimit="10" points="217.6,60.9 134.4,60.9 134.4,78.7 99.2,78.7 	"/>
	<line fill="none" stroke="#FFFFFF" stroke-miterlimit="10" x1="217.6" y1="61.3" x2="217.6" y2="45.4"/>
	<line fill="none" stroke="#FFFFFF" stroke-miterlimit="10" x1="235.4" y1="53.4" x2="235.4" y2="75.3"/>
	<g>
		<path fill="#FFFFFF" d="M39.3,32.4H20.9l0,0c-0.1,0-2.1-0.7-2.9-2.8l0,0v-2.2L18.2,17l0,0c0.9-4.2,3-7.2,6.4-9
			c2.6-1.3,5-1.4,5.3-1.4l0,0c0,0,0.1,0,0.2,0c1.6,0,9.7,0.5,11.7,10.3l0,0l0.4,10.4l0,2.2l0,0c-0.5,1.2-1.3,1.9-1.8,2.3
			C39.8,32.3,39.3,32.4,39.3,32.4L39.3,32.4z M20.9,32.1h18.3c0.2,0,1.8-0.5,2.7-2.6v-2.1L41.6,17C39.6,7.5,31.8,7,30.2,7
			C30.1,7,30,7,30,7l0,0l0,0c-0.3,0-2.6,0-5.2,1.3c-3.3,1.7-5.4,4.6-6.2,8.7l-0.3,10.4l0,2.1C19,31.3,20.7,32,20.9,32.1z"/>
		<path fill="#B5C0C9" d="M18.1,27.5v2.1c0.7,1.9,2.8,2.6,2.8,2.6h18.4c1.8-0.4,2.7-2.6,2.7-2.6v-2.1H18.1z"/>
		<path fill="#FFFFFF" d="M42.1,27.6h-24c-0.1,0-0.2-0.1-0.2-0.2c0-0.1,0.1-0.2,0.2-0.2h24c0.1,0,0.2,0.1,0.2,0.2
			C42.2,27.5,42.2,27.6,42.1,27.6z"/>
		<path fill="#FFFFFF" d="M39.3,32.4H20.9c0,0,0,0-0.1,0c-0.1,0-2.1-0.7-2.9-2.8c0,0,0,0,0-0.1v-2.1L18.2,17c0,0,0,0,0,0
			c0.9-4.2,3-7.2,6.4-9c2.6-1.3,5-1.4,5.3-1.4l0,0c0,0,0.1,0,0.2,0c1.6,0,9.7,0.5,11.7,10.3c0,0,0,0,0,0l0.4,10.4l0,2.1
			c0,0,0,0,0,0.1c-0.5,1.2-1.3,1.9-1.8,2.3C39.8,32.3,39.3,32.4,39.3,32.4C39.3,32.4,39.3,32.4,39.3,32.4z M20.9,32.1h18.3
			c0.2,0,1.8-0.5,2.7-2.6v-2.1L41.6,17C39.6,7.5,31.8,7,30.2,7C30.1,7,30,7,30,7c0,0,0,0,0,0l0,0c-0.3,0-2.6,0-5.2,1.3
			c-3.3,1.7-5.4,4.6-6.2,8.7l-0.3,10.4l0,2.1C19,31.3,20.7,32,20.9,32.1z"/>
	</g>
	<g>
		<path fill="#FFFFFF" d="M96.5,20.5L96.4,9c0,0,0-0.8-0.7-0.8h0C95,8.2,95,9,95,9l-0.1,11.5H96.5z"/>
		<path fill="#B5C0C9" d="M84.2,27.4h20.6v-5.7c0,0,0.1-0.7-2.2-1c0,0-7.3-0.8-18.3-0.9h-0.1c-11,0.1-18.3,0.9-18.3,0.9
			c-2.3,0.2-2.2,1-2.2,1v5.7H84.2L84.2,27.4z"/>
		<path fill="#8999A5" d="M82.4,22.5c0,0.2-0.2,0.4-0.4,0.4l0,0c-0.2,0-0.4-0.2-0.4-0.4V20h0.8V22.5z"/>
		<path fill="#8999A5" d="M84.6,22.5c0,0.2-0.2,0.4-0.4,0.4l0,0c-0.2,0-0.4-0.2-0.4-0.4V20h0.8V22.5z"/>
		<path fill="#8999A5" d="M86.7,22.5c0,0.2-0.2,0.4-0.4,0.4l0,0c-0.2,0-0.4-0.2-0.4-0.4V20h0.8V22.5z"/>
		<path fill="#FFFFFF" d="M104.9,27.6H63.4v-5.9c0-0.1,0-0.2,0.1-0.4c0.3-0.4,1.1-0.7,2.2-0.8c0.1,0,7.4-0.8,18.3-0.9h0.1
			c10.9,0.1,18.3,0.9,18.3,0.9c1.2,0.1,1.9,0.4,2.2,0.8c0.1,0.2,0.1,0.3,0.1,0.4V27.6z M63.7,27.2h40.8v-5.5l0,0c0,0-0.1-0.6-2-0.7
			c-0.1,0-7.4-0.8-18.3-0.9h-0.1c-10.9,0.1-18.2,0.9-18.3,0.9c-2,0.2-2,0.7-2,0.8l0,0l0,0V27.2z"/>
	</g>
	<g>
		<g>
			<path fill="#B5C0C9" d="M60.5,84.7h41.1c0.3-1.8,0.9-5.3,0.9-6.7c0-1.9-0.3-8.3-0.3-8.3H60.5h-0.6H18.3c0,0-0.3,6.4-0.3,8.3
				c0,1.4,0.6,4.9,0.9,6.7h41.1H60.5z"/>
			<path fill="#B5C0C9" d="M101.6,84.8H18.8c0,0-0.1,0-0.1-0.1c-0.6-3.4-0.9-5.7-0.9-6.7c0-1.9,0.3-8.2,0.3-8.3c0,0,0-0.1,0.1-0.1
				h83.9c0,0,0.1,0,0.1,0.1c0,0.1,0.3,6.4,0.3,8.3C102.5,79,102.2,81.4,101.6,84.8C101.7,84.8,101.6,84.8,101.6,84.8z M18.8,84.7
				h82.7c0.6-3.4,0.9-5.7,0.9-6.7c0-1.8-0.3-7.6-0.3-8.2H18.3c0,0.7-0.3,6.4-0.3,8.2C18,79,18.3,81.3,18.8,84.7z"/>
			<path fill="#8999A5" d="M32,69.8c0,0,5.9,13.4,6.6,14.5h43.5c0,0,5.3-10.7,6.7-14.6L32,69.8z"/>
			<path fill="#231F20" d="M80.2,84.8H32.1c0,0-0.1,0-0.1-0.1c0,0,0-0.1,0.1-0.1h48.1C80.3,84.7,80.3,84.7,80.2,84.8
				C80.3,84.8,80.3,84.8,80.2,84.8z"/>
			<g>
				<g>
					<g>
						<path fill="#8999A5" d="M93.1,77.3c0,0.4-0.6,0.7-1.3,0.7c-0.7,0-1.3-0.3-1.3-0.7c0-0.4,0.6-0.7,1.3-0.7
							C92.5,76.6,93.1,76.9,93.1,77.3z"/>
						<path fill="#8999A5" d="M100.5,77.2c0,0.4-0.6,0.7-1.3,0.7c-0.7,0-1.3-0.3-1.3-0.7c0-0.4,0.6-0.7,1.3-0.7
							C99.9,76.6,100.5,76.9,100.5,77.2z"/>
					</g>
					<g>
						<path fill="#8999A5" d="M95.5,79.7c0.4,0,0.7,0.6,0.7,1.3c0,0.7-0.3,1.3-0.7,1.3c-0.4,0-0.7-0.6-0.7-1.3
							C94.8,80.3,95.1,79.7,95.5,79.7z"/>
						<path fill="#8999A5" d="M95.5,72.3c0.4,0,0.7,0.6,0.7,1.3c0,0.7-0.3,1.3-0.7,1.3c-0.4,0-0.7-0.6-0.7-1.3
							C94.8,72.8,95.1,72.3,95.5,72.3z"/>
					</g>
				</g>
				<path fill="#8999A5" d="M96.9,77.3c0,0.8-0.6,1.4-1.4,1.4c-0.8,0-1.4-0.6-1.4-1.4c0-0.8,0.6-1.4,1.4-1.4
					C96.3,75.9,96.9,76.5,96.9,77.3z"/>
			</g>
			<path fill="#FFFFFF" d="M102.1,85.1H18.7l-0.1-0.3c-0.6-3.5-0.9-5.7-0.9-6.8c0-1.9,0.3-8.1,0.3-8.3l0-0.4h84.6l0,0.4
				c0,0.3,0.3,6.4,0.3,8.3c0,1-0.3,3.3-0.9,6.8L102.1,85.1z M19.3,84.4h82.2c0.5-3.2,0.8-5.4,0.8-6.4c0-1.6-0.3-6.6-0.3-7.9H18.8
				c-0.1,1.4-0.3,6.3-0.3,7.9C18.5,79,18.8,81.2,19.3,84.4z"/>
			<path fill="#8999A5" d="M21.5,80.4c0-0.3,0.3-0.5,0.7-0.5h9.6c0.4,0,0.7,0.2,0.7,0.5v1.9c0,0.3-0.3,0.5-0.7,0.5h-9.6
				c-0.4,0-0.7-0.2-0.7-0.5V80.4z"/>
		</g>
		<rect x="19.6" y="73.1" fill="none" width="81.1" height="10.3"/>
		<text transform="matrix(1 0 0 1 40.3772 80.2837)" fill="#FFFFFF" font-family="'Helvetica-Light'" font-size="10">Receiver</text>
	</g>
	<polyline fill="none" stroke="#000000" stroke-miterlimit="10" points="117.5,125.3 152.7,125.3 189.4,125.3 189.4,107.5 
		189.4,88.3 	"/>
	<g>
		<g>
			<path fill="#B5C0C9" d="M78.8,131.3h41.1c0.3-1.8,0.9-5.3,0.9-6.7c0-1.9-0.3-8.3-0.3-8.3H78.8h-0.6H36.6c0,0-0.3,6.4-0.3,8.3
				c0,1.4,0.6,4.9,0.9,6.7h41.1H78.8z"/>
			<path fill="#B5C0C9" d="M119.9,131.4H37.1c0,0-0.1,0-0.1-0.1c-0.6-3.4-0.9-5.7-0.9-6.7c0-1.9,0.3-8.2,0.3-8.3c0,0,0-0.1,0.1-0.1
				h83.9c0,0,0.1,0,0.1,0.1c0,0.1,0.3,6.4,0.3,8.3C120.8,125.6,120.5,128,119.9,131.4C120,131.4,119.9,131.4,119.9,131.4z
				 M37.1,131.3h82.7c0.6-3.4,0.9-5.7,0.9-6.7c0-1.8-0.3-7.6-0.3-8.2H36.6c0,0.7-0.3,6.4-0.3,8.2C36.3,125.6,36.6,127.9,37.1,131.3z
				"/>
			<path fill="#8999A5" d="M50.3,116.4c0,0,5.9,13.4,6.6,14.5h43.5c0,0,5.3-10.7,6.7-14.6L50.3,116.4z"/>
			<path fill="#231F20" d="M98.5,131.4H50.4c0,0-0.1,0-0.1-0.1s0-0.1,0.1-0.1h48.1C98.6,131.3,98.6,131.3,98.5,131.4
				C98.6,131.4,98.6,131.4,98.5,131.4z"/>
			<g>
				<g>
					<g>
						<path fill="#8999A5" d="M111.4,123.9c0,0.4-0.6,0.7-1.3,0.7c-0.7,0-1.3-0.3-1.3-0.7c0-0.4,0.6-0.7,1.3-0.7
							C110.8,123.2,111.4,123.5,111.4,123.9z"/>
						<path fill="#8999A5" d="M118.8,123.8c0,0.4-0.6,0.7-1.3,0.7c-0.7,0-1.3-0.3-1.3-0.7c0-0.4,0.6-0.7,1.3-0.7
							C118.2,123.2,118.8,123.5,118.8,123.8z"/>
					</g>
					<g>
						<path fill="#8999A5" d="M113.8,126.3c0.4,0,0.7,0.6,0.7,1.3c0,0.7-0.3,1.3-0.7,1.3c-0.4,0-0.7-0.6-0.7-1.3
							C113.1,126.9,113.4,126.3,113.8,126.3z"/>
						<path fill="#8999A5" d="M113.8,118.8c0.4,0,0.7,0.6,0.7,1.3c0,0.7-0.3,1.3-0.7,1.3c-0.4,0-0.7-0.6-0.7-1.3
							C113.1,119.4,113.4,118.8,113.8,118.8z"/>
					</g>
				</g>
				<path fill="#8999A5" d="M115.2,123.9c0,0.8-0.6,1.4-1.4,1.4c-0.8,0-1.4-0.6-1.4-1.4c0-0.8,0.6-1.4,1.4-1.4
					C114.6,122.5,115.2,123.1,115.2,123.9z"/>
			</g>
			<path d="M120.4,131.7H37l-0.1-0.3c-0.6-3.5-0.9-5.7-0.9-6.8c0-1.9,0.3-8.1,0.3-8.3l0-0.4H121l0,0.4c0,0.3,0.3,6.4,0.3,8.3
				c0,1-0.3,3.3-0.9,6.8L120.4,131.7z M37.6,131h82.2c0.5-3.2,0.8-5.4,0.8-6.4c0-1.6-0.3-6.6-0.3-7.9H37.1c-0.1,1.4-0.3,6.3-0.3,7.9
				C36.8,125.6,37.1,127.8,37.6,131z"/>
			<path fill="#8999A5" d="M39.8,127c0-0.3,0.3-0.5,0.7-0.5h9.6c0.4,0,0.7,0.2,0.7,0.5v1.9c0,0.3-0.3,0.5-0.7,0.5h-9.6
				c-0.4,0-0.7-0.2-0.7-0.5V127z"/>
		</g>
		<rect x="37.9" y="119.7" fill="none" width="81.1" height="10.3"/>
		<text transform="matrix(1 0 0 1 58.6783 126.8795)" fill="#FFFFFF" font-family="'Helvetica-Light'" font-size="10">Receiver</text>
	</g>
	<polyline fill="none" stroke="#000000" stroke-miterlimit="10" points="120.8,159.3 161.8,159.3 198.5,159.3 198.5,141.5 
		198.5,92.6 	"/>
	<g>
		<g>
			<path fill="#B5C0C9" d="M78.8,165.4h41.1c0.3-1.8,0.9-5.3,0.9-6.7c0-1.9-0.3-8.3-0.3-8.3H78.8h-0.6H36.6c0,0-0.3,6.4-0.3,8.3
				c0,1.4,0.6,4.9,0.9,6.7h41.1H78.8z"/>
			<path fill="#B5C0C9" d="M119.9,165.4H37.1c0,0-0.1,0-0.1-0.1c-0.6-3.4-0.9-5.7-0.9-6.7c0-1.9,0.3-8.2,0.3-8.3c0,0,0-0.1,0.1-0.1
				h83.9c0,0,0.1,0,0.1,0.1c0,0.1,0.3,6.4,0.3,8.3C120.8,159.6,120.5,162,119.9,165.4C120,165.4,119.9,165.4,119.9,165.4z
				 M37.1,165.3h82.7c0.6-3.4,0.9-5.7,0.9-6.7c0-1.8-0.3-7.6-0.3-8.2H36.6c0,0.7-0.3,6.4-0.3,8.2C36.3,159.6,36.6,161.9,37.1,165.3z
				"/>
			<path fill="#8999A5" d="M50.3,150.5c0,0,5.9,13.4,6.6,14.5h43.5c0,0,5.3-10.7,6.7-14.6L50.3,150.5z"/>
			<path fill="#231F20" d="M98.5,165.5H50.4c0,0-0.1,0-0.1-0.1s0-0.1,0.1-0.1h48.1C98.6,165.3,98.6,165.4,98.5,165.5
				C98.6,165.4,98.6,165.5,98.5,165.5z"/>
			<g>
				<g>
					<g>
						<path fill="#8999A5" d="M111.4,157.9c0,0.4-0.6,0.7-1.3,0.7c-0.7,0-1.3-0.3-1.3-0.7c0-0.4,0.6-0.7,1.3-0.7
							C110.8,157.2,111.4,157.5,111.4,157.9z"/>
						<path fill="#8999A5" d="M118.8,157.9c0,0.4-0.6,0.7-1.3,0.7c-0.7,0-1.3-0.3-1.3-0.7c0-0.4,0.6-0.7,1.3-0.7
							C118.2,157.2,118.8,157.5,118.8,157.9z"/>
					</g>
					<g>
						<path fill="#8999A5" d="M113.8,160.3c0.4,0,0.7,0.6,0.7,1.3c0,0.7-0.3,1.3-0.7,1.3c-0.4,0-0.7-0.6-0.7-1.3
							C113.1,160.9,113.4,160.3,113.8,160.3z"/>
						<path fill="#8999A5" d="M113.8,152.9c0.4,0,0.7,0.6,0.7,1.3c0,0.7-0.3,1.3-0.7,1.3c-0.4,0-0.7-0.6-0.7-1.3
							C113.1,153.4,113.4,152.9,113.8,152.9z"/>
					</g>
				</g>
				<path fill="#8999A5" d="M115.2,157.9c0,0.8-0.6,1.4-1.4,1.4c-0.8,0-1.4-0.6-1.4-1.4c0-0.8,0.6-1.4,1.4-1.4
					C114.6,156.5,115.2,157.1,115.2,157.9z"/>
			</g>
			<path d="M120.4,165.7H37l-0.1-0.3c-0.6-3.5-0.9-5.7-0.9-6.8c0-1.9,0.3-8.1,0.3-8.3l0-0.4H121l0,0.4c0,0.3,0.3,6.4,0.3,8.3
				c0,1-0.3,3.3-0.9,6.8L120.4,165.7z M37.6,165h82.2c0.5-3.2,0.8-5.4,0.8-6.4c0-1.6-0.3-6.6-0.3-7.9H37.1c-0.1,1.4-0.3,6.3-0.3,7.9
				C36.8,159.6,37.1,161.8,37.6,165z"/>
			<path fill="#8999A5" d="M39.8,161c0-0.3,0.3-0.5,0.7-0.5h9.6c0.4,0,0.7,0.2,0.7,0.5v1.9c0,0.3-0.3,0.5-0.7,0.5h-9.6
				c-0.4,0-0.7-0.2-0.7-0.5V161z"/>
		</g>
		<rect x="37.9" y="153.7" fill="none" width="81.1" height="10.3"/>
		<text transform="matrix(1 0 0 1 58.679 160.8961)" fill="#FFFFFF" font-family="'Helvetica-Light'" font-size="10">Receiver</text>
	</g>
	<polyline fill="none" stroke="#000000" stroke-miterlimit="10" points="110.1,193.4 171,193.4 207.7,193.5 207.7,175.6 
		207.7,101.1 	"/>
	<g>
		<g>
			<path fill="#B5C0C9" d="M78.8,199.5h41.1c0.3-1.8,0.9-5.3,0.9-6.7c0-1.9-0.3-8.3-0.3-8.3H78.8h-0.6H36.6c0,0-0.3,6.4-0.3,8.3
				c0,1.4,0.6,4.9,0.9,6.7h41.1H78.8z"/>
			<path fill="#B5C0C9" d="M119.9,199.6H37.1c0,0-0.1,0-0.1-0.1c-0.6-3.4-0.9-5.7-0.9-6.7c0-1.9,0.3-8.2,0.3-8.3c0,0,0-0.1,0.1-0.1
				h83.9c0,0,0.1,0,0.1,0.1c0,0.1,0.3,6.4,0.3,8.3C120.8,193.8,120.5,196.1,119.9,199.6C120,199.5,119.9,199.6,119.9,199.6z
				 M37.1,199.4h82.7c0.6-3.4,0.9-5.7,0.9-6.7c0-1.8-0.3-7.6-0.3-8.2H36.6c0,0.7-0.3,6.4-0.3,8.2C36.3,193.8,36.6,196.1,37.1,199.4z
				"/>
			<path fill="#8999A5" d="M50.3,184.6c0,0,5.9,13.4,6.6,14.5h43.5c0,0,5.3-10.7,6.7-14.6L50.3,184.6z"/>
			<path fill="#231F20" d="M98.5,199.6H50.4c0,0-0.1,0-0.1-0.1s0-0.1,0.1-0.1h48.1C98.6,199.5,98.6,199.5,98.5,199.6
				C98.6,199.6,98.6,199.6,98.5,199.6z"/>
			<g>
				<g>
					<g>
						<path fill="#8999A5" d="M111.4,192c0,0.4-0.6,0.7-1.3,0.7c-0.7,0-1.3-0.3-1.3-0.7c0-0.4,0.6-0.7,1.3-0.7
							C110.8,191.3,111.4,191.6,111.4,192z"/>
						<path fill="#8999A5" d="M118.8,192c0,0.4-0.6,0.7-1.3,0.7c-0.7,0-1.3-0.3-1.3-0.7c0-0.4,0.6-0.7,1.3-0.7
							C118.2,191.3,118.8,191.6,118.8,192z"/>
					</g>
					<g>
						<path fill="#8999A5" d="M113.8,194.4c0.4,0,0.7,0.6,0.7,1.3c0,0.7-0.3,1.3-0.7,1.3c-0.4,0-0.7-0.6-0.7-1.3
							C113.1,195,113.4,194.4,113.8,194.4z"/>
						<path fill="#8999A5" d="M113.8,187c0.4,0,0.7,0.6,0.7,1.3c0,0.7-0.3,1.3-0.7,1.3c-0.4,0-0.7-0.6-0.7-1.3
							C113.1,187.6,113.4,187,113.8,187z"/>
					</g>
				</g>
				<path fill="#8999A5" d="M115.2,192c0,0.8-0.6,1.4-1.4,1.4c-0.8,0-1.4-0.6-1.4-1.4c0-0.8,0.6-1.4,1.4-1.4
					C114.6,190.6,115.2,191.2,115.2,192z"/>
			</g>
			<path d="M120.4,199.9H37l-0.1-0.3c-0.6-3.5-0.9-5.7-0.9-6.8c0-1.9,0.3-8.1,0.3-8.3l0-0.4H121l0,0.4c0,0.3,0.3,6.4,0.3,8.3
				c0,1-0.3,3.3-0.9,6.8L120.4,199.9z M37.6,199.1h82.2c0.5-3.2,0.8-5.4,0.8-6.4c0-1.6-0.3-6.6-0.3-7.9H37.1
				c-0.1,1.4-0.3,6.3-0.3,7.9C36.8,193.7,37.1,195.9,37.6,199.1z"/>
			<path fill="#8999A5" d="M39.8,195.1c0-0.3,0.3-0.5,0.7-0.5h9.6c0.4,0,0.7,0.2,0.7,0.5v1.9c0,0.3-0.3,0.5-0.7,0.5h-9.6
				c-0.4,0-0.7-0.2-0.7-0.5V195.1z"/>
		</g>
		<rect x="37.9" y="187.8" fill="none" width="81.1" height="10.3"/>
		<text transform="matrix(1 0 0 1 58.679 195.0258)" fill="#FFFFFF" font-family="'Helvetica-Light'" font-size="10">Receiver</text>
	</g>
	<rect x="12.3" y="38" fill="none" width="35.5" height="10.3"/>
	<text transform="matrix(1 0 0 1 15.1714 43.7255)" fill="#FFFFFF" font-family="'Helvetica'" font-size="8">Antenna</text>
	<rect x="63.8" y="38" fill="none" width="41.1" height="10.3"/>
	<text transform="matrix(1 0 0 1 70.5573 43.7255)" fill="#FFFFFF" font-family="'Helvetica'" font-size="8">TV-Hub</text>
	<rect x="170.4" y="37.9" fill="none" width="41.1" height="10.3"/>
	<text transform="matrix(1 0 0 1 178.5307 43.6699)" fill="#FFFFFF" font-family="'Helvetica'" font-size="8">Splitter</text>
	<rect x="17.8" y="90.2" fill="none" width="84.2" height="10.3"/>
	<text transform="matrix(1 0 0 1 33.1731 95.9023)" fill="#FFFFFF" font-family="'Helvetica'" font-size="8">Can Be Master</text>
	<rect x="36.3" y="136.1" fill="none" width="84.2" height="10.3"/>
	<text transform="matrix(1 0 0 1 51.7308 141.8704)" fill="#FFFFFF" font-family="'Helvetica'" font-size="8">Can Be Master</text>
	<rect x="36.3" y="169.8" fill="none" width="84.2" height="10.3"/>
	<text transform="matrix(1 0 0 1 51.7308 175.5285)" fill="#FFFFFF" font-family="'Helvetica'" font-size="8">Can Be Master</text>
	<rect x="36.3" y="203" fill="none" width="84.2" height="10.3"/>
	<text transform="matrix(1 0 0 1 51.7308 208.7329)" fill="#FFFFFF" font-family="'Helvetica'" font-size="8">Can Be Master</text>
	<rect x="212" y="109.8" fill="none" width="10.3" height="83.9"/>
	<text transform="matrix(0 1 -1 0 218.0765 140.345)" font-family="'Helvetica-Light'" font-size="6">Optional</text>
	<g>
		<rect x="233.3" y="48.7" fill="#B5C0C9" width="4.6" height="5.9"/>
		<rect x="233.3" y="48.7" fill="none" width="4.6" height="5.9"/>
		
			<rect x="233.3" y="53.7" transform="matrix(-0.9925 -0.1219 0.1219 -0.9925 462.797 135.8063)" fill="#FFFFFF" width="4.6" height="0.1"/>
		
			<rect x="233.3" y="52.3" transform="matrix(-0.9925 -0.1219 0.1219 -0.9925 462.9681 133.011)" fill="#FFFFFF" width="4.6" height="0.1"/>
		
			<rect x="233.3" y="50.9" transform="matrix(-0.9925 -0.1219 0.1219 -0.9925 463.1392 130.2155)" fill="#FFFFFF" width="4.6" height="0.1"/>
		
			<rect x="233.3" y="49.5" transform="matrix(-0.9925 -0.1219 0.1219 -0.9925 463.3102 127.4201)" fill="#FFFFFF" width="4.6" height="0.1"/>
		<path fill="#B5C0C9" d="M231.9,46.3c-0.4,0-0.7,0.3-0.7,0.7V48c0,0.4,0.3,0.7,0.7,0.7h7.5c0.4,0,0.7-0.3,0.7-0.7V47
			c0-0.4-0.3-0.7-0.7-0.7H231.9z"/>
		<path fill="#FFFFFF" d="M239.3,48.9h-7.5c-0.5,0-0.8-0.4-0.8-0.8V47c0-0.5,0.4-0.8,0.8-0.8h7.5c0.5,0,0.8,0.4,0.8,0.8V48
			C240.2,48.5,239.8,48.9,239.3,48.9z M231.9,46.4c-0.3,0-0.6,0.3-0.6,0.6V48c0,0.3,0.3,0.6,0.6,0.6h7.5c0.3,0,0.6-0.3,0.6-0.6V47
			c0-0.3-0.3-0.6-0.6-0.6H231.9z"/>
		<rect x="224.5" y="27.1" fill="#B5C0C9" width="4.6" height="5.9"/>
		<rect x="224.5" y="27.1" fill="none" width="4.6" height="5.9"/>
		
			<rect x="224.4" y="27.9" transform="matrix(-0.9925 0.1219 -0.1219 -0.9925 455.2092 28.0045)" fill="#FFFFFF" width="4.6" height="0.1"/>
		
			<rect x="224.4" y="29.3" transform="matrix(-0.9925 0.1219 -0.1219 -0.9925 455.3803 30.8)" fill="#FFFFFF" width="4.6" height="0.1"/>
		
			<rect x="224.4" y="30.7" transform="matrix(-0.9925 0.1219 -0.1219 -0.9925 455.5513 33.5953)" fill="#FFFFFF" width="4.6" height="0.1"/>
		
			<rect x="224.4" y="32.1" transform="matrix(-0.9925 0.1219 -0.1219 -0.9925 455.7224 36.3907)" fill="#FFFFFF" width="4.6" height="0.1"/>
		<path fill="#B5C0C9" d="M223.1,35.4c-0.4,0-0.7-0.3-0.7-0.7v-1.1c0-0.4,0.3-0.7,0.7-0.7h7.5c0.4,0,0.7,0.3,0.7,0.7v1.1
			c0,0.4-0.3,0.7-0.7,0.7H223.1z"/>
		<path fill="#FFFFFF" d="M230.5,35.5h-7.5c-0.5,0-0.8-0.4-0.8-0.8v-1.1c0-0.5,0.4-0.8,0.8-0.8h7.5c0.5,0,0.8,0.4,0.8,0.8v1.1
			C231.4,35.2,231,35.5,230.5,35.5z M223.1,33c-0.3,0-0.6,0.3-0.6,0.6v1.1c0,0.3,0.3,0.6,0.6,0.6h7.5c0.3,0,0.6-0.3,0.6-0.6v-1.1
			c0-0.3-0.3-0.6-0.6-0.6H223.1z"/>
		<rect x="215.3" y="48.7" fill="#B5C0C9" width="4.6" height="5.9"/>
		<rect x="215.3" y="48.7" fill="none" width="4.6" height="5.9"/>
		
			<rect x="215.3" y="53.7" transform="matrix(-0.9925 -0.1219 0.1219 -0.9925 427.0143 133.6165)" fill="#FFFFFF" width="4.6" height="0.1"/>
		
			<rect x="215.3" y="52.3" transform="matrix(-0.9925 -0.1219 0.1219 -0.9925 427.1853 130.8212)" fill="#FFFFFF" width="4.6" height="0.1"/>
		
			<rect x="215.3" y="50.9" transform="matrix(-0.9925 -0.1219 0.1219 -0.9925 427.3564 128.0258)" fill="#FFFFFF" width="4.6" height="0.1"/>
		
			<rect x="215.3" y="49.5" transform="matrix(-0.9925 -0.1219 0.1219 -0.9925 427.5275 125.2303)" fill="#FFFFFF" width="4.6" height="0.1"/>
		<path fill="#B5C0C9" d="M213.9,46.3c-0.4,0-0.7,0.3-0.7,0.7V48c0,0.4,0.3,0.7,0.7,0.7h7.5c0.4,0,0.7-0.3,0.7-0.7V47
			c0-0.4-0.3-0.7-0.7-0.7H213.9z"/>
		<path fill="#FFFFFF" d="M221.4,48.9h-7.5c-0.5,0-0.8-0.4-0.8-0.8V47c0-0.5,0.4-0.8,0.8-0.8h7.5c0.5,0,0.8,0.4,0.8,0.8V48
			C222.2,48.5,221.8,48.9,221.4,48.9z M213.9,46.4c-0.3,0-0.6,0.3-0.6,0.6V48c0,0.3,0.3,0.6,0.6,0.6h7.5c0.3,0,0.6-0.3,0.6-0.6V47
			c0-0.3-0.3-0.6-0.6-0.6H213.9z"/>
		<rect x="212.4" y="34.3" fill="#B5C0C9" width="28.7" height="13.1"/>
		<path fill="#FFFFFF" d="M241.3,47.5h-29V34.2h29V47.5z M212.6,47.3h28.5V34.4h-28.5V47.3z"/>
		<path fill="#B5C0C9" d="M212.6,47.6c0.2,0,0.3-0.1,0.3-0.3v-13c0-0.2-0.1-0.3-0.3-0.3h-0.6c-0.2,0-0.3,0.1-0.3,0.3v13
			c0,0.2,0.1,0.3,0.3,0.3H212.6z"/>
		<path fill="#FFFFFF" d="M212.6,47.8h-0.6c-0.2,0-0.4-0.2-0.4-0.4v-13c0-0.2,0.2-0.4,0.4-0.4h0.6c0.2,0,0.4,0.2,0.4,0.4v13
			C213,47.6,212.8,47.8,212.6,47.8z M211.9,34.2c-0.1,0-0.1,0.1-0.1,0.1v13c0,0.1,0.1,0.1,0.1,0.1h0.6c0.1,0,0.1-0.1,0.1-0.1v-13
			c0-0.1-0.1-0.1-0.1-0.1H211.9z"/>
		<path fill="#B5C0C9" d="M241.6,47.6c0.2,0,0.3-0.1,0.3-0.3v-13c0-0.2-0.1-0.3-0.3-0.3H241c-0.2,0-0.3,0.1-0.3,0.3v13
			c0,0.2,0.1,0.3,0.3,0.3H241.6z"/>
		<path fill="#FFFFFF" d="M241.6,47.8H241c-0.2,0-0.4-0.2-0.4-0.4v-13c0-0.2,0.2-0.4,0.4-0.4h0.6c0.2,0,0.4,0.2,0.4,0.4v13
			C242,47.6,241.9,47.8,241.6,47.8z M241,34.2c-0.1,0-0.1,0.1-0.1,0.1v13c0,0.1,0.1,0.1,0.1,0.1h0.6c0.1,0,0.1-0.1,0.1-0.1v-13
			c0-0.1-0.1-0.1-0.1-0.1H241z"/>
	</g>
	<g>
		<g>
			<g>
				<g>
					<rect x="233.8" y="70.4" fill="#B5C0C9" width="2.7" height="3.4"/>
					<rect x="233.8" y="70.4" fill="none" stroke="#FFFFFF" stroke-width="0.25" stroke-miterlimit="10" width="2.7" height="3.4"/>
					<path fill="#B5C0C9" d="M237.3,75.2c0.2,0,0.4-0.2,0.4-0.4v-0.6c0-0.2-0.2-0.4-0.4-0.4h-4.4c-0.2,0-0.4,0.2-0.4,0.4v0.6
						c0,0.2,0.2,0.4,0.4,0.4H237.3z"/>
					<path fill="#FFFFFF" d="M237.3,75.3h-4.4c-0.3,0-0.5-0.2-0.5-0.5v-0.6c0-0.3,0.2-0.5,0.5-0.5h4.4c0.3,0,0.5,0.2,0.5,0.5v0.6
						C237.8,75.1,237.6,75.3,237.3,75.3z M232.9,73.9c-0.2,0-0.3,0.1-0.3,0.3v0.6c0,0.2,0.1,0.3,0.3,0.3h4.4c0.2,0,0.3-0.1,0.3-0.3
						v-0.6c0-0.2-0.1-0.3-0.3-0.3H232.9z"/>
				</g>
				<g>
					<rect x="224.7" y="70.4" fill="#B5C0C9" width="2.7" height="3.4"/>
					<rect x="224.7" y="70.4" fill="none" stroke="#FFFFFF" stroke-width="0.25" stroke-miterlimit="10" width="2.7" height="3.4"/>
					<path fill="#B5C0C9" d="M228.2,75.2c0.2,0,0.4-0.2,0.4-0.4v-0.6c0-0.2-0.2-0.4-0.4-0.4h-4.4c-0.2,0-0.4,0.2-0.4,0.4v0.6
						c0,0.2,0.2,0.4,0.4,0.4H228.2z"/>
					<path fill="#FFFFFF" d="M228.2,75.3h-4.4c-0.3,0-0.5-0.2-0.5-0.5v-0.6c0-0.3,0.2-0.5,0.5-0.5h4.4c0.3,0,0.5,0.2,0.5,0.5v0.6
						C228.7,75.1,228.5,75.3,228.2,75.3z M223.8,73.9c-0.2,0-0.3,0.1-0.3,0.3v0.6c0,0.2,0.1,0.3,0.3,0.3h4.4c0.2,0,0.3-0.1,0.3-0.3
						v-0.6c0-0.2-0.1-0.3-0.3-0.3H223.8z"/>
				</g>
				<g>
					<rect x="215.5" y="70.4" fill="#B5C0C9" width="2.7" height="3.4"/>
					<rect x="215.5" y="70.4" fill="none" stroke="#FFFFFF" stroke-width="0.25" stroke-miterlimit="10" width="2.7" height="3.4"/>
					<path fill="#B5C0C9" d="M219,75.2c0.2,0,0.4-0.2,0.4-0.4v-0.6c0-0.2-0.2-0.4-0.4-0.4h-4.4c-0.2,0-0.4,0.2-0.4,0.4v0.6
						c0,0.2,0.2,0.4,0.4,0.4H219z"/>
					<path fill="#FFFFFF" d="M219,75.3h-4.4c-0.3,0-0.5-0.2-0.5-0.5v-0.6c0-0.3,0.2-0.5,0.5-0.5h4.4c0.3,0,0.5,0.2,0.5,0.5v0.6
						C219.6,75.1,219.3,75.3,219,75.3z M214.7,73.9c-0.2,0-0.3,0.1-0.3,0.3v0.6c0,0.2,0.1,0.3,0.3,0.3h4.4c0.2,0,0.3-0.1,0.3-0.3
						v-0.6c0-0.2-0.1-0.3-0.3-0.3H214.7z"/>
				</g>
				<g>
					<rect x="206.4" y="70.4" fill="#B5C0C9" width="2.7" height="3.4"/>
					<rect x="206.4" y="70.4" fill="none" stroke="#FFFFFF" stroke-width="0.25" stroke-miterlimit="10" width="2.7" height="3.4"/>
					<path fill="#B5C0C9" d="M209.9,75.2c0.2,0,0.4-0.2,0.4-0.4v-0.6c0-0.2-0.2-0.4-0.4-0.4h-4.4c-0.2,0-0.4,0.2-0.4,0.4v0.6
						c0,0.2,0.2,0.4,0.4,0.4H209.9z"/>
					<path fill="#FFFFFF" d="M209.9,75.3h-4.4c-0.3,0-0.5-0.2-0.5-0.5v-0.6c0-0.3,0.2-0.5,0.5-0.5h4.4c0.3,0,0.5,0.2,0.5,0.5v0.6
						C210.4,75.1,210.2,75.3,209.9,75.3z M205.5,73.9c-0.2,0-0.3,0.1-0.3,0.3v0.6c0,0.2,0.1,0.3,0.3,0.3h4.4c0.2,0,0.3-0.1,0.3-0.3
						v-0.6c0-0.2-0.1-0.3-0.3-0.3H205.5z"/>
				</g>
				<g>
					<rect x="197.2" y="70.4" fill="#B5C0C9" width="2.7" height="3.4"/>
					<rect x="197.2" y="70.4" fill="none" stroke="#FFFFFF" stroke-width="0.25" stroke-miterlimit="10" width="2.7" height="3.4"/>
					<path fill="#B5C0C9" d="M200.7,75.2c0.2,0,0.4-0.2,0.4-0.4v-0.6c0-0.2-0.2-0.4-0.4-0.4h-4.4c-0.2,0-0.4,0.2-0.4,0.4v0.6
						c0,0.2,0.2,0.4,0.4,0.4H200.7z"/>
					<path fill="#FFFFFF" d="M200.7,75.3h-4.4c-0.3,0-0.5-0.2-0.5-0.5v-0.6c0-0.3,0.2-0.5,0.5-0.5h4.4c0.3,0,0.5,0.2,0.5,0.5v0.6
						C201.2,75.1,201,75.3,200.7,75.3z M196.3,73.9c-0.2,0-0.3,0.1-0.3,0.3v0.6c0,0.2,0.1,0.3,0.3,0.3h4.4c0.2,0,0.3-0.1,0.3-0.3
						v-0.6c0-0.2-0.1-0.3-0.3-0.3H196.3z"/>
				</g>
				<g>
					<rect x="188" y="70.4" fill="#B5C0C9" width="2.7" height="3.4"/>
					<rect x="188" y="70.4" fill="none" stroke="#FFFFFF" stroke-width="0.25" stroke-miterlimit="10" width="2.7" height="3.4"/>
					<path fill="#B5C0C9" d="M191.6,75.2c0.2,0,0.4-0.2,0.4-0.4v-0.6c0-0.2-0.2-0.4-0.4-0.4h-4.4c-0.2,0-0.4,0.2-0.4,0.4v0.6
						c0,0.2,0.2,0.4,0.4,0.4H191.6z"/>
					<path fill="#FFFFFF" d="M191.6,75.3h-4.4c-0.3,0-0.5-0.2-0.5-0.5v-0.6c0-0.3,0.2-0.5,0.5-0.5h4.4c0.3,0,0.5,0.2,0.5,0.5v0.6
						C192.1,75.1,191.8,75.3,191.6,75.3z M187.2,73.9c-0.2,0-0.3,0.1-0.3,0.3v0.6c0,0.2,0.1,0.3,0.3,0.3h4.4c0.2,0,0.3-0.1,0.3-0.3
						v-0.6c0-0.2-0.1-0.3-0.3-0.3H187.2z"/>
				</g>
				<g>
					<rect x="178.9" y="70.4" fill="#B5C0C9" width="2.7" height="3.4"/>
					<rect x="178.9" y="70.4" fill="none" stroke="#FFFFFF" stroke-width="0.25" stroke-miterlimit="10" width="2.7" height="3.4"/>
					<path fill="#B5C0C9" d="M182.4,75.2c0.2,0,0.4-0.2,0.4-0.4v-0.6c0-0.2-0.2-0.4-0.4-0.4H178c-0.2,0-0.4,0.2-0.4,0.4v0.6
						c0,0.2,0.2,0.4,0.4,0.4H182.4z"/>
					<path fill="#FFFFFF" d="M182.4,75.3H178c-0.3,0-0.5-0.2-0.5-0.5v-0.6c0-0.3,0.2-0.5,0.5-0.5h4.4c0.3,0,0.5,0.2,0.5,0.5v0.6
						C182.9,75.1,182.7,75.3,182.4,75.3z M178,73.9c-0.2,0-0.3,0.1-0.3,0.3v0.6c0,0.2,0.1,0.3,0.3,0.3h4.4c0.2,0,0.3-0.1,0.3-0.3
						v-0.6c0-0.2-0.1-0.3-0.3-0.3H178z"/>
				</g>
				<g>
					<rect x="169.7" y="70.4" fill="#B5C0C9" width="2.7" height="3.4"/>
					<rect x="169.7" y="70.4" fill="none" stroke="#FFFFFF" stroke-width="0.25" stroke-miterlimit="10" width="2.7" height="3.4"/>
					<path fill="#B5C0C9" d="M173.2,75.2c0.2,0,0.4-0.2,0.4-0.4v-0.6c0-0.2-0.2-0.4-0.4-0.4h-4.4c-0.2,0-0.4,0.2-0.4,0.4v0.6
						c0,0.2,0.2,0.4,0.4,0.4H173.2z"/>
					<path fill="#FFFFFF" d="M173.2,75.3h-4.4c-0.3,0-0.5-0.2-0.5-0.5v-0.6c0-0.3,0.2-0.5,0.5-0.5h4.4c0.3,0,0.5,0.2,0.5,0.5v0.6
						C173.8,75.1,173.5,75.3,173.2,75.3z M168.9,73.9c-0.2,0-0.3,0.1-0.3,0.3v0.6c0,0.2,0.1,0.3,0.3,0.3h4.4c0.2,0,0.3-0.1,0.3-0.3
						v-0.6c0-0.2-0.1-0.3-0.3-0.3H168.9z"/>
				</g>
			</g>
			<g>
				<g>
					<rect x="233.8" y="98.9" fill="#B5C0C9" width="2.7" height="3.4"/>
					<rect x="233.8" y="98.9" fill="none" stroke="#FFFFFF" stroke-width="0.25" stroke-miterlimit="10" width="2.7" height="3.4"/>
					<path fill="#B5C0C9" d="M237.3,97.4c0.2,0,0.4,0.2,0.4,0.4v0.6c0,0.2-0.2,0.4-0.4,0.4h-4.4c-0.2,0-0.4-0.2-0.4-0.4v-0.6
						c0-0.2,0.2-0.4,0.4-0.4H237.3z"/>
					<path fill="#FFFFFF" d="M237.8,97.8v0.6c0,0.3-0.2,0.5-0.5,0.5h-4.4c-0.3,0-0.5-0.2-0.5-0.5v-0.6c0-0.3,0.2-0.5,0.5-0.5h4.4
						C237.6,97.3,237.8,97.6,237.8,97.8z M237.3,98.8c0.2,0,0.3-0.1,0.3-0.3v-0.6c0-0.2-0.1-0.3-0.3-0.3h-4.4
						c-0.2,0-0.3,0.1-0.3,0.3v0.6c0,0.2,0.1,0.3,0.3,0.3H237.3z"/>
				</g>
				<g>
					<rect x="224.7" y="98.9" fill="#B5C0C9" width="2.7" height="3.4"/>
					<rect x="224.7" y="98.9" fill="none" stroke="#FFFFFF" stroke-width="0.25" stroke-miterlimit="10" width="2.7" height="3.4"/>
					<path fill="#B5C0C9" d="M228.2,97.4c0.2,0,0.4,0.2,0.4,0.4v0.6c0,0.2-0.2,0.4-0.4,0.4h-4.4c-0.2,0-0.4-0.2-0.4-0.4v-0.6
						c0-0.2,0.2-0.4,0.4-0.4H228.2z"/>
					<path fill="#FFFFFF" d="M228.7,97.8v0.6c0,0.3-0.2,0.5-0.5,0.5h-4.4c-0.3,0-0.5-0.2-0.5-0.5v-0.6c0-0.3,0.2-0.5,0.5-0.5h4.4
						C228.5,97.3,228.7,97.6,228.7,97.8z M228.2,98.8c0.2,0,0.3-0.1,0.3-0.3v-0.6c0-0.2-0.1-0.3-0.3-0.3h-4.4
						c-0.2,0-0.3,0.1-0.3,0.3v0.6c0,0.2,0.1,0.3,0.3,0.3H228.2z"/>
				</g>
				<g>
					<rect x="215.5" y="98.9" fill="#B5C0C9" width="2.7" height="3.4"/>
					<rect x="215.5" y="98.9" fill="none" stroke="#FFFFFF" stroke-width="0.25" stroke-miterlimit="10" width="2.7" height="3.4"/>
					<path fill="#B5C0C9" d="M219,97.4c0.2,0,0.4,0.2,0.4,0.4v0.6c0,0.2-0.2,0.4-0.4,0.4h-4.4c-0.2,0-0.4-0.2-0.4-0.4v-0.6
						c0-0.2,0.2-0.4,0.4-0.4H219z"/>
					<path fill="#FFFFFF" d="M219.6,97.8v0.6c0,0.3-0.2,0.5-0.5,0.5h-4.4c-0.3,0-0.5-0.2-0.5-0.5v-0.6c0-0.3,0.2-0.5,0.5-0.5h4.4
						C219.3,97.3,219.6,97.6,219.6,97.8z M219,98.8c0.2,0,0.3-0.1,0.3-0.3v-0.6c0-0.2-0.1-0.3-0.3-0.3h-4.4c-0.2,0-0.3,0.1-0.3,0.3
						v0.6c0,0.2,0.1,0.3,0.3,0.3H219z"/>
				</g>
				<g>
					<rect x="206.4" y="98.9" fill="#B5C0C9" width="2.7" height="3.4"/>
					<rect x="206.4" y="98.9" fill="none" stroke="#FFFFFF" stroke-width="0.25" stroke-miterlimit="10" width="2.7" height="3.4"/>
					<path fill="#B5C0C9" d="M209.9,97.4c0.2,0,0.4,0.2,0.4,0.4v0.6c0,0.2-0.2,0.4-0.4,0.4h-4.4c-0.2,0-0.4-0.2-0.4-0.4v-0.6
						c0-0.2,0.2-0.4,0.4-0.4H209.9z"/>
					<path fill="#FFFFFF" d="M210.4,97.8v0.6c0,0.3-0.2,0.5-0.5,0.5h-4.4c-0.3,0-0.5-0.2-0.5-0.5v-0.6c0-0.3,0.2-0.5,0.5-0.5h4.4
						C210.2,97.3,210.4,97.6,210.4,97.8z M209.9,98.8c0.2,0,0.3-0.1,0.3-0.3v-0.6c0-0.2-0.1-0.3-0.3-0.3h-4.4
						c-0.2,0-0.3,0.1-0.3,0.3v0.6c0,0.2,0.1,0.3,0.3,0.3H209.9z"/>
				</g>
				<g>
					<rect x="197.2" y="98.9" fill="#B5C0C9" width="2.7" height="3.4"/>
					<rect x="197.2" y="98.9" fill="none" stroke="#FFFFFF" stroke-width="0.25" stroke-miterlimit="10" width="2.7" height="3.4"/>
					<path fill="#B5C0C9" d="M200.7,97.4c0.2,0,0.4,0.2,0.4,0.4v0.6c0,0.2-0.2,0.4-0.4,0.4h-4.4c-0.2,0-0.4-0.2-0.4-0.4v-0.6
						c0-0.2,0.2-0.4,0.4-0.4H200.7z"/>
					<path fill="#FFFFFF" d="M201.2,97.8v0.6c0,0.3-0.2,0.5-0.5,0.5h-4.4c-0.3,0-0.5-0.2-0.5-0.5v-0.6c0-0.3,0.2-0.5,0.5-0.5h4.4
						C201,97.3,201.2,97.6,201.2,97.8z M200.7,98.8c0.2,0,0.3-0.1,0.3-0.3v-0.6c0-0.2-0.1-0.3-0.3-0.3h-4.4c-0.2,0-0.3,0.1-0.3,0.3
						v0.6c0,0.2,0.1,0.3,0.3,0.3H200.7z"/>
				</g>
				<g>
					<rect x="188" y="98.9" fill="#B5C0C9" width="2.7" height="3.4"/>
					<rect x="188" y="98.9" fill="none" stroke="#FFFFFF" stroke-width="0.25" stroke-miterlimit="10" width="2.7" height="3.4"/>
					<path fill="#B5C0C9" d="M191.6,97.4c0.2,0,0.4,0.2,0.4,0.4v0.6c0,0.2-0.2,0.4-0.4,0.4h-4.4c-0.2,0-0.4-0.2-0.4-0.4v-0.6
						c0-0.2,0.2-0.4,0.4-0.4H191.6z"/>
					<path fill="#FFFFFF" d="M192.1,97.8v0.6c0,0.3-0.2,0.5-0.5,0.5h-4.4c-0.3,0-0.5-0.2-0.5-0.5v-0.6c0-0.3,0.2-0.5,0.5-0.5h4.4
						C191.8,97.3,192.1,97.6,192.1,97.8z M191.6,98.8c0.2,0,0.3-0.1,0.3-0.3v-0.6c0-0.2-0.1-0.3-0.3-0.3h-4.4
						c-0.2,0-0.3,0.1-0.3,0.3v0.6c0,0.2,0.1,0.3,0.3,0.3H191.6z"/>
				</g>
				<g>
					<rect x="178.9" y="98.9" fill="#B5C0C9" width="2.7" height="3.4"/>
					<rect x="178.9" y="98.9" fill="none" stroke="#FFFFFF" stroke-width="0.25" stroke-miterlimit="10" width="2.7" height="3.4"/>
					<path fill="#B5C0C9" d="M182.4,97.4c0.2,0,0.4,0.2,0.4,0.4v0.6c0,0.2-0.2,0.4-0.4,0.4H178c-0.2,0-0.4-0.2-0.4-0.4v-0.6
						c0-0.2,0.2-0.4,0.4-0.4H182.4z"/>
					<path fill="#FFFFFF" d="M182.9,97.8v0.6c0,0.3-0.2,0.5-0.5,0.5H178c-0.3,0-0.5-0.2-0.5-0.5v-0.6c0-0.3,0.2-0.5,0.5-0.5h4.4
						C182.7,97.3,182.9,97.6,182.9,97.8z M182.4,98.8c0.2,0,0.3-0.1,0.3-0.3v-0.6c0-0.2-0.1-0.3-0.3-0.3H178c-0.2,0-0.3,0.1-0.3,0.3
						v0.6c0,0.2,0.1,0.3,0.3,0.3H182.4z"/>
				</g>
				<g>
					<rect x="169.7" y="98.9" fill="#B5C0C9" width="2.7" height="3.4"/>
					<rect x="169.7" y="98.9" fill="none" stroke="#FFFFFF" stroke-width="0.25" stroke-miterlimit="10" width="2.7" height="3.4"/>
					<path fill="#B5C0C9" d="M173.2,97.4c0.2,0,0.4,0.2,0.4,0.4v0.6c0,0.2-0.2,0.4-0.4,0.4h-4.4c-0.2,0-0.4-0.2-0.4-0.4v-0.6
						c0-0.2,0.2-0.4,0.4-0.4H173.2z"/>
					<path fill="#FFFFFF" d="M173.8,97.8v0.6c0,0.3-0.2,0.5-0.5,0.5h-4.4c-0.3,0-0.5-0.2-0.5-0.5v-0.6c0-0.3,0.2-0.5,0.5-0.5h4.4
						C173.5,97.3,173.8,97.6,173.8,97.8z M173.2,98.8c0.2,0,0.3-0.1,0.3-0.3v-0.6c0-0.2-0.1-0.3-0.3-0.3h-4.4
						c-0.2,0-0.3,0.1-0.3,0.3v0.6c0,0.2,0.1,0.3,0.3,0.3H173.2z"/>
				</g>
			</g>
			<rect x="165.5" y="74.8" fill="#B5C0C9" width="75.9" height="23.3"/>
			<path fill="#FFFFFF" d="M241.6,98.2h-76.1V74.7h76.1V98.2z M165.6,98h75.7V74.9h-75.7V98z"/>
			<path fill="#B5C0C9" d="M241,98.5c-0.3,0-0.5-0.2-0.5-0.5V74.8c0-0.3,0.2-0.5,0.5-0.5h1.1c0.3,0,0.5,0.2,0.5,0.5V98
				c0,0.3-0.2,0.5-0.5,0.5H241z"/>
			<path fill="#FFFFFF" d="M242.1,98.6H241c-0.3,0-0.6-0.3-0.6-0.6V74.8c0-0.3,0.3-0.6,0.6-0.6h1.1c0.3,0,0.6,0.3,0.6,0.6V98
				C242.7,98.3,242.4,98.6,242.1,98.6z M241,74.4c-0.2,0-0.4,0.2-0.4,0.4V98c0,0.2,0.2,0.4,0.4,0.4h1.1c0.2,0,0.4-0.2,0.4-0.4V74.8
				c0-0.2-0.2-0.4-0.4-0.4H241z"/>
			<path fill="#B5C0C9" d="M164.4,98.5c-0.3,0-0.5-0.2-0.5-0.5V74.8c0-0.3,0.2-0.5,0.5-0.5h1.1c0.3,0,0.5,0.2,0.5,0.5V98
				c0,0.3-0.2,0.5-0.5,0.5H164.4z"/>
			<path fill="#FFFFFF" d="M165.6,98.6h-1.1c-0.3,0-0.6-0.3-0.6-0.6V74.8c0-0.3,0.3-0.6,0.6-0.6h1.1c0.3,0,0.6,0.3,0.6,0.6V98
				C166.2,98.3,165.9,98.6,165.6,98.6z M164.4,74.4c-0.2,0-0.4,0.2-0.4,0.4V98c0,0.2,0.2,0.4,0.4,0.4h1.1c0.2,0,0.4-0.2,0.4-0.4
				V74.8c0-0.2-0.2-0.4-0.4-0.4H164.4z"/>
		</g>
		<rect x="163.8" y="82.8" fill="none" width="78.6" height="10.3"/>
		<text transform="matrix(1 0 0 1 178.383 89.958)" fill="#FFFFFF" font-family="'Helvetica-Light'" font-size="10">Multiswitch</text>
	</g>
	<g>
		<rect x="155.4" y="203" fill="none" width="40.3" height="7.1"/>
		<text transform="matrix(1 0 0 1 155.3643 207.3008)" fill="#FFFFFF" font-family="'Helvetica-Light'" font-size="6">IP AutoSwitch</text>
		<g>
			<rect x="166" y="192.6" fill="#B5C0C9" width="2.6" height="1.5"/>
			<rect x="166" y="192.6" fill="none" stroke="#FFFFFF" stroke-width="0.15" stroke-miterlimit="10" width="2.6" height="1.5"/>
			<rect x="153.4" y="192.6" fill="#B5C0C9" width="2.6" height="1.5"/>
			<rect x="153.4" y="192.6" fill="none" stroke="#FFFFFF" stroke-width="0.15" stroke-miterlimit="10" width="2.6" height="1.5"/>
			<path fill="#B5C0C9" d="M166,197.2l0.5-0.3h0.3c0,0,0.1-0.4,0.1-0.7c0-0.3-0.1-0.7-0.1-0.7h-0.3l-0.7-0.4L166,197.2z"/>
			<path fill="#FFFFFF" d="M165.7,194.8l0.8,0.5h0.3l0,0.1c0,0,0.1,0.4,0.1,0.8c0,0.3-0.1,0.7-0.1,0.8l0,0.1h-0.3l-0.6,0.4
				L165.7,194.8z M166.7,195.5h-0.2l-0.5-0.3l0.1,1.8l0.4-0.2h0.2c0-0.1,0.1-0.4,0.1-0.6C166.8,195.9,166.7,195.6,166.7,195.5z"/>
			<rect x="155.8" y="191" fill="#B5C0C9" width="9.9" height="7.3"/>
			<path fill="#FFFFFF" d="M155.7,198.3v-7.5h10.1v7.5H155.7z M155.9,191.1v7.1h9.7v-7.1H155.9z"/>
			<path fill="#B5C0C9" d="M165.6,190.8c-0.1,0-0.2,0.1-0.2,0.2v7.2c0,0.1,0.1,0.2,0.2,0.2h0.4c0.1,0,0.2-0.1,0.2-0.2V191
				c0-0.1-0.1-0.2-0.2-0.2H165.6z"/>
			<path fill="#FFFFFF" d="M165.4,198.2V191c0-0.1,0.1-0.3,0.3-0.3h0.4c0.1,0,0.3,0.1,0.3,0.3v7.2c0,0.1-0.1,0.3-0.3,0.3h-0.4
				C165.5,198.5,165.4,198.3,165.4,198.2z M166,191C166,191,166,190.9,166,191l-0.4-0.1c0,0-0.1,0-0.1,0.1v7.2c0,0,0,0,0.1,0h0.4
				c0,0,0,0,0,0V191z"/>
			<path fill="#B5C0C9" d="M155.5,190.8c-0.1,0-0.2,0.1-0.2,0.2v7.2c0,0.1,0.1,0.2,0.2,0.2h0.4c0.1,0,0.2-0.1,0.2-0.2V191
				c0-0.1-0.1-0.2-0.2-0.2H155.5z"/>
			<path fill="#FFFFFF" d="M155.3,198.2V191c0-0.1,0.1-0.3,0.3-0.3h0.4c0.1,0,0.3,0.1,0.3,0.3v7.2c0,0.1-0.1,0.3-0.3,0.3h-0.4
				C155.4,198.5,155.3,198.3,155.3,198.2z M155.9,191C155.9,191,155.9,190.9,155.9,191l-0.4-0.1c0,0-0.1,0-0.1,0.1v7.2
				c0,0,0,0,0.1,0h0.4c0,0,0,0,0,0V191z"/>
		</g>
	</g>
	<g>
		<rect x="155.4" y="168.9" fill="none" width="40.3" height="7.1"/>
		<text transform="matrix(1 0 0 1 155.3643 173.1726)" fill="#FFFFFF" font-family="'Helvetica-Light'" font-size="6">IP AutoSwitch</text>
		<g>
			<rect x="166" y="158.4" fill="#B5C0C9" width="2.6" height="1.5"/>
			<rect x="166" y="158.4" fill="none" stroke="#FFFFFF" stroke-width="0.15" stroke-miterlimit="10" width="2.6" height="1.5"/>
			<rect x="153.4" y="158.4" fill="#B5C0C9" width="2.6" height="1.5"/>
			<rect x="153.4" y="158.4" fill="none" stroke="#FFFFFF" stroke-width="0.15" stroke-miterlimit="10" width="2.6" height="1.5"/>
			<path fill="#B5C0C9" d="M166,163l0.5-0.3h0.3c0,0,0.1-0.4,0.1-0.7c0-0.3-0.1-0.7-0.1-0.7h-0.3l-0.7-0.4L166,163z"/>
			<path fill="#FFFFFF" d="M165.7,160.7l0.8,0.5h0.3l0,0.1c0,0,0.1,0.4,0.1,0.8c0,0.3-0.1,0.7-0.1,0.8l0,0.1h-0.3l-0.6,0.4
				L165.7,160.7z M166.7,161.4h-0.2L166,161l0.1,1.8l0.4-0.2h0.2c0-0.1,0.1-0.4,0.1-0.6C166.8,161.8,166.7,161.5,166.7,161.4z"/>
			<rect x="155.8" y="156.8" fill="#B5C0C9" width="9.9" height="7.3"/>
			<path fill="#FFFFFF" d="M155.7,164.2v-7.5h10.1v7.5H155.7z M155.9,156.9v7.1h9.7v-7.1H155.9z"/>
			<path fill="#B5C0C9" d="M165.6,156.7c-0.1,0-0.2,0.1-0.2,0.2v7.2c0,0.1,0.1,0.2,0.2,0.2h0.4c0.1,0,0.2-0.1,0.2-0.2v-7.2
				c0-0.1-0.1-0.2-0.2-0.2H165.6z"/>
			<path fill="#FFFFFF" d="M165.4,164.1v-7.2c0-0.1,0.1-0.3,0.3-0.3h0.4c0.1,0,0.3,0.1,0.3,0.3v7.2c0,0.1-0.1,0.3-0.3,0.3h-0.4
				C165.5,164.3,165.4,164.2,165.4,164.1z M166,156.9C166,156.8,166,156.8,166,156.9l-0.4-0.1c0,0-0.1,0-0.1,0.1v7.2c0,0,0,0,0.1,0
				h0.4c0,0,0,0,0,0V156.9z"/>
			<path fill="#B5C0C9" d="M155.5,156.7c-0.1,0-0.2,0.1-0.2,0.2v7.2c0,0.1,0.1,0.2,0.2,0.2h0.4c0.1,0,0.2-0.1,0.2-0.2v-7.2
				c0-0.1-0.1-0.2-0.2-0.2H155.5z"/>
			<path fill="#FFFFFF" d="M155.3,164.1v-7.2c0-0.1,0.1-0.3,0.3-0.3h0.4c0.1,0,0.3,0.1,0.3,0.3v7.2c0,0.1-0.1,0.3-0.3,0.3h-0.4
				C155.4,164.3,155.3,164.2,155.3,164.1z M155.9,156.9C155.9,156.8,155.9,156.8,155.9,156.9l-0.4-0.1c0,0-0.1,0-0.1,0.1v7.2
				c0,0,0,0,0.1,0h0.4c0,0,0,0,0,0V156.9z"/>
		</g>
	</g>
	<g>
		<rect x="155.4" y="135" fill="none" width="40.3" height="7.1"/>
		<text transform="matrix(1 0 0 1 155.3643 139.278)" fill="#FFFFFF" font-family="'Helvetica-Light'" font-size="6">IP AutoSwitch</text>
		<g>
			<rect x="166" y="124.6" fill="#B5C0C9" width="2.6" height="1.5"/>
			<rect x="166" y="124.6" fill="none" stroke="#FFFFFF" stroke-width="0.15" stroke-miterlimit="10" width="2.6" height="1.5"/>
			<rect x="153.4" y="124.6" fill="#B5C0C9" width="2.6" height="1.5"/>
			<rect x="153.4" y="124.6" fill="none" stroke="#FFFFFF" stroke-width="0.15" stroke-miterlimit="10" width="2.6" height="1.5"/>
			<path fill="#B5C0C9" d="M166,129.1l0.5-0.3h0.3c0,0,0.1-0.4,0.1-0.7c0-0.3-0.1-0.7-0.1-0.7h-0.3l-0.7-0.4L166,129.1z"/>
			<path fill="#FFFFFF" d="M165.7,126.8l0.8,0.5h0.3l0,0.1c0,0,0.1,0.4,0.1,0.8c0,0.3-0.1,0.7-0.1,0.8l0,0.1h-0.3l-0.6,0.4
				L165.7,126.8z M166.7,127.5h-0.2l-0.5-0.3l0.1,1.8l0.4-0.2h0.2c0-0.1,0.1-0.4,0.1-0.6C166.8,127.9,166.7,127.6,166.7,127.5z"/>
			<rect x="155.8" y="122.9" fill="#B5C0C9" width="9.9" height="7.3"/>
			<path fill="#FFFFFF" d="M155.7,130.3v-7.5h10.1v7.5H155.7z M155.9,123v7.1h9.7V123H155.9z"/>
			<path fill="#B5C0C9" d="M165.6,122.8c-0.1,0-0.2,0.1-0.2,0.2v7.2c0,0.1,0.1,0.2,0.2,0.2h0.4c0.1,0,0.2-0.1,0.2-0.2V123
				c0-0.1-0.1-0.2-0.2-0.2H165.6z"/>
			<path fill="#FFFFFF" d="M165.4,130.2V123c0-0.1,0.1-0.3,0.3-0.3h0.4c0.1,0,0.3,0.1,0.3,0.3v7.2c0,0.1-0.1,0.3-0.3,0.3h-0.4
				C165.5,130.4,165.4,130.3,165.4,130.2z M166,123C166,122.9,166,122.9,166,123l-0.4-0.1c0,0-0.1,0-0.1,0.1v7.2c0,0,0,0,0.1,0h0.4
				c0,0,0,0,0,0V123z"/>
			<path fill="#B5C0C9" d="M155.5,122.8c-0.1,0-0.2,0.1-0.2,0.2v7.2c0,0.1,0.1,0.2,0.2,0.2h0.4c0.1,0,0.2-0.1,0.2-0.2V123
				c0-0.1-0.1-0.2-0.2-0.2H155.5z"/>
			<path fill="#FFFFFF" d="M155.3,130.2V123c0-0.1,0.1-0.3,0.3-0.3h0.4c0.1,0,0.3,0.1,0.3,0.3v7.2c0,0.1-0.1,0.3-0.3,0.3h-0.4
				C155.4,130.4,155.3,130.3,155.3,130.2z M155.9,123C155.9,122.9,155.9,122.9,155.9,123l-0.4-0.1c0,0-0.1,0-0.1,0.1v7.2
				c0,0,0,0,0.1,0h0.4c0,0,0,0,0,0V123z"/>
		</g>
	</g>
</g>
</svg>
